<?xml version="1.0" encoding="UTF-8" standalone="no"?>
<!DOCTYPE svg PUBLIC "-//W3C//DTD SVG 1.1//EN"
 "http://www.w3.org/Graphics/SVG/1.1/DTD/svg11.dtd">
<!-- Generated by graphviz version 2.43.0 (0)
 -->
<!-- Title: OutputWriter::printSummary Pages: 1 -->
<svg width="381pt" height="150pt"
 viewBox="0.00 0.00 381.00 150.00" xmlns="http://www.w3.org/2000/svg" xmlns:xlink="http://www.w3.org/1999/xlink">
<g id="graph0" class="graph" transform="scale(1 1) rotate(0) translate(4 146)">
<title>OutputWriter::printSummary</title>
<!-- Node1 -->
<g id="Node000001" class="node">
<title>Node1</title>
<g id="a_Node000001"><a xlink:title="Prints a summary of the problem data (for menu option).">
<polygon fill="#999999" stroke="#666666" points="155,-77 0,-77 0,-58 155,-58 155,-77"/>
<text text-anchor="middle" x="77.5" y="-65" font-family="Helvetica,sans-Serif" font-size="10.00">OutputWriter::printSummary</text>
</a>
</g>
</g>
<!-- Node2 -->
<g id="Node000002" class="node">
<title>Node2</title>
<g id="a_Node000002"><a xlink:href="structProblemData.html#a6b90c06ef7a99d80470143618ce5a323" target="_top" xlink:title="Quick sanity check: is total reviewer capacity sufficient?">
<polygon fill="white" stroke="#666666" points="373,-142 191,-142 191,-123 373,-123 373,-142"/>
<text text-anchor="middle" x="282" y="-130" font-family="Helvetica,sans-Serif" font-size="10.00">ProblemData::hasEnoughCapacity</text>
</a>
</g>
</g>
<!-- Node1&#45;&gt;Node2 -->
<g id="edge1_Node000001_Node000002" class="edge">
<title>Node1&#45;&gt;Node2</title>
<g id="a_edge1_Node000001_Node000002"><a xlink:title=" ">
<path fill="none" stroke="#63b8ff" d="M98.83,-77.11C121.05,-87.32 157.92,-103.34 191,-113.5 199.63,-116.15 208.84,-118.56 217.95,-120.7"/>
<polygon fill="#63b8ff" stroke="#63b8ff" points="217.24,-124.13 227.77,-122.92 218.79,-117.3 217.24,-124.13"/>
</a>
</g>
</g>
<!-- Node3 -->
<g id="Node000003" class="node">
<title>Node3</title>
<g id="a_Node000003"><a xlink:href="classOutputWriter.html#aa9033a1320462f6eff4c5cc33eb4fc3f" target="_top" xlink:title="Converts a MatchMode to a human&#45;readable string.">
<polygon fill="white" stroke="#666666" points="359,-104.5 205,-104.5 205,-74.5 359,-74.5 359,-104.5"/>
<text text-anchor="start" x="213" y="-92.5" font-family="Helvetica,sans-Serif" font-size="10.00">OutputWriter::matchModeTo</text>
<text text-anchor="middle" x="282" y="-81.5" font-family="Helvetica,sans-Serif" font-size="10.00">String</text>
</a>
</g>
</g>
<!-- Node1&#45;&gt;Node3 -->
<g id="edge2_Node000001_Node000003" class="edge">
<title>Node1&#45;&gt;Node3</title>
<g id="a_edge2_Node000001_Node000003"><a xlink:title=" ">
<path fill="none" stroke="#63b8ff" d="M155.06,-75.82C168,-77.22 181.51,-78.69 194.68,-80.12"/>
<polygon fill="#63b8ff" stroke="#63b8ff" points="194.35,-83.61 204.67,-81.21 195.11,-76.65 194.35,-83.61"/>
</a>
</g>
</g>
<!-- Node4 -->
<g id="Node000004" class="node">
<title>Node4</title>
<g id="a_Node000004"><a xlink:href="structProblemData.html#a8972080e7733220bd51b437e111bf5c9" target="_top" xlink:title="Number of reviewers.">
<polygon fill="white" stroke="#666666" points="361.5,-56 202.5,-56 202.5,-37 361.5,-37 361.5,-56"/>
<text text-anchor="middle" x="282" y="-44" font-family="Helvetica,sans-Serif" font-size="10.00">ProblemData::numReviewers</text>
</a>
</g>
</g>
<!-- Node1&#45;&gt;Node4 -->
<g id="edge3_Node000001_Node000004" class="edge">
<title>Node1&#45;&gt;Node4</title>
<g id="a_edge3_Node000001_Node000004"><a xlink:title=" ">
<path fill="none" stroke="#63b8ff" d="M155.06,-59.56C167.13,-58.31 179.71,-57 192.03,-55.73"/>
<polygon fill="#63b8ff" stroke="#63b8ff" points="192.73,-59.17 202.31,-54.66 192.01,-52.21 192.73,-59.17"/>
</a>
</g>
</g>
<!-- Node5 -->
<g id="Node000005" class="node">
<title>Node5</title>
<g id="a_Node000005"><a xlink:href="structProblemData.html#af8f49cc7cddaa7219f2a6f3bc9853474" target="_top" xlink:title="Number of submissions.">
<polygon fill="white" stroke="#666666" points="367,-19 197,-19 197,0 367,0 367,-19"/>
<text text-anchor="middle" x="282" y="-7" font-family="Helvetica,sans-Serif" font-size="10.00">ProblemData::numSubmissions</text>
</a>
</g>
</g>
<!-- Node1&#45;&gt;Node5 -->
<g id="edge4_Node000001_Node000005" class="edge">
<title>Node1&#45;&gt;Node5</title>
<g id="a_edge4_Node000001_Node000005"><a xlink:title=" ">
<path fill="none" stroke="#63b8ff" d="M103.24,-57.92C125.85,-49.4 160.33,-37.02 191,-28.5 200.46,-25.87 210.57,-23.41 220.47,-21.19"/>
<polygon fill="#63b8ff" stroke="#63b8ff" points="221.25,-24.6 230.27,-19.04 219.76,-17.76 221.25,-24.6"/>
</a>
</g>
</g>
</g>
</svg>
