<?xml version="1.0" encoding="UTF-8" standalone="no"?>
<!DOCTYPE svg PUBLIC "-//W3C//DTD SVG 1.1//EN"
 "http://www.w3.org/Graphics/SVG/1.1/DTD/svg11.dtd">
<!-- Generated by graphviz version 2.43.0 (0)
 -->
<!-- Title: NetworkBuilder::buildNetwork Pages: 1 -->
<svg width="557pt" height="286pt"
 viewBox="0.00 0.00 557.00 286.00" xmlns="http://www.w3.org/2000/svg" xmlns:xlink="http://www.w3.org/1999/xlink">
<g id="graph0" class="graph" transform="scale(1 1) rotate(0) translate(4 282)">
<title>NetworkBuilder::buildNetwork</title>
<!-- Node1 -->
<g id="Node000001" class="node">
<title>Node1</title>
<g id="a_Node000001"><a xlink:title="Builds the complete flow network.">
<polygon fill="#999999" stroke="#666666" points="164,-148 0,-148 0,-129 164,-129 164,-148"/>
<text text-anchor="middle" x="82" y="-136" font-family="Helvetica,sans-Serif" font-size="10.00">NetworkBuilder::buildNetwork</text>
</a>
</g>
</g>
<!-- Node2 -->
<g id="Node000002" class="node">
<title>Node2</title>
<g id="a_Node000002"><a xlink:href="classGraph.html#a8cdfb932968807565b3cc3b52759e3b8" target="_top" xlink:title="Adds a directed edge (u → v) with the given capacity, along with its reverse edge (v → u) with capaci...">
<polygon fill="white" stroke="#666666" points="336.5,-278 242.5,-278 242.5,-259 336.5,-259 336.5,-278"/>
<text text-anchor="middle" x="289.5" y="-266" font-family="Helvetica,sans-Serif" font-size="10.00">Graph::addEdge</text>
</a>
</g>
</g>
<!-- Node1&#45;&gt;Node2 -->
<g id="edge1_Node000001_Node000002" class="edge">
<title>Node1&#45;&gt;Node2</title>
<g id="a_edge1_Node000001_Node000002"><a xlink:title=" ">
<path fill="none" stroke="#63b8ff" d="M89.95,-148.16C106.36,-170.2 149.92,-224.29 200,-250.5 209.89,-255.68 221.13,-259.37 232.19,-261.99"/>
<polygon fill="#63b8ff" stroke="#63b8ff" points="231.76,-265.48 242.27,-264.12 233.21,-258.63 231.76,-265.48"/>
</a>
</g>
</g>
<!-- Node4 -->
<g id="Node000004" class="node">
<title>Node4</title>
<g id="a_Node000004"><a xlink:href="classNetworkBuilder.html#acc9979fa0114fda405375f52dbe49a84" target="_top" xlink:title="Determines if a reviewer can review a submission based on domain matching.">
<polygon fill="white" stroke="#666666" points="371,-241 208,-241 208,-222 371,-222 371,-241"/>
<text text-anchor="middle" x="289.5" y="-229" font-family="Helvetica,sans-Serif" font-size="10.00">NetworkBuilder::isCompatible</text>
</a>
</g>
</g>
<!-- Node1&#45;&gt;Node4 -->
<g id="edge3_Node000001_Node000004" class="edge">
<title>Node1&#45;&gt;Node4</title>
<g id="a_edge3_Node000001_Node000004"><a xlink:title=" ">
<path fill="none" stroke="#63b8ff" d="M94.81,-148.21C115.03,-164.34 158.19,-196.54 200,-213.5 205.4,-215.69 211.09,-217.62 216.89,-219.33"/>
<polygon fill="#63b8ff" stroke="#63b8ff" points="216.13,-222.75 226.69,-221.99 217.96,-215.99 216.13,-222.75"/>
</a>
</g>
</g>
<!-- Node6 -->
<g id="Node000006" class="node">
<title>Node6</title>
<g id="a_Node000006"><a xlink:href="structProblemData.html#a8972080e7733220bd51b437e111bf5c9" target="_top" xlink:title="Number of reviewers.">
<polygon fill="white" stroke="#666666" points="369,-204 210,-204 210,-185 369,-185 369,-204"/>
<text text-anchor="middle" x="289.5" y="-192" font-family="Helvetica,sans-Serif" font-size="10.00">ProblemData::numReviewers</text>
</a>
</g>
</g>
<!-- Node1&#45;&gt;Node6 -->
<g id="edge5_Node000001_Node000006" class="edge">
<title>Node1&#45;&gt;Node6</title>
<g id="a_edge5_Node000001_Node000006"><a xlink:title=" ">
<path fill="none" stroke="#63b8ff" d="M109.7,-148.13C133.25,-156.39 168.61,-168.24 200,-176.5 208.48,-178.73 217.48,-180.85 226.37,-182.79"/>
<polygon fill="#63b8ff" stroke="#63b8ff" points="225.82,-186.25 236.33,-184.91 227.28,-179.41 225.82,-186.25"/>
</a>
</g>
</g>
<!-- Node7 -->
<g id="Node000007" class="node">
<title>Node7</title>
<g id="a_Node000007"><a xlink:href="structProblemData.html#af8f49cc7cddaa7219f2a6f3bc9853474" target="_top" xlink:title="Number of submissions.">
<polygon fill="white" stroke="#666666" points="374.5,-167 204.5,-167 204.5,-148 374.5,-148 374.5,-167"/>
<text text-anchor="middle" x="289.5" y="-155" font-family="Helvetica,sans-Serif" font-size="10.00">ProblemData::numSubmissions</text>
</a>
</g>
</g>
<!-- Node1&#45;&gt;Node7 -->
<g id="edge6_Node000001_Node000007" class="edge">
<title>Node1&#45;&gt;Node7</title>
<g id="a_edge6_Node000001_Node000007"><a xlink:title=" ">
<path fill="none" stroke="#63b8ff" d="M164.22,-146.01C174.15,-146.93 184.36,-147.87 194.45,-148.8"/>
<polygon fill="#63b8ff" stroke="#63b8ff" points="194.22,-152.3 204.5,-149.73 194.86,-145.33 194.22,-152.3"/>
</a>
</g>
</g>
<!-- Node8 -->
<g id="Node000008" class="node">
<title>Node8</title>
<g id="a_Node000008"><a xlink:href="classNetworkBuilder.html#a0b1fedb0791107aa56d1022f3964269f" target="_top" xlink:title="Maps a reviewer&#39;s vector index to its graph node ID.">
<polygon fill="white" stroke="#666666" points="373,-130 206,-130 206,-111 373,-111 373,-130"/>
<text text-anchor="middle" x="289.5" y="-118" font-family="Helvetica,sans-Serif" font-size="10.00">NetworkBuilder::reviewerNode</text>
</a>
</g>
</g>
<!-- Node1&#45;&gt;Node8 -->
<g id="edge7_Node000001_Node000008" class="edge">
<title>Node1&#45;&gt;Node8</title>
<g id="a_edge7_Node000001_Node000008"><a xlink:title=" ">
<path fill="none" stroke="#63b8ff" d="M164.22,-131.39C174.59,-130.48 185.27,-129.54 195.81,-128.62"/>
<polygon fill="#63b8ff" stroke="#63b8ff" points="196.19,-132.1 205.85,-127.74 195.58,-125.13 196.19,-132.1"/>
</a>
</g>
</g>
<!-- Node9 -->
<g id="Node000009" class="node">
<title>Node9</title>
<g id="a_Node000009"><a xlink:href="classNetworkBuilder.html#a508fc4af685c78c10f96ab39610d4040" target="_top" xlink:title="Maps a submission&#39;s vector index to its graph node ID.">
<polygon fill="white" stroke="#666666" points="379,-93 200,-93 200,-74 379,-74 379,-93"/>
<text text-anchor="middle" x="289.5" y="-81" font-family="Helvetica,sans-Serif" font-size="10.00">NetworkBuilder::submissionNode</text>
</a>
</g>
</g>
<!-- Node1&#45;&gt;Node9 -->
<g id="edge8_Node000001_Node000009" class="edge">
<title>Node1&#45;&gt;Node9</title>
<g id="a_edge8_Node000001_Node000009"><a xlink:title=" ">
<path fill="none" stroke="#63b8ff" d="M111.65,-128.92C135.21,-121.23 169.56,-110.43 200,-102.5 209.69,-99.97 220.05,-97.53 230.13,-95.28"/>
<polygon fill="#63b8ff" stroke="#63b8ff" points="231.07,-98.65 240.09,-93.1 229.58,-91.82 231.07,-98.65"/>
</a>
</g>
</g>
<!-- Node10 -->
<g id="Node000010" class="node">
<title>Node10</title>
<g id="a_Node000010"><a xlink:href="structConfig.html#a89db87ddce24e353ccabde8d0dc70ade" target="_top" xlink:title="Determines if reviewer secondary expertise should be used in matching.">
<polygon fill="white" stroke="#666666" points="373,-56 206,-56 206,-37 373,-37 373,-56"/>
<text text-anchor="middle" x="289.5" y="-44" font-family="Helvetica,sans-Serif" font-size="10.00">Config::useReviewerSecondary</text>
</a>
</g>
</g>
<!-- Node1&#45;&gt;Node10 -->
<g id="edge9_Node000001_Node000010" class="edge">
<title>Node1&#45;&gt;Node10</title>
<g id="a_edge9_Node000001_Node000010"><a xlink:title=" ">
<path fill="none" stroke="#63b8ff" d="M95.2,-128.86C115.66,-113.17 158.72,-82.21 200,-65.5 206.36,-62.92 213.13,-60.68 219.98,-58.72"/>
<polygon fill="#63b8ff" stroke="#63b8ff" points="221.26,-61.99 230.03,-56.05 219.47,-55.23 221.26,-61.99"/>
</a>
</g>
</g>
<!-- Node11 -->
<g id="Node000011" class="node">
<title>Node11</title>
<g id="a_Node000011"><a xlink:href="structConfig.html#a936e7b5bd16f50374b648f00465f1a32" target="_top" xlink:title="Determines if submission secondary domains should be used in matching.">
<polygon fill="white" stroke="#666666" points="378.5,-19 200.5,-19 200.5,0 378.5,0 378.5,-19"/>
<text text-anchor="middle" x="289.5" y="-7" font-family="Helvetica,sans-Serif" font-size="10.00">Config::useSubmissionSecondary</text>
</a>
</g>
</g>
<!-- Node1&#45;&gt;Node11 -->
<g id="edge10_Node000001_Node000011" class="edge">
<title>Node1&#45;&gt;Node11</title>
<g id="a_edge10_Node000001_Node000011"><a xlink:title=" ">
<path fill="none" stroke="#63b8ff" d="M90.26,-128.73C106.98,-106.97 150.62,-54.4 200,-28.5 204.49,-26.14 209.26,-24.08 214.17,-22.27"/>
<polygon fill="#63b8ff" stroke="#63b8ff" points="215.34,-25.57 223.72,-19.1 213.13,-18.93 215.34,-25.57"/>
</a>
</g>
</g>
<!-- Node3 -->
<g id="Node000003" class="node">
<title>Node3</title>
<g id="a_Node000003"><a xlink:href="classGraph.html#a0a3f35d90f69456655a046806c725063" target="_top" xlink:title="Returns the number of nodes in the graph.">
<polygon fill="white" stroke="#666666" points="534,-278 430,-278 430,-259 534,-259 534,-278"/>
<text text-anchor="middle" x="482" y="-266" font-family="Helvetica,sans-Serif" font-size="10.00">Graph::numNodes</text>
</a>
</g>
</g>
<!-- Node2&#45;&gt;Node3 -->
<g id="edge2_Node000002_Node000003" class="edge">
<title>Node2&#45;&gt;Node3</title>
<g id="a_edge2_Node000002_Node000003"><a xlink:title=" ">
<path fill="none" stroke="#63b8ff" d="M336.61,-268.5C361.61,-268.5 392.82,-268.5 419.83,-268.5"/>
<polygon fill="#63b8ff" stroke="#63b8ff" points="419.95,-272 429.95,-268.5 419.95,-265 419.95,-272"/>
</a>
</g>
</g>
<!-- Node5 -->
<g id="Node000005" class="node">
<title>Node5</title>
<g id="a_Node000005"><a xlink:href="structSubmission.html#a19ab1b3a6dc11bd0b8254be4cbc31d2d" target="_top" xlink:title="Checks if this submission covers the given domain.">
<polygon fill="white" stroke="#666666" points="549,-241 415,-241 415,-222 549,-222 549,-241"/>
<text text-anchor="middle" x="482" y="-229" font-family="Helvetica,sans-Serif" font-size="10.00">Submission::hasDomain</text>
</a>
</g>
</g>
<!-- Node4&#45;&gt;Node5 -->
<g id="edge4_Node000004_Node000005" class="edge">
<title>Node4&#45;&gt;Node5</title>
<g id="a_edge4_Node000004_Node000005"><a xlink:title=" ">
<path fill="none" stroke="#63b8ff" d="M371.01,-231.5C382.21,-231.5 393.68,-231.5 404.8,-231.5"/>
<polygon fill="#63b8ff" stroke="#63b8ff" points="404.88,-235 414.88,-231.5 404.88,-228 404.88,-235"/>
</a>
</g>
</g>
</g>
</svg>
