<?xml version="1.0" encoding="UTF-8" standalone="no"?>
<!DOCTYPE svg PUBLIC "-//W3C//DTD SVG 1.1//EN"
 "http://www.w3.org/Graphics/SVG/1.1/DTD/svg11.dtd">
<!-- Generated by graphviz version 2.43.0 (0)
 -->
<!-- Title: Solver::solveWithRiskAnalysis Pages: 1 -->
<svg width="826pt" height="514pt"
 viewBox="0.00 0.00 826.00 514.00" xmlns="http://www.w3.org/2000/svg" xmlns:xlink="http://www.w3.org/1999/xlink">
<g id="graph0" class="graph" transform="scale(1 1) rotate(0) translate(4 510)">
<title>Solver::solveWithRiskAnalysis</title>
<!-- Node1 -->
<g id="Node000001" class="node">
<title>Node1</title>
<g id="a_Node000001"><a xlink:title="Performs Risk Analysis with parameter K = 1.">
<polygon fill="#999999" stroke="#666666" points="164,-257 0,-257 0,-238 164,-238 164,-257"/>
<text text-anchor="middle" x="82" y="-245" font-family="Helvetica,sans-Serif" font-size="10.00">Solver::solveWithRiskAnalysis</text>
</a>
</g>
</g>
<!-- Node2 -->
<g id="Node000002" class="node">
<title>Node2</title>
<g id="a_Node000002"><a xlink:href="classNetworkBuilder.html#af514e79c3d2f21597c54e01c4ce9475d" target="_top" xlink:title="Builds the complete flow network.">
<polygon fill="white" stroke="#666666" points="364,-257 200,-257 200,-238 364,-238 364,-257"/>
<text text-anchor="middle" x="282" y="-245" font-family="Helvetica,sans-Serif" font-size="10.00">NetworkBuilder::buildNetwork</text>
</a>
</g>
</g>
<!-- Node1&#45;&gt;Node2 -->
<g id="edge1_Node000001_Node000002" class="edge">
<title>Node1&#45;&gt;Node2</title>
<g id="a_edge1_Node000001_Node000002"><a xlink:title=" ">
<path fill="none" stroke="#63b8ff" d="M164.11,-247.5C172.46,-247.5 180.99,-247.5 189.44,-247.5"/>
<polygon fill="#63b8ff" stroke="#63b8ff" points="189.7,-251 199.7,-247.5 189.7,-244 189.7,-251"/>
</a>
</g>
</g>
<!-- Node7 -->
<g id="Node000007" class="node">
<title>Node7</title>
<g id="a_Node000007"><a xlink:href="structProblemData.html#a8972080e7733220bd51b437e111bf5c9" target="_top" xlink:title="Number of reviewers.">
<polygon fill="white" stroke="#666666" points="581.5,-392 422.5,-392 422.5,-373 581.5,-373 581.5,-392"/>
<text text-anchor="middle" x="502" y="-380" font-family="Helvetica,sans-Serif" font-size="10.00">ProblemData::numReviewers</text>
</a>
</g>
</g>
<!-- Node1&#45;&gt;Node7 -->
<g id="edge25_Node000001_Node000007" class="edge">
<title>Node1&#45;&gt;Node7</title>
<g id="a_edge25_Node000001_Node000007"><a xlink:title=" ">
<path fill="none" stroke="#63b8ff" d="M112.9,-257.06C164.65,-273.83 274.02,-310.35 364,-347.5 380.36,-354.25 383.14,-359.12 400,-364.5 407.54,-366.91 415.5,-369.02 423.52,-370.87"/>
<polygon fill="#63b8ff" stroke="#63b8ff" points="422.78,-374.29 433.3,-372.99 424.27,-367.45 422.78,-374.29"/>
</a>
</g>
</g>
<!-- Node8 -->
<g id="Node000008" class="node">
<title>Node8</title>
<g id="a_Node000008"><a xlink:href="structProblemData.html#af8f49cc7cddaa7219f2a6f3bc9853474" target="_top" xlink:title="Number of submissions.">
<polygon fill="white" stroke="#666666" points="587,-167 417,-167 417,-148 587,-148 587,-167"/>
<text text-anchor="middle" x="502" y="-155" font-family="Helvetica,sans-Serif" font-size="10.00">ProblemData::numSubmissions</text>
</a>
</g>
</g>
<!-- Node1&#45;&gt;Node8 -->
<g id="edge26_Node000001_Node000008" class="edge">
<title>Node1&#45;&gt;Node8</title>
<g id="a_edge26_Node000001_Node000008"><a xlink:title=" ">
<path fill="none" stroke="#63b8ff" d="M127.34,-237.95C204.57,-221.33 363.48,-187.11 447,-169.13"/>
<polygon fill="#63b8ff" stroke="#63b8ff" points="447.76,-172.54 456.8,-167.02 446.29,-165.7 447.76,-172.54"/>
</a>
</g>
</g>
<!-- Node9 -->
<g id="Node000009" class="node">
<title>Node9</title>
<g id="a_Node000009"><a xlink:href="classNetworkBuilder.html#a0b1fedb0791107aa56d1022f3964269f" target="_top" xlink:title="Maps a reviewer&#39;s vector index to its graph node ID.">
<polygon fill="white" stroke="#666666" points="585.5,-130 418.5,-130 418.5,-111 585.5,-111 585.5,-130"/>
<text text-anchor="middle" x="502" y="-118" font-family="Helvetica,sans-Serif" font-size="10.00">NetworkBuilder::reviewerNode</text>
</a>
</g>
</g>
<!-- Node1&#45;&gt;Node9 -->
<g id="edge27_Node000001_Node000009" class="edge">
<title>Node1&#45;&gt;Node9</title>
<g id="a_edge27_Node000001_Node000009"><a xlink:title=" ">
<path fill="none" stroke="#63b8ff" d="M97.9,-237.78C119.55,-224.05 161.35,-199.05 200,-184.5 270.45,-157.98 354.54,-141.27 415.91,-131.6"/>
<polygon fill="#63b8ff" stroke="#63b8ff" points="416.59,-135.03 425.94,-130.05 415.52,-128.11 416.59,-135.03"/>
</a>
</g>
</g>
<!-- Node13 -->
<g id="Node000013" class="node">
<title>Node13</title>
<g id="a_Node000013"><a xlink:href="classGraph.html#a24e78627debf97e225128856196398dc" target="_top" xlink:title="Disables all edges from a specific node by setting capacity to 0.">
<polygon fill="white" stroke="#666666" points="338.5,-375 225.5,-375 225.5,-356 338.5,-356 338.5,-375"/>
<text text-anchor="middle" x="282" y="-363" font-family="Helvetica,sans-Serif" font-size="10.00">Graph::disableNode</text>
</a>
</g>
</g>
<!-- Node1&#45;&gt;Node13 -->
<g id="edge12_Node000001_Node000013" class="edge">
<title>Node1&#45;&gt;Node13</title>
<g id="a_edge12_Node000001_Node000013"><a xlink:title=" ">
<path fill="none" stroke="#63b8ff" d="M99.2,-257.16C133.81,-277.78 215.12,-326.24 256.25,-350.75"/>
<polygon fill="#63b8ff" stroke="#63b8ff" points="254.47,-353.76 264.85,-355.88 258.05,-347.75 254.47,-353.76"/>
</a>
</g>
</g>
<!-- Node14 -->
<g id="Node000014" class="node">
<title>Node14</title>
<g id="a_Node000014"><a xlink:href="classGraph.html#afd2749a1cd58db2d3b6fa6eef639399c" target="_top" xlink:title="Computes the maximum flow from source to sink using Edmonds&#45;Karp.">
<polygon fill="white" stroke="#666666" points="341.5,-468 222.5,-468 222.5,-449 341.5,-449 341.5,-468"/>
<text text-anchor="middle" x="282" y="-456" font-family="Helvetica,sans-Serif" font-size="10.00">Graph::edmondsKarp</text>
</a>
</g>
</g>
<!-- Node1&#45;&gt;Node14 -->
<g id="edge14_Node000001_Node000014" class="edge">
<title>Node1&#45;&gt;Node14</title>
<g id="a_edge14_Node000001_Node000014"><a xlink:title=" ">
<path fill="none" stroke="#63b8ff" d="M90.56,-257.15C108.62,-280.04 156.08,-339.08 200,-384.5 220.07,-405.25 244.77,-427.37 261.58,-441.97"/>
<polygon fill="#63b8ff" stroke="#63b8ff" points="259.73,-444.99 269.59,-448.86 264.3,-439.69 259.73,-444.99"/>
</a>
</g>
</g>
<!-- Node17 -->
<g id="Node000017" class="node">
<title>Node17</title>
<g id="a_Node000017"><a xlink:href="classSolver.html#ab064c56e0bda025818ce6f8461dd4e80" target="_top" xlink:title="Extracts the assignment from the solved flow network.">
<polygon fill="white" stroke="#666666" points="341.5,-93 222.5,-93 222.5,-74 341.5,-74 341.5,-93"/>
<text text-anchor="middle" x="282" y="-81" font-family="Helvetica,sans-Serif" font-size="10.00">Solver::extractResult</text>
</a>
</g>
</g>
<!-- Node1&#45;&gt;Node17 -->
<g id="edge18_Node000001_Node000017" class="edge">
<title>Node1&#45;&gt;Node17</title>
<g id="a_edge18_Node000001_Node000017"><a xlink:title=" ">
<path fill="none" stroke="#63b8ff" d="M91.08,-237.86C109.12,-216.72 154.69,-165.35 200,-130.5 216.38,-117.91 236.45,-106.24 252.52,-97.67"/>
<polygon fill="#63b8ff" stroke="#63b8ff" points="254.21,-100.74 261.46,-93.01 250.97,-94.53 254.21,-100.74"/>
</a>
</g>
</g>
<!-- Node3 -->
<g id="Node000003" class="node">
<title>Node3</title>
<g id="a_Node000003"><a xlink:href="classGraph.html#a8cdfb932968807565b3cc3b52759e3b8" target="_top" xlink:title="Adds a directed edge (u → v) with the given capacity, along with its reverse edge (v → u) with capaci...">
<polygon fill="white" stroke="#666666" points="549,-355 455,-355 455,-336 549,-336 549,-355"/>
<text text-anchor="middle" x="502" y="-343" font-family="Helvetica,sans-Serif" font-size="10.00">Graph::addEdge</text>
</a>
</g>
</g>
<!-- Node2&#45;&gt;Node3 -->
<g id="edge2_Node000002_Node000003" class="edge">
<title>Node2&#45;&gt;Node3</title>
<g id="a_edge2_Node000002_Node000003"><a xlink:title=" ">
<path fill="none" stroke="#63b8ff" d="M310.49,-257.02C326.98,-263.52 347.81,-273.18 364,-285.5 383.57,-300.39 378.66,-315.3 400,-327.5 413.57,-335.26 429.71,-339.81 445.06,-342.45"/>
<polygon fill="#63b8ff" stroke="#63b8ff" points="444.59,-345.92 455,-343.92 445.62,-338.99 444.59,-345.92"/>
</a>
</g>
</g>
<!-- Node5 -->
<g id="Node000005" class="node">
<title>Node5</title>
<g id="a_Node000005"><a xlink:href="classNetworkBuilder.html#acc9979fa0114fda405375f52dbe49a84" target="_top" xlink:title="Determines if a reviewer can review a submission based on domain matching.">
<polygon fill="white" stroke="#666666" points="583.5,-281 420.5,-281 420.5,-262 583.5,-262 583.5,-281"/>
<text text-anchor="middle" x="502" y="-269" font-family="Helvetica,sans-Serif" font-size="10.00">NetworkBuilder::isCompatible</text>
</a>
</g>
</g>
<!-- Node2&#45;&gt;Node5 -->
<g id="edge4_Node000002_Node000005" class="edge">
<title>Node2&#45;&gt;Node5</title>
<g id="a_edge4_Node000002_Node000005"><a xlink:title=" ">
<path fill="none" stroke="#63b8ff" d="M364.18,-256.44C379.27,-258.1 395.13,-259.84 410.48,-261.53"/>
<polygon fill="#63b8ff" stroke="#63b8ff" points="410.16,-265.02 420.48,-262.64 410.93,-258.06 410.16,-265.02"/>
</a>
</g>
</g>
<!-- Node2&#45;&gt;Node7 -->
<g id="edge6_Node000002_Node000007" class="edge">
<title>Node2&#45;&gt;Node7</title>
<g id="a_edge6_Node000002_Node000007"><a xlink:title=" ">
<path fill="none" stroke="#63b8ff" d="M316.19,-257.06C332.28,-263.07 350.89,-272.25 364,-285.5 391.13,-312.93 369.51,-340.85 400,-364.5 404.07,-367.66 408.52,-370.34 413.19,-372.6"/>
<polygon fill="#63b8ff" stroke="#63b8ff" points="411.87,-375.83 422.44,-376.45 414.56,-369.37 411.87,-375.83"/>
</a>
</g>
</g>
<!-- Node2&#45;&gt;Node8 -->
<g id="edge7_Node000002_Node000008" class="edge">
<title>Node2&#45;&gt;Node8</title>
<g id="a_edge7_Node000002_Node000008"><a xlink:title=" ">
<path fill="none" stroke="#63b8ff" d="M313.48,-237.99C329.22,-232.37 348.35,-224.41 364,-214.5 382.34,-202.89 380.82,-191.67 400,-181.5 409.05,-176.7 419.06,-172.85 429.16,-169.76"/>
<polygon fill="#63b8ff" stroke="#63b8ff" points="430.16,-173.11 438.84,-167.03 428.26,-166.38 430.16,-173.11"/>
</a>
</g>
</g>
<!-- Node2&#45;&gt;Node9 -->
<g id="edge8_Node000002_Node000009" class="edge">
<title>Node2&#45;&gt;Node9</title>
<g id="a_edge8_Node000002_Node000009"><a xlink:title=" ">
<path fill="none" stroke="#63b8ff" d="M290.22,-237.7C306.86,-215.88 350.33,-163.31 400,-138.5 403.85,-136.58 407.88,-134.85 412.02,-133.31"/>
<polygon fill="#63b8ff" stroke="#63b8ff" points="413.44,-136.53 421.82,-130.04 411.23,-129.89 413.44,-136.53"/>
</a>
</g>
</g>
<!-- Node10 -->
<g id="Node000010" class="node">
<title>Node10</title>
<g id="a_Node000010"><a xlink:href="classNetworkBuilder.html#a508fc4af685c78c10f96ab39610d4040" target="_top" xlink:title="Maps a submission&#39;s vector index to its graph node ID.">
<polygon fill="white" stroke="#666666" points="591.5,-318 412.5,-318 412.5,-299 591.5,-299 591.5,-318"/>
<text text-anchor="middle" x="502" y="-306" font-family="Helvetica,sans-Serif" font-size="10.00">NetworkBuilder::submissionNode</text>
</a>
</g>
</g>
<!-- Node2&#45;&gt;Node10 -->
<g id="edge9_Node000002_Node000010" class="edge">
<title>Node2&#45;&gt;Node10</title>
<g id="a_edge9_Node000002_Node000010"><a xlink:title=" ">
<path fill="none" stroke="#63b8ff" d="M305.48,-257.11C328.76,-266.74 366.37,-281.4 400,-290.5 408.84,-292.89 418.2,-295.05 427.52,-296.97"/>
<polygon fill="#63b8ff" stroke="#63b8ff" points="427.1,-300.45 437.58,-298.96 428.45,-293.59 427.1,-300.45"/>
</a>
</g>
</g>
<!-- Node11 -->
<g id="Node000011" class="node">
<title>Node11</title>
<g id="a_Node000011"><a xlink:href="structConfig.html#a89db87ddce24e353ccabde8d0dc70ade" target="_top" xlink:title="Determines if reviewer secondary expertise should be used in matching.">
<polygon fill="white" stroke="#666666" points="812.5,-215 645.5,-215 645.5,-196 812.5,-196 812.5,-215"/>
<text text-anchor="middle" x="729" y="-203" font-family="Helvetica,sans-Serif" font-size="10.00">Config::useReviewerSecondary</text>
</a>
</g>
</g>
<!-- Node2&#45;&gt;Node11 -->
<g id="edge10_Node000002_Node000011" class="edge">
<title>Node2&#45;&gt;Node11</title>
<g id="a_edge10_Node000002_Node000011"><a xlink:title=" ">
<path fill="none" stroke="#63b8ff" d="M364.1,-239.85C440.55,-232.63 555.03,-221.83 635.11,-214.27"/>
<polygon fill="#63b8ff" stroke="#63b8ff" points="635.57,-217.74 645.19,-213.32 634.91,-210.77 635.57,-217.74"/>
</a>
</g>
</g>
<!-- Node12 -->
<g id="Node000012" class="node">
<title>Node12</title>
<g id="a_Node000012"><a xlink:href="structConfig.html#a936e7b5bd16f50374b648f00465f1a32" target="_top" xlink:title="Determines if submission secondary domains should be used in matching.">
<polygon fill="white" stroke="#666666" points="818,-149 640,-149 640,-130 818,-130 818,-149"/>
<text text-anchor="middle" x="729" y="-137" font-family="Helvetica,sans-Serif" font-size="10.00">Config::useSubmissionSecondary</text>
</a>
</g>
</g>
<!-- Node2&#45;&gt;Node12 -->
<g id="edge11_Node000002_Node000012" class="edge">
<title>Node2&#45;&gt;Node12</title>
<g id="a_edge11_Node000002_Node000012"><a xlink:title=" ">
<path fill="none" stroke="#63b8ff" d="M312.59,-237.98C336.11,-230.64 369.94,-220.57 400,-213.5 489.7,-192.39 514.38,-197.93 604,-176.5 633,-169.57 665.26,-159.88 689.6,-152.15"/>
<polygon fill="#63b8ff" stroke="#63b8ff" points="690.73,-155.47 699.18,-149.09 688.59,-148.8 690.73,-155.47"/>
</a>
</g>
</g>
<!-- Node4 -->
<g id="Node000004" class="node">
<title>Node4</title>
<g id="a_Node000004"><a xlink:href="classGraph.html#a0a3f35d90f69456655a046806c725063" target="_top" xlink:title="Returns the number of nodes in the graph.">
<polygon fill="white" stroke="#666666" points="781,-430 677,-430 677,-411 781,-411 781,-430"/>
<text text-anchor="middle" x="729" y="-418" font-family="Helvetica,sans-Serif" font-size="10.00">Graph::numNodes</text>
</a>
</g>
</g>
<!-- Node3&#45;&gt;Node4 -->
<g id="edge3_Node000003_Node000004" class="edge">
<title>Node3&#45;&gt;Node4</title>
<g id="a_edge3_Node000003_Node000004"><a xlink:title=" ">
<path fill="none" stroke="#63b8ff" d="M549.07,-351.79C566.51,-354.79 586.39,-358.95 604,-364.5 638.81,-375.46 676.76,-393.59 701.39,-406.24"/>
<polygon fill="#63b8ff" stroke="#63b8ff" points="699.97,-409.44 710.46,-410.96 703.2,-403.24 699.97,-409.44"/>
</a>
</g>
</g>
<!-- Node6 -->
<g id="Node000006" class="node">
<title>Node6</title>
<g id="a_Node000006"><a xlink:href="structSubmission.html#a19ab1b3a6dc11bd0b8254be4cbc31d2d" target="_top" xlink:title="Checks if this submission covers the given domain.">
<polygon fill="white" stroke="#666666" points="796,-281 662,-281 662,-262 796,-262 796,-281"/>
<text text-anchor="middle" x="729" y="-269" font-family="Helvetica,sans-Serif" font-size="10.00">Submission::hasDomain</text>
</a>
</g>
</g>
<!-- Node5&#45;&gt;Node6 -->
<g id="edge5_Node000005_Node000006" class="edge">
<title>Node5&#45;&gt;Node6</title>
<g id="a_edge5_Node000005_Node000006"><a xlink:title=" ">
<path fill="none" stroke="#63b8ff" d="M583.59,-271.5C605.69,-271.5 629.58,-271.5 651.45,-271.5"/>
<polygon fill="#63b8ff" stroke="#63b8ff" points="651.67,-275 661.67,-271.5 651.67,-268 651.67,-275"/>
</a>
</g>
</g>
<!-- Node13&#45;&gt;Node4 -->
<g id="edge13_Node000013_Node000004" class="edge">
<title>Node13&#45;&gt;Node4</title>
<g id="a_edge13_Node000013_Node000004"><a xlink:title=" ">
<path fill="none" stroke="#63b8ff" d="M308.13,-375.16C331.53,-383.7 367.58,-395.66 400,-401.5 491.92,-418.05 600.44,-421.2 666.72,-421.33"/>
<polygon fill="#63b8ff" stroke="#63b8ff" points="666.99,-424.83 676.98,-421.32 666.98,-417.83 666.99,-424.83"/>
</a>
</g>
</g>
<!-- Node14&#45;&gt;Node4 -->
<g id="edge17_Node000014_Node000004" class="edge">
<title>Node14&#45;&gt;Node4</title>
<g id="a_edge17_Node000014_Node000004"><a xlink:title=" ">
<path fill="none" stroke="#63b8ff" d="M341.63,-454.78C406.03,-450.55 512.47,-443.09 604,-434.5 624.39,-432.59 646.63,-430.18 666.57,-427.9"/>
<polygon fill="#63b8ff" stroke="#63b8ff" points="667.23,-431.35 676.76,-426.72 666.43,-424.39 667.23,-431.35"/>
</a>
</g>
</g>
<!-- Node15 -->
<g id="Node000015" class="node">
<title>Node15</title>
<g id="a_Node000015"><a xlink:href="classGraph.html#a348391db529c20a826a1483fe7bdcb9a" target="_top" xlink:title="BFS on the residual graph to find the shortest augmenting path.">
<polygon fill="white" stroke="#666666" points="535.5,-506 468.5,-506 468.5,-487 535.5,-487 535.5,-506"/>
<text text-anchor="middle" x="502" y="-494" font-family="Helvetica,sans-Serif" font-size="10.00">Graph::bfs</text>
</a>
</g>
</g>
<!-- Node14&#45;&gt;Node15 -->
<g id="edge15_Node000014_Node000015" class="edge">
<title>Node14&#45;&gt;Node15</title>
<g id="a_edge15_Node000014_Node000015"><a xlink:title=" ">
<path fill="none" stroke="#63b8ff" d="M337.73,-468.04C374.99,-474.54 423.61,-483.01 458.08,-489.02"/>
<polygon fill="#63b8ff" stroke="#63b8ff" points="457.84,-492.53 468.29,-490.8 459.04,-485.63 457.84,-492.53"/>
</a>
</g>
</g>
<!-- Node16 -->
<g id="Node000016" class="node">
<title>Node16</title>
<g id="a_Node000016"><a xlink:href="structEdge.html#a0b45154adf516897233895a25fad355e" target="_top" xlink:title="Residual capacity of this edge.">
<polygon fill="white" stroke="#666666" points="772,-506 686,-506 686,-487 772,-487 772,-506"/>
<text text-anchor="middle" x="729" y="-494" font-family="Helvetica,sans-Serif" font-size="10.00">Edge::residual</text>
</a>
</g>
</g>
<!-- Node15&#45;&gt;Node16 -->
<g id="edge16_Node000015_Node000016" class="edge">
<title>Node15&#45;&gt;Node16</title>
<g id="a_edge16_Node000015_Node000016"><a xlink:title=" ">
<path fill="none" stroke="#63b8ff" d="M535.72,-496.5C572.39,-496.5 632.36,-496.5 675.59,-496.5"/>
<polygon fill="#63b8ff" stroke="#63b8ff" points="675.64,-500 685.64,-496.5 675.64,-493 675.64,-500"/>
</a>
</g>
</g>
<!-- Node17&#45;&gt;Node9 -->
<g id="edge24_Node000017_Node000009" class="edge">
<title>Node17&#45;&gt;Node9</title>
<g id="a_edge24_Node000017_Node000009"><a xlink:title=" ">
<path fill="none" stroke="#63b8ff" d="M339.14,-93.03C368.27,-97.97 404.04,-104.04 434.55,-109.22"/>
<polygon fill="#63b8ff" stroke="#63b8ff" points="434.23,-112.72 444.67,-110.94 435.4,-105.82 434.23,-112.72"/>
</a>
</g>
</g>
<!-- Node18 -->
<g id="Node000018" class="node">
<title>Node18</title>
<g id="a_Node000018"><a xlink:href="classSolver.html#a0a32ae51c07e104de80b39cceaaf325f" target="_top" xlink:title="Determines which domain code caused the match between a reviewer and submission.">
<polygon fill="white" stroke="#666666" points="578,-93 426,-93 426,-74 578,-74 578,-93"/>
<text text-anchor="middle" x="502" y="-81" font-family="Helvetica,sans-Serif" font-size="10.00">Solver::findMatchedDomain</text>
</a>
</g>
</g>
<!-- Node17&#45;&gt;Node18 -->
<g id="edge19_Node000017_Node000018" class="edge">
<title>Node17&#45;&gt;Node18</title>
<g id="a_edge19_Node000017_Node000018"><a xlink:title=" ">
<path fill="none" stroke="#63b8ff" d="M341.71,-83.5C364.43,-83.5 390.89,-83.5 415.63,-83.5"/>
<polygon fill="#63b8ff" stroke="#63b8ff" points="415.75,-87 425.75,-83.5 415.75,-80 415.75,-87"/>
</a>
</g>
</g>
<!-- Node19 -->
<g id="Node000019" class="node">
<title>Node19</title>
<g id="a_Node000019"><a xlink:href="classGraph.html#af5f263b25175df3f5511ff5ede0a63aa" target="_top" xlink:title="Returns the adjacency list of a given node (const).">
<polygon fill="white" stroke="#666666" points="543.5,-56 460.5,-56 460.5,-37 543.5,-37 543.5,-56"/>
<text text-anchor="middle" x="502" y="-44" font-family="Helvetica,sans-Serif" font-size="10.00">Graph::getAdj</text>
</a>
</g>
</g>
<!-- Node17&#45;&gt;Node19 -->
<g id="edge22_Node000017_Node000019" class="edge">
<title>Node17&#45;&gt;Node19</title>
<g id="a_edge22_Node000017_Node000019"><a xlink:title=" ">
<path fill="none" stroke="#63b8ff" d="M339.14,-73.97C373.44,-68.15 416.95,-60.77 450.22,-55.12"/>
<polygon fill="#63b8ff" stroke="#63b8ff" points="450.92,-58.55 460.2,-53.43 449.75,-51.65 450.92,-58.55"/>
</a>
</g>
</g>
<!-- Node20 -->
<g id="Node000020" class="node">
<title>Node20</title>
<g id="a_Node000020"><a xlink:href="classNetworkBuilder.html#a4efdb0e13d73f6f3cbf38b4cd11a5ef3" target="_top" xlink:title="Inverse: given a graph node ID, returns the submission vector index.">
<polygon fill="white" stroke="#666666" points="604,-19 400,-19 400,0 604,0 604,-19"/>
<text text-anchor="middle" x="502" y="-7" font-family="Helvetica,sans-Serif" font-size="10.00">NetworkBuilder::nodeToSubmissionIdx</text>
</a>
</g>
</g>
<!-- Node17&#45;&gt;Node20 -->
<g id="edge23_Node000017_Node000020" class="edge">
<title>Node17&#45;&gt;Node20</title>
<g id="a_edge23_Node000017_Node000020"><a xlink:title=" ">
<path fill="none" stroke="#63b8ff" d="M299.46,-73.86C321.59,-61.31 362.49,-39.57 400,-27.5 407.39,-25.12 415.19,-23.03 423.05,-21.2"/>
<polygon fill="#63b8ff" stroke="#63b8ff" points="423.99,-24.58 433.01,-19.02 422.5,-17.74 423.99,-24.58"/>
</a>
</g>
</g>
<!-- Node18&#45;&gt;Node11 -->
<g id="edge20_Node000018_Node000011" class="edge">
<title>Node18&#45;&gt;Node11</title>
<g id="a_edge20_Node000018_Node000011"><a xlink:title=" ">
<path fill="none" stroke="#63b8ff" d="M578.25,-89.71C587.38,-92.5 596.22,-96.31 604,-101.5 628.62,-117.91 618.34,-137.34 640,-157.5 655.59,-172 676.37,-183.61 693.83,-191.77"/>
<polygon fill="#63b8ff" stroke="#63b8ff" points="692.58,-195.04 703.13,-195.95 695.45,-188.66 692.58,-195.04"/>
</a>
</g>
</g>
<!-- Node18&#45;&gt;Node12 -->
<g id="edge21_Node000018_Node000012" class="edge">
<title>Node18&#45;&gt;Node12</title>
<g id="a_edge21_Node000018_Node000012"><a xlink:title=" ">
<path fill="none" stroke="#63b8ff" d="M563.33,-93.02C576.78,-95.48 590.93,-98.34 604,-101.5 633.43,-108.6 666.16,-118.73 690.6,-126.74"/>
<polygon fill="#63b8ff" stroke="#63b8ff" points="689.6,-130.1 700.2,-129.92 691.8,-123.46 689.6,-130.1"/>
</a>
</g>
</g>
</g>
</svg>
