<?xml version="1.0" encoding="UTF-8" standalone="no"?>
<!DOCTYPE svg PUBLIC "-//W3C//DTD SVG 1.1//EN"
 "http://www.w3.org/Graphics/SVG/1.1/DTD/svg11.dtd">
<!-- Generated by graphviz version 2.43.0 (0)
 -->
<!-- Title: OutputWriter::printToConsole Pages: 1 -->
<svg width="576pt" height="113pt"
 viewBox="0.00 0.00 576.00 113.00" xmlns="http://www.w3.org/2000/svg" xmlns:xlink="http://www.w3.org/1999/xlink">
<g id="graph0" class="graph" transform="scale(1 1) rotate(0) translate(4 109)">
<title>OutputWriter::printToConsole</title>
<!-- Node1 -->
<g id="Node000001" class="node">
<title>Node1</title>
<g id="a_Node000001"><a xlink:title="Prints the assignment results to the console.">
<polygon fill="#999999" stroke="#666666" points="158,-62 0,-62 0,-43 158,-43 158,-62"/>
<text text-anchor="middle" x="79" y="-50" font-family="Helvetica,sans-Serif" font-size="10.00">OutputWriter::printToConsole</text>
</a>
</g>
</g>
<!-- Node2 -->
<g id="Node000002" class="node">
<title>Node2</title>
<g id="a_Node000002"><a xlink:href="structConfig.html#ac9705d2a8dd4171189897096e6056719" target="_top" xlink:title="Whether risk analysis should be performed.">
<polygon fill="white" stroke="#666666" points="351,-105 205,-105 205,-86 351,-86 351,-105"/>
<text text-anchor="middle" x="278" y="-93" font-family="Helvetica,sans-Serif" font-size="10.00">Config::shouldAnalyzeRisk</text>
</a>
</g>
</g>
<!-- Node1&#45;&gt;Node2 -->
<g id="edge1_Node000001_Node000002" class="edge">
<title>Node1&#45;&gt;Node2</title>
<g id="a_edge1_Node000001_Node000002"><a xlink:title=" ">
<path fill="none" stroke="#63b8ff" d="M123.72,-62.04C153.18,-68.47 192.22,-77 223.53,-83.83"/>
<polygon fill="#63b8ff" stroke="#63b8ff" points="222.89,-87.27 233.4,-85.98 224.38,-80.43 222.89,-87.27"/>
</a>
</g>
</g>
<!-- Node3 -->
<g id="Node000003" class="node">
<title>Node3</title>
<g id="a_Node000003"><a xlink:href="classOutputWriter.html#a6e32add7759c83e565390d14cd1bb339" target="_top" xlink:title="Writes the assignment sections to any output stream.">
<polygon fill="white" stroke="#666666" points="362,-67.5 194,-67.5 194,-37.5 362,-37.5 362,-67.5"/>
<text text-anchor="start" x="202" y="-55.5" font-family="Helvetica,sans-Serif" font-size="10.00">OutputWriter::writeAssignment</text>
<text text-anchor="middle" x="278" y="-44.5" font-family="Helvetica,sans-Serif" font-size="10.00">Section</text>
</a>
</g>
</g>
<!-- Node1&#45;&gt;Node3 -->
<g id="edge2_Node000001_Node000003" class="edge">
<title>Node1&#45;&gt;Node3</title>
<g id="a_edge2_Node000001_Node000003"><a xlink:title=" ">
<path fill="none" stroke="#63b8ff" d="M158.14,-52.5C166.56,-52.5 175.18,-52.5 183.75,-52.5"/>
<polygon fill="#63b8ff" stroke="#63b8ff" points="183.77,-56 193.77,-52.5 183.77,-49 183.77,-56"/>
</a>
</g>
</g>
<!-- Node6 -->
<g id="Node000006" class="node">
<title>Node6</title>
<g id="a_Node000006"><a xlink:href="classOutputWriter.html#a33523f8610417f2806d5943455614a14" target="_top" xlink:title="Writes the risk analysis section to any output stream.">
<polygon fill="white" stroke="#666666" points="361.5,-19 194.5,-19 194.5,0 361.5,0 361.5,-19"/>
<text text-anchor="middle" x="278" y="-7" font-family="Helvetica,sans-Serif" font-size="10.00">OutputWriter::writeRiskSection</text>
</a>
</g>
</g>
<!-- Node1&#45;&gt;Node6 -->
<g id="edge5_Node000001_Node000006" class="edge">
<title>Node1&#45;&gt;Node6</title>
<g id="a_edge5_Node000001_Node000006"><a xlink:title=" ">
<path fill="none" stroke="#63b8ff" d="M123.72,-42.96C153.18,-36.53 192.22,-28 223.53,-21.17"/>
<polygon fill="#63b8ff" stroke="#63b8ff" points="224.38,-24.57 233.4,-19.02 222.89,-17.73 224.38,-24.57"/>
</a>
</g>
</g>
<!-- Node4 -->
<g id="Node000004" class="node">
<title>Node4</title>
<g id="a_Node000004"><a xlink:href="structSolverResult.html#a4d56c0d5a4628962604d1c204e1d530c" target="_top" xlink:title="Whether the assignment is fully satisfied.">
<polygon fill="white" stroke="#666666" points="553,-80 413,-80 413,-61 553,-61 553,-80"/>
<text text-anchor="middle" x="483" y="-68" font-family="Helvetica,sans-Serif" font-size="10.00">SolverResult::isComplete</text>
</a>
</g>
</g>
<!-- Node3&#45;&gt;Node4 -->
<g id="edge3_Node000003_Node000004" class="edge">
<title>Node3&#45;&gt;Node4</title>
<g id="a_edge3_Node000003_Node000004"><a xlink:title=" ">
<path fill="none" stroke="#63b8ff" d="M362.15,-59.87C375.59,-61.06 389.47,-62.3 402.81,-63.48"/>
<polygon fill="#63b8ff" stroke="#63b8ff" points="402.62,-66.98 412.89,-64.37 403.24,-60 402.62,-66.98"/>
</a>
</g>
</g>
<!-- Node5 -->
<g id="Node000005" class="node">
<title>Node5</title>
<g id="a_Node000005"><a xlink:href="structProblemData.html#af8f49cc7cddaa7219f2a6f3bc9853474" target="_top" xlink:title="Number of submissions.">
<polygon fill="white" stroke="#666666" points="568,-43 398,-43 398,-24 568,-24 568,-43"/>
<text text-anchor="middle" x="483" y="-31" font-family="Helvetica,sans-Serif" font-size="10.00">ProblemData::numSubmissions</text>
</a>
</g>
</g>
<!-- Node3&#45;&gt;Node5 -->
<g id="edge4_Node000003_Node000005" class="edge">
<title>Node3&#45;&gt;Node5</title>
<g id="a_edge4_Node000003_Node000005"><a xlink:title=" ">
<path fill="none" stroke="#63b8ff" d="M362.15,-44.72C370.65,-43.92 379.33,-43.11 387.94,-42.3"/>
<polygon fill="#63b8ff" stroke="#63b8ff" points="388.36,-45.78 397.99,-41.36 387.71,-38.81 388.36,-45.78"/>
</a>
</g>
</g>
</g>
</svg>
