<?xml version="1.0" encoding="UTF-8" standalone="no"?>
<!DOCTYPE svg PUBLIC "-//W3C//DTD SVG 1.1//EN"
 "http://www.w3.org/Graphics/SVG/1.1/DTD/svg11.dtd">
<!-- Generated by graphviz version 2.43.0 (0)
 -->
<!-- Title: Graph::disableNode Pages: 1 -->
<svg width="567pt" height="261pt"
 viewBox="0.00 0.00 567.00 260.50" xmlns="http://www.w3.org/2000/svg" xmlns:xlink="http://www.w3.org/1999/xlink">
<g id="graph0" class="graph" transform="scale(1 1) rotate(0) translate(4 256.5)">
<title>Graph::disableNode</title>
<!-- Node1 -->
<g id="Node000001" class="node">
<title>Node1</title>
<g id="a_Node000001"><a xlink:title="Disables all edges from a specific node by setting capacity to 0.">
<polygon fill="#999999" stroke="#666666" points="559,-141.5 446,-141.5 446,-122.5 559,-122.5 559,-141.5"/>
<text text-anchor="middle" x="502.5" y="-129.5" font-family="Helvetica,sans-Serif" font-size="10.00">Graph::disableNode</text>
</a>
</g>
</g>
<!-- Node2 -->
<g id="Node000002" class="node">
<title>Node2</title>
<g id="a_Node000002"><a xlink:href="classSolver.html#ae2ca491c309b717821844e7f2a9ea629" target="_top" xlink:title="Performs Risk Analysis with parameter K = 1.">
<polygon fill="white" stroke="#666666" points="410,-141.5 246,-141.5 246,-122.5 410,-122.5 410,-141.5"/>
<text text-anchor="middle" x="328" y="-129.5" font-family="Helvetica,sans-Serif" font-size="10.00">Solver::solveWithRiskAnalysis</text>
</a>
</g>
</g>
<!-- Node1&#45;&gt;Node2 -->
<g id="edge1_Node000001_Node000002" class="edge">
<title>Node1&#45;&gt;Node2</title>
<g id="a_edge1_Node000001_Node000002"><a xlink:title=" ">
<path fill="none" stroke="#63b8ff" d="M435.88,-132C427.47,-132 418.79,-132 410.18,-132"/>
<polygon fill="#63b8ff" stroke="#63b8ff" points="435.97,-135.5 445.97,-132 435.97,-128.5 435.97,-135.5"/>
</a>
</g>
</g>
<!-- Node3 -->
<g id="Node000003" class="node">
<title>Node3</title>
<g id="a_Node000003"><a xlink:href="main_8cpp.html#adccc9f5ff7d7a84b4f757ddc2e00c25b" target="_top" xlink:title="Executes the program in batch mode.">
<polygon fill="white" stroke="#666666" points="173.5,-252.5 113.5,-252.5 113.5,-233.5 173.5,-233.5 173.5,-252.5"/>
<text text-anchor="middle" x="143.5" y="-240.5" font-family="Helvetica,sans-Serif" font-size="10.00">runBatch</text>
</a>
</g>
</g>
<!-- Node2&#45;&gt;Node3 -->
<g id="edge2_Node000002_Node000003" class="edge">
<title>Node2&#45;&gt;Node3</title>
<g id="a_edge2_Node000002_Node000003"><a xlink:title=" ">
<path fill="none" stroke="#63b8ff" d="M310.34,-148.93C288.94,-169.75 249.8,-204.79 210,-225 198.75,-230.71 185.46,-234.8 173.8,-237.61"/>
<polygon fill="#63b8ff" stroke="#63b8ff" points="312.99,-151.23 317.63,-141.71 308.06,-146.26 312.99,-151.23"/>
</a>
</g>
</g>
<!-- Node5 -->
<g id="Node000005" class="node">
<title>Node5</title>
<g id="a_Node000005"><a xlink:href="main_8cpp.html#aef0bcc404dd408e438ce7fa09e4ea3f7" target="_top" xlink:title="Executes the program in interactive mode.">
<polygon fill="white" stroke="#666666" points="186,-215.5 101,-215.5 101,-196.5 186,-196.5 186,-215.5"/>
<text text-anchor="middle" x="143.5" y="-203.5" font-family="Helvetica,sans-Serif" font-size="10.00">runInteractive</text>
</a>
</g>
</g>
<!-- Node2&#45;&gt;Node5 -->
<g id="edge4_Node000002_Node000005" class="edge">
<title>Node2&#45;&gt;Node5</title>
<g id="a_edge4_Node000002_Node000005"><a xlink:title=" ">
<path fill="none" stroke="#63b8ff" d="M300.66,-146.28C277.33,-158.52 242.08,-176.02 210,-188 201.6,-191.13 192.42,-193.99 183.66,-196.47"/>
<polygon fill="#63b8ff" stroke="#63b8ff" points="302.39,-149.32 309.59,-141.55 299.11,-143.14 302.39,-149.32"/>
</a>
</g>
</g>
<!-- Node6 -->
<g id="Node000006" class="node">
<title>Node6</title>
<g id="a_Node000006"><a xlink:href="test__output_8cpp.html#ad98b96469ee1c28ab8390957efbc52e5" target="_top" xlink:title=" ">
<polygon fill="white" stroke="#666666" points="210,-178.5 77,-178.5 77,-159.5 210,-159.5 210,-178.5"/>
<text text-anchor="middle" x="143.5" y="-166.5" font-family="Helvetica,sans-Serif" font-size="10.00">test_full_batch_pipeline</text>
</a>
</g>
</g>
<!-- Node2&#45;&gt;Node6 -->
<g id="edge6_Node000002_Node000006" class="edge">
<title>Node2&#45;&gt;Node6</title>
<g id="a_edge6_Node000002_Node000006"><a xlink:title=" ">
<path fill="none" stroke="#63b8ff" d="M270.2,-143.52C244.98,-148.63 215.64,-154.58 191.66,-159.44"/>
<polygon fill="#63b8ff" stroke="#63b8ff" points="270.9,-146.95 280,-141.53 269.51,-140.09 270.9,-146.95"/>
</a>
</g>
</g>
<!-- Node8 -->
<g id="Node000008" class="node">
<title>Node8</title>
<g id="a_Node000008"><a xlink:href="test__output_8cpp.html#a24a7f840628b276584f7f09649fa5ccb" target="_top" xlink:title=" ">
<polygon fill="white" stroke="#666666" points="199,-141.5 88,-141.5 88,-122.5 199,-122.5 199,-141.5"/>
<text text-anchor="middle" x="143.5" y="-129.5" font-family="Helvetica,sans-Serif" font-size="10.00">test_output_figure4</text>
</a>
</g>
</g>
<!-- Node2&#45;&gt;Node8 -->
<g id="edge8_Node000002_Node000008" class="edge">
<title>Node2&#45;&gt;Node8</title>
<g id="a_edge8_Node000002_Node000008"><a xlink:title=" ">
<path fill="none" stroke="#63b8ff" d="M235.85,-132C223.31,-132 210.77,-132 199.18,-132"/>
<polygon fill="#63b8ff" stroke="#63b8ff" points="235.89,-135.5 245.89,-132 235.89,-128.5 235.89,-135.5"/>
</a>
</g>
</g>
<!-- Node9 -->
<g id="Node000009" class="node">
<title>Node9</title>
<g id="a_Node000009"><a xlink:href="test__output_8cpp.html#a8907cb43e3cf97150ebba79a523d26cf" target="_top" xlink:title=" ">
<polygon fill="white" stroke="#666666" points="200,-104.5 87,-104.5 87,-85.5 200,-85.5 200,-104.5"/>
<text text-anchor="middle" x="143.5" y="-92.5" font-family="Helvetica,sans-Serif" font-size="10.00">test_output_no_risk</text>
</a>
</g>
</g>
<!-- Node2&#45;&gt;Node9 -->
<g id="edge10_Node000002_Node000009" class="edge">
<title>Node2&#45;&gt;Node9</title>
<g id="a_edge10_Node000002_Node000009"><a xlink:title=" ">
<path fill="none" stroke="#63b8ff" d="M270.2,-120.48C244.98,-115.37 215.64,-109.42 191.66,-104.56"/>
<polygon fill="#63b8ff" stroke="#63b8ff" points="269.51,-123.91 280,-122.47 270.9,-117.05 269.51,-123.91"/>
</a>
</g>
</g>
<!-- Node10 -->
<g id="Node000010" class="node">
<title>Node10</title>
<g id="a_Node000010"><a xlink:href="test__graph_8cpp.html#ac3ef62920e5b4df04a4b81489aacc664" target="_top" xlink:title=" ">
<polygon fill="white" stroke="#666666" points="204.5,-67.5 82.5,-67.5 82.5,-48.5 204.5,-48.5 204.5,-67.5"/>
<text text-anchor="middle" x="143.5" y="-55.5" font-family="Helvetica,sans-Serif" font-size="10.00">test_risk_analysis_k1</text>
</a>
</g>
</g>
<!-- Node2&#45;&gt;Node10 -->
<g id="edge12_Node000002_Node000010" class="edge">
<title>Node2&#45;&gt;Node10</title>
<g id="a_edge12_Node000002_Node000010"><a xlink:title=" ">
<path fill="none" stroke="#63b8ff" d="M299.77,-117.7C276.39,-105.79 241.56,-88.91 210,-77 200.81,-73.53 190.69,-70.31 181.21,-67.55"/>
<polygon fill="#63b8ff" stroke="#63b8ff" points="298.25,-120.86 308.75,-122.32 301.45,-114.63 298.25,-120.86"/>
</a>
</g>
</g>
<!-- Node12 -->
<g id="Node000012" class="node">
<title>Node12</title>
<g id="a_Node000012"><a xlink:href="test__graph_8cpp.html#a87c4bbb43e141d16aadf387d84e8f461" target="_top" xlink:title=" ">
<polygon fill="white" stroke="#666666" points="195.5,-30 91.5,-30 91.5,0 195.5,0 195.5,-30"/>
<text text-anchor="start" x="99.5" y="-18" font-family="Helvetica,sans-Serif" font-size="10.00">test_risk_analysis</text>
<text text-anchor="middle" x="143.5" y="-7" font-family="Helvetica,sans-Serif" font-size="10.00">_redundant</text>
</a>
</g>
</g>
<!-- Node2&#45;&gt;Node12 -->
<g id="edge14_Node000002_Node000012" class="edge">
<title>Node2&#45;&gt;Node12</title>
<g id="a_edge14_Node000002_Node000012"><a xlink:title=" ">
<path fill="none" stroke="#63b8ff" d="M309.72,-115.28C287.96,-94.97 248.72,-60.73 210,-39 204.19,-35.74 197.86,-32.77 191.49,-30.12"/>
<polygon fill="#63b8ff" stroke="#63b8ff" points="307.5,-118 317.16,-122.33 312.31,-112.91 307.5,-118"/>
</a>
</g>
</g>
<!-- Node4 -->
<g id="Node000004" class="node">
<title>Node4</title>
<g id="a_Node000004"><a xlink:href="main_8cpp.html#a0ddf1224851353fc92bfbff6f499fa97" target="_top" xlink:title="Program entry point.">
<polygon fill="white" stroke="#666666" points="41,-233.5 0,-233.5 0,-214.5 41,-214.5 41,-233.5"/>
<text text-anchor="middle" x="20.5" y="-221.5" font-family="Helvetica,sans-Serif" font-size="10.00">main</text>
</a>
</g>
</g>
<!-- Node3&#45;&gt;Node4 -->
<g id="edge3_Node000003_Node000004" class="edge">
<title>Node3&#45;&gt;Node4</title>
<g id="a_edge3_Node000003_Node000004"><a xlink:title=" ">
<path fill="none" stroke="#63b8ff" d="M103.07,-236.81C82.31,-233.55 57.78,-229.7 41.08,-227.07"/>
<polygon fill="#63b8ff" stroke="#63b8ff" points="102.79,-240.31 113.21,-238.4 103.87,-233.39 102.79,-240.31"/>
</a>
</g>
</g>
<!-- Node5&#45;&gt;Node4 -->
<g id="edge5_Node000005_Node000004" class="edge">
<title>Node5&#45;&gt;Node4</title>
<g id="a_edge5_Node000005_Node000004"><a xlink:title=" ">
<path fill="none" stroke="#63b8ff" d="M90.69,-213.71C73.15,-216.32 54.62,-219.07 41.15,-221.08"/>
<polygon fill="#63b8ff" stroke="#63b8ff" points="91.48,-217.13 100.86,-212.19 90.45,-210.2 91.48,-217.13"/>
</a>
</g>
</g>
<!-- Node7 -->
<g id="Node000007" class="node">
<title>Node7</title>
<g id="a_Node000007"><a xlink:href="test__output_8cpp.html#ae66f6b31b5ad750f1fe042a706a4e3d4" target="_top" xlink:title=" ">
<polygon fill="white" stroke="#666666" points="41,-141.5 0,-141.5 0,-122.5 41,-122.5 41,-141.5"/>
<text text-anchor="middle" x="20.5" y="-129.5" font-family="Helvetica,sans-Serif" font-size="10.00">main</text>
</a>
</g>
</g>
<!-- Node6&#45;&gt;Node7 -->
<g id="edge7_Node000006_Node000007" class="edge">
<title>Node6&#45;&gt;Node7</title>
<g id="a_edge7_Node000006_Node000007"><a xlink:title=" ">
<path fill="none" stroke="#63b8ff" d="M96.28,-156.68C89.79,-154.84 83.21,-152.92 77,-151 65.03,-147.31 51.75,-142.78 41.18,-139.07"/>
<polygon fill="#63b8ff" stroke="#63b8ff" points="95.78,-160.18 106.35,-159.49 97.66,-153.43 95.78,-160.18"/>
</a>
</g>
</g>
<!-- Node8&#45;&gt;Node7 -->
<g id="edge9_Node000008_Node000007" class="edge">
<title>Node8&#45;&gt;Node7</title>
<g id="a_edge9_Node000008_Node000007"><a xlink:title=" ">
<path fill="none" stroke="#63b8ff" d="M77.5,-132C64.23,-132 51.24,-132 41.13,-132"/>
<polygon fill="#63b8ff" stroke="#63b8ff" points="77.66,-135.5 87.66,-132 77.66,-128.5 77.66,-135.5"/>
</a>
</g>
</g>
<!-- Node9&#45;&gt;Node7 -->
<g id="edge11_Node000009_Node000007" class="edge">
<title>Node9&#45;&gt;Node7</title>
<g id="a_edge11_Node000009_Node000007"><a xlink:title=" ">
<path fill="none" stroke="#63b8ff" d="M98.95,-107.43C91.61,-109.58 84.08,-111.83 77,-114 65.09,-117.66 51.81,-121.96 41.23,-125.43"/>
<polygon fill="#63b8ff" stroke="#63b8ff" points="100.16,-110.72 108.78,-104.56 98.2,-104 100.16,-110.72"/>
</a>
</g>
</g>
<!-- Node11 -->
<g id="Node000011" class="node">
<title>Node11</title>
<g id="a_Node000011"><a xlink:href="test__graph_8cpp.html#ae66f6b31b5ad750f1fe042a706a4e3d4" target="_top" xlink:title=" ">
<polygon fill="white" stroke="#666666" points="41,-46.5 0,-46.5 0,-27.5 41,-27.5 41,-46.5"/>
<text text-anchor="middle" x="20.5" y="-34.5" font-family="Helvetica,sans-Serif" font-size="10.00">main</text>
</a>
</g>
</g>
<!-- Node10&#45;&gt;Node11 -->
<g id="edge13_Node000010_Node000011" class="edge">
<title>Node10&#45;&gt;Node11</title>
<g id="a_edge13_Node000010_Node000011"><a xlink:title=" ">
<path fill="none" stroke="#63b8ff" d="M77.5,-46.72C64.23,-44.42 51.24,-42.16 41.13,-40.41"/>
<polygon fill="#63b8ff" stroke="#63b8ff" points="77.21,-50.22 87.66,-48.48 78.41,-43.32 77.21,-50.22"/>
</a>
</g>
</g>
<!-- Node12&#45;&gt;Node11 -->
<g id="edge15_Node000012_Node000011" class="edge">
<title>Node12&#45;&gt;Node11</title>
<g id="a_edge15_Node000012_Node000011"><a xlink:title=" ">
<path fill="none" stroke="#63b8ff" d="M81.19,-26.15C66.7,-28.78 52.27,-31.4 41.23,-33.41"/>
<polygon fill="#63b8ff" stroke="#63b8ff" points="81.97,-29.56 91.19,-24.33 80.72,-22.68 81.97,-29.56"/>
</a>
</g>
</g>
</g>
</svg>
