<?xml version="1.0" encoding="UTF-8" standalone="no"?>
<!DOCTYPE svg PUBLIC "-//W3C//DTD SVG 1.1//EN"
 "http://www.w3.org/Graphics/SVG/1.1/DTD/svg11.dtd">
<!-- Generated by graphviz version 2.43.0 (0)
 -->
<!-- Title: OutputWriter::writeToFile Pages: 1 -->
<svg width="556pt" height="113pt"
 viewBox="0.00 0.00 556.00 113.00" xmlns="http://www.w3.org/2000/svg" xmlns:xlink="http://www.w3.org/1999/xlink">
<g id="graph0" class="graph" transform="scale(1 1) rotate(0) translate(4 109)">
<title>OutputWriter::writeToFile</title>
<!-- Node1 -->
<g id="Node000001" class="node">
<title>Node1</title>
<g id="a_Node000001"><a xlink:title="Writes the complete assignment output to a file.">
<polygon fill="#999999" stroke="#666666" points="138,-62 0,-62 0,-43 138,-43 138,-62"/>
<text text-anchor="middle" x="69" y="-50" font-family="Helvetica,sans-Serif" font-size="10.00">OutputWriter::writeToFile</text>
</a>
</g>
</g>
<!-- Node2 -->
<g id="Node000002" class="node">
<title>Node2</title>
<g id="a_Node000002"><a xlink:href="structConfig.html#ac9705d2a8dd4171189897096e6056719" target="_top" xlink:title="Whether risk analysis should be performed.">
<polygon fill="white" stroke="#666666" points="331,-105 185,-105 185,-86 331,-86 331,-105"/>
<text text-anchor="middle" x="258" y="-93" font-family="Helvetica,sans-Serif" font-size="10.00">Config::shouldAnalyzeRisk</text>
</a>
</g>
</g>
<!-- Node1&#45;&gt;Node2 -->
<g id="edge1_Node000001_Node000002" class="edge">
<title>Node1&#45;&gt;Node2</title>
<g id="a_edge1_Node000001_Node000002"><a xlink:title=" ">
<path fill="none" stroke="#63b8ff" d="M111.24,-62.04C130.34,-66.44 153.32,-71.75 174,-76.5 184.15,-78.83 195.01,-81.32 205.41,-83.7"/>
<polygon fill="#63b8ff" stroke="#63b8ff" points="204.67,-87.13 215.2,-85.95 206.23,-80.3 204.67,-87.13"/>
</a>
</g>
</g>
<!-- Node3 -->
<g id="Node000003" class="node">
<title>Node3</title>
<g id="a_Node000003"><a xlink:href="classOutputWriter.html#a6e32add7759c83e565390d14cd1bb339" target="_top" xlink:title="Writes the assignment sections to any output stream.">
<polygon fill="white" stroke="#666666" points="342,-67.5 174,-67.5 174,-37.5 342,-37.5 342,-67.5"/>
<text text-anchor="start" x="182" y="-55.5" font-family="Helvetica,sans-Serif" font-size="10.00">OutputWriter::writeAssignment</text>
<text text-anchor="middle" x="258" y="-44.5" font-family="Helvetica,sans-Serif" font-size="10.00">Section</text>
</a>
</g>
</g>
<!-- Node1&#45;&gt;Node3 -->
<g id="edge2_Node000001_Node000003" class="edge">
<title>Node1&#45;&gt;Node3</title>
<g id="a_edge2_Node000001_Node000003"><a xlink:title=" ">
<path fill="none" stroke="#63b8ff" d="M138.04,-52.5C146.37,-52.5 155,-52.5 163.62,-52.5"/>
<polygon fill="#63b8ff" stroke="#63b8ff" points="163.72,-56 173.72,-52.5 163.72,-49 163.72,-56"/>
</a>
</g>
</g>
<!-- Node6 -->
<g id="Node000006" class="node">
<title>Node6</title>
<g id="a_Node000006"><a xlink:href="classOutputWriter.html#a33523f8610417f2806d5943455614a14" target="_top" xlink:title="Writes the risk analysis section to any output stream.">
<polygon fill="white" stroke="#666666" points="341.5,-19 174.5,-19 174.5,0 341.5,0 341.5,-19"/>
<text text-anchor="middle" x="258" y="-7" font-family="Helvetica,sans-Serif" font-size="10.00">OutputWriter::writeRiskSection</text>
</a>
</g>
</g>
<!-- Node1&#45;&gt;Node6 -->
<g id="edge5_Node000001_Node000006" class="edge">
<title>Node1&#45;&gt;Node6</title>
<g id="a_edge5_Node000001_Node000006"><a xlink:title=" ">
<path fill="none" stroke="#63b8ff" d="M111.24,-42.96C130.34,-38.56 153.32,-33.25 174,-28.5 184.15,-26.17 195.01,-23.68 205.41,-21.3"/>
<polygon fill="#63b8ff" stroke="#63b8ff" points="206.23,-24.7 215.2,-19.05 204.67,-17.87 206.23,-24.7"/>
</a>
</g>
</g>
<!-- Node4 -->
<g id="Node000004" class="node">
<title>Node4</title>
<g id="a_Node000004"><a xlink:href="structSolverResult.html#a4d56c0d5a4628962604d1c204e1d530c" target="_top" xlink:title="Whether the assignment is fully satisfied.">
<polygon fill="white" stroke="#666666" points="533,-80 393,-80 393,-61 533,-61 533,-80"/>
<text text-anchor="middle" x="463" y="-68" font-family="Helvetica,sans-Serif" font-size="10.00">SolverResult::isComplete</text>
</a>
</g>
</g>
<!-- Node3&#45;&gt;Node4 -->
<g id="edge3_Node000003_Node000004" class="edge">
<title>Node3&#45;&gt;Node4</title>
<g id="a_edge3_Node000003_Node000004"><a xlink:title=" ">
<path fill="none" stroke="#63b8ff" d="M342.15,-59.87C355.59,-61.06 369.47,-62.3 382.81,-63.48"/>
<polygon fill="#63b8ff" stroke="#63b8ff" points="382.62,-66.98 392.89,-64.37 383.24,-60 382.62,-66.98"/>
</a>
</g>
</g>
<!-- Node5 -->
<g id="Node000005" class="node">
<title>Node5</title>
<g id="a_Node000005"><a xlink:href="structProblemData.html#af8f49cc7cddaa7219f2a6f3bc9853474" target="_top" xlink:title="Number of submissions.">
<polygon fill="white" stroke="#666666" points="548,-43 378,-43 378,-24 548,-24 548,-43"/>
<text text-anchor="middle" x="463" y="-31" font-family="Helvetica,sans-Serif" font-size="10.00">ProblemData::numSubmissions</text>
</a>
</g>
</g>
<!-- Node3&#45;&gt;Node5 -->
<g id="edge4_Node000003_Node000005" class="edge">
<title>Node3&#45;&gt;Node5</title>
<g id="a_edge4_Node000003_Node000005"><a xlink:title=" ">
<path fill="none" stroke="#63b8ff" d="M342.15,-44.72C350.65,-43.92 359.33,-43.11 367.94,-42.3"/>
<polygon fill="#63b8ff" stroke="#63b8ff" points="368.36,-45.78 377.99,-41.36 367.71,-38.81 368.36,-45.78"/>
</a>
</g>
</g>
</g>
</svg>
