<?xml version="1.0" encoding="UTF-8" standalone="no"?>
<!DOCTYPE svg PUBLIC "-//W3C//DTD SVG 1.1//EN"
 "http://www.w3.org/Graphics/SVG/1.1/DTD/svg11.dtd">
<!-- Generated by graphviz version 2.43.0 (0)
 -->
<!-- Title: NetworkBuilder::buildNetwork Pages: 1 -->
<svg width="640pt" height="754pt"
 viewBox="0.00 0.00 640.00 754.00" xmlns="http://www.w3.org/2000/svg" xmlns:xlink="http://www.w3.org/1999/xlink">
<g id="graph0" class="graph" transform="scale(1 1) rotate(0) translate(4 750)">
<title>NetworkBuilder::buildNetwork</title>
<!-- Node1 -->
<g id="Node000001" class="node">
<title>Node1</title>
<g id="a_Node000001"><a xlink:title="Builds the complete flow network.">
<polygon fill="#999999" stroke="#666666" points="632,-389 468,-389 468,-370 632,-370 632,-389"/>
<text text-anchor="middle" x="550" y="-377" font-family="Helvetica,sans-Serif" font-size="10.00">NetworkBuilder::buildNetwork</text>
</a>
</g>
</g>
<!-- Node2 -->
<g id="Node000002" class="node">
<title>Node2</title>
<g id="a_Node000002"><a xlink:href="classSolver.html#a845e12dc97a5d14a365b1e3001aba114" target="_top" xlink:title="Solves the assignment problem for the given data.">
<polygon fill="white" stroke="#666666" points="390,-309 310,-309 310,-290 390,-290 390,-309"/>
<text text-anchor="middle" x="350" y="-297" font-family="Helvetica,sans-Serif" font-size="10.00">Solver::solve</text>
</a>
</g>
</g>
<!-- Node1&#45;&gt;Node2 -->
<g id="edge1_Node000001_Node000002" class="edge">
<title>Node1&#45;&gt;Node2</title>
<g id="a_edge1_Node000001_Node000002"><a xlink:title=" ">
<path fill="none" stroke="#63b8ff" d="M515.8,-366.09C475.85,-349.95 409.78,-323.25 374.66,-309.06"/>
<polygon fill="#63b8ff" stroke="#63b8ff" points="514.53,-369.35 525.12,-369.85 517.16,-362.86 514.53,-369.35"/>
</a>
</g>
</g>
<!-- Node21 -->
<g id="Node000021" class="node">
<title>Node21</title>
<g id="a_Node000021"><a xlink:href="classSolver.html#ae2ca491c309b717821844e7f2a9ea629" target="_top" xlink:title="Performs Risk Analysis with parameter K = 1.">
<polygon fill="white" stroke="#666666" points="432,-561 268,-561 268,-542 432,-542 432,-561"/>
<text text-anchor="middle" x="350" y="-549" font-family="Helvetica,sans-Serif" font-size="10.00">Solver::solveWithRiskAnalysis</text>
</a>
</g>
</g>
<!-- Node1&#45;&gt;Node21 -->
<g id="edge32_Node000001_Node000021" class="edge">
<title>Node1&#45;&gt;Node21</title>
<g id="a_edge32_Node000001_Node000021"><a xlink:title=" ">
<path fill="none" stroke="#63b8ff" d="M530.2,-395.83C489.55,-431.14 394.54,-513.68 362.09,-541.87"/>
<polygon fill="#63b8ff" stroke="#63b8ff" points="532.53,-398.44 537.79,-389.24 527.94,-393.16 532.53,-398.44"/>
</a>
</g>
</g>
<!-- Node3 -->
<g id="Node000003" class="node">
<title>Node3</title>
<g id="a_Node000003"><a xlink:href="main_8cpp.html#adccc9f5ff7d7a84b4f757ddc2e00c25b" target="_top" xlink:title="Executes the program in batch mode.">
<polygon fill="white" stroke="#666666" points="184.5,-450 124.5,-450 124.5,-431 184.5,-431 184.5,-450"/>
<text text-anchor="middle" x="154.5" y="-438" font-family="Helvetica,sans-Serif" font-size="10.00">runBatch</text>
</a>
</g>
</g>
<!-- Node2&#45;&gt;Node3 -->
<g id="edge2_Node000002_Node000003" class="edge">
<title>Node2&#45;&gt;Node3</title>
<g id="a_edge2_Node000002_Node000003"><a xlink:title=" ">
<path fill="none" stroke="#63b8ff" d="M336.78,-317.66C317.68,-344.59 278.12,-394.8 232,-421.5 217.55,-429.87 199.5,-434.57 184.56,-437.21"/>
<polygon fill="#63b8ff" stroke="#63b8ff" points="339.84,-319.4 342.66,-309.18 334.09,-315.41 339.84,-319.4"/>
</a>
</g>
</g>
<!-- Node5 -->
<g id="Node000005" class="node">
<title>Node5</title>
<g id="a_Node000005"><a xlink:href="main_8cpp.html#aef0bcc404dd408e438ce7fa09e4ea3f7" target="_top" xlink:title="Executes the program in interactive mode.">
<polygon fill="white" stroke="#666666" points="197,-487 112,-487 112,-468 197,-468 197,-487"/>
<text text-anchor="middle" x="154.5" y="-475" font-family="Helvetica,sans-Serif" font-size="10.00">runInteractive</text>
</a>
</g>
</g>
<!-- Node2&#45;&gt;Node5 -->
<g id="edge4_Node000002_Node000005" class="edge">
<title>Node2&#45;&gt;Node5</title>
<g id="a_edge4_Node000002_Node000005"><a xlink:title=" ">
<path fill="none" stroke="#63b8ff" d="M340.63,-318.55C324.68,-352.51 286.59,-423.32 232,-459.5 221.76,-466.28 209.27,-470.52 197.37,-473.17"/>
<polygon fill="#63b8ff" stroke="#63b8ff" points="343.89,-319.83 344.86,-309.27 337.52,-316.92 343.89,-319.83"/>
</a>
</g>
</g>
<!-- Node6 -->
<g id="Node000006" class="node">
<title>Node6</title>
<g id="a_Node000006"><a xlink:href="test__graph_8cpp.html#aabe34e3298f44b2a590c5785cfb187e8" target="_top" xlink:title=" ">
<polygon fill="white" stroke="#666666" points="211.5,-178.5 97.5,-178.5 97.5,-148.5 211.5,-148.5 211.5,-178.5"/>
<text text-anchor="start" x="105.5" y="-166.5" font-family="Helvetica,sans-Serif" font-size="10.00">test_corner_maxrev</text>
<text text-anchor="middle" x="154.5" y="-155.5" font-family="Helvetica,sans-Serif" font-size="10.00">_bottleneck</text>
</a>
</g>
</g>
<!-- Node2&#45;&gt;Node6 -->
<g id="edge6_Node000002_Node000006" class="edge">
<title>Node2&#45;&gt;Node6</title>
<g id="a_edge6_Node000002_Node000006"><a xlink:title=" ">
<path fill="none" stroke="#63b8ff" d="M335.08,-281.79C314.88,-257.23 275.12,-212.98 232,-187.5 225.65,-183.75 218.65,-180.52 211.54,-177.76"/>
<polygon fill="#63b8ff" stroke="#63b8ff" points="332.6,-284.29 341.6,-289.87 338.05,-279.89 332.6,-284.29"/>
</a>
</g>
</g>
<!-- Node8 -->
<g id="Node000008" class="node">
<title>Node8</title>
<g id="a_Node000008"><a xlink:href="test__graph_8cpp.html#afb6fc70c45804d5516d4936ec4115cd1" target="_top" xlink:title=" ">
<polygon fill="white" stroke="#666666" points="225.5,-130 83.5,-130 83.5,-111 225.5,-111 225.5,-130"/>
<text text-anchor="middle" x="154.5" y="-118" font-family="Helvetica,sans-Serif" font-size="10.00">test_corner_no_reviewers</text>
</a>
</g>
</g>
<!-- Node2&#45;&gt;Node8 -->
<g id="edge8_Node000002_Node000008" class="edge">
<title>Node2&#45;&gt;Node8</title>
<g id="a_edge8_Node000002_Node000008"><a xlink:title=" ">
<path fill="none" stroke="#63b8ff" d="M340.58,-280.52C324.56,-246.66 286.37,-176.01 232,-139.5 226.21,-135.61 219.68,-132.51 212.96,-130.05"/>
<polygon fill="#63b8ff" stroke="#63b8ff" points="337.48,-282.14 344.84,-289.76 343.84,-279.21 337.48,-282.14"/>
</a>
</g>
</g>
<!-- Node9 -->
<g id="Node000009" class="node">
<title>Node9</title>
<g id="a_Node000009"><a xlink:href="test__graph_8cpp.html#acdaff2524640ac8e6e9644e7106b04ba" target="_top" xlink:title=" ">
<polygon fill="white" stroke="#666666" points="232,-93 77,-93 77,-74 232,-74 232,-93"/>
<text text-anchor="middle" x="154.5" y="-81" font-family="Helvetica,sans-Serif" font-size="10.00">test_corner_no_submissions</text>
</a>
</g>
</g>
<!-- Node2&#45;&gt;Node9 -->
<g id="edge10_Node000002_Node000009" class="edge">
<title>Node2&#45;&gt;Node9</title>
<g id="a_edge10_Node000002_Node000009"><a xlink:title=" ">
<path fill="none" stroke="#63b8ff" d="M343.31,-280.19C330.47,-240.18 295.35,-148.09 232,-101.5 227.38,-98.11 222.22,-95.34 216.82,-93.09"/>
<polygon fill="#63b8ff" stroke="#63b8ff" points="339.98,-281.28 346.28,-289.8 346.67,-279.22 339.98,-281.28"/>
</a>
</g>
</g>
<!-- Node10 -->
<g id="Node000010" class="node">
<title>Node10</title>
<g id="a_Node000010"><a xlink:href="test__graph_8cpp.html#ae160a573baa527c8e420eddbce3cab30" target="_top" xlink:title=" ">
<polygon fill="white" stroke="#666666" points="212,-56 97,-56 97,-37 212,-37 212,-56"/>
<text text-anchor="middle" x="154.5" y="-44" font-family="Helvetica,sans-Serif" font-size="10.00">test_full_integration</text>
</a>
</g>
</g>
<!-- Node2&#45;&gt;Node10 -->
<g id="edge12_Node000002_Node000010" class="edge">
<title>Node2&#45;&gt;Node10</title>
<g id="a_edge12_Node000002_Node000010"><a xlink:title=" ">
<path fill="none" stroke="#63b8ff" d="M345.12,-279.76C335.1,-234.25 303.95,-121.5 232,-64.5 226.12,-59.84 219.23,-56.35 212.05,-53.75"/>
<polygon fill="#63b8ff" stroke="#63b8ff" points="341.7,-280.51 347.18,-289.58 348.55,-279.08 341.7,-280.51"/>
</a>
</g>
</g>
<!-- Node11 -->
<g id="Node000011" class="node">
<title>Node11</title>
<g id="a_Node000011"><a xlink:href="test__output_8cpp.html#ae22f862265d01c0acb3649c247f4a726" target="_top" xlink:title=" ">
<polygon fill="white" stroke="#666666" points="210,-598 99,-598 99,-579 210,-579 210,-598"/>
<text text-anchor="middle" x="154.5" y="-586" font-family="Helvetica,sans-Serif" font-size="10.00">test_output_figure2</text>
</a>
</g>
</g>
<!-- Node2&#45;&gt;Node11 -->
<g id="edge14_Node000002_Node000011" class="edge">
<title>Node2&#45;&gt;Node11</title>
<g id="a_edge14_Node000002_Node000011"><a xlink:title=" ">
<path fill="none" stroke="#63b8ff" d="M346.51,-319.43C339.12,-369.81 312.55,-503.04 232,-570.5 225.72,-575.76 218.19,-579.54 210.33,-582.25"/>
<polygon fill="#63b8ff" stroke="#63b8ff" points="350.02,-319.62 347.91,-309.23 343.08,-318.67 350.02,-319.62"/>
</a>
</g>
</g>
<!-- Node13 -->
<g id="Node000013" class="node">
<title>Node13</title>
<g id="a_Node000013"><a xlink:href="test__output_8cpp.html#a998d4d57520dc3729aada36d40d97db9" target="_top" xlink:title=" ">
<polygon fill="white" stroke="#666666" points="210,-561 99,-561 99,-542 210,-542 210,-561"/>
<text text-anchor="middle" x="154.5" y="-549" font-family="Helvetica,sans-Serif" font-size="10.00">test_output_figure3</text>
</a>
</g>
</g>
<!-- Node2&#45;&gt;Node13 -->
<g id="edge16_Node000002_Node000013" class="edge">
<title>Node2&#45;&gt;Node13</title>
<g id="a_edge16_Node000002_Node000013"><a xlink:title=" ">
<path fill="none" stroke="#63b8ff" d="M345.03,-319.44C334.89,-364.95 303.6,-476.88 232,-533.5 225.58,-538.58 217.97,-542.26 210.07,-544.93"/>
<polygon fill="#63b8ff" stroke="#63b8ff" points="348.51,-319.89 347.17,-309.38 341.67,-318.43 348.51,-319.89"/>
</a>
</g>
</g>
<!-- Node14 -->
<g id="Node000014" class="node">
<title>Node14</title>
<g id="a_Node000014"><a xlink:href="test__output_8cpp.html#aaa716ae6efa6c8bef11ea699a4be56d2" target="_top" xlink:title=" ">
<polygon fill="white" stroke="#666666" points="208.5,-524 100.5,-524 100.5,-505 208.5,-505 208.5,-524"/>
<text text-anchor="middle" x="154.5" y="-512" font-family="Helvetica,sans-Serif" font-size="10.00">test_output_sorted</text>
</a>
</g>
</g>
<!-- Node2&#45;&gt;Node14 -->
<g id="edge18_Node000002_Node000014" class="edge">
<title>Node2&#45;&gt;Node14</title>
<g id="a_edge18_Node000002_Node000014"><a xlink:title=" ">
<path fill="none" stroke="#63b8ff" d="M343.28,-318.72C330.39,-358.53 295.16,-450.16 232,-496.5 225.07,-501.58 216.92,-505.26 208.56,-507.9"/>
<polygon fill="#63b8ff" stroke="#63b8ff" points="346.63,-319.74 346.26,-309.15 339.94,-317.65 346.63,-319.74"/>
</a>
</g>
</g>
<!-- Node15 -->
<g id="Node000015" class="node">
<title>Node15</title>
<g id="a_Node000015"><a xlink:href="test__graph_8cpp.html#a2bd07a82f32ec21b6fa28a86ee9bf941" target="_top" xlink:title=" ">
<polygon fill="white" stroke="#666666" points="218,-19 91,-19 91,0 218,0 218,-19"/>
<text text-anchor="middle" x="154.5" y="-7" font-family="Helvetica,sans-Serif" font-size="10.00">test_secondary_match</text>
</a>
</g>
</g>
<!-- Node2&#45;&gt;Node15 -->
<g id="edge20_Node000002_Node000015" class="edge">
<title>Node2&#45;&gt;Node15</title>
<g id="a_edge20_Node000002_Node000015"><a xlink:title=" ">
<path fill="none" stroke="#63b8ff" d="M346.59,-279.84C339.33,-229.54 312.94,-95.38 232,-27.5 227.82,-23.99 223.08,-21.14 218.05,-18.83"/>
<polygon fill="#63b8ff" stroke="#63b8ff" points="343.15,-280.55 347.95,-290 350.09,-279.62 343.15,-280.55"/>
</a>
</g>
</g>
<!-- Node16 -->
<g id="Node000016" class="node">
<title>Node16</title>
<g id="a_Node000016"><a xlink:href="test__graph_8cpp.html#a0b2b929f3f92ed72ebb706539ba28f72" target="_top" xlink:title=" ">
<polygon fill="white" stroke="#666666" points="209.5,-364 99.5,-364 99.5,-345 209.5,-345 209.5,-364"/>
<text text-anchor="middle" x="154.5" y="-352" font-family="Helvetica,sans-Serif" font-size="10.00">test_solver_figure1</text>
</a>
</g>
</g>
<!-- Node2&#45;&gt;Node16 -->
<g id="edge22_Node000002_Node000016" class="edge">
<title>Node2&#45;&gt;Node16</title>
<g id="a_edge22_Node000002_Node000016"><a xlink:title=" ">
<path fill="none" stroke="#63b8ff" d="M311.17,-312.26C288.36,-319.75 258.66,-329.16 232,-336.5 221.21,-339.47 209.49,-342.38 198.53,-344.97"/>
<polygon fill="#63b8ff" stroke="#63b8ff" points="312.41,-315.53 320.81,-309.07 310.21,-308.89 312.41,-315.53"/>
</a>
</g>
</g>
<!-- Node17 -->
<g id="Node000017" class="node">
<title>Node17</title>
<g id="a_Node000017"><a xlink:href="test__graph_8cpp.html#ae08b5e2d9ec151376641907871fb6d1a" target="_top" xlink:title=" ">
<polygon fill="white" stroke="#666666" points="212.5,-327 96.5,-327 96.5,-308 212.5,-308 212.5,-327"/>
<text text-anchor="middle" x="154.5" y="-315" font-family="Helvetica,sans-Serif" font-size="10.00">test_solver_minrev2</text>
</a>
</g>
</g>
<!-- Node2&#45;&gt;Node17 -->
<g id="edge24_Node000002_Node000017" class="edge">
<title>Node2&#45;&gt;Node17</title>
<g id="a_edge24_Node000002_Node000017"><a xlink:title=" ">
<path fill="none" stroke="#63b8ff" d="M299.63,-304.09C273.09,-306.56 240.22,-309.62 212.58,-312.19"/>
<polygon fill="#63b8ff" stroke="#63b8ff" points="300.21,-307.55 309.84,-303.14 299.56,-300.58 300.21,-307.55"/>
</a>
</g>
</g>
<!-- Node18 -->
<g id="Node000018" class="node">
<title>Node18</title>
<g id="a_Node000018"><a xlink:href="test__graph_8cpp.html#ac64ff524d61b175dce290be1685ae797" target="_top" xlink:title=" ">
<polygon fill="white" stroke="#666666" points="226,-290 83,-290 83,-271 226,-271 226,-290"/>
<text text-anchor="middle" x="154.5" y="-278" font-family="Helvetica,sans-Serif" font-size="10.00">test_solver_multi_domain</text>
</a>
</g>
</g>
<!-- Node2&#45;&gt;Node18 -->
<g id="edge26_Node000002_Node000018" class="edge">
<title>Node2&#45;&gt;Node18</title>
<g id="a_edge26_Node000002_Node000018"><a xlink:title=" ">
<path fill="none" stroke="#63b8ff" d="M299.62,-294.65C277.36,-292.47 250.65,-289.84 226.3,-287.45"/>
<polygon fill="#63b8ff" stroke="#63b8ff" points="299.55,-298.16 309.84,-295.66 300.23,-291.19 299.55,-298.16"/>
</a>
</g>
</g>
<!-- Node19 -->
<g id="Node000019" class="node">
<title>Node19</title>
<g id="a_Node000019"><a xlink:href="test__graph_8cpp.html#ad31c62f747c428536c260667126eae66" target="_top" xlink:title=" ">
<polygon fill="white" stroke="#666666" points="208,-253 101,-253 101,-234 208,-234 208,-253"/>
<text text-anchor="middle" x="154.5" y="-241" font-family="Helvetica,sans-Serif" font-size="10.00">test_solver_partial</text>
</a>
</g>
</g>
<!-- Node2&#45;&gt;Node19 -->
<g id="edge28_Node000002_Node000019" class="edge">
<title>Node2&#45;&gt;Node19</title>
<g id="a_edge28_Node000002_Node000019"><a xlink:title=" ">
<path fill="none" stroke="#63b8ff" d="M312.11,-286.65C289.2,-278.89 259.05,-269.06 232,-261.5 221.36,-258.52 209.79,-255.63 198.95,-253.06"/>
<polygon fill="#63b8ff" stroke="#63b8ff" points="311.18,-290.03 321.77,-289.95 313.44,-283.41 311.18,-290.03"/>
</a>
</g>
</g>
<!-- Node20 -->
<g id="Node000020" class="node">
<title>Node20</title>
<g id="a_Node000020"><a xlink:href="test__graph_8cpp.html#aca441d5ebe3894bca1449f02e0fd8e48" target="_top" xlink:title=" ">
<polygon fill="white" stroke="#666666" points="189.5,-216 119.5,-216 119.5,-197 189.5,-197 189.5,-216"/>
<text text-anchor="middle" x="154.5" y="-204" font-family="Helvetica,sans-Serif" font-size="10.00">test_stress</text>
</a>
</g>
</g>
<!-- Node2&#45;&gt;Node20 -->
<g id="edge30_Node000002_Node000020" class="edge">
<title>Node2&#45;&gt;Node20</title>
<g id="a_edge30_Node000002_Node000020"><a xlink:title=" ">
<path fill="none" stroke="#63b8ff" d="M329.09,-283.72C306.71,-266.72 268.68,-240.03 232,-224.5 218.68,-218.86 203.28,-214.81 189.8,-211.99"/>
<polygon fill="#63b8ff" stroke="#63b8ff" points="327.08,-286.59 337.14,-289.93 331.36,-281.05 327.08,-286.59"/>
</a>
</g>
</g>
<!-- Node4 -->
<g id="Node000004" class="node">
<title>Node4</title>
<g id="a_Node000004"><a xlink:href="main_8cpp.html#a0ddf1224851353fc92bfbff6f499fa97" target="_top" xlink:title="Program entry point.">
<polygon fill="white" stroke="#666666" points="41,-468 0,-468 0,-449 41,-449 41,-468"/>
<text text-anchor="middle" x="20.5" y="-456" font-family="Helvetica,sans-Serif" font-size="10.00">main</text>
</a>
</g>
</g>
<!-- Node3&#45;&gt;Node4 -->
<g id="edge3_Node000003_Node000004" class="edge">
<title>Node3&#45;&gt;Node4</title>
<g id="a_edge3_Node000003_Node000004"><a xlink:title=" ">
<path fill="none" stroke="#63b8ff" d="M113.98,-445.89C90.01,-449.16 60.46,-453.19 41.31,-455.8"/>
<polygon fill="#63b8ff" stroke="#63b8ff" points="114.77,-449.31 124.2,-444.49 113.82,-442.38 114.77,-449.31"/>
</a>
</g>
</g>
<!-- Node5&#45;&gt;Node4 -->
<g id="edge5_Node000005_Node000004" class="edge">
<title>Node5&#45;&gt;Node4</title>
<g id="a_edge5_Node000005_Node000004"><a xlink:title=" ">
<path fill="none" stroke="#63b8ff" d="M101.55,-470.02C80.39,-466.98 57.21,-463.64 41.26,-461.34"/>
<polygon fill="#63b8ff" stroke="#63b8ff" points="101.34,-473.53 111.73,-471.49 102.34,-466.6 101.34,-473.53"/>
</a>
</g>
</g>
<!-- Node7 -->
<g id="Node000007" class="node">
<title>Node7</title>
<g id="a_Node000007"><a xlink:href="test__graph_8cpp.html#ae66f6b31b5ad750f1fe042a706a4e3d4" target="_top" xlink:title=" ">
<polygon fill="white" stroke="#666666" points="41,-235 0,-235 0,-216 41,-216 41,-235"/>
<text text-anchor="middle" x="20.5" y="-223" font-family="Helvetica,sans-Serif" font-size="10.00">main</text>
</a>
</g>
</g>
<!-- Node6&#45;&gt;Node7 -->
<g id="edge7_Node000006_Node000007" class="edge">
<title>Node6&#45;&gt;Node7</title>
<g id="a_edge7_Node000006_Node000007"><a xlink:title=" ">
<path fill="none" stroke="#63b8ff" d="M88.84,-182.26C84.78,-183.91 80.8,-185.65 77,-187.5 60.82,-195.36 44.03,-207.51 33.21,-215.95"/>
<polygon fill="#63b8ff" stroke="#63b8ff" points="90.31,-185.45 98.4,-178.61 87.81,-178.91 90.31,-185.45"/>
</a>
</g>
</g>
<!-- Node8&#45;&gt;Node7 -->
<g id="edge9_Node000008_Node000007" class="edge">
<title>Node8&#45;&gt;Node7</title>
<g id="a_edge9_Node000008_Node000007"><a xlink:title=" ">
<path fill="none" stroke="#63b8ff" d="M85.66,-134.23C82.63,-135.8 79.73,-137.55 77,-139.5 49.24,-159.34 31.9,-197.79 24.97,-215.78"/>
<polygon fill="#63b8ff" stroke="#63b8ff" points="87.34,-137.31 95.04,-130.03 84.48,-130.92 87.34,-137.31"/>
</a>
</g>
</g>
<!-- Node9&#45;&gt;Node7 -->
<g id="edge11_Node000009_Node000007" class="edge">
<title>Node9&#45;&gt;Node7</title>
<g id="a_edge11_Node000009_Node000007"><a xlink:title=" ">
<path fill="none" stroke="#63b8ff" d="M81.82,-97.94C80.15,-99.04 78.54,-100.23 77,-101.5 40.09,-132 26.82,-192.1 22.91,-215.68"/>
<polygon fill="#63b8ff" stroke="#63b8ff" points="83.57,-100.97 90.63,-93.07 80.18,-94.85 83.57,-100.97"/>
</a>
</g>
</g>
<!-- Node10&#45;&gt;Node7 -->
<g id="edge13_Node000010_Node000007" class="edge">
<title>Node10&#45;&gt;Node7</title>
<g id="a_edge13_Node000010_Node000007"><a xlink:title=" ">
<path fill="none" stroke="#63b8ff" d="M87.55,-57.1C83.75,-59.17 80.19,-61.62 77,-64.5 30.94,-106.13 23.1,-187.8 21.77,-215.81"/>
<polygon fill="#63b8ff" stroke="#63b8ff" points="89.1,-60.24 96.76,-52.91 86.21,-53.86 89.1,-60.24"/>
</a>
</g>
</g>
<!-- Node12 -->
<g id="Node000012" class="node">
<title>Node12</title>
<g id="a_Node000012"><a xlink:href="test__output_8cpp.html#ae66f6b31b5ad750f1fe042a706a4e3d4" target="_top" xlink:title=" ">
<polygon fill="white" stroke="#666666" points="41,-635 0,-635 0,-616 41,-616 41,-635"/>
<text text-anchor="middle" x="20.5" y="-623" font-family="Helvetica,sans-Serif" font-size="10.00">main</text>
</a>
</g>
</g>
<!-- Node11&#45;&gt;Node12 -->
<g id="edge15_Node000011_Node000012" class="edge">
<title>Node11&#45;&gt;Node12</title>
<g id="a_edge15_Node000011_Node000012"><a xlink:title=" ">
<path fill="none" stroke="#63b8ff" d="M103.14,-600.47C94.39,-602.71 85.41,-605.09 77,-607.5 65.02,-610.93 51.74,-615.21 41.18,-618.75"/>
<polygon fill="#63b8ff" stroke="#63b8ff" points="104.02,-603.86 112.86,-598.03 102.31,-597.07 104.02,-603.86"/>
</a>
</g>
</g>
<!-- Node13&#45;&gt;Node12 -->
<g id="edge17_Node000013_Node000012" class="edge">
<title>Node13&#45;&gt;Node12</title>
<g id="a_edge17_Node000013_Node000012"><a xlink:title=" ">
<path fill="none" stroke="#63b8ff" d="M89.66,-564.51C85.26,-566.27 81,-568.25 77,-570.5 56.42,-582.07 38.18,-603.32 28.6,-615.75"/>
<polygon fill="#63b8ff" stroke="#63b8ff" points="91.17,-567.69 99.42,-561.04 88.82,-561.09 91.17,-567.69"/>
</a>
</g>
</g>
<!-- Node14&#45;&gt;Node12 -->
<g id="edge19_Node000014_Node000012" class="edge">
<title>Node14&#45;&gt;Node12</title>
<g id="a_edge19_Node000014_Node000012"><a xlink:title=" ">
<path fill="none" stroke="#63b8ff" d="M90.81,-525.58C85.91,-527.77 81.23,-530.38 77,-533.5 47.73,-555.1 30.85,-597.17 24.47,-616"/>
<polygon fill="#63b8ff" stroke="#63b8ff" points="92.37,-528.74 100.45,-521.89 89.86,-522.2 92.37,-528.74"/>
</a>
</g>
</g>
<!-- Node15&#45;&gt;Node7 -->
<g id="edge21_Node000015_Node000007" class="edge">
<title>Node15&#45;&gt;Node7</title>
<g id="a_edge21_Node000015_Node000007"><a xlink:title=" ">
<path fill="none" stroke="#63b8ff" d="M81.81,-23.47C80.12,-24.71 78.51,-26.05 77,-27.5 21.59,-80.62 20.11,-184.17 21.05,-215.98"/>
<polygon fill="#63b8ff" stroke="#63b8ff" points="84.03,-26.22 90.8,-18.07 80.43,-20.21 84.03,-26.22"/>
</a>
</g>
</g>
<!-- Node16&#45;&gt;Node7 -->
<g id="edge23_Node000016_Node000007" class="edge">
<title>Node16&#45;&gt;Node7</title>
<g id="a_edge23_Node000016_Node000007"><a xlink:title=" ">
<path fill="none" stroke="#63b8ff" d="M89.73,-344.26C85.19,-342.12 80.88,-339.57 77,-336.5 43.2,-309.77 28.34,-257.06 23.45,-235.27"/>
<polygon fill="#63b8ff" stroke="#63b8ff" points="88.74,-347.63 99.32,-348.07 91.32,-341.12 88.74,-347.63"/>
</a>
</g>
</g>
<!-- Node17&#45;&gt;Node7 -->
<g id="edge25_Node000017_Node000007" class="edge">
<title>Node17&#45;&gt;Node7</title>
<g id="a_edge25_Node000017_Node000007"><a xlink:title=" ">
<path fill="none" stroke="#63b8ff" d="M87.01,-305.01C83.52,-303.39 80.15,-301.56 77,-299.5 51.87,-283.06 33.84,-251.15 25.94,-235.15"/>
<polygon fill="#63b8ff" stroke="#63b8ff" points="85.91,-308.34 96.5,-308.82 88.53,-301.85 85.91,-308.34"/>
</a>
</g>
</g>
<!-- Node18&#45;&gt;Node7 -->
<g id="edge27_Node000018_Node000007" class="edge">
<title>Node18&#45;&gt;Node7</title>
<g id="a_edge27_Node000018_Node000007"><a xlink:title=" ">
<path fill="none" stroke="#63b8ff" d="M94.89,-268.09C88.75,-266.16 82.68,-263.97 77,-261.5 60.99,-254.55 44.42,-243.16 33.61,-235.06"/>
<polygon fill="#63b8ff" stroke="#63b8ff" points="93.96,-271.46 104.54,-270.91 95.93,-264.74 93.96,-271.46"/>
</a>
</g>
</g>
<!-- Node19&#45;&gt;Node7 -->
<g id="edge29_Node000019_Node000007" class="edge">
<title>Node19&#45;&gt;Node7</title>
<g id="a_edge29_Node000019_Node000007"><a xlink:title=" ">
<path fill="none" stroke="#63b8ff" d="M91.01,-234.98C72.98,-232.52 54.6,-230.01 41.27,-228.2"/>
<polygon fill="#63b8ff" stroke="#63b8ff" points="90.57,-238.45 100.95,-236.33 91.52,-231.52 90.57,-238.45"/>
</a>
</g>
</g>
<!-- Node20&#45;&gt;Node7 -->
<g id="edge31_Node000020_Node000007" class="edge">
<title>Node20&#45;&gt;Node7</title>
<g id="a_edge31_Node000020_Node000007"><a xlink:title=" ">
<path fill="none" stroke="#63b8ff" d="M109.25,-212.87C86.22,-216.18 59.23,-220.07 41.32,-222.65"/>
<polygon fill="#63b8ff" stroke="#63b8ff" points="109.76,-216.33 119.16,-211.44 108.77,-209.4 109.76,-216.33"/>
</a>
</g>
</g>
<!-- Node21&#45;&gt;Node3 -->
<g id="edge33_Node000021_Node000003" class="edge">
<title>Node21&#45;&gt;Node3</title>
<g id="a_edge33_Node000021_Node000003"><a xlink:title=" ">
<path fill="none" stroke="#63b8ff" d="M332.38,-534.6C311.03,-513.85 271.93,-479.03 232,-459.5 217.25,-452.28 199.52,-447.66 184.84,-444.78"/>
<polygon fill="#63b8ff" stroke="#63b8ff" points="330.09,-537.26 339.66,-541.8 335.01,-532.28 330.09,-537.26"/>
</a>
</g>
</g>
<!-- Node21&#45;&gt;Node5 -->
<g id="edge34_Node000021_Node000005" class="edge">
<title>Node21&#45;&gt;Node5</title>
<g id="a_edge34_Node000021_Node000005"><a xlink:title=" ">
<path fill="none" stroke="#63b8ff" d="M322.29,-537.1C298.98,-524.98 263.97,-507.86 232,-496.5 220.91,-492.56 208.64,-489.12 197.23,-486.29"/>
<polygon fill="#63b8ff" stroke="#63b8ff" points="320.75,-540.24 331.23,-541.8 324,-534.04 320.75,-540.24"/>
</a>
</g>
</g>
<!-- Node22 -->
<g id="Node000022" class="node">
<title>Node22</title>
<g id="a_Node000022"><a xlink:href="test__output_8cpp.html#ad98b96469ee1c28ab8390957efbc52e5" target="_top" xlink:title=" ">
<polygon fill="white" stroke="#666666" points="221,-746 88,-746 88,-727 221,-727 221,-746"/>
<text text-anchor="middle" x="154.5" y="-734" font-family="Helvetica,sans-Serif" font-size="10.00">test_full_batch_pipeline</text>
</a>
</g>
</g>
<!-- Node21&#45;&gt;Node22 -->
<g id="edge35_Node000021_Node000022" class="edge">
<title>Node21&#45;&gt;Node22</title>
<g id="a_edge35_Node000021_Node000022"><a xlink:title=" ">
<path fill="none" stroke="#63b8ff" d="M341.08,-570.88C325.64,-606.11 288.04,-680.54 232,-718.5 226.92,-721.94 221.26,-724.73 215.38,-726.99"/>
<polygon fill="#63b8ff" stroke="#63b8ff" points="344.47,-571.86 345.16,-561.28 338.03,-569.12 344.47,-571.86"/>
</a>
</g>
</g>
<!-- Node23 -->
<g id="Node000023" class="node">
<title>Node23</title>
<g id="a_Node000023"><a xlink:href="test__output_8cpp.html#a24a7f840628b276584f7f09649fa5ccb" target="_top" xlink:title=" ">
<polygon fill="white" stroke="#666666" points="210,-709 99,-709 99,-690 210,-690 210,-709"/>
<text text-anchor="middle" x="154.5" y="-697" font-family="Helvetica,sans-Serif" font-size="10.00">test_output_figure4</text>
</a>
</g>
</g>
<!-- Node21&#45;&gt;Node23 -->
<g id="edge37_Node000021_Node000023" class="edge">
<title>Node21&#45;&gt;Node23</title>
<g id="a_edge37_Node000021_Node000023"><a xlink:title=" ">
<path fill="none" stroke="#63b8ff" d="M337.9,-569.73C319.56,-598.22 280.12,-653.01 232,-681.5 225.31,-685.46 217.8,-688.55 210.18,-690.96"/>
<polygon fill="#63b8ff" stroke="#63b8ff" points="340.94,-571.48 343.3,-561.15 335.01,-567.75 340.94,-571.48"/>
</a>
</g>
</g>
<!-- Node24 -->
<g id="Node000024" class="node">
<title>Node24</title>
<g id="a_Node000024"><a xlink:href="test__output_8cpp.html#a8907cb43e3cf97150ebba79a523d26cf" target="_top" xlink:title=" ">
<polygon fill="white" stroke="#666666" points="211,-672 98,-672 98,-653 211,-653 211,-672"/>
<text text-anchor="middle" x="154.5" y="-660" font-family="Helvetica,sans-Serif" font-size="10.00">test_output_no_risk</text>
</a>
</g>
</g>
<!-- Node21&#45;&gt;Node24 -->
<g id="edge39_Node000021_Node000024" class="edge">
<title>Node21&#45;&gt;Node24</title>
<g id="a_edge39_Node000021_Node000024"><a xlink:title=" ">
<path fill="none" stroke="#63b8ff" d="M332.78,-568.35C311.58,-589.37 272.37,-624.93 232,-644.5 225,-647.89 217.33,-650.67 209.62,-652.93"/>
<polygon fill="#63b8ff" stroke="#63b8ff" points="335.44,-570.63 339.99,-561.07 330.47,-565.71 335.44,-570.63"/>
</a>
</g>
</g>
<!-- Node25 -->
<g id="Node000025" class="node">
<title>Node25</title>
<g id="a_Node000025"><a xlink:href="test__graph_8cpp.html#ac3ef62920e5b4df04a4b81489aacc664" target="_top" xlink:title=" ">
<polygon fill="white" stroke="#666666" points="215.5,-635 93.5,-635 93.5,-616 215.5,-616 215.5,-635"/>
<text text-anchor="middle" x="154.5" y="-623" font-family="Helvetica,sans-Serif" font-size="10.00">test_risk_analysis_k1</text>
</a>
</g>
</g>
<!-- Node21&#45;&gt;Node25 -->
<g id="edge41_Node000021_Node000025" class="edge">
<title>Node21&#45;&gt;Node25</title>
<g id="a_edge41_Node000021_Node000025"><a xlink:title=" ">
<path fill="none" stroke="#63b8ff" d="M323.17,-565.86C299.91,-578.3 264.48,-596.06 232,-607.5 222.86,-610.72 212.91,-613.54 203.3,-615.93"/>
<polygon fill="#63b8ff" stroke="#63b8ff" points="324.93,-568.89 332.05,-561.05 321.59,-562.73 324.93,-568.89"/>
</a>
</g>
</g>
<!-- Node26 -->
<g id="Node000026" class="node">
<title>Node26</title>
<g id="a_Node000026"><a xlink:href="test__graph_8cpp.html#a87c4bbb43e141d16aadf387d84e8f461" target="_top" xlink:title=" ">
<polygon fill="white" stroke="#666666" points="206.5,-412.5 102.5,-412.5 102.5,-382.5 206.5,-382.5 206.5,-412.5"/>
<text text-anchor="start" x="110.5" y="-400.5" font-family="Helvetica,sans-Serif" font-size="10.00">test_risk_analysis</text>
<text text-anchor="middle" x="154.5" y="-389.5" font-family="Helvetica,sans-Serif" font-size="10.00">_redundant</text>
</a>
</g>
</g>
<!-- Node21&#45;&gt;Node26 -->
<g id="edge43_Node000021_Node000026" class="edge">
<title>Node21&#45;&gt;Node26</title>
<g id="a_edge43_Node000021_Node000026"><a xlink:title=" ">
<path fill="none" stroke="#63b8ff" d="M337.3,-533.48C318.39,-505.74 278.5,-452.64 232,-422.5 224.26,-417.48 215.43,-413.39 206.58,-410.08"/>
<polygon fill="#63b8ff" stroke="#63b8ff" points="334.42,-535.48 342.89,-541.85 340.24,-531.59 334.42,-535.48"/>
</a>
</g>
</g>
<!-- Node22&#45;&gt;Node12 -->
<g id="edge36_Node000022_Node000012" class="edge">
<title>Node22&#45;&gt;Node12</title>
<g id="a_edge36_Node000022_Node000012"><a xlink:title=" ">
<path fill="none" stroke="#63b8ff" d="M82.88,-722.32C80.85,-721.15 78.88,-719.88 77,-718.5 47.42,-696.84 30.7,-654.22 24.41,-635.14"/>
<polygon fill="#63b8ff" stroke="#63b8ff" points="81.68,-725.63 92.2,-726.89 84.76,-719.34 81.68,-725.63"/>
</a>
</g>
</g>
<!-- Node23&#45;&gt;Node12 -->
<g id="edge38_Node000023_Node000012" class="edge">
<title>Node23&#45;&gt;Node12</title>
<g id="a_edge38_Node000023_Node000012"><a xlink:title=" ">
<path fill="none" stroke="#63b8ff" d="M89.41,-687.32C85.1,-685.63 80.92,-683.7 77,-681.5 55.98,-669.73 37.63,-647.67 28.21,-635.04"/>
<polygon fill="#63b8ff" stroke="#63b8ff" points="88.39,-690.67 98.99,-690.67 90.7,-684.07 88.39,-690.67"/>
</a>
</g>
</g>
<!-- Node24&#45;&gt;Node12 -->
<g id="edge40_Node000024_Node000012" class="edge">
<title>Node24&#45;&gt;Node12</title>
<g id="a_edge40_Node000024_Node000012"><a xlink:title=" ">
<path fill="none" stroke="#63b8ff" d="M99.67,-650.54C92.03,-648.64 84.29,-646.6 77,-644.5 64.96,-641.03 51.68,-636.51 41.13,-632.75"/>
<polygon fill="#63b8ff" stroke="#63b8ff" points="99.07,-654 109.62,-652.96 100.73,-647.2 99.07,-654"/>
</a>
</g>
</g>
<!-- Node25&#45;&gt;Node7 -->
<g id="edge42_Node000025_Node000007" class="edge">
<title>Node25&#45;&gt;Node7</title>
<g id="a_edge42_Node000025_Node000007"><a xlink:title=" ">
<path fill="none" stroke="#63b8ff" d="M84.25,-613.83C81.63,-611.99 79.19,-609.89 77,-607.5 50.9,-579.03 26.81,-292.14 22.27,-235.27"/>
<polygon fill="#63b8ff" stroke="#63b8ff" points="82.77,-617.01 93.2,-618.89 86.22,-610.92 82.77,-617.01"/>
</a>
</g>
</g>
<!-- Node26&#45;&gt;Node7 -->
<g id="edge44_Node000026_Node000007" class="edge">
<title>Node26&#45;&gt;Node7</title>
<g id="a_edge44_Node000026_Node000007"><a xlink:title=" ">
<path fill="none" stroke="#63b8ff" d="M92.89,-384.42C87.08,-381.49 81.64,-377.9 77,-373.5 35.55,-334.26 24.82,-261.08 22.25,-235.02"/>
<polygon fill="#63b8ff" stroke="#63b8ff" points="91.67,-387.71 102.24,-388.51 94.48,-381.3 91.67,-387.71"/>
</a>
</g>
</g>
</g>
</svg>
