<?xml version="1.0" encoding="UTF-8" standalone="no"?>
<!DOCTYPE svg PUBLIC "-//W3C//DTD SVG 1.1//EN"
 "http://www.w3.org/Graphics/SVG/1.1/DTD/svg11.dtd">
<!-- Generated by graphviz version 2.43.0 (0)
 -->
<!-- Title: Parser::trim Pages: 1 -->
<svg width="803pt" height="846pt"
 viewBox="0.00 0.00 803.00 846.00" xmlns="http://www.w3.org/2000/svg" xmlns:xlink="http://www.w3.org/1999/xlink">
<g id="graph0" class="graph" transform="scale(1 1) rotate(0) translate(4 842)">
<title>Parser::trim</title>
<!-- Node1 -->
<g id="Node000001" class="node">
<title>Node1</title>
<g id="a_Node000001"><a xlink:title="Trims leading and trailing whitespace from a string.">
<polygon fill="#999999" stroke="#666666" points="795,-443 722,-443 722,-424 795,-424 795,-443"/>
<text text-anchor="middle" x="758.5" y="-431" font-family="Helvetica,sans-Serif" font-size="10.00">Parser::trim</text>
</a>
</g>
</g>
<!-- Node2 -->
<g id="Node000002" class="node">
<title>Node2</title>
<g id="a_Node000002"><a xlink:href="classParser.html#a5a2a7fa051b2dce0c67484fcb141d913" target="_top" xlink:title="Parses the input file and returns a fully populated ProblemData.">
<polygon fill="white" stroke="#666666" points="349,-406 269,-406 269,-387 349,-387 349,-406"/>
<text text-anchor="middle" x="309" y="-394" font-family="Helvetica,sans-Serif" font-size="10.00">Parser::parse</text>
</a>
</g>
</g>
<!-- Node1&#45;&gt;Node2 -->
<g id="edge1_Node000001_Node000002" class="edge">
<title>Node1&#45;&gt;Node2</title>
<g id="a_edge1_Node000001_Node000002"><a xlink:title=" ">
<path fill="none" stroke="#63b8ff" d="M718.86,-445.73C708.31,-448.52 696.81,-451.09 686,-452.5 553.35,-469.82 511.96,-494.67 385,-452.5 357.55,-443.38 332.01,-419.87 319,-406.39"/>
<polygon fill="#63b8ff" stroke="#63b8ff" points="719.93,-449.06 728.62,-443 718.05,-442.32 719.93,-449.06"/>
</a>
</g>
</g>
<!-- Node29 -->
<g id="Node000029" class="node">
<title>Node29</title>
<g id="a_Node000029"><a xlink:href="classParser.html#aacf502fa084a101374bda3681e0d23bb" target="_top" xlink:title="Splits a CSV line by commas, respecting double&#45;quoted fields.">
<polygon fill="white" stroke="#666666" points="678,-406 585,-406 585,-387 678,-387 678,-406"/>
<text text-anchor="middle" x="631.5" y="-394" font-family="Helvetica,sans-Serif" font-size="10.00">Parser::splitCSV</text>
</a>
</g>
</g>
<!-- Node1&#45;&gt;Node29 -->
<g id="edge43_Node000001_Node000029" class="edge">
<title>Node1&#45;&gt;Node29</title>
<g id="a_edge43_Node000001_Node000029"><a xlink:title=" ">
<path fill="none" stroke="#63b8ff" d="M715.39,-421.04C698.95,-416.17 680.4,-410.68 665.02,-406.12"/>
<polygon fill="#63b8ff" stroke="#63b8ff" points="714.73,-424.49 725.31,-423.97 716.71,-417.78 714.73,-424.49"/>
</a>
</g>
</g>
<!-- Node34 -->
<g id="Node000034" class="node">
<title>Node34</title>
<g id="a_Node000034"><a xlink:href="classParser.html#a52df5c3f8fc72a8a486ae35a61d764d1" target="_top" xlink:title="Removes surrounding double quotes from a string value.">
<polygon fill="white" stroke="#666666" points="686,-443 577,-443 577,-424 686,-424 686,-443"/>
<text text-anchor="middle" x="631.5" y="-431" font-family="Helvetica,sans-Serif" font-size="10.00">Parser::stripQuotes</text>
</a>
</g>
</g>
<!-- Node1&#45;&gt;Node34 -->
<g id="edge52_Node000001_Node000034" class="edge">
<title>Node1&#45;&gt;Node34</title>
<g id="a_edge52_Node000001_Node000034"><a xlink:title=" ">
<path fill="none" stroke="#63b8ff" d="M711.47,-433.5C703.19,-433.5 694.5,-433.5 686.03,-433.5"/>
<polygon fill="#63b8ff" stroke="#63b8ff" points="711.68,-437 721.68,-433.5 711.68,-430 711.68,-437"/>
</a>
</g>
</g>
<!-- Node3 -->
<g id="Node000003" class="node">
<title>Node3</title>
<g id="a_Node000003"><a xlink:href="test__min2_8cpp.html#ae66f6b31b5ad750f1fe042a706a4e3d4" target="_top" xlink:title=" ">
<polygon fill="white" stroke="#666666" points="175.5,-838 134.5,-838 134.5,-819 175.5,-819 175.5,-838"/>
<text text-anchor="middle" x="155" y="-826" font-family="Helvetica,sans-Serif" font-size="10.00">main</text>
</a>
</g>
</g>
<!-- Node2&#45;&gt;Node3 -->
<g id="edge2_Node000002_Node000003" class="edge">
<title>Node2&#45;&gt;Node3</title>
<g id="a_edge2_Node000002_Node000003"><a xlink:title=" ">
<path fill="none" stroke="#63b8ff" d="M307.2,-416.52C303.79,-491.26 288.06,-752.59 233,-810.5 218.34,-825.92 193.2,-829.27 175.65,-829.51"/>
<polygon fill="#63b8ff" stroke="#63b8ff" points="310.71,-416.33 307.64,-406.19 303.71,-416.03 310.71,-416.33"/>
</a>
</g>
</g>
<!-- Node4 -->
<g id="Node000004" class="node">
<title>Node4</title>
<g id="a_Node000004"><a xlink:href="main_8cpp.html#adccc9f5ff7d7a84b4f757ddc2e00c25b" target="_top" xlink:title="Executes the program in batch mode.">
<polygon fill="white" stroke="#666666" points="185,-801 125,-801 125,-782 185,-782 185,-801"/>
<text text-anchor="middle" x="155" y="-789" font-family="Helvetica,sans-Serif" font-size="10.00">runBatch</text>
</a>
</g>
</g>
<!-- Node2&#45;&gt;Node4 -->
<g id="edge3_Node000002_Node000004" class="edge">
<title>Node2&#45;&gt;Node4</title>
<g id="a_edge3_Node000002_Node000004"><a xlink:title=" ">
<path fill="none" stroke="#63b8ff" d="M306.84,-416.07C302.3,-485.9 283.43,-721.36 233,-773.5 220.78,-786.13 201.53,-790.63 185.34,-791.97"/>
<polygon fill="#63b8ff" stroke="#63b8ff" points="310.34,-416.21 307.47,-406.01 303.35,-415.78 310.34,-416.21"/>
</a>
</g>
</g>
<!-- Node6 -->
<g id="Node000006" class="node">
<title>Node6</title>
<g id="a_Node000006"><a xlink:href="main_8cpp.html#aef0bcc404dd408e438ce7fa09e4ea3f7" target="_top" xlink:title="Executes the program in interactive mode.">
<polygon fill="white" stroke="#666666" points="197.5,-764 112.5,-764 112.5,-745 197.5,-745 197.5,-764"/>
<text text-anchor="middle" x="155" y="-752" font-family="Helvetica,sans-Serif" font-size="10.00">runInteractive</text>
</a>
</g>
</g>
<!-- Node2&#45;&gt;Node6 -->
<g id="edge5_Node000002_Node000006" class="edge">
<title>Node2&#45;&gt;Node6</title>
<g id="a_edge5_Node000002_Node000006"><a xlink:title=" ">
<path fill="none" stroke="#63b8ff" d="M306.37,-416.23C300.54,-481.71 278.68,-690.25 233,-736.5 223.74,-745.88 210.6,-750.75 197.78,-753.18"/>
<polygon fill="#63b8ff" stroke="#63b8ff" points="309.87,-416.32 307.24,-406.05 302.9,-415.72 309.87,-416.32"/>
</a>
</g>
</g>
<!-- Node7 -->
<g id="Node000007" class="node">
<title>Node7</title>
<g id="a_Node000007"><a xlink:href="test__min5_8cpp.html#a1440a7779ac56f47a3f355ce4a8c7da0" target="_top" xlink:title=" ">
<polygon fill="white" stroke="#666666" points="175.5,-727 134.5,-727 134.5,-708 175.5,-708 175.5,-727"/>
<text text-anchor="middle" x="155" y="-715" font-family="Helvetica,sans-Serif" font-size="10.00">test1</text>
</a>
</g>
</g>
<!-- Node2&#45;&gt;Node7 -->
<g id="edge7_Node000002_Node000007" class="edge">
<title>Node2&#45;&gt;Node7</title>
<g id="a_edge7_Node000002_Node000007"><a xlink:title=" ">
<path fill="none" stroke="#63b8ff" d="M305.74,-416.34C298.44,-476.94 273.58,-657.98 233,-698.5 218,-713.48 193.18,-717.31 175.78,-717.99"/>
<polygon fill="#63b8ff" stroke="#63b8ff" points="309.24,-416.53 306.93,-406.19 302.29,-415.72 309.24,-416.53"/>
</a>
</g>
</g>
<!-- Node9 -->
<g id="Node000009" class="node">
<title>Node9</title>
<g id="a_Node000009"><a xlink:href="test__parser_8cpp.html#a9c1287d07db31654f59eb8b0899803f5" target="_top" xlink:title=" ">
<polygon fill="white" stroke="#666666" points="216,-689.5 94,-689.5 94,-659.5 216,-659.5 216,-689.5"/>
<text text-anchor="start" x="102" y="-677.5" font-family="Helvetica,sans-Serif" font-size="10.00">test_case_insensitive</text>
<text text-anchor="middle" x="155" y="-666.5" font-family="Helvetica,sans-Serif" font-size="10.00">_headers</text>
</a>
</g>
</g>
<!-- Node2&#45;&gt;Node9 -->
<g id="edge9_Node000002_Node000009" class="edge">
<title>Node2&#45;&gt;Node9</title>
<g id="a_edge9_Node000002_Node000009"><a xlink:title=" ">
<path fill="none" stroke="#63b8ff" d="M308.11,-416.26C307.26,-463.51 298.43,-584.08 233,-650.5 228.19,-655.39 222.39,-659.28 216.17,-662.39"/>
<polygon fill="#63b8ff" stroke="#63b8ff" points="311.61,-416.16 308.18,-406.13 304.61,-416.11 311.61,-416.16"/>
</a>
</g>
</g>
<!-- Node11 -->
<g id="Node000011" class="node">
<title>Node11</title>
<g id="a_Node000011"><a xlink:href="test__parser_8cpp.html#a126f63090047c640c01c696f7fc26f2f" target="_top" xlink:title=" ">
<polygon fill="white" stroke="#666666" points="233,-641 77,-641 77,-622 233,-622 233,-641"/>
<text text-anchor="middle" x="155" y="-629" font-family="Helvetica,sans-Serif" font-size="10.00">test_error_bad_match_mode</text>
</a>
</g>
</g>
<!-- Node2&#45;&gt;Node11 -->
<g id="edge11_Node000002_Node000011" class="edge">
<title>Node2&#45;&gt;Node11</title>
<g id="a_edge11_Node000002_Node000011"><a xlink:title=" ">
<path fill="none" stroke="#63b8ff" d="M307.13,-416.67C304.17,-459.43 291.04,-559.58 233,-612.5 228.83,-616.3 224.02,-619.38 218.88,-621.85"/>
<polygon fill="#63b8ff" stroke="#63b8ff" points="310.64,-416.63 307.72,-406.44 303.65,-416.22 310.64,-416.63"/>
</a>
</g>
</g>
<!-- Node12 -->
<g id="Node000012" class="node">
<title>Node12</title>
<g id="a_Node000012"><a xlink:href="test__parser_8cpp.html#ab377fe3fe73744d6a0811156a92041b5" target="_top" xlink:title=" ">
<polygon fill="white" stroke="#666666" points="212,-603.5 98,-603.5 98,-573.5 212,-573.5 212,-603.5"/>
<text text-anchor="start" x="106" y="-591.5" font-family="Helvetica,sans-Serif" font-size="10.00">test_error_duplicate</text>
<text text-anchor="middle" x="155" y="-580.5" font-family="Helvetica,sans-Serif" font-size="10.00">_reviewer</text>
</a>
</g>
</g>
<!-- Node2&#45;&gt;Node12 -->
<g id="edge13_Node000002_Node000012" class="edge">
<title>Node2&#45;&gt;Node12</title>
<g id="a_edge13_Node000002_Node000012"><a xlink:title=" ">
<path fill="none" stroke="#63b8ff" d="M304.7,-415.99C297.78,-450.87 278.46,-524.1 233,-564.5 226.93,-569.89 219.66,-574.08 212.04,-577.32"/>
<polygon fill="#63b8ff" stroke="#63b8ff" points="308.16,-416.57 306.53,-406.1 301.27,-415.3 308.16,-416.57"/>
</a>
</g>
</g>
<!-- Node13 -->
<g id="Node000013" class="node">
<title>Node13</title>
<g id="a_Node000013"><a xlink:href="test__parser_8cpp.html#a343c9f74da44baaffaec262905e5e412" target="_top" xlink:title=" ">
<polygon fill="white" stroke="#666666" points="212,-555.5 98,-555.5 98,-525.5 212,-525.5 212,-555.5"/>
<text text-anchor="start" x="106" y="-543.5" font-family="Helvetica,sans-Serif" font-size="10.00">test_error_duplicate</text>
<text text-anchor="middle" x="155" y="-532.5" font-family="Helvetica,sans-Serif" font-size="10.00">_submission</text>
</a>
</g>
</g>
<!-- Node2&#45;&gt;Node13 -->
<g id="edge15_Node000002_Node000013" class="edge">
<title>Node2&#45;&gt;Node13</title>
<g id="a_edge15_Node000002_Node000013"><a xlink:title=" ">
<path fill="none" stroke="#63b8ff" d="M300.91,-415.9C290.24,-442.45 267.53,-489.86 233,-516.5 226.79,-521.29 219.62,-525.13 212.19,-528.21"/>
<polygon fill="#63b8ff" stroke="#63b8ff" points="304.31,-416.81 304.64,-406.22 297.78,-414.29 304.31,-416.81"/>
</a>
</g>
</g>
<!-- Node14 -->
<g id="Node000014" class="node">
<title>Node14</title>
<g id="a_Node000014"><a xlink:href="test__parser_8cpp.html#a5a664a22ac19ebc373b2c370371da52b" target="_top" xlink:title=" ">
<polygon fill="white" stroke="#666666" points="207.5,-507.5 102.5,-507.5 102.5,-477.5 207.5,-477.5 207.5,-507.5"/>
<text text-anchor="start" x="110.5" y="-495.5" font-family="Helvetica,sans-Serif" font-size="10.00">test_error_file_not</text>
<text text-anchor="middle" x="155" y="-484.5" font-family="Helvetica,sans-Serif" font-size="10.00">_found</text>
</a>
</g>
</g>
<!-- Node2&#45;&gt;Node14 -->
<g id="edge17_Node000002_Node000014" class="edge">
<title>Node2&#45;&gt;Node14</title>
<g id="a_edge17_Node000002_Node000014"><a xlink:title=" ">
<path fill="none" stroke="#63b8ff" d="M293.89,-414.11C279.99,-430.37 257.35,-454.12 233,-468.5 225.16,-473.13 216.34,-476.95 207.54,-480.09"/>
<polygon fill="#63b8ff" stroke="#63b8ff" points="296.62,-416.3 300.32,-406.37 291.24,-411.82 296.62,-416.3"/>
</a>
</g>
</g>
<!-- Node15 -->
<g id="Node000015" class="node">
<title>Node15</title>
<g id="a_Node000015"><a xlink:href="test__parser_8cpp.html#a6934d0ae32a4783c14eefea1da80864b" target="_top" xlink:title=" ">
<polygon fill="white" stroke="#666666" points="206,-459.5 104,-459.5 104,-429.5 206,-429.5 206,-459.5"/>
<text text-anchor="start" x="112" y="-447.5" font-family="Helvetica,sans-Serif" font-size="10.00">test_error_invalid</text>
<text text-anchor="middle" x="155" y="-436.5" font-family="Helvetica,sans-Serif" font-size="10.00">_integer</text>
</a>
</g>
</g>
<!-- Node2&#45;&gt;Node15 -->
<g id="edge19_Node000002_Node000015" class="edge">
<title>Node2&#45;&gt;Node15</title>
<g id="a_edge19_Node000002_Node000015"><a xlink:title=" ">
<path fill="none" stroke="#63b8ff" d="M268.68,-409.14C257.19,-412.82 244.6,-416.84 233,-420.5 223.79,-423.41 213.95,-426.49 204.49,-429.45"/>
<polygon fill="#63b8ff" stroke="#63b8ff" points="270,-412.4 278.45,-406.01 267.86,-405.73 270,-412.4"/>
</a>
</g>
</g>
<!-- Node16 -->
<g id="Node000016" class="node">
<title>Node16</title>
<g id="a_Node000016"><a xlink:href="test__parser_8cpp.html#abfbd71c25d3b401d2d7a9443020b30d3" target="_top" xlink:title=" ">
<polygon fill="white" stroke="#666666" points="216.5,-411.5 93.5,-411.5 93.5,-381.5 216.5,-381.5 216.5,-411.5"/>
<text text-anchor="start" x="101.5" y="-399.5" font-family="Helvetica,sans-Serif" font-size="10.00">test_error_malformed</text>
<text text-anchor="middle" x="155" y="-388.5" font-family="Helvetica,sans-Serif" font-size="10.00">_submission</text>
</a>
</g>
</g>
<!-- Node2&#45;&gt;Node16 -->
<g id="edge21_Node000002_Node000016" class="edge">
<title>Node2&#45;&gt;Node16</title>
<g id="a_edge21_Node000002_Node000016"><a xlink:title=" ">
<path fill="none" stroke="#63b8ff" d="M258.84,-396.5C245.36,-396.5 230.59,-396.5 216.55,-396.5"/>
<polygon fill="#63b8ff" stroke="#63b8ff" points="258.86,-400 268.86,-396.5 258.86,-393 258.86,-400"/>
</a>
</g>
</g>
<!-- Node17 -->
<g id="Node000017" class="node">
<title>Node17</title>
<g id="a_Node000017"><a xlink:href="test__parser_8cpp.html#ae471e2e9c215d0aa62407de800de98ef" target="_top" xlink:title=" ">
<polygon fill="white" stroke="#666666" points="208.5,-363.5 101.5,-363.5 101.5,-333.5 208.5,-333.5 208.5,-363.5"/>
<text text-anchor="start" x="109.5" y="-351.5" font-family="Helvetica,sans-Serif" font-size="10.00">test_error_missing</text>
<text text-anchor="middle" x="155" y="-340.5" font-family="Helvetica,sans-Serif" font-size="10.00">_section</text>
</a>
</g>
</g>
<!-- Node2&#45;&gt;Node17 -->
<g id="edge23_Node000002_Node000017" class="edge">
<title>Node2&#45;&gt;Node17</title>
<g id="a_edge23_Node000002_Node000017"><a xlink:title=" ">
<path fill="none" stroke="#63b8ff" d="M268.68,-383.86C257.19,-380.18 244.6,-376.16 233,-372.5 223.79,-369.59 213.95,-366.51 204.49,-363.55"/>
<polygon fill="#63b8ff" stroke="#63b8ff" points="267.86,-387.27 278.45,-386.99 270,-380.6 267.86,-387.27"/>
</a>
</g>
</g>
<!-- Node18 -->
<g id="Node000018" class="node">
<title>Node18</title>
<g id="a_Node000018"><a xlink:href="test__parser_8cpp.html#a61f86e215a0f00a2ad48a874bedbb795" target="_top" xlink:title=" ">
<polygon fill="white" stroke="#666666" points="218,-315 92,-315 92,-296 218,-296 218,-315"/>
<text text-anchor="middle" x="155" y="-303" font-family="Helvetica,sans-Serif" font-size="10.00">test_error_negative_id</text>
</a>
</g>
</g>
<!-- Node2&#45;&gt;Node18 -->
<g id="edge25_Node000002_Node000018" class="edge">
<title>Node2&#45;&gt;Node18</title>
<g id="a_edge25_Node000002_Node000018"><a xlink:title=" ">
<path fill="none" stroke="#63b8ff" d="M294.53,-379.1C280.81,-362.58 258.04,-338.29 233,-324.5 226,-320.65 218.23,-317.56 210.38,-315.1"/>
<polygon fill="#63b8ff" stroke="#63b8ff" points="291.84,-381.34 300.84,-386.93 297.29,-376.95 291.84,-381.34"/>
</a>
</g>
</g>
<!-- Node19 -->
<g id="Node000019" class="node">
<title>Node19</title>
<g id="a_Node000019"><a xlink:href="test__parser_8cpp.html#a90125c8eff9ae32567685fc66c0a0a24" target="_top" xlink:title=" ">
<polygon fill="white" stroke="#666666" points="192,-278 118,-278 118,-259 192,-259 192,-278"/>
<text text-anchor="middle" x="155" y="-266" font-family="Helvetica,sans-Serif" font-size="10.00">test_figure1</text>
</a>
</g>
</g>
<!-- Node2&#45;&gt;Node19 -->
<g id="edge27_Node000002_Node000019" class="edge">
<title>Node2&#45;&gt;Node19</title>
<g id="a_edge27_Node000002_Node000019"><a xlink:title=" ">
<path fill="none" stroke="#63b8ff" d="M300.25,-377.3C289.16,-352.38 266.36,-309.37 233,-286.5 221.11,-278.35 206.02,-273.86 192.36,-271.39"/>
<polygon fill="#63b8ff" stroke="#63b8ff" points="297.14,-378.94 304.28,-386.76 303.58,-376.19 297.14,-378.94"/>
</a>
</g>
</g>
<!-- Node20 -->
<g id="Node000020" class="node">
<title>Node20</title>
<g id="a_Node000020"><a xlink:href="test__output_8cpp.html#ad98b96469ee1c28ab8390957efbc52e5" target="_top" xlink:title=" ">
<polygon fill="white" stroke="#666666" points="221.5,-93 88.5,-93 88.5,-74 221.5,-74 221.5,-93"/>
<text text-anchor="middle" x="155" y="-81" font-family="Helvetica,sans-Serif" font-size="10.00">test_full_batch_pipeline</text>
</a>
</g>
</g>
<!-- Node2&#45;&gt;Node20 -->
<g id="edge29_Node000002_Node000020" class="edge">
<title>Node2&#45;&gt;Node20</title>
<g id="a_edge29_Node000002_Node000020"><a xlink:title=" ">
<path fill="none" stroke="#63b8ff" d="M305.64,-376.7C298.14,-317.04 272.96,-140.7 233,-101.5 229.57,-98.14 225.64,-95.35 221.41,-93.06"/>
<polygon fill="#63b8ff" stroke="#63b8ff" points="302.18,-377.21 306.87,-386.71 309.13,-376.36 302.18,-377.21"/>
</a>
</g>
</g>
<!-- Node22 -->
<g id="Node000022" class="node">
<title>Node22</title>
<g id="a_Node000022"><a xlink:href="test__graph_8cpp.html#ae160a573baa527c8e420eddbce3cab30" target="_top" xlink:title=" ">
<polygon fill="white" stroke="#666666" points="212.5,-19 97.5,-19 97.5,0 212.5,0 212.5,-19"/>
<text text-anchor="middle" x="155" y="-7" font-family="Helvetica,sans-Serif" font-size="10.00">test_full_integration</text>
</a>
</g>
</g>
<!-- Node2&#45;&gt;Node22 -->
<g id="edge31_Node000002_Node000022" class="edge">
<title>Node2&#45;&gt;Node22</title>
<g id="a_edge31_Node000002_Node000022"><a xlink:title=" ">
<path fill="none" stroke="#63b8ff" d="M306.71,-376.46C301.85,-307.03 282.3,-78.26 233,-27.5 227.36,-21.69 220.22,-17.6 212.59,-14.75"/>
<polygon fill="#63b8ff" stroke="#63b8ff" points="303.25,-377.1 307.41,-386.84 310.23,-376.63 303.25,-377.1"/>
</a>
</g>
</g>
<!-- Node24 -->
<g id="Node000024" class="node">
<title>Node24</title>
<g id="a_Node000024"><a xlink:href="test__parser_8cpp.html#ae241a9fb68c40ec0bc4d3137195d5cce" target="_top" xlink:title=" ">
<polygon fill="white" stroke="#666666" points="208.5,-241 101.5,-241 101.5,-222 208.5,-222 208.5,-241"/>
<text text-anchor="middle" x="155" y="-229" font-family="Helvetica,sans-Serif" font-size="10.00">test_large_dataset</text>
</a>
</g>
</g>
<!-- Node2&#45;&gt;Node24 -->
<g id="edge33_Node000002_Node000024" class="edge">
<title>Node2&#45;&gt;Node24</title>
<g id="a_edge33_Node000002_Node000024"><a xlink:title=" ">
<path fill="none" stroke="#63b8ff" d="M303.66,-376.94C295.55,-345.11 274.97,-282.37 233,-249.5 225.97,-244 217.55,-240.13 208.9,-237.42"/>
<polygon fill="#63b8ff" stroke="#63b8ff" points="300.29,-377.9 306.03,-386.81 307.1,-376.27 300.29,-377.9"/>
</a>
</g>
</g>
<!-- Node25 -->
<g id="Node000025" class="node">
<title>Node25</title>
<g id="a_Node000025"><a xlink:href="test__output_8cpp.html#ae22f862265d01c0acb3649c247f4a726" target="_top" xlink:title=" ">
<polygon fill="white" stroke="#666666" points="210.5,-56 99.5,-56 99.5,-37 210.5,-37 210.5,-56"/>
<text text-anchor="middle" x="155" y="-44" font-family="Helvetica,sans-Serif" font-size="10.00">test_output_figure2</text>
</a>
</g>
</g>
<!-- Node2&#45;&gt;Node25 -->
<g id="edge35_Node000002_Node000025" class="edge">
<title>Node2&#45;&gt;Node25</title>
<g id="a_edge35_Node000002_Node000025"><a xlink:title=" ">
<path fill="none" stroke="#63b8ff" d="M306.26,-376.8C300.15,-312.38 277.67,-109.5 233,-64.5 226.81,-58.26 218.9,-54.02 210.52,-51.16"/>
<polygon fill="#63b8ff" stroke="#63b8ff" points="302.78,-377.21 307.18,-386.85 309.75,-376.57 302.78,-377.21"/>
</a>
</g>
</g>
<!-- Node26 -->
<g id="Node000026" class="node">
<title>Node26</title>
<g id="a_Node000026"><a xlink:href="test__parser_8cpp.html#ac6b56ff4100c4b6092b5b80fdf1f49c2" target="_top" xlink:title=" ">
<polygon fill="white" stroke="#666666" points="224,-204 86,-204 86,-185 224,-185 224,-204"/>
<text text-anchor="middle" x="155" y="-192" font-family="Helvetica,sans-Serif" font-size="10.00">test_secondary_domains</text>
</a>
</g>
</g>
<!-- Node2&#45;&gt;Node26 -->
<g id="edge37_Node000002_Node000026" class="edge">
<title>Node2&#45;&gt;Node26</title>
<g id="a_edge37_Node000002_Node000026"><a xlink:title=" ">
<path fill="none" stroke="#63b8ff" d="M305.81,-376.43C300.55,-338.39 283.64,-255.74 233,-212.5 229.03,-209.11 224.55,-206.33 219.78,-204.06"/>
<polygon fill="#63b8ff" stroke="#63b8ff" points="302.38,-377.22 307.09,-386.71 309.33,-376.35 302.38,-377.22"/>
</a>
</g>
</g>
<!-- Node27 -->
<g id="Node000027" class="node">
<title>Node27</title>
<g id="a_Node000027"><a xlink:href="test__parser_8cpp.html#aecc82ef8e44a1d7ac23fb64f603efd07" target="_top" xlink:title=" ">
<polygon fill="white" stroke="#666666" points="208.5,-167 101.5,-167 101.5,-148 208.5,-148 208.5,-167"/>
<text text-anchor="middle" x="155" y="-155" font-family="Helvetica,sans-Serif" font-size="10.00">test_section_order</text>
</a>
</g>
</g>
<!-- Node2&#45;&gt;Node27 -->
<g id="edge39_Node000002_Node000027" class="edge">
<title>Node2&#45;&gt;Node27</title>
<g id="a_edge39_Node000002_Node000027"><a xlink:title=" ">
<path fill="none" stroke="#63b8ff" d="M307.39,-376.7C304.94,-333.37 292.78,-229.72 233,-175.5 226.19,-169.32 217.67,-165.14 208.8,-162.34"/>
<polygon fill="#63b8ff" stroke="#63b8ff" points="303.9,-376.95 307.84,-386.79 310.89,-376.64 303.9,-376.95"/>
</a>
</g>
</g>
<!-- Node28 -->
<g id="Node000028" class="node">
<title>Node28</title>
<g id="a_Node000028"><a xlink:href="test__parser_8cpp.html#a3db8e6d525932bc5a1c6dafa2fc9e0a9" target="_top" xlink:title=" ">
<polygon fill="white" stroke="#666666" points="228.5,-130 81.5,-130 81.5,-111 228.5,-111 228.5,-130"/>
<text text-anchor="middle" x="155" y="-118" font-family="Helvetica,sans-Serif" font-size="10.00">test_whitespace_tolerance</text>
</a>
</g>
</g>
<!-- Node2&#45;&gt;Node28 -->
<g id="edge41_Node000002_Node000028" class="edge">
<title>Node2&#45;&gt;Node28</title>
<g id="a_edge41_Node000002_Node000028"><a xlink:title=" ">
<path fill="none" stroke="#63b8ff" d="M308.52,-376.76C308.66,-328.53 301.94,-203.87 233,-138.5 229.51,-135.19 225.54,-132.46 221.28,-130.19"/>
<polygon fill="#63b8ff" stroke="#63b8ff" points="305.02,-376.77 308.39,-386.82 312.02,-376.87 305.02,-376.77"/>
</a>
</g>
</g>
<!-- Node5 -->
<g id="Node000005" class="node">
<title>Node5</title>
<g id="a_Node000005"><a xlink:href="main_8cpp.html#a0ddf1224851353fc92bfbff6f499fa97" target="_top" xlink:title="Program entry point.">
<polygon fill="white" stroke="#666666" points="41,-782 0,-782 0,-763 41,-763 41,-782"/>
<text text-anchor="middle" x="20.5" y="-770" font-family="Helvetica,sans-Serif" font-size="10.00">main</text>
</a>
</g>
</g>
<!-- Node4&#45;&gt;Node5 -->
<g id="edge4_Node000004_Node000005" class="edge">
<title>Node4&#45;&gt;Node5</title>
<g id="a_edge4_Node000004_Node000005"><a xlink:title=" ">
<path fill="none" stroke="#63b8ff" d="M114.92,-785.9C90.63,-782.41 60.45,-778.09 41.08,-775.31"/>
<polygon fill="#63b8ff" stroke="#63b8ff" points="114.53,-789.38 124.92,-787.33 115.52,-782.45 114.53,-789.38"/>
</a>
</g>
</g>
<!-- Node6&#45;&gt;Node5 -->
<g id="edge6_Node000006_Node000005" class="edge">
<title>Node6&#45;&gt;Node5</title>
<g id="a_edge6_Node000006_Node000005"><a xlink:title=" ">
<path fill="none" stroke="#63b8ff" d="M102.42,-761.51C80.92,-764.43 57.25,-767.64 41.09,-769.84"/>
<polygon fill="#63b8ff" stroke="#63b8ff" points="103,-764.96 112.44,-760.15 102.06,-758.02 103,-764.96"/>
</a>
</g>
</g>
<!-- Node8 -->
<g id="Node000008" class="node">
<title>Node8</title>
<g id="a_Node000008"><a xlink:href="test__min5_8cpp.html#ae66f6b31b5ad750f1fe042a706a4e3d4" target="_top" xlink:title=" ">
<polygon fill="white" stroke="#666666" points="41,-727 0,-727 0,-708 41,-708 41,-727"/>
<text text-anchor="middle" x="20.5" y="-715" font-family="Helvetica,sans-Serif" font-size="10.00">main</text>
</a>
</g>
</g>
<!-- Node7&#45;&gt;Node8 -->
<g id="edge8_Node000007_Node000008" class="edge">
<title>Node7&#45;&gt;Node8</title>
<g id="a_edge8_Node000007_Node000008"><a xlink:title=" ">
<path fill="none" stroke="#63b8ff" d="M124.28,-717.5C98.89,-717.5 63.08,-717.5 41.13,-717.5"/>
<polygon fill="#63b8ff" stroke="#63b8ff" points="124.45,-721 134.45,-717.5 124.45,-714 124.45,-721"/>
</a>
</g>
</g>
<!-- Node10 -->
<g id="Node000010" class="node">
<title>Node10</title>
<g id="a_Node000010"><a xlink:href="test__parser_8cpp.html#ae66f6b31b5ad750f1fe042a706a4e3d4" target="_top" xlink:title=" ">
<polygon fill="white" stroke="#666666" points="41,-382 0,-382 0,-363 41,-363 41,-382"/>
<text text-anchor="middle" x="20.5" y="-370" font-family="Helvetica,sans-Serif" font-size="10.00">main</text>
</a>
</g>
</g>
<!-- Node9&#45;&gt;Node10 -->
<g id="edge10_Node000009_Node000010" class="edge">
<title>Node9&#45;&gt;Node10</title>
<g id="a_edge10_Node000009_Node000010"><a xlink:title=" ">
<path fill="none" stroke="#63b8ff" d="M85.04,-657.69C82.12,-655.57 79.42,-653.18 77,-650.5 40.04,-609.44 25.22,-426.6 22.14,-382.23"/>
<polygon fill="#63b8ff" stroke="#63b8ff" points="83.4,-660.79 93.76,-663 87.04,-654.81 83.4,-660.79"/>
</a>
</g>
</g>
<!-- Node11&#45;&gt;Node10 -->
<g id="edge12_Node000011_Node000010" class="edge">
<title>Node11&#45;&gt;Node10</title>
<g id="a_edge12_Node000011_Node000010"><a xlink:title=" ">
<path fill="none" stroke="#63b8ff" d="M81.49,-616.5C79.92,-615.27 78.41,-613.93 77,-612.5 43.61,-578.61 26.33,-422.33 22.39,-382.01"/>
<polygon fill="#63b8ff" stroke="#63b8ff" points="79.64,-619.47 89.94,-621.93 83.42,-613.58 79.64,-619.47"/>
</a>
</g>
</g>
<!-- Node12&#45;&gt;Node10 -->
<g id="edge14_Node000012_Node000010" class="edge">
<title>Node12&#45;&gt;Node10</title>
<g id="a_edge14_Node000012_Node000010"><a xlink:title=" ">
<path fill="none" stroke="#63b8ff" d="M88.6,-573.56C84.37,-571 80.43,-568 77,-564.5 25.04,-511.45 21.17,-412.93 21.3,-382.02"/>
<polygon fill="#63b8ff" stroke="#63b8ff" points="87.16,-576.75 97.65,-578.22 90.37,-570.53 87.16,-576.75"/>
</a>
</g>
</g>
<!-- Node13&#45;&gt;Node10 -->
<g id="edge16_Node000013_Node000010" class="edge">
<title>Node13&#45;&gt;Node10</title>
<g id="a_edge16_Node000013_Node000010"><a xlink:title=" ">
<path fill="none" stroke="#63b8ff" d="M88.72,-525.09C84.49,-522.64 80.52,-519.8 77,-516.5 36.52,-478.59 25.22,-407.84 22.37,-382.14"/>
<polygon fill="#63b8ff" stroke="#63b8ff" points="87.2,-528.25 97.71,-529.6 90.33,-521.99 87.2,-528.25"/>
</a>
</g>
</g>
<!-- Node14&#45;&gt;Node10 -->
<g id="edge18_Node000014_Node000010" class="edge">
<title>Node14&#45;&gt;Node10</title>
<g id="a_edge18_Node000014_Node000010"><a xlink:title=" ">
<path fill="none" stroke="#63b8ff" d="M93.19,-478.41C87.4,-475.67 81.88,-472.4 77,-468.5 47.68,-445.06 30.82,-401.63 24.46,-382.26"/>
<polygon fill="#63b8ff" stroke="#63b8ff" points="91.87,-481.66 102.45,-482.3 94.58,-475.2 91.87,-481.66"/>
</a>
</g>
</g>
<!-- Node15&#45;&gt;Node10 -->
<g id="edge20_Node000015_Node000010" class="edge">
<title>Node15&#45;&gt;Node10</title>
<g id="a_edge20_Node000015_Node000010"><a xlink:title=" ">
<path fill="none" stroke="#63b8ff" d="M94.37,-428.65C88.36,-426.25 82.46,-423.54 77,-420.5 58.52,-410.22 40.67,-393.09 30.4,-382.32"/>
<polygon fill="#63b8ff" stroke="#63b8ff" points="93.28,-431.97 103.88,-432.17 95.72,-425.41 93.28,-431.97"/>
</a>
</g>
</g>
<!-- Node16&#45;&gt;Node10 -->
<g id="edge22_Node000016_Node000010" class="edge">
<title>Node16&#45;&gt;Node10</title>
<g id="a_edge22_Node000016_Node000010"><a xlink:title=" ">
<path fill="none" stroke="#63b8ff" d="M83.04,-383.65C67.62,-380.85 52.55,-378.12 41.18,-376.06"/>
<polygon fill="#63b8ff" stroke="#63b8ff" points="82.72,-387.14 93.18,-385.48 83.96,-380.26 82.72,-387.14"/>
</a>
</g>
</g>
<!-- Node17&#45;&gt;Node10 -->
<g id="edge24_Node000017_Node000010" class="edge">
<title>Node17&#45;&gt;Node10</title>
<g id="a_edge24_Node000017_Node000010"><a xlink:title=" ">
<path fill="none" stroke="#63b8ff" d="M91.2,-359.88C72.98,-363.18 54.41,-366.54 41.02,-368.96"/>
<polygon fill="#63b8ff" stroke="#63b8ff" points="92.04,-363.28 101.25,-358.05 90.79,-356.39 92.04,-363.28"/>
</a>
</g>
</g>
<!-- Node18&#45;&gt;Node10 -->
<g id="edge26_Node000018_Node000010" class="edge">
<title>Node18&#45;&gt;Node10</title>
<g id="a_edge26_Node000018_Node000010"><a xlink:title=" ">
<path fill="none" stroke="#63b8ff" d="M91.36,-318.26C86.39,-320.08 81.55,-322.15 77,-324.5 57.99,-334.34 40.03,-351.93 29.93,-362.87"/>
<polygon fill="#63b8ff" stroke="#63b8ff" points="92.63,-321.53 101.02,-315.06 90.42,-314.88 92.63,-321.53"/>
</a>
</g>
</g>
<!-- Node19&#45;&gt;Node10 -->
<g id="edge28_Node000019_Node000010" class="edge">
<title>Node19&#45;&gt;Node10</title>
<g id="a_edge28_Node000019_Node000010"><a xlink:title=" ">
<path fill="none" stroke="#63b8ff" d="M108.06,-273.24C97.18,-275.93 86.11,-280.08 77,-286.5 49.11,-306.15 31.83,-344.7 24.94,-362.75"/>
<polygon fill="#63b8ff" stroke="#63b8ff" points="108.86,-276.65 117.93,-271.17 107.42,-269.8 108.86,-276.65"/>
</a>
</g>
</g>
<!-- Node21 -->
<g id="Node000021" class="node">
<title>Node21</title>
<g id="a_Node000021"><a xlink:href="test__output_8cpp.html#ae66f6b31b5ad750f1fe042a706a4e3d4" target="_top" xlink:title=" ">
<polygon fill="white" stroke="#666666" points="41,-75 0,-75 0,-56 41,-56 41,-75"/>
<text text-anchor="middle" x="20.5" y="-63" font-family="Helvetica,sans-Serif" font-size="10.00">main</text>
</a>
</g>
</g>
<!-- Node20&#45;&gt;Node21 -->
<g id="edge30_Node000020_Node000021" class="edge">
<title>Node20&#45;&gt;Node21</title>
<g id="a_edge30_Node000020_Node000021"><a xlink:title=" ">
<path fill="none" stroke="#63b8ff" d="M78.12,-73.19C64.45,-71.34 51.35,-69.55 41.19,-68.17"/>
<polygon fill="#63b8ff" stroke="#63b8ff" points="77.76,-76.67 88.14,-74.55 78.7,-69.74 77.76,-76.67"/>
</a>
</g>
</g>
<!-- Node23 -->
<g id="Node000023" class="node">
<title>Node23</title>
<g id="a_Node000023"><a xlink:href="test__graph_8cpp.html#ae66f6b31b5ad750f1fe042a706a4e3d4" target="_top" xlink:title=" ">
<polygon fill="white" stroke="#666666" points="41,-19 0,-19 0,0 41,0 41,-19"/>
<text text-anchor="middle" x="20.5" y="-7" font-family="Helvetica,sans-Serif" font-size="10.00">main</text>
</a>
</g>
</g>
<!-- Node22&#45;&gt;Node23 -->
<g id="edge32_Node000022_Node000023" class="edge">
<title>Node22&#45;&gt;Node23</title>
<g id="a_edge32_Node000022_Node000023"><a xlink:title=" ">
<path fill="none" stroke="#63b8ff" d="M86.98,-9.5C70.16,-9.5 53.41,-9.5 41.06,-9.5"/>
<polygon fill="#63b8ff" stroke="#63b8ff" points="87.42,-13 97.42,-9.5 87.42,-6 87.42,-13"/>
</a>
</g>
</g>
<!-- Node24&#45;&gt;Node10 -->
<g id="edge34_Node000024_Node000010" class="edge">
<title>Node24&#45;&gt;Node10</title>
<g id="a_edge34_Node000024_Node000010"><a xlink:title=" ">
<path fill="none" stroke="#63b8ff" d="M91.59,-240.65C86.34,-243 81.37,-245.9 77,-249.5 40.27,-279.71 26.89,-339.35 22.93,-362.75"/>
<polygon fill="#63b8ff" stroke="#63b8ff" points="93.15,-243.81 101.28,-237.02 90.69,-237.25 93.15,-243.81"/>
</a>
</g>
</g>
<!-- Node25&#45;&gt;Node21 -->
<g id="edge36_Node000025_Node000021" class="edge">
<title>Node25&#45;&gt;Node21</title>
<g id="a_edge36_Node000025_Node000021"><a xlink:title=" ">
<path fill="none" stroke="#63b8ff" d="M89.08,-55.81C71.56,-58.32 53.92,-60.85 41.05,-62.7"/>
<polygon fill="#63b8ff" stroke="#63b8ff" points="89.94,-59.22 99.34,-54.34 88.95,-52.29 89.94,-59.22"/>
</a>
</g>
</g>
<!-- Node26&#45;&gt;Node10 -->
<g id="edge38_Node000026_Node000010" class="edge">
<title>Node26&#45;&gt;Node10</title>
<g id="a_edge38_Node000026_Node000010"><a xlink:title=" ">
<path fill="none" stroke="#63b8ff" d="M81.07,-209.2C79.66,-210.23 78.3,-211.33 77,-212.5 31.13,-253.83 23.17,-335.02 21.79,-362.86"/>
<polygon fill="#63b8ff" stroke="#63b8ff" points="82.9,-212.19 89.65,-204.02 79.28,-206.2 82.9,-212.19"/>
</a>
</g>
</g>
<!-- Node27&#45;&gt;Node10 -->
<g id="edge40_Node000027_Node000010" class="edge">
<title>Node27&#45;&gt;Node10</title>
<g id="a_edge40_Node000027_Node000010"><a xlink:title=" ">
<path fill="none" stroke="#63b8ff" d="M91.86,-165.58C86.4,-168.12 81.32,-171.37 77,-175.5 22.04,-228.05 20.18,-330.4 21.05,-362.58"/>
<polygon fill="#63b8ff" stroke="#63b8ff" points="93.26,-168.79 101.33,-161.93 90.74,-162.26 93.26,-168.79"/>
</a>
</g>
</g>
<!-- Node28&#45;&gt;Node10 -->
<g id="edge42_Node000028_Node000010" class="edge">
<title>Node28&#45;&gt;Node10</title>
<g id="a_edge42_Node000028_Node000010"><a xlink:title=" ">
<path fill="none" stroke="#63b8ff" d="M79.9,-135.85C78.9,-136.69 77.93,-137.57 77,-138.5 44.18,-171.22 26.54,-323.16 22.44,-362.95"/>
<polygon fill="#63b8ff" stroke="#63b8ff" points="81.89,-138.73 88.17,-130.2 77.94,-132.95 81.89,-138.73"/>
</a>
</g>
</g>
<!-- Node30 -->
<g id="Node000030" class="node">
<title>Node30</title>
<g id="a_Node000030"><a xlink:href="classParser.html#abe415229c2daa3f3ba4efd44661bd703" target="_top" xlink:title="Parses a control line: &quot;KeyName, value&quot;.">
<polygon fill="white" stroke="#666666" points="530.5,-443 395.5,-443 395.5,-424 530.5,-424 530.5,-443"/>
<text text-anchor="middle" x="463" y="-431" font-family="Helvetica,sans-Serif" font-size="10.00">Parser::parseControlLine</text>
</a>
</g>
</g>
<!-- Node29&#45;&gt;Node30 -->
<g id="edge44_Node000029_Node000030" class="edge">
<title>Node29&#45;&gt;Node30</title>
<g id="a_edge44_Node000029_Node000030"><a xlink:title=" ">
<path fill="none" stroke="#63b8ff" d="M577.76,-408.22C554.96,-413.29 528.61,-419.14 507.02,-423.94"/>
<polygon fill="#63b8ff" stroke="#63b8ff" points="578.62,-411.61 587.62,-406.03 577.1,-404.78 578.62,-411.61"/>
</a>
</g>
</g>
<!-- Node31 -->
<g id="Node000031" class="node">
<title>Node31</title>
<g id="a_Node000031"><a xlink:href="classParser.html#a49fdbc3e3b2c220e042d77ea0568bdba" target="_top" xlink:title="Parses a parameter line: &quot;KeyName, value&quot;.">
<polygon fill="white" stroke="#666666" points="538,-406 388,-406 388,-387 538,-387 538,-406"/>
<text text-anchor="middle" x="463" y="-394" font-family="Helvetica,sans-Serif" font-size="10.00">Parser::parseParameterLine</text>
</a>
</g>
</g>
<!-- Node29&#45;&gt;Node31 -->
<g id="edge46_Node000029_Node000031" class="edge">
<title>Node29&#45;&gt;Node31</title>
<g id="a_edge46_Node000029_Node000031"><a xlink:title=" ">
<path fill="none" stroke="#63b8ff" d="M574.55,-396.5C562.9,-396.5 550.44,-396.5 538.25,-396.5"/>
<polygon fill="#63b8ff" stroke="#63b8ff" points="574.56,-400 584.56,-396.5 574.56,-393 574.56,-400"/>
</a>
</g>
</g>
<!-- Node32 -->
<g id="Node000032" class="node">
<title>Node32</title>
<g id="a_Node000032"><a xlink:href="classParser.html#a8b52e53cfc75a57e18f03d925823fe2a" target="_top" xlink:title="Parses a single reviewer line.">
<polygon fill="white" stroke="#666666" points="536,-369 390,-369 390,-350 536,-350 536,-369"/>
<text text-anchor="middle" x="463" y="-357" font-family="Helvetica,sans-Serif" font-size="10.00">Parser::parseReviewerLine</text>
</a>
</g>
</g>
<!-- Node29&#45;&gt;Node32 -->
<g id="edge48_Node000029_Node000032" class="edge">
<title>Node29&#45;&gt;Node32</title>
<g id="a_edge48_Node000029_Node000032"><a xlink:title=" ">
<path fill="none" stroke="#63b8ff" d="M577.76,-384.78C554.96,-379.71 528.61,-373.86 507.02,-369.06"/>
<polygon fill="#63b8ff" stroke="#63b8ff" points="577.1,-388.22 587.62,-386.97 578.62,-381.39 577.1,-388.22"/>
</a>
</g>
</g>
<!-- Node33 -->
<g id="Node000033" class="node">
<title>Node33</title>
<g id="a_Node000033"><a xlink:href="classParser.html#ab15bc67b738ede92f26a5ead4c294bd3" target="_top" xlink:title="Parses a single submission line.">
<polygon fill="white" stroke="#666666" points="541,-332 385,-332 385,-313 541,-313 541,-332"/>
<text text-anchor="middle" x="463" y="-320" font-family="Helvetica,sans-Serif" font-size="10.00">Parser::parseSubmissionLine</text>
</a>
</g>
</g>
<!-- Node29&#45;&gt;Node33 -->
<g id="edge50_Node000029_Node000033" class="edge">
<title>Node29&#45;&gt;Node33</title>
<g id="a_edge50_Node000029_Node000033"><a xlink:title=" ">
<path fill="none" stroke="#63b8ff" d="M609.89,-380.83C592.4,-368.25 566.22,-351 541,-340.5 533.01,-337.18 524.3,-334.4 515.69,-332.1"/>
<polygon fill="#63b8ff" stroke="#63b8ff" points="608.05,-383.83 618.18,-386.93 612.2,-378.19 608.05,-383.83"/>
</a>
</g>
</g>
<!-- Node30&#45;&gt;Node2 -->
<g id="edge45_Node000030_Node000002" class="edge">
<title>Node30&#45;&gt;Node2</title>
<g id="a_edge45_Node000030_Node000002"><a xlink:title=" ">
<path fill="none" stroke="#63b8ff" d="M410.53,-421.61C402,-419.6 393.24,-417.51 385,-415.5 372.6,-412.48 359.08,-409.09 346.97,-406.01"/>
<polygon fill="#63b8ff" stroke="#63b8ff" points="409.87,-425.05 420.41,-423.92 411.47,-418.23 409.87,-425.05"/>
</a>
</g>
</g>
<!-- Node31&#45;&gt;Node2 -->
<g id="edge47_Node000031_Node000002" class="edge">
<title>Node31&#45;&gt;Node2</title>
<g id="a_edge47_Node000031_Node000002"><a xlink:title=" ">
<path fill="none" stroke="#63b8ff" d="M377.54,-396.5C367.74,-396.5 358.14,-396.5 349.39,-396.5"/>
<polygon fill="#63b8ff" stroke="#63b8ff" points="377.78,-400 387.78,-396.5 377.78,-393 377.78,-400"/>
</a>
</g>
</g>
<!-- Node32&#45;&gt;Node2 -->
<g id="edge49_Node000032_Node000002" class="edge">
<title>Node32&#45;&gt;Node2</title>
<g id="a_edge49_Node000032_Node000002"><a xlink:title=" ">
<path fill="none" stroke="#63b8ff" d="M410.53,-371.39C402,-373.4 393.24,-375.49 385,-377.5 372.6,-380.52 359.08,-383.91 346.97,-386.99"/>
<polygon fill="#63b8ff" stroke="#63b8ff" points="411.47,-374.77 420.41,-369.08 409.87,-367.95 411.47,-374.77"/>
</a>
</g>
</g>
<!-- Node33&#45;&gt;Node2 -->
<g id="edge51_Node000033_Node000002" class="edge">
<title>Node33&#45;&gt;Node2</title>
<g id="a_edge51_Node000033_Node000002"><a xlink:title=" ">
<path fill="none" stroke="#63b8ff" d="M398.68,-335.05C393.97,-336.66 389.36,-338.47 385,-340.5 359.36,-352.43 333.93,-374.01 320.26,-386.62"/>
<polygon fill="#63b8ff" stroke="#63b8ff" points="399.93,-338.32 408.43,-332 397.84,-331.64 399.93,-338.32"/>
</a>
</g>
</g>
<!-- Node34&#45;&gt;Node30 -->
<g id="edge53_Node000034_Node000030" class="edge">
<title>Node34&#45;&gt;Node30</title>
<g id="a_edge53_Node000034_Node000030"><a xlink:title=" ">
<path fill="none" stroke="#63b8ff" d="M566.69,-433.5C554.88,-433.5 542.52,-433.5 530.63,-433.5"/>
<polygon fill="#63b8ff" stroke="#63b8ff" points="566.9,-437 576.9,-433.5 566.9,-430 566.9,-437"/>
</a>
</g>
</g>
</g>
</svg>
