<?xml version="1.0" encoding="UTF-8" standalone="no"?>
<!DOCTYPE svg PUBLIC "-//W3C//DTD SVG 1.1//EN"
 "http://www.w3.org/Graphics/SVG/1.1/DTD/svg11.dtd">
<!-- Generated by graphviz version 2.43.0 (0)
 -->
<!-- Title: Parser::parseParameterLine Pages: 1 -->
<svg width="471pt" height="140pt"
 viewBox="0.00 0.00 471.00 140.00" xmlns="http://www.w3.org/2000/svg" xmlns:xlink="http://www.w3.org/1999/xlink">
<g id="graph0" class="graph" transform="scale(1 1) rotate(0) translate(4 136)">
<title>Parser::parseParameterLine</title>
<!-- Node1 -->
<g id="Node000001" class="node">
<title>Node1</title>
<g id="a_Node000001"><a xlink:title="Parses a parameter line: &quot;KeyName, value&quot;.">
<polygon fill="#999999" stroke="#666666" points="150,-75 0,-75 0,-56 150,-56 150,-75"/>
<text text-anchor="middle" x="75" y="-63" font-family="Helvetica,sans-Serif" font-size="10.00">Parser::parseParameterLine</text>
</a>
</g>
</g>
<!-- Node2 -->
<g id="Node000002" class="node">
<title>Node2</title>
<g id="a_Node000002"><a xlink:href="classParser.html#ac9cbf2eac7c906d2da2d95b9c16cc02e" target="_top" xlink:title="Parses a trimmed token as a boolean (0 or 1).">
<polygon fill="white" stroke="#666666" points="311,-132 186,-132 186,-113 311,-113 311,-132"/>
<text text-anchor="middle" x="248.5" y="-120" font-family="Helvetica,sans-Serif" font-size="10.00">Parser::parseBoolField</text>
</a>
</g>
</g>
<!-- Node1&#45;&gt;Node2 -->
<g id="edge1_Node000001_Node000002" class="edge">
<title>Node1&#45;&gt;Node2</title>
<g id="a_edge1_Node000001_Node000002"><a xlink:title=" ">
<path fill="none" stroke="#63b8ff" d="M104.71,-75.04C133.27,-84.53 177.3,-99.17 208.91,-109.67"/>
<polygon fill="#63b8ff" stroke="#63b8ff" points="208.11,-113.1 218.7,-112.93 210.32,-106.45 208.11,-113.1"/>
</a>
</g>
</g>
<!-- Node3 -->
<g id="Node000003" class="node">
<title>Node3</title>
<g id="a_Node000003"><a xlink:href="classParser.html#a54de14fb280b60a07adfbf68c508b767" target="_top" xlink:title="Parses a trimmed token as an integer with error context.">
<polygon fill="white" stroke="#666666" points="463,-113 347,-113 347,-94 463,-94 463,-113"/>
<text text-anchor="middle" x="405" y="-101" font-family="Helvetica,sans-Serif" font-size="10.00">Parser::parseIntField</text>
</a>
</g>
</g>
<!-- Node1&#45;&gt;Node3 -->
<g id="edge3_Node000001_Node000003" class="edge">
<title>Node1&#45;&gt;Node3</title>
<g id="a_edge3_Node000001_Node000003"><a xlink:title=" ">
<path fill="none" stroke="#63b8ff" d="M150.02,-74.08C206.02,-80.56 282.3,-89.4 336.61,-95.69"/>
<polygon fill="#63b8ff" stroke="#63b8ff" points="336.49,-99.2 346.83,-96.88 337.3,-92.25 336.49,-99.2"/>
</a>
</g>
</g>
<!-- Node4 -->
<g id="Node000004" class="node">
<title>Node4</title>
<g id="a_Node000004"><a xlink:href="classParser.html#aacf502fa084a101374bda3681e0d23bb" target="_top" xlink:title="Splits a CSV line by commas, respecting double&#45;quoted fields.">
<polygon fill="white" stroke="#666666" points="295,-56 202,-56 202,-37 295,-37 295,-56"/>
<text text-anchor="middle" x="248.5" y="-44" font-family="Helvetica,sans-Serif" font-size="10.00">Parser::splitCSV</text>
</a>
</g>
</g>
<!-- Node1&#45;&gt;Node4 -->
<g id="edge4_Node000001_Node000004" class="edge">
<title>Node1&#45;&gt;Node4</title>
<g id="a_edge4_Node000001_Node000004"><a xlink:title=" ">
<path fill="none" stroke="#63b8ff" d="M150.22,-57.28C164.08,-55.74 178.35,-54.16 191.54,-52.7"/>
<polygon fill="#63b8ff" stroke="#63b8ff" points="192.31,-56.14 201.86,-51.56 191.54,-49.18 192.31,-56.14"/>
</a>
</g>
</g>
<!-- Node6 -->
<g id="Node000006" class="node">
<title>Node6</title>
<g id="a_Node000006"><a xlink:href="classParser.html#a381845570bc3e8444268d1f0165e5c18" target="_top" xlink:title="Converts a string to lowercase (for case&#45;insensitive comparison).">
<polygon fill="white" stroke="#666666" points="294.5,-19 202.5,-19 202.5,0 294.5,0 294.5,-19"/>
<text text-anchor="middle" x="248.5" y="-7" font-family="Helvetica,sans-Serif" font-size="10.00">Parser::toLower</text>
</a>
</g>
</g>
<!-- Node1&#45;&gt;Node6 -->
<g id="edge6_Node000001_Node000006" class="edge">
<title>Node1&#45;&gt;Node6</title>
<g id="a_edge6_Node000001_Node000006"><a xlink:title=" ">
<path fill="none" stroke="#63b8ff" d="M102.55,-55.93C124.76,-48.02 157.32,-36.65 186,-27.5 191.77,-25.66 197.87,-23.79 203.9,-21.98"/>
<polygon fill="#63b8ff" stroke="#63b8ff" points="205.3,-25.21 213.9,-19.02 203.31,-18.5 205.3,-25.21"/>
</a>
</g>
</g>
<!-- Node2&#45;&gt;Node3 -->
<g id="edge2_Node000002_Node000003" class="edge">
<title>Node2&#45;&gt;Node3</title>
<g id="a_edge2_Node000002_Node000003"><a xlink:title=" ">
<path fill="none" stroke="#63b8ff" d="M311.01,-114.94C319.47,-113.89 328.21,-112.82 336.77,-111.77"/>
<polygon fill="#63b8ff" stroke="#63b8ff" points="337.22,-115.24 346.72,-110.54 336.37,-108.29 337.22,-115.24"/>
</a>
</g>
</g>
<!-- Node5 -->
<g id="Node000005" class="node">
<title>Node5</title>
<g id="a_Node000005"><a xlink:href="classParser.html#a113f0dfba3013e3dade8b717063ad8a0" target="_top" xlink:title="Trims leading and trailing whitespace from a string.">
<polygon fill="white" stroke="#666666" points="441.5,-56 368.5,-56 368.5,-37 441.5,-37 441.5,-56"/>
<text text-anchor="middle" x="405" y="-44" font-family="Helvetica,sans-Serif" font-size="10.00">Parser::trim</text>
</a>
</g>
</g>
<!-- Node4&#45;&gt;Node5 -->
<g id="edge5_Node000004_Node000005" class="edge">
<title>Node4&#45;&gt;Node5</title>
<g id="a_edge5_Node000004_Node000005"><a xlink:title=" ">
<path fill="none" stroke="#63b8ff" d="M295.02,-46.5C314.88,-46.5 338.12,-46.5 358.03,-46.5"/>
<polygon fill="#63b8ff" stroke="#63b8ff" points="358.11,-50 368.11,-46.5 358.11,-43 358.11,-50"/>
</a>
</g>
</g>
</g>
</svg>
