<?xml version="1.0" encoding="UTF-8" standalone="no"?>
<!DOCTYPE svg PUBLIC "-//W3C//DTD SVG 1.1//EN"
 "http://www.w3.org/Graphics/SVG/1.1/DTD/svg11.dtd">
<!-- Generated by graphviz version 2.43.0 (0)
 -->
<!-- Title: OutputWriter::writeRiskToFile Pages: 1 -->
<svg width="393pt" height="64pt"
 viewBox="0.00 0.00 393.00 64.00" xmlns="http://www.w3.org/2000/svg" xmlns:xlink="http://www.w3.org/1999/xlink">
<g id="graph0" class="graph" transform="scale(1 1) rotate(0) translate(4 60)">
<title>OutputWriter::writeRiskToFile</title>
<!-- Node1 -->
<g id="Node000001" class="node">
<title>Node1</title>
<g id="a_Node000001"><a xlink:title="Writes the risk analysis results to a separate file.">
<polygon fill="#999999" stroke="#666666" points="385,-37 226,-37 226,-18 385,-18 385,-37"/>
<text text-anchor="middle" x="305.5" y="-25" font-family="Helvetica,sans-Serif" font-size="10.00">OutputWriter::writeRiskToFile</text>
</a>
</g>
</g>
<!-- Node2 -->
<g id="Node000002" class="node">
<title>Node2</title>
<g id="a_Node000002"><a xlink:href="test__output_8cpp.html#a24a7f840628b276584f7f09649fa5ccb" target="_top" xlink:title=" ">
<polygon fill="white" stroke="#666666" points="189,-56 78,-56 78,-37 189,-37 189,-56"/>
<text text-anchor="middle" x="133.5" y="-44" font-family="Helvetica,sans-Serif" font-size="10.00">test_output_figure4</text>
</a>
</g>
</g>
<!-- Node1&#45;&gt;Node2 -->
<g id="edge1_Node000001_Node000002" class="edge">
<title>Node1&#45;&gt;Node2</title>
<g id="a_edge1_Node000001_Node000002"><a xlink:title=" ">
<path fill="none" stroke="#63b8ff" d="M215.82,-37.41C206.82,-38.42 197.89,-39.42 189.41,-40.36"/>
<polygon fill="#63b8ff" stroke="#63b8ff" points="216.42,-40.87 225.97,-36.28 215.64,-33.91 216.42,-40.87"/>
</a>
</g>
</g>
<!-- Node4 -->
<g id="Node000004" class="node">
<title>Node4</title>
<g id="a_Node000004"><a xlink:href="test__output_8cpp.html#a8907cb43e3cf97150ebba79a523d26cf" target="_top" xlink:title=" ">
<polygon fill="white" stroke="#666666" points="190,-19 77,-19 77,0 190,0 190,-19"/>
<text text-anchor="middle" x="133.5" y="-7" font-family="Helvetica,sans-Serif" font-size="10.00">test_output_no_risk</text>
</a>
</g>
</g>
<!-- Node1&#45;&gt;Node4 -->
<g id="edge3_Node000001_Node000004" class="edge">
<title>Node1&#45;&gt;Node4</title>
<g id="a_edge3_Node000001_Node000004"><a xlink:title=" ">
<path fill="none" stroke="#63b8ff" d="M215.82,-18.11C207.18,-17.2 198.58,-16.29 190.4,-15.42"/>
<polygon fill="#63b8ff" stroke="#63b8ff" points="215.66,-21.61 225.97,-19.18 216.39,-14.65 215.66,-21.61"/>
</a>
</g>
</g>
<!-- Node3 -->
<g id="Node000003" class="node">
<title>Node3</title>
<g id="a_Node000003"><a xlink:href="test__output_8cpp.html#ae66f6b31b5ad750f1fe042a706a4e3d4" target="_top" xlink:title=" ">
<polygon fill="white" stroke="#666666" points="41,-37 0,-37 0,-18 41,-18 41,-37"/>
<text text-anchor="middle" x="20.5" y="-25" font-family="Helvetica,sans-Serif" font-size="10.00">main</text>
</a>
</g>
</g>
<!-- Node2&#45;&gt;Node3 -->
<g id="edge2_Node000002_Node000003" class="edge">
<title>Node2&#45;&gt;Node3</title>
<g id="a_edge2_Node000002_Node000003"><a xlink:title=" ">
<path fill="none" stroke="#63b8ff" d="M67.83,-35.43C58.19,-33.78 48.92,-32.19 41.24,-30.88"/>
<polygon fill="#63b8ff" stroke="#63b8ff" points="67.53,-38.93 77.98,-37.17 68.71,-32.03 67.53,-38.93"/>
</a>
</g>
</g>
<!-- Node4&#45;&gt;Node3 -->
<g id="edge4_Node000004_Node000003" class="edge">
<title>Node4&#45;&gt;Node3</title>
<g id="a_edge4_Node000004_Node000003"><a xlink:title=" ">
<path fill="none" stroke="#63b8ff" d="M66.58,-20.19C57.37,-21.68 48.56,-23.11 41.21,-24.3"/>
<polygon fill="#63b8ff" stroke="#63b8ff" points="67.36,-23.61 76.67,-18.55 66.24,-16.7 67.36,-23.61"/>
</a>
</g>
</g>
</g>
</svg>
