<?xml version="1.0" encoding="UTF-8" standalone="no"?>
<!DOCTYPE svg PUBLIC "-//W3C//DTD SVG 1.1//EN"
 "http://www.w3.org/Graphics/SVG/1.1/DTD/svg11.dtd">
<!-- Generated by graphviz version 2.43.0 (0)
 -->
<!-- Title: OutputWriter::writeToFile Pages: 1 -->
<svg width="392pt" height="212pt"
 viewBox="0.00 0.00 392.00 212.00" xmlns="http://www.w3.org/2000/svg" xmlns:xlink="http://www.w3.org/1999/xlink">
<g id="graph0" class="graph" transform="scale(1 1) rotate(0) translate(4 208)">
<title>OutputWriter::writeToFile</title>
<!-- Node1 -->
<g id="Node000001" class="node">
<title>Node1</title>
<g id="a_Node000001"><a xlink:title="Writes the complete assignment output to a file.">
<polygon fill="#999999" stroke="#666666" points="384,-111 246,-111 246,-92 384,-92 384,-111"/>
<text text-anchor="middle" x="315" y="-99" font-family="Helvetica,sans-Serif" font-size="10.00">OutputWriter::writeToFile</text>
</a>
</g>
</g>
<!-- Node2 -->
<g id="Node000002" class="node">
<title>Node2</title>
<g id="a_Node000002"><a xlink:href="main_8cpp.html#adccc9f5ff7d7a84b4f757ddc2e00c25b" target="_top" xlink:title="Executes the program in batch mode.">
<polygon fill="white" stroke="#666666" points="173.5,-204 113.5,-204 113.5,-185 173.5,-185 173.5,-204"/>
<text text-anchor="middle" x="143.5" y="-192" font-family="Helvetica,sans-Serif" font-size="10.00">runBatch</text>
</a>
</g>
</g>
<!-- Node1&#45;&gt;Node2 -->
<g id="edge1_Node000001_Node000002" class="edge">
<title>Node1&#45;&gt;Node2</title>
<g id="a_edge1_Node000001_Node000002"><a xlink:title=" ">
<path fill="none" stroke="#63b8ff" d="M295.66,-117.88C275.84,-134.79 242.68,-160.86 210,-176.5 198.62,-181.95 185.31,-185.99 173.67,-188.84"/>
<polygon fill="#63b8ff" stroke="#63b8ff" points="298.04,-120.44 303.3,-111.25 293.46,-115.16 298.04,-120.44"/>
</a>
</g>
</g>
<!-- Node4 -->
<g id="Node000004" class="node">
<title>Node4</title>
<g id="a_Node000004"><a xlink:href="main_8cpp.html#aef0bcc404dd408e438ce7fa09e4ea3f7" target="_top" xlink:title="Executes the program in interactive mode.">
<polygon fill="white" stroke="#666666" points="186,-167 101,-167 101,-148 186,-148 186,-167"/>
<text text-anchor="middle" x="143.5" y="-155" font-family="Helvetica,sans-Serif" font-size="10.00">runInteractive</text>
</a>
</g>
</g>
<!-- Node1&#45;&gt;Node4 -->
<g id="edge3_Node000001_Node000004" class="edge">
<title>Node1&#45;&gt;Node4</title>
<g id="a_edge3_Node000001_Node000004"><a xlink:title=" ">
<path fill="none" stroke="#63b8ff" d="M280.01,-114.72C259.81,-122.38 233.6,-131.96 210,-139.5 200.79,-142.44 190.76,-145.35 181.38,-147.94"/>
<polygon fill="#63b8ff" stroke="#63b8ff" points="281.31,-117.97 289.4,-111.14 278.81,-111.43 281.31,-117.97"/>
</a>
</g>
</g>
<!-- Node5 -->
<g id="Node000005" class="node">
<title>Node5</title>
<g id="a_Node000005"><a xlink:href="test__output_8cpp.html#ad98b96469ee1c28ab8390957efbc52e5" target="_top" xlink:title=" ">
<polygon fill="white" stroke="#666666" points="210,-130 77,-130 77,-111 210,-111 210,-130"/>
<text text-anchor="middle" x="143.5" y="-118" font-family="Helvetica,sans-Serif" font-size="10.00">test_full_batch_pipeline</text>
</a>
</g>
</g>
<!-- Node1&#45;&gt;Node5 -->
<g id="edge5_Node000001_Node000005" class="edge">
<title>Node1&#45;&gt;Node5</title>
<g id="a_edge5_Node000001_Node000005"><a xlink:title=" ">
<path fill="none" stroke="#63b8ff" d="M235.34,-110.32C226.93,-111.26 218.43,-112.21 210.19,-113.14"/>
<polygon fill="#63b8ff" stroke="#63b8ff" points="236,-113.77 245.55,-109.17 235.22,-106.81 236,-113.77"/>
</a>
</g>
</g>
<!-- Node7 -->
<g id="Node000007" class="node">
<title>Node7</title>
<g id="a_Node000007"><a xlink:href="test__output_8cpp.html#ae22f862265d01c0acb3649c247f4a726" target="_top" xlink:title=" ">
<polygon fill="white" stroke="#666666" points="199,-93 88,-93 88,-74 199,-74 199,-93"/>
<text text-anchor="middle" x="143.5" y="-81" font-family="Helvetica,sans-Serif" font-size="10.00">test_output_figure2</text>
</a>
</g>
</g>
<!-- Node1&#45;&gt;Node7 -->
<g id="edge7_Node000001_Node000007" class="edge">
<title>Node1&#45;&gt;Node7</title>
<g id="a_edge7_Node000001_Node000007"><a xlink:title=" ">
<path fill="none" stroke="#63b8ff" d="M235.33,-93.15C223.1,-91.85 210.69,-90.53 199.14,-89.3"/>
<polygon fill="#63b8ff" stroke="#63b8ff" points="235.23,-96.65 245.55,-94.23 235.97,-89.69 235.23,-96.65"/>
</a>
</g>
</g>
<!-- Node8 -->
<g id="Node000008" class="node">
<title>Node8</title>
<g id="a_Node000008"><a xlink:href="test__output_8cpp.html#a998d4d57520dc3729aada36d40d97db9" target="_top" xlink:title=" ">
<polygon fill="white" stroke="#666666" points="199,-56 88,-56 88,-37 199,-37 199,-56"/>
<text text-anchor="middle" x="143.5" y="-44" font-family="Helvetica,sans-Serif" font-size="10.00">test_output_figure3</text>
</a>
</g>
</g>
<!-- Node1&#45;&gt;Node8 -->
<g id="edge9_Node000001_Node000008" class="edge">
<title>Node1&#45;&gt;Node8</title>
<g id="a_edge9_Node000001_Node000008"><a xlink:title=" ">
<path fill="none" stroke="#63b8ff" d="M278,-88.53C258.05,-81.47 232.74,-72.73 210,-65.5 199.84,-62.27 188.73,-58.96 178.6,-56.03"/>
<polygon fill="#63b8ff" stroke="#63b8ff" points="277.03,-91.9 287.62,-91.95 279.37,-85.31 277.03,-91.9"/>
</a>
</g>
</g>
<!-- Node9 -->
<g id="Node000009" class="node">
<title>Node9</title>
<g id="a_Node000009"><a xlink:href="test__output_8cpp.html#aaa716ae6efa6c8bef11ea699a4be56d2" target="_top" xlink:title=" ">
<polygon fill="white" stroke="#666666" points="197.5,-19 89.5,-19 89.5,0 197.5,0 197.5,-19"/>
<text text-anchor="middle" x="143.5" y="-7" font-family="Helvetica,sans-Serif" font-size="10.00">test_output_sorted</text>
</a>
</g>
</g>
<!-- Node1&#45;&gt;Node9 -->
<g id="edge11_Node000001_Node000009" class="edge">
<title>Node1&#45;&gt;Node9</title>
<g id="a_edge11_Node000001_Node000009"><a xlink:title=" ">
<path fill="none" stroke="#63b8ff" d="M295.22,-85.41C275.26,-69.04 242.2,-43.94 210,-28.5 202.21,-24.76 193.53,-21.61 185.11,-19.02"/>
<polygon fill="#63b8ff" stroke="#63b8ff" points="293.01,-88.13 302.93,-91.84 297.49,-82.75 293.01,-88.13"/>
</a>
</g>
</g>
<!-- Node3 -->
<g id="Node000003" class="node">
<title>Node3</title>
<g id="a_Node000003"><a xlink:href="main_8cpp.html#a0ddf1224851353fc92bfbff6f499fa97" target="_top" xlink:title="Program entry point.">
<polygon fill="white" stroke="#666666" points="41,-185 0,-185 0,-166 41,-166 41,-185"/>
<text text-anchor="middle" x="20.5" y="-173" font-family="Helvetica,sans-Serif" font-size="10.00">main</text>
</a>
</g>
</g>
<!-- Node2&#45;&gt;Node3 -->
<g id="edge2_Node000002_Node000003" class="edge">
<title>Node2&#45;&gt;Node3</title>
<g id="a_edge2_Node000002_Node000003"><a xlink:title=" ">
<path fill="none" stroke="#63b8ff" d="M103.07,-188.31C82.31,-185.05 57.78,-181.2 41.08,-178.57"/>
<polygon fill="#63b8ff" stroke="#63b8ff" points="102.79,-191.81 113.21,-189.9 103.87,-184.89 102.79,-191.81"/>
</a>
</g>
</g>
<!-- Node4&#45;&gt;Node3 -->
<g id="edge4_Node000004_Node000003" class="edge">
<title>Node4&#45;&gt;Node3</title>
<g id="a_edge4_Node000004_Node000003"><a xlink:title=" ">
<path fill="none" stroke="#63b8ff" d="M90.69,-165.21C73.15,-167.82 54.62,-170.57 41.15,-172.58"/>
<polygon fill="#63b8ff" stroke="#63b8ff" points="91.48,-168.63 100.86,-163.69 90.45,-161.7 91.48,-168.63"/>
</a>
</g>
</g>
<!-- Node6 -->
<g id="Node000006" class="node">
<title>Node6</title>
<g id="a_Node000006"><a xlink:href="test__output_8cpp.html#ae66f6b31b5ad750f1fe042a706a4e3d4" target="_top" xlink:title=" ">
<polygon fill="white" stroke="#666666" points="41,-75 0,-75 0,-56 41,-56 41,-75"/>
<text text-anchor="middle" x="20.5" y="-63" font-family="Helvetica,sans-Serif" font-size="10.00">main</text>
</a>
</g>
</g>
<!-- Node5&#45;&gt;Node6 -->
<g id="edge6_Node000005_Node000006" class="edge">
<title>Node5&#45;&gt;Node6</title>
<g id="a_edge6_Node000005_Node000006"><a xlink:title=" ">
<path fill="none" stroke="#63b8ff" d="M90.02,-107.71C85.55,-106.13 81.16,-104.4 77,-102.5 60.99,-95.19 44.42,-83.52 33.61,-75.24"/>
<polygon fill="#63b8ff" stroke="#63b8ff" points="89.27,-111.15 99.87,-110.92 91.44,-104.49 89.27,-111.15"/>
</a>
</g>
</g>
<!-- Node7&#45;&gt;Node6 -->
<g id="edge8_Node000007_Node000006" class="edge">
<title>Node7&#45;&gt;Node6</title>
<g id="a_edge8_Node000007_Node000006"><a xlink:title=" ">
<path fill="none" stroke="#63b8ff" d="M77.5,-73.83C64.23,-71.86 51.24,-69.92 41.13,-68.42"/>
<polygon fill="#63b8ff" stroke="#63b8ff" points="77.26,-77.33 87.66,-75.34 78.29,-70.41 77.26,-77.33"/>
</a>
</g>
</g>
<!-- Node8&#45;&gt;Node6 -->
<g id="edge10_Node000008_Node000006" class="edge">
<title>Node8&#45;&gt;Node6</title>
<g id="a_edge10_Node000008_Node000006"><a xlink:title=" ">
<path fill="none" stroke="#63b8ff" d="M77.5,-56.71C64.23,-58.79 51.24,-60.83 41.13,-62.42"/>
<polygon fill="#63b8ff" stroke="#63b8ff" points="78.33,-60.12 87.66,-55.11 77.24,-53.2 78.33,-60.12"/>
</a>
</g>
</g>
<!-- Node9&#45;&gt;Node6 -->
<g id="edge12_Node000009_Node000006" class="edge">
<title>Node9&#45;&gt;Node6</title>
<g id="a_edge12_Node000009_Node000006"><a xlink:title=" ">
<path fill="none" stroke="#63b8ff" d="M92.64,-22.21C87.28,-24.1 81.97,-26.19 77,-28.5 61.04,-35.92 44.47,-47.57 33.63,-55.82"/>
<polygon fill="#63b8ff" stroke="#63b8ff" points="93.89,-25.49 102.3,-19.05 91.71,-18.84 93.89,-25.49"/>
</a>
</g>
</g>
</g>
</svg>
