<?xml version="1.0" encoding="UTF-8" standalone="no"?>
<!DOCTYPE svg PUBLIC "-//W3C//DTD SVG 1.1//EN"
 "http://www.w3.org/Graphics/SVG/1.1/DTD/svg11.dtd">
<!-- Generated by graphviz version 2.43.0 (0)
 -->
<!-- Title: Graph::bfs Pages: 1 -->
<svg width="698pt" height="919pt"
 viewBox="0.00 0.00 698.00 919.41" xmlns="http://www.w3.org/2000/svg" xmlns:xlink="http://www.w3.org/1999/xlink">
<g id="graph0" class="graph" transform="scale(1 1) rotate(0) translate(4 915.41)">
<title>Graph::bfs</title>
<!-- Node1 -->
<g id="Node000001" class="node">
<title>Node1</title>
<g id="a_Node000001"><a xlink:title="BFS on the residual graph to find the shortest augmenting path.">
<polygon fill="#999999" stroke="#666666" points="690,-127.41 623,-127.41 623,-108.41 690,-108.41 690,-127.41"/>
<text text-anchor="middle" x="656.5" y="-115.41" font-family="Helvetica,sans-Serif" font-size="10.00">Graph::bfs</text>
</a>
</g>
</g>
<!-- Node2 -->
<g id="Node000002" class="node">
<title>Node2</title>
<g id="a_Node000002"><a xlink:href="classGraph.html#afd2749a1cd58db2d3b6fa6eef639399c" target="_top" xlink:title="Computes the maximum flow from source to sink using Edmonds&#45;Karp.">
<polygon fill="white" stroke="#666666" points="587,-127.41 468,-127.41 468,-108.41 587,-108.41 587,-127.41"/>
<text text-anchor="middle" x="527.5" y="-115.41" font-family="Helvetica,sans-Serif" font-size="10.00">Graph::edmondsKarp</text>
</a>
</g>
</g>
<!-- Node1&#45;&gt;Node2 -->
<g id="edge1_Node000001_Node000002" class="edge">
<title>Node1&#45;&gt;Node2</title>
<g id="a_edge1_Node000001_Node000002"><a xlink:title=" ">
<path fill="none" stroke="#63b8ff" d="M612.73,-117.91C604.54,-117.91 595.82,-117.91 587.22,-117.91"/>
<polygon fill="#63b8ff" stroke="#63b8ff" points="612.79,-121.41 622.79,-117.91 612.79,-114.41 612.79,-121.41"/>
</a>
</g>
</g>
<!-- Node3 -->
<g id="Node000003" class="node">
<title>Node3</title>
<g id="a_Node000003"><a xlink:href="classSolver.html#a845e12dc97a5d14a365b1e3001aba114" target="_top" xlink:title="Solves the assignment problem for the given data.">
<polygon fill="white" stroke="#666666" points="390,-436.41 310,-436.41 310,-417.41 390,-417.41 390,-436.41"/>
<text text-anchor="middle" x="350" y="-424.41" font-family="Helvetica,sans-Serif" font-size="10.00">Solver::solve</text>
</a>
</g>
</g>
<!-- Node2&#45;&gt;Node3 -->
<g id="edge2_Node000002_Node000003" class="edge">
<title>Node2&#45;&gt;Node3</title>
<g id="a_edge2_Node000002_Node000003"><a xlink:title=" ">
<path fill="none" stroke="#63b8ff" d="M516.03,-136.34C482.96,-194.57 381.45,-373.3 356.56,-417.13"/>
<polygon fill="#63b8ff" stroke="#63b8ff" points="519.16,-137.92 521.06,-127.5 513.07,-134.46 519.16,-137.92"/>
</a>
</g>
</g>
<!-- Node22 -->
<g id="Node000022" class="node">
<title>Node22</title>
<g id="a_Node000022"><a xlink:href="classSolver.html#ae2ca491c309b717821844e7f2a9ea629" target="_top" xlink:title="Performs Risk Analysis with parameter K = 1.">
<polygon fill="white" stroke="#666666" points="432,-726.41 268,-726.41 268,-707.41 432,-707.41 432,-726.41"/>
<text text-anchor="middle" x="350" y="-714.41" font-family="Helvetica,sans-Serif" font-size="10.00">Solver::solveWithRiskAnalysis</text>
</a>
</g>
</g>
<!-- Node2&#45;&gt;Node22 -->
<g id="edge33_Node000002_Node000022" class="edge">
<title>Node2&#45;&gt;Node22</title>
<g id="a_edge33_Node000002_Node000022"><a xlink:title=" ">
<path fill="none" stroke="#63b8ff" d="M521.01,-137.23C506.58,-187.91 466.36,-328.84 432,-445.91 401.99,-548.16 364.66,-671.78 353.98,-707.08"/>
<polygon fill="#63b8ff" stroke="#63b8ff" points="524.38,-138.16 523.75,-127.58 517.65,-136.24 524.38,-138.16"/>
</a>
</g>
</g>
<!-- Node28 -->
<g id="Node000028" class="node">
<title>Node28</title>
<g id="a_Node000028"><a xlink:href="test__graph_8cpp.html#aa9fe2d4f80ec700f036c99c45dbcb44a" target="_top" xlink:title=" ">
<polygon fill="white" stroke="#666666" points="391.5,-146.41 308.5,-146.41 308.5,-127.41 391.5,-127.41 391.5,-146.41"/>
<text text-anchor="middle" x="350" y="-134.41" font-family="Helvetica,sans-Serif" font-size="10.00">test_ek_basic</text>
</a>
</g>
</g>
<!-- Node2&#45;&gt;Node28 -->
<g id="edge46_Node000002_Node000028" class="edge">
<title>Node2&#45;&gt;Node28</title>
<g id="a_edge46_Node000002_Node000028"><a xlink:title=" ">
<path fill="none" stroke="#63b8ff" d="M457.45,-125.39C435.11,-127.81 411.08,-130.41 391.51,-132.53"/>
<polygon fill="#63b8ff" stroke="#63b8ff" points="458.01,-128.85 467.57,-124.29 457.25,-121.89 458.01,-128.85"/>
</a>
</g>
</g>
<!-- Node29 -->
<g id="Node000029" class="node">
<title>Node29</title>
<g id="a_Node000029"><a xlink:href="test__graph_8cpp.html#a7668801ef66019ab48870e268cae0ac7" target="_top" xlink:title=" ">
<polygon fill="white" stroke="#666666" points="399.5,-108.41 300.5,-108.41 300.5,-89.41 399.5,-89.41 399.5,-108.41"/>
<text text-anchor="middle" x="350" y="-96.41" font-family="Helvetica,sans-Serif" font-size="10.00">test_ek_bipartite</text>
</a>
</g>
</g>
<!-- Node2&#45;&gt;Node29 -->
<g id="edge48_Node000002_Node000029" class="edge">
<title>Node2&#45;&gt;Node29</title>
<g id="a_edge48_Node000002_Node000029"><a xlink:title=" ">
<path fill="none" stroke="#63b8ff" d="M457.57,-110.45C438.17,-108.35 417.49,-106.11 399.55,-104.17"/>
<polygon fill="#63b8ff" stroke="#63b8ff" points="457.25,-113.94 467.57,-111.53 458.01,-106.98 457.25,-113.94"/>
</a>
</g>
</g>
<!-- Node30 -->
<g id="Node000030" class="node">
<title>Node30</title>
<g id="a_Node000030"><a xlink:href="test__graph_8cpp.html#ae09ac815063f93051d90ba341c587e64" target="_top" xlink:title=" ">
<polygon fill="white" stroke="#666666" points="411,-71.41 289,-71.41 289,-52.41 411,-52.41 411,-71.41"/>
<text text-anchor="middle" x="350" y="-59.41" font-family="Helvetica,sans-Serif" font-size="10.00">test_ek_disconnected</text>
</a>
</g>
</g>
<!-- Node2&#45;&gt;Node30 -->
<g id="edge50_Node000002_Node000030" class="edge">
<title>Node2&#45;&gt;Node30</title>
<g id="a_edge50_Node000002_Node000030"><a xlink:title=" ">
<path fill="none" stroke="#63b8ff" d="M495.4,-104.44C477.16,-96.86 453.53,-87.61 432,-80.91 420.69,-77.39 408.32,-74.18 396.72,-71.43"/>
<polygon fill="#63b8ff" stroke="#63b8ff" points="494.09,-107.69 504.67,-108.34 496.81,-101.23 494.09,-107.69"/>
</a>
</g>
</g>
<!-- Node31 -->
<g id="Node000031" class="node">
<title>Node31</title>
<g id="a_Node000031"><a xlink:href="test__graph_8cpp.html#af8e0237822a4d1632dc6060f21216b46" target="_top" xlink:title=" ">
<polygon fill="white" stroke="#666666" points="391.5,-33.41 308.5,-33.41 308.5,-14.41 391.5,-14.41 391.5,-33.41"/>
<text text-anchor="middle" x="350" y="-21.41" font-family="Helvetica,sans-Serif" font-size="10.00">test_ek_reset</text>
</a>
</g>
</g>
<!-- Node2&#45;&gt;Node31 -->
<g id="edge52_Node000002_Node000031" class="edge">
<title>Node2&#45;&gt;Node31</title>
<g id="a_edge52_Node000002_Node000031"><a xlink:title=" ">
<path fill="none" stroke="#63b8ff" d="M510.04,-101.03C492.33,-83.85 462.58,-57.7 432,-42.91 419.52,-36.87 405.01,-32.69 391.74,-29.82"/>
<polygon fill="#63b8ff" stroke="#63b8ff" points="507.73,-103.66 517.29,-108.22 512.65,-98.69 507.73,-103.66"/>
</a>
</g>
</g>
<!-- Node4 -->
<g id="Node000004" class="node">
<title>Node4</title>
<g id="a_Node000004"><a xlink:href="main_8cpp.html#adccc9f5ff7d7a84b4f757ddc2e00c25b" target="_top" xlink:title="Executes the program in batch mode.">
<polygon fill="white" stroke="#666666" points="184.5,-615.41 124.5,-615.41 124.5,-596.41 184.5,-596.41 184.5,-615.41"/>
<text text-anchor="middle" x="154.5" y="-603.41" font-family="Helvetica,sans-Serif" font-size="10.00">runBatch</text>
</a>
</g>
</g>
<!-- Node3&#45;&gt;Node4 -->
<g id="edge3_Node000003_Node000004" class="edge">
<title>Node3&#45;&gt;Node4</title>
<g id="a_edge3_Node000003_Node000004"><a xlink:title=" ">
<path fill="none" stroke="#63b8ff" d="M340.58,-445.9C324.56,-479.75 286.37,-550.4 232,-586.91 218.03,-596.3 199.82,-601.05 184.68,-603.45"/>
<polygon fill="#63b8ff" stroke="#63b8ff" points="343.84,-447.2 344.84,-436.65 337.48,-444.27 343.84,-447.2"/>
</a>
</g>
</g>
<!-- Node6 -->
<g id="Node000006" class="node">
<title>Node6</title>
<g id="a_Node000006"><a xlink:href="main_8cpp.html#aef0bcc404dd408e438ce7fa09e4ea3f7" target="_top" xlink:title="Executes the program in interactive mode.">
<polygon fill="white" stroke="#666666" points="197,-652.41 112,-652.41 112,-633.41 197,-633.41 197,-652.41"/>
<text text-anchor="middle" x="154.5" y="-640.41" font-family="Helvetica,sans-Serif" font-size="10.00">runInteractive</text>
</a>
</g>
</g>
<!-- Node3&#45;&gt;Node6 -->
<g id="edge5_Node000003_Node000006" class="edge">
<title>Node3&#45;&gt;Node6</title>
<g id="a_edge5_Node000003_Node000006"><a xlink:title=" ">
<path fill="none" stroke="#63b8ff" d="M343.31,-446.22C330.47,-486.23 295.35,-578.32 232,-624.91 221.89,-632.35 209.16,-636.76 197.01,-639.37"/>
<polygon fill="#63b8ff" stroke="#63b8ff" points="346.67,-447.19 346.28,-436.61 339.98,-445.13 346.67,-447.19"/>
</a>
</g>
</g>
<!-- Node7 -->
<g id="Node000007" class="node">
<title>Node7</title>
<g id="a_Node000007"><a xlink:href="test__graph_8cpp.html#aabe34e3298f44b2a590c5785cfb187e8" target="_top" xlink:title=" ">
<polygon fill="white" stroke="#666666" points="211.5,-343.91 97.5,-343.91 97.5,-313.91 211.5,-313.91 211.5,-343.91"/>
<text text-anchor="start" x="105.5" y="-331.91" font-family="Helvetica,sans-Serif" font-size="10.00">test_corner_maxrev</text>
<text text-anchor="middle" x="154.5" y="-320.91" font-family="Helvetica,sans-Serif" font-size="10.00">_bottleneck</text>
</a>
</g>
</g>
<!-- Node3&#45;&gt;Node7 -->
<g id="edge7_Node000003_Node000007" class="edge">
<title>Node3&#45;&gt;Node7</title>
<g id="a_edge7_Node000003_Node000007"><a xlink:title=" ">
<path fill="none" stroke="#63b8ff" d="M327.66,-411.38C304.86,-395.33 267.24,-370.37 232,-353.91 224.28,-350.31 215.89,-347 207.6,-344.05"/>
<polygon fill="#63b8ff" stroke="#63b8ff" points="325.74,-414.31 335.91,-417.26 329.8,-408.61 325.74,-414.31"/>
</a>
</g>
</g>
<!-- Node9 -->
<g id="Node000009" class="node">
<title>Node9</title>
<g id="a_Node000009"><a xlink:href="test__graph_8cpp.html#afb6fc70c45804d5516d4936ec4115cd1" target="_top" xlink:title=" ">
<polygon fill="white" stroke="#666666" points="225.5,-295.41 83.5,-295.41 83.5,-276.41 225.5,-276.41 225.5,-295.41"/>
<text text-anchor="middle" x="154.5" y="-283.41" font-family="Helvetica,sans-Serif" font-size="10.00">test_corner_no_reviewers</text>
</a>
</g>
</g>
<!-- Node3&#45;&gt;Node9 -->
<g id="edge9_Node000003_Node000009" class="edge">
<title>Node3&#45;&gt;Node9</title>
<g id="a_edge9_Node000003_Node000009"><a xlink:title=" ">
<path fill="none" stroke="#63b8ff" d="M336.78,-408.75C317.68,-381.82 278.12,-331.62 232,-304.91 225.25,-301 217.71,-297.89 210.07,-295.42"/>
<polygon fill="#63b8ff" stroke="#63b8ff" points="334.09,-411.01 342.66,-417.23 339.84,-407.02 334.09,-411.01"/>
</a>
</g>
</g>
<!-- Node10 -->
<g id="Node000010" class="node">
<title>Node10</title>
<g id="a_Node000010"><a xlink:href="test__graph_8cpp.html#acdaff2524640ac8e6e9644e7106b04ba" target="_top" xlink:title=" ">
<polygon fill="white" stroke="#666666" points="232,-258.41 77,-258.41 77,-239.41 232,-239.41 232,-258.41"/>
<text text-anchor="middle" x="154.5" y="-246.41" font-family="Helvetica,sans-Serif" font-size="10.00">test_corner_no_submissions</text>
</a>
</g>
</g>
<!-- Node3&#45;&gt;Node10 -->
<g id="edge11_Node000003_Node000010" class="edge">
<title>Node3&#45;&gt;Node10</title>
<g id="a_edge11_Node000003_Node000010"><a xlink:title=" ">
<path fill="none" stroke="#63b8ff" d="M340.55,-408.05C324.48,-374.4 286.2,-304.2 232,-267.91 226.2,-264.03 219.68,-260.94 212.94,-258.48"/>
<polygon fill="#63b8ff" stroke="#63b8ff" points="337.43,-409.64 344.82,-417.23 343.78,-406.69 337.43,-409.64"/>
</a>
</g>
</g>
<!-- Node11 -->
<g id="Node000011" class="node">
<title>Node11</title>
<g id="a_Node000011"><a xlink:href="test__graph_8cpp.html#ae160a573baa527c8e420eddbce3cab30" target="_top" xlink:title=" ">
<polygon fill="white" stroke="#666666" points="212,-221.41 97,-221.41 97,-202.41 212,-202.41 212,-221.41"/>
<text text-anchor="middle" x="154.5" y="-209.41" font-family="Helvetica,sans-Serif" font-size="10.00">test_full_integration</text>
</a>
</g>
</g>
<!-- Node3&#45;&gt;Node11 -->
<g id="edge13_Node000003_Node000011" class="edge">
<title>Node3&#45;&gt;Node11</title>
<g id="a_edge13_Node000003_Node000011"><a xlink:title=" ">
<path fill="none" stroke="#63b8ff" d="M343.12,-407.6C330.02,-367.97 294.56,-277.3 232,-230.91 226.06,-226.51 219.23,-223.12 212.14,-220.51"/>
<polygon fill="#63b8ff" stroke="#63b8ff" points="339.85,-408.88 346.22,-417.34 346.52,-406.75 339.85,-408.88"/>
</a>
</g>
</g>
<!-- Node12 -->
<g id="Node000012" class="node">
<title>Node12</title>
<g id="a_Node000012"><a xlink:href="test__output_8cpp.html#ae22f862265d01c0acb3649c247f4a726" target="_top" xlink:title=" ">
<polygon fill="white" stroke="#666666" points="210,-763.41 99,-763.41 99,-744.41 210,-744.41 210,-763.41"/>
<text text-anchor="middle" x="154.5" y="-751.41" font-family="Helvetica,sans-Serif" font-size="10.00">test_output_figure2</text>
</a>
</g>
</g>
<!-- Node3&#45;&gt;Node12 -->
<g id="edge15_Node000003_Node000012" class="edge">
<title>Node3&#45;&gt;Node12</title>
<g id="a_edge15_Node000003_Node000012"><a xlink:title=" ">
<path fill="none" stroke="#63b8ff" d="M347.71,-446.61C343.01,-501.44 321.99,-656.99 232,-735.91 225.74,-741.4 218.12,-745.29 210.15,-748.04"/>
<polygon fill="#63b8ff" stroke="#63b8ff" points="351.21,-446.74 348.48,-436.5 344.23,-446.2 351.21,-446.74"/>
</a>
</g>
</g>
<!-- Node14 -->
<g id="Node000014" class="node">
<title>Node14</title>
<g id="a_Node000014"><a xlink:href="test__output_8cpp.html#a998d4d57520dc3729aada36d40d97db9" target="_top" xlink:title=" ">
<polygon fill="white" stroke="#666666" points="210,-726.41 99,-726.41 99,-707.41 210,-707.41 210,-726.41"/>
<text text-anchor="middle" x="154.5" y="-714.41" font-family="Helvetica,sans-Serif" font-size="10.00">test_output_figure3</text>
</a>
</g>
</g>
<!-- Node3&#45;&gt;Node14 -->
<g id="edge17_Node000003_Node000014" class="edge">
<title>Node3&#45;&gt;Node14</title>
<g id="a_edge17_Node000003_Node000014"><a xlink:title=" ">
<path fill="none" stroke="#63b8ff" d="M346.59,-446.57C339.33,-496.87 312.94,-631.03 232,-698.91 225.73,-704.17 218.19,-707.95 210.33,-710.66"/>
<polygon fill="#63b8ff" stroke="#63b8ff" points="350.09,-446.79 347.95,-436.41 343.15,-445.86 350.09,-446.79"/>
</a>
</g>
</g>
<!-- Node15 -->
<g id="Node000015" class="node">
<title>Node15</title>
<g id="a_Node000015"><a xlink:href="test__output_8cpp.html#aaa716ae6efa6c8bef11ea699a4be56d2" target="_top" xlink:title=" ">
<polygon fill="white" stroke="#666666" points="208.5,-689.41 100.5,-689.41 100.5,-670.41 208.5,-670.41 208.5,-689.41"/>
<text text-anchor="middle" x="154.5" y="-677.41" font-family="Helvetica,sans-Serif" font-size="10.00">test_output_sorted</text>
</a>
</g>
</g>
<!-- Node3&#45;&gt;Node15 -->
<g id="edge19_Node000003_Node000015" class="edge">
<title>Node3&#45;&gt;Node15</title>
<g id="a_edge19_Node000003_Node000015"><a xlink:title=" ">
<path fill="none" stroke="#63b8ff" d="M345.12,-446.65C335.1,-492.16 303.95,-604.92 232,-661.91 225.26,-667.25 217.21,-671.05 208.89,-673.75"/>
<polygon fill="#63b8ff" stroke="#63b8ff" points="348.55,-447.34 347.18,-436.83 341.7,-445.9 348.55,-447.34"/>
</a>
</g>
</g>
<!-- Node16 -->
<g id="Node000016" class="node">
<title>Node16</title>
<g id="a_Node000016"><a xlink:href="test__graph_8cpp.html#a2bd07a82f32ec21b6fa28a86ee9bf941" target="_top" xlink:title=" ">
<polygon fill="white" stroke="#666666" points="218,-184.41 91,-184.41 91,-165.41 218,-165.41 218,-184.41"/>
<text text-anchor="middle" x="154.5" y="-172.41" font-family="Helvetica,sans-Serif" font-size="10.00">test_secondary_match</text>
</a>
</g>
</g>
<!-- Node3&#45;&gt;Node16 -->
<g id="edge21_Node000003_Node000016" class="edge">
<title>Node3&#45;&gt;Node16</title>
<g id="a_edge21_Node000003_Node000016"><a xlink:title=" ">
<path fill="none" stroke="#63b8ff" d="M344.95,-407.11C334.65,-361.93 303.05,-250.72 232,-193.91 227.19,-190.07 221.71,-186.99 215.94,-184.52"/>
<polygon fill="#63b8ff" stroke="#63b8ff" points="341.58,-408.08 347.13,-417.11 348.42,-406.59 341.58,-408.08"/>
</a>
</g>
</g>
<!-- Node17 -->
<g id="Node000017" class="node">
<title>Node17</title>
<g id="a_Node000017"><a xlink:href="test__graph_8cpp.html#a0b2b929f3f92ed72ebb706539ba28f72" target="_top" xlink:title=" ">
<polygon fill="white" stroke="#666666" points="209.5,-529.41 99.5,-529.41 99.5,-510.41 209.5,-510.41 209.5,-529.41"/>
<text text-anchor="middle" x="154.5" y="-517.41" font-family="Helvetica,sans-Serif" font-size="10.00">test_solver_figure1</text>
</a>
</g>
</g>
<!-- Node3&#45;&gt;Node17 -->
<g id="edge23_Node000003_Node000017" class="edge">
<title>Node3&#45;&gt;Node17</title>
<g id="a_edge23_Node000003_Node000017"><a xlink:title=" ">
<path fill="none" stroke="#63b8ff" d="M329.09,-442.69C306.71,-459.69 268.68,-486.38 232,-501.91 224.08,-505.26 215.43,-508.06 206.88,-510.36"/>
<polygon fill="#63b8ff" stroke="#63b8ff" points="331.36,-445.36 337.14,-436.49 327.08,-439.82 331.36,-445.36"/>
</a>
</g>
</g>
<!-- Node18 -->
<g id="Node000018" class="node">
<title>Node18</title>
<g id="a_Node000018"><a xlink:href="test__graph_8cpp.html#ae08b5e2d9ec151376641907871fb6d1a" target="_top" xlink:title=" ">
<polygon fill="white" stroke="#666666" points="212.5,-492.41 96.5,-492.41 96.5,-473.41 212.5,-473.41 212.5,-492.41"/>
<text text-anchor="middle" x="154.5" y="-480.41" font-family="Helvetica,sans-Serif" font-size="10.00">test_solver_minrev2</text>
</a>
</g>
</g>
<!-- Node3&#45;&gt;Node18 -->
<g id="edge25_Node000003_Node000018" class="edge">
<title>Node3&#45;&gt;Node18</title>
<g id="a_edge25_Node000003_Node000018"><a xlink:title=" ">
<path fill="none" stroke="#63b8ff" d="M312.11,-439.76C289.2,-447.53 259.05,-457.35 232,-464.91 221.36,-467.89 209.79,-470.78 198.95,-473.35"/>
<polygon fill="#63b8ff" stroke="#63b8ff" points="313.44,-443.01 321.77,-436.46 311.18,-436.38 313.44,-443.01"/>
</a>
</g>
</g>
<!-- Node19 -->
<g id="Node000019" class="node">
<title>Node19</title>
<g id="a_Node000019"><a xlink:href="test__graph_8cpp.html#ac64ff524d61b175dce290be1685ae797" target="_top" xlink:title=" ">
<polygon fill="white" stroke="#666666" points="226,-455.41 83,-455.41 83,-436.41 226,-436.41 226,-455.41"/>
<text text-anchor="middle" x="154.5" y="-443.41" font-family="Helvetica,sans-Serif" font-size="10.00">test_solver_multi_domain</text>
</a>
</g>
</g>
<!-- Node3&#45;&gt;Node19 -->
<g id="edge27_Node000003_Node000019" class="edge">
<title>Node3&#45;&gt;Node19</title>
<g id="a_edge27_Node000003_Node000019"><a xlink:title=" ">
<path fill="none" stroke="#63b8ff" d="M299.62,-431.76C277.36,-433.95 250.65,-436.57 226.3,-438.96"/>
<polygon fill="#63b8ff" stroke="#63b8ff" points="300.23,-435.22 309.84,-430.76 299.55,-428.25 300.23,-435.22"/>
</a>
</g>
</g>
<!-- Node20 -->
<g id="Node000020" class="node">
<title>Node20</title>
<g id="a_Node000020"><a xlink:href="test__graph_8cpp.html#ad31c62f747c428536c260667126eae66" target="_top" xlink:title=" ">
<polygon fill="white" stroke="#666666" points="208,-418.41 101,-418.41 101,-399.41 208,-399.41 208,-418.41"/>
<text text-anchor="middle" x="154.5" y="-406.41" font-family="Helvetica,sans-Serif" font-size="10.00">test_solver_partial</text>
</a>
</g>
</g>
<!-- Node3&#45;&gt;Node20 -->
<g id="edge29_Node000003_Node000020" class="edge">
<title>Node3&#45;&gt;Node20</title>
<g id="a_edge29_Node000003_Node000020"><a xlink:title=" ">
<path fill="none" stroke="#63b8ff" d="M299.87,-422.34C271.86,-419.74 236.75,-416.47 208.17,-413.81"/>
<polygon fill="#63b8ff" stroke="#63b8ff" points="299.56,-425.83 309.84,-423.27 300.21,-418.86 299.56,-425.83"/>
</a>
</g>
</g>
<!-- Node21 -->
<g id="Node000021" class="node">
<title>Node21</title>
<g id="a_Node000021"><a xlink:href="test__graph_8cpp.html#aca441d5ebe3894bca1449f02e0fd8e48" target="_top" xlink:title=" ">
<polygon fill="white" stroke="#666666" points="189.5,-381.41 119.5,-381.41 119.5,-362.41 189.5,-362.41 189.5,-381.41"/>
<text text-anchor="middle" x="154.5" y="-369.41" font-family="Helvetica,sans-Serif" font-size="10.00">test_stress</text>
</a>
</g>
</g>
<!-- Node3&#45;&gt;Node21 -->
<g id="edge31_Node000003_Node000021" class="edge">
<title>Node3&#45;&gt;Node21</title>
<g id="a_edge31_Node000003_Node000021"><a xlink:title=" ">
<path fill="none" stroke="#63b8ff" d="M309.72,-414.23C287.09,-407.08 258.04,-398.15 232,-390.91 218.29,-387.1 203.09,-383.25 189.88,-380.02"/>
<polygon fill="#63b8ff" stroke="#63b8ff" points="308.73,-417.59 319.32,-417.28 310.85,-410.92 308.73,-417.59"/>
</a>
</g>
</g>
<!-- Node5 -->
<g id="Node000005" class="node">
<title>Node5</title>
<g id="a_Node000005"><a xlink:href="main_8cpp.html#a0ddf1224851353fc92bfbff6f499fa97" target="_top" xlink:title="Program entry point.">
<polygon fill="white" stroke="#666666" points="41,-633.41 0,-633.41 0,-614.41 41,-614.41 41,-633.41"/>
<text text-anchor="middle" x="20.5" y="-621.41" font-family="Helvetica,sans-Serif" font-size="10.00">main</text>
</a>
</g>
</g>
<!-- Node4&#45;&gt;Node5 -->
<g id="edge4_Node000004_Node000005" class="edge">
<title>Node4&#45;&gt;Node5</title>
<g id="a_edge4_Node000004_Node000005"><a xlink:title=" ">
<path fill="none" stroke="#63b8ff" d="M113.98,-611.3C90.01,-614.57 60.46,-618.6 41.31,-621.21"/>
<polygon fill="#63b8ff" stroke="#63b8ff" points="114.77,-614.73 124.2,-609.91 113.82,-607.79 114.77,-614.73"/>
</a>
</g>
</g>
<!-- Node6&#45;&gt;Node5 -->
<g id="edge6_Node000006_Node000005" class="edge">
<title>Node6&#45;&gt;Node5</title>
<g id="a_edge6_Node000006_Node000005"><a xlink:title=" ">
<path fill="none" stroke="#63b8ff" d="M101.55,-635.43C80.39,-632.39 57.21,-629.05 41.26,-626.76"/>
<polygon fill="#63b8ff" stroke="#63b8ff" points="101.34,-638.94 111.73,-636.9 102.34,-632.01 101.34,-638.94"/>
</a>
</g>
</g>
<!-- Node8 -->
<g id="Node000008" class="node">
<title>Node8</title>
<g id="a_Node000008"><a xlink:href="test__graph_8cpp.html#ae66f6b31b5ad750f1fe042a706a4e3d4" target="_top" xlink:title=" ">
<polygon fill="white" stroke="#666666" points="41,-317.41 0,-317.41 0,-298.41 41,-298.41 41,-317.41"/>
<text text-anchor="middle" x="20.5" y="-305.41" font-family="Helvetica,sans-Serif" font-size="10.00">main</text>
</a>
</g>
</g>
<!-- Node7&#45;&gt;Node8 -->
<g id="edge8_Node000007_Node000008" class="edge">
<title>Node7&#45;&gt;Node8</title>
<g id="a_edge8_Node000007_Node000008"><a xlink:title=" ">
<path fill="none" stroke="#63b8ff" d="M86.81,-318.3C70.17,-315.65 53.59,-313.02 41.3,-311.06"/>
<polygon fill="#63b8ff" stroke="#63b8ff" points="86.71,-321.83 97.14,-319.94 87.81,-314.92 86.71,-321.83"/>
</a>
</g>
</g>
<!-- Node9&#45;&gt;Node8 -->
<g id="edge10_Node000009_Node000008" class="edge">
<title>Node9&#45;&gt;Node8</title>
<g id="a_edge10_Node000009_Node000008"><a xlink:title=" ">
<path fill="none" stroke="#63b8ff" d="M86.11,-297.14C69.59,-299.9 53.19,-302.63 41.05,-304.65"/>
<polygon fill="#63b8ff" stroke="#63b8ff" points="87.08,-300.53 96.37,-295.43 85.93,-293.62 87.08,-300.53"/>
</a>
</g>
</g>
<!-- Node10&#45;&gt;Node8 -->
<g id="edge12_Node000010_Node000008" class="edge">
<title>Node10&#45;&gt;Node8</title>
<g id="a_edge12_Node000010_Node000008"><a xlink:title=" ">
<path fill="none" stroke="#63b8ff" d="M93.55,-261.44C87.85,-263.33 82.25,-265.48 77,-267.91 59.97,-275.8 42.82,-289.19 32.19,-298.28"/>
<polygon fill="#63b8ff" stroke="#63b8ff" points="94.63,-264.77 103.17,-258.5 92.59,-258.07 94.63,-264.77"/>
</a>
</g>
</g>
<!-- Node11&#45;&gt;Node8 -->
<g id="edge14_Node000011_Node000008" class="edge">
<title>Node11&#45;&gt;Node8</title>
<g id="a_edge14_Node000011_Node000008"><a xlink:title=" ">
<path fill="none" stroke="#63b8ff" d="M87.47,-224.99C83.81,-226.73 80.29,-228.69 77,-230.91 51.34,-248.27 33.44,-281.66 25.74,-298.17"/>
<polygon fill="#63b8ff" stroke="#63b8ff" points="88.9,-228.19 96.81,-221.14 86.23,-221.72 88.9,-228.19"/>
</a>
</g>
</g>
<!-- Node13 -->
<g id="Node000013" class="node">
<title>Node13</title>
<g id="a_Node000013"><a xlink:href="test__output_8cpp.html#ae66f6b31b5ad750f1fe042a706a4e3d4" target="_top" xlink:title=" ">
<polygon fill="white" stroke="#666666" points="41,-800.41 0,-800.41 0,-781.41 41,-781.41 41,-800.41"/>
<text text-anchor="middle" x="20.5" y="-788.41" font-family="Helvetica,sans-Serif" font-size="10.00">main</text>
</a>
</g>
</g>
<!-- Node12&#45;&gt;Node13 -->
<g id="edge16_Node000012_Node000013" class="edge">
<title>Node12&#45;&gt;Node13</title>
<g id="a_edge16_Node000012_Node000013"><a xlink:title=" ">
<path fill="none" stroke="#63b8ff" d="M103.14,-765.89C94.39,-768.12 85.41,-770.51 77,-772.91 65.02,-776.34 51.74,-780.63 41.18,-784.16"/>
<polygon fill="#63b8ff" stroke="#63b8ff" points="104.02,-769.27 112.86,-763.44 102.31,-762.48 104.02,-769.27"/>
</a>
</g>
</g>
<!-- Node14&#45;&gt;Node13 -->
<g id="edge18_Node000014_Node000013" class="edge">
<title>Node14&#45;&gt;Node13</title>
<g id="a_edge18_Node000014_Node000013"><a xlink:title=" ">
<path fill="none" stroke="#63b8ff" d="M89.66,-729.92C85.26,-731.68 81,-733.66 77,-735.91 56.42,-747.48 38.18,-768.73 28.6,-781.16"/>
<polygon fill="#63b8ff" stroke="#63b8ff" points="91.17,-733.1 99.42,-726.45 88.82,-726.51 91.17,-733.1"/>
</a>
</g>
</g>
<!-- Node15&#45;&gt;Node13 -->
<g id="edge20_Node000015_Node000013" class="edge">
<title>Node15&#45;&gt;Node13</title>
<g id="a_edge20_Node000015_Node000013"><a xlink:title=" ">
<path fill="none" stroke="#63b8ff" d="M90.81,-691C85.91,-693.18 81.23,-695.79 77,-698.91 47.73,-720.51 30.85,-762.58 24.47,-781.41"/>
<polygon fill="#63b8ff" stroke="#63b8ff" points="92.37,-694.15 100.45,-687.3 89.86,-687.61 92.37,-694.15"/>
</a>
</g>
</g>
<!-- Node16&#45;&gt;Node8 -->
<g id="edge22_Node000016_Node000008" class="edge">
<title>Node16&#45;&gt;Node8</title>
<g id="a_edge22_Node000016_Node000008"><a xlink:title=" ">
<path fill="none" stroke="#63b8ff" d="M83.64,-189.26C81.32,-190.67 79.09,-192.22 77,-193.91 42.61,-221.75 28.01,-276.15 23.32,-298.24"/>
<polygon fill="#63b8ff" stroke="#63b8ff" points="85.71,-192.13 93.01,-184.46 82.52,-185.9 85.71,-192.13"/>
</a>
</g>
</g>
<!-- Node17&#45;&gt;Node8 -->
<g id="edge24_Node000017_Node000008" class="edge">
<title>Node17&#45;&gt;Node8</title>
<g id="a_edge24_Node000017_Node000008"><a xlink:title=" ">
<path fill="none" stroke="#63b8ff" d="M89.86,-510.84C85.17,-508.46 80.79,-505.53 77,-501.91 22.74,-450.18 20.41,-349.37 21.11,-317.69"/>
<polygon fill="#63b8ff" stroke="#63b8ff" points="88.65,-514.13 99.23,-514.76 91.35,-507.67 88.65,-514.13"/>
</a>
</g>
</g>
<!-- Node18&#45;&gt;Node8 -->
<g id="edge26_Node000018_Node000008" class="edge">
<title>Node18&#45;&gt;Node8</title>
<g id="a_edge26_Node000018_Node000008"><a xlink:title=" ">
<path fill="none" stroke="#63b8ff" d="M87.06,-472C83.45,-470 80.06,-467.65 77,-464.91 32.02,-424.57 23.49,-345.46 21.88,-317.76"/>
<polygon fill="#63b8ff" stroke="#63b8ff" points="85.86,-475.3 96.41,-476.31 88.79,-468.95 85.86,-475.3"/>
</a>
</g>
</g>
<!-- Node19&#45;&gt;Node8 -->
<g id="edge28_Node000019_Node000008" class="edge">
<title>Node19&#45;&gt;Node8</title>
<g id="a_edge28_Node000019_Node000008"><a xlink:title=" ">
<path fill="none" stroke="#63b8ff" d="M81.84,-431.45C80.17,-430.35 78.55,-429.17 77,-427.91 40.9,-398.46 27.15,-340.26 23.01,-317.42"/>
<polygon fill="#63b8ff" stroke="#63b8ff" points="80.22,-434.55 90.67,-436.29 83.59,-428.41 80.22,-434.55"/>
</a>
</g>
</g>
<!-- Node20&#45;&gt;Node8 -->
<g id="edge30_Node000020_Node000008" class="edge">
<title>Node20&#45;&gt;Node8</title>
<g id="a_edge30_Node000020_Node000008"><a xlink:title=" ">
<path fill="none" stroke="#63b8ff" d="M90.98,-398.47C86.04,-396.39 81.3,-393.9 77,-390.91 49.79,-372.05 32.29,-335.13 25.15,-317.6"/>
<polygon fill="#63b8ff" stroke="#63b8ff" points="90.07,-401.87 100.66,-402 92.46,-395.29 90.07,-401.87"/>
</a>
</g>
</g>
<!-- Node21&#45;&gt;Node8 -->
<g id="edge32_Node000021_Node000008" class="edge">
<title>Node21&#45;&gt;Node8</title>
<g id="a_edge32_Node000021_Node000008"><a xlink:title=" ">
<path fill="none" stroke="#63b8ff" d="M109.41,-364.44C98.48,-361.66 87.03,-357.91 77,-352.91 58.79,-343.84 41.14,-327.92 30.8,-317.65"/>
<polygon fill="#63b8ff" stroke="#63b8ff" points="108.71,-367.87 119.24,-366.73 110.3,-361.05 108.71,-367.87"/>
</a>
</g>
</g>
<!-- Node22&#45;&gt;Node4 -->
<g id="edge34_Node000022_Node000004" class="edge">
<title>Node22&#45;&gt;Node4</title>
<g id="a_edge34_Node000022_Node000004"><a xlink:title=" ">
<path fill="none" stroke="#63b8ff" d="M332.38,-700.01C311.03,-679.27 271.93,-644.44 232,-624.91 217.25,-617.7 199.52,-613.07 184.84,-610.19"/>
<polygon fill="#63b8ff" stroke="#63b8ff" points="330.09,-702.67 339.66,-707.21 335.01,-697.69 330.09,-702.67"/>
</a>
</g>
</g>
<!-- Node22&#45;&gt;Node6 -->
<g id="edge35_Node000022_Node000006" class="edge">
<title>Node22&#45;&gt;Node6</title>
<g id="a_edge35_Node000022_Node000006"><a xlink:title=" ">
<path fill="none" stroke="#63b8ff" d="M322.29,-702.51C298.98,-690.39 263.97,-673.27 232,-661.91 220.91,-657.97 208.64,-654.53 197.23,-651.71"/>
<polygon fill="#63b8ff" stroke="#63b8ff" points="320.75,-705.65 331.23,-707.21 324,-699.46 320.75,-705.65"/>
</a>
</g>
</g>
<!-- Node23 -->
<g id="Node000023" class="node">
<title>Node23</title>
<g id="a_Node000023"><a xlink:href="test__output_8cpp.html#ad98b96469ee1c28ab8390957efbc52e5" target="_top" xlink:title=" ">
<polygon fill="white" stroke="#666666" points="221,-911.41 88,-911.41 88,-892.41 221,-892.41 221,-911.41"/>
<text text-anchor="middle" x="154.5" y="-899.41" font-family="Helvetica,sans-Serif" font-size="10.00">test_full_batch_pipeline</text>
</a>
</g>
</g>
<!-- Node22&#45;&gt;Node23 -->
<g id="edge36_Node000022_Node000023" class="edge">
<title>Node22&#45;&gt;Node23</title>
<g id="a_edge36_Node000022_Node000023"><a xlink:title=" ">
<path fill="none" stroke="#63b8ff" d="M341.08,-736.29C325.64,-771.52 288.04,-845.95 232,-883.91 226.92,-887.35 221.26,-890.14 215.38,-892.4"/>
<polygon fill="#63b8ff" stroke="#63b8ff" points="344.47,-737.27 345.16,-726.69 338.03,-734.53 344.47,-737.27"/>
</a>
</g>
</g>
<!-- Node24 -->
<g id="Node000024" class="node">
<title>Node24</title>
<g id="a_Node000024"><a xlink:href="test__output_8cpp.html#a24a7f840628b276584f7f09649fa5ccb" target="_top" xlink:title=" ">
<polygon fill="white" stroke="#666666" points="210,-874.41 99,-874.41 99,-855.41 210,-855.41 210,-874.41"/>
<text text-anchor="middle" x="154.5" y="-862.41" font-family="Helvetica,sans-Serif" font-size="10.00">test_output_figure4</text>
</a>
</g>
</g>
<!-- Node22&#45;&gt;Node24 -->
<g id="edge38_Node000022_Node000024" class="edge">
<title>Node22&#45;&gt;Node24</title>
<g id="a_edge38_Node000022_Node000024"><a xlink:title=" ">
<path fill="none" stroke="#63b8ff" d="M337.9,-735.14C319.56,-763.64 280.12,-818.42 232,-846.91 225.31,-850.87 217.8,-853.96 210.18,-856.37"/>
<polygon fill="#63b8ff" stroke="#63b8ff" points="340.94,-736.89 343.3,-726.56 335.01,-733.16 340.94,-736.89"/>
</a>
</g>
</g>
<!-- Node25 -->
<g id="Node000025" class="node">
<title>Node25</title>
<g id="a_Node000025"><a xlink:href="test__output_8cpp.html#a8907cb43e3cf97150ebba79a523d26cf" target="_top" xlink:title=" ">
<polygon fill="white" stroke="#666666" points="211,-837.41 98,-837.41 98,-818.41 211,-818.41 211,-837.41"/>
<text text-anchor="middle" x="154.5" y="-825.41" font-family="Helvetica,sans-Serif" font-size="10.00">test_output_no_risk</text>
</a>
</g>
</g>
<!-- Node22&#45;&gt;Node25 -->
<g id="edge40_Node000022_Node000025" class="edge">
<title>Node22&#45;&gt;Node25</title>
<g id="a_edge40_Node000022_Node000025"><a xlink:title=" ">
<path fill="none" stroke="#63b8ff" d="M332.78,-733.76C311.58,-754.78 272.37,-790.34 232,-809.91 225,-813.3 217.33,-816.08 209.62,-818.34"/>
<polygon fill="#63b8ff" stroke="#63b8ff" points="335.44,-736.05 339.99,-726.48 330.47,-731.12 335.44,-736.05"/>
</a>
</g>
</g>
<!-- Node26 -->
<g id="Node000026" class="node">
<title>Node26</title>
<g id="a_Node000026"><a xlink:href="test__graph_8cpp.html#ac3ef62920e5b4df04a4b81489aacc664" target="_top" xlink:title=" ">
<polygon fill="white" stroke="#666666" points="215.5,-800.41 93.5,-800.41 93.5,-781.41 215.5,-781.41 215.5,-800.41"/>
<text text-anchor="middle" x="154.5" y="-788.41" font-family="Helvetica,sans-Serif" font-size="10.00">test_risk_analysis_k1</text>
</a>
</g>
</g>
<!-- Node22&#45;&gt;Node26 -->
<g id="edge42_Node000022_Node000026" class="edge">
<title>Node22&#45;&gt;Node26</title>
<g id="a_edge42_Node000022_Node000026"><a xlink:title=" ">
<path fill="none" stroke="#63b8ff" d="M323.17,-731.27C299.91,-743.71 264.48,-761.47 232,-772.91 222.86,-776.13 212.91,-778.95 203.3,-781.34"/>
<polygon fill="#63b8ff" stroke="#63b8ff" points="324.93,-734.3 332.05,-726.46 321.59,-728.14 324.93,-734.3"/>
</a>
</g>
</g>
<!-- Node27 -->
<g id="Node000027" class="node">
<title>Node27</title>
<g id="a_Node000027"><a xlink:href="test__graph_8cpp.html#a87c4bbb43e141d16aadf387d84e8f461" target="_top" xlink:title=" ">
<polygon fill="white" stroke="#666666" points="206.5,-577.91 102.5,-577.91 102.5,-547.91 206.5,-547.91 206.5,-577.91"/>
<text text-anchor="start" x="110.5" y="-565.91" font-family="Helvetica,sans-Serif" font-size="10.00">test_risk_analysis</text>
<text text-anchor="middle" x="154.5" y="-554.91" font-family="Helvetica,sans-Serif" font-size="10.00">_redundant</text>
</a>
</g>
</g>
<!-- Node22&#45;&gt;Node27 -->
<g id="edge44_Node000022_Node000027" class="edge">
<title>Node22&#45;&gt;Node27</title>
<g id="a_edge44_Node000022_Node000027"><a xlink:title=" ">
<path fill="none" stroke="#63b8ff" d="M337.3,-698.89C318.39,-671.15 278.5,-618.05 232,-587.91 224.26,-582.9 215.43,-578.81 206.58,-575.5"/>
<polygon fill="#63b8ff" stroke="#63b8ff" points="334.42,-700.89 342.89,-707.26 340.24,-697 334.42,-700.89"/>
</a>
</g>
</g>
<!-- Node23&#45;&gt;Node13 -->
<g id="edge37_Node000023_Node000013" class="edge">
<title>Node23&#45;&gt;Node13</title>
<g id="a_edge37_Node000023_Node000013"><a xlink:title=" ">
<path fill="none" stroke="#63b8ff" d="M82.88,-887.73C80.85,-886.56 78.88,-885.29 77,-883.91 47.42,-862.25 30.7,-819.63 24.41,-800.55"/>
<polygon fill="#63b8ff" stroke="#63b8ff" points="81.68,-891.04 92.2,-892.3 84.76,-884.76 81.68,-891.04"/>
</a>
</g>
</g>
<!-- Node24&#45;&gt;Node13 -->
<g id="edge39_Node000024_Node000013" class="edge">
<title>Node24&#45;&gt;Node13</title>
<g id="a_edge39_Node000024_Node000013"><a xlink:title=" ">
<path fill="none" stroke="#63b8ff" d="M89.41,-852.73C85.1,-851.04 80.92,-849.11 77,-846.91 55.98,-835.14 37.63,-813.09 28.21,-800.45"/>
<polygon fill="#63b8ff" stroke="#63b8ff" points="88.39,-856.08 98.99,-856.08 90.7,-849.48 88.39,-856.08"/>
</a>
</g>
</g>
<!-- Node25&#45;&gt;Node13 -->
<g id="edge41_Node000025_Node000013" class="edge">
<title>Node25&#45;&gt;Node13</title>
<g id="a_edge41_Node000025_Node000013"><a xlink:title=" ">
<path fill="none" stroke="#63b8ff" d="M99.67,-815.95C92.03,-814.05 84.29,-812.01 77,-809.91 64.96,-806.44 51.68,-801.92 41.13,-798.16"/>
<polygon fill="#63b8ff" stroke="#63b8ff" points="99.07,-819.41 109.62,-818.37 100.73,-812.61 99.07,-819.41"/>
</a>
</g>
</g>
<!-- Node26&#45;&gt;Node8 -->
<g id="edge43_Node000026_Node000008" class="edge">
<title>Node26&#45;&gt;Node8</title>
<g id="a_edge43_Node000026_Node000008"><a xlink:title=" ">
<path fill="none" stroke="#63b8ff" d="M84.6,-779.61C81.83,-777.67 79.27,-775.45 77,-772.91 45.44,-737.6 25.35,-381.37 22,-317.64"/>
<polygon fill="#63b8ff" stroke="#63b8ff" points="83.01,-782.73 93.44,-784.58 86.45,-776.63 83.01,-782.73"/>
</a>
</g>
</g>
<!-- Node27&#45;&gt;Node8 -->
<g id="edge45_Node000027_Node000008" class="edge">
<title>Node27&#45;&gt;Node8</title>
<g id="a_edge45_Node000027_Node000008"><a xlink:title=" ">
<path fill="none" stroke="#63b8ff" d="M92.81,-550.65C86.93,-547.57 81.49,-543.72 77,-538.91 45.82,-505.53 27.05,-356.98 22.55,-317.55"/>
<polygon fill="#63b8ff" stroke="#63b8ff" points="91.79,-554.03 102.35,-554.89 94.64,-547.63 91.79,-554.03"/>
</a>
</g>
</g>
<!-- Node28&#45;&gt;Node8 -->
<g id="edge47_Node000028_Node000008" class="edge">
<title>Node28&#45;&gt;Node8</title>
<g id="a_edge47_Node000028_Node000008"><a xlink:title=" ">
<path fill="none" stroke="#63b8ff" d="M298.47,-125.62C239.21,-115.47 140.98,-108.68 77,-156.91 30.39,-192.05 22.89,-270.46 21.71,-298.06"/>
<polygon fill="#63b8ff" stroke="#63b8ff" points="297.89,-129.07 308.35,-127.4 299.13,-122.18 297.89,-129.07"/>
</a>
</g>
</g>
<!-- Node29&#45;&gt;Node8 -->
<g id="edge49_Node000029_Node000008" class="edge">
<title>Node29&#45;&gt;Node8</title>
<g id="a_edge49_Node000029_Node000008"><a xlink:title=" ">
<path fill="none" stroke="#63b8ff" d="M290.39,-94.49C220.39,-90.48 108.75,-88.57 77,-113.91 47.16,-137.73 27.89,-261.66 22.83,-297.93"/>
<polygon fill="#63b8ff" stroke="#63b8ff" points="290.21,-97.98 300.4,-95.09 290.63,-91 290.21,-97.98"/>
</a>
</g>
</g>
<!-- Node30&#45;&gt;Node8 -->
<g id="edge51_Node000030_Node000008" class="edge">
<title>Node30&#45;&gt;Node8</title>
<g id="a_edge51_Node000030_Node000008"><a xlink:title=" ">
<path fill="none" stroke="#63b8ff" d="M296.4,-50.66C236.02,-41.04 137.56,-35.91 77,-87.91 43.98,-116.27 26.61,-259.62 22.48,-298.29"/>
<polygon fill="#63b8ff" stroke="#63b8ff" points="296.03,-54.15 306.48,-52.36 297.2,-47.24 296.03,-54.15"/>
</a>
</g>
</g>
<!-- Node31&#45;&gt;Node8 -->
<g id="edge53_Node000031_Node000008" class="edge">
<title>Node31&#45;&gt;Node8</title>
<g id="a_edge53_Node000031_Node000008"><a xlink:title=" ">
<path fill="none" stroke="#63b8ff" d="M305.13,-12.05C245.81,1.1 140.2,13.87 77,-40.91 36.84,-75.72 24.43,-254.81 21.99,-298.36"/>
<polygon fill="#63b8ff" stroke="#63b8ff" points="304.41,-15.47 314.94,-14.32 305.99,-8.65 304.41,-15.47"/>
</a>
</g>
</g>
</g>
</svg>
