<?xml version="1.0" encoding="UTF-8" standalone="no"?>
<!DOCTYPE svg PUBLIC "-//W3C//DTD SVG 1.1//EN"
 "http://www.w3.org/Graphics/SVG/1.1/DTD/svg11.dtd">
<!-- Generated by graphviz version 2.43.0 (0)
 -->
<!-- Title: Solver::solve Pages: 1 -->
<svg width="742pt" height="477pt"
 viewBox="0.00 0.00 742.00 477.00" xmlns="http://www.w3.org/2000/svg" xmlns:xlink="http://www.w3.org/1999/xlink">
<g id="graph0" class="graph" transform="scale(1 1) rotate(0) translate(4 473)">
<title>Solver::solve</title>
<!-- Node1 -->
<g id="Node000001" class="node">
<title>Node1</title>
<g id="a_Node000001"><a xlink:title="Solves the assignment problem for the given data.">
<polygon fill="#999999" stroke="#666666" points="80,-262 0,-262 0,-243 80,-243 80,-262"/>
<text text-anchor="middle" x="40" y="-250" font-family="Helvetica,sans-Serif" font-size="10.00">Solver::solve</text>
</a>
</g>
</g>
<!-- Node2 -->
<g id="Node000002" class="node">
<title>Node2</title>
<g id="a_Node000002"><a xlink:href="classNetworkBuilder.html#af514e79c3d2f21597c54e01c4ce9475d" target="_top" xlink:title="Builds the complete flow network.">
<polygon fill="white" stroke="#666666" points="280,-262 116,-262 116,-243 280,-243 280,-262"/>
<text text-anchor="middle" x="198" y="-250" font-family="Helvetica,sans-Serif" font-size="10.00">NetworkBuilder::buildNetwork</text>
</a>
</g>
</g>
<!-- Node1&#45;&gt;Node2 -->
<g id="edge1_Node000001_Node000002" class="edge">
<title>Node1&#45;&gt;Node2</title>
<g id="a_edge1_Node000001_Node000002"><a xlink:title=" ">
<path fill="none" stroke="#63b8ff" d="M80.37,-252.5C88.3,-252.5 96.95,-252.5 105.83,-252.5"/>
<polygon fill="#63b8ff" stroke="#63b8ff" points="105.94,-256 115.94,-252.5 105.94,-249 105.94,-256"/>
</a>
</g>
</g>
<!-- Node7 -->
<g id="Node000007" class="node">
<title>Node7</title>
<g id="a_Node000007"><a xlink:href="structProblemData.html#a8972080e7733220bd51b437e111bf5c9" target="_top" xlink:title="Number of reviewers.">
<polygon fill="white" stroke="#666666" points="497.5,-393 338.5,-393 338.5,-374 497.5,-374 497.5,-393"/>
<text text-anchor="middle" x="418" y="-381" font-family="Helvetica,sans-Serif" font-size="10.00">ProblemData::numReviewers</text>
</a>
</g>
</g>
<!-- Node1&#45;&gt;Node7 -->
<g id="edge23_Node000001_Node000007" class="edge">
<title>Node1&#45;&gt;Node7</title>
<g id="a_edge23_Node000001_Node000007"><a xlink:title=" ">
<path fill="none" stroke="#63b8ff" d="M60.16,-262.05C104.23,-283.65 216.63,-336.59 316,-365.5 324.26,-367.9 333,-370.04 341.75,-371.93"/>
<polygon fill="#63b8ff" stroke="#63b8ff" points="341.1,-375.37 351.6,-373.95 342.51,-368.51 341.1,-375.37"/>
</a>
</g>
</g>
<!-- Node8 -->
<g id="Node000008" class="node">
<title>Node8</title>
<g id="a_Node000008"><a xlink:href="structProblemData.html#af8f49cc7cddaa7219f2a6f3bc9853474" target="_top" xlink:title="Number of submissions.">
<polygon fill="white" stroke="#666666" points="503,-167 333,-167 333,-148 503,-148 503,-167"/>
<text text-anchor="middle" x="418" y="-155" font-family="Helvetica,sans-Serif" font-size="10.00">ProblemData::numSubmissions</text>
</a>
</g>
</g>
<!-- Node1&#45;&gt;Node8 -->
<g id="edge24_Node000001_Node000008" class="edge">
<title>Node1&#45;&gt;Node8</title>
<g id="a_edge24_Node000001_Node000008"><a xlink:title=" ">
<path fill="none" stroke="#63b8ff" d="M76.98,-242.97C129.45,-229.13 230.09,-202.79 316,-181.5 332.37,-177.44 350.27,-173.14 366.39,-169.32"/>
<polygon fill="#63b8ff" stroke="#63b8ff" points="367.24,-172.72 376.17,-167.01 365.63,-165.91 367.24,-172.72"/>
</a>
</g>
</g>
<!-- Node13 -->
<g id="Node000013" class="node">
<title>Node13</title>
<g id="a_Node000013"><a xlink:href="classGraph.html#afd2749a1cd58db2d3b6fa6eef639399c" target="_top" xlink:title="Computes the maximum flow from source to sink using Edmonds&#45;Karp.">
<polygon fill="white" stroke="#666666" points="257.5,-431 138.5,-431 138.5,-412 257.5,-412 257.5,-431"/>
<text text-anchor="middle" x="198" y="-419" font-family="Helvetica,sans-Serif" font-size="10.00">Graph::edmondsKarp</text>
</a>
</g>
</g>
<!-- Node1&#45;&gt;Node13 -->
<g id="edge12_Node000001_Node000013" class="edge">
<title>Node1&#45;&gt;Node13</title>
<g id="a_edge12_Node000001_Node000013"><a xlink:title=" ">
<path fill="none" stroke="#63b8ff" d="M48.61,-262.1C61.86,-278.68 90.22,-313.6 116,-341.5 136.98,-364.2 162.56,-389.03 179.29,-404.91"/>
<polygon fill="#63b8ff" stroke="#63b8ff" points="177.05,-407.61 186.73,-411.93 181.86,-402.52 177.05,-407.61"/>
</a>
</g>
</g>
<!-- Node16 -->
<g id="Node000016" class="node">
<title>Node16</title>
<g id="a_Node000016"><a xlink:href="classSolver.html#ab064c56e0bda025818ce6f8461dd4e80" target="_top" xlink:title="Extracts the assignment from the solved flow network.">
<polygon fill="white" stroke="#666666" points="257.5,-93 138.5,-93 138.5,-74 257.5,-74 257.5,-93"/>
<text text-anchor="middle" x="198" y="-81" font-family="Helvetica,sans-Serif" font-size="10.00">Solver::extractResult</text>
</a>
</g>
</g>
<!-- Node1&#45;&gt;Node16 -->
<g id="edge16_Node000001_Node000016" class="edge">
<title>Node1&#45;&gt;Node16</title>
<g id="a_edge16_Node000001_Node000016"><a xlink:title=" ">
<path fill="none" stroke="#63b8ff" d="M49.83,-242.93C75.13,-215.52 148.14,-136.43 180.83,-101.01"/>
<polygon fill="#63b8ff" stroke="#63b8ff" points="183.66,-103.11 187.87,-93.39 178.52,-98.36 183.66,-103.11"/>
</a>
</g>
</g>
<!-- Node3 -->
<g id="Node000003" class="node">
<title>Node3</title>
<g id="a_Node000003"><a xlink:href="classGraph.html#a8cdfb932968807565b3cc3b52759e3b8" target="_top" xlink:title="Adds a directed edge (u → v) with the given capacity, along with its reverse edge (v → u) with capaci...">
<polygon fill="white" stroke="#666666" points="465,-356 371,-356 371,-337 465,-337 465,-356"/>
<text text-anchor="middle" x="418" y="-344" font-family="Helvetica,sans-Serif" font-size="10.00">Graph::addEdge</text>
</a>
</g>
</g>
<!-- Node2&#45;&gt;Node3 -->
<g id="edge2_Node000002_Node000003" class="edge">
<title>Node2&#45;&gt;Node3</title>
<g id="a_edge2_Node000002_Node000003"><a xlink:title=" ">
<path fill="none" stroke="#63b8ff" d="M210.42,-262.2C230.4,-278.62 273.65,-311.77 316,-328.5 330.06,-334.06 345.91,-337.91 360.81,-340.57"/>
<polygon fill="#63b8ff" stroke="#63b8ff" points="360.5,-344.07 370.94,-342.23 361.64,-337.16 360.5,-344.07"/>
</a>
</g>
</g>
<!-- Node5 -->
<g id="Node000005" class="node">
<title>Node5</title>
<g id="a_Node000005"><a xlink:href="classNetworkBuilder.html#acc9979fa0114fda405375f52dbe49a84" target="_top" xlink:title="Determines if a reviewer can review a submission based on domain matching.">
<polygon fill="white" stroke="#666666" points="499.5,-319 336.5,-319 336.5,-300 499.5,-300 499.5,-319"/>
<text text-anchor="middle" x="418" y="-307" font-family="Helvetica,sans-Serif" font-size="10.00">NetworkBuilder::isCompatible</text>
</a>
</g>
</g>
<!-- Node2&#45;&gt;Node5 -->
<g id="edge4_Node000002_Node000005" class="edge">
<title>Node2&#45;&gt;Node5</title>
<g id="a_edge4_Node000002_Node000005"><a xlink:title=" ">
<path fill="none" stroke="#63b8ff" d="M231.68,-262.11C255.09,-268.9 287.4,-278.07 316,-285.5 331.88,-289.63 349.25,-293.85 365.03,-297.59"/>
<polygon fill="#63b8ff" stroke="#63b8ff" points="364.6,-301.08 375.13,-299.96 366.2,-294.27 364.6,-301.08"/>
</a>
</g>
</g>
<!-- Node2&#45;&gt;Node7 -->
<g id="edge6_Node000002_Node000007" class="edge">
<title>Node2&#45;&gt;Node7</title>
<g id="a_edge6_Node000002_Node000007"><a xlink:title=" ">
<path fill="none" stroke="#63b8ff" d="M214.49,-262C231.71,-273.03 259.75,-292.43 280,-313.5 299.48,-333.77 292.35,-350.31 316,-365.5 320.05,-368.1 324.37,-370.35 328.86,-372.3"/>
<polygon fill="#63b8ff" stroke="#63b8ff" points="327.68,-375.6 338.27,-375.89 330.17,-369.05 327.68,-375.6"/>
</a>
</g>
</g>
<!-- Node2&#45;&gt;Node8 -->
<g id="edge7_Node000002_Node000008" class="edge">
<title>Node2&#45;&gt;Node8</title>
<g id="a_edge7_Node000002_Node000008"><a xlink:title=" ">
<path fill="none" stroke="#63b8ff" d="M213.74,-242.76C240.21,-225.4 295.01,-190.11 316,-181.5 327.71,-176.7 340.6,-172.72 353.13,-169.48"/>
<polygon fill="#63b8ff" stroke="#63b8ff" points="354.2,-172.82 363.08,-167.04 352.53,-166.03 354.2,-172.82"/>
</a>
</g>
</g>
<!-- Node9 -->
<g id="Node000009" class="node">
<title>Node9</title>
<g id="a_Node000009"><a xlink:href="classNetworkBuilder.html#a0b1fedb0791107aa56d1022f3964269f" target="_top" xlink:title="Maps a reviewer&#39;s vector index to its graph node ID.">
<polygon fill="white" stroke="#666666" points="501.5,-130 334.5,-130 334.5,-111 501.5,-111 501.5,-130"/>
<text text-anchor="middle" x="418" y="-118" font-family="Helvetica,sans-Serif" font-size="10.00">NetworkBuilder::reviewerNode</text>
</a>
</g>
</g>
<!-- Node2&#45;&gt;Node9 -->
<g id="edge8_Node000002_Node000009" class="edge">
<title>Node2&#45;&gt;Node9</title>
<g id="a_edge8_Node000002_Node000009"><a xlink:title=" ">
<path fill="none" stroke="#63b8ff" d="M205.62,-242.92C221.65,-220.52 265.04,-164.67 316,-138.5 319.74,-136.58 323.66,-134.86 327.67,-133.32"/>
<polygon fill="#63b8ff" stroke="#63b8ff" points="328.89,-136.6 337.21,-130.04 326.62,-129.98 328.89,-136.6"/>
</a>
</g>
</g>
<!-- Node10 -->
<g id="Node000010" class="node">
<title>Node10</title>
<g id="a_Node000010"><a xlink:href="classNetworkBuilder.html#a508fc4af685c78c10f96ab39610d4040" target="_top" xlink:title="Maps a submission&#39;s vector index to its graph node ID.">
<polygon fill="white" stroke="#666666" points="507.5,-243 328.5,-243 328.5,-224 507.5,-224 507.5,-243"/>
<text text-anchor="middle" x="418" y="-231" font-family="Helvetica,sans-Serif" font-size="10.00">NetworkBuilder::submissionNode</text>
</a>
</g>
</g>
<!-- Node2&#45;&gt;Node10 -->
<g id="edge9_Node000002_Node000010" class="edge">
<title>Node2&#45;&gt;Node10</title>
<g id="a_edge9_Node000002_Node000010"><a xlink:title=" ">
<path fill="none" stroke="#63b8ff" d="M280.18,-245.43C292.59,-244.34 305.53,-243.22 318.27,-242.1"/>
<polygon fill="#63b8ff" stroke="#63b8ff" points="318.78,-245.57 328.44,-241.22 318.17,-238.6 318.78,-245.57"/>
</a>
</g>
</g>
<!-- Node11 -->
<g id="Node000011" class="node">
<title>Node11</title>
<g id="a_Node000011"><a xlink:href="structConfig.html#a89db87ddce24e353ccabde8d0dc70ade" target="_top" xlink:title="Determines if reviewer secondary expertise should be used in matching.">
<polygon fill="white" stroke="#666666" points="728.5,-234 561.5,-234 561.5,-215 728.5,-215 728.5,-234"/>
<text text-anchor="middle" x="645" y="-222" font-family="Helvetica,sans-Serif" font-size="10.00">Config::useReviewerSecondary</text>
</a>
</g>
</g>
<!-- Node2&#45;&gt;Node11 -->
<g id="edge10_Node000002_Node000011" class="edge">
<title>Node2&#45;&gt;Node11</title>
<g id="a_edge10_Node000002_Node000011"><a xlink:title=" ">
<path fill="none" stroke="#63b8ff" d="M280.08,-257.45C345.14,-260.24 438.72,-261.56 520,-252.5 547.44,-249.44 577.68,-242.68 601.43,-236.57"/>
<polygon fill="#63b8ff" stroke="#63b8ff" points="602.4,-239.94 611.18,-234.01 600.62,-233.17 602.4,-239.94"/>
</a>
</g>
</g>
<!-- Node12 -->
<g id="Node000012" class="node">
<title>Node12</title>
<g id="a_Node000012"><a xlink:href="structConfig.html#a936e7b5bd16f50374b648f00465f1a32" target="_top" xlink:title="Determines if submission secondary domains should be used in matching.">
<polygon fill="white" stroke="#666666" points="734,-149 556,-149 556,-130 734,-130 734,-149"/>
<text text-anchor="middle" x="645" y="-137" font-family="Helvetica,sans-Serif" font-size="10.00">Config::useSubmissionSecondary</text>
</a>
</g>
</g>
<!-- Node2&#45;&gt;Node12 -->
<g id="edge11_Node000002_Node000012" class="edge">
<title>Node2&#45;&gt;Node12</title>
<g id="a_edge11_Node000002_Node000012"><a xlink:title=" ">
<path fill="none" stroke="#63b8ff" d="M226.16,-242.91C249.71,-234.84 284.81,-223.38 316,-215.5 405.49,-192.88 430.32,-198.39 520,-176.5 548.96,-169.43 581.22,-159.75 605.58,-152.06"/>
<polygon fill="#63b8ff" stroke="#63b8ff" points="606.7,-155.38 615.16,-149.01 604.57,-148.71 606.7,-155.38"/>
</a>
</g>
</g>
<!-- Node4 -->
<g id="Node000004" class="node">
<title>Node4</title>
<g id="a_Node000004"><a xlink:href="classGraph.html#a0a3f35d90f69456655a046806c725063" target="_top" xlink:title="Returns the number of nodes in the graph.">
<polygon fill="white" stroke="#666666" points="697,-394 593,-394 593,-375 697,-375 697,-394"/>
<text text-anchor="middle" x="645" y="-382" font-family="Helvetica,sans-Serif" font-size="10.00">Graph::numNodes</text>
</a>
</g>
</g>
<!-- Node3&#45;&gt;Node4 -->
<g id="edge3_Node000003_Node000004" class="edge">
<title>Node3&#45;&gt;Node4</title>
<g id="a_edge3_Node000003_Node000004"><a xlink:title=" ">
<path fill="none" stroke="#63b8ff" d="M465.08,-354.28C499.04,-360.02 545.58,-367.88 582.69,-374.15"/>
<polygon fill="#63b8ff" stroke="#63b8ff" points="582.44,-377.65 592.89,-375.87 583.61,-370.75 582.44,-377.65"/>
</a>
</g>
</g>
<!-- Node6 -->
<g id="Node000006" class="node">
<title>Node6</title>
<g id="a_Node000006"><a xlink:href="structSubmission.html#a19ab1b3a6dc11bd0b8254be4cbc31d2d" target="_top" xlink:title="Checks if this submission covers the given domain.">
<polygon fill="white" stroke="#666666" points="712,-319 578,-319 578,-300 712,-300 712,-319"/>
<text text-anchor="middle" x="645" y="-307" font-family="Helvetica,sans-Serif" font-size="10.00">Submission::hasDomain</text>
</a>
</g>
</g>
<!-- Node5&#45;&gt;Node6 -->
<g id="edge5_Node000005_Node000006" class="edge">
<title>Node5&#45;&gt;Node6</title>
<g id="a_edge5_Node000005_Node000006"><a xlink:title=" ">
<path fill="none" stroke="#63b8ff" d="M499.59,-309.5C521.69,-309.5 545.58,-309.5 567.45,-309.5"/>
<polygon fill="#63b8ff" stroke="#63b8ff" points="567.67,-313 577.67,-309.5 567.67,-306 567.67,-313"/>
</a>
</g>
</g>
<!-- Node13&#45;&gt;Node4 -->
<g id="edge15_Node000013_Node000004" class="edge">
<title>Node13&#45;&gt;Node4</title>
<g id="a_edge15_Node000013_Node000004"><a xlink:title=" ">
<path fill="none" stroke="#63b8ff" d="M257.7,-419.52C322.15,-417.01 428.64,-411.82 520,-402.5 540.55,-400.4 562.92,-397.39 582.92,-394.42"/>
<polygon fill="#63b8ff" stroke="#63b8ff" points="583.47,-397.88 592.84,-392.92 582.43,-390.95 583.47,-397.88"/>
</a>
</g>
</g>
<!-- Node14 -->
<g id="Node000014" class="node">
<title>Node14</title>
<g id="a_Node000014"><a xlink:href="classGraph.html#a348391db529c20a826a1483fe7bdcb9a" target="_top" xlink:title="BFS on the residual graph to find the shortest augmenting path.">
<polygon fill="white" stroke="#666666" points="451.5,-469 384.5,-469 384.5,-450 451.5,-450 451.5,-469"/>
<text text-anchor="middle" x="418" y="-457" font-family="Helvetica,sans-Serif" font-size="10.00">Graph::bfs</text>
</a>
</g>
</g>
<!-- Node13&#45;&gt;Node14 -->
<g id="edge13_Node000013_Node000014" class="edge">
<title>Node13&#45;&gt;Node14</title>
<g id="a_edge13_Node000013_Node000014"><a xlink:title=" ">
<path fill="none" stroke="#63b8ff" d="M253.73,-431.04C290.99,-437.54 339.61,-446.01 374.08,-452.02"/>
<polygon fill="#63b8ff" stroke="#63b8ff" points="373.84,-455.53 384.29,-453.8 375.04,-448.63 373.84,-455.53"/>
</a>
</g>
</g>
<!-- Node15 -->
<g id="Node000015" class="node">
<title>Node15</title>
<g id="a_Node000015"><a xlink:href="structEdge.html#a0b45154adf516897233895a25fad355e" target="_top" xlink:title="Residual capacity of this edge.">
<polygon fill="white" stroke="#666666" points="688,-469 602,-469 602,-450 688,-450 688,-469"/>
<text text-anchor="middle" x="645" y="-457" font-family="Helvetica,sans-Serif" font-size="10.00">Edge::residual</text>
</a>
</g>
</g>
<!-- Node14&#45;&gt;Node15 -->
<g id="edge14_Node000014_Node000015" class="edge">
<title>Node14&#45;&gt;Node15</title>
<g id="a_edge14_Node000014_Node000015"><a xlink:title=" ">
<path fill="none" stroke="#63b8ff" d="M451.72,-459.5C488.39,-459.5 548.36,-459.5 591.59,-459.5"/>
<polygon fill="#63b8ff" stroke="#63b8ff" points="591.64,-463 601.64,-459.5 591.64,-456 591.64,-463"/>
</a>
</g>
</g>
<!-- Node16&#45;&gt;Node9 -->
<g id="edge22_Node000016_Node000009" class="edge">
<title>Node16&#45;&gt;Node9</title>
<g id="a_edge22_Node000016_Node000009"><a xlink:title=" ">
<path fill="none" stroke="#63b8ff" d="M255.14,-93.03C284.27,-97.97 320.04,-104.04 350.55,-109.22"/>
<polygon fill="#63b8ff" stroke="#63b8ff" points="350.23,-112.72 360.67,-110.94 351.4,-105.82 350.23,-112.72"/>
</a>
</g>
</g>
<!-- Node17 -->
<g id="Node000017" class="node">
<title>Node17</title>
<g id="a_Node000017"><a xlink:href="classSolver.html#a0a32ae51c07e104de80b39cceaaf325f" target="_top" xlink:title="Determines which domain code caused the match between a reviewer and submission.">
<polygon fill="white" stroke="#666666" points="494,-93 342,-93 342,-74 494,-74 494,-93"/>
<text text-anchor="middle" x="418" y="-81" font-family="Helvetica,sans-Serif" font-size="10.00">Solver::findMatchedDomain</text>
</a>
</g>
</g>
<!-- Node16&#45;&gt;Node17 -->
<g id="edge17_Node000016_Node000017" class="edge">
<title>Node16&#45;&gt;Node17</title>
<g id="a_edge17_Node000016_Node000017"><a xlink:title=" ">
<path fill="none" stroke="#63b8ff" d="M257.71,-83.5C280.43,-83.5 306.89,-83.5 331.63,-83.5"/>
<polygon fill="#63b8ff" stroke="#63b8ff" points="331.75,-87 341.75,-83.5 331.75,-80 331.75,-87"/>
</a>
</g>
</g>
<!-- Node18 -->
<g id="Node000018" class="node">
<title>Node18</title>
<g id="a_Node000018"><a xlink:href="classGraph.html#af5f263b25175df3f5511ff5ede0a63aa" target="_top" xlink:title="Returns the adjacency list of a given node (const).">
<polygon fill="white" stroke="#666666" points="459.5,-56 376.5,-56 376.5,-37 459.5,-37 459.5,-56"/>
<text text-anchor="middle" x="418" y="-44" font-family="Helvetica,sans-Serif" font-size="10.00">Graph::getAdj</text>
</a>
</g>
</g>
<!-- Node16&#45;&gt;Node18 -->
<g id="edge20_Node000016_Node000018" class="edge">
<title>Node16&#45;&gt;Node18</title>
<g id="a_edge20_Node000016_Node000018"><a xlink:title=" ">
<path fill="none" stroke="#63b8ff" d="M255.14,-73.97C289.44,-68.15 332.95,-60.77 366.22,-55.12"/>
<polygon fill="#63b8ff" stroke="#63b8ff" points="366.92,-58.55 376.2,-53.43 365.75,-51.65 366.92,-58.55"/>
</a>
</g>
</g>
<!-- Node19 -->
<g id="Node000019" class="node">
<title>Node19</title>
<g id="a_Node000019"><a xlink:href="classNetworkBuilder.html#a4efdb0e13d73f6f3cbf38b4cd11a5ef3" target="_top" xlink:title="Inverse: given a graph node ID, returns the submission vector index.">
<polygon fill="white" stroke="#666666" points="520,-19 316,-19 316,0 520,0 520,-19"/>
<text text-anchor="middle" x="418" y="-7" font-family="Helvetica,sans-Serif" font-size="10.00">NetworkBuilder::nodeToSubmissionIdx</text>
</a>
</g>
</g>
<!-- Node16&#45;&gt;Node19 -->
<g id="edge21_Node000016_Node000019" class="edge">
<title>Node16&#45;&gt;Node19</title>
<g id="a_edge21_Node000016_Node000019"><a xlink:title=" ">
<path fill="none" stroke="#63b8ff" d="M215.46,-73.86C237.59,-61.31 278.49,-39.57 316,-27.5 323.39,-25.12 331.19,-23.03 339.05,-21.2"/>
<polygon fill="#63b8ff" stroke="#63b8ff" points="339.99,-24.58 349.01,-19.02 338.5,-17.74 339.99,-24.58"/>
</a>
</g>
</g>
<!-- Node17&#45;&gt;Node11 -->
<g id="edge18_Node000017_Node000011" class="edge">
<title>Node17&#45;&gt;Node11</title>
<g id="a_edge18_Node000017_Node000011"><a xlink:title=" ">
<path fill="none" stroke="#63b8ff" d="M494.25,-89.71C503.38,-92.5 512.22,-96.31 520,-101.5 544.62,-117.91 535.92,-135.76 556,-157.5 574.92,-177.99 600.7,-196.79 619.46,-209.23"/>
<polygon fill="#63b8ff" stroke="#63b8ff" points="617.75,-212.3 628.05,-214.81 621.56,-206.42 617.75,-212.3"/>
</a>
</g>
</g>
<!-- Node17&#45;&gt;Node12 -->
<g id="edge19_Node000017_Node000012" class="edge">
<title>Node17&#45;&gt;Node12</title>
<g id="a_edge19_Node000017_Node000012"><a xlink:title=" ">
<path fill="none" stroke="#63b8ff" d="M479.33,-93.02C492.78,-95.48 506.93,-98.34 520,-101.5 549.43,-108.6 582.16,-118.73 606.6,-126.74"/>
<polygon fill="#63b8ff" stroke="#63b8ff" points="605.6,-130.1 616.2,-129.92 607.8,-123.46 605.6,-130.1"/>
</a>
</g>
</g>
</g>
</svg>
