<?xml version="1.0" encoding="UTF-8" standalone="no"?>
<!DOCTYPE svg PUBLIC "-//W3C//DTD SVG 1.1//EN"
 "http://www.w3.org/Graphics/SVG/1.1/DTD/svg11.dtd">
<!-- Generated by graphviz version 2.43.0 (0)
 -->
<!-- Title: Solver::solve Pages: 1 -->
<svg width="356pt" height="557pt"
 viewBox="0.00 0.00 356.00 557.00" xmlns="http://www.w3.org/2000/svg" xmlns:xlink="http://www.w3.org/1999/xlink">
<g id="graph0" class="graph" transform="scale(1 1) rotate(0) translate(4 553)">
<title>Solver::solve</title>
<!-- Node1 -->
<g id="Node000001" class="node">
<title>Node1</title>
<g id="a_Node000001"><a xlink:title="Solves the assignment problem for the given data.">
<polygon fill="#999999" stroke="#666666" points="348,-278 268,-278 268,-259 348,-259 348,-278"/>
<text text-anchor="middle" x="308" y="-266" font-family="Helvetica,sans-Serif" font-size="10.00">Solver::solve</text>
</a>
</g>
</g>
<!-- Node2 -->
<g id="Node000002" class="node">
<title>Node2</title>
<g id="a_Node000002"><a xlink:href="main_8cpp.html#adccc9f5ff7d7a84b4f757ddc2e00c25b" target="_top" xlink:title="Executes the program in batch mode.">
<polygon fill="white" stroke="#666666" points="184.5,-549 124.5,-549 124.5,-530 184.5,-530 184.5,-549"/>
<text text-anchor="middle" x="154.5" y="-537" font-family="Helvetica,sans-Serif" font-size="10.00">runBatch</text>
</a>
</g>
</g>
<!-- Node1&#45;&gt;Node2 -->
<g id="edge1_Node000001_Node000002" class="edge">
<title>Node1&#45;&gt;Node2</title>
<g id="a_edge1_Node000001_Node000002"><a xlink:title=" ">
<path fill="none" stroke="#63b8ff" d="M307.38,-288.49C307.14,-336.24 299.54,-457.71 232,-521.5 219.4,-533.4 200.48,-537.92 184.6,-539.46"/>
<polygon fill="#63b8ff" stroke="#63b8ff" points="310.88,-288.23 307.32,-278.25 303.88,-288.27 310.88,-288.23"/>
</a>
</g>
</g>
<!-- Node4 -->
<g id="Node000004" class="node">
<title>Node4</title>
<g id="a_Node000004"><a xlink:href="main_8cpp.html#aef0bcc404dd408e438ce7fa09e4ea3f7" target="_top" xlink:title="Executes the program in interactive mode.">
<polygon fill="white" stroke="#666666" points="197,-512 112,-512 112,-493 197,-493 197,-512"/>
<text text-anchor="middle" x="154.5" y="-500" font-family="Helvetica,sans-Serif" font-size="10.00">runInteractive</text>
</a>
</g>
</g>
<!-- Node1&#45;&gt;Node4 -->
<g id="edge3_Node000001_Node000004" class="edge">
<title>Node1&#45;&gt;Node4</title>
<g id="a_edge3_Node000001_Node000004"><a xlink:title=" ">
<path fill="none" stroke="#63b8ff" d="M306.1,-288.58C303.06,-331.13 289.8,-430.8 232,-483.5 222.49,-492.17 209.66,-497.03 197.21,-499.72"/>
<polygon fill="#63b8ff" stroke="#63b8ff" points="309.6,-288.58 306.7,-278.39 302.61,-288.17 309.6,-288.58"/>
</a>
</g>
</g>
<!-- Node5 -->
<g id="Node000005" class="node">
<title>Node5</title>
<g id="a_Node000005"><a xlink:href="test__graph_8cpp.html#aabe34e3298f44b2a590c5785cfb187e8" target="_top" xlink:title=" ">
<polygon fill="white" stroke="#666666" points="211.5,-474.5 97.5,-474.5 97.5,-444.5 211.5,-444.5 211.5,-474.5"/>
<text text-anchor="start" x="105.5" y="-462.5" font-family="Helvetica,sans-Serif" font-size="10.00">test_corner_maxrev</text>
<text text-anchor="middle" x="154.5" y="-451.5" font-family="Helvetica,sans-Serif" font-size="10.00">_bottleneck</text>
</a>
</g>
</g>
<!-- Node1&#45;&gt;Node5 -->
<g id="edge5_Node000001_Node000005" class="edge">
<title>Node1&#45;&gt;Node5</title>
<g id="a_edge5_Node000001_Node000005"><a xlink:title=" ">
<path fill="none" stroke="#63b8ff" d="M303.57,-288.32C296.5,-323.16 277.04,-395.49 232,-435.5 226.07,-440.77 218.99,-444.88 211.56,-448.09"/>
<polygon fill="#63b8ff" stroke="#63b8ff" points="307.09,-288.51 305.51,-278.04 300.22,-287.21 307.09,-288.51"/>
</a>
</g>
</g>
<!-- Node7 -->
<g id="Node000007" class="node">
<title>Node7</title>
<g id="a_Node000007"><a xlink:href="test__graph_8cpp.html#afb6fc70c45804d5516d4936ec4115cd1" target="_top" xlink:title=" ">
<polygon fill="white" stroke="#666666" points="225.5,-426 83.5,-426 83.5,-407 225.5,-407 225.5,-426"/>
<text text-anchor="middle" x="154.5" y="-414" font-family="Helvetica,sans-Serif" font-size="10.00">test_corner_no_reviewers</text>
</a>
</g>
</g>
<!-- Node1&#45;&gt;Node7 -->
<g id="edge7_Node000001_Node000007" class="edge">
<title>Node1&#45;&gt;Node7</title>
<g id="a_edge7_Node000001_Node000007"><a xlink:title=" ">
<path fill="none" stroke="#63b8ff" d="M301.33,-287.82C291.86,-316.57 270.01,-370.24 232,-398.5 227.4,-401.92 222.25,-404.7 216.86,-406.96"/>
<polygon fill="#63b8ff" stroke="#63b8ff" points="304.71,-288.72 304.36,-278.13 298.03,-286.63 304.71,-288.72"/>
</a>
</g>
</g>
<!-- Node8 -->
<g id="Node000008" class="node">
<title>Node8</title>
<g id="a_Node000008"><a xlink:href="test__graph_8cpp.html#acdaff2524640ac8e6e9644e7106b04ba" target="_top" xlink:title=" ">
<polygon fill="white" stroke="#666666" points="232,-389 77,-389 77,-370 232,-370 232,-389"/>
<text text-anchor="middle" x="154.5" y="-377" font-family="Helvetica,sans-Serif" font-size="10.00">test_corner_no_submissions</text>
</a>
</g>
</g>
<!-- Node1&#45;&gt;Node8 -->
<g id="edge9_Node000001_Node000008" class="edge">
<title>Node1&#45;&gt;Node8</title>
<g id="a_edge9_Node000001_Node000008"><a xlink:title=" ">
<path fill="none" stroke="#63b8ff" d="M297.2,-286.92C284.88,-308.24 261.69,-342.82 232,-361.5 226.57,-364.92 220.56,-367.68 214.36,-369.93"/>
<polygon fill="#63b8ff" stroke="#63b8ff" points="300.27,-288.59 302.09,-278.16 294.16,-285.19 300.27,-288.59"/>
</a>
</g>
</g>
<!-- Node9 -->
<g id="Node000009" class="node">
<title>Node9</title>
<g id="a_Node000009"><a xlink:href="test__graph_8cpp.html#ae160a573baa527c8e420eddbce3cab30" target="_top" xlink:title=" ">
<polygon fill="white" stroke="#666666" points="212,-352 97,-352 97,-333 212,-333 212,-352"/>
<text text-anchor="middle" x="154.5" y="-340" font-family="Helvetica,sans-Serif" font-size="10.00">test_full_integration</text>
</a>
</g>
</g>
<!-- Node1&#45;&gt;Node9 -->
<g id="edge11_Node000001_Node000009" class="edge">
<title>Node1&#45;&gt;Node9</title>
<g id="a_edge11_Node000001_Node000009"><a xlink:title=" ">
<path fill="none" stroke="#63b8ff" d="M289.11,-285.22C274.71,-297.8 253.42,-314.51 232,-324.5 224.7,-327.9 216.71,-330.69 208.72,-332.97"/>
<polygon fill="#63b8ff" stroke="#63b8ff" points="291.63,-287.66 296.73,-278.38 286.95,-282.45 291.63,-287.66"/>
</a>
</g>
</g>
<!-- Node10 -->
<g id="Node000010" class="node">
<title>Node10</title>
<g id="a_Node000010"><a xlink:href="test__output_8cpp.html#ae22f862265d01c0acb3649c247f4a726" target="_top" xlink:title=" ">
<polygon fill="white" stroke="#666666" points="210,-93 99,-93 99,-74 210,-74 210,-93"/>
<text text-anchor="middle" x="154.5" y="-81" font-family="Helvetica,sans-Serif" font-size="10.00">test_output_figure2</text>
</a>
</g>
</g>
<!-- Node1&#45;&gt;Node10 -->
<g id="edge13_Node000001_Node000010" class="edge">
<title>Node1&#45;&gt;Node10</title>
<g id="a_edge13_Node000001_Node000010"><a xlink:title=" ">
<path fill="none" stroke="#63b8ff" d="M303.86,-248.98C297.19,-214.08 278.25,-141.06 232,-102.5 225.69,-97.24 218.14,-93.41 210.27,-90.61"/>
<polygon fill="#63b8ff" stroke="#63b8ff" points="300.42,-249.64 305.61,-258.88 307.32,-248.42 300.42,-249.64"/>
</a>
</g>
</g>
<!-- Node12 -->
<g id="Node000012" class="node">
<title>Node12</title>
<g id="a_Node000012"><a xlink:href="test__output_8cpp.html#a998d4d57520dc3729aada36d40d97db9" target="_top" xlink:title=" ">
<polygon fill="white" stroke="#666666" points="210,-56 99,-56 99,-37 210,-37 210,-56"/>
<text text-anchor="middle" x="154.5" y="-44" font-family="Helvetica,sans-Serif" font-size="10.00">test_output_figure3</text>
</a>
</g>
</g>
<!-- Node1&#45;&gt;Node12 -->
<g id="edge15_Node000001_Node000012" class="edge">
<title>Node1&#45;&gt;Node12</title>
<g id="a_edge15_Node000001_Node000012"><a xlink:title=" ">
<path fill="none" stroke="#63b8ff" d="M305.64,-248.69C301.76,-208.02 287.01,-114.75 232,-65.5 225.78,-59.93 218.18,-55.94 210.21,-53.09"/>
<polygon fill="#63b8ff" stroke="#63b8ff" points="302.16,-249.02 306.48,-258.69 309.14,-248.44 302.16,-249.02"/>
</a>
</g>
</g>
<!-- Node13 -->
<g id="Node000013" class="node">
<title>Node13</title>
<g id="a_Node000013"><a xlink:href="test__output_8cpp.html#aaa716ae6efa6c8bef11ea699a4be56d2" target="_top" xlink:title=" ">
<polygon fill="white" stroke="#666666" points="208.5,-19 100.5,-19 100.5,0 208.5,0 208.5,-19"/>
<text text-anchor="middle" x="154.5" y="-7" font-family="Helvetica,sans-Serif" font-size="10.00">test_output_sorted</text>
</a>
</g>
</g>
<!-- Node1&#45;&gt;Node13 -->
<g id="edge17_Node000001_Node000013" class="edge">
<title>Node1&#45;&gt;Node13</title>
<g id="a_edge17_Node000001_Node000013"><a xlink:title=" ">
<path fill="none" stroke="#63b8ff" d="M307.04,-248.83C306.01,-202.88 296.73,-87.81 232,-27.5 225.51,-21.45 217.39,-17.32 208.87,-14.51"/>
<polygon fill="#63b8ff" stroke="#63b8ff" points="303.54,-248.99 307.15,-258.95 310.54,-248.91 303.54,-248.99"/>
</a>
</g>
</g>
<!-- Node14 -->
<g id="Node000014" class="node">
<title>Node14</title>
<g id="a_Node000014"><a xlink:href="test__graph_8cpp.html#a2bd07a82f32ec21b6fa28a86ee9bf941" target="_top" xlink:title=" ">
<polygon fill="white" stroke="#666666" points="218,-315 91,-315 91,-296 218,-296 218,-315"/>
<text text-anchor="middle" x="154.5" y="-303" font-family="Helvetica,sans-Serif" font-size="10.00">test_secondary_match</text>
</a>
</g>
</g>
<!-- Node1&#45;&gt;Node14 -->
<g id="edge19_Node000001_Node000014" class="edge">
<title>Node1&#45;&gt;Node14</title>
<g id="a_edge19_Node000001_Node000014"><a xlink:title=" ">
<path fill="none" stroke="#63b8ff" d="M259.83,-280.58C250.61,-282.9 241.01,-285.3 232,-287.5 220.6,-290.28 208.23,-293.23 196.82,-295.91"/>
<polygon fill="#63b8ff" stroke="#63b8ff" points="260.81,-283.94 269.65,-278.1 259.09,-277.16 260.81,-283.94"/>
</a>
</g>
</g>
<!-- Node15 -->
<g id="Node000015" class="node">
<title>Node15</title>
<g id="a_Node000015"><a xlink:href="test__graph_8cpp.html#a0b2b929f3f92ed72ebb706539ba28f72" target="_top" xlink:title=" ">
<polygon fill="white" stroke="#666666" points="209.5,-278 99.5,-278 99.5,-259 209.5,-259 209.5,-278"/>
<text text-anchor="middle" x="154.5" y="-266" font-family="Helvetica,sans-Serif" font-size="10.00">test_solver_figure1</text>
</a>
</g>
</g>
<!-- Node1&#45;&gt;Node15 -->
<g id="edge21_Node000001_Node000015" class="edge">
<title>Node1&#45;&gt;Node15</title>
<g id="a_edge21_Node000001_Node000015"><a xlink:title=" ">
<path fill="none" stroke="#63b8ff" d="M257.63,-268.5C242.25,-268.5 225.2,-268.5 209.51,-268.5"/>
<polygon fill="#63b8ff" stroke="#63b8ff" points="257.99,-272 267.98,-268.5 257.98,-265 257.99,-272"/>
</a>
</g>
</g>
<!-- Node16 -->
<g id="Node000016" class="node">
<title>Node16</title>
<g id="a_Node000016"><a xlink:href="test__graph_8cpp.html#ae08b5e2d9ec151376641907871fb6d1a" target="_top" xlink:title=" ">
<polygon fill="white" stroke="#666666" points="212.5,-241 96.5,-241 96.5,-222 212.5,-222 212.5,-241"/>
<text text-anchor="middle" x="154.5" y="-229" font-family="Helvetica,sans-Serif" font-size="10.00">test_solver_minrev2</text>
</a>
</g>
</g>
<!-- Node1&#45;&gt;Node16 -->
<g id="edge23_Node000001_Node000016" class="edge">
<title>Node1&#45;&gt;Node16</title>
<g id="a_edge23_Node000001_Node000016"><a xlink:title=" ">
<path fill="none" stroke="#63b8ff" d="M258.17,-256.57C237.62,-251.56 214.03,-245.79 194.65,-241.06"/>
<polygon fill="#63b8ff" stroke="#63b8ff" points="257.44,-260 267.98,-258.97 259.1,-253.2 257.44,-260"/>
</a>
</g>
</g>
<!-- Node17 -->
<g id="Node000017" class="node">
<title>Node17</title>
<g id="a_Node000017"><a xlink:href="test__graph_8cpp.html#ac64ff524d61b175dce290be1685ae797" target="_top" xlink:title=" ">
<polygon fill="white" stroke="#666666" points="226,-204 83,-204 83,-185 226,-185 226,-204"/>
<text text-anchor="middle" x="154.5" y="-192" font-family="Helvetica,sans-Serif" font-size="10.00">test_solver_multi_domain</text>
</a>
</g>
</g>
<!-- Node1&#45;&gt;Node17 -->
<g id="edge25_Node000001_Node000017" class="edge">
<title>Node1&#45;&gt;Node17</title>
<g id="a_edge25_Node000001_Node000017"><a xlink:title=" ">
<path fill="none" stroke="#63b8ff" d="M289.02,-252.16C274.58,-239.86 253.27,-223.46 232,-213.5 223.82,-209.67 214.77,-206.55 205.85,-204.03"/>
<polygon fill="#63b8ff" stroke="#63b8ff" points="286.84,-254.91 296.68,-258.85 291.45,-249.64 286.84,-254.91"/>
</a>
</g>
</g>
<!-- Node18 -->
<g id="Node000018" class="node">
<title>Node18</title>
<g id="a_Node000018"><a xlink:href="test__graph_8cpp.html#ad31c62f747c428536c260667126eae66" target="_top" xlink:title=" ">
<polygon fill="white" stroke="#666666" points="208,-167 101,-167 101,-148 208,-148 208,-167"/>
<text text-anchor="middle" x="154.5" y="-155" font-family="Helvetica,sans-Serif" font-size="10.00">test_solver_partial</text>
</a>
</g>
</g>
<!-- Node1&#45;&gt;Node18 -->
<g id="edge27_Node000001_Node000018" class="edge">
<title>Node1&#45;&gt;Node18</title>
<g id="a_edge27_Node000001_Node000018"><a xlink:title=" ">
<path fill="none" stroke="#63b8ff" d="M296.95,-250.06C284.49,-229 261.3,-195.08 232,-176.5 224.83,-171.96 216.65,-168.5 208.37,-165.87"/>
<polygon fill="#63b8ff" stroke="#63b8ff" points="294.04,-252.03 302.03,-258.98 300.12,-248.56 294.04,-252.03"/>
</a>
</g>
</g>
<!-- Node19 -->
<g id="Node000019" class="node">
<title>Node19</title>
<g id="a_Node000019"><a xlink:href="test__graph_8cpp.html#aca441d5ebe3894bca1449f02e0fd8e48" target="_top" xlink:title=" ">
<polygon fill="white" stroke="#666666" points="189.5,-130 119.5,-130 119.5,-111 189.5,-111 189.5,-130"/>
<text text-anchor="middle" x="154.5" y="-118" font-family="Helvetica,sans-Serif" font-size="10.00">test_stress</text>
</a>
</g>
</g>
<!-- Node1&#45;&gt;Node19 -->
<g id="edge29_Node000001_Node000019" class="edge">
<title>Node1&#45;&gt;Node19</title>
<g id="a_edge29_Node000001_Node000019"><a xlink:title=" ">
<path fill="none" stroke="#63b8ff" d="M301.24,-249.38C291.65,-220.93 269.66,-167.77 232,-139.5 219.85,-130.38 203.85,-125.6 189.63,-123.11"/>
<polygon fill="#63b8ff" stroke="#63b8ff" points="297.93,-250.52 304.31,-258.98 304.6,-248.38 297.93,-250.52"/>
</a>
</g>
</g>
<!-- Node3 -->
<g id="Node000003" class="node">
<title>Node3</title>
<g id="a_Node000003"><a xlink:href="main_8cpp.html#a0ddf1224851353fc92bfbff6f499fa97" target="_top" xlink:title="Program entry point.">
<polygon fill="white" stroke="#666666" points="41,-530 0,-530 0,-511 41,-511 41,-530"/>
<text text-anchor="middle" x="20.5" y="-518" font-family="Helvetica,sans-Serif" font-size="10.00">main</text>
</a>
</g>
</g>
<!-- Node2&#45;&gt;Node3 -->
<g id="edge2_Node000002_Node000003" class="edge">
<title>Node2&#45;&gt;Node3</title>
<g id="a_edge2_Node000002_Node000003"><a xlink:title=" ">
<path fill="none" stroke="#63b8ff" d="M114.3,-533.86C90.28,-530.4 60.54,-526.12 41.31,-523.35"/>
<polygon fill="#63b8ff" stroke="#63b8ff" points="113.81,-537.32 124.2,-535.28 114.81,-530.39 113.81,-537.32"/>
</a>
</g>
</g>
<!-- Node4&#45;&gt;Node3 -->
<g id="edge4_Node000004_Node000003" class="edge">
<title>Node4&#45;&gt;Node3</title>
<g id="a_edge4_Node000004_Node000003"><a xlink:title=" ">
<path fill="none" stroke="#63b8ff" d="M101.55,-509.58C80.39,-512.47 57.21,-515.63 41.26,-517.81"/>
<polygon fill="#63b8ff" stroke="#63b8ff" points="102.3,-513.01 111.73,-508.2 101.35,-506.08 102.3,-513.01"/>
</a>
</g>
</g>
<!-- Node6 -->
<g id="Node000006" class="node">
<title>Node6</title>
<g id="a_Node000006"><a xlink:href="test__graph_8cpp.html#ae66f6b31b5ad750f1fe042a706a4e3d4" target="_top" xlink:title=" ">
<polygon fill="white" stroke="#666666" points="41,-296 0,-296 0,-277 41,-277 41,-296"/>
<text text-anchor="middle" x="20.5" y="-284" font-family="Helvetica,sans-Serif" font-size="10.00">main</text>
</a>
</g>
</g>
<!-- Node5&#45;&gt;Node6 -->
<g id="edge6_Node000005_Node000006" class="edge">
<title>Node5&#45;&gt;Node6</title>
<g id="a_edge6_Node000005_Node000006"><a xlink:title=" ">
<path fill="none" stroke="#63b8ff" d="M88.05,-443.78C84.07,-441.4 80.33,-438.66 77,-435.5 35.35,-395.98 24.74,-322.32 22.23,-296.08"/>
<polygon fill="#63b8ff" stroke="#63b8ff" points="86.63,-446.98 97.12,-448.44 89.83,-440.76 86.63,-446.98"/>
</a>
</g>
</g>
<!-- Node7&#45;&gt;Node6 -->
<g id="edge8_Node000007_Node000006" class="edge">
<title>Node7&#45;&gt;Node6</title>
<g id="a_edge8_Node000007_Node000006"><a xlink:title=" ">
<path fill="none" stroke="#63b8ff" d="M82.02,-402.06C80.28,-400.96 78.6,-399.77 77,-398.5 42.84,-371.38 28.11,-317.8 23.35,-296.03"/>
<polygon fill="#63b8ff" stroke="#63b8ff" points="80.68,-405.31 91.15,-406.93 83.97,-399.14 80.68,-405.31"/>
</a>
</g>
</g>
<!-- Node8&#45;&gt;Node6 -->
<g id="edge10_Node000008_Node000006" class="edge">
<title>Node8&#45;&gt;Node6</title>
<g id="a_edge10_Node000008_Node000006"><a xlink:title=" ">
<path fill="none" stroke="#63b8ff" d="M84.54,-365.85C81.93,-364.53 79.4,-363.08 77,-361.5 51.57,-344.75 33.56,-312.15 25.78,-296.02"/>
<polygon fill="#63b8ff" stroke="#63b8ff" points="83.15,-369.05 93.71,-369.86 85.95,-362.64 83.15,-369.05"/>
</a>
</g>
</g>
<!-- Node9&#45;&gt;Node6 -->
<g id="edge12_Node000009_Node000006" class="edge">
<title>Node9&#45;&gt;Node6</title>
<g id="a_edge12_Node000009_Node000006"><a xlink:title=" ">
<path fill="none" stroke="#63b8ff" d="M91.54,-330.02C86.54,-328.38 81.64,-326.55 77,-324.5 60.55,-317.24 43.81,-304.96 33.08,-296.33"/>
<polygon fill="#63b8ff" stroke="#63b8ff" points="90.63,-333.4 101.21,-332.93 92.65,-326.7 90.63,-333.4"/>
</a>
</g>
</g>
<!-- Node11 -->
<g id="Node000011" class="node">
<title>Node11</title>
<g id="a_Node000011"><a xlink:href="test__output_8cpp.html#ae66f6b31b5ad750f1fe042a706a4e3d4" target="_top" xlink:title=" ">
<polygon fill="white" stroke="#666666" points="41,-56 0,-56 0,-37 41,-37 41,-56"/>
<text text-anchor="middle" x="20.5" y="-44" font-family="Helvetica,sans-Serif" font-size="10.00">main</text>
</a>
</g>
</g>
<!-- Node10&#45;&gt;Node11 -->
<g id="edge14_Node000010_Node000011" class="edge">
<title>Node10&#45;&gt;Node11</title>
<g id="a_edge14_Node000010_Node000011"><a xlink:title=" ">
<path fill="none" stroke="#63b8ff" d="M99.67,-71.54C92.03,-69.64 84.29,-67.6 77,-65.5 64.96,-62.03 51.68,-57.51 41.13,-53.75"/>
<polygon fill="#63b8ff" stroke="#63b8ff" points="99.07,-75 109.62,-73.96 100.73,-68.2 99.07,-75"/>
</a>
</g>
</g>
<!-- Node12&#45;&gt;Node11 -->
<g id="edge16_Node000012_Node000011" class="edge">
<title>Node12&#45;&gt;Node11</title>
<g id="a_edge16_Node000012_Node000011"><a xlink:title=" ">
<path fill="none" stroke="#63b8ff" d="M88.54,-46.5C71.27,-46.5 53.9,-46.5 41.17,-46.5"/>
<polygon fill="#63b8ff" stroke="#63b8ff" points="88.67,-50 98.67,-46.5 88.67,-43 88.67,-50"/>
</a>
</g>
</g>
<!-- Node13&#45;&gt;Node11 -->
<g id="edge18_Node000013_Node000011" class="edge">
<title>Node13&#45;&gt;Node11</title>
<g id="a_edge18_Node000013_Node000011"><a xlink:title=" ">
<path fill="none" stroke="#63b8ff" d="M99.67,-21.46C92.03,-23.36 84.29,-25.4 77,-27.5 64.96,-30.97 51.68,-35.49 41.13,-39.25"/>
<polygon fill="#63b8ff" stroke="#63b8ff" points="100.73,-24.8 109.62,-19.04 99.07,-18 100.73,-24.8"/>
</a>
</g>
</g>
<!-- Node14&#45;&gt;Node6 -->
<g id="edge20_Node000014_Node000006" class="edge">
<title>Node14&#45;&gt;Node6</title>
<g id="a_edge20_Node000014_Node000006"><a xlink:title=" ">
<path fill="none" stroke="#63b8ff" d="M80.78,-295.03C66.11,-292.92 51.88,-290.87 41.04,-289.31"/>
<polygon fill="#63b8ff" stroke="#63b8ff" points="80.58,-298.54 90.98,-296.5 81.58,-291.61 80.58,-298.54"/>
</a>
</g>
</g>
<!-- Node15&#45;&gt;Node6 -->
<g id="edge22_Node000015_Node000006" class="edge">
<title>Node15&#45;&gt;Node6</title>
<g id="a_edge22_Node000015_Node000006"><a xlink:title=" ">
<path fill="none" stroke="#63b8ff" d="M89.17,-277.27C71.66,-279.66 53.99,-282.07 41.1,-283.83"/>
<polygon fill="#63b8ff" stroke="#63b8ff" points="89.99,-280.69 99.43,-275.87 89.05,-273.76 89.99,-280.69"/>
</a>
</g>
</g>
<!-- Node16&#45;&gt;Node6 -->
<g id="edge24_Node000016_Node000006" class="edge">
<title>Node16&#45;&gt;Node6</title>
<g id="a_edge24_Node000016_Node000006"><a xlink:title=" ">
<path fill="none" stroke="#63b8ff" d="M94.89,-243.91C88.75,-245.84 82.68,-248.03 77,-250.5 60.99,-257.45 44.42,-268.84 33.61,-276.94"/>
<polygon fill="#63b8ff" stroke="#63b8ff" points="95.93,-247.26 104.54,-241.09 93.96,-240.54 95.93,-247.26"/>
</a>
</g>
</g>
<!-- Node17&#45;&gt;Node6 -->
<g id="edge26_Node000017_Node000006" class="edge">
<title>Node17&#45;&gt;Node6</title>
<g id="a_edge26_Node000017_Node000006"><a xlink:title=" ">
<path fill="none" stroke="#63b8ff" d="M87.02,-207.92C83.52,-209.57 80.16,-211.42 77,-213.5 52.26,-229.78 34.17,-260.94 26.13,-276.76"/>
<polygon fill="#63b8ff" stroke="#63b8ff" points="88.6,-211.06 96.51,-204.01 85.93,-204.58 88.6,-211.06"/>
</a>
</g>
</g>
<!-- Node18&#45;&gt;Node6 -->
<g id="edge28_Node000018_Node000006" class="edge">
<title>Node18&#45;&gt;Node6</title>
<g id="a_edge28_Node000018_Node000006"><a xlink:title=" ">
<path fill="none" stroke="#63b8ff" d="M91.4,-167.85C86.24,-170.19 81.35,-173.03 77,-176.5 43.56,-203.18 28.5,-255.31 23.5,-276.84"/>
<polygon fill="#63b8ff" stroke="#63b8ff" points="92.83,-171.05 100.9,-164.18 90.31,-164.52 92.83,-171.05"/>
</a>
</g>
</g>
<!-- Node19&#45;&gt;Node6 -->
<g id="edge30_Node000019_Node000006" class="edge">
<title>Node19&#45;&gt;Node6</title>
<g id="a_edge30_Node000019_Node000006"><a xlink:title=" ">
<path fill="none" stroke="#63b8ff" d="M109.29,-124.03C97.69,-126.82 85.94,-131.55 77,-139.5 34.59,-177.2 24.46,-250.68 22.15,-276.91"/>
<polygon fill="#63b8ff" stroke="#63b8ff" points="110.24,-127.41 119.38,-122.05 108.89,-120.54 110.24,-127.41"/>
</a>
</g>
</g>
</g>
</svg>
