<?xml version="1.0" encoding="UTF-8" standalone="no"?>
<!DOCTYPE svg PUBLIC "-//W3C//DTD SVG 1.1//EN"
 "http://www.w3.org/Graphics/SVG/1.1/DTD/svg11.dtd">
<!-- Generated by graphviz version 2.43.0 (0)
 -->
<!-- Title: Solver Pages: 1 -->
<svg width="148pt" height="102pt"
 viewBox="0.00 0.00 148.00 102.00" xmlns="http://www.w3.org/2000/svg" xmlns:xlink="http://www.w3.org/1999/xlink">
<g id="graph0" class="graph" transform="scale(1 1) rotate(0) translate(4 98)">
<title>Solver</title>
<!-- Node1 -->
<g id="Node000001" class="node">
<title>Node1</title>
<g id="a_Node000001"><a xlink:title="High&#45;level solver that ties together parsing, network building, max&#45;flow computation,...">
<polygon fill="#999999" stroke="transparent" points="140,-94 0,-94 0,0 140,0 140,-94"/>
<text text-anchor="start" x="54.5" y="-82" font-family="Helvetica,sans-Serif" font-size="10.00">Solver</text>
<text text-anchor="start" x="68" y="-67" font-family="Helvetica,sans-Serif" font-size="10.00"> </text>
<text text-anchor="start" x="4" y="-52" font-family="Helvetica,sans-Serif" font-size="10.00">+</text>
<text text-anchor="start" x="17" y="-52" font-family="Helvetica,sans-Serif" font-size="10.00">solve()</text>
<text text-anchor="start" x="4" y="-37" font-family="Helvetica,sans-Serif" font-size="10.00">+</text>
<text text-anchor="start" x="17" y="-37" font-family="Helvetica,sans-Serif" font-size="10.00">solveWithRiskAnalysis()</text>
<text text-anchor="start" x="6.5" y="-22" font-family="Helvetica,sans-Serif" font-size="10.00">&#45;</text>
<text text-anchor="start" x="17" y="-22" font-family="Helvetica,sans-Serif" font-size="10.00">extractResult()</text>
<text text-anchor="start" x="6.5" y="-7" font-family="Helvetica,sans-Serif" font-size="10.00">&#45;</text>
<text text-anchor="start" x="17" y="-7" font-family="Helvetica,sans-Serif" font-size="10.00">findMatchedDomain()</text>
<polygon fill="#666666" stroke="#666666" points="0,-77 0,-77 140,-77 140,-77 0,-77"/>
<polygon fill="#666666" stroke="#666666" points="0,-62 0,-62 140,-62 140,-62 0,-62"/>
<polygon fill="none" stroke="#666666" points="0,0 0,-94 140,-94 140,0 0,0"/>
</a>
</g>
</g>
</g>
</svg>
