<?xml version="1.0" encoding="UTF-8" standalone="no"?>
<!DOCTYPE svg PUBLIC "-//W3C//DTD SVG 1.1//EN"
 "http://www.w3.org/Graphics/SVG/1.1/DTD/svg11.dtd">
<!-- Generated by graphviz version 2.43.0 (0)
 -->
<!-- Title: ParseError Pages: 1 -->
<svg width="106pt" height="202pt"
 viewBox="0.00 0.00 106.00 202.00" xmlns="http://www.w3.org/2000/svg" xmlns:xlink="http://www.w3.org/1999/xlink">
<g id="graph0" class="graph" transform="scale(1 1) rotate(0) translate(4 198)">
<title>ParseError</title>
<!-- Node1 -->
<g id="Node000001" class="node">
<title>Node1</title>
<g id="a_Node000001"><a xlink:title="Custom exception for parsing errors with line&#45;number context.">
<polygon fill="#999999" stroke="transparent" points="97.5,-109 0.5,-109 0.5,0 97.5,0 97.5,-109"/>
<text text-anchor="start" x="24.5" y="-96.5" font-family="Helvetica,sans-Serif" font-size="10.00">ParseError</text>
<text text-anchor="start" x="7.5" y="-81.5" font-family="Helvetica,sans-Serif" font-size="10.00">&#45;</text>
<text text-anchor="start" x="18" y="-81.5" font-family="Helvetica,sans-Serif" font-size="10.00">lineNumber_</text>
<text text-anchor="start" x="7.5" y="-66.5" font-family="Helvetica,sans-Serif" font-size="10.00">&#45;</text>
<text text-anchor="start" x="18" y="-66.5" font-family="Helvetica,sans-Serif" font-size="10.00">section_</text>
<text text-anchor="start" x="5" y="-51.5" font-family="Helvetica,sans-Serif" font-size="10.00">+</text>
<text text-anchor="start" x="18" y="-51.5" font-family="Helvetica,sans-Serif" font-size="10.00">ParseError()</text>
<text text-anchor="start" x="5" y="-36.5" font-family="Helvetica,sans-Serif" font-size="10.00">+</text>
<text text-anchor="start" x="18" y="-36.5" font-family="Helvetica,sans-Serif" font-size="10.00">lineNumber()</text>
<text text-anchor="start" x="5" y="-21.5" font-family="Helvetica,sans-Serif" font-size="10.00">+</text>
<text text-anchor="start" x="18" y="-21.5" font-family="Helvetica,sans-Serif" font-size="10.00">section()</text>
<text text-anchor="start" x="7.5" y="-6.5" font-family="Helvetica,sans-Serif" font-size="10.00">&#45;</text>
<text text-anchor="start" x="18" y="-6.5" font-family="Helvetica,sans-Serif" font-size="10.00">buildMessage()</text>
<polygon fill="#666666" stroke="#666666" points="1,-91.5 1,-91.5 98,-91.5 98,-91.5 1,-91.5"/>
<polygon fill="#666666" stroke="#666666" points="1,-61.5 1,-61.5 16,-61.5 16,-61.5 1,-61.5"/>
<polygon fill="#666666" stroke="#666666" points="16,-61.5 16,-61.5 98,-61.5 98,-61.5 16,-61.5"/>
<polygon fill="none" stroke="#666666" points="0.5,0 0.5,-109 97.5,-109 97.5,0 0.5,0"/>
</a>
</g>
</g>
<!-- Node2 -->
<g id="Node000002" class="node">
<title>Node2</title>
<g id="a_Node000002"><a xlink:title=" ">
<polygon fill="white" stroke="transparent" points="98,-194 0,-194 0,-145 98,-145 98,-194"/>
<text text-anchor="start" x="5" y="-181.5" font-family="Helvetica,sans-Serif" font-size="10.00">std::runtime_error</text>
<text text-anchor="start" x="47" y="-166.5" font-family="Helvetica,sans-Serif" font-size="10.00"> </text>
<text text-anchor="start" x="47" y="-151.5" font-family="Helvetica,sans-Serif" font-size="10.00"> </text>
<polygon fill="#666666" stroke="#666666" points="0,-176.5 0,-176.5 98,-176.5 98,-176.5 0,-176.5"/>
<polygon fill="#666666" stroke="#666666" points="0,-161.5 0,-161.5 98,-161.5 98,-161.5 0,-161.5"/>
<polygon fill="none" stroke="#666666" points="0,-145 0,-194 98,-194 98,-145 0,-145"/>
</a>
</g>
</g>
<!-- Node2&#45;&gt;Node1 -->
<g id="edge1_Node000001_Node000002" class="edge">
<title>Node2&#45;&gt;Node1</title>
<g id="a_edge1_Node000001_Node000002"><a xlink:title=" ">
<path fill="none" stroke="#63b8ff" d="M49,-134.79C49,-126.79 49,-118.06 49,-109.41"/>
<polygon fill="none" stroke="#63b8ff" points="45.5,-134.81 49,-144.81 52.5,-134.81 45.5,-134.81"/>
</a>
</g>
</g>
</g>
</svg>
