<?xml version="1.0" encoding="UTF-8" standalone="no"?>
<!DOCTYPE svg PUBLIC "-//W3C//DTD SVG 1.1//EN"
 "http://www.w3.org/Graphics/SVG/1.1/DTD/svg11.dtd">
<!-- Generated by graphviz version 2.43.0 (0)
 -->
<!-- Title: OutputWriter::writeRiskSection Pages: 1 -->
<svg width="616pt" height="286pt"
 viewBox="0.00 0.00 616.00 286.00" xmlns="http://www.w3.org/2000/svg" xmlns:xlink="http://www.w3.org/1999/xlink">
<g id="graph0" class="graph" transform="scale(1 1) rotate(0) translate(4 282)">
<title>OutputWriter::writeRiskSection</title>
<!-- Node1 -->
<g id="Node000001" class="node">
<title>Node1</title>
<g id="a_Node000001"><a xlink:title="Writes the risk analysis section to any output stream.">
<polygon fill="#999999" stroke="#666666" points="608,-112 441,-112 441,-93 608,-93 608,-112"/>
<text text-anchor="middle" x="524.5" y="-100" font-family="Helvetica,sans-Serif" font-size="10.00">OutputWriter::writeRiskSection</text>
</a>
</g>
</g>
<!-- Node2 -->
<g id="Node000002" class="node">
<title>Node2</title>
<g id="a_Node000002"><a xlink:href="classOutputWriter.html#a1479597905031ccc3f547b1d5265ac52" target="_top" xlink:title="Prints the assignment results to the console.">
<polygon fill="white" stroke="#666666" points="404.5,-38 246.5,-38 246.5,-19 404.5,-19 404.5,-38"/>
<text text-anchor="middle" x="325.5" y="-26" font-family="Helvetica,sans-Serif" font-size="10.00">OutputWriter::printToConsole</text>
</a>
</g>
</g>
<!-- Node1&#45;&gt;Node2 -->
<g id="edge1_Node000001_Node000002" class="edge">
<title>Node1&#45;&gt;Node2</title>
<g id="a_edge1_Node000001_Node000002"><a xlink:title=" ">
<path fill="none" stroke="#63b8ff" d="M488.74,-89.44C449.61,-74.74 386.96,-51.21 352.07,-38.1"/>
<polygon fill="#63b8ff" stroke="#63b8ff" points="487.56,-92.74 498.15,-92.98 490.02,-86.18 487.56,-92.74"/>
</a>
</g>
</g>
<!-- Node5 -->
<g id="Node000005" class="node">
<title>Node5</title>
<g id="a_Node000005"><a xlink:href="classOutputWriter.html#a5c8ac7df7471d1b8aa82e5776cc53871" target="_top" xlink:title="Writes the risk analysis results to a separate file.">
<polygon fill="white" stroke="#666666" points="405,-241 246,-241 246,-222 405,-222 405,-241"/>
<text text-anchor="middle" x="325.5" y="-229" font-family="Helvetica,sans-Serif" font-size="10.00">OutputWriter::writeRiskToFile</text>
</a>
</g>
</g>
<!-- Node1&#45;&gt;Node5 -->
<g id="edge4_Node000001_Node000005" class="edge">
<title>Node1&#45;&gt;Node5</title>
<g id="a_edge4_Node000001_Node000005"><a xlink:title=" ">
<path fill="none" stroke="#63b8ff" d="M500.16,-117.79C459.11,-144.67 375.14,-199.65 341.21,-221.87"/>
<polygon fill="#63b8ff" stroke="#63b8ff" points="502.24,-120.6 508.69,-112.2 498.41,-114.75 502.24,-120.6"/>
</a>
</g>
</g>
<!-- Node9 -->
<g id="Node000009" class="node">
<title>Node9</title>
<g id="a_Node000009"><a xlink:href="classOutputWriter.html#a293621b584934c41795c2ada849f90eb" target="_top" xlink:title="Writes the complete assignment output to a file.">
<polygon fill="white" stroke="#666666" points="394.5,-112 256.5,-112 256.5,-93 394.5,-93 394.5,-112"/>
<text text-anchor="middle" x="325.5" y="-100" font-family="Helvetica,sans-Serif" font-size="10.00">OutputWriter::writeToFile</text>
</a>
</g>
</g>
<!-- Node1&#45;&gt;Node9 -->
<g id="edge9_Node000001_Node000009" class="edge">
<title>Node1&#45;&gt;Node9</title>
<g id="a_edge9_Node000001_Node000009"><a xlink:title=" ">
<path fill="none" stroke="#63b8ff" d="M430.66,-102.5C418.53,-102.5 406.28,-102.5 394.66,-102.5"/>
<polygon fill="#63b8ff" stroke="#63b8ff" points="430.81,-106 440.81,-102.5 430.81,-99 430.81,-106"/>
</a>
</g>
</g>
<!-- Node3 -->
<g id="Node000003" class="node">
<title>Node3</title>
<g id="a_Node000003"><a xlink:href="main_8cpp.html#aef0bcc404dd408e438ce7fa09e4ea3f7" target="_top" xlink:title="Executes the program in interactive mode.">
<polygon fill="white" stroke="#666666" points="186,-19 101,-19 101,0 186,0 186,-19"/>
<text text-anchor="middle" x="143.5" y="-7" font-family="Helvetica,sans-Serif" font-size="10.00">runInteractive</text>
</a>
</g>
</g>
<!-- Node2&#45;&gt;Node3 -->
<g id="edge2_Node000002_Node000003" class="edge">
<title>Node2&#45;&gt;Node3</title>
<g id="a_edge2_Node000002_Node000003"><a xlink:title=" ">
<path fill="none" stroke="#63b8ff" d="M236.11,-19.17C218.68,-17.33 201.18,-15.48 186.21,-13.9"/>
<polygon fill="#63b8ff" stroke="#63b8ff" points="236.02,-22.68 246.33,-20.25 236.76,-15.72 236.02,-22.68"/>
</a>
</g>
</g>
<!-- Node4 -->
<g id="Node000004" class="node">
<title>Node4</title>
<g id="a_Node000004"><a xlink:href="main_8cpp.html#a0ddf1224851353fc92bfbff6f499fa97" target="_top" xlink:title="Program entry point.">
<polygon fill="white" stroke="#666666" points="41,-37 0,-37 0,-18 41,-18 41,-37"/>
<text text-anchor="middle" x="20.5" y="-25" font-family="Helvetica,sans-Serif" font-size="10.00">main</text>
</a>
</g>
</g>
<!-- Node3&#45;&gt;Node4 -->
<g id="edge3_Node000003_Node000004" class="edge">
<title>Node3&#45;&gt;Node4</title>
<g id="a_edge3_Node000003_Node000004"><a xlink:title=" ">
<path fill="none" stroke="#63b8ff" d="M90.69,-17.21C73.15,-19.82 54.62,-22.57 41.15,-24.58"/>
<polygon fill="#63b8ff" stroke="#63b8ff" points="91.48,-20.63 100.86,-15.69 90.45,-13.7 91.48,-20.63"/>
</a>
</g>
</g>
<!-- Node6 -->
<g id="Node000006" class="node">
<title>Node6</title>
<g id="a_Node000006"><a xlink:href="test__output_8cpp.html#a24a7f840628b276584f7f09649fa5ccb" target="_top" xlink:title=" ">
<polygon fill="white" stroke="#666666" points="199,-278 88,-278 88,-259 199,-259 199,-278"/>
<text text-anchor="middle" x="143.5" y="-266" font-family="Helvetica,sans-Serif" font-size="10.00">test_output_figure4</text>
</a>
</g>
</g>
<!-- Node5&#45;&gt;Node6 -->
<g id="edge5_Node000005_Node000006" class="edge">
<title>Node5&#45;&gt;Node6</title>
<g id="a_edge5_Node000005_Node000006"><a xlink:title=" ">
<path fill="none" stroke="#63b8ff" d="M268.15,-243.08C243.34,-248.18 214.56,-254.1 191.01,-258.94"/>
<polygon fill="#63b8ff" stroke="#63b8ff" points="269.06,-246.47 278.15,-241.03 267.65,-239.61 269.06,-246.47"/>
</a>
</g>
</g>
<!-- Node8 -->
<g id="Node000008" class="node">
<title>Node8</title>
<g id="a_Node000008"><a xlink:href="test__output_8cpp.html#a8907cb43e3cf97150ebba79a523d26cf" target="_top" xlink:title=" ">
<polygon fill="white" stroke="#666666" points="200,-241 87,-241 87,-222 200,-222 200,-241"/>
<text text-anchor="middle" x="143.5" y="-229" font-family="Helvetica,sans-Serif" font-size="10.00">test_output_no_risk</text>
</a>
</g>
</g>
<!-- Node5&#45;&gt;Node8 -->
<g id="edge7_Node000005_Node000008" class="edge">
<title>Node5&#45;&gt;Node8</title>
<g id="a_edge7_Node000005_Node000008"><a xlink:title=" ">
<path fill="none" stroke="#63b8ff" d="M235.65,-231.5C223.52,-231.5 211.36,-231.5 200.05,-231.5"/>
<polygon fill="#63b8ff" stroke="#63b8ff" points="235.81,-235 245.81,-231.5 235.81,-228 235.81,-235"/>
</a>
</g>
</g>
<!-- Node7 -->
<g id="Node000007" class="node">
<title>Node7</title>
<g id="a_Node000007"><a xlink:href="test__output_8cpp.html#ae66f6b31b5ad750f1fe042a706a4e3d4" target="_top" xlink:title=" ">
<polygon fill="white" stroke="#666666" points="41,-185 0,-185 0,-166 41,-166 41,-185"/>
<text text-anchor="middle" x="20.5" y="-173" font-family="Helvetica,sans-Serif" font-size="10.00">main</text>
</a>
</g>
</g>
<!-- Node6&#45;&gt;Node7 -->
<g id="edge6_Node000006_Node000007" class="edge">
<title>Node6&#45;&gt;Node7</title>
<g id="a_edge6_Node000006_Node000007"><a xlink:title=" ">
<path fill="none" stroke="#63b8ff" d="M84.09,-254.74C81.62,-253.45 79.25,-252.04 77,-250.5 52.02,-233.37 33.92,-201.25 25.98,-185.18"/>
<polygon fill="#63b8ff" stroke="#63b8ff" points="82.75,-257.98 93.31,-258.9 85.63,-251.6 82.75,-257.98"/>
</a>
</g>
</g>
<!-- Node8&#45;&gt;Node7 -->
<g id="edge8_Node000008_Node000007" class="edge">
<title>Node8&#45;&gt;Node7</title>
<g id="a_edge8_Node000008_Node000007"><a xlink:title=" ">
<path fill="none" stroke="#63b8ff" d="M90,-218.76C85.53,-217.17 81.14,-215.42 77,-213.5 60.69,-205.93 43.92,-193.72 33.14,-185.19"/>
<polygon fill="#63b8ff" stroke="#63b8ff" points="89.24,-222.2 99.83,-221.99 91.42,-215.55 89.24,-222.2"/>
</a>
</g>
</g>
<!-- Node9&#45;&gt;Node3 -->
<g id="edge12_Node000009_Node000003" class="edge">
<title>Node9&#45;&gt;Node3</title>
<g id="a_edge12_Node000009_Node000003"><a xlink:title=" ">
<path fill="none" stroke="#63b8ff" d="M304.61,-86.68C282.61,-69.87 245.56,-43.55 210,-27.5 202.48,-24.1 194.17,-21.22 186.07,-18.82"/>
<polygon fill="#63b8ff" stroke="#63b8ff" points="302.49,-89.46 312.54,-92.82 306.78,-83.93 302.49,-89.46"/>
</a>
</g>
</g>
<!-- Node10 -->
<g id="Node000010" class="node">
<title>Node10</title>
<g id="a_Node000010"><a xlink:href="main_8cpp.html#adccc9f5ff7d7a84b4f757ddc2e00c25b" target="_top" xlink:title="Executes the program in batch mode.">
<polygon fill="white" stroke="#666666" points="173.5,-56 113.5,-56 113.5,-37 173.5,-37 173.5,-56"/>
<text text-anchor="middle" x="143.5" y="-44" font-family="Helvetica,sans-Serif" font-size="10.00">runBatch</text>
</a>
</g>
</g>
<!-- Node9&#45;&gt;Node10 -->
<g id="edge10_Node000009_Node000010" class="edge">
<title>Node9&#45;&gt;Node10</title>
<g id="a_edge10_Node000009_Node000010"><a xlink:title=" ">
<path fill="none" stroke="#63b8ff" d="M287.12,-89.55C264.82,-81.96 235.9,-72.35 210,-64.5 198.15,-60.91 185,-57.23 173.61,-54.15"/>
<polygon fill="#63b8ff" stroke="#63b8ff" points="286.27,-92.95 296.86,-92.88 288.54,-86.33 286.27,-92.95"/>
</a>
</g>
</g>
<!-- Node11 -->
<g id="Node000011" class="node">
<title>Node11</title>
<g id="a_Node000011"><a xlink:href="test__output_8cpp.html#ad98b96469ee1c28ab8390957efbc52e5" target="_top" xlink:title=" ">
<polygon fill="white" stroke="#666666" points="210,-167 77,-167 77,-148 210,-148 210,-167"/>
<text text-anchor="middle" x="143.5" y="-155" font-family="Helvetica,sans-Serif" font-size="10.00">test_full_batch_pipeline</text>
</a>
</g>
</g>
<!-- Node9&#45;&gt;Node11 -->
<g id="edge13_Node000009_Node000011" class="edge">
<title>Node9&#45;&gt;Node11</title>
<g id="a_edge13_Node000009_Node000011"><a xlink:title=" ">
<path fill="none" stroke="#63b8ff" d="M286.19,-115.35C264.01,-122.67 235.52,-131.88 210,-139.5 200.4,-142.37 189.95,-145.32 180.28,-147.98"/>
<polygon fill="#63b8ff" stroke="#63b8ff" points="287.51,-118.6 295.91,-112.13 285.31,-111.95 287.51,-118.6"/>
</a>
</g>
</g>
<!-- Node12 -->
<g id="Node000012" class="node">
<title>Node12</title>
<g id="a_Node000012"><a xlink:href="test__output_8cpp.html#ae22f862265d01c0acb3649c247f4a726" target="_top" xlink:title=" ">
<polygon fill="white" stroke="#666666" points="199,-130 88,-130 88,-111 199,-111 199,-130"/>
<text text-anchor="middle" x="143.5" y="-118" font-family="Helvetica,sans-Serif" font-size="10.00">test_output_figure2</text>
</a>
</g>
</g>
<!-- Node9&#45;&gt;Node12 -->
<g id="edge15_Node000009_Node000012" class="edge">
<title>Node9&#45;&gt;Node12</title>
<g id="a_edge15_Node000009_Node000012"><a xlink:title=" ">
<path fill="none" stroke="#63b8ff" d="M246.14,-110.34C230.31,-111.92 214,-113.55 199.2,-115.03"/>
<polygon fill="#63b8ff" stroke="#63b8ff" points="246.85,-113.78 256.45,-109.31 246.15,-106.82 246.85,-113.78"/>
</a>
</g>
</g>
<!-- Node13 -->
<g id="Node000013" class="node">
<title>Node13</title>
<g id="a_Node000013"><a xlink:href="test__output_8cpp.html#a998d4d57520dc3729aada36d40d97db9" target="_top" xlink:title=" ">
<polygon fill="white" stroke="#666666" points="199,-93 88,-93 88,-74 199,-74 199,-93"/>
<text text-anchor="middle" x="143.5" y="-81" font-family="Helvetica,sans-Serif" font-size="10.00">test_output_figure3</text>
</a>
</g>
</g>
<!-- Node9&#45;&gt;Node13 -->
<g id="edge17_Node000009_Node000013" class="edge">
<title>Node9&#45;&gt;Node13</title>
<g id="a_edge17_Node000009_Node000013"><a xlink:title=" ">
<path fill="none" stroke="#63b8ff" d="M246.14,-94.23C230.31,-92.56 214,-90.84 199.2,-89.27"/>
<polygon fill="#63b8ff" stroke="#63b8ff" points="246.14,-97.75 256.45,-95.32 246.87,-90.79 246.14,-97.75"/>
</a>
</g>
</g>
<!-- Node14 -->
<g id="Node000014" class="node">
<title>Node14</title>
<g id="a_Node000014"><a xlink:href="test__output_8cpp.html#aaa716ae6efa6c8bef11ea699a4be56d2" target="_top" xlink:title=" ">
<polygon fill="white" stroke="#666666" points="197.5,-204 89.5,-204 89.5,-185 197.5,-185 197.5,-204"/>
<text text-anchor="middle" x="143.5" y="-192" font-family="Helvetica,sans-Serif" font-size="10.00">test_output_sorted</text>
</a>
</g>
</g>
<!-- Node9&#45;&gt;Node14 -->
<g id="edge19_Node000009_Node000014" class="edge">
<title>Node9&#45;&gt;Node14</title>
<g id="a_edge19_Node000009_Node000014"><a xlink:title=" ">
<path fill="none" stroke="#63b8ff" d="M304.28,-118.32C282.22,-134.89 245.31,-160.69 210,-176.5 202.68,-179.78 194.63,-182.58 186.75,-184.94"/>
<polygon fill="#63b8ff" stroke="#63b8ff" points="306.68,-120.88 312.51,-112.04 302.44,-115.32 306.68,-120.88"/>
</a>
</g>
</g>
<!-- Node10&#45;&gt;Node4 -->
<g id="edge11_Node000010_Node000004" class="edge">
<title>Node10&#45;&gt;Node4</title>
<g id="a_edge11_Node000010_Node000004"><a xlink:title=" ">
<path fill="none" stroke="#63b8ff" d="M103.07,-40.31C82.31,-37.05 57.78,-33.2 41.08,-30.57"/>
<polygon fill="#63b8ff" stroke="#63b8ff" points="102.79,-43.81 113.21,-41.9 103.87,-36.89 102.79,-43.81"/>
</a>
</g>
</g>
<!-- Node11&#45;&gt;Node7 -->
<g id="edge14_Node000011_Node000007" class="edge">
<title>Node11&#45;&gt;Node7</title>
<g id="a_edge14_Node000011_Node000007"><a xlink:title=" ">
<path fill="none" stroke="#63b8ff" d="M68.34,-168.53C58.36,-170.02 48.9,-171.42 41.13,-172.58"/>
<polygon fill="#63b8ff" stroke="#63b8ff" points="69.08,-171.96 78.46,-167.03 68.05,-165.04 69.08,-171.96"/>
</a>
</g>
</g>
<!-- Node12&#45;&gt;Node7 -->
<g id="edge16_Node000012_Node000007" class="edge">
<title>Node12&#45;&gt;Node7</title>
<g id="a_edge16_Node000012_Node000007"><a xlink:title=" ">
<path fill="none" stroke="#63b8ff" d="M92.89,-133.2C87.44,-135.09 82.05,-137.19 77,-139.5 61.33,-146.66 44.97,-157.79 34.11,-165.78"/>
<polygon fill="#63b8ff" stroke="#63b8ff" points="94.25,-136.44 102.68,-130.03 92.09,-129.78 94.25,-136.44"/>
</a>
</g>
</g>
<!-- Node13&#45;&gt;Node7 -->
<g id="edge18_Node000013_Node000007" class="edge">
<title>Node13&#45;&gt;Node7</title>
<g id="a_edge18_Node000013_Node000007"><a xlink:title=" ">
<path fill="none" stroke="#63b8ff" d="M84.1,-97.28C81.63,-98.56 79.25,-99.97 77,-101.5 52.18,-118.4 34,-150.1 26.01,-165.95"/>
<polygon fill="#63b8ff" stroke="#63b8ff" points="85.64,-100.42 93.33,-93.13 82.77,-94.04 85.64,-100.42"/>
</a>
</g>
</g>
<!-- Node14&#45;&gt;Node7 -->
<g id="edge20_Node000014_Node000007" class="edge">
<title>Node14&#45;&gt;Node7</title>
<g id="a_edge20_Node000014_Node000007"><a xlink:title=" ">
<path fill="none" stroke="#63b8ff" d="M79.33,-184.58C65.45,-182.4 51.76,-180.25 41.19,-178.59"/>
<polygon fill="#63b8ff" stroke="#63b8ff" points="79.01,-188.07 89.43,-186.17 80.09,-181.16 79.01,-188.07"/>
</a>
</g>
</g>
</g>
</svg>
