<?xml version="1.0" encoding="UTF-8" standalone="no"?>
<!DOCTYPE svg PUBLIC "-//W3C//DTD SVG 1.1//EN"
 "http://www.w3.org/Graphics/SVG/1.1/DTD/svg11.dtd">
<!-- Generated by graphviz version 2.43.0 (0)
 -->
<!-- Title: Parser::parseControlLine Pages: 1 -->
<svg width="404pt" height="175pt"
 viewBox="0.00 0.00 404.00 175.00" xmlns="http://www.w3.org/2000/svg" xmlns:xlink="http://www.w3.org/1999/xlink">
<g id="graph0" class="graph" transform="scale(1 1) rotate(0) translate(4 171)">
<title>Parser::parseControlLine</title>
<!-- Node1 -->
<g id="Node000001" class="node">
<title>Node1</title>
<g id="a_Node000001"><a xlink:title="Parses a control line: &quot;KeyName, value&quot;.">
<polygon fill="#999999" stroke="#666666" points="135,-93 0,-93 0,-74 135,-74 135,-93"/>
<text text-anchor="middle" x="67.5" y="-81" font-family="Helvetica,sans-Serif" font-size="10.00">Parser::parseControlLine</text>
</a>
</g>
</g>
<!-- Node2 -->
<g id="Node000002" class="node">
<title>Node2</title>
<g id="a_Node000002"><a xlink:href="classParser.html#a54de14fb280b60a07adfbf68c508b767" target="_top" xlink:title="Parses a trimmed token as an integer with error context.">
<polygon fill="white" stroke="#666666" points="287,-167 171,-167 171,-148 287,-148 287,-167"/>
<text text-anchor="middle" x="229" y="-155" font-family="Helvetica,sans-Serif" font-size="10.00">Parser::parseIntField</text>
</a>
</g>
</g>
<!-- Node1&#45;&gt;Node2 -->
<g id="edge1_Node000001_Node000002" class="edge">
<title>Node1&#45;&gt;Node2</title>
<g id="a_edge1_Node000001_Node000002"><a xlink:title=" ">
<path fill="none" stroke="#63b8ff" d="M83.66,-93C103.26,-105.01 138.73,-125.74 171,-139.5 175.19,-141.29 179.63,-142.99 184.1,-144.59"/>
<polygon fill="#63b8ff" stroke="#63b8ff" points="183.25,-148 193.85,-147.9 185.51,-141.37 183.25,-148"/>
</a>
</g>
</g>
<!-- Node3 -->
<g id="Node000003" class="node">
<title>Node3</title>
<g id="a_Node000003"><a xlink:href="classParser.html#aacf502fa084a101374bda3681e0d23bb" target="_top" xlink:title="Splits a CSV line by commas, respecting double&#45;quoted fields.">
<polygon fill="white" stroke="#666666" points="275.5,-130 182.5,-130 182.5,-111 275.5,-111 275.5,-130"/>
<text text-anchor="middle" x="229" y="-118" font-family="Helvetica,sans-Serif" font-size="10.00">Parser::splitCSV</text>
</a>
</g>
</g>
<!-- Node1&#45;&gt;Node3 -->
<g id="edge2_Node000001_Node000003" class="edge">
<title>Node1&#45;&gt;Node3</title>
<g id="a_edge2_Node000001_Node000003"><a xlink:title=" ">
<path fill="none" stroke="#63b8ff" d="M109.58,-93.03C130.15,-97.8 155.25,-103.62 177.04,-108.68"/>
<polygon fill="#63b8ff" stroke="#63b8ff" points="176.25,-112.09 186.79,-110.94 177.84,-105.27 176.25,-112.09"/>
</a>
</g>
</g>
<!-- Node5 -->
<g id="Node000005" class="node">
<title>Node5</title>
<g id="a_Node000005"><a xlink:href="classParser.html#a52df5c3f8fc72a8a486ae35a61d764d1" target="_top" xlink:title="Removes surrounding double quotes from a string value.">
<polygon fill="white" stroke="#666666" points="283.5,-93 174.5,-93 174.5,-74 283.5,-74 283.5,-93"/>
<text text-anchor="middle" x="229" y="-81" font-family="Helvetica,sans-Serif" font-size="10.00">Parser::stripQuotes</text>
</a>
</g>
</g>
<!-- Node1&#45;&gt;Node5 -->
<g id="edge4_Node000001_Node000005" class="edge">
<title>Node1&#45;&gt;Node5</title>
<g id="a_edge4_Node000001_Node000005"><a xlink:title=" ">
<path fill="none" stroke="#63b8ff" d="M135.22,-83.5C144.75,-83.5 154.53,-83.5 164.01,-83.5"/>
<polygon fill="#63b8ff" stroke="#63b8ff" points="164.14,-87 174.14,-83.5 164.14,-80 164.14,-87"/>
</a>
</g>
</g>
<!-- Node6 -->
<g id="Node000006" class="node">
<title>Node6</title>
<g id="a_Node000006"><a xlink:href="classParser.html#a381845570bc3e8444268d1f0165e5c18" target="_top" xlink:title="Converts a string to lowercase (for case&#45;insensitive comparison).">
<polygon fill="white" stroke="#666666" points="275,-56 183,-56 183,-37 275,-37 275,-56"/>
<text text-anchor="middle" x="229" y="-44" font-family="Helvetica,sans-Serif" font-size="10.00">Parser::toLower</text>
</a>
</g>
</g>
<!-- Node1&#45;&gt;Node6 -->
<g id="edge6_Node000001_Node000006" class="edge">
<title>Node1&#45;&gt;Node6</title>
<g id="a_edge6_Node000001_Node000006"><a xlink:title=" ">
<path fill="none" stroke="#63b8ff" d="M109.58,-73.97C130.15,-69.2 155.25,-63.38 177.04,-58.32"/>
<polygon fill="#63b8ff" stroke="#63b8ff" points="177.84,-61.73 186.79,-56.06 176.25,-54.91 177.84,-61.73"/>
</a>
</g>
</g>
<!-- Node7 -->
<g id="Node000007" class="node">
<title>Node7</title>
<g id="a_Node000007"><a xlink:href="domain_8h.html#a0e806904288551ac6c43e2d413164657" target="_top" xlink:title="Converts an integer from the input file to a MatchMode.">
<polygon fill="white" stroke="#666666" points="270.5,-19 187.5,-19 187.5,0 270.5,0 270.5,-19"/>
<text text-anchor="middle" x="229" y="-7" font-family="Helvetica,sans-Serif" font-size="10.00">toMatchMode</text>
</a>
</g>
</g>
<!-- Node1&#45;&gt;Node7 -->
<g id="edge7_Node000001_Node000007" class="edge">
<title>Node1&#45;&gt;Node7</title>
<g id="a_edge7_Node000001_Node000007"><a xlink:title=" ">
<path fill="none" stroke="#63b8ff" d="M84.41,-73.86C104.21,-62.12 139.29,-42.17 171,-28.5 176.03,-26.33 181.39,-24.25 186.74,-22.32"/>
<polygon fill="#63b8ff" stroke="#63b8ff" points="187.98,-25.59 196.28,-19.01 185.68,-18.98 187.98,-25.59"/>
</a>
</g>
</g>
<!-- Node4 -->
<g id="Node000004" class="node">
<title>Node4</title>
<g id="a_Node000004"><a xlink:href="classParser.html#a113f0dfba3013e3dade8b717063ad8a0" target="_top" xlink:title="Trims leading and trailing whitespace from a string.">
<polygon fill="white" stroke="#666666" points="396,-111 323,-111 323,-92 396,-92 396,-111"/>
<text text-anchor="middle" x="359.5" y="-99" font-family="Helvetica,sans-Serif" font-size="10.00">Parser::trim</text>
</a>
</g>
</g>
<!-- Node3&#45;&gt;Node4 -->
<g id="edge3_Node000003_Node000004" class="edge">
<title>Node3&#45;&gt;Node4</title>
<g id="a_edge3_Node000003_Node000004"><a xlink:title=" ">
<path fill="none" stroke="#63b8ff" d="M275.67,-113.75C287.61,-111.98 300.48,-110.08 312.44,-108.31"/>
<polygon fill="#63b8ff" stroke="#63b8ff" points="313.29,-111.72 322.67,-106.8 312.27,-104.8 313.29,-111.72"/>
</a>
</g>
</g>
<!-- Node5&#45;&gt;Node4 -->
<g id="edge5_Node000005_Node000004" class="edge">
<title>Node5&#45;&gt;Node4</title>
<g id="a_edge5_Node000005_Node000004"><a xlink:title=" ">
<path fill="none" stroke="#63b8ff" d="M283.75,-91.03C293.45,-92.39 303.47,-93.79 312.91,-95.11"/>
<polygon fill="#63b8ff" stroke="#63b8ff" points="312.49,-98.59 322.88,-96.51 313.46,-91.66 312.49,-98.59"/>
</a>
</g>
</g>
</g>
</svg>
