<?xml version="1.0" encoding="UTF-8" standalone="no"?>
<!DOCTYPE svg PUBLIC "-//W3C//DTD SVG 1.1//EN"
 "http://www.w3.org/Graphics/SVG/1.1/DTD/svg11.dtd">
<!-- Generated by graphviz version 2.43.0 (0)
 -->
<!-- Title: NetworkBuilder::reviewerNode Pages: 1 -->
<svg width="843pt" height="754pt"
 viewBox="0.00 0.00 843.00 754.00" xmlns="http://www.w3.org/2000/svg" xmlns:xlink="http://www.w3.org/1999/xlink">
<g id="graph0" class="graph" transform="scale(1 1) rotate(0) translate(4 750)">
<title>NetworkBuilder::reviewerNode</title>
<!-- Node1 -->
<g id="Node000001" class="node">
<title>Node1</title>
<g id="a_Node000001"><a xlink:title="Maps a reviewer&#39;s vector index to its graph node ID.">
<polygon fill="#999999" stroke="#666666" points="835,-449 668,-449 668,-430 835,-430 835,-449"/>
<text text-anchor="middle" x="751.5" y="-437" font-family="Helvetica,sans-Serif" font-size="10.00">NetworkBuilder::reviewerNode</text>
</a>
</g>
</g>
<!-- Node2 -->
<g id="Node000002" class="node">
<title>Node2</title>
<g id="a_Node000002"><a xlink:href="classNetworkBuilder.html#af514e79c3d2f21597c54e01c4ce9475d" target="_top" xlink:title="Builds the complete flow network.">
<polygon fill="white" stroke="#666666" points="632,-412 468,-412 468,-393 632,-393 632,-412"/>
<text text-anchor="middle" x="550" y="-400" font-family="Helvetica,sans-Serif" font-size="10.00">NetworkBuilder::buildNetwork</text>
</a>
</g>
</g>
<!-- Node1&#45;&gt;Node2 -->
<g id="edge1_Node000001_Node000002" class="edge">
<title>Node1&#45;&gt;Node2</title>
<g id="a_edge1_Node000001_Node000002"><a xlink:title=" ">
<path fill="none" stroke="#63b8ff" d="M689.14,-428.12C661.4,-422.98 629,-416.97 602.55,-412.06"/>
<polygon fill="#63b8ff" stroke="#63b8ff" points="688.65,-431.59 699.12,-429.97 689.93,-424.71 688.65,-431.59"/>
</a>
</g>
</g>
<!-- Node22 -->
<g id="Node000022" class="node">
<title>Node22</title>
<g id="a_Node000022"><a xlink:href="classSolver.html#ae2ca491c309b717821844e7f2a9ea629" target="_top" xlink:title="Performs Risk Analysis with parameter K = 1.">
<polygon fill="white" stroke="#666666" points="432,-487 268,-487 268,-468 432,-468 432,-487"/>
<text text-anchor="middle" x="350" y="-475" font-family="Helvetica,sans-Serif" font-size="10.00">Solver::solveWithRiskAnalysis</text>
</a>
</g>
</g>
<!-- Node1&#45;&gt;Node22 -->
<g id="edge49_Node000001_Node000022" class="edge">
<title>Node1&#45;&gt;Node22</title>
<g id="a_edge49_Node000001_Node000022"><a xlink:title=" ">
<path fill="none" stroke="#63b8ff" d="M687.77,-450.65C669.81,-453.55 650.17,-456.43 632,-458.5 564.83,-466.14 488.26,-471.07 432.03,-473.99"/>
<polygon fill="#63b8ff" stroke="#63b8ff" points="688.55,-454.07 697.85,-449 687.41,-447.17 688.55,-454.07"/>
</a>
</g>
</g>
<!-- Node28 -->
<g id="Node000028" class="node">
<title>Node28</title>
<g id="a_Node000028"><a xlink:href="classSolver.html#ab064c56e0bda025818ce6f8461dd4e80" target="_top" xlink:title="Extracts the assignment from the solved flow network.">
<polygon fill="white" stroke="#666666" points="609.5,-449 490.5,-449 490.5,-430 609.5,-430 609.5,-449"/>
<text text-anchor="middle" x="550" y="-437" font-family="Helvetica,sans-Serif" font-size="10.00">Solver::extractResult</text>
</a>
</g>
</g>
<!-- Node1&#45;&gt;Node28 -->
<g id="edge46_Node000001_Node000028" class="edge">
<title>Node1&#45;&gt;Node28</title>
<g id="a_edge46_Node000001_Node000028"><a xlink:title=" ">
<path fill="none" stroke="#63b8ff" d="M657.79,-439.5C641.45,-439.5 624.86,-439.5 609.78,-439.5"/>
<polygon fill="#63b8ff" stroke="#63b8ff" points="657.92,-443 667.92,-439.5 657.92,-436 657.92,-443"/>
</a>
</g>
</g>
<!-- Node3 -->
<g id="Node000003" class="node">
<title>Node3</title>
<g id="a_Node000003"><a xlink:href="classSolver.html#a845e12dc97a5d14a365b1e3001aba114" target="_top" xlink:title="Solves the assignment problem for the given data.">
<polygon fill="white" stroke="#666666" points="390,-327 310,-327 310,-308 390,-308 390,-327"/>
<text text-anchor="middle" x="350" y="-315" font-family="Helvetica,sans-Serif" font-size="10.00">Solver::solve</text>
</a>
</g>
</g>
<!-- Node2&#45;&gt;Node3 -->
<g id="edge2_Node000002_Node000003" class="edge">
<title>Node2&#45;&gt;Node3</title>
<g id="a_edge2_Node000002_Node000003"><a xlink:title=" ">
<path fill="none" stroke="#63b8ff" d="M517.31,-388.9C477.01,-371.59 408.42,-342.15 373.25,-327.05"/>
<polygon fill="#63b8ff" stroke="#63b8ff" points="516.1,-392.19 526.67,-392.91 518.86,-385.75 516.1,-392.19"/>
</a>
</g>
</g>
<!-- Node2&#45;&gt;Node22 -->
<g id="edge33_Node000002_Node000022" class="edge">
<title>Node2&#45;&gt;Node22</title>
<g id="a_edge33_Node000002_Node000022"><a xlink:title=" ">
<path fill="none" stroke="#63b8ff" d="M490.79,-414.55C483.05,-416.62 475.28,-418.94 468,-421.5 431.04,-434.51 390.27,-455.7 367.95,-467.95"/>
<polygon fill="#63b8ff" stroke="#63b8ff" points="491.71,-417.93 500.54,-412.07 489.98,-411.14 491.71,-417.93"/>
</a>
</g>
</g>
<!-- Node4 -->
<g id="Node000004" class="node">
<title>Node4</title>
<g id="a_Node000004"><a xlink:href="main_8cpp.html#adccc9f5ff7d7a84b4f757ddc2e00c25b" target="_top" xlink:title="Executes the program in batch mode.">
<polygon fill="white" stroke="#666666" points="184.5,-450 124.5,-450 124.5,-431 184.5,-431 184.5,-450"/>
<text text-anchor="middle" x="154.5" y="-438" font-family="Helvetica,sans-Serif" font-size="10.00">runBatch</text>
</a>
</g>
</g>
<!-- Node3&#45;&gt;Node4 -->
<g id="edge3_Node000003_Node000004" class="edge">
<title>Node3&#45;&gt;Node4</title>
<g id="a_edge3_Node000003_Node000004"><a xlink:title=" ">
<path fill="none" stroke="#63b8ff" d="M334.38,-334.95C313.9,-358.25 274.4,-399.16 232,-421.5 217.35,-429.22 199.46,-433.89 184.66,-436.66"/>
<polygon fill="#63b8ff" stroke="#63b8ff" points="337.16,-337.09 341.03,-327.23 331.85,-332.52 337.16,-337.09"/>
</a>
</g>
</g>
<!-- Node6 -->
<g id="Node000006" class="node">
<title>Node6</title>
<g id="a_Node000006"><a xlink:href="main_8cpp.html#aef0bcc404dd408e438ce7fa09e4ea3f7" target="_top" xlink:title="Executes the program in interactive mode.">
<polygon fill="white" stroke="#666666" points="197,-487 112,-487 112,-468 197,-468 197,-487"/>
<text text-anchor="middle" x="154.5" y="-475" font-family="Helvetica,sans-Serif" font-size="10.00">runInteractive</text>
</a>
</g>
</g>
<!-- Node3&#45;&gt;Node6 -->
<g id="edge5_Node000003_Node000006" class="edge">
<title>Node3&#45;&gt;Node6</title>
<g id="a_edge5_Node000003_Node000006"><a xlink:title=" ">
<path fill="none" stroke="#63b8ff" d="M339.08,-336.12C321.68,-366.87 282.67,-427.99 232,-459.5 221.57,-465.98 209.02,-470.13 197.13,-472.79"/>
<polygon fill="#63b8ff" stroke="#63b8ff" points="342.19,-337.72 343.95,-327.28 336.06,-334.34 342.19,-337.72"/>
</a>
</g>
</g>
<!-- Node7 -->
<g id="Node000007" class="node">
<title>Node7</title>
<g id="a_Node000007"><a xlink:href="test__graph_8cpp.html#aabe34e3298f44b2a590c5785cfb187e8" target="_top" xlink:title=" ">
<polygon fill="white" stroke="#666666" points="211.5,-178.5 97.5,-178.5 97.5,-148.5 211.5,-148.5 211.5,-178.5"/>
<text text-anchor="start" x="105.5" y="-166.5" font-family="Helvetica,sans-Serif" font-size="10.00">test_corner_maxrev</text>
<text text-anchor="middle" x="154.5" y="-155.5" font-family="Helvetica,sans-Serif" font-size="10.00">_bottleneck</text>
</a>
</g>
</g>
<!-- Node3&#45;&gt;Node7 -->
<g id="edge7_Node000003_Node000007" class="edge">
<title>Node3&#45;&gt;Node7</title>
<g id="a_edge7_Node000003_Node000007"><a xlink:title=" ">
<path fill="none" stroke="#63b8ff" d="M337.38,-299.27C318.57,-271.22 278.82,-217.58 232,-187.5 225.79,-183.51 218.88,-180.15 211.81,-177.32"/>
<polygon fill="#63b8ff" stroke="#63b8ff" points="334.52,-301.29 342.93,-307.73 340.37,-297.45 334.52,-301.29"/>
</a>
</g>
</g>
<!-- Node9 -->
<g id="Node000009" class="node">
<title>Node9</title>
<g id="a_Node000009"><a xlink:href="test__graph_8cpp.html#afb6fc70c45804d5516d4936ec4115cd1" target="_top" xlink:title=" ">
<polygon fill="white" stroke="#666666" points="225.5,-130 83.5,-130 83.5,-111 225.5,-111 225.5,-130"/>
<text text-anchor="middle" x="154.5" y="-118" font-family="Helvetica,sans-Serif" font-size="10.00">test_corner_no_reviewers</text>
</a>
</g>
</g>
<!-- Node3&#45;&gt;Node9 -->
<g id="edge9_Node000003_Node000009" class="edge">
<title>Node3&#45;&gt;Node9</title>
<g id="a_edge9_Node000003_Node000009"><a xlink:title=" ">
<path fill="none" stroke="#63b8ff" d="M342.01,-298.46C327.49,-261.7 290.5,-180.94 232,-139.5 226.53,-135.62 220.35,-132.54 213.93,-130.07"/>
<polygon fill="#63b8ff" stroke="#63b8ff" points="338.81,-299.88 345.65,-307.98 345.34,-297.38 338.81,-299.88"/>
</a>
</g>
</g>
<!-- Node10 -->
<g id="Node000010" class="node">
<title>Node10</title>
<g id="a_Node000010"><a xlink:href="test__graph_8cpp.html#acdaff2524640ac8e6e9644e7106b04ba" target="_top" xlink:title=" ">
<polygon fill="white" stroke="#666666" points="232,-93 77,-93 77,-74 232,-74 232,-93"/>
<text text-anchor="middle" x="154.5" y="-81" font-family="Helvetica,sans-Serif" font-size="10.00">test_corner_no_submissions</text>
</a>
</g>
</g>
<!-- Node3&#45;&gt;Node10 -->
<g id="edge11_Node000003_Node000010" class="edge">
<title>Node3&#45;&gt;Node10</title>
<g id="a_edge11_Node000003_Node000010"><a xlink:title=" ">
<path fill="none" stroke="#63b8ff" d="M344.32,-298.21C332.93,-255.61 299.63,-153.21 232,-101.5 227.56,-98.1 222.57,-95.33 217.34,-93.07"/>
<polygon fill="#63b8ff" stroke="#63b8ff" points="340.93,-299.08 346.8,-307.9 347.71,-297.35 340.93,-299.08"/>
</a>
</g>
</g>
<!-- Node11 -->
<g id="Node000011" class="node">
<title>Node11</title>
<g id="a_Node000011"><a xlink:href="test__graph_8cpp.html#ae160a573baa527c8e420eddbce3cab30" target="_top" xlink:title=" ">
<polygon fill="white" stroke="#666666" points="212,-56 97,-56 97,-37 212,-37 212,-56"/>
<text text-anchor="middle" x="154.5" y="-44" font-family="Helvetica,sans-Serif" font-size="10.00">test_full_integration</text>
</a>
</g>
</g>
<!-- Node3&#45;&gt;Node11 -->
<g id="edge13_Node000003_Node000011" class="edge">
<title>Node3&#45;&gt;Node11</title>
<g id="a_edge13_Node000003_Node000011"><a xlink:title=" ">
<path fill="none" stroke="#63b8ff" d="M345.91,-297.92C337.28,-250.11 308.37,-126.81 232,-64.5 226.19,-59.76 219.34,-56.22 212.17,-53.59"/>
<polygon fill="#63b8ff" stroke="#63b8ff" points="342.47,-298.62 347.6,-307.89 349.38,-297.44 342.47,-298.62"/>
</a>
</g>
</g>
<!-- Node12 -->
<g id="Node000012" class="node">
<title>Node12</title>
<g id="a_Node000012"><a xlink:href="test__output_8cpp.html#ae22f862265d01c0acb3649c247f4a726" target="_top" xlink:title=" ">
<polygon fill="white" stroke="#666666" points="210,-598 99,-598 99,-579 210,-579 210,-598"/>
<text text-anchor="middle" x="154.5" y="-586" font-family="Helvetica,sans-Serif" font-size="10.00">test_output_figure2</text>
</a>
</g>
</g>
<!-- Node3&#45;&gt;Node12 -->
<g id="edge15_Node000003_Node000012" class="edge">
<title>Node3&#45;&gt;Node12</title>
<g id="a_edge15_Node000003_Node000012"><a xlink:title=" ">
<path fill="none" stroke="#63b8ff" d="M337,-335.69C319.96,-362.11 288.53,-413.03 268,-459.5 247.04,-506.94 270.15,-535.37 232,-570.5 225.88,-576.14 218.33,-580.11 210.38,-582.89"/>
<polygon fill="#63b8ff" stroke="#63b8ff" points="340.06,-337.41 342.58,-327.12 334.19,-333.59 340.06,-337.41"/>
</a>
</g>
</g>
<!-- Node14 -->
<g id="Node000014" class="node">
<title>Node14</title>
<g id="a_Node000014"><a xlink:href="test__output_8cpp.html#a998d4d57520dc3729aada36d40d97db9" target="_top" xlink:title=" ">
<polygon fill="white" stroke="#666666" points="210,-561 99,-561 99,-542 210,-542 210,-561"/>
<text text-anchor="middle" x="154.5" y="-549" font-family="Helvetica,sans-Serif" font-size="10.00">test_output_figure3</text>
</a>
</g>
</g>
<!-- Node3&#45;&gt;Node14 -->
<g id="edge17_Node000003_Node000014" class="edge">
<title>Node3&#45;&gt;Node14</title>
<g id="a_edge17_Node000003_Node000014"><a xlink:title=" ">
<path fill="none" stroke="#63b8ff" d="M338.1,-335.71C322.17,-362.52 291.83,-414.34 268,-459.5 250.93,-491.85 260.56,-510.66 232,-533.5 225.61,-538.61 218.01,-542.32 210.12,-544.99"/>
<polygon fill="#63b8ff" stroke="#63b8ff" points="341.17,-337.4 343.28,-327.02 335.15,-333.82 341.17,-337.4"/>
</a>
</g>
</g>
<!-- Node15 -->
<g id="Node000015" class="node">
<title>Node15</title>
<g id="a_Node000015"><a xlink:href="test__output_8cpp.html#aaa716ae6efa6c8bef11ea699a4be56d2" target="_top" xlink:title=" ">
<polygon fill="white" stroke="#666666" points="208.5,-524 100.5,-524 100.5,-505 208.5,-505 208.5,-524"/>
<text text-anchor="middle" x="154.5" y="-512" font-family="Helvetica,sans-Serif" font-size="10.00">test_output_sorted</text>
</a>
</g>
</g>
<!-- Node3&#45;&gt;Node15 -->
<g id="edge19_Node000003_Node000015" class="edge">
<title>Node3&#45;&gt;Node15</title>
<g id="a_edge19_Node000003_Node000015"><a xlink:title=" ">
<path fill="none" stroke="#63b8ff" d="M339.17,-336.1C316.97,-377.46 262.47,-475.14 232,-496.5 225.07,-501.36 217.02,-504.92 208.78,-507.52"/>
<polygon fill="#63b8ff" stroke="#63b8ff" points="342.36,-337.56 343.98,-327.09 336.18,-334.26 342.36,-337.56"/>
</a>
</g>
</g>
<!-- Node16 -->
<g id="Node000016" class="node">
<title>Node16</title>
<g id="a_Node000016"><a xlink:href="test__graph_8cpp.html#a2bd07a82f32ec21b6fa28a86ee9bf941" target="_top" xlink:title=" ">
<polygon fill="white" stroke="#666666" points="218,-19 91,-19 91,0 218,0 218,-19"/>
<text text-anchor="middle" x="154.5" y="-7" font-family="Helvetica,sans-Serif" font-size="10.00">test_secondary_match</text>
</a>
</g>
</g>
<!-- Node3&#45;&gt;Node16 -->
<g id="edge21_Node000003_Node000016" class="edge">
<title>Node3&#45;&gt;Node16</title>
<g id="a_edge21_Node000003_Node000016"><a xlink:title=" ">
<path fill="none" stroke="#63b8ff" d="M347.18,-297.96C341.21,-245.53 317.4,-100.79 232,-27.5 227.86,-23.95 223.14,-21.06 218.14,-18.73"/>
<polygon fill="#63b8ff" stroke="#63b8ff" points="343.7,-298.36 348.22,-307.94 350.67,-297.63 343.7,-298.36"/>
</a>
</g>
</g>
<!-- Node17 -->
<g id="Node000017" class="node">
<title>Node17</title>
<g id="a_Node000017"><a xlink:href="test__graph_8cpp.html#a0b2b929f3f92ed72ebb706539ba28f72" target="_top" xlink:title=" ">
<polygon fill="white" stroke="#666666" points="209.5,-364 99.5,-364 99.5,-345 209.5,-345 209.5,-364"/>
<text text-anchor="middle" x="154.5" y="-352" font-family="Helvetica,sans-Serif" font-size="10.00">test_solver_figure1</text>
</a>
</g>
</g>
<!-- Node3&#45;&gt;Node17 -->
<g id="edge23_Node000003_Node000017" class="edge">
<title>Node3&#45;&gt;Node17</title>
<g id="a_edge23_Node000003_Node000017"><a xlink:title=" ">
<path fill="none" stroke="#63b8ff" d="M299.94,-326.88C270.96,-332.42 234.39,-339.42 205.29,-344.98"/>
<polygon fill="#63b8ff" stroke="#63b8ff" points="300.68,-330.3 309.84,-324.99 299.36,-323.43 300.68,-330.3"/>
</a>
</g>
</g>
<!-- Node18 -->
<g id="Node000018" class="node">
<title>Node18</title>
<g id="a_Node000018"><a xlink:href="test__graph_8cpp.html#ae08b5e2d9ec151376641907871fb6d1a" target="_top" xlink:title=" ">
<polygon fill="white" stroke="#666666" points="212.5,-327 96.5,-327 96.5,-308 212.5,-308 212.5,-327"/>
<text text-anchor="middle" x="154.5" y="-315" font-family="Helvetica,sans-Serif" font-size="10.00">test_solver_minrev2</text>
</a>
</g>
</g>
<!-- Node3&#45;&gt;Node18 -->
<g id="edge25_Node000003_Node000018" class="edge">
<title>Node3&#45;&gt;Node18</title>
<g id="a_edge25_Node000003_Node000018"><a xlink:title=" ">
<path fill="none" stroke="#63b8ff" d="M299.63,-317.5C273.09,-317.5 240.22,-317.5 212.58,-317.5"/>
<polygon fill="#63b8ff" stroke="#63b8ff" points="299.84,-321 309.84,-317.5 299.84,-314 299.84,-321"/>
</a>
</g>
</g>
<!-- Node19 -->
<g id="Node000019" class="node">
<title>Node19</title>
<g id="a_Node000019"><a xlink:href="test__graph_8cpp.html#ac64ff524d61b175dce290be1685ae797" target="_top" xlink:title=" ">
<polygon fill="white" stroke="#666666" points="226,-290 83,-290 83,-271 226,-271 226,-290"/>
<text text-anchor="middle" x="154.5" y="-278" font-family="Helvetica,sans-Serif" font-size="10.00">test_solver_multi_domain</text>
</a>
</g>
</g>
<!-- Node3&#45;&gt;Node19 -->
<g id="edge27_Node000003_Node000019" class="edge">
<title>Node3&#45;&gt;Node19</title>
<g id="a_edge27_Node000003_Node000019"><a xlink:title=" ">
<path fill="none" stroke="#63b8ff" d="M299.94,-308.12C270.96,-302.58 234.39,-295.58 205.29,-290.02"/>
<polygon fill="#63b8ff" stroke="#63b8ff" points="299.36,-311.57 309.84,-310.01 300.68,-304.7 299.36,-311.57"/>
</a>
</g>
</g>
<!-- Node20 -->
<g id="Node000020" class="node">
<title>Node20</title>
<g id="a_Node000020"><a xlink:href="test__graph_8cpp.html#ad31c62f747c428536c260667126eae66" target="_top" xlink:title=" ">
<polygon fill="white" stroke="#666666" points="208,-253 101,-253 101,-234 208,-234 208,-253"/>
<text text-anchor="middle" x="154.5" y="-241" font-family="Helvetica,sans-Serif" font-size="10.00">test_solver_partial</text>
</a>
</g>
</g>
<!-- Node3&#45;&gt;Node20 -->
<g id="edge29_Node000003_Node000020" class="edge">
<title>Node3&#45;&gt;Node20</title>
<g id="a_edge29_Node000003_Node000020"><a xlink:title=" ">
<path fill="none" stroke="#63b8ff" d="M323.17,-303.14C299.91,-290.7 264.48,-272.94 232,-261.5 222.86,-258.28 212.91,-255.46 203.3,-253.07"/>
<polygon fill="#63b8ff" stroke="#63b8ff" points="321.59,-306.27 332.05,-307.95 324.93,-300.11 321.59,-306.27"/>
</a>
</g>
</g>
<!-- Node21 -->
<g id="Node000021" class="node">
<title>Node21</title>
<g id="a_Node000021"><a xlink:href="test__graph_8cpp.html#aca441d5ebe3894bca1449f02e0fd8e48" target="_top" xlink:title=" ">
<polygon fill="white" stroke="#666666" points="189.5,-216 119.5,-216 119.5,-197 189.5,-197 189.5,-216"/>
<text text-anchor="middle" x="154.5" y="-204" font-family="Helvetica,sans-Serif" font-size="10.00">test_stress</text>
</a>
</g>
</g>
<!-- Node3&#45;&gt;Node21 -->
<g id="edge31_Node000003_Node000021" class="edge">
<title>Node3&#45;&gt;Node21</title>
<g id="a_edge31_Node000003_Node000021"><a xlink:title=" ">
<path fill="none" stroke="#63b8ff" d="M332.78,-300.65C311.58,-279.63 272.37,-244.07 232,-224.5 218.86,-218.13 203.34,-213.94 189.73,-211.22"/>
<polygon fill="#63b8ff" stroke="#63b8ff" points="330.47,-303.29 339.99,-307.93 335.44,-298.37 330.47,-303.29"/>
</a>
</g>
</g>
<!-- Node5 -->
<g id="Node000005" class="node">
<title>Node5</title>
<g id="a_Node000005"><a xlink:href="main_8cpp.html#a0ddf1224851353fc92bfbff6f499fa97" target="_top" xlink:title="Program entry point.">
<polygon fill="white" stroke="#666666" points="41,-468 0,-468 0,-449 41,-449 41,-468"/>
<text text-anchor="middle" x="20.5" y="-456" font-family="Helvetica,sans-Serif" font-size="10.00">main</text>
</a>
</g>
</g>
<!-- Node4&#45;&gt;Node5 -->
<g id="edge4_Node000004_Node000005" class="edge">
<title>Node4&#45;&gt;Node5</title>
<g id="a_edge4_Node000004_Node000005"><a xlink:title=" ">
<path fill="none" stroke="#63b8ff" d="M113.98,-445.89C90.01,-449.16 60.46,-453.19 41.31,-455.8"/>
<polygon fill="#63b8ff" stroke="#63b8ff" points="114.77,-449.31 124.2,-444.49 113.82,-442.38 114.77,-449.31"/>
</a>
</g>
</g>
<!-- Node6&#45;&gt;Node5 -->
<g id="edge6_Node000006_Node000005" class="edge">
<title>Node6&#45;&gt;Node5</title>
<g id="a_edge6_Node000006_Node000005"><a xlink:title=" ">
<path fill="none" stroke="#63b8ff" d="M101.55,-470.02C80.39,-466.98 57.21,-463.64 41.26,-461.34"/>
<polygon fill="#63b8ff" stroke="#63b8ff" points="101.34,-473.53 111.73,-471.49 102.34,-466.6 101.34,-473.53"/>
</a>
</g>
</g>
<!-- Node8 -->
<g id="Node000008" class="node">
<title>Node8</title>
<g id="a_Node000008"><a xlink:href="test__graph_8cpp.html#ae66f6b31b5ad750f1fe042a706a4e3d4" target="_top" xlink:title=" ">
<polygon fill="white" stroke="#666666" points="41,-235 0,-235 0,-216 41,-216 41,-235"/>
<text text-anchor="middle" x="20.5" y="-223" font-family="Helvetica,sans-Serif" font-size="10.00">main</text>
</a>
</g>
</g>
<!-- Node7&#45;&gt;Node8 -->
<g id="edge8_Node000007_Node000008" class="edge">
<title>Node7&#45;&gt;Node8</title>
<g id="a_edge8_Node000007_Node000008"><a xlink:title=" ">
<path fill="none" stroke="#63b8ff" d="M88.84,-182.26C84.78,-183.91 80.8,-185.65 77,-187.5 60.82,-195.36 44.03,-207.51 33.21,-215.95"/>
<polygon fill="#63b8ff" stroke="#63b8ff" points="90.31,-185.45 98.4,-178.61 87.81,-178.91 90.31,-185.45"/>
</a>
</g>
</g>
<!-- Node9&#45;&gt;Node8 -->
<g id="edge10_Node000009_Node000008" class="edge">
<title>Node9&#45;&gt;Node8</title>
<g id="a_edge10_Node000009_Node000008"><a xlink:title=" ">
<path fill="none" stroke="#63b8ff" d="M85.66,-134.23C82.63,-135.8 79.73,-137.55 77,-139.5 49.24,-159.34 31.9,-197.79 24.97,-215.78"/>
<polygon fill="#63b8ff" stroke="#63b8ff" points="87.34,-137.31 95.04,-130.03 84.48,-130.92 87.34,-137.31"/>
</a>
</g>
</g>
<!-- Node10&#45;&gt;Node8 -->
<g id="edge12_Node000010_Node000008" class="edge">
<title>Node10&#45;&gt;Node8</title>
<g id="a_edge12_Node000010_Node000008"><a xlink:title=" ">
<path fill="none" stroke="#63b8ff" d="M81.82,-97.94C80.15,-99.04 78.54,-100.23 77,-101.5 40.09,-132 26.82,-192.1 22.91,-215.68"/>
<polygon fill="#63b8ff" stroke="#63b8ff" points="83.57,-100.97 90.63,-93.07 80.18,-94.85 83.57,-100.97"/>
</a>
</g>
</g>
<!-- Node11&#45;&gt;Node8 -->
<g id="edge14_Node000011_Node000008" class="edge">
<title>Node11&#45;&gt;Node8</title>
<g id="a_edge14_Node000011_Node000008"><a xlink:title=" ">
<path fill="none" stroke="#63b8ff" d="M87.55,-57.1C83.75,-59.17 80.19,-61.62 77,-64.5 30.94,-106.13 23.1,-187.8 21.77,-215.81"/>
<polygon fill="#63b8ff" stroke="#63b8ff" points="89.1,-60.24 96.76,-52.91 86.21,-53.86 89.1,-60.24"/>
</a>
</g>
</g>
<!-- Node13 -->
<g id="Node000013" class="node">
<title>Node13</title>
<g id="a_Node000013"><a xlink:href="test__output_8cpp.html#ae66f6b31b5ad750f1fe042a706a4e3d4" target="_top" xlink:title=" ">
<polygon fill="white" stroke="#666666" points="41,-635 0,-635 0,-616 41,-616 41,-635"/>
<text text-anchor="middle" x="20.5" y="-623" font-family="Helvetica,sans-Serif" font-size="10.00">main</text>
</a>
</g>
</g>
<!-- Node12&#45;&gt;Node13 -->
<g id="edge16_Node000012_Node000013" class="edge">
<title>Node12&#45;&gt;Node13</title>
<g id="a_edge16_Node000012_Node000013"><a xlink:title=" ">
<path fill="none" stroke="#63b8ff" d="M103.14,-600.47C94.39,-602.71 85.41,-605.09 77,-607.5 65.02,-610.93 51.74,-615.21 41.18,-618.75"/>
<polygon fill="#63b8ff" stroke="#63b8ff" points="104.02,-603.86 112.86,-598.03 102.31,-597.07 104.02,-603.86"/>
</a>
</g>
</g>
<!-- Node14&#45;&gt;Node13 -->
<g id="edge18_Node000014_Node000013" class="edge">
<title>Node14&#45;&gt;Node13</title>
<g id="a_edge18_Node000014_Node000013"><a xlink:title=" ">
<path fill="none" stroke="#63b8ff" d="M89.66,-564.51C85.26,-566.27 81,-568.25 77,-570.5 56.42,-582.07 38.18,-603.32 28.6,-615.75"/>
<polygon fill="#63b8ff" stroke="#63b8ff" points="91.17,-567.69 99.42,-561.04 88.82,-561.09 91.17,-567.69"/>
</a>
</g>
</g>
<!-- Node15&#45;&gt;Node13 -->
<g id="edge20_Node000015_Node000013" class="edge">
<title>Node15&#45;&gt;Node13</title>
<g id="a_edge20_Node000015_Node000013"><a xlink:title=" ">
<path fill="none" stroke="#63b8ff" d="M90.81,-525.58C85.91,-527.77 81.23,-530.38 77,-533.5 47.73,-555.1 30.85,-597.17 24.47,-616"/>
<polygon fill="#63b8ff" stroke="#63b8ff" points="92.37,-528.74 100.45,-521.89 89.86,-522.2 92.37,-528.74"/>
</a>
</g>
</g>
<!-- Node16&#45;&gt;Node8 -->
<g id="edge22_Node000016_Node000008" class="edge">
<title>Node16&#45;&gt;Node8</title>
<g id="a_edge22_Node000016_Node000008"><a xlink:title=" ">
<path fill="none" stroke="#63b8ff" d="M81.81,-23.47C80.12,-24.71 78.51,-26.05 77,-27.5 21.59,-80.62 20.11,-184.17 21.05,-215.98"/>
<polygon fill="#63b8ff" stroke="#63b8ff" points="84.03,-26.22 90.8,-18.07 80.43,-20.21 84.03,-26.22"/>
</a>
</g>
</g>
<!-- Node17&#45;&gt;Node8 -->
<g id="edge24_Node000017_Node000008" class="edge">
<title>Node17&#45;&gt;Node8</title>
<g id="a_edge24_Node000017_Node000008"><a xlink:title=" ">
<path fill="none" stroke="#63b8ff" d="M89.73,-343.37C85.18,-341.19 80.87,-338.59 77,-335.5 43.56,-308.82 28.5,-256.69 23.5,-235.16"/>
<polygon fill="#63b8ff" stroke="#63b8ff" points="88.74,-346.75 99.32,-347.28 91.38,-340.26 88.74,-346.75"/>
</a>
</g>
</g>
<!-- Node18&#45;&gt;Node8 -->
<g id="edge26_Node000018_Node000008" class="edge">
<title>Node18&#45;&gt;Node8</title>
<g id="a_edge26_Node000018_Node000008"><a xlink:title=" ">
<path fill="none" stroke="#63b8ff" d="M87.02,-304.08C83.52,-302.43 80.16,-300.58 77,-298.5 52.26,-282.22 34.17,-251.06 26.13,-235.24"/>
<polygon fill="#63b8ff" stroke="#63b8ff" points="85.93,-307.42 96.51,-307.99 88.6,-300.94 85.93,-307.42"/>
</a>
</g>
</g>
<!-- Node19&#45;&gt;Node8 -->
<g id="edge28_Node000019_Node000008" class="edge">
<title>Node19&#45;&gt;Node8</title>
<g id="a_edge28_Node000019_Node000008"><a xlink:title=" ">
<path fill="none" stroke="#63b8ff" d="M94.89,-268.09C88.75,-266.16 82.68,-263.97 77,-261.5 60.99,-254.55 44.42,-243.16 33.61,-235.06"/>
<polygon fill="#63b8ff" stroke="#63b8ff" points="93.96,-271.46 104.54,-270.91 95.93,-264.74 93.96,-271.46"/>
</a>
</g>
</g>
<!-- Node20&#45;&gt;Node8 -->
<g id="edge30_Node000020_Node000008" class="edge">
<title>Node20&#45;&gt;Node8</title>
<g id="a_edge30_Node000020_Node000008"><a xlink:title=" ">
<path fill="none" stroke="#63b8ff" d="M91.01,-234.98C72.98,-232.52 54.6,-230.01 41.27,-228.2"/>
<polygon fill="#63b8ff" stroke="#63b8ff" points="90.57,-238.45 100.95,-236.33 91.52,-231.52 90.57,-238.45"/>
</a>
</g>
</g>
<!-- Node21&#45;&gt;Node8 -->
<g id="edge32_Node000021_Node000008" class="edge">
<title>Node21&#45;&gt;Node8</title>
<g id="a_edge32_Node000021_Node000008"><a xlink:title=" ">
<path fill="none" stroke="#63b8ff" d="M109.25,-212.87C86.22,-216.18 59.23,-220.07 41.32,-222.65"/>
<polygon fill="#63b8ff" stroke="#63b8ff" points="109.76,-216.33 119.16,-211.44 108.77,-209.4 109.76,-216.33"/>
</a>
</g>
</g>
<!-- Node22&#45;&gt;Node4 -->
<g id="edge34_Node000022_Node000004" class="edge">
<title>Node22&#45;&gt;Node4</title>
<g id="a_edge34_Node000022_Node000004"><a xlink:title=" ">
<path fill="none" stroke="#63b8ff" d="M289.13,-466.05C254.42,-459.42 212.27,-451.36 184.71,-446.09"/>
<polygon fill="#63b8ff" stroke="#63b8ff" points="288.69,-469.53 299.17,-467.97 290,-462.66 288.69,-469.53"/>
</a>
</g>
</g>
<!-- Node22&#45;&gt;Node6 -->
<g id="edge35_Node000022_Node000006" class="edge">
<title>Node22&#45;&gt;Node6</title>
<g id="a_edge35_Node000022_Node000006"><a xlink:title=" ">
<path fill="none" stroke="#63b8ff" d="M257.75,-477.5C236.56,-477.5 215.01,-477.5 197.19,-477.5"/>
<polygon fill="#63b8ff" stroke="#63b8ff" points="257.78,-481 267.78,-477.5 257.78,-474 257.78,-481"/>
</a>
</g>
</g>
<!-- Node23 -->
<g id="Node000023" class="node">
<title>Node23</title>
<g id="a_Node000023"><a xlink:href="test__output_8cpp.html#ad98b96469ee1c28ab8390957efbc52e5" target="_top" xlink:title=" ">
<polygon fill="white" stroke="#666666" points="221,-746 88,-746 88,-727 221,-727 221,-746"/>
<text text-anchor="middle" x="154.5" y="-734" font-family="Helvetica,sans-Serif" font-size="10.00">test_full_batch_pipeline</text>
</a>
</g>
</g>
<!-- Node22&#45;&gt;Node23 -->
<g id="edge36_Node000022_Node000023" class="edge">
<title>Node22&#45;&gt;Node23</title>
<g id="a_edge36_Node000022_Node000023"><a xlink:title=" ">
<path fill="none" stroke="#63b8ff" d="M345.41,-497.09C335.89,-543.32 305.47,-659.7 232,-718.5 227.74,-721.91 222.94,-724.69 217.88,-726.96"/>
<polygon fill="#63b8ff" stroke="#63b8ff" points="348.87,-497.65 347.36,-487.16 342,-496.3 348.87,-497.65"/>
</a>
</g>
</g>
<!-- Node24 -->
<g id="Node000024" class="node">
<title>Node24</title>
<g id="a_Node000024"><a xlink:href="test__output_8cpp.html#a24a7f840628b276584f7f09649fa5ccb" target="_top" xlink:title=" ">
<polygon fill="white" stroke="#666666" points="210,-709 99,-709 99,-690 210,-690 210,-709"/>
<text text-anchor="middle" x="154.5" y="-697" font-family="Helvetica,sans-Serif" font-size="10.00">test_output_figure4</text>
</a>
</g>
</g>
<!-- Node22&#45;&gt;Node24 -->
<g id="edge38_Node000022_Node000024" class="edge">
<title>Node22&#45;&gt;Node24</title>
<g id="a_edge38_Node000022_Node000024"><a xlink:title=" ">
<path fill="none" stroke="#63b8ff" d="M343.66,-496.82C331.31,-537.71 296.77,-633.22 232,-681.5 225.55,-686.31 218,-689.86 210.22,-692.47"/>
<polygon fill="#63b8ff" stroke="#63b8ff" points="347.07,-497.6 346.5,-487.02 340.35,-495.65 347.07,-497.6"/>
</a>
</g>
</g>
<!-- Node25 -->
<g id="Node000025" class="node">
<title>Node25</title>
<g id="a_Node000025"><a xlink:href="test__output_8cpp.html#a8907cb43e3cf97150ebba79a523d26cf" target="_top" xlink:title=" ">
<polygon fill="white" stroke="#666666" points="211,-672 98,-672 98,-653 211,-653 211,-672"/>
<text text-anchor="middle" x="154.5" y="-660" font-family="Helvetica,sans-Serif" font-size="10.00">test_output_no_risk</text>
</a>
</g>
</g>
<!-- Node22&#45;&gt;Node25 -->
<g id="edge40_Node000022_Node000025" class="edge">
<title>Node22&#45;&gt;Node25</title>
<g id="a_edge40_Node000022_Node000025"><a xlink:title=" ">
<path fill="none" stroke="#63b8ff" d="M341.08,-496.88C325.64,-532.11 288.04,-606.54 232,-644.5 225.67,-648.79 218.46,-652.06 211.04,-654.55"/>
<polygon fill="#63b8ff" stroke="#63b8ff" points="344.47,-497.86 345.16,-487.28 338.03,-495.12 344.47,-497.86"/>
</a>
</g>
</g>
<!-- Node26 -->
<g id="Node000026" class="node">
<title>Node26</title>
<g id="a_Node000026"><a xlink:href="test__graph_8cpp.html#ac3ef62920e5b4df04a4b81489aacc664" target="_top" xlink:title=" ">
<polygon fill="white" stroke="#666666" points="215.5,-635 93.5,-635 93.5,-616 215.5,-616 215.5,-635"/>
<text text-anchor="middle" x="154.5" y="-623" font-family="Helvetica,sans-Serif" font-size="10.00">test_risk_analysis_k1</text>
</a>
</g>
</g>
<!-- Node22&#45;&gt;Node26 -->
<g id="edge42_Node000022_Node000026" class="edge">
<title>Node22&#45;&gt;Node26</title>
<g id="a_edge42_Node000022_Node000026"><a xlink:title=" ">
<path fill="none" stroke="#63b8ff" d="M337.9,-495.73C319.56,-524.22 280.12,-579.01 232,-607.5 226.25,-610.91 219.89,-613.67 213.38,-615.91"/>
<polygon fill="#63b8ff" stroke="#63b8ff" points="340.94,-497.48 343.3,-487.15 335.01,-493.75 340.94,-497.48"/>
</a>
</g>
</g>
<!-- Node27 -->
<g id="Node000027" class="node">
<title>Node27</title>
<g id="a_Node000027"><a xlink:href="test__graph_8cpp.html#a87c4bbb43e141d16aadf387d84e8f461" target="_top" xlink:title=" ">
<polygon fill="white" stroke="#666666" points="206.5,-412.5 102.5,-412.5 102.5,-382.5 206.5,-382.5 206.5,-412.5"/>
<text text-anchor="start" x="110.5" y="-400.5" font-family="Helvetica,sans-Serif" font-size="10.00">test_risk_analysis</text>
<text text-anchor="middle" x="154.5" y="-389.5" font-family="Helvetica,sans-Serif" font-size="10.00">_redundant</text>
</a>
</g>
</g>
<!-- Node22&#45;&gt;Node27 -->
<g id="edge44_Node000022_Node000027" class="edge">
<title>Node22&#45;&gt;Node27</title>
<g id="a_edge44_Node000022_Node000027"><a xlink:title=" ">
<path fill="none" stroke="#63b8ff" d="M321.25,-463.27C297.81,-451.53 263.17,-434.87 232,-422.5 223.3,-419.05 213.91,-415.69 204.79,-412.61"/>
<polygon fill="#63b8ff" stroke="#63b8ff" points="319.76,-466.43 330.27,-467.81 322.91,-460.18 319.76,-466.43"/>
</a>
</g>
</g>
<!-- Node23&#45;&gt;Node13 -->
<g id="edge37_Node000023_Node000013" class="edge">
<title>Node23&#45;&gt;Node13</title>
<g id="a_edge37_Node000023_Node000013"><a xlink:title=" ">
<path fill="none" stroke="#63b8ff" d="M82.88,-722.32C80.85,-721.15 78.88,-719.88 77,-718.5 47.42,-696.84 30.7,-654.22 24.41,-635.14"/>
<polygon fill="#63b8ff" stroke="#63b8ff" points="81.68,-725.63 92.2,-726.89 84.76,-719.34 81.68,-725.63"/>
</a>
</g>
</g>
<!-- Node24&#45;&gt;Node13 -->
<g id="edge39_Node000024_Node000013" class="edge">
<title>Node24&#45;&gt;Node13</title>
<g id="a_edge39_Node000024_Node000013"><a xlink:title=" ">
<path fill="none" stroke="#63b8ff" d="M89.41,-687.32C85.1,-685.63 80.92,-683.7 77,-681.5 55.98,-669.73 37.63,-647.67 28.21,-635.04"/>
<polygon fill="#63b8ff" stroke="#63b8ff" points="88.39,-690.67 98.99,-690.67 90.7,-684.07 88.39,-690.67"/>
</a>
</g>
</g>
<!-- Node25&#45;&gt;Node13 -->
<g id="edge41_Node000025_Node000013" class="edge">
<title>Node25&#45;&gt;Node13</title>
<g id="a_edge41_Node000025_Node000013"><a xlink:title=" ">
<path fill="none" stroke="#63b8ff" d="M99.67,-650.54C92.03,-648.64 84.29,-646.6 77,-644.5 64.96,-641.03 51.68,-636.51 41.13,-632.75"/>
<polygon fill="#63b8ff" stroke="#63b8ff" points="99.07,-654 109.62,-652.96 100.73,-647.2 99.07,-654"/>
</a>
</g>
</g>
<!-- Node26&#45;&gt;Node8 -->
<g id="edge43_Node000026_Node000008" class="edge">
<title>Node26&#45;&gt;Node8</title>
<g id="a_edge43_Node000026_Node000008"><a xlink:title=" ">
<path fill="none" stroke="#63b8ff" d="M84.25,-613.83C81.63,-611.99 79.19,-609.89 77,-607.5 50.9,-579.03 26.81,-292.14 22.27,-235.27"/>
<polygon fill="#63b8ff" stroke="#63b8ff" points="82.77,-617.01 93.2,-618.89 86.22,-610.92 82.77,-617.01"/>
</a>
</g>
</g>
<!-- Node27&#45;&gt;Node8 -->
<g id="edge45_Node000027_Node000008" class="edge">
<title>Node27&#45;&gt;Node8</title>
<g id="a_edge45_Node000027_Node000008"><a xlink:title=" ">
<path fill="none" stroke="#63b8ff" d="M92.88,-383.58C87.08,-380.58 81.64,-376.94 77,-372.5 36.18,-333.48 25.09,-261.45 22.34,-235.31"/>
<polygon fill="#63b8ff" stroke="#63b8ff" points="91.67,-386.88 102.23,-387.79 94.54,-380.5 91.67,-386.88"/>
</a>
</g>
</g>
<!-- Node28&#45;&gt;Node3 -->
<g id="edge47_Node000028_Node000003" class="edge">
<title>Node28&#45;&gt;Node3</title>
<g id="a_edge47_Node000028_Node000003"><a xlink:title=" ">
<path fill="none" stroke="#63b8ff" d="M480.58,-426.97C476.24,-425.36 472,-423.55 468,-421.5 419.85,-396.88 375.86,-347.69 358.66,-327.01"/>
<polygon fill="#63b8ff" stroke="#63b8ff" points="479.64,-430.35 490.23,-430.18 481.84,-423.7 479.64,-430.35"/>
</a>
</g>
</g>
<!-- Node28&#45;&gt;Node22 -->
<g id="edge48_Node000028_Node000022" class="edge">
<title>Node28&#45;&gt;Node22</title>
<g id="a_edge48_Node000028_Node000022"><a xlink:title=" ">
<path fill="none" stroke="#63b8ff" d="M489.13,-450.99C460.88,-456.41 427.56,-462.81 400.73,-467.96"/>
<polygon fill="#63b8ff" stroke="#63b8ff" points="490.13,-454.36 499.29,-449.04 488.81,-447.49 490.13,-454.36"/>
</a>
</g>
</g>
</g>
</svg>
