<?xml version="1.0" encoding="UTF-8" standalone="no"?>
<!DOCTYPE svg PUBLIC "-//W3C//DTD SVG 1.1//EN"
 "http://www.w3.org/Graphics/SVG/1.1/DTD/svg11.dtd">
<!-- Generated by graphviz version 2.43.0 (0)
 -->
<!-- Title: OutputWriter::matchModeToString Pages: 1 -->
<svg width="551pt" height="38pt"
 viewBox="0.00 0.00 551.00 38.00" xmlns="http://www.w3.org/2000/svg" xmlns:xlink="http://www.w3.org/1999/xlink">
<g id="graph0" class="graph" transform="scale(1 1) rotate(0) translate(4 34)">
<title>OutputWriter::matchModeToString</title>
<!-- Node1 -->
<g id="Node000001" class="node">
<title>Node1</title>
<g id="a_Node000001"><a xlink:title="Converts a MatchMode to a human&#45;readable string.">
<polygon fill="#999999" stroke="#666666" points="543,-30 389,-30 389,0 543,0 543,-30"/>
<text text-anchor="start" x="397" y="-18" font-family="Helvetica,sans-Serif" font-size="10.00">OutputWriter::matchModeTo</text>
<text text-anchor="middle" x="466" y="-7" font-family="Helvetica,sans-Serif" font-size="10.00">String</text>
</a>
</g>
</g>
<!-- Node2 -->
<g id="Node000002" class="node">
<title>Node2</title>
<g id="a_Node000002"><a xlink:href="classOutputWriter.html#a723990a687c6d2154467c3cde0a642b0" target="_top" xlink:title="Prints a summary of the problem data (for menu option).">
<polygon fill="white" stroke="#666666" points="353,-24.5 198,-24.5 198,-5.5 353,-5.5 353,-24.5"/>
<text text-anchor="middle" x="275.5" y="-12.5" font-family="Helvetica,sans-Serif" font-size="10.00">OutputWriter::printSummary</text>
</a>
</g>
</g>
<!-- Node1&#45;&gt;Node2 -->
<g id="edge1_Node000001_Node000002" class="edge">
<title>Node1&#45;&gt;Node2</title>
<g id="a_edge1_Node000001_Node000002"><a xlink:title=" ">
<path fill="none" stroke="#63b8ff" d="M378.6,-15C370.14,-15 361.58,-15 353.22,-15"/>
<polygon fill="#63b8ff" stroke="#63b8ff" points="378.87,-18.5 388.87,-15 378.87,-11.5 378.87,-18.5"/>
</a>
</g>
</g>
<!-- Node3 -->
<g id="Node000003" class="node">
<title>Node3</title>
<g id="a_Node000003"><a xlink:href="main_8cpp.html#aef0bcc404dd408e438ce7fa09e4ea3f7" target="_top" xlink:title="Executes the program in interactive mode.">
<polygon fill="white" stroke="#666666" points="162,-24.5 77,-24.5 77,-5.5 162,-5.5 162,-24.5"/>
<text text-anchor="middle" x="119.5" y="-12.5" font-family="Helvetica,sans-Serif" font-size="10.00">runInteractive</text>
</a>
</g>
</g>
<!-- Node2&#45;&gt;Node3 -->
<g id="edge2_Node000002_Node000003" class="edge">
<title>Node2&#45;&gt;Node3</title>
<g id="a_edge2_Node000002_Node000003"><a xlink:title=" ">
<path fill="none" stroke="#63b8ff" d="M187.82,-15C178.89,-15 170.13,-15 162.04,-15"/>
<polygon fill="#63b8ff" stroke="#63b8ff" points="187.95,-18.5 197.95,-15 187.95,-11.5 187.95,-18.5"/>
</a>
</g>
</g>
<!-- Node4 -->
<g id="Node000004" class="node">
<title>Node4</title>
<g id="a_Node000004"><a xlink:href="main_8cpp.html#a0ddf1224851353fc92bfbff6f499fa97" target="_top" xlink:title="Program entry point.">
<polygon fill="white" stroke="#666666" points="41,-24.5 0,-24.5 0,-5.5 41,-5.5 41,-24.5"/>
<text text-anchor="middle" x="20.5" y="-12.5" font-family="Helvetica,sans-Serif" font-size="10.00">main</text>
</a>
</g>
</g>
<!-- Node3&#45;&gt;Node4 -->
<g id="edge3_Node000003_Node000004" class="edge">
<title>Node3&#45;&gt;Node4</title>
<g id="a_edge3_Node000003_Node000004"><a xlink:title=" ">
<path fill="none" stroke="#63b8ff" d="M66.54,-15C57.45,-15 48.53,-15 41.05,-15"/>
<polygon fill="#63b8ff" stroke="#63b8ff" points="66.8,-18.5 76.8,-15 66.8,-11.5 66.8,-18.5"/>
</a>
</g>
</g>
</g>
</svg>
