<?xml version="1.0" encoding="UTF-8" standalone="no"?>
<!DOCTYPE svg PUBLIC "-//W3C//DTD SVG 1.1//EN"
 "http://www.w3.org/Graphics/SVG/1.1/DTD/svg11.dtd">
<!-- Generated by graphviz version 2.43.0 (0)
 -->
<!-- Title: OutputWriter::writeAssignmentSection Pages: 1 -->
<svg width="616pt" height="212pt"
 viewBox="0.00 0.00 616.00 212.00" xmlns="http://www.w3.org/2000/svg" xmlns:xlink="http://www.w3.org/1999/xlink">
<g id="graph0" class="graph" transform="scale(1 1) rotate(0) translate(4 208)">
<title>OutputWriter::writeAssignmentSection</title>
<!-- Node1 -->
<g id="Node000001" class="node">
<title>Node1</title>
<g id="a_Node000001"><a xlink:title="Writes the assignment sections to any output stream.">
<polygon fill="#999999" stroke="#666666" points="608,-153.5 440,-153.5 440,-123.5 608,-123.5 608,-153.5"/>
<text text-anchor="start" x="448" y="-141.5" font-family="Helvetica,sans-Serif" font-size="10.00">OutputWriter::writeAssignment</text>
<text text-anchor="middle" x="524" y="-130.5" font-family="Helvetica,sans-Serif" font-size="10.00">Section</text>
</a>
</g>
</g>
<!-- Node2 -->
<g id="Node000002" class="node">
<title>Node2</title>
<g id="a_Node000002"><a xlink:href="classOutputWriter.html#a1479597905031ccc3f547b1d5265ac52" target="_top" xlink:title="Prints the assignment results to the console.">
<polygon fill="white" stroke="#666666" points="404,-185 246,-185 246,-166 404,-166 404,-185"/>
<text text-anchor="middle" x="325" y="-173" font-family="Helvetica,sans-Serif" font-size="10.00">OutputWriter::printToConsole</text>
</a>
</g>
</g>
<!-- Node1&#45;&gt;Node2 -->
<g id="edge1_Node000001_Node000002" class="edge">
<title>Node1&#45;&gt;Node2</title>
<g id="a_edge1_Node000001_Node000002"><a xlink:title=" ">
<path fill="none" stroke="#63b8ff" d="M432.84,-155.43C413.55,-159.06 393.83,-162.76 376.67,-165.98"/>
<polygon fill="#63b8ff" stroke="#63b8ff" points="433.69,-158.84 442.87,-153.55 432.4,-151.96 433.69,-158.84"/>
</a>
</g>
</g>
<!-- Node5 -->
<g id="Node000005" class="node">
<title>Node5</title>
<g id="a_Node000005"><a xlink:href="classOutputWriter.html#a293621b584934c41795c2ada849f90eb" target="_top" xlink:title="Writes the complete assignment output to a file.">
<polygon fill="white" stroke="#666666" points="394,-130 256,-130 256,-111 394,-111 394,-130"/>
<text text-anchor="middle" x="325" y="-118" font-family="Helvetica,sans-Serif" font-size="10.00">OutputWriter::writeToFile</text>
</a>
</g>
</g>
<!-- Node1&#45;&gt;Node5 -->
<g id="edge4_Node000001_Node000005" class="edge">
<title>Node1&#45;&gt;Node5</title>
<g id="a_edge4_Node000001_Node000005"><a xlink:title=" ">
<path fill="none" stroke="#63b8ff" d="M429.69,-129.97C417.68,-128.88 405.57,-127.77 394.07,-126.72"/>
<polygon fill="#63b8ff" stroke="#63b8ff" points="429.46,-133.47 439.74,-130.89 430.1,-126.5 429.46,-133.47"/>
</a>
</g>
</g>
<!-- Node3 -->
<g id="Node000003" class="node">
<title>Node3</title>
<g id="a_Node000003"><a xlink:href="main_8cpp.html#aef0bcc404dd408e438ce7fa09e4ea3f7" target="_top" xlink:title="Executes the program in interactive mode.">
<polygon fill="white" stroke="#666666" points="186,-204 101,-204 101,-185 186,-185 186,-204"/>
<text text-anchor="middle" x="143.5" y="-192" font-family="Helvetica,sans-Serif" font-size="10.00">runInteractive</text>
</a>
</g>
</g>
<!-- Node2&#45;&gt;Node3 -->
<g id="edge2_Node000002_Node000003" class="edge">
<title>Node2&#45;&gt;Node3</title>
<g id="a_edge2_Node000002_Node000003"><a xlink:title=" ">
<path fill="none" stroke="#63b8ff" d="M235.7,-184.85C218.52,-186.67 201.26,-188.49 186.46,-190.06"/>
<polygon fill="#63b8ff" stroke="#63b8ff" points="236.21,-188.31 245.79,-183.78 235.48,-181.35 236.21,-188.31"/>
</a>
</g>
</g>
<!-- Node4 -->
<g id="Node000004" class="node">
<title>Node4</title>
<g id="a_Node000004"><a xlink:href="main_8cpp.html#a0ddf1224851353fc92bfbff6f499fa97" target="_top" xlink:title="Program entry point.">
<polygon fill="white" stroke="#666666" points="41,-185 0,-185 0,-166 41,-166 41,-185"/>
<text text-anchor="middle" x="20.5" y="-173" font-family="Helvetica,sans-Serif" font-size="10.00">main</text>
</a>
</g>
</g>
<!-- Node3&#45;&gt;Node4 -->
<g id="edge3_Node000003_Node000004" class="edge">
<title>Node3&#45;&gt;Node4</title>
<g id="a_edge3_Node000003_Node000004"><a xlink:title=" ">
<path fill="none" stroke="#63b8ff" d="M90.69,-186.36C73.15,-183.61 54.62,-180.7 41.15,-178.59"/>
<polygon fill="#63b8ff" stroke="#63b8ff" points="90.44,-189.87 100.86,-187.96 91.52,-182.95 90.44,-189.87"/>
</a>
</g>
</g>
<!-- Node5&#45;&gt;Node3 -->
<g id="edge7_Node000005_Node000003" class="edge">
<title>Node5&#45;&gt;Node3</title>
<g id="a_edge7_Node000005_Node000003"><a xlink:title=" ">
<path fill="none" stroke="#63b8ff" d="M293.55,-134.58C279.07,-141.36 261.57,-149.7 246,-157.5 229.82,-165.6 226.82,-169.84 210,-176.5 202,-179.67 193.23,-182.49 184.79,-184.91"/>
<polygon fill="#63b8ff" stroke="#63b8ff" points="295.44,-137.55 303.03,-130.15 292.48,-131.21 295.44,-137.55"/>
</a>
</g>
</g>
<!-- Node6 -->
<g id="Node000006" class="node">
<title>Node6</title>
<g id="a_Node000006"><a xlink:href="main_8cpp.html#adccc9f5ff7d7a84b4f757ddc2e00c25b" target="_top" xlink:title="Executes the program in batch mode.">
<polygon fill="white" stroke="#666666" points="173.5,-167 113.5,-167 113.5,-148 173.5,-148 173.5,-167"/>
<text text-anchor="middle" x="143.5" y="-155" font-family="Helvetica,sans-Serif" font-size="10.00">runBatch</text>
</a>
</g>
</g>
<!-- Node5&#45;&gt;Node6 -->
<g id="edge5_Node000005_Node000006" class="edge">
<title>Node5&#45;&gt;Node6</title>
<g id="a_edge5_Node000005_Node000006"><a xlink:title=" ">
<path fill="none" stroke="#63b8ff" d="M267.89,-132.07C236.68,-138.5 199.13,-146.24 173.71,-151.48"/>
<polygon fill="#63b8ff" stroke="#63b8ff" points="268.69,-135.48 277.77,-130.03 267.27,-128.62 268.69,-135.48"/>
</a>
</g>
</g>
<!-- Node7 -->
<g id="Node000007" class="node">
<title>Node7</title>
<g id="a_Node000007"><a xlink:href="test__output_8cpp.html#ad98b96469ee1c28ab8390957efbc52e5" target="_top" xlink:title=" ">
<polygon fill="white" stroke="#666666" points="210,-130 77,-130 77,-111 210,-111 210,-130"/>
<text text-anchor="middle" x="143.5" y="-118" font-family="Helvetica,sans-Serif" font-size="10.00">test_full_batch_pipeline</text>
</a>
</g>
</g>
<!-- Node5&#45;&gt;Node7 -->
<g id="edge8_Node000005_Node000007" class="edge">
<title>Node5&#45;&gt;Node7</title>
<g id="a_edge8_Node000005_Node000007"><a xlink:title=" ">
<path fill="none" stroke="#63b8ff" d="M245.59,-120.5C233.78,-120.5 221.71,-120.5 210.2,-120.5"/>
<polygon fill="#63b8ff" stroke="#63b8ff" points="245.88,-124 255.88,-120.5 245.88,-117 245.88,-124"/>
</a>
</g>
</g>
<!-- Node9 -->
<g id="Node000009" class="node">
<title>Node9</title>
<g id="a_Node000009"><a xlink:href="test__output_8cpp.html#ae22f862265d01c0acb3649c247f4a726" target="_top" xlink:title=" ">
<polygon fill="white" stroke="#666666" points="199,-93 88,-93 88,-74 199,-74 199,-93"/>
<text text-anchor="middle" x="143.5" y="-81" font-family="Helvetica,sans-Serif" font-size="10.00">test_output_figure2</text>
</a>
</g>
</g>
<!-- Node5&#45;&gt;Node9 -->
<g id="edge10_Node000005_Node000009" class="edge">
<title>Node5&#45;&gt;Node9</title>
<g id="a_edge10_Node000005_Node000009"><a xlink:title=" ">
<path fill="none" stroke="#63b8ff" d="M267.8,-108.92C243.07,-103.82 214.37,-97.9 190.88,-93.06"/>
<polygon fill="#63b8ff" stroke="#63b8ff" points="267.27,-112.38 277.77,-110.97 268.69,-105.52 267.27,-112.38"/>
</a>
</g>
</g>
<!-- Node10 -->
<g id="Node000010" class="node">
<title>Node10</title>
<g id="a_Node000010"><a xlink:href="test__output_8cpp.html#a998d4d57520dc3729aada36d40d97db9" target="_top" xlink:title=" ">
<polygon fill="white" stroke="#666666" points="199,-56 88,-56 88,-37 199,-37 199,-56"/>
<text text-anchor="middle" x="143.5" y="-44" font-family="Helvetica,sans-Serif" font-size="10.00">test_output_figure3</text>
</a>
</g>
</g>
<!-- Node5&#45;&gt;Node10 -->
<g id="edge12_Node000005_Node000010" class="edge">
<title>Node5&#45;&gt;Node10</title>
<g id="a_edge12_Node000005_Node000010"><a xlink:title=" ">
<path fill="none" stroke="#63b8ff" d="M297.61,-106.21C274.85,-94.26 240.88,-77.33 210,-65.5 200.93,-62.03 190.96,-58.83 181.58,-56.09"/>
<polygon fill="#63b8ff" stroke="#63b8ff" points="296.16,-109.4 306.63,-110.99 299.44,-103.21 296.16,-109.4"/>
</a>
</g>
</g>
<!-- Node11 -->
<g id="Node000011" class="node">
<title>Node11</title>
<g id="a_Node000011"><a xlink:href="test__output_8cpp.html#aaa716ae6efa6c8bef11ea699a4be56d2" target="_top" xlink:title=" ">
<polygon fill="white" stroke="#666666" points="197.5,-19 89.5,-19 89.5,0 197.5,0 197.5,-19"/>
<text text-anchor="middle" x="143.5" y="-7" font-family="Helvetica,sans-Serif" font-size="10.00">test_output_sorted</text>
</a>
</g>
</g>
<!-- Node5&#45;&gt;Node11 -->
<g id="edge14_Node000005_Node000011" class="edge">
<title>Node5&#45;&gt;Node11</title>
<g id="a_edge14_Node000005_Node000011"><a xlink:title=" ">
<path fill="none" stroke="#63b8ff" d="M307.77,-103.83C286.93,-83.31 248.79,-48.73 210,-28.5 202.76,-24.72 194.66,-21.6 186.69,-19.06"/>
<polygon fill="#63b8ff" stroke="#63b8ff" points="305.33,-106.34 314.88,-110.94 310.29,-101.39 305.33,-106.34"/>
</a>
</g>
</g>
<!-- Node6&#45;&gt;Node4 -->
<g id="edge6_Node000006_Node000004" class="edge">
<title>Node6&#45;&gt;Node4</title>
<g id="a_edge6_Node000006_Node000004"><a xlink:title=" ">
<path fill="none" stroke="#63b8ff" d="M103.07,-163.37C82.31,-166.45 57.78,-170.1 41.08,-172.59"/>
<polygon fill="#63b8ff" stroke="#63b8ff" points="103.83,-166.79 113.21,-161.86 102.8,-159.87 103.83,-166.79"/>
</a>
</g>
</g>
<!-- Node8 -->
<g id="Node000008" class="node">
<title>Node8</title>
<g id="a_Node000008"><a xlink:href="test__output_8cpp.html#ae66f6b31b5ad750f1fe042a706a4e3d4" target="_top" xlink:title=" ">
<polygon fill="white" stroke="#666666" points="41,-75 0,-75 0,-56 41,-56 41,-75"/>
<text text-anchor="middle" x="20.5" y="-63" font-family="Helvetica,sans-Serif" font-size="10.00">main</text>
</a>
</g>
</g>
<!-- Node7&#45;&gt;Node8 -->
<g id="edge9_Node000007_Node000008" class="edge">
<title>Node7&#45;&gt;Node8</title>
<g id="a_edge9_Node000007_Node000008"><a xlink:title=" ">
<path fill="none" stroke="#63b8ff" d="M90.02,-107.71C85.55,-106.13 81.16,-104.4 77,-102.5 60.99,-95.19 44.42,-83.52 33.61,-75.24"/>
<polygon fill="#63b8ff" stroke="#63b8ff" points="89.27,-111.15 99.87,-110.92 91.44,-104.49 89.27,-111.15"/>
</a>
</g>
</g>
<!-- Node9&#45;&gt;Node8 -->
<g id="edge11_Node000009_Node000008" class="edge">
<title>Node9&#45;&gt;Node8</title>
<g id="a_edge11_Node000009_Node000008"><a xlink:title=" ">
<path fill="none" stroke="#63b8ff" d="M77.5,-73.83C64.23,-71.86 51.24,-69.92 41.13,-68.42"/>
<polygon fill="#63b8ff" stroke="#63b8ff" points="77.26,-77.33 87.66,-75.34 78.29,-70.41 77.26,-77.33"/>
</a>
</g>
</g>
<!-- Node10&#45;&gt;Node8 -->
<g id="edge13_Node000010_Node000008" class="edge">
<title>Node10&#45;&gt;Node8</title>
<g id="a_edge13_Node000010_Node000008"><a xlink:title=" ">
<path fill="none" stroke="#63b8ff" d="M77.5,-56.71C64.23,-58.79 51.24,-60.83 41.13,-62.42"/>
<polygon fill="#63b8ff" stroke="#63b8ff" points="78.33,-60.12 87.66,-55.11 77.24,-53.2 78.33,-60.12"/>
</a>
</g>
</g>
<!-- Node11&#45;&gt;Node8 -->
<g id="edge15_Node000011_Node000008" class="edge">
<title>Node11&#45;&gt;Node8</title>
<g id="a_edge15_Node000011_Node000008"><a xlink:title=" ">
<path fill="none" stroke="#63b8ff" d="M92.64,-22.21C87.28,-24.1 81.97,-26.19 77,-28.5 61.04,-35.92 44.47,-47.57 33.63,-55.82"/>
<polygon fill="#63b8ff" stroke="#63b8ff" points="93.89,-25.49 102.3,-19.05 91.71,-18.84 93.89,-25.49"/>
</a>
</g>
</g>
</g>
</svg>
