<?xml version="1.0" encoding="UTF-8" standalone="no"?>
<!DOCTYPE svg PUBLIC "-//W3C//DTD SVG 1.1//EN"
 "http://www.w3.org/Graphics/SVG/1.1/DTD/svg11.dtd">
<!-- Generated by graphviz version 2.43.0 (0)
 -->
<!-- Title: Parser::parse Pages: 1 -->
<svg width="629pt" height="422pt"
 viewBox="0.00 0.00 629.00 421.54" xmlns="http://www.w3.org/2000/svg" xmlns:xlink="http://www.w3.org/1999/xlink">
<g id="graph0" class="graph" transform="scale(1 1) rotate(0) translate(4 417.54)">
<title>Parser::parse</title>
<!-- Node1 -->
<g id="Node000001" class="node">
<title>Node1</title>
<g id="a_Node000001"><a xlink:title="Parses the input file and returns a fully populated ProblemData.">
<polygon fill="#999999" stroke="#666666" points="80,-264 0,-264 0,-245 80,-245 80,-264"/>
<text text-anchor="middle" x="40" y="-252" font-family="Helvetica,sans-Serif" font-size="10.00">Parser::parse</text>
</a>
</g>
</g>
<!-- Node2 -->
<g id="Node000002" class="node">
<title>Node2</title>
<g id="a_Node000002"><a xlink:href="classParser.html#abe415229c2daa3f3ba4efd44661bd703" target="_top" xlink:title="Parses a control line: &quot;KeyName, value&quot;.">
<polygon fill="white" stroke="#666666" points="261.5,-321 126.5,-321 126.5,-302 261.5,-302 261.5,-321"/>
<text text-anchor="middle" x="194" y="-309" font-family="Helvetica,sans-Serif" font-size="10.00">Parser::parseControlLine</text>
</a>
</g>
</g>
<!-- Node1&#45;&gt;Node2 -->
<g id="edge1_Node000001_Node000002" class="edge">
<title>Node1&#45;&gt;Node2</title>
<g id="a_edge1_Node000001_Node000002"><a xlink:title=" ">
<path fill="none" stroke="#63b8ff" d="M61.12,-264.09C76.08,-271.04 97.08,-280.42 116,-287.5 126.74,-291.52 138.49,-295.43 149.51,-298.88"/>
<polygon fill="#63b8ff" stroke="#63b8ff" points="148.78,-302.32 159.37,-301.91 150.84,-295.63 148.78,-302.32"/>
</a>
</g>
</g>
<!-- Node5 -->
<g id="Node000005" class="node">
<title>Node5</title>
<g id="a_Node000005"><a xlink:href="classParser.html#a113f0dfba3013e3dade8b717063ad8a0" target="_top" xlink:title="Trims leading and trailing whitespace from a string.">
<polygon fill="white" stroke="#666666" points="599.5,-396 526.5,-396 526.5,-377 599.5,-377 599.5,-396"/>
<text text-anchor="middle" x="563" y="-384" font-family="Helvetica,sans-Serif" font-size="10.00">Parser::trim</text>
</a>
</g>
</g>
<!-- Node1&#45;&gt;Node5 -->
<g id="edge24_Node000001_Node000005" class="edge">
<title>Node1&#45;&gt;Node5</title>
<g id="a_edge24_Node000001_Node000005"><a xlink:title=" ">
<path fill="none" stroke="#63b8ff" d="M48.3,-264.19C60.66,-280.01 87.2,-311.54 116,-330.5 192.52,-380.88 217.97,-388.54 308,-405.5 378.32,-418.75 397.81,-412.7 469,-405.5 484.59,-403.92 501.42,-400.9 516.43,-397.72"/>
<polygon fill="#63b8ff" stroke="#63b8ff" points="517.47,-401.07 526.49,-395.51 515.97,-394.23 517.47,-401.07"/>
</a>
</g>
</g>
<!-- Node7 -->
<g id="Node000007" class="node">
<title>Node7</title>
<g id="a_Node000007"><a xlink:href="classParser.html#a381845570bc3e8444268d1f0165e5c18" target="_top" xlink:title="Converts a string to lowercase (for case&#45;insensitive comparison).">
<polygon fill="white" stroke="#666666" points="434.5,-283 342.5,-283 342.5,-264 434.5,-264 434.5,-283"/>
<text text-anchor="middle" x="388.5" y="-271" font-family="Helvetica,sans-Serif" font-size="10.00">Parser::toLower</text>
</a>
</g>
</g>
<!-- Node1&#45;&gt;Node7 -->
<g id="edge23_Node000001_Node000007" class="edge">
<title>Node1&#45;&gt;Node7</title>
<g id="a_edge23_Node000001_Node000007"><a xlink:title=" ">
<path fill="none" stroke="#63b8ff" d="M80.07,-256.64C141.73,-260.02 261.81,-266.61 332.26,-270.47"/>
<polygon fill="#63b8ff" stroke="#63b8ff" points="332.11,-273.97 342.28,-271.02 332.49,-266.98 332.11,-273.97"/>
</a>
</g>
</g>
<!-- Node9 -->
<g id="Node000009" class="node">
<title>Node9</title>
<g id="a_Node000009"><a xlink:href="classParser.html#a49fdbc3e3b2c220e042d77ea0568bdba" target="_top" xlink:title="Parses a parameter line: &quot;KeyName, value&quot;.">
<polygon fill="white" stroke="#666666" points="269,-245 119,-245 119,-226 269,-226 269,-245"/>
<text text-anchor="middle" x="194" y="-233" font-family="Helvetica,sans-Serif" font-size="10.00">Parser::parseParameterLine</text>
</a>
</g>
</g>
<!-- Node1&#45;&gt;Node9 -->
<g id="edge9_Node000001_Node000009" class="edge">
<title>Node1&#45;&gt;Node9</title>
<g id="a_edge9_Node000001_Node000009"><a xlink:title=" ">
<path fill="none" stroke="#63b8ff" d="M80.14,-249.61C89.05,-248.49 98.85,-247.27 108.83,-246.02"/>
<polygon fill="#63b8ff" stroke="#63b8ff" points="109.37,-249.48 118.86,-244.77 108.5,-242.54 109.37,-249.48"/>
</a>
</g>
</g>
<!-- Node11 -->
<g id="Node000011" class="node">
<title>Node11</title>
<g id="a_Node000011"><a xlink:href="classParser.html#a8b52e53cfc75a57e18f03d925823fe2a" target="_top" xlink:title="Parses a single reviewer line.">
<polygon fill="white" stroke="#666666" points="267,-86 121,-86 121,-67 267,-67 267,-86"/>
<text text-anchor="middle" x="194" y="-74" font-family="Helvetica,sans-Serif" font-size="10.00">Parser::parseReviewerLine</text>
</a>
</g>
</g>
<!-- Node1&#45;&gt;Node11 -->
<g id="edge15_Node000001_Node000011" class="edge">
<title>Node1&#45;&gt;Node11</title>
<g id="a_edge15_Node000001_Node000011"><a xlink:title=" ">
<path fill="none" stroke="#63b8ff" d="M47.31,-244.72C59.61,-225.92 88.04,-183.77 116,-151.5 134.52,-130.12 158.11,-107.77 174.26,-93.08"/>
<polygon fill="#63b8ff" stroke="#63b8ff" points="176.88,-95.44 181.97,-86.15 172.19,-90.24 176.88,-95.44"/>
</a>
</g>
</g>
<!-- Node13 -->
<g id="Node000013" class="node">
<title>Node13</title>
<g id="a_Node000013"><a xlink:href="classParser.html#ab15bc67b738ede92f26a5ead4c294bd3" target="_top" xlink:title="Parses a single submission line.">
<polygon fill="white" stroke="#666666" points="272,-180 116,-180 116,-161 272,-161 272,-180"/>
<text text-anchor="middle" x="194" y="-168" font-family="Helvetica,sans-Serif" font-size="10.00">Parser::parseSubmissionLine</text>
</a>
</g>
</g>
<!-- Node1&#45;&gt;Node13 -->
<g id="edge19_Node000001_Node000013" class="edge">
<title>Node1&#45;&gt;Node13</title>
<g id="a_edge19_Node000001_Node000013"><a xlink:title=" ">
<path fill="none" stroke="#63b8ff" d="M58.44,-244.86C85.01,-230.18 135.81,-202.1 166.83,-184.96"/>
<polygon fill="#63b8ff" stroke="#63b8ff" points="168.71,-187.92 175.77,-180.02 165.32,-181.8 168.71,-187.92"/>
</a>
</g>
</g>
<!-- Node3 -->
<g id="Node000003" class="node">
<title>Node3</title>
<g id="a_Node000003"><a xlink:href="classParser.html#a54de14fb280b60a07adfbf68c508b767" target="_top" xlink:title="Parses a trimmed token as an integer with error context.">
<polygon fill="white" stroke="#666666" points="621,-171 505,-171 505,-152 621,-152 621,-171"/>
<text text-anchor="middle" x="563" y="-159" font-family="Helvetica,sans-Serif" font-size="10.00">Parser::parseIntField</text>
</a>
</g>
</g>
<!-- Node2&#45;&gt;Node3 -->
<g id="edge2_Node000002_Node000003" class="edge">
<title>Node2&#45;&gt;Node3</title>
<g id="a_edge2_Node000002_Node000003"><a xlink:title=" ">
<path fill="none" stroke="#63b8ff" d="M251.72,-321.02C310.09,-327.88 401.74,-330.24 469,-292.5 513.82,-267.35 542.3,-210.53 554.74,-180.67"/>
<polygon fill="#63b8ff" stroke="#63b8ff" points="558.02,-181.91 558.48,-171.32 551.52,-179.31 558.02,-181.91"/>
</a>
</g>
</g>
<!-- Node4 -->
<g id="Node000004" class="node">
<title>Node4</title>
<g id="a_Node000004"><a xlink:href="classParser.html#aacf502fa084a101374bda3681e0d23bb" target="_top" xlink:title="Splits a CSV line by commas, respecting double&#45;quoted fields.">
<polygon fill="white" stroke="#666666" points="435,-209 342,-209 342,-190 435,-190 435,-209"/>
<text text-anchor="middle" x="388.5" y="-197" font-family="Helvetica,sans-Serif" font-size="10.00">Parser::splitCSV</text>
</a>
</g>
</g>
<!-- Node2&#45;&gt;Node4 -->
<g id="edge3_Node000002_Node000004" class="edge">
<title>Node2&#45;&gt;Node4</title>
<g id="a_edge3_Node000002_Node000004"><a xlink:title=" ">
<path fill="none" stroke="#63b8ff" d="M209.44,-301.86C225.32,-291.02 251.33,-272.56 272,-254.5 289.28,-239.4 287.99,-228.72 308,-217.5 315.36,-213.37 323.61,-210.19 331.94,-207.74"/>
<polygon fill="#63b8ff" stroke="#63b8ff" points="332.9,-211.1 341.69,-205.18 331.13,-204.33 332.9,-211.1"/>
</a>
</g>
</g>
<!-- Node6 -->
<g id="Node000006" class="node">
<title>Node6</title>
<g id="a_Node000006"><a xlink:href="classParser.html#a52df5c3f8fc72a8a486ae35a61d764d1" target="_top" xlink:title="Removes surrounding double quotes from a string value.">
<polygon fill="white" stroke="#666666" points="443,-396 334,-396 334,-377 443,-377 443,-396"/>
<text text-anchor="middle" x="388.5" y="-384" font-family="Helvetica,sans-Serif" font-size="10.00">Parser::stripQuotes</text>
</a>
</g>
</g>
<!-- Node2&#45;&gt;Node6 -->
<g id="edge5_Node000002_Node000006" class="edge">
<title>Node2&#45;&gt;Node6</title>
<g id="a_edge5_Node000002_Node000006"><a xlink:title=" ">
<path fill="none" stroke="#63b8ff" d="M210.91,-321.1C232.3,-333.64 271.81,-355.5 308,-368.5 313.94,-370.64 320.23,-372.57 326.56,-374.32"/>
<polygon fill="#63b8ff" stroke="#63b8ff" points="325.94,-377.77 336.5,-376.9 327.7,-371 325.94,-377.77"/>
</a>
</g>
</g>
<!-- Node2&#45;&gt;Node7 -->
<g id="edge7_Node000002_Node000007" class="edge">
<title>Node2&#45;&gt;Node7</title>
<g id="a_edge7_Node000002_Node000007"><a xlink:title=" ">
<path fill="none" stroke="#63b8ff" d="M243.58,-301.91C270.56,-296.58 304.23,-289.94 332.21,-284.41"/>
<polygon fill="#63b8ff" stroke="#63b8ff" points="333.11,-287.8 342.25,-282.43 331.76,-280.94 333.11,-287.8"/>
</a>
</g>
</g>
<!-- Node8 -->
<g id="Node000008" class="node">
<title>Node8</title>
<g id="a_Node000008"><a xlink:href="domain_8h.html#a0e806904288551ac6c43e2d413164657" target="_top" xlink:title="Converts an integer from the input file to a MatchMode.">
<polygon fill="white" stroke="#666666" points="430,-359 347,-359 347,-340 430,-340 430,-359"/>
<text text-anchor="middle" x="388.5" y="-347" font-family="Helvetica,sans-Serif" font-size="10.00">toMatchMode</text>
</a>
</g>
</g>
<!-- Node2&#45;&gt;Node8 -->
<g id="edge8_Node000002_Node000008" class="edge">
<title>Node2&#45;&gt;Node8</title>
<g id="a_edge8_Node000002_Node000008"><a xlink:title=" ">
<path fill="none" stroke="#63b8ff" d="M243.58,-321.09C272.07,-326.71 308.02,-333.81 336.87,-339.5"/>
<polygon fill="#63b8ff" stroke="#63b8ff" points="336.26,-342.95 346.75,-341.46 337.62,-336.09 336.26,-342.95"/>
</a>
</g>
</g>
<!-- Node4&#45;&gt;Node5 -->
<g id="edge4_Node000004_Node000005" class="edge">
<title>Node4&#45;&gt;Node5</title>
<g id="a_edge4_Node000004_Node000005"><a xlink:title=" ">
<path fill="none" stroke="#63b8ff" d="M435.25,-203.09C447.11,-205.75 459.28,-210.18 469,-217.5 520.17,-256.01 546.78,-331.28 556.98,-366.91"/>
<polygon fill="#63b8ff" stroke="#63b8ff" points="553.61,-367.88 559.62,-376.61 560.37,-366.04 553.61,-367.88"/>
</a>
</g>
</g>
<!-- Node6&#45;&gt;Node5 -->
<g id="edge6_Node000006_Node000005" class="edge">
<title>Node6&#45;&gt;Node5</title>
<g id="a_edge6_Node000006_Node000005"><a xlink:title=" ">
<path fill="none" stroke="#63b8ff" d="M443.13,-386.5C466.53,-386.5 493.68,-386.5 516.12,-386.5"/>
<polygon fill="#63b8ff" stroke="#63b8ff" points="516.39,-390 526.39,-386.5 516.39,-383 516.39,-390"/>
</a>
</g>
</g>
<!-- Node9&#45;&gt;Node3 -->
<g id="edge12_Node000009_Node000003" class="edge">
<title>Node9&#45;&gt;Node3</title>
<g id="a_edge12_Node000009_Node000003"><a xlink:title=" ">
<path fill="none" stroke="#63b8ff" d="M209.99,-225.9C230.97,-213.01 270.72,-190.57 308,-180.5 369.83,-163.8 443.01,-159.91 494.9,-159.69"/>
<polygon fill="#63b8ff" stroke="#63b8ff" points="494.98,-163.19 504.98,-159.69 494.98,-156.19 494.98,-163.19"/>
</a>
</g>
</g>
<!-- Node9&#45;&gt;Node4 -->
<g id="edge13_Node000009_Node000004" class="edge">
<title>Node9&#45;&gt;Node4</title>
<g id="a_edge13_Node000009_Node000004"><a xlink:title=" ">
<path fill="none" stroke="#63b8ff" d="M245.83,-225.99C272.3,-221.04 304.72,-214.98 331.86,-209.91"/>
<polygon fill="#63b8ff" stroke="#63b8ff" points="332.79,-213.29 341.98,-208.01 331.51,-206.41 332.79,-213.29"/>
</a>
</g>
</g>
<!-- Node9&#45;&gt;Node7 -->
<g id="edge14_Node000009_Node000007" class="edge">
<title>Node9&#45;&gt;Node7</title>
<g id="a_edge14_Node000009_Node000007"><a xlink:title=" ">
<path fill="none" stroke="#63b8ff" d="M243.58,-245.09C270.56,-250.42 304.23,-257.06 332.21,-262.59"/>
<polygon fill="#63b8ff" stroke="#63b8ff" points="331.76,-266.06 342.25,-264.57 333.11,-259.2 331.76,-266.06"/>
</a>
</g>
</g>
<!-- Node10 -->
<g id="Node000010" class="node">
<title>Node10</title>
<g id="a_Node000010"><a xlink:href="classParser.html#ac9cbf2eac7c906d2da2d95b9c16cc02e" target="_top" xlink:title="Parses a trimmed token as a boolean (0 or 1).">
<polygon fill="white" stroke="#666666" points="451,-246 326,-246 326,-227 451,-227 451,-246"/>
<text text-anchor="middle" x="388.5" y="-234" font-family="Helvetica,sans-Serif" font-size="10.00">Parser::parseBoolField</text>
</a>
</g>
</g>
<!-- Node9&#45;&gt;Node10 -->
<g id="edge10_Node000009_Node000010" class="edge">
<title>Node9&#45;&gt;Node10</title>
<g id="a_edge10_Node000009_Node000010"><a xlink:title=" ">
<path fill="none" stroke="#63b8ff" d="M269.15,-235.89C284.38,-235.96 300.39,-236.05 315.55,-236.13"/>
<polygon fill="#63b8ff" stroke="#63b8ff" points="315.86,-239.63 325.88,-236.18 315.9,-232.63 315.86,-239.63"/>
</a>
</g>
</g>
<!-- Node10&#45;&gt;Node3 -->
<g id="edge11_Node000010_Node000003" class="edge">
<title>Node10&#45;&gt;Node3</title>
<g id="a_edge11_Node000010_Node000003"><a xlink:title=" ">
<path fill="none" stroke="#63b8ff" d="M439.86,-226.94C449.7,-224.39 459.81,-221.26 469,-217.5 495,-206.87 522.24,-189.64 540.47,-177.09"/>
<polygon fill="#63b8ff" stroke="#63b8ff" points="542.95,-179.63 549.13,-171.02 538.93,-173.9 542.95,-179.63"/>
</a>
</g>
</g>
<!-- Node11&#45;&gt;Node3 -->
<g id="edge17_Node000011_Node000003" class="edge">
<title>Node11&#45;&gt;Node3</title>
<g id="a_edge17_Node000011_Node000003"><a xlink:title=" ">
<path fill="none" stroke="#63b8ff" d="M226.95,-66.97C279.72,-53.01 387.38,-32.18 469,-66.5 506.03,-82.07 535.69,-120.37 550.89,-143.3"/>
<polygon fill="#63b8ff" stroke="#63b8ff" points="547.99,-145.27 556.33,-151.81 553.89,-141.5 547.99,-145.27"/>
</a>
</g>
</g>
<!-- Node11&#45;&gt;Node4 -->
<g id="edge18_Node000011_Node000004" class="edge">
<title>Node11&#45;&gt;Node4</title>
<g id="a_edge18_Node000011_Node000004"><a xlink:title=" ">
<path fill="none" stroke="#63b8ff" d="M210.11,-86.15C243.49,-107.48 323.76,-158.77 363.87,-184.4"/>
<polygon fill="#63b8ff" stroke="#63b8ff" points="362.15,-187.46 372.47,-189.89 365.92,-181.56 362.15,-187.46"/>
</a>
</g>
</g>
<!-- Node12 -->
<g id="Node000012" class="node">
<title>Node12</title>
<g id="a_Node000012"><a xlink:href="structProblemData.html#a9f9c5ab24ac824b060f3cdb7bbd764bf" target="_top" xlink:title="Adds a reviewer with duplicate&#45;ID detection.">
<polygon fill="white" stroke="#666666" points="463.5,-19 313.5,-19 313.5,0 463.5,0 463.5,-19"/>
<text text-anchor="middle" x="388.5" y="-7" font-family="Helvetica,sans-Serif" font-size="10.00">ProblemData::addReviewer</text>
</a>
</g>
</g>
<!-- Node11&#45;&gt;Node12 -->
<g id="edge16_Node000011_Node000012" class="edge">
<title>Node11&#45;&gt;Node12</title>
<g id="a_edge16_Node000011_Node000012"><a xlink:title=" ">
<path fill="none" stroke="#63b8ff" d="M218.63,-66.95C241.37,-57.89 276.81,-44.13 308,-33.5 319.73,-29.5 332.54,-25.49 344.39,-21.91"/>
<polygon fill="#63b8ff" stroke="#63b8ff" points="345.49,-25.24 354.07,-19.02 343.49,-18.53 345.49,-25.24"/>
</a>
</g>
</g>
<!-- Node13&#45;&gt;Node3 -->
<g id="edge21_Node000013_Node000003" class="edge">
<title>Node13&#45;&gt;Node3</title>
<g id="a_edge21_Node000013_Node000003"><a xlink:title=" ">
<path fill="none" stroke="#63b8ff" d="M232.12,-160.99C254.03,-155.86 282.4,-150.08 308,-147.5 379.2,-140.33 397.64,-142.16 469,-147.5 478.43,-148.21 488.34,-149.31 498.05,-150.59"/>
<polygon fill="#63b8ff" stroke="#63b8ff" points="497.67,-154.07 508.06,-151.99 498.64,-147.14 497.67,-154.07"/>
</a>
</g>
</g>
<!-- Node13&#45;&gt;Node4 -->
<g id="edge22_Node000013_Node000004" class="edge">
<title>Node13&#45;&gt;Node4</title>
<g id="a_edge22_Node000013_Node000004"><a xlink:title=" ">
<path fill="none" stroke="#63b8ff" d="M258.3,-180.04C282.07,-183.62 308.88,-187.66 331.9,-191.12"/>
<polygon fill="#63b8ff" stroke="#63b8ff" points="331.44,-194.59 341.85,-192.62 332.48,-187.67 331.44,-194.59"/>
</a>
</g>
</g>
<!-- Node14 -->
<g id="Node000014" class="node">
<title>Node14</title>
<g id="a_Node000014"><a xlink:href="structProblemData.html#a849ef6ded60771bec2a5e1b6faf0545c" target="_top" xlink:title="Adds a submission with duplicate&#45;ID detection.">
<polygon fill="white" stroke="#666666" points="469,-95 308,-95 308,-76 469,-76 469,-95"/>
<text text-anchor="middle" x="388.5" y="-83" font-family="Helvetica,sans-Serif" font-size="10.00">ProblemData::addSubmission</text>
</a>
</g>
</g>
<!-- Node13&#45;&gt;Node14 -->
<g id="edge20_Node000013_Node000014" class="edge">
<title>Node13&#45;&gt;Node14</title>
<g id="a_edge20_Node000013_Node000014"><a xlink:title=" ">
<path fill="none" stroke="#63b8ff" d="M210.23,-160.99C231.49,-148.01 271.56,-124.65 308,-109.5 318.29,-105.22 329.62,-101.33 340.42,-98"/>
<polygon fill="#63b8ff" stroke="#63b8ff" points="341.57,-101.31 350.15,-95.09 339.56,-94.6 341.57,-101.31"/>
</a>
</g>
</g>
</g>
</svg>
