<?xml version="1.0" encoding="UTF-8" standalone="no"?>
<!DOCTYPE svg PUBLIC "-//W3C//DTD SVG 1.1//EN"
 "http://www.w3.org/Graphics/SVG/1.1/DTD/svg11.dtd">
<!-- Generated by graphviz version 2.43.0 (0)
 -->
<!-- Title: Graph::addEdge Pages: 1 -->
<svg width="770pt" height="945pt"
 viewBox="0.00 0.00 770.00 945.07" xmlns="http://www.w3.org/2000/svg" xmlns:xlink="http://www.w3.org/1999/xlink">
<g id="graph0" class="graph" transform="scale(1 1) rotate(0) translate(4 941.07)">
<title>Graph::addEdge</title>
<!-- Node1 -->
<g id="Node000001" class="node">
<title>Node1</title>
<g id="a_Node000001"><a xlink:title="Adds a directed edge (u → v) with the given capacity, along with its reverse edge (v → u) with capaci...">
<polygon fill="#999999" stroke="#666666" points="762,-134.07 668,-134.07 668,-115.07 762,-115.07 762,-134.07"/>
<text text-anchor="middle" x="715" y="-122.07" font-family="Helvetica,sans-Serif" font-size="10.00">Graph::addEdge</text>
</a>
</g>
</g>
<!-- Node2 -->
<g id="Node000002" class="node">
<title>Node2</title>
<g id="a_Node000002"><a xlink:href="classNetworkBuilder.html#af514e79c3d2f21597c54e01c4ce9475d" target="_top" xlink:title="Builds the complete flow network.">
<polygon fill="white" stroke="#666666" points="632,-481.07 468,-481.07 468,-462.07 632,-462.07 632,-481.07"/>
<text text-anchor="middle" x="550" y="-469.07" font-family="Helvetica,sans-Serif" font-size="10.00">NetworkBuilder::buildNetwork</text>
</a>
</g>
</g>
<!-- Node1&#45;&gt;Node2 -->
<g id="edge1_Node000001_Node000002" class="edge">
<title>Node1&#45;&gt;Node2</title>
<g id="a_edge1_Node000001_Node000002"><a xlink:title=" ">
<path fill="none" stroke="#63b8ff" d="M705.1,-143.53C675.03,-207.54 577.87,-414.37 555.59,-461.81"/>
<polygon fill="#63b8ff" stroke="#63b8ff" points="708.39,-144.76 709.47,-134.22 702.05,-141.78 708.39,-144.76"/>
</a>
</g>
</g>
<!-- Node28 -->
<g id="Node000028" class="node">
<title>Node28</title>
<g id="a_Node000028"><a xlink:href="test__graph_8cpp.html#aa9fe2d4f80ec700f036c99c45dbcb44a" target="_top" xlink:title=" ">
<polygon fill="white" stroke="#666666" points="391.5,-172.07 308.5,-172.07 308.5,-153.07 391.5,-153.07 391.5,-172.07"/>
<text text-anchor="middle" x="350" y="-160.07" font-family="Helvetica,sans-Serif" font-size="10.00">test_ek_basic</text>
</a>
</g>
</g>
<!-- Node1&#45;&gt;Node28 -->
<g id="edge46_Node000001_Node000028" class="edge">
<title>Node1&#45;&gt;Node28</title>
<g id="a_edge46_Node000001_Node000028"><a xlink:title=" ">
<path fill="none" stroke="#63b8ff" d="M657.73,-134.82C649.13,-136.2 640.34,-137.51 632,-138.57 546.76,-149.47 446.33,-156.71 391.6,-160.18"/>
<polygon fill="#63b8ff" stroke="#63b8ff" points="658.4,-138.26 667.7,-133.18 657.26,-131.35 658.4,-138.26"/>
</a>
</g>
</g>
<!-- Node29 -->
<g id="Node000029" class="node">
<title>Node29</title>
<g id="a_Node000029"><a xlink:href="test__graph_8cpp.html#a7668801ef66019ab48870e268cae0ac7" target="_top" xlink:title=" ">
<polygon fill="white" stroke="#666666" points="399.5,-134.07 300.5,-134.07 300.5,-115.07 399.5,-115.07 399.5,-134.07"/>
<text text-anchor="middle" x="350" y="-122.07" font-family="Helvetica,sans-Serif" font-size="10.00">test_ek_bipartite</text>
</a>
</g>
</g>
<!-- Node1&#45;&gt;Node29 -->
<g id="edge48_Node000001_Node000029" class="edge">
<title>Node1&#45;&gt;Node29</title>
<g id="a_edge48_Node000001_Node000029"><a xlink:title=" ">
<path fill="none" stroke="#63b8ff" d="M657.58,-124.57C586.8,-124.57 466.6,-124.57 399.67,-124.57"/>
<polygon fill="#63b8ff" stroke="#63b8ff" points="657.66,-128.07 667.66,-124.57 657.66,-121.07 657.66,-128.07"/>
</a>
</g>
</g>
<!-- Node30 -->
<g id="Node000030" class="node">
<title>Node30</title>
<g id="a_Node000030"><a xlink:href="test__graph_8cpp.html#ae09ac815063f93051d90ba341c587e64" target="_top" xlink:title=" ">
<polygon fill="white" stroke="#666666" points="611,-96.07 489,-96.07 489,-77.07 611,-77.07 611,-96.07"/>
<text text-anchor="middle" x="550" y="-84.07" font-family="Helvetica,sans-Serif" font-size="10.00">test_ek_disconnected</text>
</a>
</g>
</g>
<!-- Node1&#45;&gt;Node30 -->
<g id="edge50_Node000001_Node000030" class="edge">
<title>Node1&#45;&gt;Node30</title>
<g id="a_edge50_Node000001_Node000030"><a xlink:title=" ">
<path fill="none" stroke="#63b8ff" d="M662.97,-112.68C640.06,-107.34 613.4,-101.12 591.84,-96.09"/>
<polygon fill="#63b8ff" stroke="#63b8ff" points="662.33,-116.12 672.87,-114.98 663.92,-109.31 662.33,-116.12"/>
</a>
</g>
</g>
<!-- Node31 -->
<g id="Node000031" class="node">
<title>Node31</title>
<g id="a_Node000031"><a xlink:href="test__graph_8cpp.html#af8e0237822a4d1632dc6060f21216b46" target="_top" xlink:title=" ">
<polygon fill="white" stroke="#666666" points="591.5,-59.07 508.5,-59.07 508.5,-40.07 591.5,-40.07 591.5,-59.07"/>
<text text-anchor="middle" x="550" y="-47.07" font-family="Helvetica,sans-Serif" font-size="10.00">test_ek_reset</text>
</a>
</g>
</g>
<!-- Node1&#45;&gt;Node31 -->
<g id="edge52_Node000001_Node000031" class="edge">
<title>Node1&#45;&gt;Node31</title>
<g id="a_edge52_Node000001_Node000031"><a xlink:title=" ">
<path fill="none" stroke="#63b8ff" d="M695.24,-108.33C679.4,-95.43 655.58,-77.91 632,-67.57 619.33,-62.02 604.78,-58.1 591.53,-55.37"/>
<polygon fill="#63b8ff" stroke="#63b8ff" points="693.25,-111.22 703.17,-114.94 697.73,-105.85 693.25,-111.22"/>
</a>
</g>
</g>
<!-- Node3 -->
<g id="Node000003" class="node">
<title>Node3</title>
<g id="a_Node000003"><a xlink:href="classSolver.html#a845e12dc97a5d14a365b1e3001aba114" target="_top" xlink:title="Solves the assignment problem for the given data.">
<polygon fill="white" stroke="#666666" points="390,-481.07 310,-481.07 310,-462.07 390,-462.07 390,-481.07"/>
<text text-anchor="middle" x="350" y="-469.07" font-family="Helvetica,sans-Serif" font-size="10.00">Solver::solve</text>
</a>
</g>
</g>
<!-- Node2&#45;&gt;Node3 -->
<g id="edge2_Node000002_Node000003" class="edge">
<title>Node2&#45;&gt;Node3</title>
<g id="a_edge2_Node000002_Node000003"><a xlink:title=" ">
<path fill="none" stroke="#63b8ff" d="M457.77,-471.57C434.03,-471.57 409.7,-471.57 390.26,-471.57"/>
<polygon fill="#63b8ff" stroke="#63b8ff" points="457.89,-475.07 467.89,-471.57 457.89,-468.07 457.89,-475.07"/>
</a>
</g>
</g>
<!-- Node22 -->
<g id="Node000022" class="node">
<title>Node22</title>
<g id="a_Node000022"><a xlink:href="classSolver.html#ae2ca491c309b717821844e7f2a9ea629" target="_top" xlink:title="Performs Risk Analysis with parameter K = 1.">
<polygon fill="white" stroke="#666666" points="432,-752.07 268,-752.07 268,-733.07 432,-733.07 432,-752.07"/>
<text text-anchor="middle" x="350" y="-740.07" font-family="Helvetica,sans-Serif" font-size="10.00">Solver::solveWithRiskAnalysis</text>
</a>
</g>
</g>
<!-- Node2&#45;&gt;Node22 -->
<g id="edge33_Node000002_Node000022" class="edge">
<title>Node2&#45;&gt;Node22</title>
<g id="a_edge33_Node000002_Node000022"><a xlink:title=" ">
<path fill="none" stroke="#63b8ff" d="M535.87,-489.54C497.57,-541.97 386.85,-693.5 357.96,-733.04"/>
<polygon fill="#63b8ff" stroke="#63b8ff" points="538.88,-491.36 541.95,-481.22 533.23,-487.23 538.88,-491.36"/>
</a>
</g>
</g>
<!-- Node4 -->
<g id="Node000004" class="node">
<title>Node4</title>
<g id="a_Node000004"><a xlink:href="main_8cpp.html#adccc9f5ff7d7a84b4f757ddc2e00c25b" target="_top" xlink:title="Executes the program in batch mode.">
<polygon fill="white" stroke="#666666" points="184.5,-641.07 124.5,-641.07 124.5,-622.07 184.5,-622.07 184.5,-641.07"/>
<text text-anchor="middle" x="154.5" y="-629.07" font-family="Helvetica,sans-Serif" font-size="10.00">runBatch</text>
</a>
</g>
</g>
<!-- Node3&#45;&gt;Node4 -->
<g id="edge3_Node000003_Node000004" class="edge">
<title>Node3&#45;&gt;Node4</title>
<g id="a_edge3_Node000003_Node000004"><a xlink:title=" ">
<path fill="none" stroke="#63b8ff" d="M339,-489.99C321.49,-520.42 282.31,-580.97 232,-612.57 217.86,-621.45 199.83,-626.18 184.82,-628.7"/>
<polygon fill="#63b8ff" stroke="#63b8ff" points="342.07,-491.68 343.91,-481.24 335.96,-488.25 342.07,-491.68"/>
</a>
</g>
</g>
<!-- Node6 -->
<g id="Node000006" class="node">
<title>Node6</title>
<g id="a_Node000006"><a xlink:href="main_8cpp.html#aef0bcc404dd408e438ce7fa09e4ea3f7" target="_top" xlink:title="Executes the program in interactive mode.">
<polygon fill="white" stroke="#666666" points="197,-678.07 112,-678.07 112,-659.07 197,-659.07 197,-678.07"/>
<text text-anchor="middle" x="154.5" y="-666.07" font-family="Helvetica,sans-Serif" font-size="10.00">runInteractive</text>
</a>
</g>
</g>
<!-- Node3&#45;&gt;Node6 -->
<g id="edge5_Node000003_Node000006" class="edge">
<title>Node3&#45;&gt;Node6</title>
<g id="a_edge5_Node000003_Node000006"><a xlink:title=" ">
<path fill="none" stroke="#63b8ff" d="M342.08,-490.79C327.7,-527.86 290.93,-609.25 232,-650.57 221.83,-657.7 209.23,-662.04 197.2,-664.66"/>
<polygon fill="#63b8ff" stroke="#63b8ff" points="345.45,-491.78 345.69,-481.18 338.9,-489.32 345.45,-491.78"/>
</a>
</g>
</g>
<!-- Node7 -->
<g id="Node000007" class="node">
<title>Node7</title>
<g id="a_Node000007"><a xlink:href="test__graph_8cpp.html#aabe34e3298f44b2a590c5785cfb187e8" target="_top" xlink:title=" ">
<polygon fill="white" stroke="#666666" points="211.5,-369.57 97.5,-369.57 97.5,-339.57 211.5,-339.57 211.5,-369.57"/>
<text text-anchor="start" x="105.5" y="-357.57" font-family="Helvetica,sans-Serif" font-size="10.00">test_corner_maxrev</text>
<text text-anchor="middle" x="154.5" y="-346.57" font-family="Helvetica,sans-Serif" font-size="10.00">_bottleneck</text>
</a>
</g>
</g>
<!-- Node3&#45;&gt;Node7 -->
<g id="edge7_Node000003_Node000007" class="edge">
<title>Node3&#45;&gt;Node7</title>
<g id="a_edge7_Node000003_Node000007"><a xlink:title=" ">
<path fill="none" stroke="#63b8ff" d="M331.81,-454.82C310.14,-434.51 271,-400.43 232,-379.57 224.98,-375.82 217.29,-372.49 209.58,-369.6"/>
<polygon fill="#63b8ff" stroke="#63b8ff" points="329.56,-457.52 339.22,-461.87 334.39,-452.44 329.56,-457.52"/>
</a>
</g>
</g>
<!-- Node9 -->
<g id="Node000009" class="node">
<title>Node9</title>
<g id="a_Node000009"><a xlink:href="test__graph_8cpp.html#afb6fc70c45804d5516d4936ec4115cd1" target="_top" xlink:title=" ">
<polygon fill="white" stroke="#666666" points="225.5,-321.07 83.5,-321.07 83.5,-302.07 225.5,-302.07 225.5,-321.07"/>
<text text-anchor="middle" x="154.5" y="-309.07" font-family="Helvetica,sans-Serif" font-size="10.00">test_corner_no_reviewers</text>
</a>
</g>
</g>
<!-- Node3&#45;&gt;Node9 -->
<g id="edge9_Node000003_Node000009" class="edge">
<title>Node3&#45;&gt;Node9</title>
<g id="a_edge9_Node000003_Node000009"><a xlink:title=" ">
<path fill="none" stroke="#63b8ff" d="M339,-453.16C321.49,-422.72 282.31,-362.17 232,-330.57 225.86,-326.72 218.98,-323.64 211.93,-321.19"/>
<polygon fill="#63b8ff" stroke="#63b8ff" points="335.96,-454.9 343.91,-461.9 342.07,-451.47 335.96,-454.9"/>
</a>
</g>
</g>
<!-- Node10 -->
<g id="Node000010" class="node">
<title>Node10</title>
<g id="a_Node000010"><a xlink:href="test__graph_8cpp.html#acdaff2524640ac8e6e9644e7106b04ba" target="_top" xlink:title=" ">
<polygon fill="white" stroke="#666666" points="232,-284.07 77,-284.07 77,-265.07 232,-265.07 232,-284.07"/>
<text text-anchor="middle" x="154.5" y="-272.07" font-family="Helvetica,sans-Serif" font-size="10.00">test_corner_no_submissions</text>
</a>
</g>
</g>
<!-- Node3&#45;&gt;Node10 -->
<g id="edge11_Node000003_Node000010" class="edge">
<title>Node3&#45;&gt;Node10</title>
<g id="a_edge11_Node000003_Node000010"><a xlink:title=" ">
<path fill="none" stroke="#63b8ff" d="M342.01,-452.53C327.49,-415.77 290.5,-335.02 232,-293.57 226.53,-289.7 220.35,-286.61 213.93,-284.15"/>
<polygon fill="#63b8ff" stroke="#63b8ff" points="338.81,-453.96 345.65,-462.05 345.34,-451.46 338.81,-453.96"/>
</a>
</g>
</g>
<!-- Node11 -->
<g id="Node000011" class="node">
<title>Node11</title>
<g id="a_Node000011"><a xlink:href="test__graph_8cpp.html#ae160a573baa527c8e420eddbce3cab30" target="_top" xlink:title=" ">
<polygon fill="white" stroke="#666666" points="212,-247.07 97,-247.07 97,-228.07 212,-228.07 212,-247.07"/>
<text text-anchor="middle" x="154.5" y="-235.07" font-family="Helvetica,sans-Serif" font-size="10.00">test_full_integration</text>
</a>
</g>
</g>
<!-- Node3&#45;&gt;Node11 -->
<g id="edge13_Node000003_Node000011" class="edge">
<title>Node3&#45;&gt;Node11</title>
<g id="a_edge13_Node000003_Node000011"><a xlink:title=" ">
<path fill="none" stroke="#63b8ff" d="M344.17,-452.16C332.56,-409.72 298.98,-308.34 232,-256.57 226.15,-252.05 219.37,-248.6 212.3,-245.95"/>
<polygon fill="#63b8ff" stroke="#63b8ff" points="340.84,-453.26 346.76,-462.05 347.61,-451.49 340.84,-453.26"/>
</a>
</g>
</g>
<!-- Node12 -->
<g id="Node000012" class="node">
<title>Node12</title>
<g id="a_Node000012"><a xlink:href="test__output_8cpp.html#ae22f862265d01c0acb3649c247f4a726" target="_top" xlink:title=" ">
<polygon fill="white" stroke="#666666" points="210,-789.07 99,-789.07 99,-770.07 210,-770.07 210,-789.07"/>
<text text-anchor="middle" x="154.5" y="-777.07" font-family="Helvetica,sans-Serif" font-size="10.00">test_output_figure2</text>
</a>
</g>
</g>
<!-- Node3&#45;&gt;Node12 -->
<g id="edge15_Node000003_Node000012" class="edge">
<title>Node3&#45;&gt;Node12</title>
<g id="a_edge15_Node000003_Node000012"><a xlink:title=" ">
<path fill="none" stroke="#63b8ff" d="M347.18,-491.12C341.21,-543.54 317.4,-688.28 232,-761.57 225.68,-766.99 218.03,-770.85 210.05,-773.59"/>
<polygon fill="#63b8ff" stroke="#63b8ff" points="350.67,-491.44 348.22,-481.13 343.7,-490.71 350.67,-491.44"/>
</a>
</g>
</g>
<!-- Node14 -->
<g id="Node000014" class="node">
<title>Node14</title>
<g id="a_Node000014"><a xlink:href="test__output_8cpp.html#a998d4d57520dc3729aada36d40d97db9" target="_top" xlink:title=" ">
<polygon fill="white" stroke="#666666" points="210,-752.07 99,-752.07 99,-733.07 210,-733.07 210,-752.07"/>
<text text-anchor="middle" x="154.5" y="-740.07" font-family="Helvetica,sans-Serif" font-size="10.00">test_output_figure3</text>
</a>
</g>
</g>
<!-- Node3&#45;&gt;Node14 -->
<g id="edge17_Node000003_Node000014" class="edge">
<title>Node3&#45;&gt;Node14</title>
<g id="a_edge17_Node000003_Node000014"><a xlink:title=" ">
<path fill="none" stroke="#63b8ff" d="M345.91,-491.15C337.28,-538.96 308.37,-662.26 232,-724.57 225.66,-729.75 218.09,-733.49 210.21,-736.18"/>
<polygon fill="#63b8ff" stroke="#63b8ff" points="349.38,-491.63 347.6,-481.18 342.47,-490.45 349.38,-491.63"/>
</a>
</g>
</g>
<!-- Node15 -->
<g id="Node000015" class="node">
<title>Node15</title>
<g id="a_Node000015"><a xlink:href="test__output_8cpp.html#aaa716ae6efa6c8bef11ea699a4be56d2" target="_top" xlink:title=" ">
<polygon fill="white" stroke="#666666" points="208.5,-715.07 100.5,-715.07 100.5,-696.07 208.5,-696.07 208.5,-715.07"/>
<text text-anchor="middle" x="154.5" y="-703.07" font-family="Helvetica,sans-Serif" font-size="10.00">test_output_sorted</text>
</a>
</g>
</g>
<!-- Node3&#45;&gt;Node15 -->
<g id="edge19_Node000003_Node000015" class="edge">
<title>Node3&#45;&gt;Node15</title>
<g id="a_edge19_Node000003_Node000015"><a xlink:title=" ">
<path fill="none" stroke="#63b8ff" d="M344.32,-490.86C332.93,-533.46 299.63,-635.87 232,-687.57 225.17,-692.79 217.07,-696.54 208.74,-699.21"/>
<polygon fill="#63b8ff" stroke="#63b8ff" points="347.71,-491.73 346.8,-481.17 340.93,-489.99 347.71,-491.73"/>
</a>
</g>
</g>
<!-- Node16 -->
<g id="Node000016" class="node">
<title>Node16</title>
<g id="a_Node000016"><a xlink:href="test__graph_8cpp.html#a2bd07a82f32ec21b6fa28a86ee9bf941" target="_top" xlink:title=" ">
<polygon fill="white" stroke="#666666" points="218,-210.07 91,-210.07 91,-191.07 218,-191.07 218,-210.07"/>
<text text-anchor="middle" x="154.5" y="-198.07" font-family="Helvetica,sans-Serif" font-size="10.00">test_secondary_match</text>
</a>
</g>
</g>
<!-- Node3&#45;&gt;Node16 -->
<g id="edge21_Node000003_Node000016" class="edge">
<title>Node3&#45;&gt;Node16</title>
<g id="a_edge21_Node000003_Node000016"><a xlink:title=" ">
<path fill="none" stroke="#63b8ff" d="M345.83,-452.13C337.04,-404.64 307.78,-282.09 232,-219.57 227.36,-215.74 222.05,-212.67 216.44,-210.2"/>
<polygon fill="#63b8ff" stroke="#63b8ff" points="342.39,-452.78 347.57,-462.03 349.29,-451.58 342.39,-452.78"/>
</a>
</g>
</g>
<!-- Node17 -->
<g id="Node000017" class="node">
<title>Node17</title>
<g id="a_Node000017"><a xlink:href="test__graph_8cpp.html#a0b2b929f3f92ed72ebb706539ba28f72" target="_top" xlink:title=" ">
<polygon fill="white" stroke="#666666" points="209.5,-555.07 99.5,-555.07 99.5,-536.07 209.5,-536.07 209.5,-555.07"/>
<text text-anchor="middle" x="154.5" y="-543.07" font-family="Helvetica,sans-Serif" font-size="10.00">test_solver_figure1</text>
</a>
</g>
</g>
<!-- Node3&#45;&gt;Node17 -->
<g id="edge23_Node000003_Node000017" class="edge">
<title>Node3&#45;&gt;Node17</title>
<g id="a_edge23_Node000003_Node000017"><a xlink:title=" ">
<path fill="none" stroke="#63b8ff" d="M323.17,-485.93C299.91,-498.37 264.48,-516.13 232,-527.57 222.86,-530.79 212.91,-533.61 203.3,-536"/>
<polygon fill="#63b8ff" stroke="#63b8ff" points="324.93,-488.96 332.05,-481.12 321.59,-482.81 324.93,-488.96"/>
</a>
</g>
</g>
<!-- Node18 -->
<g id="Node000018" class="node">
<title>Node18</title>
<g id="a_Node000018"><a xlink:href="test__graph_8cpp.html#ae08b5e2d9ec151376641907871fb6d1a" target="_top" xlink:title=" ">
<polygon fill="white" stroke="#666666" points="212.5,-518.07 96.5,-518.07 96.5,-499.07 212.5,-499.07 212.5,-518.07"/>
<text text-anchor="middle" x="154.5" y="-506.07" font-family="Helvetica,sans-Serif" font-size="10.00">test_solver_minrev2</text>
</a>
</g>
</g>
<!-- Node3&#45;&gt;Node18 -->
<g id="edge25_Node000003_Node000018" class="edge">
<title>Node3&#45;&gt;Node18</title>
<g id="a_edge25_Node000003_Node000018"><a xlink:title=" ">
<path fill="none" stroke="#63b8ff" d="M299.94,-480.95C270.96,-486.49 234.39,-493.49 205.29,-499.05"/>
<polygon fill="#63b8ff" stroke="#63b8ff" points="300.68,-484.38 309.84,-479.06 299.36,-477.5 300.68,-484.38"/>
</a>
</g>
</g>
<!-- Node19 -->
<g id="Node000019" class="node">
<title>Node19</title>
<g id="a_Node000019"><a xlink:href="test__graph_8cpp.html#ac64ff524d61b175dce290be1685ae797" target="_top" xlink:title=" ">
<polygon fill="white" stroke="#666666" points="226,-481.07 83,-481.07 83,-462.07 226,-462.07 226,-481.07"/>
<text text-anchor="middle" x="154.5" y="-469.07" font-family="Helvetica,sans-Serif" font-size="10.00">test_solver_multi_domain</text>
</a>
</g>
</g>
<!-- Node3&#45;&gt;Node19 -->
<g id="edge27_Node000003_Node000019" class="edge">
<title>Node3&#45;&gt;Node19</title>
<g id="a_edge27_Node000003_Node000019"><a xlink:title=" ">
<path fill="none" stroke="#63b8ff" d="M299.62,-471.57C277.36,-471.57 250.65,-471.57 226.3,-471.57"/>
<polygon fill="#63b8ff" stroke="#63b8ff" points="299.84,-475.07 309.84,-471.57 299.84,-468.07 299.84,-475.07"/>
</a>
</g>
</g>
<!-- Node20 -->
<g id="Node000020" class="node">
<title>Node20</title>
<g id="a_Node000020"><a xlink:href="test__graph_8cpp.html#ad31c62f747c428536c260667126eae66" target="_top" xlink:title=" ">
<polygon fill="white" stroke="#666666" points="208,-444.07 101,-444.07 101,-425.07 208,-425.07 208,-444.07"/>
<text text-anchor="middle" x="154.5" y="-432.07" font-family="Helvetica,sans-Serif" font-size="10.00">test_solver_partial</text>
</a>
</g>
</g>
<!-- Node3&#45;&gt;Node20 -->
<g id="edge29_Node000003_Node000020" class="edge">
<title>Node3&#45;&gt;Node20</title>
<g id="a_edge29_Node000003_Node000020"><a xlink:title=" ">
<path fill="none" stroke="#63b8ff" d="M299.94,-462.19C270.96,-456.65 234.39,-449.66 205.29,-444.09"/>
<polygon fill="#63b8ff" stroke="#63b8ff" points="299.36,-465.65 309.84,-464.09 300.68,-458.77 299.36,-465.65"/>
</a>
</g>
</g>
<!-- Node21 -->
<g id="Node000021" class="node">
<title>Node21</title>
<g id="a_Node000021"><a xlink:href="test__graph_8cpp.html#aca441d5ebe3894bca1449f02e0fd8e48" target="_top" xlink:title=" ">
<polygon fill="white" stroke="#666666" points="189.5,-407.07 119.5,-407.07 119.5,-388.07 189.5,-388.07 189.5,-407.07"/>
<text text-anchor="middle" x="154.5" y="-395.07" font-family="Helvetica,sans-Serif" font-size="10.00">test_stress</text>
</a>
</g>
</g>
<!-- Node3&#45;&gt;Node21 -->
<g id="edge31_Node000003_Node000021" class="edge">
<title>Node3&#45;&gt;Node21</title>
<g id="a_edge31_Node000003_Node000021"><a xlink:title=" ">
<path fill="none" stroke="#63b8ff" d="M322.29,-457.17C298.98,-445.06 263.97,-427.93 232,-416.57 218.46,-411.76 203.16,-407.7 189.82,-404.58"/>
<polygon fill="#63b8ff" stroke="#63b8ff" points="320.75,-460.31 331.23,-461.87 324,-454.12 320.75,-460.31"/>
</a>
</g>
</g>
<!-- Node5 -->
<g id="Node000005" class="node">
<title>Node5</title>
<g id="a_Node000005"><a xlink:href="main_8cpp.html#a0ddf1224851353fc92bfbff6f499fa97" target="_top" xlink:title="Program entry point.">
<polygon fill="white" stroke="#666666" points="41,-659.07 0,-659.07 0,-640.07 41,-640.07 41,-659.07"/>
<text text-anchor="middle" x="20.5" y="-647.07" font-family="Helvetica,sans-Serif" font-size="10.00">main</text>
</a>
</g>
</g>
<!-- Node4&#45;&gt;Node5 -->
<g id="edge4_Node000004_Node000005" class="edge">
<title>Node4&#45;&gt;Node5</title>
<g id="a_edge4_Node000004_Node000005"><a xlink:title=" ">
<path fill="none" stroke="#63b8ff" d="M113.98,-636.96C90.01,-640.23 60.46,-644.26 41.31,-646.87"/>
<polygon fill="#63b8ff" stroke="#63b8ff" points="114.77,-640.39 124.2,-635.57 113.82,-633.45 114.77,-640.39"/>
</a>
</g>
</g>
<!-- Node6&#45;&gt;Node5 -->
<g id="edge6_Node000006_Node000005" class="edge">
<title>Node6&#45;&gt;Node5</title>
<g id="a_edge6_Node000006_Node000005"><a xlink:title=" ">
<path fill="none" stroke="#63b8ff" d="M101.55,-661.1C80.39,-658.05 57.21,-654.71 41.26,-652.42"/>
<polygon fill="#63b8ff" stroke="#63b8ff" points="101.34,-664.6 111.73,-662.56 102.34,-657.67 101.34,-664.6"/>
</a>
</g>
</g>
<!-- Node8 -->
<g id="Node000008" class="node">
<title>Node8</title>
<g id="a_Node000008"><a xlink:href="test__graph_8cpp.html#ae66f6b31b5ad750f1fe042a706a4e3d4" target="_top" xlink:title=" ">
<polygon fill="white" stroke="#666666" points="41,-343.07 0,-343.07 0,-324.07 41,-324.07 41,-343.07"/>
<text text-anchor="middle" x="20.5" y="-331.07" font-family="Helvetica,sans-Serif" font-size="10.00">main</text>
</a>
</g>
</g>
<!-- Node7&#45;&gt;Node8 -->
<g id="edge8_Node000007_Node000008" class="edge">
<title>Node7&#45;&gt;Node8</title>
<g id="a_edge8_Node000007_Node000008"><a xlink:title=" ">
<path fill="none" stroke="#63b8ff" d="M86.81,-343.96C70.17,-341.32 53.59,-338.68 41.3,-336.72"/>
<polygon fill="#63b8ff" stroke="#63b8ff" points="86.71,-347.49 97.14,-345.61 87.81,-340.58 86.71,-347.49"/>
</a>
</g>
</g>
<!-- Node9&#45;&gt;Node8 -->
<g id="edge10_Node000009_Node000008" class="edge">
<title>Node9&#45;&gt;Node8</title>
<g id="a_edge10_Node000009_Node000008"><a xlink:title=" ">
<path fill="none" stroke="#63b8ff" d="M86.11,-322.81C69.59,-325.56 53.19,-328.29 41.05,-330.32"/>
<polygon fill="#63b8ff" stroke="#63b8ff" points="87.08,-326.19 96.37,-321.09 85.93,-319.29 87.08,-326.19"/>
</a>
</g>
</g>
<!-- Node10&#45;&gt;Node8 -->
<g id="edge12_Node000010_Node000008" class="edge">
<title>Node10&#45;&gt;Node8</title>
<g id="a_edge12_Node000010_Node000008"><a xlink:title=" ">
<path fill="none" stroke="#63b8ff" d="M93.55,-287.1C87.85,-288.99 82.25,-291.14 77,-293.57 59.97,-301.46 42.82,-314.85 32.19,-323.94"/>
<polygon fill="#63b8ff" stroke="#63b8ff" points="94.63,-290.43 103.17,-284.16 92.59,-283.74 94.63,-290.43"/>
</a>
</g>
</g>
<!-- Node11&#45;&gt;Node8 -->
<g id="edge14_Node000011_Node000008" class="edge">
<title>Node11&#45;&gt;Node8</title>
<g id="a_edge14_Node000011_Node000008"><a xlink:title=" ">
<path fill="none" stroke="#63b8ff" d="M87.47,-250.65C83.81,-252.39 80.29,-254.35 77,-256.57 51.34,-273.93 33.44,-307.32 25.74,-323.84"/>
<polygon fill="#63b8ff" stroke="#63b8ff" points="88.9,-253.85 96.81,-246.8 86.23,-247.38 88.9,-253.85"/>
</a>
</g>
</g>
<!-- Node13 -->
<g id="Node000013" class="node">
<title>Node13</title>
<g id="a_Node000013"><a xlink:href="test__output_8cpp.html#ae66f6b31b5ad750f1fe042a706a4e3d4" target="_top" xlink:title=" ">
<polygon fill="white" stroke="#666666" points="41,-826.07 0,-826.07 0,-807.07 41,-807.07 41,-826.07"/>
<text text-anchor="middle" x="20.5" y="-814.07" font-family="Helvetica,sans-Serif" font-size="10.00">main</text>
</a>
</g>
</g>
<!-- Node12&#45;&gt;Node13 -->
<g id="edge16_Node000012_Node000013" class="edge">
<title>Node12&#45;&gt;Node13</title>
<g id="a_edge16_Node000012_Node000013"><a xlink:title=" ">
<path fill="none" stroke="#63b8ff" d="M103.14,-791.55C94.39,-793.78 85.41,-796.17 77,-798.57 65.02,-802 51.74,-806.29 41.18,-809.82"/>
<polygon fill="#63b8ff" stroke="#63b8ff" points="104.02,-794.94 112.86,-789.1 102.31,-788.15 104.02,-794.94"/>
</a>
</g>
</g>
<!-- Node14&#45;&gt;Node13 -->
<g id="edge18_Node000014_Node000013" class="edge">
<title>Node14&#45;&gt;Node13</title>
<g id="a_edge18_Node000014_Node000013"><a xlink:title=" ">
<path fill="none" stroke="#63b8ff" d="M89.66,-755.59C85.26,-757.34 81,-759.32 77,-761.57 56.42,-773.14 38.18,-794.39 28.6,-806.82"/>
<polygon fill="#63b8ff" stroke="#63b8ff" points="91.17,-758.76 99.42,-752.11 88.82,-752.17 91.17,-758.76"/>
</a>
</g>
</g>
<!-- Node15&#45;&gt;Node13 -->
<g id="edge20_Node000015_Node000013" class="edge">
<title>Node15&#45;&gt;Node13</title>
<g id="a_edge20_Node000015_Node000013"><a xlink:title=" ">
<path fill="none" stroke="#63b8ff" d="M90.81,-716.66C85.91,-718.84 81.23,-721.45 77,-724.57 47.73,-746.17 30.85,-788.25 24.47,-807.07"/>
<polygon fill="#63b8ff" stroke="#63b8ff" points="92.37,-719.81 100.45,-712.96 89.86,-713.27 92.37,-719.81"/>
</a>
</g>
</g>
<!-- Node16&#45;&gt;Node8 -->
<g id="edge22_Node000016_Node000008" class="edge">
<title>Node16&#45;&gt;Node8</title>
<g id="a_edge22_Node000016_Node000008"><a xlink:title=" ">
<path fill="none" stroke="#63b8ff" d="M83.64,-214.92C81.32,-216.33 79.09,-217.88 77,-219.57 42.61,-247.41 28.01,-301.81 23.32,-323.9"/>
<polygon fill="#63b8ff" stroke="#63b8ff" points="85.71,-217.79 93.01,-210.12 82.52,-211.56 85.71,-217.79"/>
</a>
</g>
</g>
<!-- Node17&#45;&gt;Node8 -->
<g id="edge24_Node000017_Node000008" class="edge">
<title>Node17&#45;&gt;Node8</title>
<g id="a_edge24_Node000017_Node000008"><a xlink:title=" ">
<path fill="none" stroke="#63b8ff" d="M89.86,-536.5C85.17,-534.12 80.79,-531.19 77,-527.57 22.74,-475.84 20.41,-375.03 21.11,-343.35"/>
<polygon fill="#63b8ff" stroke="#63b8ff" points="88.65,-539.79 99.23,-540.42 91.35,-533.33 88.65,-539.79"/>
</a>
</g>
</g>
<!-- Node18&#45;&gt;Node8 -->
<g id="edge26_Node000018_Node000008" class="edge">
<title>Node18&#45;&gt;Node8</title>
<g id="a_edge26_Node000018_Node000008"><a xlink:title=" ">
<path fill="none" stroke="#63b8ff" d="M87.06,-497.66C83.45,-495.66 80.06,-493.31 77,-490.57 32.02,-450.23 23.49,-371.12 21.88,-343.43"/>
<polygon fill="#63b8ff" stroke="#63b8ff" points="85.86,-500.96 96.41,-501.97 88.79,-494.61 85.86,-500.96"/>
</a>
</g>
</g>
<!-- Node19&#45;&gt;Node8 -->
<g id="edge28_Node000019_Node000008" class="edge">
<title>Node19&#45;&gt;Node8</title>
<g id="a_edge28_Node000019_Node000008"><a xlink:title=" ">
<path fill="none" stroke="#63b8ff" d="M81.84,-457.11C80.17,-456.01 78.55,-454.83 77,-453.57 40.9,-424.12 27.15,-365.92 23.01,-343.09"/>
<polygon fill="#63b8ff" stroke="#63b8ff" points="80.22,-460.21 90.67,-461.95 83.59,-454.07 80.22,-460.21"/>
</a>
</g>
</g>
<!-- Node20&#45;&gt;Node8 -->
<g id="edge30_Node000020_Node000008" class="edge">
<title>Node20&#45;&gt;Node8</title>
<g id="a_edge30_Node000020_Node000008"><a xlink:title=" ">
<path fill="none" stroke="#63b8ff" d="M90.98,-424.14C86.04,-422.05 81.3,-419.56 77,-416.57 49.79,-397.71 32.29,-360.79 25.15,-343.26"/>
<polygon fill="#63b8ff" stroke="#63b8ff" points="90.07,-427.53 100.66,-427.66 92.46,-420.95 90.07,-427.53"/>
</a>
</g>
</g>
<!-- Node21&#45;&gt;Node8 -->
<g id="edge32_Node000021_Node000008" class="edge">
<title>Node21&#45;&gt;Node8</title>
<g id="a_edge32_Node000021_Node000008"><a xlink:title=" ">
<path fill="none" stroke="#63b8ff" d="M109.41,-390.1C98.48,-387.32 87.03,-383.57 77,-378.57 58.79,-369.5 41.14,-353.58 30.8,-343.32"/>
<polygon fill="#63b8ff" stroke="#63b8ff" points="108.71,-393.53 119.24,-392.39 110.3,-386.72 108.71,-393.53"/>
</a>
</g>
</g>
<!-- Node22&#45;&gt;Node4 -->
<g id="edge34_Node000022_Node000004" class="edge">
<title>Node22&#45;&gt;Node4</title>
<g id="a_edge34_Node000022_Node000004"><a xlink:title=" ">
<path fill="none" stroke="#63b8ff" d="M332.38,-725.67C311.03,-704.93 271.93,-670.1 232,-650.57 217.25,-643.36 199.52,-638.73 184.84,-635.85"/>
<polygon fill="#63b8ff" stroke="#63b8ff" points="330.09,-728.33 339.66,-732.87 335.01,-723.35 330.09,-728.33"/>
</a>
</g>
</g>
<!-- Node22&#45;&gt;Node6 -->
<g id="edge35_Node000022_Node000006" class="edge">
<title>Node22&#45;&gt;Node6</title>
<g id="a_edge35_Node000022_Node000006"><a xlink:title=" ">
<path fill="none" stroke="#63b8ff" d="M322.29,-728.17C298.98,-716.06 263.97,-698.93 232,-687.57 220.91,-683.63 208.64,-680.2 197.23,-677.37"/>
<polygon fill="#63b8ff" stroke="#63b8ff" points="320.75,-731.31 331.23,-732.87 324,-725.12 320.75,-731.31"/>
</a>
</g>
</g>
<!-- Node23 -->
<g id="Node000023" class="node">
<title>Node23</title>
<g id="a_Node000023"><a xlink:href="test__output_8cpp.html#ad98b96469ee1c28ab8390957efbc52e5" target="_top" xlink:title=" ">
<polygon fill="white" stroke="#666666" points="221,-937.07 88,-937.07 88,-918.07 221,-918.07 221,-937.07"/>
<text text-anchor="middle" x="154.5" y="-925.07" font-family="Helvetica,sans-Serif" font-size="10.00">test_full_batch_pipeline</text>
</a>
</g>
</g>
<!-- Node22&#45;&gt;Node23 -->
<g id="edge36_Node000022_Node000023" class="edge">
<title>Node22&#45;&gt;Node23</title>
<g id="a_edge36_Node000022_Node000023"><a xlink:title=" ">
<path fill="none" stroke="#63b8ff" d="M341.08,-761.95C325.64,-797.19 288.04,-871.61 232,-909.57 226.92,-913.02 221.26,-915.81 215.38,-918.06"/>
<polygon fill="#63b8ff" stroke="#63b8ff" points="344.47,-762.93 345.16,-752.36 338.03,-760.19 344.47,-762.93"/>
</a>
</g>
</g>
<!-- Node24 -->
<g id="Node000024" class="node">
<title>Node24</title>
<g id="a_Node000024"><a xlink:href="test__output_8cpp.html#a24a7f840628b276584f7f09649fa5ccb" target="_top" xlink:title=" ">
<polygon fill="white" stroke="#666666" points="210,-900.07 99,-900.07 99,-881.07 210,-881.07 210,-900.07"/>
<text text-anchor="middle" x="154.5" y="-888.07" font-family="Helvetica,sans-Serif" font-size="10.00">test_output_figure4</text>
</a>
</g>
</g>
<!-- Node22&#45;&gt;Node24 -->
<g id="edge38_Node000022_Node000024" class="edge">
<title>Node22&#45;&gt;Node24</title>
<g id="a_edge38_Node000022_Node000024"><a xlink:title=" ">
<path fill="none" stroke="#63b8ff" d="M337.9,-760.8C319.56,-789.3 280.12,-844.08 232,-872.57 225.31,-876.54 217.8,-879.63 210.18,-882.04"/>
<polygon fill="#63b8ff" stroke="#63b8ff" points="340.94,-762.55 343.3,-752.22 335.01,-758.82 340.94,-762.55"/>
</a>
</g>
</g>
<!-- Node25 -->
<g id="Node000025" class="node">
<title>Node25</title>
<g id="a_Node000025"><a xlink:href="test__output_8cpp.html#a8907cb43e3cf97150ebba79a523d26cf" target="_top" xlink:title=" ">
<polygon fill="white" stroke="#666666" points="211,-863.07 98,-863.07 98,-844.07 211,-844.07 211,-863.07"/>
<text text-anchor="middle" x="154.5" y="-851.07" font-family="Helvetica,sans-Serif" font-size="10.00">test_output_no_risk</text>
</a>
</g>
</g>
<!-- Node22&#45;&gt;Node25 -->
<g id="edge40_Node000022_Node000025" class="edge">
<title>Node22&#45;&gt;Node25</title>
<g id="a_edge40_Node000022_Node000025"><a xlink:title=" ">
<path fill="none" stroke="#63b8ff" d="M332.78,-759.42C311.58,-780.44 272.37,-816 232,-835.57 225,-838.97 217.33,-841.74 209.62,-844"/>
<polygon fill="#63b8ff" stroke="#63b8ff" points="335.44,-761.71 339.99,-752.14 330.47,-756.78 335.44,-761.71"/>
</a>
</g>
</g>
<!-- Node26 -->
<g id="Node000026" class="node">
<title>Node26</title>
<g id="a_Node000026"><a xlink:href="test__graph_8cpp.html#ac3ef62920e5b4df04a4b81489aacc664" target="_top" xlink:title=" ">
<polygon fill="white" stroke="#666666" points="215.5,-826.07 93.5,-826.07 93.5,-807.07 215.5,-807.07 215.5,-826.07"/>
<text text-anchor="middle" x="154.5" y="-814.07" font-family="Helvetica,sans-Serif" font-size="10.00">test_risk_analysis_k1</text>
</a>
</g>
</g>
<!-- Node22&#45;&gt;Node26 -->
<g id="edge42_Node000022_Node000026" class="edge">
<title>Node22&#45;&gt;Node26</title>
<g id="a_edge42_Node000022_Node000026"><a xlink:title=" ">
<path fill="none" stroke="#63b8ff" d="M323.17,-756.93C299.91,-769.37 264.48,-787.13 232,-798.57 222.86,-801.79 212.91,-804.61 203.3,-807"/>
<polygon fill="#63b8ff" stroke="#63b8ff" points="324.93,-759.96 332.05,-752.12 321.59,-753.81 324.93,-759.96"/>
</a>
</g>
</g>
<!-- Node27 -->
<g id="Node000027" class="node">
<title>Node27</title>
<g id="a_Node000027"><a xlink:href="test__graph_8cpp.html#a87c4bbb43e141d16aadf387d84e8f461" target="_top" xlink:title=" ">
<polygon fill="white" stroke="#666666" points="206.5,-603.57 102.5,-603.57 102.5,-573.57 206.5,-573.57 206.5,-603.57"/>
<text text-anchor="start" x="110.5" y="-591.57" font-family="Helvetica,sans-Serif" font-size="10.00">test_risk_analysis</text>
<text text-anchor="middle" x="154.5" y="-580.57" font-family="Helvetica,sans-Serif" font-size="10.00">_redundant</text>
</a>
</g>
</g>
<!-- Node22&#45;&gt;Node27 -->
<g id="edge44_Node000022_Node000027" class="edge">
<title>Node22&#45;&gt;Node27</title>
<g id="a_edge44_Node000022_Node000027"><a xlink:title=" ">
<path fill="none" stroke="#63b8ff" d="M337.3,-724.56C318.39,-696.82 278.5,-643.71 232,-613.57 224.26,-608.56 215.43,-604.47 206.58,-601.16"/>
<polygon fill="#63b8ff" stroke="#63b8ff" points="334.42,-726.55 342.89,-732.92 340.24,-722.66 334.42,-726.55"/>
</a>
</g>
</g>
<!-- Node23&#45;&gt;Node13 -->
<g id="edge37_Node000023_Node000013" class="edge">
<title>Node23&#45;&gt;Node13</title>
<g id="a_edge37_Node000023_Node000013"><a xlink:title=" ">
<path fill="none" stroke="#63b8ff" d="M82.88,-913.4C80.85,-912.22 78.88,-910.95 77,-909.57 47.42,-887.92 30.7,-845.29 24.41,-826.21"/>
<polygon fill="#63b8ff" stroke="#63b8ff" points="81.68,-916.7 92.2,-917.96 84.76,-910.42 81.68,-916.7"/>
</a>
</g>
</g>
<!-- Node24&#45;&gt;Node13 -->
<g id="edge39_Node000024_Node000013" class="edge">
<title>Node24&#45;&gt;Node13</title>
<g id="a_edge39_Node000024_Node000013"><a xlink:title=" ">
<path fill="none" stroke="#63b8ff" d="M89.41,-878.39C85.1,-876.7 80.92,-874.77 77,-872.57 55.98,-860.8 37.63,-838.75 28.21,-826.11"/>
<polygon fill="#63b8ff" stroke="#63b8ff" points="88.39,-881.75 98.99,-881.74 90.7,-875.14 88.39,-881.75"/>
</a>
</g>
</g>
<!-- Node25&#45;&gt;Node13 -->
<g id="edge41_Node000025_Node000013" class="edge">
<title>Node25&#45;&gt;Node13</title>
<g id="a_edge41_Node000025_Node000013"><a xlink:title=" ">
<path fill="none" stroke="#63b8ff" d="M99.67,-841.61C92.03,-839.71 84.29,-837.67 77,-835.57 64.96,-832.11 51.68,-827.58 41.13,-823.82"/>
<polygon fill="#63b8ff" stroke="#63b8ff" points="99.07,-845.07 109.62,-844.03 100.73,-838.27 99.07,-845.07"/>
</a>
</g>
</g>
<!-- Node26&#45;&gt;Node8 -->
<g id="edge43_Node000026_Node000008" class="edge">
<title>Node26&#45;&gt;Node8</title>
<g id="a_edge43_Node000026_Node000008"><a xlink:title=" ">
<path fill="none" stroke="#63b8ff" d="M84.6,-805.27C81.83,-803.34 79.27,-801.12 77,-798.57 45.44,-763.26 25.35,-407.03 22,-343.3"/>
<polygon fill="#63b8ff" stroke="#63b8ff" points="83.01,-808.39 93.44,-810.25 86.45,-802.29 83.01,-808.39"/>
</a>
</g>
</g>
<!-- Node27&#45;&gt;Node8 -->
<g id="edge45_Node000027_Node000008" class="edge">
<title>Node27&#45;&gt;Node8</title>
<g id="a_edge45_Node000027_Node000008"><a xlink:title=" ">
<path fill="none" stroke="#63b8ff" d="M92.81,-576.31C86.93,-573.23 81.49,-569.38 77,-564.57 45.82,-531.19 27.05,-382.64 22.55,-343.21"/>
<polygon fill="#63b8ff" stroke="#63b8ff" points="91.79,-579.69 102.35,-580.55 94.64,-573.29 91.79,-579.69"/>
</a>
</g>
</g>
<!-- Node28&#45;&gt;Node8 -->
<g id="edge47_Node000028_Node000008" class="edge">
<title>Node28&#45;&gt;Node8</title>
<g id="a_edge47_Node000028_Node000008"><a xlink:title=" ">
<path fill="none" stroke="#63b8ff" d="M298.47,-151.28C239.21,-141.13 140.98,-134.34 77,-182.57 30.39,-217.71 22.89,-296.12 21.71,-323.73"/>
<polygon fill="#63b8ff" stroke="#63b8ff" points="297.89,-154.73 308.35,-153.07 299.13,-147.84 297.89,-154.73"/>
</a>
</g>
</g>
<!-- Node29&#45;&gt;Node8 -->
<g id="edge49_Node000029_Node000008" class="edge">
<title>Node29&#45;&gt;Node8</title>
<g id="a_edge49_Node000029_Node000008"><a xlink:title=" ">
<path fill="none" stroke="#63b8ff" d="M304.44,-112.72C245.59,-99.96 141.86,-87.81 77,-139.57 47.16,-163.39 27.89,-287.33 22.83,-323.59"/>
<polygon fill="#63b8ff" stroke="#63b8ff" points="304.01,-116.21 314.53,-115.02 305.56,-109.39 304.01,-116.21"/>
</a>
</g>
</g>
<!-- Node30&#45;&gt;Node8 -->
<g id="edge51_Node000030_Node000008" class="edge">
<title>Node30&#45;&gt;Node8</title>
<g id="a_edge51_Node000030_Node000008"><a xlink:title=" ">
<path fill="none" stroke="#63b8ff" d="M478.67,-78.64C362.31,-67.11 136.63,-52.03 77,-100.57 41.21,-129.72 25.76,-283.53 22.28,-323.88"/>
<polygon fill="#63b8ff" stroke="#63b8ff" points="478.6,-82.15 488.9,-79.67 479.3,-75.18 478.6,-82.15"/>
</a>
</g>
</g>
<!-- Node31&#45;&gt;Node8 -->
<g id="edge53_Node000031_Node000008" class="edge">
<title>Node31&#45;&gt;Node8</title>
<g id="a_edge53_Node000031_Node000008"><a xlink:title=" ">
<path fill="none" stroke="#63b8ff" d="M511.46,-36.97C423.81,-10.12 203.56,41.93 77,-64.57 36.05,-99.04 24.24,-279.93 21.95,-323.92"/>
<polygon fill="#63b8ff" stroke="#63b8ff" points="510.64,-40.38 521.23,-40.02 512.73,-33.7 510.64,-40.38"/>
</a>
</g>
</g>
</g>
</svg>
