<?xml version="1.0" encoding="UTF-8" standalone="no"?>
<!DOCTYPE svg PUBLIC "-//W3C//DTD SVG 1.1//EN"
 "http://www.w3.org/Graphics/SVG/1.1/DTD/svg11.dtd">
<!-- Generated by graphviz version 2.43.0 (0)
 -->
<!-- Title: ParseError::section Pages: 1 -->
<svg width="291pt" height="64pt"
 viewBox="0.00 0.00 291.00 64.00" xmlns="http://www.w3.org/2000/svg" xmlns:xlink="http://www.w3.org/1999/xlink">
<g id="graph0" class="graph" transform="scale(1 1) rotate(0) translate(4 60)">
<title>ParseError::section</title>
<!-- Node1 -->
<g id="Node000001" class="node">
<title>Node1</title>
<g id="a_Node000001"><a xlink:title=" ">
<polygon fill="#999999" stroke="#666666" points="283,-37 176,-37 176,-18 283,-18 283,-37"/>
<text text-anchor="middle" x="229.5" y="-25" font-family="Helvetica,sans-Serif" font-size="10.00">ParseError::section</text>
</a>
</g>
</g>
<!-- Node2 -->
<g id="Node000002" class="node">
<title>Node2</title>
<g id="a_Node000002"><a xlink:href="classParseError.html#a6b2fc21fb332b4ce38cdbb80cd658be9" target="_top" xlink:title=" ">
<polygon fill="white" stroke="#666666" points="140,-56 0,-56 0,-37 140,-37 140,-56"/>
<text text-anchor="middle" x="70" y="-44" font-family="Helvetica,sans-Serif" font-size="10.00">ParseError::buildMessage</text>
</a>
</g>
</g>
<!-- Node1&#45;&gt;Node2 -->
<g id="edge1_Node000001_Node000002" class="edge">
<title>Node1&#45;&gt;Node2</title>
<g id="a_edge1_Node000001_Node000002"><a xlink:title=" ">
<path fill="none" stroke="#63b8ff" d="M165.6,-35.09C157.26,-36.09 148.68,-37.13 140.25,-38.15"/>
<polygon fill="#63b8ff" stroke="#63b8ff" points="166.11,-38.55 175.62,-33.88 165.27,-31.6 166.11,-38.55"/>
</a>
</g>
</g>
<!-- Node3 -->
<g id="Node000003" class="node">
<title>Node3</title>
<g id="a_Node000003"><a xlink:href="test__domain_8cpp.html#ae66f6b31b5ad750f1fe042a706a4e3d4" target="_top" xlink:title=" ">
<polygon fill="white" stroke="#666666" points="90.5,-19 49.5,-19 49.5,0 90.5,0 90.5,-19"/>
<text text-anchor="middle" x="70" y="-7" font-family="Helvetica,sans-Serif" font-size="10.00">main</text>
</a>
</g>
</g>
<!-- Node1&#45;&gt;Node3 -->
<g id="edge2_Node000001_Node000003" class="edge">
<title>Node1&#45;&gt;Node3</title>
<g id="a_edge2_Node000001_Node000003"><a xlink:title=" ">
<path fill="none" stroke="#63b8ff" d="M165.54,-20.3C138.85,-17.25 109.64,-13.92 90.85,-11.77"/>
<polygon fill="#63b8ff" stroke="#63b8ff" points="165.28,-23.8 175.62,-21.46 166.08,-16.84 165.28,-23.8"/>
</a>
</g>
</g>
</g>
</svg>
