<?xml version="1.0" encoding="UTF-8" standalone="no"?>
<!DOCTYPE svg PUBLIC "-//W3C//DTD SVG 1.1//EN"
 "http://www.w3.org/Graphics/SVG/1.1/DTD/svg11.dtd">
<!-- Generated by graphviz version 2.43.0 (0)
 -->
<!-- Title: Graph::numNodes Pages: 1 -->
<svg width="927pt" height="886pt"
 viewBox="0.00 0.00 927.00 886.34" xmlns="http://www.w3.org/2000/svg" xmlns:xlink="http://www.w3.org/1999/xlink">
<g id="graph0" class="graph" transform="scale(1 1) rotate(0) translate(4 882.34)">
<title>Graph::numNodes</title>
<!-- Node1 -->
<g id="Node000001" class="node">
<title>Node1</title>
<g id="a_Node000001"><a xlink:title="Returns the number of nodes in the graph.">
<polygon fill="#999999" stroke="#666666" points="919,-249.34 815,-249.34 815,-230.34 919,-230.34 919,-249.34"/>
<text text-anchor="middle" x="867" y="-237.34" font-family="Helvetica,sans-Serif" font-size="10.00">Graph::numNodes</text>
</a>
</g>
</g>
<!-- Node2 -->
<g id="Node000002" class="node">
<title>Node2</title>
<g id="a_Node000002"><a xlink:href="classGraph.html#a8cdfb932968807565b3cc3b52759e3b8" target="_top" xlink:title="Adds a directed edge (u → v) with the given capacity, along with its reverse edge (v → u) with capaci...">
<polygon fill="white" stroke="#666666" points="770.5,-230.34 676.5,-230.34 676.5,-211.34 770.5,-211.34 770.5,-230.34"/>
<text text-anchor="middle" x="723.5" y="-218.34" font-family="Helvetica,sans-Serif" font-size="10.00">Graph::addEdge</text>
</a>
</g>
</g>
<!-- Node1&#45;&gt;Node2 -->
<g id="edge1_Node000001_Node000002" class="edge">
<title>Node1&#45;&gt;Node2</title>
<g id="a_edge1_Node000001_Node000002"><a xlink:title=" ">
<path fill="none" stroke="#63b8ff" d="M804.97,-231.65C793.52,-230.11 781.72,-228.52 770.81,-227.06"/>
<polygon fill="#63b8ff" stroke="#63b8ff" points="804.54,-235.12 814.92,-232.98 805.47,-228.18 804.54,-235.12"/>
</a>
</g>
</g>
<!-- Node33 -->
<g id="Node000033" class="node">
<title>Node33</title>
<g id="a_Node000033"><a xlink:href="classGraph.html#a24e78627debf97e225128856196398dc" target="_top" xlink:title="Disables all edges from a specific node by setting capacity to 0.">
<polygon fill="white" stroke="#666666" points="606.5,-527.34 493.5,-527.34 493.5,-508.34 606.5,-508.34 606.5,-527.34"/>
<text text-anchor="middle" x="550" y="-515.34" font-family="Helvetica,sans-Serif" font-size="10.00">Graph::disableNode</text>
</a>
</g>
</g>
<!-- Node1&#45;&gt;Node33 -->
<g id="edge55_Node000001_Node000033" class="edge">
<title>Node1&#45;&gt;Node33</title>
<g id="a_edge55_Node000001_Node000033"><a xlink:title=" ">
<path fill="none" stroke="#63b8ff" d="M847.4,-256.26C788.59,-308.16 607.9,-467.62 561.8,-508.31"/>
<polygon fill="#63b8ff" stroke="#63b8ff" points="849.98,-258.65 855.16,-249.41 845.34,-253.4 849.98,-258.65"/>
</a>
</g>
</g>
<!-- Node34 -->
<g id="Node000034" class="node">
<title>Node34</title>
<g id="a_Node000034"><a xlink:href="classGraph.html#afd2749a1cd58db2d3b6fa6eef639399c" target="_top" xlink:title="Computes the maximum flow from source to sink using Edmonds&#45;Karp.">
<polygon fill="white" stroke="#666666" points="609.5,-268.34 490.5,-268.34 490.5,-249.34 609.5,-249.34 609.5,-268.34"/>
<text text-anchor="middle" x="550" y="-256.34" font-family="Helvetica,sans-Serif" font-size="10.00">Graph::edmondsKarp</text>
</a>
</g>
</g>
<!-- Node1&#45;&gt;Node34 -->
<g id="edge57_Node000001_Node000034" class="edge">
<title>Node1&#45;&gt;Node34</title>
<g id="a_edge57_Node000001_Node000034"><a xlink:title=" ">
<path fill="none" stroke="#63b8ff" d="M804.47,-243.55C748.02,-246.96 665,-251.96 609.52,-255.31"/>
<polygon fill="#63b8ff" stroke="#63b8ff" points="804.92,-247.03 814.69,-242.94 804.5,-240.04 804.92,-247.03"/>
</a>
</g>
</g>
<!-- Node35 -->
<g id="Node000035" class="node">
<title>Node35</title>
<g id="a_Node000035"><a xlink:href="classGraph.html#a9a3add17a708cfeafdd1f564ae8204d2" target="_top" xlink:title="Restores all edge capacities from saved originals.">
<polygon fill="white" stroke="#666666" points="779,-193.34 668,-193.34 668,-174.34 779,-174.34 779,-193.34"/>
<text text-anchor="middle" x="723.5" y="-181.34" font-family="Helvetica,sans-Serif" font-size="10.00">Graph::restoreFrom</text>
</a>
</g>
</g>
<!-- Node1&#45;&gt;Node35 -->
<g id="edge64_Node000001_Node000035" class="edge">
<title>Node1&#45;&gt;Node35</title>
<g id="a_edge64_Node000001_Node000035"><a xlink:title=" ">
<path fill="none" stroke="#63b8ff" d="M836.24,-226.03C819.57,-218.49 798.3,-209.23 779,-201.84 771.28,-198.89 762.83,-195.95 754.95,-193.34"/>
<polygon fill="#63b8ff" stroke="#63b8ff" points="834.93,-229.27 845.48,-230.23 837.83,-222.9 834.93,-229.27"/>
</a>
</g>
</g>
<!-- Node3 -->
<g id="Node000003" class="node">
<title>Node3</title>
<g id="a_Node000003"><a xlink:href="classNetworkBuilder.html#af514e79c3d2f21597c54e01c4ce9475d" target="_top" xlink:title="Builds the complete flow network.">
<polygon fill="white" stroke="#666666" points="632,-403.34 468,-403.34 468,-384.34 632,-384.34 632,-403.34"/>
<text text-anchor="middle" x="550" y="-391.34" font-family="Helvetica,sans-Serif" font-size="10.00">NetworkBuilder::buildNetwork</text>
</a>
</g>
</g>
<!-- Node2&#45;&gt;Node3 -->
<g id="edge2_Node000002_Node000003" class="edge">
<title>Node2&#45;&gt;Node3</title>
<g id="a_edge2_Node000002_Node000003"><a xlink:title=" ">
<path fill="none" stroke="#63b8ff" d="M705.84,-237.64C670.45,-273.35 588.69,-355.82 560.65,-384.11"/>
<polygon fill="#63b8ff" stroke="#63b8ff" points="708.48,-239.95 713.04,-230.39 703.51,-235.03 708.48,-239.95"/>
</a>
</g>
</g>
<!-- Node29 -->
<g id="Node000029" class="node">
<title>Node29</title>
<g id="a_Node000029"><a xlink:href="test__graph_8cpp.html#aa9fe2d4f80ec700f036c99c45dbcb44a" target="_top" xlink:title=" ">
<polygon fill="white" stroke="#666666" points="391.5,-154.34 308.5,-154.34 308.5,-135.34 391.5,-135.34 391.5,-154.34"/>
<text text-anchor="middle" x="350" y="-142.34" font-family="Helvetica,sans-Serif" font-size="10.00">test_ek_basic</text>
</a>
</g>
</g>
<!-- Node2&#45;&gt;Node29 -->
<g id="edge47_Node000002_Node000029" class="edge">
<title>Node2&#45;&gt;Node29</title>
<g id="a_edge47_Node000002_Node000029"><a xlink:title=" ">
<path fill="none" stroke="#63b8ff" d="M686.49,-207.98C670.03,-202.45 650.19,-196.25 632,-191.84 547.64,-171.38 446.88,-156.89 391.86,-149.79"/>
<polygon fill="#63b8ff" stroke="#63b8ff" points="685.66,-211.4 696.25,-211.32 687.92,-204.77 685.66,-211.4"/>
</a>
</g>
</g>
<!-- Node30 -->
<g id="Node000030" class="node">
<title>Node30</title>
<g id="a_Node000030"><a xlink:href="test__graph_8cpp.html#a7668801ef66019ab48870e268cae0ac7" target="_top" xlink:title=" ">
<polygon fill="white" stroke="#666666" points="399.5,-116.34 300.5,-116.34 300.5,-97.34 399.5,-97.34 399.5,-116.34"/>
<text text-anchor="middle" x="350" y="-104.34" font-family="Helvetica,sans-Serif" font-size="10.00">test_ek_bipartite</text>
</a>
</g>
</g>
<!-- Node2&#45;&gt;Node30 -->
<g id="edge49_Node000002_Node000030" class="edge">
<title>Node2&#45;&gt;Node30</title>
<g id="a_edge49_Node000002_Node000030"><a xlink:title=" ">
<path fill="none" stroke="#63b8ff" d="M676.65,-207.02C673.63,-205.46 670.71,-203.74 668,-201.84 647.29,-187.36 653.77,-170.66 632,-157.84 559.16,-114.94 458.7,-106.56 399.72,-105.75"/>
<polygon fill="#63b8ff" stroke="#63b8ff" points="675.4,-210.3 685.96,-211.24 678.3,-203.92 675.4,-210.3"/>
</a>
</g>
</g>
<!-- Node31 -->
<g id="Node000031" class="node">
<title>Node31</title>
<g id="a_Node000031"><a xlink:href="test__graph_8cpp.html#ae09ac815063f93051d90ba341c587e64" target="_top" xlink:title=" ">
<polygon fill="white" stroke="#666666" points="411,-230.34 289,-230.34 289,-211.34 411,-211.34 411,-230.34"/>
<text text-anchor="middle" x="350" y="-218.34" font-family="Helvetica,sans-Serif" font-size="10.00">test_ek_disconnected</text>
</a>
</g>
</g>
<!-- Node2&#45;&gt;Node31 -->
<g id="edge51_Node000002_Node000031" class="edge">
<title>Node2&#45;&gt;Node31</title>
<g id="a_edge51_Node000002_Node000031"><a xlink:title=" ">
<path fill="none" stroke="#63b8ff" d="M665.99,-220.84C597.2,-220.84 481.52,-220.84 411.13,-220.84"/>
<polygon fill="#63b8ff" stroke="#63b8ff" points="666.2,-224.34 676.2,-220.84 666.2,-217.34 666.2,-224.34"/>
</a>
</g>
</g>
<!-- Node32 -->
<g id="Node000032" class="node">
<title>Node32</title>
<g id="a_Node000032"><a xlink:href="test__graph_8cpp.html#af8e0237822a4d1632dc6060f21216b46" target="_top" xlink:title=" ">
<polygon fill="white" stroke="#666666" points="391.5,-192.34 308.5,-192.34 308.5,-173.34 391.5,-173.34 391.5,-192.34"/>
<text text-anchor="middle" x="350" y="-180.34" font-family="Helvetica,sans-Serif" font-size="10.00">test_ek_reset</text>
</a>
</g>
</g>
<!-- Node2&#45;&gt;Node32 -->
<g id="edge53_Node000002_Node000032" class="edge">
<title>Node2&#45;&gt;Node32</title>
<g id="a_edge53_Node000002_Node000032"><a xlink:title=" ">
<path fill="none" stroke="#63b8ff" d="M665.92,-215.05C590.29,-207.32 458.09,-193.79 391.61,-186.99"/>
<polygon fill="#63b8ff" stroke="#63b8ff" points="665.9,-218.57 676.2,-216.1 666.61,-211.61 665.9,-218.57"/>
</a>
</g>
</g>
<!-- Node4 -->
<g id="Node000004" class="node">
<title>Node4</title>
<g id="a_Node000004"><a xlink:href="classSolver.html#a845e12dc97a5d14a365b1e3001aba114" target="_top" xlink:title="Solves the assignment problem for the given data.">
<polygon fill="white" stroke="#666666" points="390,-403.34 310,-403.34 310,-384.34 390,-384.34 390,-403.34"/>
<text text-anchor="middle" x="350" y="-391.34" font-family="Helvetica,sans-Serif" font-size="10.00">Solver::solve</text>
</a>
</g>
</g>
<!-- Node3&#45;&gt;Node4 -->
<g id="edge3_Node000003_Node000004" class="edge">
<title>Node3&#45;&gt;Node4</title>
<g id="a_edge3_Node000003_Node000004"><a xlink:title=" ">
<path fill="none" stroke="#63b8ff" d="M457.77,-393.84C434.03,-393.84 409.7,-393.84 390.26,-393.84"/>
<polygon fill="#63b8ff" stroke="#63b8ff" points="457.89,-397.34 467.89,-393.84 457.89,-390.34 457.89,-397.34"/>
</a>
</g>
</g>
<!-- Node23 -->
<g id="Node000023" class="node">
<title>Node23</title>
<g id="a_Node000023"><a xlink:href="classSolver.html#ae2ca491c309b717821844e7f2a9ea629" target="_top" xlink:title="Performs Risk Analysis with parameter K = 1.">
<polygon fill="white" stroke="#666666" points="432,-600.34 268,-600.34 268,-581.34 432,-581.34 432,-600.34"/>
<text text-anchor="middle" x="350" y="-588.34" font-family="Helvetica,sans-Serif" font-size="10.00">Solver::solveWithRiskAnalysis</text>
</a>
</g>
</g>
<!-- Node3&#45;&gt;Node23 -->
<g id="edge34_Node000003_Node000023" class="edge">
<title>Node3&#45;&gt;Node23</title>
<g id="a_edge34_Node000003_Node000023"><a xlink:title=" ">
<path fill="none" stroke="#63b8ff" d="M532.32,-410.44C492.48,-450.08 392.74,-549.31 360.92,-580.97"/>
<polygon fill="#63b8ff" stroke="#63b8ff" points="534.83,-412.88 539.45,-403.34 529.89,-407.91 534.83,-412.88"/>
</a>
</g>
</g>
<!-- Node5 -->
<g id="Node000005" class="node">
<title>Node5</title>
<g id="a_Node000005"><a xlink:href="main_8cpp.html#adccc9f5ff7d7a84b4f757ddc2e00c25b" target="_top" xlink:title="Executes the program in batch mode.">
<polygon fill="white" stroke="#666666" points="184.5,-619.34 124.5,-619.34 124.5,-600.34 184.5,-600.34 184.5,-619.34"/>
<text text-anchor="middle" x="154.5" y="-607.34" font-family="Helvetica,sans-Serif" font-size="10.00">runBatch</text>
</a>
</g>
</g>
<!-- Node4&#45;&gt;Node5 -->
<g id="edge4_Node000004_Node000005" class="edge">
<title>Node4&#45;&gt;Node5</title>
<g id="a_edge4_Node000004_Node000005"><a xlink:title=" ">
<path fill="none" stroke="#63b8ff" d="M343.31,-413.15C330.47,-453.16 295.35,-545.25 232,-591.84 218.37,-601.86 200,-606.4 184.67,-608.41"/>
<polygon fill="#63b8ff" stroke="#63b8ff" points="346.67,-414.12 346.28,-403.54 339.98,-412.06 346.67,-414.12"/>
</a>
</g>
</g>
<!-- Node7 -->
<g id="Node000007" class="node">
<title>Node7</title>
<g id="a_Node000007"><a xlink:href="main_8cpp.html#aef0bcc404dd408e438ce7fa09e4ea3f7" target="_top" xlink:title="Executes the program in interactive mode.">
<polygon fill="white" stroke="#666666" points="197,-582.34 112,-582.34 112,-563.34 197,-563.34 197,-582.34"/>
<text text-anchor="middle" x="154.5" y="-570.34" font-family="Helvetica,sans-Serif" font-size="10.00">runInteractive</text>
</a>
</g>
</g>
<!-- Node4&#45;&gt;Node7 -->
<g id="edge6_Node000004_Node000007" class="edge">
<title>Node4&#45;&gt;Node7</title>
<g id="a_edge6_Node000004_Node000007"><a xlink:title=" ">
<path fill="none" stroke="#63b8ff" d="M340.58,-412.83C324.56,-446.68 286.37,-517.33 232,-553.84 221.78,-560.71 209.29,-565.09 197.39,-567.9"/>
<polygon fill="#63b8ff" stroke="#63b8ff" points="343.84,-414.13 344.84,-403.58 337.48,-411.2 343.84,-414.13"/>
</a>
</g>
</g>
<!-- Node8 -->
<g id="Node000008" class="node">
<title>Node8</title>
<g id="a_Node000008"><a xlink:href="test__graph_8cpp.html#aabe34e3298f44b2a590c5785cfb187e8" target="_top" xlink:title=" ">
<polygon fill="white" stroke="#666666" points="211.5,-310.84 97.5,-310.84 97.5,-280.84 211.5,-280.84 211.5,-310.84"/>
<text text-anchor="start" x="105.5" y="-298.84" font-family="Helvetica,sans-Serif" font-size="10.00">test_corner_maxrev</text>
<text text-anchor="middle" x="154.5" y="-287.84" font-family="Helvetica,sans-Serif" font-size="10.00">_bottleneck</text>
</a>
</g>
</g>
<!-- Node4&#45;&gt;Node8 -->
<g id="edge8_Node000004_Node000008" class="edge">
<title>Node4&#45;&gt;Node8</title>
<g id="a_edge8_Node000004_Node000008"><a xlink:title=" ">
<path fill="none" stroke="#63b8ff" d="M328.1,-378.26C305.41,-361.91 267.61,-336.35 232,-319.84 224.93,-316.56 217.29,-313.57 209.67,-310.9"/>
<polygon fill="#63b8ff" stroke="#63b8ff" points="326.16,-381.17 336.3,-384.24 330.28,-375.52 326.16,-381.17"/>
</a>
</g>
</g>
<!-- Node10 -->
<g id="Node000010" class="node">
<title>Node10</title>
<g id="a_Node000010"><a xlink:href="test__graph_8cpp.html#afb6fc70c45804d5516d4936ec4115cd1" target="_top" xlink:title=" ">
<polygon fill="white" stroke="#666666" points="225.5,-262.34 83.5,-262.34 83.5,-243.34 225.5,-243.34 225.5,-262.34"/>
<text text-anchor="middle" x="154.5" y="-250.34" font-family="Helvetica,sans-Serif" font-size="10.00">test_corner_no_reviewers</text>
</a>
</g>
</g>
<!-- Node4&#45;&gt;Node10 -->
<g id="edge10_Node000004_Node000010" class="edge">
<title>Node4&#45;&gt;Node10</title>
<g id="a_edge10_Node000004_Node000010"><a xlink:title=" ">
<path fill="none" stroke="#63b8ff" d="M336.78,-375.68C317.68,-348.75 278.12,-298.54 232,-271.84 225.25,-267.93 217.71,-264.82 210.07,-262.35"/>
<polygon fill="#63b8ff" stroke="#63b8ff" points="334.09,-377.93 342.66,-384.16 339.84,-373.95 334.09,-377.93"/>
</a>
</g>
</g>
<!-- Node11 -->
<g id="Node000011" class="node">
<title>Node11</title>
<g id="a_Node000011"><a xlink:href="test__graph_8cpp.html#acdaff2524640ac8e6e9644e7106b04ba" target="_top" xlink:title=" ">
<polygon fill="white" stroke="#666666" points="232,-225.34 77,-225.34 77,-206.34 232,-206.34 232,-225.34"/>
<text text-anchor="middle" x="154.5" y="-213.34" font-family="Helvetica,sans-Serif" font-size="10.00">test_corner_no_submissions</text>
</a>
</g>
</g>
<!-- Node4&#45;&gt;Node11 -->
<g id="edge12_Node000004_Node000011" class="edge">
<title>Node4&#45;&gt;Node11</title>
<g id="a_edge12_Node000004_Node000011"><a xlink:title=" ">
<path fill="none" stroke="#63b8ff" d="M340.63,-374.79C324.68,-340.83 286.59,-270.02 232,-233.84 226.88,-230.45 221.2,-227.69 215.31,-225.46"/>
<polygon fill="#63b8ff" stroke="#63b8ff" points="337.52,-376.42 344.86,-384.07 343.89,-373.52 337.52,-376.42"/>
</a>
</g>
</g>
<!-- Node12 -->
<g id="Node000012" class="node">
<title>Node12</title>
<g id="a_Node000012"><a xlink:href="test__graph_8cpp.html#ae160a573baa527c8e420eddbce3cab30" target="_top" xlink:title=" ">
<polygon fill="white" stroke="#666666" points="212,-188.34 97,-188.34 97,-169.34 212,-169.34 212,-188.34"/>
<text text-anchor="middle" x="154.5" y="-176.34" font-family="Helvetica,sans-Serif" font-size="10.00">test_full_integration</text>
</a>
</g>
</g>
<!-- Node4&#45;&gt;Node12 -->
<g id="edge14_Node000004_Node000012" class="edge">
<title>Node4&#45;&gt;Node12</title>
<g id="a_edge14_Node000004_Node000012"><a xlink:title=" ">
<path fill="none" stroke="#63b8ff" d="M340.27,-375.19C319.14,-330.79 264.58,-220.74 232,-196.84 226.06,-192.48 219.22,-189.16 212.13,-186.63"/>
<polygon fill="#63b8ff" stroke="#63b8ff" points="337.14,-376.75 344.58,-384.3 343.47,-373.76 337.14,-376.75"/>
</a>
</g>
</g>
<!-- Node13 -->
<g id="Node000013" class="node">
<title>Node13</title>
<g id="a_Node000013"><a xlink:href="test__output_8cpp.html#ae22f862265d01c0acb3649c247f4a726" target="_top" xlink:title=" ">
<polygon fill="white" stroke="#666666" points="210,-730.34 99,-730.34 99,-711.34 210,-711.34 210,-730.34"/>
<text text-anchor="middle" x="154.5" y="-718.34" font-family="Helvetica,sans-Serif" font-size="10.00">test_output_figure2</text>
</a>
</g>
</g>
<!-- Node4&#45;&gt;Node13 -->
<g id="edge16_Node000004_Node000013" class="edge">
<title>Node4&#45;&gt;Node13</title>
<g id="a_edge16_Node000004_Node000013"><a xlink:title=" ">
<path fill="none" stroke="#63b8ff" d="M339.2,-412.88C322.86,-445.16 289.7,-512.94 268,-572.84 247.58,-629.21 275.21,-661.28 232,-702.84 225.9,-708.7 218.27,-712.78 210.21,-715.6"/>
<polygon fill="#63b8ff" stroke="#63b8ff" points="342.45,-414.21 343.88,-403.71 336.22,-411.03 342.45,-414.21"/>
</a>
</g>
</g>
<!-- Node15 -->
<g id="Node000015" class="node">
<title>Node15</title>
<g id="a_Node000015"><a xlink:href="test__output_8cpp.html#a998d4d57520dc3729aada36d40d97db9" target="_top" xlink:title=" ">
<polygon fill="white" stroke="#666666" points="210,-693.34 99,-693.34 99,-674.34 210,-674.34 210,-693.34"/>
<text text-anchor="middle" x="154.5" y="-681.34" font-family="Helvetica,sans-Serif" font-size="10.00">test_output_figure3</text>
</a>
</g>
</g>
<!-- Node4&#45;&gt;Node15 -->
<g id="edge18_Node000004_Node000015" class="edge">
<title>Node4&#45;&gt;Node15</title>
<g id="a_edge18_Node000004_Node000015"><a xlink:title=" ">
<path fill="none" stroke="#63b8ff" d="M340.06,-412.66C324.75,-445.12 292.76,-513.8 268,-572.84 250.86,-613.71 265.43,-636.74 232,-665.84 225.72,-671.31 218.09,-675.19 210.11,-677.93"/>
<polygon fill="#63b8ff" stroke="#63b8ff" points="343.31,-414 344.42,-403.46 336.98,-411 343.31,-414"/>
</a>
</g>
</g>
<!-- Node16 -->
<g id="Node000016" class="node">
<title>Node16</title>
<g id="a_Node000016"><a xlink:href="test__output_8cpp.html#aaa716ae6efa6c8bef11ea699a4be56d2" target="_top" xlink:title=" ">
<polygon fill="white" stroke="#666666" points="208.5,-656.34 100.5,-656.34 100.5,-637.34 208.5,-637.34 208.5,-656.34"/>
<text text-anchor="middle" x="154.5" y="-644.34" font-family="Helvetica,sans-Serif" font-size="10.00">test_output_sorted</text>
</a>
</g>
</g>
<!-- Node4&#45;&gt;Node16 -->
<g id="edge20_Node000004_Node000016" class="edge">
<title>Node4&#45;&gt;Node16</title>
<g id="a_edge20_Node000004_Node000016"><a xlink:title=" ">
<path fill="none" stroke="#63b8ff" d="M340.68,-412.79C317.17,-466.03 250.71,-614.02 232,-628.84 225.26,-634.18 217.21,-637.98 208.89,-640.68"/>
<polygon fill="#63b8ff" stroke="#63b8ff" points="343.96,-414.04 344.79,-403.48 337.55,-411.22 343.96,-414.04"/>
</a>
</g>
</g>
<!-- Node17 -->
<g id="Node000017" class="node">
<title>Node17</title>
<g id="a_Node000017"><a xlink:href="test__graph_8cpp.html#a2bd07a82f32ec21b6fa28a86ee9bf941" target="_top" xlink:title=" ">
<polygon fill="white" stroke="#666666" points="218,-151.34 91,-151.34 91,-132.34 218,-132.34 218,-151.34"/>
<text text-anchor="middle" x="154.5" y="-139.34" font-family="Helvetica,sans-Serif" font-size="10.00">test_secondary_match</text>
</a>
</g>
</g>
<!-- Node4&#45;&gt;Node17 -->
<g id="edge22_Node000004_Node000017" class="edge">
<title>Node4&#45;&gt;Node17</title>
<g id="a_edge22_Node000004_Node000017"><a xlink:title=" ">
<path fill="none" stroke="#63b8ff" d="M338.82,-375.15C323.13,-346.19 292.33,-288.62 268,-238.84 251.06,-204.17 261.83,-184.32 232,-159.84 227.89,-156.47 223.25,-153.7 218.35,-151.44"/>
<polygon fill="#63b8ff" stroke="#63b8ff" points="335.85,-377.02 343.7,-384.14 342,-373.68 335.85,-377.02"/>
</a>
</g>
</g>
<!-- Node18 -->
<g id="Node000018" class="node">
<title>Node18</title>
<g id="a_Node000018"><a xlink:href="test__graph_8cpp.html#a0b2b929f3f92ed72ebb706539ba28f72" target="_top" xlink:title=" ">
<polygon fill="white" stroke="#666666" points="209.5,-496.34 99.5,-496.34 99.5,-477.34 209.5,-477.34 209.5,-496.34"/>
<text text-anchor="middle" x="154.5" y="-484.34" font-family="Helvetica,sans-Serif" font-size="10.00">test_solver_figure1</text>
</a>
</g>
</g>
<!-- Node4&#45;&gt;Node18 -->
<g id="edge24_Node000004_Node000018" class="edge">
<title>Node4&#45;&gt;Node18</title>
<g id="a_edge24_Node000004_Node000018"><a xlink:title=" ">
<path fill="none" stroke="#63b8ff" d="M328.66,-409.58C306.16,-426.28 268.29,-452.34 232,-467.84 223.19,-471.6 213.48,-474.73 204.02,-477.28"/>
<polygon fill="#63b8ff" stroke="#63b8ff" points="330.88,-412.29 336.76,-403.47 326.67,-406.7 330.88,-412.29"/>
</a>
</g>
</g>
<!-- Node19 -->
<g id="Node000019" class="node">
<title>Node19</title>
<g id="a_Node000019"><a xlink:href="test__graph_8cpp.html#ae08b5e2d9ec151376641907871fb6d1a" target="_top" xlink:title=" ">
<polygon fill="white" stroke="#666666" points="212.5,-459.34 96.5,-459.34 96.5,-440.34 212.5,-440.34 212.5,-459.34"/>
<text text-anchor="middle" x="154.5" y="-447.34" font-family="Helvetica,sans-Serif" font-size="10.00">test_solver_minrev2</text>
</a>
</g>
</g>
<!-- Node4&#45;&gt;Node19 -->
<g id="edge26_Node000004_Node000019" class="edge">
<title>Node4&#45;&gt;Node19</title>
<g id="a_edge26_Node000004_Node000019"><a xlink:title=" ">
<path fill="none" stroke="#63b8ff" d="M310.67,-406.63C287.92,-414.06 258.43,-423.39 232,-430.84 220.41,-434.11 207.75,-437.38 196.12,-440.26"/>
<polygon fill="#63b8ff" stroke="#63b8ff" points="311.89,-409.91 320.3,-403.47 309.71,-403.26 311.89,-409.91"/>
</a>
</g>
</g>
<!-- Node20 -->
<g id="Node000020" class="node">
<title>Node20</title>
<g id="a_Node000020"><a xlink:href="test__graph_8cpp.html#ac64ff524d61b175dce290be1685ae797" target="_top" xlink:title=" ">
<polygon fill="white" stroke="#666666" points="226,-422.34 83,-422.34 83,-403.34 226,-403.34 226,-422.34"/>
<text text-anchor="middle" x="154.5" y="-410.34" font-family="Helvetica,sans-Serif" font-size="10.00">test_solver_multi_domain</text>
</a>
</g>
</g>
<!-- Node4&#45;&gt;Node20 -->
<g id="edge28_Node000004_Node000020" class="edge">
<title>Node4&#45;&gt;Node20</title>
<g id="a_edge28_Node000004_Node000020"><a xlink:title=" ">
<path fill="none" stroke="#63b8ff" d="M299.62,-398.69C277.36,-400.87 250.65,-403.5 226.3,-405.89"/>
<polygon fill="#63b8ff" stroke="#63b8ff" points="300.23,-402.15 309.84,-397.69 299.55,-395.18 300.23,-402.15"/>
</a>
</g>
</g>
<!-- Node21 -->
<g id="Node000021" class="node">
<title>Node21</title>
<g id="a_Node000021"><a xlink:href="test__graph_8cpp.html#ad31c62f747c428536c260667126eae66" target="_top" xlink:title=" ">
<polygon fill="white" stroke="#666666" points="208,-385.34 101,-385.34 101,-366.34 208,-366.34 208,-385.34"/>
<text text-anchor="middle" x="154.5" y="-373.34" font-family="Helvetica,sans-Serif" font-size="10.00">test_solver_partial</text>
</a>
</g>
</g>
<!-- Node4&#45;&gt;Node21 -->
<g id="edge30_Node000004_Node000021" class="edge">
<title>Node4&#45;&gt;Node21</title>
<g id="a_edge30_Node000004_Node000021"><a xlink:title=" ">
<path fill="none" stroke="#63b8ff" d="M299.87,-389.27C271.86,-386.66 236.75,-383.4 208.17,-380.74"/>
<polygon fill="#63b8ff" stroke="#63b8ff" points="299.56,-392.76 309.84,-390.2 300.21,-385.79 299.56,-392.76"/>
</a>
</g>
</g>
<!-- Node22 -->
<g id="Node000022" class="node">
<title>Node22</title>
<g id="a_Node000022"><a xlink:href="test__graph_8cpp.html#aca441d5ebe3894bca1449f02e0fd8e48" target="_top" xlink:title=" ">
<polygon fill="white" stroke="#666666" points="189.5,-348.34 119.5,-348.34 119.5,-329.34 189.5,-329.34 189.5,-348.34"/>
<text text-anchor="middle" x="154.5" y="-336.34" font-family="Helvetica,sans-Serif" font-size="10.00">test_stress</text>
</a>
</g>
</g>
<!-- Node4&#45;&gt;Node22 -->
<g id="edge32_Node000004_Node000022" class="edge">
<title>Node4&#45;&gt;Node22</title>
<g id="a_edge32_Node000004_Node000022"><a xlink:title=" ">
<path fill="none" stroke="#63b8ff" d="M311.17,-381.08C288.36,-373.59 258.66,-364.18 232,-356.84 218.19,-353.04 202.84,-349.33 189.53,-346.27"/>
<polygon fill="#63b8ff" stroke="#63b8ff" points="310.21,-384.45 320.81,-384.27 312.41,-377.81 310.21,-384.45"/>
</a>
</g>
</g>
<!-- Node6 -->
<g id="Node000006" class="node">
<title>Node6</title>
<g id="a_Node000006"><a xlink:href="main_8cpp.html#a0ddf1224851353fc92bfbff6f499fa97" target="_top" xlink:title="Program entry point.">
<polygon fill="white" stroke="#666666" points="41,-600.34 0,-600.34 0,-581.34 41,-581.34 41,-600.34"/>
<text text-anchor="middle" x="20.5" y="-588.34" font-family="Helvetica,sans-Serif" font-size="10.00">main</text>
</a>
</g>
</g>
<!-- Node5&#45;&gt;Node6 -->
<g id="edge5_Node000005_Node000006" class="edge">
<title>Node5&#45;&gt;Node6</title>
<g id="a_edge5_Node000005_Node000006"><a xlink:title=" ">
<path fill="none" stroke="#63b8ff" d="M114.3,-604.2C90.28,-600.74 60.54,-596.46 41.31,-593.69"/>
<polygon fill="#63b8ff" stroke="#63b8ff" points="113.81,-607.66 124.2,-605.62 114.81,-600.73 113.81,-607.66"/>
</a>
</g>
</g>
<!-- Node7&#45;&gt;Node6 -->
<g id="edge7_Node000007_Node000006" class="edge">
<title>Node7&#45;&gt;Node6</title>
<g id="a_edge7_Node000007_Node000006"><a xlink:title=" ">
<path fill="none" stroke="#63b8ff" d="M101.55,-579.92C80.39,-582.81 57.21,-585.97 41.26,-588.15"/>
<polygon fill="#63b8ff" stroke="#63b8ff" points="102.3,-583.35 111.73,-578.54 101.35,-576.42 102.3,-583.35"/>
</a>
</g>
</g>
<!-- Node9 -->
<g id="Node000009" class="node">
<title>Node9</title>
<g id="a_Node000009"><a xlink:href="test__graph_8cpp.html#ae66f6b31b5ad750f1fe042a706a4e3d4" target="_top" xlink:title=" ">
<polygon fill="white" stroke="#666666" points="41,-284.34 0,-284.34 0,-265.34 41,-265.34 41,-284.34"/>
<text text-anchor="middle" x="20.5" y="-272.34" font-family="Helvetica,sans-Serif" font-size="10.00">main</text>
</a>
</g>
</g>
<!-- Node8&#45;&gt;Node9 -->
<g id="edge9_Node000008_Node000009" class="edge">
<title>Node8&#45;&gt;Node9</title>
<g id="a_edge9_Node000008_Node000009"><a xlink:title=" ">
<path fill="none" stroke="#63b8ff" d="M86.81,-285.23C70.17,-282.58 53.59,-279.95 41.3,-277.99"/>
<polygon fill="#63b8ff" stroke="#63b8ff" points="86.71,-288.76 97.14,-286.87 87.81,-281.85 86.71,-288.76"/>
</a>
</g>
</g>
<!-- Node10&#45;&gt;Node9 -->
<g id="edge11_Node000010_Node000009" class="edge">
<title>Node10&#45;&gt;Node9</title>
<g id="a_edge11_Node000010_Node000009"><a xlink:title=" ">
<path fill="none" stroke="#63b8ff" d="M86.11,-264.07C69.59,-266.83 53.19,-269.56 41.05,-271.58"/>
<polygon fill="#63b8ff" stroke="#63b8ff" points="87.08,-267.46 96.37,-262.36 85.93,-260.55 87.08,-267.46"/>
</a>
</g>
</g>
<!-- Node11&#45;&gt;Node9 -->
<g id="edge13_Node000011_Node000009" class="edge">
<title>Node11&#45;&gt;Node9</title>
<g id="a_edge13_Node000011_Node000009"><a xlink:title=" ">
<path fill="none" stroke="#63b8ff" d="M90.6,-228.43C85.92,-230.04 81.34,-231.83 77,-233.84 59.61,-241.89 42.28,-255.9 31.72,-265.27"/>
<polygon fill="#63b8ff" stroke="#63b8ff" points="91.79,-231.73 100.29,-225.4 89.71,-225.04 91.79,-231.73"/>
</a>
</g>
</g>
<!-- Node12&#45;&gt;Node9 -->
<g id="edge15_Node000012_Node000009" class="edge">
<title>Node12&#45;&gt;Node9</title>
<g id="a_edge15_Node000012_Node000009"><a xlink:title=" ">
<path fill="none" stroke="#63b8ff" d="M87.46,-191C83.8,-192.7 80.28,-194.63 77,-196.84 50.93,-214.36 33.1,-248.53 25.56,-265.21"/>
<polygon fill="#63b8ff" stroke="#63b8ff" points="88.83,-194.22 96.8,-187.24 86.22,-187.73 88.83,-194.22"/>
</a>
</g>
</g>
<!-- Node14 -->
<g id="Node000014" class="node">
<title>Node14</title>
<g id="a_Node000014"><a xlink:href="test__output_8cpp.html#ae66f6b31b5ad750f1fe042a706a4e3d4" target="_top" xlink:title=" ">
<polygon fill="white" stroke="#666666" points="41,-767.34 0,-767.34 0,-748.34 41,-748.34 41,-767.34"/>
<text text-anchor="middle" x="20.5" y="-755.34" font-family="Helvetica,sans-Serif" font-size="10.00">main</text>
</a>
</g>
</g>
<!-- Node13&#45;&gt;Node14 -->
<g id="edge17_Node000013_Node000014" class="edge">
<title>Node13&#45;&gt;Node14</title>
<g id="a_edge17_Node000013_Node000014"><a xlink:title=" ">
<path fill="none" stroke="#63b8ff" d="M103.14,-732.81C94.39,-735.05 85.41,-737.43 77,-739.84 65.02,-743.27 51.74,-747.56 41.18,-751.09"/>
<polygon fill="#63b8ff" stroke="#63b8ff" points="104.02,-736.2 112.86,-730.37 102.31,-729.41 104.02,-736.2"/>
</a>
</g>
</g>
<!-- Node15&#45;&gt;Node14 -->
<g id="edge19_Node000015_Node000014" class="edge">
<title>Node15&#45;&gt;Node14</title>
<g id="a_edge19_Node000015_Node000014"><a xlink:title=" ">
<path fill="none" stroke="#63b8ff" d="M89.66,-696.85C85.26,-698.61 81,-700.59 77,-702.84 56.42,-714.41 38.18,-735.66 28.6,-748.09"/>
<polygon fill="#63b8ff" stroke="#63b8ff" points="91.17,-700.03 99.42,-693.38 88.82,-693.43 91.17,-700.03"/>
</a>
</g>
</g>
<!-- Node16&#45;&gt;Node14 -->
<g id="edge21_Node000016_Node000014" class="edge">
<title>Node16&#45;&gt;Node14</title>
<g id="a_edge21_Node000016_Node000014"><a xlink:title=" ">
<path fill="none" stroke="#63b8ff" d="M90.81,-657.92C85.91,-660.11 81.23,-662.72 77,-665.84 47.73,-687.44 30.85,-729.51 24.47,-748.34"/>
<polygon fill="#63b8ff" stroke="#63b8ff" points="92.37,-661.08 100.45,-654.23 89.86,-654.54 92.37,-661.08"/>
</a>
</g>
</g>
<!-- Node17&#45;&gt;Node9 -->
<g id="edge23_Node000017_Node000009" class="edge">
<title>Node17&#45;&gt;Node9</title>
<g id="a_edge23_Node000017_Node000009"><a xlink:title=" ">
<path fill="none" stroke="#63b8ff" d="M82,-156.26C80.27,-157.37 78.6,-158.56 77,-159.84 42.24,-187.72 27.85,-242.72 23.27,-265.06"/>
<polygon fill="#63b8ff" stroke="#63b8ff" points="83.96,-159.18 91.11,-151.37 80.65,-153.01 83.96,-159.18"/>
</a>
</g>
</g>
<!-- Node18&#45;&gt;Node9 -->
<g id="edge25_Node000018_Node000009" class="edge">
<title>Node18&#45;&gt;Node9</title>
<g id="a_edge25_Node000018_Node000009"><a xlink:title=" ">
<path fill="none" stroke="#63b8ff" d="M89.84,-476.9C85.15,-474.47 80.78,-471.49 77,-467.84 23.29,-416.06 20.59,-315.98 21.15,-284.54"/>
<polygon fill="#63b8ff" stroke="#63b8ff" points="88.63,-480.19 99.2,-480.93 91.4,-473.76 88.63,-480.19"/>
</a>
</g>
</g>
<!-- Node19&#45;&gt;Node9 -->
<g id="edge27_Node000019_Node000009" class="edge">
<title>Node19&#45;&gt;Node9</title>
<g id="a_edge27_Node000019_Node000009"><a xlink:title=" ">
<path fill="none" stroke="#63b8ff" d="M87.05,-438.02C83.44,-435.98 80.05,-433.6 77,-430.84 32.48,-390.5 23.66,-312.05 21.92,-284.6"/>
<polygon fill="#63b8ff" stroke="#63b8ff" points="85.85,-441.33 96.39,-442.44 88.85,-435 85.85,-441.33"/>
</a>
</g>
</g>
<!-- Node20&#45;&gt;Node9 -->
<g id="edge29_Node000020_Node000009" class="edge">
<title>Node20&#45;&gt;Node9</title>
<g id="a_edge29_Node000020_Node000009"><a xlink:title=" ">
<path fill="none" stroke="#63b8ff" d="M83.45,-398.44C81.19,-397.05 79.03,-395.52 77,-393.84 41.45,-364.57 27.45,-307.4 23.12,-284.58"/>
<polygon fill="#63b8ff" stroke="#63b8ff" points="82.08,-401.68 92.57,-403.21 85.32,-395.47 82.08,-401.68"/>
</a>
</g>
</g>
<!-- Node21&#45;&gt;Node9 -->
<g id="edge31_Node000021_Node000009" class="edge">
<title>Node21&#45;&gt;Node9</title>
<g id="a_edge31_Node000021_Node000009"><a xlink:title=" ">
<path fill="none" stroke="#63b8ff" d="M90.98,-364.51C86.04,-362.38 81.31,-359.85 77,-356.84 50.08,-338.04 32.44,-301.65 25.21,-284.38"/>
<polygon fill="#63b8ff" stroke="#63b8ff" points="90.08,-367.91 100.67,-368.14 92.53,-361.36 90.08,-367.91"/>
</a>
</g>
</g>
<!-- Node22&#45;&gt;Node9 -->
<g id="edge33_Node000022_Node000009" class="edge">
<title>Node22&#45;&gt;Node9</title>
<g id="a_edge33_Node000022_Node000009"><a xlink:title=" ">
<path fill="none" stroke="#63b8ff" d="M109.41,-331.37C98.48,-328.59 87.03,-324.84 77,-319.84 58.79,-310.77 41.14,-294.85 30.8,-284.58"/>
<polygon fill="#63b8ff" stroke="#63b8ff" points="108.71,-334.8 119.24,-333.66 110.3,-327.98 108.71,-334.8"/>
</a>
</g>
</g>
<!-- Node23&#45;&gt;Node5 -->
<g id="edge35_Node000023_Node000005" class="edge">
<title>Node23&#45;&gt;Node5</title>
<g id="a_edge35_Node000023_Node000005"><a xlink:title=" ">
<path fill="none" stroke="#63b8ff" d="M257.67,-599.81C231.17,-602.41 204.13,-605.07 184.53,-606.99"/>
<polygon fill="#63b8ff" stroke="#63b8ff" points="258.17,-603.28 267.78,-598.82 257.49,-596.31 258.17,-603.28"/>
</a>
</g>
</g>
<!-- Node23&#45;&gt;Node7 -->
<g id="edge36_Node000023_Node000007" class="edge">
<title>Node23&#45;&gt;Node7</title>
<g id="a_edge36_Node000023_Node000007"><a xlink:title=" ">
<path fill="none" stroke="#63b8ff" d="M257.75,-582.35C236.56,-580.38 215.01,-578.38 197.19,-576.72"/>
<polygon fill="#63b8ff" stroke="#63b8ff" points="257.5,-585.84 267.78,-583.29 258.15,-578.87 257.5,-585.84"/>
</a>
</g>
</g>
<!-- Node24 -->
<g id="Node000024" class="node">
<title>Node24</title>
<g id="a_Node000024"><a xlink:href="test__output_8cpp.html#ad98b96469ee1c28ab8390957efbc52e5" target="_top" xlink:title=" ">
<polygon fill="white" stroke="#666666" points="221,-878.34 88,-878.34 88,-859.34 221,-859.34 221,-878.34"/>
<text text-anchor="middle" x="154.5" y="-866.34" font-family="Helvetica,sans-Serif" font-size="10.00">test_full_batch_pipeline</text>
</a>
</g>
</g>
<!-- Node23&#45;&gt;Node24 -->
<g id="edge37_Node000023_Node000024" class="edge">
<title>Node23&#45;&gt;Node24</title>
<g id="a_edge37_Node000023_Node000024"><a xlink:title=" ">
<path fill="none" stroke="#63b8ff" d="M346.14,-610.62C337.98,-659.47 309.96,-786.56 232,-850.84 227.89,-854.23 223.26,-857 218.36,-859.26"/>
<polygon fill="#63b8ff" stroke="#63b8ff" points="349.64,-610.87 347.73,-600.45 342.73,-609.78 349.64,-610.87"/>
</a>
</g>
</g>
<!-- Node25 -->
<g id="Node000025" class="node">
<title>Node25</title>
<g id="a_Node000025"><a xlink:href="test__output_8cpp.html#a24a7f840628b276584f7f09649fa5ccb" target="_top" xlink:title=" ">
<polygon fill="white" stroke="#666666" points="210,-841.34 99,-841.34 99,-822.34 210,-822.34 210,-841.34"/>
<text text-anchor="middle" x="154.5" y="-829.34" font-family="Helvetica,sans-Serif" font-size="10.00">test_output_figure4</text>
</a>
</g>
</g>
<!-- Node23&#45;&gt;Node25 -->
<g id="edge39_Node000023_Node000025" class="edge">
<title>Node23&#45;&gt;Node25</title>
<g id="a_edge39_Node000023_Node000025"><a xlink:title=" ">
<path fill="none" stroke="#63b8ff" d="M344.51,-610.74C333.52,-654.7 300.98,-760.37 232,-813.84 225.64,-818.77 218.14,-822.39 210.38,-825.03"/>
<polygon fill="#63b8ff" stroke="#63b8ff" points="347.98,-611.28 346.9,-600.74 341.17,-609.66 347.98,-611.28"/>
</a>
</g>
</g>
<!-- Node26 -->
<g id="Node000026" class="node">
<title>Node26</title>
<g id="a_Node000026"><a xlink:href="test__output_8cpp.html#a8907cb43e3cf97150ebba79a523d26cf" target="_top" xlink:title=" ">
<polygon fill="white" stroke="#666666" points="211,-804.34 98,-804.34 98,-785.34 211,-785.34 211,-804.34"/>
<text text-anchor="middle" x="154.5" y="-792.34" font-family="Helvetica,sans-Serif" font-size="10.00">test_output_no_risk</text>
</a>
</g>
</g>
<!-- Node23&#45;&gt;Node26 -->
<g id="edge41_Node000023_Node000026" class="edge">
<title>Node23&#45;&gt;Node26</title>
<g id="a_edge41_Node000023_Node000026"><a xlink:title=" ">
<path fill="none" stroke="#63b8ff" d="M342.5,-610.26C328.65,-648.51 292.47,-733.66 232,-776.84 225.78,-781.28 218.62,-784.64 211.23,-787.18"/>
<polygon fill="#63b8ff" stroke="#63b8ff" points="345.96,-610.98 345.95,-600.39 339.35,-608.67 345.96,-610.98"/>
</a>
</g>
</g>
<!-- Node27 -->
<g id="Node000027" class="node">
<title>Node27</title>
<g id="a_Node000027"><a xlink:href="test__graph_8cpp.html#ac3ef62920e5b4df04a4b81489aacc664" target="_top" xlink:title=" ">
<polygon fill="white" stroke="#666666" points="215.5,-767.34 93.5,-767.34 93.5,-748.34 215.5,-748.34 215.5,-767.34"/>
<text text-anchor="middle" x="154.5" y="-755.34" font-family="Helvetica,sans-Serif" font-size="10.00">test_risk_analysis_k1</text>
</a>
</g>
</g>
<!-- Node23&#45;&gt;Node27 -->
<g id="edge43_Node000023_Node000027" class="edge">
<title>Node23&#45;&gt;Node27</title>
<g id="a_edge43_Node000023_Node000027"><a xlink:title=" ">
<path fill="none" stroke="#63b8ff" d="M339.57,-609.91C322.66,-642.03 284.03,-706.63 232,-739.84 226.59,-743.29 220.6,-746.08 214.4,-748.34"/>
<polygon fill="#63b8ff" stroke="#63b8ff" points="342.84,-611.2 344.28,-600.71 336.61,-608.01 342.84,-611.2"/>
</a>
</g>
</g>
<!-- Node28 -->
<g id="Node000028" class="node">
<title>Node28</title>
<g id="a_Node000028"><a xlink:href="test__graph_8cpp.html#a87c4bbb43e141d16aadf387d84e8f461" target="_top" xlink:title=" ">
<polygon fill="white" stroke="#666666" points="206.5,-544.84 102.5,-544.84 102.5,-514.84 206.5,-514.84 206.5,-544.84"/>
<text text-anchor="start" x="110.5" y="-532.84" font-family="Helvetica,sans-Serif" font-size="10.00">test_risk_analysis</text>
<text text-anchor="middle" x="154.5" y="-521.84" font-family="Helvetica,sans-Serif" font-size="10.00">_redundant</text>
</a>
</g>
</g>
<!-- Node23&#45;&gt;Node28 -->
<g id="edge45_Node000023_Node000028" class="edge">
<title>Node23&#45;&gt;Node28</title>
<g id="a_edge45_Node000023_Node000028"><a xlink:title=" ">
<path fill="none" stroke="#63b8ff" d="M308.83,-578.18C278.11,-568.49 235.66,-555.11 203.21,-544.88"/>
<polygon fill="#63b8ff" stroke="#63b8ff" points="308.18,-581.64 318.77,-581.31 310.28,-574.96 308.18,-581.64"/>
</a>
</g>
</g>
<!-- Node24&#45;&gt;Node14 -->
<g id="edge38_Node000024_Node000014" class="edge">
<title>Node24&#45;&gt;Node14</title>
<g id="a_edge38_Node000024_Node000014"><a xlink:title=" ">
<path fill="none" stroke="#63b8ff" d="M82.88,-854.66C80.85,-853.49 78.88,-852.22 77,-850.84 47.42,-829.18 30.7,-786.56 24.41,-767.48"/>
<polygon fill="#63b8ff" stroke="#63b8ff" points="81.68,-857.97 92.2,-859.23 84.76,-851.68 81.68,-857.97"/>
</a>
</g>
</g>
<!-- Node25&#45;&gt;Node14 -->
<g id="edge40_Node000025_Node000014" class="edge">
<title>Node25&#45;&gt;Node14</title>
<g id="a_edge40_Node000025_Node000014"><a xlink:title=" ">
<path fill="none" stroke="#63b8ff" d="M89.41,-819.66C85.1,-817.97 80.92,-816.04 77,-813.84 55.98,-802.07 37.63,-780.01 28.21,-767.38"/>
<polygon fill="#63b8ff" stroke="#63b8ff" points="88.39,-823.01 98.99,-823.01 90.7,-816.41 88.39,-823.01"/>
</a>
</g>
</g>
<!-- Node26&#45;&gt;Node14 -->
<g id="edge42_Node000026_Node000014" class="edge">
<title>Node26&#45;&gt;Node14</title>
<g id="a_edge42_Node000026_Node000014"><a xlink:title=" ">
<path fill="none" stroke="#63b8ff" d="M99.67,-782.88C92.03,-780.98 84.29,-778.94 77,-776.84 64.96,-773.37 51.68,-768.85 41.13,-765.09"/>
<polygon fill="#63b8ff" stroke="#63b8ff" points="99.07,-786.34 109.62,-785.3 100.73,-779.54 99.07,-786.34"/>
</a>
</g>
</g>
<!-- Node27&#45;&gt;Node9 -->
<g id="edge44_Node000027_Node000009" class="edge">
<title>Node27&#45;&gt;Node9</title>
<g id="a_edge44_Node000027_Node000009"><a xlink:title=" ">
<path fill="none" stroke="#63b8ff" d="M84.6,-746.53C81.83,-744.6 79.27,-742.38 77,-739.84 45.44,-704.53 25.35,-348.3 22,-284.57"/>
<polygon fill="#63b8ff" stroke="#63b8ff" points="83.01,-749.66 93.44,-751.51 86.45,-743.56 83.01,-749.66"/>
</a>
</g>
</g>
<!-- Node28&#45;&gt;Node9 -->
<g id="edge46_Node000028_Node000009" class="edge">
<title>Node28&#45;&gt;Node9</title>
<g id="a_edge46_Node000028_Node000009"><a xlink:title=" ">
<path fill="none" stroke="#63b8ff" d="M93.21,-516.98C87.17,-513.79 81.59,-509.81 77,-504.84 46.13,-471.43 27.13,-323.65 22.57,-284.43"/>
<polygon fill="#63b8ff" stroke="#63b8ff" points="91.78,-520.17 102.33,-521.11 94.67,-513.79 91.78,-520.17"/>
</a>
</g>
</g>
<!-- Node29&#45;&gt;Node9 -->
<g id="edge48_Node000029_Node000009" class="edge">
<title>Node29&#45;&gt;Node9</title>
<g id="a_edge48_Node000029_Node000009"><a xlink:title=" ">
<path fill="none" stroke="#63b8ff" d="M298.32,-139.16C287.53,-136.16 276.76,-131.64 268,-124.84 241.29,-104.12 261.01,-75.19 232,-57.84 172.87,-22.49 131.41,-15.59 77,-57.84 43.06,-84.19 26.36,-226.77 22.43,-265.26"/>
<polygon fill="#63b8ff" stroke="#63b8ff" points="297.63,-142.59 308.17,-141.5 299.25,-135.78 297.63,-142.59"/>
</a>
</g>
</g>
<!-- Node30&#45;&gt;Node9 -->
<g id="edge50_Node000030_Node000009" class="edge">
<title>Node30&#45;&gt;Node9</title>
<g id="a_edge50_Node000030_Node000009"><a xlink:title=" ">
<path fill="none" stroke="#63b8ff" d="M332.63,-90.3C311.53,-70.29 272.69,-37.68 232,-24.84 166.3,-4.11 130.73,18.27 77,-24.84 38.25,-55.93 24.86,-223.29 22.08,-265.28"/>
<polygon fill="#63b8ff" stroke="#63b8ff" points="330.2,-92.83 339.81,-97.29 335.08,-87.81 330.2,-92.83"/>
</a>
</g>
</g>
<!-- Node31&#45;&gt;Node9 -->
<g id="edge52_Node000031_Node000009" class="edge">
<title>Node31&#45;&gt;Node9</title>
<g id="a_edge52_Node000031_Node000009"><a xlink:title=" ">
<path fill="none" stroke="#63b8ff" d="M279.61,-208.44C275.47,-206.29 271.55,-203.77 268,-200.84 238.56,-176.53 264.16,-143.42 232,-122.84 173.97,-85.71 133.45,-83.36 77,-122.84 28.66,-156.65 22.28,-237.27 21.55,-265.16"/>
<polygon fill="#63b8ff" stroke="#63b8ff" points="278.41,-211.73 288.97,-212.59 281.25,-205.34 278.41,-211.73"/>
</a>
</g>
</g>
<!-- Node32&#45;&gt;Node9 -->
<g id="edge54_Node000032_Node000009" class="edge">
<title>Node32&#45;&gt;Node9</title>
<g id="a_edge54_Node000032_Node000009"><a xlink:title=" ">
<path fill="none" stroke="#63b8ff" d="M298.49,-177.44C287.6,-174.43 276.75,-169.84 268,-162.84 240.06,-140.49 262.43,-109.65 232,-90.84 173.4,-54.62 132.3,-49.76 77,-90.84 19.68,-133.42 19.41,-233.39 20.86,-265.05"/>
<polygon fill="#63b8ff" stroke="#63b8ff" points="297.91,-180.89 308.44,-179.77 299.51,-174.08 297.91,-180.89"/>
</a>
</g>
</g>
<!-- Node33&#45;&gt;Node23 -->
<g id="edge56_Node000033_Node000023" class="edge">
<title>Node33&#45;&gt;Node23</title>
<g id="a_edge56_Node000033_Node000023"><a xlink:title=" ">
<path fill="none" stroke="#63b8ff" d="M513.66,-530.87C474.38,-545.35 411.88,-568.4 376.89,-581.29"/>
<polygon fill="#63b8ff" stroke="#63b8ff" points="514.94,-534.13 523.11,-527.38 512.52,-527.56 514.94,-534.13"/>
</a>
</g>
</g>
<!-- Node34&#45;&gt;Node4 -->
<g id="edge58_Node000034_Node000004" class="edge">
<title>Node34&#45;&gt;Node4</title>
<g id="a_edge58_Node000034_Node000004"><a xlink:title=" ">
<path fill="none" stroke="#63b8ff" d="M526.46,-274.21C485.29,-302.28 399.01,-361.1 365.11,-384.22"/>
<polygon fill="#63b8ff" stroke="#63b8ff" points="528.47,-277.07 534.76,-268.55 524.53,-271.29 528.47,-277.07"/>
</a>
</g>
</g>
<!-- Node34&#45;&gt;Node23 -->
<g id="edge59_Node000034_Node000023" class="edge">
<title>Node34&#45;&gt;Node23</title>
<g id="a_edge59_Node000034_Node000023"><a xlink:title=" ">
<path fill="none" stroke="#63b8ff" d="M535.55,-276.74C518.92,-299.17 490.11,-339.02 468,-374.84 420.29,-452.14 370.98,-550.34 355.76,-581.15"/>
<polygon fill="#63b8ff" stroke="#63b8ff" points="538.51,-278.63 541.68,-268.52 532.9,-274.44 538.51,-278.63"/>
</a>
</g>
</g>
<!-- Node34&#45;&gt;Node29 -->
<g id="edge60_Node000034_Node000029" class="edge">
<title>Node34&#45;&gt;Node29</title>
<g id="a_edge60_Node000034_Node000029"><a xlink:title=" ">
<path fill="none" stroke="#63b8ff" d="M532.86,-241.61C511.74,-220.12 472.62,-183.77 432,-163.84 419.55,-157.73 405.05,-153.53 391.78,-150.67"/>
<polygon fill="#63b8ff" stroke="#63b8ff" points="530.58,-244.29 540.04,-249.06 535.62,-239.43 530.58,-244.29"/>
</a>
</g>
</g>
<!-- Node34&#45;&gt;Node30 -->
<g id="edge61_Node000034_Node000030" class="edge">
<title>Node34&#45;&gt;Node30</title>
<g id="a_edge61_Node000034_Node000030"><a xlink:title=" ">
<path fill="none" stroke="#63b8ff" d="M538.28,-240.61C520.2,-211.57 480.82,-155.1 432,-125.84 422.21,-119.98 410.75,-115.92 399.58,-113.12"/>
<polygon fill="#63b8ff" stroke="#63b8ff" points="535.39,-242.6 543.57,-249.33 541.37,-238.96 535.39,-242.6"/>
</a>
</g>
</g>
<!-- Node34&#45;&gt;Node31 -->
<g id="edge62_Node000034_Node000031" class="edge">
<title>Node34&#45;&gt;Node31</title>
<g id="a_edge62_Node000034_Node000031"><a xlink:title=" ">
<path fill="none" stroke="#63b8ff" d="M489.13,-247.35C460.88,-241.93 427.56,-235.53 400.73,-230.38"/>
<polygon fill="#63b8ff" stroke="#63b8ff" points="488.81,-250.85 499.29,-249.3 490.13,-243.98 488.81,-250.85"/>
</a>
</g>
</g>
<!-- Node34&#45;&gt;Node32 -->
<g id="edge63_Node000034_Node000032" class="edge">
<title>Node34&#45;&gt;Node32</title>
<g id="a_edge63_Node000034_Node000032"><a xlink:title=" ">
<path fill="none" stroke="#63b8ff" d="M523.61,-244.41C500.37,-231.72 464.74,-213.49 432,-201.84 419.21,-197.29 404.89,-193.52 391.89,-190.57"/>
<polygon fill="#63b8ff" stroke="#63b8ff" points="522.02,-247.53 532.46,-249.31 525.41,-241.41 522.02,-247.53"/>
</a>
</g>
</g>
</g>
</svg>
