<?xml version="1.0" encoding="UTF-8" standalone="no"?>
<!DOCTYPE svg PUBLIC "-//W3C//DTD SVG 1.1//EN"
 "http://www.w3.org/Graphics/SVG/1.1/DTD/svg11.dtd">
<!-- Generated by graphviz version 2.43.0 (0)
 -->
<!-- Title: domain.h Pages: 1 -->
<svg width="1077pt" height="137pt"
 viewBox="0.00 0.00 1077.00 137.00" xmlns="http://www.w3.org/2000/svg" xmlns:xlink="http://www.w3.org/1999/xlink">
<g id="graph0" class="graph" transform="scale(1 1) rotate(0) translate(4 133)">
<title>domain.h</title>
<!-- Node1 -->
<g id="Node000001" class="node">
<title>Node1</title>
<g id="a_Node000001"><a xlink:title="Domain entities for the Scientific Conference Organization Tool.">
<polygon fill="#999999" stroke="#666666" points="301,-129 239,-129 239,-110 301,-110 301,-129"/>
<text text-anchor="middle" x="270" y="-117" font-family="Helvetica,sans-Serif" font-size="10.00">domain.h</text>
</a>
</g>
</g>
<!-- Node2 -->
<g id="Node000002" class="node">
<title>Node2</title>
<g id="a_Node000002"><a xlink:href="graph_8h.html" target="_top" xlink:title="Generic flow network graph with Edmonds&#45;Karp max&#45;flow solver.">
<polygon fill="white" stroke="#666666" points="243.5,-74 190.5,-74 190.5,-55 243.5,-55 243.5,-74"/>
<text text-anchor="middle" x="217" y="-62" font-family="Helvetica,sans-Serif" font-size="10.00">graph.h</text>
</a>
</g>
</g>
<!-- Node1&#45;&gt;Node2 -->
<g id="edge1_Node000001_Node000002" class="edge">
<title>Node1&#45;&gt;Node2</title>
<g id="a_edge1_Node000001_Node000002"><a xlink:title=" ">
<path fill="none" stroke="#63b8ff" d="M254.02,-102.52C244.68,-93.18 233.25,-81.75 225.59,-74.09"/>
<polygon fill="#63b8ff" stroke="#63b8ff" points="251.7,-105.15 261.25,-109.75 256.65,-100.2 251.7,-105.15"/>
</a>
</g>
</g>
<!-- Node6 -->
<g id="Node000006" class="node">
<title>Node6</title>
<g id="a_Node000006"><a xlink:href="output_8h.html" target="_top" xlink:title="Output formatter for the conference assignment tool.">
<polygon fill="white" stroke="#666666" points="154.5,-74 97.5,-74 97.5,-55 154.5,-55 154.5,-74"/>
<text text-anchor="middle" x="126" y="-62" font-family="Helvetica,sans-Serif" font-size="10.00">output.h</text>
</a>
</g>
</g>
<!-- Node1&#45;&gt;Node6 -->
<g id="edge5_Node000001_Node000006" class="edge">
<title>Node1&#45;&gt;Node6</title>
<g id="a_edge5_Node000001_Node000006"><a xlink:title=" ">
<path fill="none" stroke="#63b8ff" d="M237.18,-106.42C210.47,-96.59 173.4,-82.95 149.56,-74.17"/>
<polygon fill="#63b8ff" stroke="#63b8ff" points="236.27,-109.82 246.86,-109.98 238.69,-103.25 236.27,-109.82"/>
</a>
</g>
</g>
<!-- Node7 -->
<g id="Node000007" class="node">
<title>Node7</title>
<g id="a_Node000007"><a xlink:href="parser_8h.html" target="_top" xlink:title="Robust parser for the conference assignment input file format.">
<polygon fill="white" stroke="#666666" points="421,-74 365,-74 365,-55 421,-55 421,-74"/>
<text text-anchor="middle" x="393" y="-62" font-family="Helvetica,sans-Serif" font-size="10.00">parser.h</text>
</a>
</g>
</g>
<!-- Node1&#45;&gt;Node7 -->
<g id="edge8_Node000001_Node000007" class="edge">
<title>Node1&#45;&gt;Node7</title>
<g id="a_edge8_Node000001_Node000007"><a xlink:title=" ">
<path fill="none" stroke="#63b8ff" d="M299.25,-105.9C321.97,-96.11 352.87,-82.79 372.88,-74.17"/>
<polygon fill="#63b8ff" stroke="#63b8ff" points="297.56,-102.81 289.76,-109.98 300.33,-109.24 297.56,-102.81"/>
</a>
</g>
</g>
<!-- Node15 -->
<g id="Node000015" class="node">
<title>Node15</title>
<g id="a_Node000015"><a xlink:href="test__domain_8cpp.html" target="_top" xlink:title=" ">
<polygon fill="white" stroke="#666666" points="537,-74 439,-74 439,-55 537,-55 537,-74"/>
<text text-anchor="middle" x="488" y="-62" font-family="Helvetica,sans-Serif" font-size="10.00">test_domain.cpp</text>
</a>
</g>
</g>
<!-- Node1&#45;&gt;Node15 -->
<g id="edge19_Node000001_Node000015" class="edge">
<title>Node1&#45;&gt;Node15</title>
<g id="a_edge19_Node000001_Node000015"><a xlink:title=" ">
<path fill="none" stroke="#63b8ff" d="M311.15,-108.49C352.07,-98.55 414.17,-83.45 452.85,-74.05"/>
<polygon fill="#63b8ff" stroke="#63b8ff" points="310.12,-105.14 301.23,-110.91 311.78,-111.94 310.12,-105.14"/>
</a>
</g>
</g>
<!-- Node3 -->
<g id="Node000003" class="node">
<title>Node3</title>
<g id="a_Node000003"><a xlink:href="main_8cpp.html" target="_top" xlink:title="Entry point for the Scientific Conference Organization Tool.">
<polygon fill="white" stroke="#666666" points="62,-19 0,-19 0,0 62,0 62,-19"/>
<text text-anchor="middle" x="31" y="-7" font-family="Helvetica,sans-Serif" font-size="10.00">main.cpp</text>
</a>
</g>
</g>
<!-- Node2&#45;&gt;Node3 -->
<g id="edge2_Node000002_Node000003" class="edge">
<title>Node2&#45;&gt;Node3</title>
<g id="a_edge2_Node000002_Node000003"><a xlink:title=" ">
<path fill="none" stroke="#63b8ff" d="M180.55,-53.11C145.63,-43.16 93.57,-28.33 60.99,-19.05"/>
<polygon fill="#63b8ff" stroke="#63b8ff" points="179.77,-56.53 190.35,-55.91 181.69,-49.8 179.77,-56.53"/>
</a>
</g>
</g>
<!-- Node4 -->
<g id="Node000004" class="node">
<title>Node4</title>
<g id="a_Node000004"><a xlink:href="test__graph_8cpp.html" target="_top" xlink:title="Comprehensive unit tests for Graph, NetworkBuilder, and Solver.">
<polygon fill="white" stroke="#666666" points="279.5,-19 190.5,-19 190.5,0 279.5,0 279.5,-19"/>
<text text-anchor="middle" x="235" y="-7" font-family="Helvetica,sans-Serif" font-size="10.00">test_graph.cpp</text>
</a>
</g>
</g>
<!-- Node2&#45;&gt;Node4 -->
<g id="edge3_Node000002_Node000004" class="edge">
<title>Node2&#45;&gt;Node4</title>
<g id="a_edge3_Node000002_Node000004"><a xlink:title=" ">
<path fill="none" stroke="#63b8ff" d="M223.2,-45.24C226.21,-36.37 229.69,-26.14 232.08,-19.09"/>
<polygon fill="#63b8ff" stroke="#63b8ff" points="219.87,-44.15 219.97,-54.75 226.5,-46.4 219.87,-44.15"/>
</a>
</g>
</g>
<!-- Node5 -->
<g id="Node000005" class="node">
<title>Node5</title>
<g id="a_Node000005"><a xlink:href="test__output_8cpp.html" target="_top" xlink:title="End&#45;to&#45;end tests for the OutputWriter + complete pipeline.">
<polygon fill="white" stroke="#666666" points="172,-19 80,-19 80,0 172,0 172,-19"/>
<text text-anchor="middle" x="126" y="-7" font-family="Helvetica,sans-Serif" font-size="10.00">test_output.cpp</text>
</a>
</g>
</g>
<!-- Node2&#45;&gt;Node5 -->
<g id="edge4_Node000002_Node000005" class="edge">
<title>Node2&#45;&gt;Node5</title>
<g id="a_edge4_Node000002_Node000005"><a xlink:title=" ">
<path fill="none" stroke="#63b8ff" d="M193.3,-49.7C176.72,-40.04 155.09,-27.44 140.89,-19.17"/>
<polygon fill="#63b8ff" stroke="#63b8ff" points="191.98,-52.98 202.38,-54.98 195.5,-46.93 191.98,-52.98"/>
</a>
</g>
</g>
<!-- Node6&#45;&gt;Node3 -->
<g id="edge6_Node000006_Node000003" class="edge">
<title>Node6&#45;&gt;Node3</title>
<g id="a_edge6_Node000006_Node000003"><a xlink:title=" ">
<path fill="none" stroke="#63b8ff" d="M101.74,-49.97C84.37,-40.28 61.51,-27.52 46.54,-19.17"/>
<polygon fill="#63b8ff" stroke="#63b8ff" points="100.3,-53.17 110.74,-54.98 103.71,-47.06 100.3,-53.17"/>
</a>
</g>
</g>
<!-- Node6&#45;&gt;Node5 -->
<g id="edge7_Node000006_Node000005" class="edge">
<title>Node6&#45;&gt;Node5</title>
<g id="a_edge7_Node000006_Node000005"><a xlink:title=" ">
<path fill="none" stroke="#63b8ff" d="M126,-44.66C126,-35.93 126,-25.99 126,-19.09"/>
<polygon fill="#63b8ff" stroke="#63b8ff" points="122.5,-44.75 126,-54.75 129.5,-44.75 122.5,-44.75"/>
</a>
</g>
</g>
<!-- Node7&#45;&gt;Node3 -->
<g id="edge9_Node000007_Node000003" class="edge">
<title>Node7&#45;&gt;Node3</title>
<g id="a_edge9_Node000007_Node000003"><a xlink:title=" ">
<path fill="none" stroke="#63b8ff" d="M354.68,-59.11C294.2,-51.98 173,-36.86 71,-19 68.2,-18.51 65.3,-17.97 62.4,-17.4"/>
<polygon fill="#63b8ff" stroke="#63b8ff" points="354.56,-62.62 364.9,-60.31 355.37,-55.67 354.56,-62.62"/>
</a>
</g>
</g>
<!-- Node7&#45;&gt;Node4 -->
<g id="edge10_Node000007_Node000004" class="edge">
<title>Node7&#45;&gt;Node4</title>
<g id="a_edge10_Node000007_Node000004"><a xlink:title=" ">
<path fill="none" stroke="#63b8ff" d="M358.12,-51.8C328.63,-41.91 287.07,-27.97 260.58,-19.08"/>
<polygon fill="#63b8ff" stroke="#63b8ff" points="357.02,-55.12 367.61,-54.98 359.25,-48.49 357.02,-55.12"/>
</a>
</g>
</g>
<!-- Node7&#45;&gt;Node5 -->
<g id="edge16_Node000007_Node000005" class="edge">
<title>Node7&#45;&gt;Node5</title>
<g id="a_edge16_Node000007_Node000005"><a xlink:title=" ">
<path fill="none" stroke="#63b8ff" d="M355.02,-55.96C305.89,-46.21 220.5,-29.26 169.02,-19.04"/>
<polygon fill="#63b8ff" stroke="#63b8ff" points="354.44,-59.41 364.93,-57.93 355.8,-52.55 354.44,-59.41"/>
</a>
</g>
</g>
<!-- Node8 -->
<g id="Node000008" class="node">
<title>Node8</title>
<g id="a_Node000008"><a xlink:href="test__min2_8cpp.html" target="_top" xlink:title=" ">
<polygon fill="white" stroke="#666666" points="965,-19 879,-19 879,0 965,0 965,-19"/>
<text text-anchor="middle" x="922" y="-7" font-family="Helvetica,sans-Serif" font-size="10.00">test_min2.cpp</text>
</a>
</g>
</g>
<!-- Node7&#45;&gt;Node8 -->
<g id="edge11_Node000007_Node000008" class="edge">
<title>Node7&#45;&gt;Node8</title>
<g id="a_edge11_Node000007_Node000008"><a xlink:title=" ">
<path fill="none" stroke="#63b8ff" d="M431.17,-55.05C625.64,-25.54 678.48,-42.45 870,-19 872.91,-18.64 875.9,-18.24 878.91,-17.82"/>
<polygon fill="#63b8ff" stroke="#63b8ff" points="430.55,-51.6 421.2,-56.58 431.62,-58.52 430.55,-51.6"/>
</a>
</g>
</g>
<!-- Node9 -->
<g id="Node000009" class="node">
<title>Node9</title>
<g id="a_Node000009"><a xlink:href="test__min3_8cpp.html" target="_top" xlink:title=" ">
<polygon fill="white" stroke="#666666" points="1069,-19 983,-19 983,0 1069,0 1069,-19"/>
<text text-anchor="middle" x="1026" y="-7" font-family="Helvetica,sans-Serif" font-size="10.00">test_min3.cpp</text>
</a>
</g>
</g>
<!-- Node7&#45;&gt;Node9 -->
<g id="edge12_Node000007_Node000009" class="edge">
<title>Node7&#45;&gt;Node9</title>
<g id="a_edge12_Node000007_Node000009"><a xlink:title=" ">
<path fill="none" stroke="#63b8ff" d="M431.28,-55.06C671.5,-20.48 736.56,-46.2 974,-19 976.91,-18.67 979.9,-18.28 982.91,-17.87"/>
<polygon fill="#63b8ff" stroke="#63b8ff" points="430.58,-51.63 421.19,-56.53 431.59,-58.55 430.58,-51.63"/>
</a>
</g>
</g>
<!-- Node10 -->
<g id="Node000010" class="node">
<title>Node10</title>
<g id="a_Node000010"><a xlink:href="test__min4_8cpp.html" target="_top" xlink:title=" ">
<polygon fill="white" stroke="#666666" points="384,-19 298,-19 298,0 384,0 384,-19"/>
<text text-anchor="middle" x="341" y="-7" font-family="Helvetica,sans-Serif" font-size="10.00">test_min4.cpp</text>
</a>
</g>
</g>
<!-- Node7&#45;&gt;Node10 -->
<g id="edge13_Node000007_Node000010" class="edge">
<title>Node7&#45;&gt;Node10</title>
<g id="a_edge13_Node000007_Node000010"><a xlink:title=" ">
<path fill="none" stroke="#63b8ff" d="M377.32,-47.52C368.16,-38.18 356.95,-26.75 349.43,-19.09"/>
<polygon fill="#63b8ff" stroke="#63b8ff" points="374.91,-50.06 384.41,-54.75 379.91,-45.16 374.91,-50.06"/>
</a>
</g>
</g>
<!-- Node11 -->
<g id="Node000011" class="node">
<title>Node11</title>
<g id="a_Node000011"><a xlink:href="test__min5_8cpp.html" target="_top" xlink:title=" ">
<polygon fill="white" stroke="#666666" points="488,-19 402,-19 402,0 488,0 488,-19"/>
<text text-anchor="middle" x="445" y="-7" font-family="Helvetica,sans-Serif" font-size="10.00">test_min5.cpp</text>
</a>
</g>
</g>
<!-- Node7&#45;&gt;Node11 -->
<g id="edge14_Node000007_Node000011" class="edge">
<title>Node7&#45;&gt;Node11</title>
<g id="a_edge14_Node000007_Node000011"><a xlink:title=" ">
<path fill="none" stroke="#63b8ff" d="M408.68,-47.52C417.84,-38.18 429.05,-26.75 436.57,-19.09"/>
<polygon fill="#63b8ff" stroke="#63b8ff" points="406.09,-45.16 401.59,-54.75 411.09,-50.06 406.09,-45.16"/>
</a>
</g>
</g>
<!-- Node12 -->
<g id="Node000012" class="node">
<title>Node12</title>
<g id="a_Node000012"><a xlink:href="test__minimal_8cpp.html" target="_top" xlink:title=" ">
<polygon fill="white" stroke="#666666" points="607.5,-19 506.5,-19 506.5,0 607.5,0 607.5,-19"/>
<text text-anchor="middle" x="557" y="-7" font-family="Helvetica,sans-Serif" font-size="10.00">test_minimal.cpp</text>
</a>
</g>
</g>
<!-- Node7&#45;&gt;Node12 -->
<g id="edge15_Node000007_Node000012" class="edge">
<title>Node7&#45;&gt;Node12</title>
<g id="a_edge15_Node000007_Node000012"><a xlink:title=" ">
<path fill="none" stroke="#63b8ff" d="M429.21,-51.8C459.82,-41.91 502.95,-27.97 530.44,-19.08"/>
<polygon fill="#63b8ff" stroke="#63b8ff" points="427.79,-48.58 419.35,-54.98 429.94,-55.24 427.79,-48.58"/>
</a>
</g>
</g>
<!-- Node13 -->
<g id="Node000013" class="node">
<title>Node13</title>
<g id="a_Node000013"><a xlink:href="test__parser_8cpp.html" target="_top" xlink:title="Comprehensive unit tests for the Parser state machine.">
<polygon fill="white" stroke="#666666" points="716.5,-19 625.5,-19 625.5,0 716.5,0 716.5,-19"/>
<text text-anchor="middle" x="671" y="-7" font-family="Helvetica,sans-Serif" font-size="10.00">test_parser.cpp</text>
</a>
</g>
</g>
<!-- Node7&#45;&gt;Node13 -->
<g id="edge17_Node000007_Node000013" class="edge">
<title>Node7&#45;&gt;Node13</title>
<g id="a_edge17_Node000007_Node000013"><a xlink:title=" ">
<path fill="none" stroke="#63b8ff" d="M431.12,-54.84C504.42,-39.77 578.65,-26.46 625.13,-18.36"/>
<polygon fill="#63b8ff" stroke="#63b8ff" points="430.34,-51.42 421.25,-56.88 431.76,-58.28 430.34,-51.42"/>
</a>
</g>
</g>
<!-- Node14 -->
<g id="Node000014" class="node">
<title>Node14</title>
<g id="a_Node000014"><a xlink:href="test__parser__single_8cpp.html" target="_top" xlink:title=" ">
<polygon fill="white" stroke="#666666" points="861,-19 735,-19 735,0 861,0 861,-19"/>
<text text-anchor="middle" x="798" y="-7" font-family="Helvetica,sans-Serif" font-size="10.00">test_parser_single.cpp</text>
</a>
</g>
</g>
<!-- Node7&#45;&gt;Node14 -->
<g id="edge18_Node000007_Node000014" class="edge">
<title>Node7&#45;&gt;Node14</title>
<g id="a_edge18_Node000007_Node000014"><a xlink:title=" ">
<path fill="none" stroke="#63b8ff" d="M431.38,-55.12C477.96,-48.47 642.44,-28.9 734.63,-17.99"/>
<polygon fill="#63b8ff" stroke="#63b8ff" points="430.57,-51.71 421.22,-56.69 431.64,-58.62 430.57,-51.71"/>
</a>
</g>
</g>
</g>
</svg>
