<?xml version="1.0" encoding="UTF-8" standalone="no"?>
<!DOCTYPE svg PUBLIC "-//W3C//DTD SVG 1.1//EN"
 "http://www.w3.org/Graphics/SVG/1.1/DTD/svg11.dtd">
<!-- Generated by graphviz version 2.43.0 (0)
 -->
<!-- Title: graph.h Pages: 1 -->
<svg width="288pt" height="82pt"
 viewBox="0.00 0.00 288.00 82.00" xmlns="http://www.w3.org/2000/svg" xmlns:xlink="http://www.w3.org/1999/xlink">
<g id="graph0" class="graph" transform="scale(1 1) rotate(0) translate(4 78)">
<title>graph.h</title>
<!-- Node1 -->
<g id="Node000001" class="node">
<title>Node1</title>
<g id="a_Node000001"><a xlink:title="Generic flow network graph with Edmonds&#45;Karp max&#45;flow solver.">
<polygon fill="#999999" stroke="#666666" points="151.5,-74 98.5,-74 98.5,-55 151.5,-55 151.5,-74"/>
<text text-anchor="middle" x="125" y="-62" font-family="Helvetica,sans-Serif" font-size="10.00">graph.h</text>
</a>
</g>
</g>
<!-- Node2 -->
<g id="Node000002" class="node">
<title>Node2</title>
<g id="a_Node000002"><a xlink:href="main_8cpp.html" target="_top" xlink:title="Entry point for the Scientific Conference Organization Tool.">
<polygon fill="white" stroke="#666666" points="62,-19 0,-19 0,0 62,0 62,-19"/>
<text text-anchor="middle" x="31" y="-7" font-family="Helvetica,sans-Serif" font-size="10.00">main.cpp</text>
</a>
</g>
</g>
<!-- Node1&#45;&gt;Node2 -->
<g id="edge1_Node000001_Node000002" class="edge">
<title>Node1&#45;&gt;Node2</title>
<g id="a_edge1_Node000001_Node000002"><a xlink:title=" ">
<path fill="none" stroke="#63b8ff" d="M101,-49.97C83.81,-40.28 61.19,-27.52 46.38,-19.17"/>
<polygon fill="#63b8ff" stroke="#63b8ff" points="99.47,-53.12 109.9,-54.98 102.91,-47.02 99.47,-53.12"/>
</a>
</g>
</g>
<!-- Node3 -->
<g id="Node000003" class="node">
<title>Node3</title>
<g id="a_Node000003"><a xlink:href="test__graph_8cpp.html" target="_top" xlink:title="Comprehensive unit tests for Graph, NetworkBuilder, and Solver.">
<polygon fill="white" stroke="#666666" points="169.5,-19 80.5,-19 80.5,0 169.5,0 169.5,-19"/>
<text text-anchor="middle" x="125" y="-7" font-family="Helvetica,sans-Serif" font-size="10.00">test_graph.cpp</text>
</a>
</g>
</g>
<!-- Node1&#45;&gt;Node3 -->
<g id="edge2_Node000001_Node000003" class="edge">
<title>Node1&#45;&gt;Node3</title>
<g id="a_edge2_Node000001_Node000003"><a xlink:title=" ">
<path fill="none" stroke="#63b8ff" d="M125,-44.66C125,-35.93 125,-25.99 125,-19.09"/>
<polygon fill="#63b8ff" stroke="#63b8ff" points="121.5,-44.75 125,-54.75 128.5,-44.75 121.5,-44.75"/>
</a>
</g>
</g>
<!-- Node4 -->
<g id="Node000004" class="node">
<title>Node4</title>
<g id="a_Node000004"><a xlink:href="test__output_8cpp.html" target="_top" xlink:title="End&#45;to&#45;end tests for the OutputWriter + complete pipeline.">
<polygon fill="white" stroke="#666666" points="280,-19 188,-19 188,0 280,0 280,-19"/>
<text text-anchor="middle" x="234" y="-7" font-family="Helvetica,sans-Serif" font-size="10.00">test_output.cpp</text>
</a>
</g>
</g>
<!-- Node1&#45;&gt;Node4 -->
<g id="edge3_Node000001_Node000004" class="edge">
<title>Node1&#45;&gt;Node4</title>
<g id="a_edge3_Node000001_Node000004"><a xlink:title=" ">
<path fill="none" stroke="#63b8ff" d="M151.73,-50.5C171.79,-40.75 198.68,-27.68 216.17,-19.17"/>
<polygon fill="#63b8ff" stroke="#63b8ff" points="149.98,-47.46 142.51,-54.98 153.04,-53.76 149.98,-47.46"/>
</a>
</g>
</g>
</g>
</svg>
