<?xml version="1.0" encoding="UTF-8" standalone="no"?>
<!DOCTYPE svg PUBLIC "-//W3C//DTD SVG 1.1//EN"
 "http://www.w3.org/Graphics/SVG/1.1/DTD/svg11.dtd">
<!-- Generated by graphviz version 2.43.0 (0)
 -->
<!-- Title: runBatch Pages: 1 -->
<svg width="926pt" height="1009pt"
 viewBox="0.00 0.00 926.00 1009.31" xmlns="http://www.w3.org/2000/svg" xmlns:xlink="http://www.w3.org/1999/xlink">
<g id="graph0" class="graph" transform="scale(1 1) rotate(0) translate(4 1005.31)">
<title>runBatch</title>
<!-- Node1 -->
<g id="Node000001" class="node">
<title>Node1</title>
<g id="a_Node000001"><a xlink:title="Executes the program in batch mode.">
<polygon fill="#999999" stroke="#666666" points="60,-589 0,-589 0,-570 60,-570 60,-589"/>
<text text-anchor="middle" x="30" y="-577" font-family="Helvetica,sans-Serif" font-size="10.00">runBatch</text>
</a>
</g>
</g>
<!-- Node2 -->
<g id="Node000002" class="node">
<title>Node2</title>
<g id="a_Node000002"><a xlink:href="classParser.html#a5a2a7fa051b2dce0c67484fcb141d913" target="_top" xlink:title="Parses the input file and returns a fully populated ProblemData.">
<polygon fill="white" stroke="#666666" points="218,-797 138,-797 138,-778 218,-778 218,-797"/>
<text text-anchor="middle" x="178" y="-785" font-family="Helvetica,sans-Serif" font-size="10.00">Parser::parse</text>
</a>
</g>
</g>
<!-- Node1&#45;&gt;Node2 -->
<g id="edge1_Node000001_Node000002" class="edge">
<title>Node1&#45;&gt;Node2</title>
<g id="a_edge1_Node000001_Node000002"><a xlink:title=" ">
<path fill="none" stroke="#63b8ff" d="M37.85,-589.25C60.64,-621.73 134.22,-726.55 164.15,-769.2"/>
<polygon fill="#63b8ff" stroke="#63b8ff" points="161.39,-771.35 170,-777.53 167.12,-767.33 161.39,-771.35"/>
</a>
</g>
</g>
<!-- Node16 -->
<g id="Node000016" class="node">
<title>Node16</title>
<g id="a_Node000016"><a xlink:href="structConfig.html#ac9705d2a8dd4171189897096e6056719" target="_top" xlink:title="Whether risk analysis should be performed.">
<polygon fill="white" stroke="#666666" points="453,-632 307,-632 307,-613 453,-613 453,-632"/>
<text text-anchor="middle" x="380" y="-620" font-family="Helvetica,sans-Serif" font-size="10.00">Config::shouldAnalyzeRisk</text>
</a>
</g>
</g>
<!-- Node1&#45;&gt;Node16 -->
<g id="edge26_Node000001_Node000016" class="edge">
<title>Node1&#45;&gt;Node16</title>
<g id="a_edge26_Node000001_Node000016"><a xlink:title=" ">
<path fill="none" stroke="#63b8ff" d="M59.18,-589.07C70.5,-592.56 83.75,-596.21 96,-598.5 162.99,-611 240.13,-617 296.93,-619.87"/>
<polygon fill="#63b8ff" stroke="#63b8ff" points="296.78,-623.37 306.94,-620.36 297.12,-616.38 296.78,-623.37"/>
</a>
</g>
</g>
<!-- Node17 -->
<g id="Node000017" class="node">
<title>Node17</title>
<g id="a_Node000017"><a xlink:href="classSolver.html#a845e12dc97a5d14a365b1e3001aba114" target="_top" xlink:title="Solves the assignment problem for the given data.">
<polygon fill="white" stroke="#666666" points="218,-413 138,-413 138,-394 218,-394 218,-413"/>
<text text-anchor="middle" x="178" y="-401" font-family="Helvetica,sans-Serif" font-size="10.00">Solver::solve</text>
</a>
</g>
</g>
<!-- Node1&#45;&gt;Node17 -->
<g id="edge27_Node000001_Node000017" class="edge">
<title>Node1&#45;&gt;Node17</title>
<g id="a_edge27_Node000001_Node000017"><a xlink:title=" ">
<path fill="none" stroke="#63b8ff" d="M39.06,-569.79C62.63,-541.37 131.73,-458.07 162.24,-421.29"/>
<polygon fill="#63b8ff" stroke="#63b8ff" points="165.1,-423.33 168.79,-413.4 159.71,-418.86 165.1,-423.33"/>
</a>
</g>
</g>
<!-- Node36 -->
<g id="Node000036" class="node">
<title>Node36</title>
<g id="a_Node000036"><a xlink:href="classSolver.html#ae2ca491c309b717821844e7f2a9ea629" target="_top" xlink:title="Performs Risk Analysis with parameter K = 1.">
<polygon fill="white" stroke="#666666" points="260,-337 96,-337 96,-318 260,-318 260,-337"/>
<text text-anchor="middle" x="178" y="-325" font-family="Helvetica,sans-Serif" font-size="10.00">Solver::solveWithRiskAnalysis</text>
</a>
</g>
</g>
<!-- Node1&#45;&gt;Node36 -->
<g id="edge52_Node000001_Node000036" class="edge">
<title>Node1&#45;&gt;Node36</title>
<g id="a_edge52_Node000001_Node000036"><a xlink:title=" ">
<path fill="none" stroke="#63b8ff" d="M32.13,-569.64C36.04,-539.36 51.25,-446.07 96,-385.5 109.62,-367.07 130.83,-352.19 148.13,-342.11"/>
<polygon fill="#63b8ff" stroke="#63b8ff" points="150.24,-344.94 157.27,-337.01 146.83,-338.83 150.24,-344.94"/>
</a>
</g>
</g>
<!-- Node38 -->
<g id="Node000038" class="node">
<title>Node38</title>
<g id="a_Node000038"><a xlink:href="classOutputWriter.html#a293621b584934c41795c2ada849f90eb" target="_top" xlink:title="Writes the complete assignment output to a file.">
<polygon fill="white" stroke="#666666" points="247,-589 109,-589 109,-570 247,-570 247,-589"/>
<text text-anchor="middle" x="178" y="-577" font-family="Helvetica,sans-Serif" font-size="10.00">OutputWriter::writeToFile</text>
</a>
</g>
</g>
<!-- Node1&#45;&gt;Node38 -->
<g id="edge61_Node000001_Node000038" class="edge">
<title>Node1&#45;&gt;Node38</title>
<g id="a_edge61_Node000001_Node000038"><a xlink:title=" ">
<path fill="none" stroke="#63b8ff" d="M60.19,-579.5C71.51,-579.5 85.06,-579.5 98.85,-579.5"/>
<polygon fill="#63b8ff" stroke="#63b8ff" points="98.91,-583 108.91,-579.5 98.91,-576 98.91,-583"/>
</a>
</g>
</g>
<!-- Node3 -->
<g id="Node000003" class="node">
<title>Node3</title>
<g id="a_Node000003"><a xlink:href="classParser.html#abe415229c2daa3f3ba4efd44661bd703" target="_top" xlink:title="Parses a control line: &quot;KeyName, value&quot;.">
<polygon fill="white" stroke="#666666" points="447.5,-887 312.5,-887 312.5,-868 447.5,-868 447.5,-887"/>
<text text-anchor="middle" x="380" y="-875" font-family="Helvetica,sans-Serif" font-size="10.00">Parser::parseControlLine</text>
</a>
</g>
</g>
<!-- Node2&#45;&gt;Node3 -->
<g id="edge2_Node000002_Node000003" class="edge">
<title>Node2&#45;&gt;Node3</title>
<g id="a_edge2_Node000002_Node000003"><a xlink:title=" ">
<path fill="none" stroke="#63b8ff" d="M197.44,-797.02C220.33,-808.7 260.66,-828.89 296,-844.5 311.59,-851.39 329.1,-858.44 344,-864.25"/>
<polygon fill="#63b8ff" stroke="#63b8ff" points="342.78,-867.54 353.37,-867.88 345.3,-861.01 342.78,-867.54"/>
</a>
</g>
</g>
<!-- Node6 -->
<g id="Node000006" class="node">
<title>Node6</title>
<g id="a_Node000006"><a xlink:href="classParser.html#a113f0dfba3013e3dade8b717063ad8a0" target="_top" xlink:title="Trims leading and trailing whitespace from a string.">
<polygon fill="white" stroke="#666666" points="865.5,-981 792.5,-981 792.5,-962 865.5,-962 865.5,-981"/>
<text text-anchor="middle" x="829" y="-969" font-family="Helvetica,sans-Serif" font-size="10.00">Parser::trim</text>
</a>
</g>
</g>
<!-- Node2&#45;&gt;Node6 -->
<g id="edge25_Node000002_Node000006" class="edge">
<title>Node2&#45;&gt;Node6</title>
<g id="a_edge25_Node000002_Node000006"><a xlink:title=" ">
<path fill="none" stroke="#63b8ff" d="M187.27,-797.03C205.33,-817.42 250.35,-865.88 296,-896.5 378.9,-952.12 402.49,-969.11 500,-990.5 598.69,-1012.14 717.85,-994.74 781.9,-981.96"/>
<polygon fill="#63b8ff" stroke="#63b8ff" points="782.97,-985.31 792.07,-979.88 781.57,-978.45 782.97,-985.31"/>
</a>
</g>
</g>
<!-- Node8 -->
<g id="Node000008" class="node">
<title>Node8</title>
<g id="a_Node000008"><a xlink:href="classParser.html#a381845570bc3e8444268d1f0165e5c18" target="_top" xlink:title="Converts a string to lowercase (for case&#45;insensitive comparison).">
<polygon fill="white" stroke="#666666" points="648,-868 556,-868 556,-849 648,-849 648,-868"/>
<text text-anchor="middle" x="602" y="-856" font-family="Helvetica,sans-Serif" font-size="10.00">Parser::toLower</text>
</a>
</g>
</g>
<!-- Node2&#45;&gt;Node8 -->
<g id="edge24_Node000002_Node000008" class="edge">
<title>Node2&#45;&gt;Node8</title>
<g id="a_edge24_Node000002_Node000008"><a xlink:title=" ">
<path fill="none" stroke="#63b8ff" d="M218.32,-794.12C293.9,-806.83 459.6,-834.71 546.05,-849.26"/>
<polygon fill="#63b8ff" stroke="#63b8ff" points="545.5,-852.71 555.94,-850.92 546.66,-845.81 545.5,-852.71"/>
</a>
</g>
</g>
<!-- Node10 -->
<g id="Node000010" class="node">
<title>Node10</title>
<g id="a_Node000010"><a xlink:href="classParser.html#a49fdbc3e3b2c220e042d77ea0568bdba" target="_top" xlink:title="Parses a parameter line: &quot;KeyName, value&quot;.">
<polygon fill="white" stroke="#666666" points="455,-797 305,-797 305,-778 455,-778 455,-797"/>
<text text-anchor="middle" x="380" y="-785" font-family="Helvetica,sans-Serif" font-size="10.00">Parser::parseParameterLine</text>
</a>
</g>
</g>
<!-- Node2&#45;&gt;Node10 -->
<g id="edge10_Node000002_Node000010" class="edge">
<title>Node2&#45;&gt;Node10</title>
<g id="a_edge10_Node000002_Node000010"><a xlink:title=" ">
<path fill="none" stroke="#63b8ff" d="M218.04,-787.5C239.91,-787.5 268.08,-787.5 294.72,-787.5"/>
<polygon fill="#63b8ff" stroke="#63b8ff" points="294.84,-791 304.84,-787.5 294.84,-784 294.84,-791"/>
</a>
</g>
</g>
<!-- Node12 -->
<g id="Node000012" class="node">
<title>Node12</title>
<g id="a_Node000012"><a xlink:href="classParser.html#a8b52e53cfc75a57e18f03d925823fe2a" target="_top" xlink:title="Parses a single reviewer line.">
<polygon fill="white" stroke="#666666" points="453,-703 307,-703 307,-684 453,-684 453,-703"/>
<text text-anchor="middle" x="380" y="-691" font-family="Helvetica,sans-Serif" font-size="10.00">Parser::parseReviewerLine</text>
</a>
</g>
</g>
<!-- Node2&#45;&gt;Node12 -->
<g id="edge16_Node000002_Node000012" class="edge">
<title>Node2&#45;&gt;Node12</title>
<g id="a_edge16_Node000002_Node000012"><a xlink:title=" ">
<path fill="none" stroke="#63b8ff" d="M193.22,-777.83C214.71,-763.54 257.09,-736.65 296,-719.5 307.55,-714.41 320.41,-709.87 332.49,-706.07"/>
<polygon fill="#63b8ff" stroke="#63b8ff" points="333.86,-709.31 342.41,-703.05 331.82,-702.61 333.86,-709.31"/>
</a>
</g>
</g>
<!-- Node14 -->
<g id="Node000014" class="node">
<title>Node14</title>
<g id="a_Node000014"><a xlink:href="classParser.html#ab15bc67b738ede92f26a5ead4c294bd3" target="_top" xlink:title="Parses a single submission line.">
<polygon fill="white" stroke="#666666" points="458,-747 302,-747 302,-728 458,-728 458,-747"/>
<text text-anchor="middle" x="380" y="-735" font-family="Helvetica,sans-Serif" font-size="10.00">Parser::parseSubmissionLine</text>
</a>
</g>
</g>
<!-- Node2&#45;&gt;Node14 -->
<g id="edge20_Node000002_Node000014" class="edge">
<title>Node2&#45;&gt;Node14</title>
<g id="a_edge20_Node000002_Node000014"><a xlink:title=" ">
<path fill="none" stroke="#63b8ff" d="M217.09,-777.98C249.38,-769.91 295.86,-758.29 330.75,-749.56"/>
<polygon fill="#63b8ff" stroke="#63b8ff" points="331.86,-752.89 340.71,-747.07 330.16,-746.1 331.86,-752.89"/>
</a>
</g>
</g>
<!-- Node4 -->
<g id="Node000004" class="node">
<title>Node4</title>
<g id="a_Node000004"><a xlink:href="classParser.html#a54de14fb280b60a07adfbf68c508b767" target="_top" xlink:title="Parses a trimmed token as an integer with error context.">
<polygon fill="white" stroke="#666666" points="887,-755 771,-755 771,-736 887,-736 887,-755"/>
<text text-anchor="middle" x="829" y="-743" font-family="Helvetica,sans-Serif" font-size="10.00">Parser::parseIntField</text>
</a>
</g>
</g>
<!-- Node3&#45;&gt;Node4 -->
<g id="edge3_Node000003_Node000004" class="edge">
<title>Node3&#45;&gt;Node4</title>
<g id="a_edge3_Node000003_Node000004"><a xlink:title=" ">
<path fill="none" stroke="#63b8ff" d="M419.78,-887.01C482.51,-900.35 608.79,-918.69 704,-877.5 757.9,-854.18 799.16,-794.62 817.53,-764.12"/>
<polygon fill="#63b8ff" stroke="#63b8ff" points="820.65,-765.72 822.68,-755.32 814.61,-762.18 820.65,-765.72"/>
</a>
</g>
</g>
<!-- Node5 -->
<g id="Node000005" class="node">
<title>Node5</title>
<g id="a_Node000005"><a xlink:href="classParser.html#aacf502fa084a101374bda3681e0d23bb" target="_top" xlink:title="Splits a CSV line by commas, respecting double&#45;quoted fields.">
<polygon fill="white" stroke="#666666" points="648.5,-792 555.5,-792 555.5,-773 648.5,-773 648.5,-792"/>
<text text-anchor="middle" x="602" y="-780" font-family="Helvetica,sans-Serif" font-size="10.00">Parser::splitCSV</text>
</a>
</g>
</g>
<!-- Node3&#45;&gt;Node5 -->
<g id="edge4_Node000003_Node000005" class="edge">
<title>Node3&#45;&gt;Node5</title>
<g id="a_edge4_Node000003_Node000005"><a xlink:title=" ">
<path fill="none" stroke="#63b8ff" d="M403.31,-867.87C442.69,-850.86 524.64,-815.47 569.68,-796.03"/>
<polygon fill="#63b8ff" stroke="#63b8ff" points="571.17,-799.19 578.96,-792.02 568.39,-792.77 571.17,-799.19"/>
</a>
</g>
</g>
<!-- Node7 -->
<g id="Node000007" class="node">
<title>Node7</title>
<g id="a_Node000007"><a xlink:href="classParser.html#a52df5c3f8fc72a8a486ae35a61d764d1" target="_top" xlink:title="Removes surrounding double quotes from a string value.">
<polygon fill="white" stroke="#666666" points="656.5,-981 547.5,-981 547.5,-962 656.5,-962 656.5,-981"/>
<text text-anchor="middle" x="602" y="-969" font-family="Helvetica,sans-Serif" font-size="10.00">Parser::stripQuotes</text>
</a>
</g>
</g>
<!-- Node3&#45;&gt;Node7 -->
<g id="edge6_Node000003_Node000007" class="edge">
<title>Node3&#45;&gt;Node7</title>
<g id="a_edge6_Node000003_Node000007"><a xlink:title=" ">
<path fill="none" stroke="#63b8ff" d="M392.64,-887.19C413.02,-903.61 457.07,-936.73 500,-953.5 511.72,-958.08 524.65,-961.5 537.25,-964.05"/>
<polygon fill="#63b8ff" stroke="#63b8ff" points="536.77,-967.52 547.25,-965.92 538.06,-960.64 536.77,-967.52"/>
</a>
</g>
</g>
<!-- Node3&#45;&gt;Node8 -->
<g id="edge8_Node000003_Node000008" class="edge">
<title>Node3&#45;&gt;Node8</title>
<g id="a_edge8_Node000003_Node000008"><a xlink:title=" ">
<path fill="none" stroke="#63b8ff" d="M447.6,-871.75C478.94,-869.04 515.87,-865.85 545.65,-863.28"/>
<polygon fill="#63b8ff" stroke="#63b8ff" points="546.2,-866.75 555.86,-862.4 545.59,-859.77 546.2,-866.75"/>
</a>
</g>
</g>
<!-- Node9 -->
<g id="Node000009" class="node">
<title>Node9</title>
<g id="a_Node000009"><a xlink:href="domain_8h.html#a0e806904288551ac6c43e2d413164657" target="_top" xlink:title="Converts an integer from the input file to a MatchMode.">
<polygon fill="white" stroke="#666666" points="643.5,-944 560.5,-944 560.5,-925 643.5,-925 643.5,-944"/>
<text text-anchor="middle" x="602" y="-932" font-family="Helvetica,sans-Serif" font-size="10.00">toMatchMode</text>
</a>
</g>
</g>
<!-- Node3&#45;&gt;Node9 -->
<g id="edge9_Node000003_Node000009" class="edge">
<title>Node3&#45;&gt;Node9</title>
<g id="a_edge9_Node000003_Node000009"><a xlink:title=" ">
<path fill="none" stroke="#63b8ff" d="M414,-887.01C437.83,-893.79 470.83,-902.99 500,-910.5 516.33,-914.7 534.22,-919.04 550.34,-922.85"/>
<polygon fill="#63b8ff" stroke="#63b8ff" points="549.59,-926.27 560.13,-925.15 551.19,-919.46 549.59,-926.27"/>
</a>
</g>
</g>
<!-- Node5&#45;&gt;Node6 -->
<g id="edge5_Node000005_Node000006" class="edge">
<title>Node5&#45;&gt;Node6</title>
<g id="a_edge5_Node000005_Node000006"><a xlink:title=" ">
<path fill="none" stroke="#63b8ff" d="M623.44,-792.02C644.66,-802.39 678.26,-820.23 704,-840.5 748.65,-875.66 792.31,-926.81 813.95,-953.6"/>
<polygon fill="#63b8ff" stroke="#63b8ff" points="811.44,-956.06 820.41,-961.7 816.91,-951.7 811.44,-956.06"/>
</a>
</g>
</g>
<!-- Node7&#45;&gt;Node6 -->
<g id="edge7_Node000007_Node000006" class="edge">
<title>Node7&#45;&gt;Node6</title>
<g id="a_edge7_Node000007_Node000006"><a xlink:title=" ">
<path fill="none" stroke="#63b8ff" d="M656.61,-971.5C694.82,-971.5 745.66,-971.5 782.02,-971.5"/>
<polygon fill="#63b8ff" stroke="#63b8ff" points="782.34,-975 792.34,-971.5 782.34,-968 782.34,-975"/>
</a>
</g>
</g>
<!-- Node10&#45;&gt;Node4 -->
<g id="edge13_Node000010_Node000004" class="edge">
<title>Node10&#45;&gt;Node4</title>
<g id="a_edge13_Node000010_Node000004"><a xlink:title=" ">
<path fill="none" stroke="#63b8ff" d="M428.71,-797.03C492.3,-808.04 607.98,-822.18 704,-801.5 740.69,-793.6 779.61,-773.93 803.85,-760.15"/>
<polygon fill="#63b8ff" stroke="#63b8ff" points="805.81,-763.06 812.69,-755.01 802.29,-757.01 805.81,-763.06"/>
</a>
</g>
</g>
<!-- Node10&#45;&gt;Node5 -->
<g id="edge14_Node000010_Node000005" class="edge">
<title>Node10&#45;&gt;Node5</title>
<g id="a_edge14_Node000010_Node000005"><a xlink:title=" ">
<path fill="none" stroke="#63b8ff" d="M455.18,-785.81C484.6,-785.15 517.86,-784.39 545.18,-783.77"/>
<polygon fill="#63b8ff" stroke="#63b8ff" points="545.42,-787.26 555.34,-783.54 545.26,-780.27 545.42,-787.26"/>
</a>
</g>
</g>
<!-- Node10&#45;&gt;Node8 -->
<g id="edge15_Node000010_Node000008" class="edge">
<title>Node10&#45;&gt;Node8</title>
<g id="a_edge15_Node000010_Node000008"><a xlink:title=" ">
<path fill="none" stroke="#63b8ff" d="M411.32,-797.06C427.19,-802.32 446.85,-809.25 464,-816.5 480.48,-823.46 483.19,-828.39 500,-834.5 514.66,-839.83 530.95,-844.29 546.09,-847.87"/>
<polygon fill="#63b8ff" stroke="#63b8ff" points="545.32,-851.29 555.85,-850.1 546.88,-844.46 545.32,-851.29"/>
</a>
</g>
</g>
<!-- Node11 -->
<g id="Node000011" class="node">
<title>Node11</title>
<g id="a_Node000011"><a xlink:href="classParser.html#ac9cbf2eac7c906d2da2d95b9c16cc02e" target="_top" xlink:title="Parses a trimmed token as a boolean (0 or 1).">
<polygon fill="white" stroke="#666666" points="664.5,-755 539.5,-755 539.5,-736 664.5,-736 664.5,-755"/>
<text text-anchor="middle" x="602" y="-743" font-family="Helvetica,sans-Serif" font-size="10.00">Parser::parseBoolField</text>
</a>
</g>
</g>
<!-- Node10&#45;&gt;Node11 -->
<g id="edge11_Node000010_Node000011" class="edge">
<title>Node10&#45;&gt;Node11</title>
<g id="a_edge11_Node000010_Node000011"><a xlink:title=" ">
<path fill="none" stroke="#63b8ff" d="M429.91,-777.99C451.41,-773.82 476.95,-768.89 500,-764.5 512.99,-762.02 526.92,-759.39 540.16,-756.89"/>
<polygon fill="#63b8ff" stroke="#63b8ff" points="540.95,-760.31 550.13,-755.02 539.65,-753.43 540.95,-760.31"/>
</a>
</g>
</g>
<!-- Node11&#45;&gt;Node4 -->
<g id="edge12_Node000011_Node000004" class="edge">
<title>Node11&#45;&gt;Node4</title>
<g id="a_edge12_Node000011_Node000004"><a xlink:title=" ">
<path fill="none" stroke="#63b8ff" d="M664.78,-745.5C694.58,-745.5 730.4,-745.5 760.87,-745.5"/>
<polygon fill="#63b8ff" stroke="#63b8ff" points="760.99,-749 770.99,-745.5 760.99,-742 760.99,-749"/>
</a>
</g>
</g>
<!-- Node12&#45;&gt;Node4 -->
<g id="edge18_Node000012_Node000004" class="edge">
<title>Node12&#45;&gt;Node4</title>
<g id="a_edge18_Node000012_Node000004"><a xlink:title=" ">
<path fill="none" stroke="#63b8ff" d="M397.17,-683.92C414.08,-673.77 441.29,-657.09 464,-641.5 480.49,-630.18 481.03,-620.82 500,-614.5 586.01,-585.83 620.72,-578.66 704,-614.5 757.73,-637.62 799.07,-696.74 817.49,-727.02"/>
<polygon fill="#63b8ff" stroke="#63b8ff" points="814.55,-728.93 822.65,-735.76 820.58,-725.37 814.55,-728.93"/>
</a>
</g>
</g>
<!-- Node12&#45;&gt;Node5 -->
<g id="edge19_Node000012_Node000005" class="edge">
<title>Node12&#45;&gt;Node5</title>
<g id="a_edge19_Node000012_Node000005"><a xlink:title=" ">
<path fill="none" stroke="#63b8ff" d="M428.44,-703.11C440.7,-706.95 453.41,-712.25 464,-719.5 485.14,-733.96 477.98,-751.42 500,-764.5 513.56,-772.56 529.84,-777.2 545.32,-779.82"/>
<polygon fill="#63b8ff" stroke="#63b8ff" points="544.94,-783.3 555.34,-781.26 545.94,-776.37 544.94,-783.3"/>
</a>
</g>
</g>
<!-- Node13 -->
<g id="Node000013" class="node">
<title>Node13</title>
<g id="a_Node000013"><a xlink:href="structProblemData.html#a9f9c5ab24ac824b060f3cdb7bbd764bf" target="_top" xlink:title="Adds a reviewer with duplicate&#45;ID detection.">
<polygon fill="white" stroke="#666666" points="677,-642 527,-642 527,-623 677,-623 677,-642"/>
<text text-anchor="middle" x="602" y="-630" font-family="Helvetica,sans-Serif" font-size="10.00">ProblemData::addReviewer</text>
</a>
</g>
</g>
<!-- Node12&#45;&gt;Node13 -->
<g id="edge17_Node000012_Node000013" class="edge">
<title>Node12&#45;&gt;Node13</title>
<g id="a_edge17_Node000012_Node000013"><a xlink:title=" ">
<path fill="none" stroke="#63b8ff" d="M404.82,-683.87C428.6,-674.56 466.36,-660.54 500,-651.5 510.29,-648.73 521.28,-646.22 532.07,-644"/>
<polygon fill="#63b8ff" stroke="#63b8ff" points="532.78,-647.43 541.91,-642.04 531.42,-640.56 532.78,-647.43"/>
</a>
</g>
</g>
<!-- Node14&#45;&gt;Node4 -->
<g id="edge22_Node000014_Node000004" class="edge">
<title>Node14&#45;&gt;Node4</title>
<g id="a_edge22_Node000014_Node000004"><a xlink:title=" ">
<path fill="none" stroke="#63b8ff" d="M458.08,-730.07C472.02,-729 486.43,-728.07 500,-727.5 590.59,-723.7 613.57,-720.97 704,-727.5 723.68,-728.92 744.97,-731.59 764.28,-734.45"/>
<polygon fill="#63b8ff" stroke="#63b8ff" points="763.75,-737.91 774.17,-735.96 764.81,-730.99 763.75,-737.91"/>
</a>
</g>
</g>
<!-- Node14&#45;&gt;Node5 -->
<g id="edge23_Node000014_Node000005" class="edge">
<title>Node14&#45;&gt;Node5</title>
<g id="a_edge23_Node000014_Node000005"><a xlink:title=" ">
<path fill="none" stroke="#63b8ff" d="M420.84,-747.03C443.9,-752.42 473.53,-759.14 500,-764.5 514.68,-767.47 530.61,-770.43 545.39,-773.07"/>
<polygon fill="#63b8ff" stroke="#63b8ff" points="544.96,-776.55 555.41,-774.84 546.17,-769.65 544.96,-776.55"/>
</a>
</g>
</g>
<!-- Node15 -->
<g id="Node000015" class="node">
<title>Node15</title>
<g id="a_Node000015"><a xlink:href="structProblemData.html#a849ef6ded60771bec2a5e1b6faf0545c" target="_top" xlink:title="Adds a submission with duplicate&#45;ID detection.">
<polygon fill="white" stroke="#666666" points="682.5,-679 521.5,-679 521.5,-660 682.5,-660 682.5,-679"/>
<text text-anchor="middle" x="602" y="-667" font-family="Helvetica,sans-Serif" font-size="10.00">ProblemData::addSubmission</text>
</a>
</g>
</g>
<!-- Node14&#45;&gt;Node15 -->
<g id="edge21_Node000014_Node000015" class="edge">
<title>Node14&#45;&gt;Node15</title>
<g id="a_edge21_Node000014_Node000015"><a xlink:title=" ">
<path fill="none" stroke="#63b8ff" d="M418.31,-727.92C432.79,-723.78 449.38,-718.49 464,-712.5 480.74,-705.64 483.06,-699.86 500,-693.5 512.64,-688.75 526.53,-684.73 539.85,-681.41"/>
<polygon fill="#63b8ff" stroke="#63b8ff" points="540.99,-684.74 549.9,-679.01 539.36,-677.93 540.99,-684.74"/>
</a>
</g>
</g>
<!-- Node18 -->
<g id="Node000018" class="node">
<title>Node18</title>
<g id="a_Node000018"><a xlink:href="classNetworkBuilder.html#af514e79c3d2f21597c54e01c4ce9475d" target="_top" xlink:title="Builds the complete flow network.">
<polygon fill="white" stroke="#666666" points="462,-281 298,-281 298,-262 462,-262 462,-281"/>
<text text-anchor="middle" x="380" y="-269" font-family="Helvetica,sans-Serif" font-size="10.00">NetworkBuilder::buildNetwork</text>
</a>
</g>
</g>
<!-- Node17&#45;&gt;Node18 -->
<g id="edge28_Node000017_Node000018" class="edge">
<title>Node17&#45;&gt;Node18</title>
<g id="a_edge28_Node000017_Node000018"><a xlink:title=" ">
<path fill="none" stroke="#63b8ff" d="M196.63,-393.87C214.14,-383.72 241.04,-366.43 260,-346.5 280.65,-324.79 271.45,-306.68 296,-289.5 298.11,-288.02 300.33,-286.66 302.62,-285.41"/>
<polygon fill="#63b8ff" stroke="#63b8ff" points="304.21,-288.52 311.77,-281.1 301.23,-282.19 304.21,-288.52"/>
</a>
</g>
</g>
<!-- Node23 -->
<g id="Node000023" class="node">
<title>Node23</title>
<g id="a_Node000023"><a xlink:href="structProblemData.html#a8972080e7733220bd51b437e111bf5c9" target="_top" xlink:title="Number of reviewers.">
<polygon fill="white" stroke="#666666" points="681.5,-394 522.5,-394 522.5,-375 681.5,-375 681.5,-394"/>
<text text-anchor="middle" x="602" y="-382" font-family="Helvetica,sans-Serif" font-size="10.00">ProblemData::numReviewers</text>
</a>
</g>
</g>
<!-- Node17&#45;&gt;Node23 -->
<g id="edge50_Node000017_Node000023" class="edge">
<title>Node17&#45;&gt;Node23</title>
<g id="a_edge50_Node000017_Node000023"><a xlink:title=" ">
<path fill="none" stroke="#63b8ff" d="M218.32,-401.73C284.98,-398.73 421.75,-392.57 512.42,-388.49"/>
<polygon fill="#63b8ff" stroke="#63b8ff" points="512.58,-391.98 522.41,-388.04 512.26,-384.99 512.58,-391.98"/>
</a>
</g>
</g>
<!-- Node24 -->
<g id="Node000024" class="node">
<title>Node24</title>
<g id="a_Node000024"><a xlink:href="structProblemData.html#af8f49cc7cddaa7219f2a6f3bc9853474" target="_top" xlink:title="Number of submissions.">
<polygon fill="white" stroke="#666666" points="687,-507 517,-507 517,-488 687,-488 687,-507"/>
<text text-anchor="middle" x="602" y="-495" font-family="Helvetica,sans-Serif" font-size="10.00">ProblemData::numSubmissions</text>
</a>
</g>
</g>
<!-- Node17&#45;&gt;Node24 -->
<g id="edge51_Node000017_Node000024" class="edge">
<title>Node17&#45;&gt;Node24</title>
<g id="a_edge51_Node000017_Node000024"><a xlink:title=" ">
<path fill="none" stroke="#63b8ff" d="M190.7,-413.24C210.76,-429.3 253.69,-460.93 296,-474.5 364.26,-496.39 445.33,-501.59 506.73,-501.62"/>
<polygon fill="#63b8ff" stroke="#63b8ff" points="506.81,-505.11 516.79,-501.57 506.78,-498.12 506.81,-505.11"/>
</a>
</g>
</g>
<!-- Node29 -->
<g id="Node000029" class="node">
<title>Node29</title>
<g id="a_Node000029"><a xlink:href="classGraph.html#afd2749a1cd58db2d3b6fa6eef639399c" target="_top" xlink:title="Computes the maximum flow from source to sink using Edmonds&#45;Karp.">
<polygon fill="white" stroke="#666666" points="439.5,-432 320.5,-432 320.5,-413 439.5,-413 439.5,-432"/>
<text text-anchor="middle" x="380" y="-420" font-family="Helvetica,sans-Serif" font-size="10.00">Graph::edmondsKarp</text>
</a>
</g>
</g>
<!-- Node17&#45;&gt;Node29 -->
<g id="edge39_Node000017_Node000029" class="edge">
<title>Node17&#45;&gt;Node29</title>
<g id="a_edge39_Node000017_Node000029"><a xlink:title=" ">
<path fill="none" stroke="#63b8ff" d="M218.04,-407.21C244.18,-409.69 279.32,-413.03 310.09,-415.95"/>
<polygon fill="#63b8ff" stroke="#63b8ff" points="310.06,-419.47 320.34,-416.93 310.72,-412.5 310.06,-419.47"/>
</a>
</g>
</g>
<!-- Node32 -->
<g id="Node000032" class="node">
<title>Node32</title>
<g id="a_Node000032"><a xlink:href="classSolver.html#ab064c56e0bda025818ce6f8461dd4e80" target="_top" xlink:title="Extracts the assignment from the solved flow network.">
<polygon fill="white" stroke="#666666" points="439.5,-112 320.5,-112 320.5,-93 439.5,-93 439.5,-112"/>
<text text-anchor="middle" x="380" y="-100" font-family="Helvetica,sans-Serif" font-size="10.00">Solver::extractResult</text>
</a>
</g>
</g>
<!-- Node17&#45;&gt;Node32 -->
<g id="edge43_Node000017_Node000032" class="edge">
<title>Node17&#45;&gt;Node32</title>
<g id="a_edge43_Node000017_Node000032"><a xlink:title=" ">
<path fill="none" stroke="#63b8ff" d="M198.88,-393.89C217.05,-384.2 243.52,-367.66 260,-346.5 287.49,-311.2 277.12,-293.06 296,-252.5 318.8,-203.5 351.02,-148.54 367.82,-120.73"/>
<polygon fill="#63b8ff" stroke="#63b8ff" points="370.87,-122.45 373.08,-112.08 364.89,-118.81 370.87,-122.45"/>
</a>
</g>
</g>
<!-- Node19 -->
<g id="Node000019" class="node">
<title>Node19</title>
<g id="a_Node000019"><a xlink:href="classGraph.html#a8cdfb932968807565b3cc3b52759e3b8" target="_top" xlink:title="Adds a directed edge (u → v) with the given capacity, along with its reverse edge (v → u) with capaci...">
<polygon fill="white" stroke="#666666" points="649,-318 555,-318 555,-299 649,-299 649,-318"/>
<text text-anchor="middle" x="602" y="-306" font-family="Helvetica,sans-Serif" font-size="10.00">Graph::addEdge</text>
</a>
</g>
</g>
<!-- Node18&#45;&gt;Node19 -->
<g id="edge29_Node000018_Node000019" class="edge">
<title>Node18&#45;&gt;Node19</title>
<g id="a_edge29_Node000018_Node000019"><a xlink:title=" ">
<path fill="none" stroke="#63b8ff" d="M437.66,-281.03C470.65,-286.58 512.1,-293.55 544.99,-299.08"/>
<polygon fill="#63b8ff" stroke="#63b8ff" points="544.46,-302.54 554.9,-300.75 545.62,-295.64 544.46,-302.54"/>
</a>
</g>
</g>
<!-- Node21 -->
<g id="Node000021" class="node">
<title>Node21</title>
<g id="a_Node000021"><a xlink:href="classNetworkBuilder.html#acc9979fa0114fda405375f52dbe49a84" target="_top" xlink:title="Determines if a reviewer can review a submission based on domain matching.">
<polygon fill="white" stroke="#666666" points="683.5,-281 520.5,-281 520.5,-262 683.5,-262 683.5,-281"/>
<text text-anchor="middle" x="602" y="-269" font-family="Helvetica,sans-Serif" font-size="10.00">NetworkBuilder::isCompatible</text>
</a>
</g>
</g>
<!-- Node18&#45;&gt;Node21 -->
<g id="edge31_Node000018_Node000021" class="edge">
<title>Node18&#45;&gt;Node21</title>
<g id="a_edge31_Node000018_Node000021"><a xlink:title=" ">
<path fill="none" stroke="#63b8ff" d="M462.29,-271.5C477.86,-271.5 494.25,-271.5 510.09,-271.5"/>
<polygon fill="#63b8ff" stroke="#63b8ff" points="510.41,-275 520.41,-271.5 510.41,-268 510.41,-275"/>
</a>
</g>
</g>
<!-- Node18&#45;&gt;Node23 -->
<g id="edge33_Node000018_Node000023" class="edge">
<title>Node18&#45;&gt;Node23</title>
<g id="a_edge33_Node000018_Node000023"><a xlink:title=" ">
<path fill="none" stroke="#63b8ff" d="M444.56,-281.1C451.34,-283.34 457.96,-286.1 464,-289.5 484.27,-300.92 481.67,-313.18 500,-327.5 522.02,-344.7 549.84,-360 570.7,-370.4"/>
<polygon fill="#63b8ff" stroke="#63b8ff" points="569.23,-373.58 579.75,-374.83 572.31,-367.29 569.23,-373.58"/>
</a>
</g>
</g>
<!-- Node18&#45;&gt;Node24 -->
<g id="edge34_Node000018_Node000024" class="edge">
<title>Node18&#45;&gt;Node24</title>
<g id="a_edge34_Node000018_Node000024"><a xlink:title=" ">
<path fill="none" stroke="#63b8ff" d="M453.25,-281.18C457.18,-283.48 460.81,-286.23 464,-289.5 523.97,-351.07 438.9,-419.06 500,-479.5 502.55,-482.02 505.32,-484.25 508.26,-486.23"/>
<polygon fill="#63b8ff" stroke="#63b8ff" points="506.54,-489.28 516.96,-491.16 509.98,-483.19 506.54,-489.28"/>
</a>
</g>
</g>
<!-- Node25 -->
<g id="Node000025" class="node">
<title>Node25</title>
<g id="a_Node000025"><a xlink:href="classNetworkBuilder.html#a0b1fedb0791107aa56d1022f3964269f" target="_top" xlink:title="Maps a reviewer&#39;s vector index to its graph node ID.">
<polygon fill="white" stroke="#666666" points="685.5,-130 518.5,-130 518.5,-111 685.5,-111 685.5,-130"/>
<text text-anchor="middle" x="602" y="-118" font-family="Helvetica,sans-Serif" font-size="10.00">NetworkBuilder::reviewerNode</text>
</a>
</g>
</g>
<!-- Node18&#45;&gt;Node25 -->
<g id="edge35_Node000018_Node000025" class="edge">
<title>Node18&#45;&gt;Node25</title>
<g id="a_edge35_Node000018_Node000025"><a xlink:title=" ">
<path fill="none" stroke="#63b8ff" d="M398.31,-261.89C416.42,-251.18 444.82,-232.45 464,-210.5 485.99,-185.34 473.45,-164.78 500,-144.5 505.53,-140.27 511.7,-136.78 518.17,-133.88"/>
<polygon fill="#63b8ff" stroke="#63b8ff" points="519.83,-136.99 527.85,-130.06 517.26,-130.48 519.83,-136.99"/>
</a>
</g>
</g>
<!-- Node26 -->
<g id="Node000026" class="node">
<title>Node26</title>
<g id="a_Node000026"><a xlink:href="classNetworkBuilder.html#a508fc4af685c78c10f96ab39610d4040" target="_top" xlink:title="Maps a submission&#39;s vector index to its graph node ID.">
<polygon fill="white" stroke="#666666" points="691.5,-244 512.5,-244 512.5,-225 691.5,-225 691.5,-244"/>
<text text-anchor="middle" x="602" y="-232" font-family="Helvetica,sans-Serif" font-size="10.00">NetworkBuilder::submissionNode</text>
</a>
</g>
</g>
<!-- Node18&#45;&gt;Node26 -->
<g id="edge36_Node000018_Node000026" class="edge">
<title>Node18&#45;&gt;Node26</title>
<g id="a_edge36_Node000018_Node000026"><a xlink:title=" ">
<path fill="none" stroke="#63b8ff" d="M437.66,-261.97C467.05,-257.03 503.15,-250.96 533.94,-245.78"/>
<polygon fill="#63b8ff" stroke="#63b8ff" points="534.87,-249.17 544.15,-244.06 533.71,-242.27 534.87,-249.17"/>
</a>
</g>
</g>
<!-- Node27 -->
<g id="Node000027" class="node">
<title>Node27</title>
<g id="a_Node000027"><a xlink:href="structConfig.html#a89db87ddce24e353ccabde8d0dc70ade" target="_top" xlink:title="Determines if reviewer secondary expertise should be used in matching.">
<polygon fill="white" stroke="#666666" points="912.5,-112 745.5,-112 745.5,-93 912.5,-93 912.5,-112"/>
<text text-anchor="middle" x="829" y="-100" font-family="Helvetica,sans-Serif" font-size="10.00">Config::useReviewerSecondary</text>
</a>
</g>
</g>
<!-- Node18&#45;&gt;Node27 -->
<g id="edge37_Node000018_Node000027" class="edge">
<title>Node18&#45;&gt;Node27</title>
<g id="a_edge37_Node000018_Node000027"><a xlink:title=" ">
<path fill="none" stroke="#63b8ff" d="M395.3,-261.98C412.24,-250.47 441.07,-230.19 464,-210.5 481.17,-195.76 479.93,-184.95 500,-174.5 581.66,-131.98 614.33,-159.37 704,-138.5 732.69,-131.82 764.59,-122.52 788.86,-115.04"/>
<polygon fill="#63b8ff" stroke="#63b8ff" points="789.91,-118.38 798.42,-112.06 787.83,-111.69 789.91,-118.38"/>
</a>
</g>
</g>
<!-- Node28 -->
<g id="Node000028" class="node">
<title>Node28</title>
<g id="a_Node000028"><a xlink:href="structConfig.html#a936e7b5bd16f50374b648f00465f1a32" target="_top" xlink:title="Determines if submission secondary domains should be used in matching.">
<polygon fill="white" stroke="#666666" points="918,-178 740,-178 740,-159 918,-159 918,-178"/>
<text text-anchor="middle" x="829" y="-166" font-family="Helvetica,sans-Serif" font-size="10.00">Config::useSubmissionSecondary</text>
</a>
</g>
</g>
<!-- Node18&#45;&gt;Node28 -->
<g id="edge38_Node000018_Node000028" class="edge">
<title>Node18&#45;&gt;Node28</title>
<g id="a_edge38_Node000018_Node000028"><a xlink:title=" ">
<path fill="none" stroke="#63b8ff" d="M397.32,-261.89C419.69,-249.18 461.5,-227.03 500,-215.5 575.35,-192.93 663.78,-181.06 729.82,-174.9"/>
<polygon fill="#63b8ff" stroke="#63b8ff" points="730.16,-178.38 739.81,-174 729.53,-171.41 730.16,-178.38"/>
</a>
</g>
</g>
<!-- Node20 -->
<g id="Node000020" class="node">
<title>Node20</title>
<g id="a_Node000020"><a xlink:href="classGraph.html#a0a3f35d90f69456655a046806c725063" target="_top" xlink:title="Returns the number of nodes in the graph.">
<polygon fill="white" stroke="#666666" points="881,-356 777,-356 777,-337 881,-337 881,-356"/>
<text text-anchor="middle" x="829" y="-344" font-family="Helvetica,sans-Serif" font-size="10.00">Graph::numNodes</text>
</a>
</g>
</g>
<!-- Node19&#45;&gt;Node20 -->
<g id="edge30_Node000019_Node000020" class="edge">
<title>Node19&#45;&gt;Node20</title>
<g id="a_edge30_Node000019_Node000020"><a xlink:title=" ">
<path fill="none" stroke="#63b8ff" d="M649.08,-316.28C683.04,-322.02 729.58,-329.88 766.69,-336.15"/>
<polygon fill="#63b8ff" stroke="#63b8ff" points="766.44,-339.65 776.89,-337.87 767.61,-332.75 766.44,-339.65"/>
</a>
</g>
</g>
<!-- Node22 -->
<g id="Node000022" class="node">
<title>Node22</title>
<g id="a_Node000022"><a xlink:href="structSubmission.html#a19ab1b3a6dc11bd0b8254be4cbc31d2d" target="_top" xlink:title="Checks if this submission covers the given domain.">
<polygon fill="white" stroke="#666666" points="896,-281 762,-281 762,-262 896,-262 896,-281"/>
<text text-anchor="middle" x="829" y="-269" font-family="Helvetica,sans-Serif" font-size="10.00">Submission::hasDomain</text>
</a>
</g>
</g>
<!-- Node21&#45;&gt;Node22 -->
<g id="edge32_Node000021_Node000022" class="edge">
<title>Node21&#45;&gt;Node22</title>
<g id="a_edge32_Node000021_Node000022"><a xlink:title=" ">
<path fill="none" stroke="#63b8ff" d="M683.59,-271.5C705.69,-271.5 729.58,-271.5 751.45,-271.5"/>
<polygon fill="#63b8ff" stroke="#63b8ff" points="751.67,-275 761.67,-271.5 751.67,-268 751.67,-275"/>
</a>
</g>
</g>
<!-- Node29&#45;&gt;Node20 -->
<g id="edge42_Node000029_Node000020" class="edge">
<title>Node29&#45;&gt;Node20</title>
<g id="a_edge42_Node000029_Node000020"><a xlink:title=" ">
<path fill="none" stroke="#63b8ff" d="M439.74,-425.5C505.23,-427.37 613.81,-426.03 704,-403.5 740.32,-394.43 779.05,-374.83 803.38,-361.17"/>
<polygon fill="#63b8ff" stroke="#63b8ff" points="805.32,-364.09 812.26,-356.08 801.84,-358.01 805.32,-364.09"/>
</a>
</g>
</g>
<!-- Node30 -->
<g id="Node000030" class="node">
<title>Node30</title>
<g id="a_Node000030"><a xlink:href="classGraph.html#a348391db529c20a826a1483fe7bdcb9a" target="_top" xlink:title="BFS on the residual graph to find the shortest augmenting path.">
<polygon fill="white" stroke="#666666" points="635.5,-470 568.5,-470 568.5,-451 635.5,-451 635.5,-470"/>
<text text-anchor="middle" x="602" y="-458" font-family="Helvetica,sans-Serif" font-size="10.00">Graph::bfs</text>
</a>
</g>
</g>
<!-- Node29&#45;&gt;Node30 -->
<g id="edge40_Node000029_Node000030" class="edge">
<title>Node29&#45;&gt;Node30</title>
<g id="a_edge40_Node000029_Node000030"><a xlink:title=" ">
<path fill="none" stroke="#63b8ff" d="M436.23,-432.04C474.11,-438.58 523.63,-447.14 558.45,-453.15"/>
<polygon fill="#63b8ff" stroke="#63b8ff" points="557.86,-456.6 568.31,-454.85 559.05,-449.7 557.86,-456.6"/>
</a>
</g>
</g>
<!-- Node31 -->
<g id="Node000031" class="node">
<title>Node31</title>
<g id="a_Node000031"><a xlink:href="structEdge.html#a0b45154adf516897233895a25fad355e" target="_top" xlink:title="Residual capacity of this edge.">
<polygon fill="white" stroke="#666666" points="872,-470 786,-470 786,-451 872,-451 872,-470"/>
<text text-anchor="middle" x="829" y="-458" font-family="Helvetica,sans-Serif" font-size="10.00">Edge::residual</text>
</a>
</g>
</g>
<!-- Node30&#45;&gt;Node31 -->
<g id="edge41_Node000030_Node000031" class="edge">
<title>Node30&#45;&gt;Node31</title>
<g id="a_edge41_Node000030_Node000031"><a xlink:title=" ">
<path fill="none" stroke="#63b8ff" d="M635.72,-460.5C672.39,-460.5 732.36,-460.5 775.59,-460.5"/>
<polygon fill="#63b8ff" stroke="#63b8ff" points="775.64,-464 785.64,-460.5 775.64,-457 775.64,-464"/>
</a>
</g>
</g>
<!-- Node32&#45;&gt;Node25 -->
<g id="edge49_Node000032_Node000025" class="edge">
<title>Node32&#45;&gt;Node25</title>
<g id="a_edge49_Node000032_Node000025"><a xlink:title=" ">
<path fill="none" stroke="#63b8ff" d="M439.67,-107.3C460.62,-109.01 484.78,-110.99 507.92,-112.88"/>
<polygon fill="#63b8ff" stroke="#63b8ff" points="507.86,-116.39 518.11,-113.72 508.43,-109.41 507.86,-116.39"/>
</a>
</g>
</g>
<!-- Node33 -->
<g id="Node000033" class="node">
<title>Node33</title>
<g id="a_Node000033"><a xlink:href="classSolver.html#a0a32ae51c07e104de80b39cceaaf325f" target="_top" xlink:title="Determines which domain code caused the match between a reviewer and submission.">
<polygon fill="white" stroke="#666666" points="678,-56 526,-56 526,-37 678,-37 678,-56"/>
<text text-anchor="middle" x="602" y="-44" font-family="Helvetica,sans-Serif" font-size="10.00">Solver::findMatchedDomain</text>
</a>
</g>
</g>
<!-- Node32&#45;&gt;Node33 -->
<g id="edge44_Node000032_Node000033" class="edge">
<title>Node32&#45;&gt;Node33</title>
<g id="a_edge44_Node000032_Node000033"><a xlink:title=" ">
<path fill="none" stroke="#63b8ff" d="M407.65,-92.87C431.58,-84.49 467.79,-72.48 500,-64.5 509.66,-62.11 519.91,-59.9 530.04,-57.92"/>
<polygon fill="#63b8ff" stroke="#63b8ff" points="530.93,-61.31 540.11,-56 529.63,-54.43 530.93,-61.31"/>
</a>
</g>
</g>
<!-- Node34 -->
<g id="Node000034" class="node">
<title>Node34</title>
<g id="a_Node000034"><a xlink:href="classGraph.html#af5f263b25175df3f5511ff5ede0a63aa" target="_top" xlink:title="Returns the adjacency list of a given node (const).">
<polygon fill="white" stroke="#666666" points="643.5,-93 560.5,-93 560.5,-74 643.5,-74 643.5,-93"/>
<text text-anchor="middle" x="602" y="-81" font-family="Helvetica,sans-Serif" font-size="10.00">Graph::getAdj</text>
</a>
</g>
</g>
<!-- Node32&#45;&gt;Node34 -->
<g id="edge47_Node000032_Node000034" class="edge">
<title>Node32&#45;&gt;Node34</title>
<g id="a_edge47_Node000032_Node000034"><a xlink:title=" ">
<path fill="none" stroke="#63b8ff" d="M439.67,-97.43C474.01,-94.47 516.96,-90.76 549.9,-87.91"/>
<polygon fill="#63b8ff" stroke="#63b8ff" points="550.57,-91.37 560.23,-87.02 549.96,-84.39 550.57,-91.37"/>
</a>
</g>
</g>
<!-- Node35 -->
<g id="Node000035" class="node">
<title>Node35</title>
<g id="a_Node000035"><a xlink:href="classNetworkBuilder.html#a4efdb0e13d73f6f3cbf38b4cd11a5ef3" target="_top" xlink:title="Inverse: given a graph node ID, returns the submission vector index.">
<polygon fill="white" stroke="#666666" points="704,-19 500,-19 500,0 704,0 704,-19"/>
<text text-anchor="middle" x="602" y="-7" font-family="Helvetica,sans-Serif" font-size="10.00">NetworkBuilder::nodeToSubmissionIdx</text>
</a>
</g>
</g>
<!-- Node32&#45;&gt;Node35 -->
<g id="edge48_Node000032_Node000035" class="edge">
<title>Node32&#45;&gt;Node35</title>
<g id="a_edge48_Node000032_Node000035"><a xlink:title=" ">
<path fill="none" stroke="#63b8ff" d="M392.67,-92.94C413.08,-76.75 457.19,-44.07 500,-27.5 505.83,-25.24 511.96,-23.27 518.2,-21.53"/>
<polygon fill="#63b8ff" stroke="#63b8ff" points="519.25,-24.88 528.07,-19.01 517.51,-18.1 519.25,-24.88"/>
</a>
</g>
</g>
<!-- Node33&#45;&gt;Node27 -->
<g id="edge45_Node000033_Node000027" class="edge">
<title>Node33&#45;&gt;Node27</title>
<g id="a_edge45_Node000033_Node000027"><a xlink:title=" ">
<path fill="none" stroke="#63b8ff" d="M663.33,-56.02C676.78,-58.48 690.93,-61.34 704,-64.5 733.43,-71.6 766.16,-81.73 790.6,-89.74"/>
<polygon fill="#63b8ff" stroke="#63b8ff" points="789.6,-93.1 800.2,-92.92 791.8,-86.46 789.6,-93.1"/>
</a>
</g>
</g>
<!-- Node33&#45;&gt;Node28 -->
<g id="edge46_Node000033_Node000028" class="edge">
<title>Node33&#45;&gt;Node28</title>
<g id="a_edge46_Node000033_Node000028"><a xlink:title=" ">
<path fill="none" stroke="#63b8ff" d="M678.25,-52.71C687.38,-55.5 696.22,-59.31 704,-64.5 728.62,-80.91 718.34,-100.34 740,-120.5 755.59,-135 776.37,-146.61 793.83,-154.77"/>
<polygon fill="#63b8ff" stroke="#63b8ff" points="792.58,-158.04 803.13,-158.95 795.45,-151.66 792.58,-158.04"/>
</a>
</g>
</g>
<!-- Node36&#45;&gt;Node18 -->
<g id="edge53_Node000036_Node000018" class="edge">
<title>Node36&#45;&gt;Node18</title>
<g id="a_edge53_Node000036_Node000018"><a xlink:title=" ">
<path fill="none" stroke="#63b8ff" d="M205.72,-317.97C229.29,-309.77 264.66,-297.96 296,-289.5 304.08,-287.32 312.66,-285.22 321.12,-283.27"/>
<polygon fill="#63b8ff" stroke="#63b8ff" points="321.97,-286.67 330.96,-281.06 320.44,-279.84 321.97,-286.67"/>
</a>
</g>
</g>
<!-- Node36&#45;&gt;Node23 -->
<g id="edge58_Node000036_Node000023" class="edge">
<title>Node36&#45;&gt;Node23</title>
<g id="a_edge58_Node000036_Node000023"><a xlink:title=" ">
<path fill="none" stroke="#63b8ff" d="M249.63,-337.04C324.3,-347.13 441.88,-363.01 520.19,-373.58"/>
<polygon fill="#63b8ff" stroke="#63b8ff" points="520.11,-377.11 530.49,-374.98 521.05,-370.17 520.11,-377.11"/>
</a>
</g>
</g>
<!-- Node36&#45;&gt;Node24 -->
<g id="edge59_Node000036_Node000024" class="edge">
<title>Node36&#45;&gt;Node24</title>
<g id="a_edge59_Node000036_Node000024"><a xlink:title=" ">
<path fill="none" stroke="#63b8ff" d="M195.93,-337.01C213.38,-347.36 240.69,-365.2 260,-385.5 280.39,-406.94 271.44,-424.99 296,-441.5 300.99,-444.86 447.89,-470.86 535.96,-486.22"/>
<polygon fill="#63b8ff" stroke="#63b8ff" points="535.42,-489.68 545.87,-487.95 536.62,-482.79 535.42,-489.68"/>
</a>
</g>
</g>
<!-- Node36&#45;&gt;Node25 -->
<g id="edge60_Node000036_Node000025" class="edge">
<title>Node36&#45;&gt;Node25</title>
<g id="a_edge60_Node000036_Node000025"><a xlink:title=" ">
<path fill="none" stroke="#63b8ff" d="M190.61,-317.96C230.6,-285.68 367.48,-180.05 500,-134.5 502.75,-133.56 505.56,-132.68 508.41,-131.85"/>
<polygon fill="#63b8ff" stroke="#63b8ff" points="509.46,-135.2 518.25,-129.28 507.69,-128.43 509.46,-135.2"/>
</a>
</g>
</g>
<!-- Node36&#45;&gt;Node29 -->
<g id="edge56_Node000036_Node000029" class="edge">
<title>Node36&#45;&gt;Node29</title>
<g id="a_edge56_Node000036_Node000029"><a xlink:title=" ">
<path fill="none" stroke="#63b8ff" d="M199.28,-337.13C234.86,-354.03 308.65,-389.08 349.75,-408.61"/>
<polygon fill="#63b8ff" stroke="#63b8ff" points="348.43,-411.85 358.97,-412.98 351.43,-405.53 348.43,-411.85"/>
</a>
</g>
</g>
<!-- Node36&#45;&gt;Node32 -->
<g id="edge57_Node000036_Node000032" class="edge">
<title>Node36&#45;&gt;Node32</title>
<g id="a_edge57_Node000036_Node000032"><a xlink:title=" ">
<path fill="none" stroke="#63b8ff" d="M186.27,-317.66C204.07,-293.73 251.66,-230.93 296,-182.5 317.02,-159.54 343.14,-134.95 360.4,-119.18"/>
<polygon fill="#63b8ff" stroke="#63b8ff" points="363.05,-121.51 368.1,-112.2 358.34,-116.32 363.05,-121.51"/>
</a>
</g>
</g>
<!-- Node37 -->
<g id="Node000037" class="node">
<title>Node37</title>
<g id="a_Node000037"><a xlink:href="classGraph.html#a24e78627debf97e225128856196398dc" target="_top" xlink:title="Disables all edges from a specific node by setting capacity to 0.">
<polygon fill="white" stroke="#666666" points="436.5,-318 323.5,-318 323.5,-299 436.5,-299 436.5,-318"/>
<text text-anchor="middle" x="380" y="-306" font-family="Helvetica,sans-Serif" font-size="10.00">Graph::disableNode</text>
</a>
</g>
</g>
<!-- Node36&#45;&gt;Node37 -->
<g id="edge54_Node000036_Node000037" class="edge">
<title>Node36&#45;&gt;Node37</title>
<g id="a_edge54_Node000036_Node000037"><a xlink:title=" ">
<path fill="none" stroke="#63b8ff" d="M260.06,-319.8C277.63,-318.13 296.02,-316.38 312.94,-314.78"/>
<polygon fill="#63b8ff" stroke="#63b8ff" points="313.63,-318.23 323.26,-313.8 312.97,-311.26 313.63,-318.23"/>
</a>
</g>
</g>
<!-- Node37&#45;&gt;Node20 -->
<g id="edge55_Node000037_Node000020" class="edge">
<title>Node37&#45;&gt;Node20</title>
<g id="a_edge55_Node000037_Node000020"><a xlink:title=" ">
<path fill="none" stroke="#63b8ff" d="M433.28,-318.01C453.99,-321.47 478.06,-325.12 500,-327.5 592.58,-337.55 700.48,-342.51 766.51,-344.78"/>
<polygon fill="#63b8ff" stroke="#63b8ff" points="766.62,-348.29 776.74,-345.12 766.86,-341.29 766.62,-348.29"/>
</a>
</g>
</g>
<!-- Node38&#45;&gt;Node16 -->
<g id="edge62_Node000038_Node000016" class="edge">
<title>Node38&#45;&gt;Node16</title>
<g id="a_edge62_Node000038_Node000016"><a xlink:title=" ">
<path fill="none" stroke="#63b8ff" d="M223.39,-589.04C253.29,-595.47 292.93,-604 324.72,-610.83"/>
<polygon fill="#63b8ff" stroke="#63b8ff" points="324.23,-614.3 334.74,-612.98 325.7,-607.46 324.23,-614.3"/>
</a>
</g>
</g>
<!-- Node39 -->
<g id="Node000039" class="node">
<title>Node39</title>
<g id="a_Node000039"><a xlink:href="classOutputWriter.html#a6e32add7759c83e565390d14cd1bb339" target="_top" xlink:title="Writes the assignment sections to any output stream.">
<polygon fill="white" stroke="#666666" points="464,-594.5 296,-594.5 296,-564.5 464,-564.5 464,-594.5"/>
<text text-anchor="start" x="304" y="-582.5" font-family="Helvetica,sans-Serif" font-size="10.00">OutputWriter::writeAssignment</text>
<text text-anchor="middle" x="380" y="-571.5" font-family="Helvetica,sans-Serif" font-size="10.00">Section</text>
</a>
</g>
</g>
<!-- Node38&#45;&gt;Node39 -->
<g id="edge63_Node000038_Node000039" class="edge">
<title>Node38&#45;&gt;Node39</title>
<g id="a_edge63_Node000038_Node000039"><a xlink:title=" ">
<path fill="none" stroke="#63b8ff" d="M247.27,-579.5C259.59,-579.5 272.63,-579.5 285.52,-579.5"/>
<polygon fill="#63b8ff" stroke="#63b8ff" points="285.82,-583 295.82,-579.5 285.82,-576 285.82,-583"/>
</a>
</g>
</g>
<!-- Node41 -->
<g id="Node000041" class="node">
<title>Node41</title>
<g id="a_Node000041"><a xlink:href="classOutputWriter.html#a33523f8610417f2806d5943455614a14" target="_top" xlink:title="Writes the risk analysis section to any output stream.">
<polygon fill="white" stroke="#666666" points="463.5,-546 296.5,-546 296.5,-527 463.5,-527 463.5,-546"/>
<text text-anchor="middle" x="380" y="-534" font-family="Helvetica,sans-Serif" font-size="10.00">OutputWriter::writeRiskSection</text>
</a>
</g>
</g>
<!-- Node38&#45;&gt;Node41 -->
<g id="edge66_Node000038_Node000041" class="edge">
<title>Node38&#45;&gt;Node41</title>
<g id="a_edge66_Node000038_Node000041"><a xlink:title=" ">
<path fill="none" stroke="#63b8ff" d="M223.39,-569.96C253.29,-563.53 292.93,-555 324.72,-548.17"/>
<polygon fill="#63b8ff" stroke="#63b8ff" points="325.7,-551.54 334.74,-546.02 324.23,-544.7 325.7,-551.54"/>
</a>
</g>
</g>
<!-- Node39&#45;&gt;Node24 -->
<g id="edge65_Node000039_Node000024" class="edge">
<title>Node39&#45;&gt;Node24</title>
<g id="a_edge65_Node000039_Node000024"><a xlink:title=" ">
<path fill="none" stroke="#63b8ff" d="M437.65,-564.43C446.55,-561.69 455.58,-558.68 464,-555.5 480.55,-549.24 483.8,-545.61 500,-538.5 522.09,-528.81 547.22,-518.6 566.89,-510.8"/>
<polygon fill="#63b8ff" stroke="#63b8ff" points="568.33,-513.99 576.35,-507.06 565.76,-507.48 568.33,-513.99"/>
</a>
</g>
</g>
<!-- Node40 -->
<g id="Node000040" class="node">
<title>Node40</title>
<g id="a_Node000040"><a xlink:href="structSolverResult.html#a4d56c0d5a4628962604d1c204e1d530c" target="_top" xlink:title="Whether the assignment is fully satisfied.">
<polygon fill="white" stroke="#666666" points="672,-566 532,-566 532,-547 672,-547 672,-566"/>
<text text-anchor="middle" x="602" y="-554" font-family="Helvetica,sans-Serif" font-size="10.00">SolverResult::isComplete</text>
</a>
</g>
</g>
<!-- Node39&#45;&gt;Node40 -->
<g id="edge64_Node000039_Node000040" class="edge">
<title>Node39&#45;&gt;Node40</title>
<g id="a_edge64_Node000039_Node000040"><a xlink:title=" ">
<path fill="none" stroke="#63b8ff" d="M464.17,-570.8C483.05,-568.83 503.05,-566.74 521.75,-564.78"/>
<polygon fill="#63b8ff" stroke="#63b8ff" points="522.12,-568.27 531.7,-563.75 521.39,-561.3 522.12,-568.27"/>
</a>
</g>
</g>
</g>
</svg>
