<?xml version="1.0" encoding="UTF-8" standalone="no"?>
<!DOCTYPE svg PUBLIC "-//W3C//DTD SVG 1.1//EN"
 "http://www.w3.org/Graphics/SVG/1.1/DTD/svg11.dtd">
<!-- Generated by graphviz version 2.43.0 (0)
 -->
<!-- Title: main.cpp Pages: 1 -->
<svg width="837pt" height="192pt"
 viewBox="0.00 0.00 837.48 192.00" xmlns="http://www.w3.org/2000/svg" xmlns:xlink="http://www.w3.org/1999/xlink">
<g id="graph0" class="graph" transform="scale(1 1) rotate(0) translate(4 188)">
<title>main.cpp</title>
<!-- Node1 -->
<g id="Node000001" class="node">
<title>Node1</title>
<g id="a_Node000001"><a xlink:title="Entry point for the Scientific Conference Organization Tool.">
<polygon fill="#999999" stroke="#666666" points="379.98,-184 317.98,-184 317.98,-165 379.98,-165 379.98,-184"/>
<text text-anchor="middle" x="348.98" y="-172" font-family="Helvetica,sans-Serif" font-size="10.00">main.cpp</text>
</a>
</g>
</g>
<!-- Node2 -->
<g id="Node000002" class="node">
<title>Node2</title>
<g id="a_Node000002"><a xlink:href="parser_8h.html" target="_top" xlink:title="Robust parser for the conference assignment input file format.">
<polygon fill="white" stroke="#666666" points="283.98,-129 227.98,-129 227.98,-110 283.98,-110 283.98,-129"/>
<text text-anchor="middle" x="255.98" y="-117" font-family="Helvetica,sans-Serif" font-size="10.00">parser.h</text>
</a>
</g>
</g>
<!-- Node1&#45;&gt;Node2 -->
<g id="edge1_Node000001_Node000002" class="edge">
<title>Node1&#45;&gt;Node2</title>
<g id="a_edge1_Node000001_Node000002"><a xlink:title=" ">
<path fill="none" stroke="#63b8ff" d="M334.04,-164.98C319.49,-156.69 297.12,-143.94 280.05,-134.22"/>
<polygon fill="#63b8ff" stroke="#63b8ff" points="281.62,-131.08 271.2,-129.17 278.15,-137.16 281.62,-131.08"/>
</a>
</g>
</g>
<!-- Node4 -->
<g id="Node000004" class="node">
<title>Node4</title>
<g id="a_Node000004"><a xlink:title=" ">
<polygon fill="#e0e0e0" stroke="#999999" points="190.98,-19 146.98,-19 146.98,0 190.98,0 190.98,-19"/>
<text text-anchor="middle" x="168.98" y="-7" font-family="Helvetica,sans-Serif" font-size="10.00">string</text>
</a>
</g>
</g>
<!-- Node1&#45;&gt;Node4 -->
<g id="edge32_Node000001_Node000004" class="edge">
<title>Node1&#45;&gt;Node4</title>
<g id="a_edge32_Node000001_Node000004"><a xlink:title=" ">
<path fill="none" stroke="#63b8ff" d="M317.92,-169.22C240.97,-157.92 44.98,-124.63 6.98,-74 -27.68,-27.81 79.77,-15.19 136.42,-11.77"/>
<polygon fill="#63b8ff" stroke="#63b8ff" points="136.89,-15.25 146.68,-11.21 136.51,-8.26 136.89,-15.25"/>
</a>
</g>
</g>
<!-- Node11 -->
<g id="Node000011" class="node">
<title>Node11</title>
<g id="a_Node000011"><a xlink:title=" ">
<polygon fill="#e0e0e0" stroke="#999999" points="293.48,-74 238.48,-74 238.48,-55 293.48,-55 293.48,-74"/>
<text text-anchor="middle" x="265.98" y="-62" font-family="Helvetica,sans-Serif" font-size="10.00">fstream</text>
</a>
</g>
</g>
<!-- Node1&#45;&gt;Node11 -->
<g id="edge34_Node000001_Node000011" class="edge">
<title>Node1&#45;&gt;Node11</title>
<g id="a_edge34_Node000001_Node000011"><a xlink:title=" ">
<path fill="none" stroke="#63b8ff" d="M342.19,-164.66C328.38,-146.69 296.83,-105.64 278.96,-82.38"/>
<polygon fill="#63b8ff" stroke="#63b8ff" points="281.51,-79.95 272.64,-74.16 275.96,-84.22 281.51,-79.95"/>
</a>
</g>
</g>
<!-- Node13 -->
<g id="Node000013" class="node">
<title>Node13</title>
<g id="a_Node000013"><a xlink:title=" ">
<polygon fill="#e0e0e0" stroke="#999999" points="219.98,-74 159.98,-74 159.98,-55 219.98,-55 219.98,-74"/>
<text text-anchor="middle" x="189.98" y="-62" font-family="Helvetica,sans-Serif" font-size="10.00">iostream</text>
</a>
</g>
</g>
<!-- Node1&#45;&gt;Node13 -->
<g id="edge31_Node000001_Node000013" class="edge">
<title>Node1&#45;&gt;Node13</title>
<g id="a_edge31_Node000001_Node000013"><a xlink:title=" ">
<path fill="none" stroke="#63b8ff" d="M317.87,-169.92C289.07,-165.12 246.65,-154.07 218.98,-129 205.94,-117.19 198.37,-98.35 194.25,-84.25"/>
<polygon fill="#63b8ff" stroke="#63b8ff" points="197.54,-83 191.65,-74.19 190.76,-84.75 197.54,-83"/>
</a>
</g>
</g>
<!-- Node15 -->
<g id="Node000015" class="node">
<title>Node15</title>
<g id="a_Node000015"><a xlink:href="graph_8h.html" target="_top" xlink:title="Generic flow network graph with Edmonds&#45;Karp max&#45;flow solver.">
<polygon fill="white" stroke="#666666" points="527.48,-129 474.48,-129 474.48,-110 527.48,-110 527.48,-129"/>
<text text-anchor="middle" x="500.98" y="-117" font-family="Helvetica,sans-Serif" font-size="10.00">graph.h</text>
</a>
</g>
</g>
<!-- Node1&#45;&gt;Node15 -->
<g id="edge16_Node000001_Node000015" class="edge">
<title>Node1&#45;&gt;Node15</title>
<g id="a_edge16_Node000001_Node000015"><a xlink:title=" ">
<path fill="none" stroke="#63b8ff" d="M373.41,-164.98C398.7,-156.16 438.44,-142.31 466.84,-132.41"/>
<polygon fill="#63b8ff" stroke="#63b8ff" points="468.08,-135.68 476.37,-129.08 465.78,-129.07 468.08,-135.68"/>
</a>
</g>
</g>
<!-- Node19 -->
<g id="Node000019" class="node">
<title>Node19</title>
<g id="a_Node000019"><a xlink:href="output_8h.html" target="_top" xlink:title="Output formatter for the conference assignment tool.">
<polygon fill="white" stroke="#666666" points="415.48,-129 358.48,-129 358.48,-110 415.48,-110 415.48,-129"/>
<text text-anchor="middle" x="386.98" y="-117" font-family="Helvetica,sans-Serif" font-size="10.00">output.h</text>
</a>
</g>
</g>
<!-- Node1&#45;&gt;Node19 -->
<g id="edge23_Node000001_Node000019" class="edge">
<title>Node1&#45;&gt;Node19</title>
<g id="a_edge23_Node000001_Node000019"><a xlink:title=" ">
<path fill="none" stroke="#63b8ff" d="M355.26,-164.75C360.57,-157.34 368.34,-146.5 374.86,-137.41"/>
<polygon fill="#63b8ff" stroke="#63b8ff" points="377.84,-139.26 380.83,-129.09 372.15,-135.18 377.84,-139.26"/>
</a>
</g>
</g>
<!-- Node21 -->
<g id="Node000021" class="node">
<title>Node21</title>
<g id="a_Node000021"><a xlink:title=" ">
<polygon fill="#e0e0e0" stroke="#999999" points="603.98,-129 545.98,-129 545.98,-110 603.98,-110 603.98,-129"/>
<text text-anchor="middle" x="574.98" y="-117" font-family="Helvetica,sans-Serif" font-size="10.00">memory</text>
</a>
</g>
</g>
<!-- Node1&#45;&gt;Node21 -->
<g id="edge33_Node000001_Node000021" class="edge">
<title>Node1&#45;&gt;Node21</title>
<g id="a_edge33_Node000001_Node000021"><a xlink:title=" ">
<path fill="none" stroke="#63b8ff" d="M380.41,-166.13C421.14,-156.58 492.15,-139.92 536.2,-129.6"/>
<polygon fill="#63b8ff" stroke="#63b8ff" points="537.04,-132.99 545.97,-127.3 535.44,-126.18 537.04,-132.99"/>
</a>
</g>
</g>
<!-- Node22 -->
<g id="Node000022" class="node">
<title>Node22</title>
<g id="a_Node000022"><a xlink:title=" ">
<polygon fill="#e0e0e0" stroke="#999999" points="665.98,-129 621.98,-129 621.98,-110 665.98,-110 665.98,-129"/>
<text text-anchor="middle" x="643.98" y="-117" font-family="Helvetica,sans-Serif" font-size="10.00">limits</text>
</a>
</g>
</g>
<!-- Node1&#45;&gt;Node22 -->
<g id="edge35_Node000001_Node000022" class="edge">
<title>Node1&#45;&gt;Node22</title>
<g id="a_edge35_Node000001_Node000022"><a xlink:title=" ">
<path fill="none" stroke="#63b8ff" d="M380.07,-169.3C427.83,-162.61 522.32,-148.51 611.67,-129.1"/>
<polygon fill="#63b8ff" stroke="#63b8ff" points="612.68,-132.46 621.7,-126.9 611.18,-125.63 612.68,-132.46"/>
</a>
</g>
</g>
<!-- Node3 -->
<g id="Node000003" class="node">
<title>Node3</title>
<g id="a_Node000003"><a xlink:href="domain_8h.html" target="_top" xlink:title="Domain entities for the Scientific Conference Organization Tool.">
<polygon fill="white" stroke="#666666" points="531.98,-74 469.98,-74 469.98,-55 531.98,-55 531.98,-74"/>
<text text-anchor="middle" x="500.98" y="-62" font-family="Helvetica,sans-Serif" font-size="10.00">domain.h</text>
</a>
</g>
</g>
<!-- Node2&#45;&gt;Node3 -->
<g id="edge2_Node000002_Node000003" class="edge">
<title>Node2&#45;&gt;Node3</title>
<g id="a_edge2_Node000002_Node000003"><a xlink:title=" ">
<path fill="none" stroke="#63b8ff" d="M284.09,-112.42C327.24,-103.08 410.06,-85.17 459.93,-74.38"/>
<polygon fill="#63b8ff" stroke="#63b8ff" points="460.71,-77.79 469.75,-72.26 459.23,-70.95 460.71,-77.79"/>
</a>
</g>
</g>
<!-- Node2&#45;&gt;Node4 -->
<g id="edge10_Node000002_Node000004" class="edge">
<title>Node2&#45;&gt;Node4</title>
<g id="a_edge10_Node000002_Node000004"><a xlink:title=" ">
<path fill="none" stroke="#63b8ff" d="M227.75,-116.23C200.65,-112.37 161.1,-101.98 141.98,-74 132.01,-59.39 142.52,-40.51 153.21,-27.15"/>
<polygon fill="#63b8ff" stroke="#63b8ff" points="156.14,-29.11 160.04,-19.26 150.85,-24.52 156.14,-29.11"/>
</a>
</g>
</g>
<!-- Node10 -->
<g id="Node000010" class="node">
<title>Node10</title>
<g id="a_Node000010"><a xlink:title=" ">
<polygon fill="#e0e0e0" stroke="#999999" points="338.98,-19 282.98,-19 282.98,0 338.98,0 338.98,-19"/>
<text text-anchor="middle" x="310.98" y="-7" font-family="Helvetica,sans-Serif" font-size="10.00">sstream</text>
</a>
</g>
</g>
<!-- Node2&#45;&gt;Node10 -->
<g id="edge12_Node000002_Node000010" class="edge">
<title>Node2&#45;&gt;Node10</title>
<g id="a_edge12_Node000002_Node000010"><a xlink:title=" ">
<path fill="none" stroke="#63b8ff" d="M227.9,-113.18C189.46,-104.63 127.72,-85.62 150.98,-55 165.69,-35.65 230.42,-22.48 272.91,-15.75"/>
<polygon fill="#63b8ff" stroke="#63b8ff" points="273.57,-19.19 282.93,-14.22 272.51,-12.27 273.57,-19.19"/>
</a>
</g>
</g>
<!-- Node2&#45;&gt;Node11 -->
<g id="edge11_Node000002_Node000011" class="edge">
<title>Node2&#45;&gt;Node11</title>
<g id="a_edge11_Node000002_Node000011"><a xlink:title=" ">
<path fill="none" stroke="#63b8ff" d="M257.63,-109.75C258.95,-102.8 260.82,-92.85 262.47,-84.13"/>
<polygon fill="#63b8ff" stroke="#63b8ff" points="265.95,-84.56 264.36,-74.09 259.07,-83.27 265.95,-84.56"/>
</a>
</g>
</g>
<!-- Node12 -->
<g id="Node000012" class="node">
<title>Node12</title>
<g id="a_Node000012"><a xlink:title=" ">
<polygon fill="#e0e0e0" stroke="#999999" points="375.98,-74 311.98,-74 311.98,-55 375.98,-55 375.98,-74"/>
<text text-anchor="middle" x="343.98" y="-62" font-family="Helvetica,sans-Serif" font-size="10.00">algorithm</text>
</a>
</g>
</g>
<!-- Node2&#45;&gt;Node12 -->
<g id="edge13_Node000002_Node000012" class="edge">
<title>Node2&#45;&gt;Node12</title>
<g id="a_edge13_Node000002_Node000012"><a xlink:title=" ">
<path fill="none" stroke="#63b8ff" d="M270.12,-109.98C283.77,-101.77 304.67,-89.18 320.76,-79.49"/>
<polygon fill="#63b8ff" stroke="#63b8ff" points="322.83,-82.33 329.59,-74.17 319.22,-76.33 322.83,-82.33"/>
</a>
</g>
</g>
<!-- Node2&#45;&gt;Node13 -->
<g id="edge14_Node000002_Node000013" class="edge">
<title>Node2&#45;&gt;Node13</title>
<g id="a_edge14_Node000002_Node000013"><a xlink:title=" ">
<path fill="none" stroke="#63b8ff" d="M245.38,-109.98C235.53,-102.07 220.63,-90.11 208.77,-80.58"/>
<polygon fill="#63b8ff" stroke="#63b8ff" points="210.77,-77.7 200.78,-74.17 206.39,-83.16 210.77,-77.7"/>
</a>
</g>
</g>
<!-- Node14 -->
<g id="Node000014" class="node">
<title>Node14</title>
<g id="a_Node000014"><a xlink:title=" ">
<polygon fill="#e0e0e0" stroke="#999999" points="65.48,-74 16.48,-74 16.48,-55 65.48,-55 65.48,-74"/>
<text text-anchor="middle" x="40.98" y="-62" font-family="Helvetica,sans-Serif" font-size="10.00">cctype</text>
</a>
</g>
</g>
<!-- Node2&#45;&gt;Node14 -->
<g id="edge15_Node000002_Node000014" class="edge">
<title>Node2&#45;&gt;Node14</title>
<g id="a_edge15_Node000002_Node000014"><a xlink:title=" ">
<path fill="none" stroke="#63b8ff" d="M227.88,-111.57C188.76,-101.93 117.95,-84.47 75.62,-74.04"/>
<polygon fill="#63b8ff" stroke="#63b8ff" points="76.31,-70.6 65.76,-71.61 74.64,-77.4 76.31,-70.6"/>
</a>
</g>
</g>
<!-- Node3&#45;&gt;Node4 -->
<g id="edge3_Node000003_Node000004" class="edge">
<title>Node3&#45;&gt;Node4</title>
<g id="a_edge3_Node000003_Node000004"><a xlink:title=" ">
<path fill="none" stroke="#63b8ff" d="M469.75,-58.51C406.75,-48.46 265.04,-25.83 201.22,-15.65"/>
<polygon fill="#63b8ff" stroke="#63b8ff" points="201.74,-12.18 191.31,-14.06 200.63,-19.1 201.74,-12.18"/>
</a>
</g>
</g>
<!-- Node5 -->
<g id="Node000005" class="node">
<title>Node5</title>
<g id="a_Node000005"><a xlink:title=" ">
<polygon fill="#e0e0e0" stroke="#999999" points="777.48,-19 730.48,-19 730.48,0 777.48,0 777.48,-19"/>
<text text-anchor="middle" x="753.98" y="-7" font-family="Helvetica,sans-Serif" font-size="10.00">vector</text>
</a>
</g>
</g>
<!-- Node3&#45;&gt;Node5 -->
<g id="edge4_Node000003_Node000005" class="edge">
<title>Node3&#45;&gt;Node5</title>
<g id="a_edge4_Node000003_Node000005"><a xlink:title=" ">
<path fill="none" stroke="#63b8ff" d="M531.98,-56.87C535.02,-56.24 538.06,-55.6 540.98,-55 617.77,-39.16 639.75,-37.31 720.13,-19.09"/>
<polygon fill="#63b8ff" stroke="#63b8ff" points="721.26,-22.42 730.23,-16.78 719.7,-15.6 721.26,-22.42"/>
</a>
</g>
</g>
<!-- Node6 -->
<g id="Node000006" class="node">
<title>Node6</title>
<g id="a_Node000006"><a xlink:title=" ">
<polygon fill="#e0e0e0" stroke="#999999" points="533.48,-19 440.48,-19 440.48,0 533.48,0 533.48,-19"/>
<text text-anchor="middle" x="486.98" y="-7" font-family="Helvetica,sans-Serif" font-size="10.00">unordered_map</text>
</a>
</g>
</g>
<!-- Node3&#45;&gt;Node6 -->
<g id="edge5_Node000003_Node000006" class="edge">
<title>Node3&#45;&gt;Node6</title>
<g id="a_edge5_Node000003_Node000006"><a xlink:title=" ">
<path fill="none" stroke="#63b8ff" d="M498.67,-54.75C496.82,-47.72 494.15,-37.62 491.83,-28.84"/>
<polygon fill="#63b8ff" stroke="#63b8ff" points="495.19,-27.86 489.25,-19.09 488.42,-29.65 495.19,-27.86"/>
</a>
</g>
</g>
<!-- Node7 -->
<g id="Node000007" class="node">
<title>Node7</title>
<g id="a_Node000007"><a xlink:title=" ">
<polygon fill="#e0e0e0" stroke="#999999" points="637.98,-19 551.98,-19 551.98,0 637.98,0 637.98,-19"/>
<text text-anchor="middle" x="594.98" y="-7" font-family="Helvetica,sans-Serif" font-size="10.00">unordered_set</text>
</a>
</g>
</g>
<!-- Node3&#45;&gt;Node7 -->
<g id="edge6_Node000003_Node000007" class="edge">
<title>Node3&#45;&gt;Node7</title>
<g id="a_edge6_Node000003_Node000007"><a xlink:title=" ">
<path fill="none" stroke="#63b8ff" d="M516.09,-54.98C530.8,-46.69 553.41,-33.94 570.66,-24.22"/>
<polygon fill="#63b8ff" stroke="#63b8ff" points="572.61,-27.13 579.61,-19.17 569.18,-21.03 572.61,-27.13"/>
</a>
</g>
</g>
<!-- Node8 -->
<g id="Node000008" class="node">
<title>Node8</title>
<g id="a_Node000008"><a xlink:title=" ">
<polygon fill="#e0e0e0" stroke="#999999" points="711.98,-19 655.98,-19 655.98,0 711.98,0 711.98,-19"/>
<text text-anchor="middle" x="683.98" y="-7" font-family="Helvetica,sans-Serif" font-size="10.00">optional</text>
</a>
</g>
</g>
<!-- Node3&#45;&gt;Node8 -->
<g id="edge7_Node000003_Node000008" class="edge">
<title>Node3&#45;&gt;Node8</title>
<g id="a_edge7_Node000003_Node000008"><a xlink:title=" ">
<path fill="none" stroke="#63b8ff" d="M530.39,-54.98C561.84,-45.88 611.82,-31.4 646.17,-21.45"/>
<polygon fill="#63b8ff" stroke="#63b8ff" points="647.22,-24.79 655.86,-18.65 645.28,-18.07 647.22,-24.79"/>
</a>
</g>
</g>
<!-- Node9 -->
<g id="Node000009" class="node">
<title>Node9</title>
<g id="a_Node000009"><a xlink:title=" ">
<polygon fill="#e0e0e0" stroke="#999999" points="422.48,-19 357.48,-19 357.48,0 422.48,0 422.48,-19"/>
<text text-anchor="middle" x="389.98" y="-7" font-family="Helvetica,sans-Serif" font-size="10.00">stdexcept</text>
</a>
</g>
</g>
<!-- Node3&#45;&gt;Node9 -->
<g id="edge8_Node000003_Node000009" class="edge">
<title>Node3&#45;&gt;Node9</title>
<g id="a_edge8_Node000003_Node000009"><a xlink:title=" ">
<path fill="none" stroke="#63b8ff" d="M483.15,-54.98C465.37,-46.5 437.84,-33.35 417.3,-23.54"/>
<polygon fill="#63b8ff" stroke="#63b8ff" points="418.67,-20.32 408.14,-19.17 415.66,-26.64 418.67,-20.32"/>
</a>
</g>
</g>
<!-- Node3&#45;&gt;Node10 -->
<g id="edge9_Node000003_Node000010" class="edge">
<title>Node3&#45;&gt;Node10</title>
<g id="a_edge9_Node000003_Node000010"><a xlink:title=" ">
<path fill="none" stroke="#63b8ff" d="M470.46,-54.98C437.52,-45.8 385,-31.15 349.31,-21.19"/>
<polygon fill="#63b8ff" stroke="#63b8ff" points="349.84,-17.7 339.26,-18.39 347.96,-24.45 349.84,-17.7"/>
</a>
</g>
</g>
<!-- Node15&#45;&gt;Node3 -->
<g id="edge17_Node000015_Node000003" class="edge">
<title>Node15&#45;&gt;Node3</title>
<g id="a_edge17_Node000015_Node000003"><a xlink:title=" ">
<path fill="none" stroke="#63b8ff" d="M500.98,-109.75C500.98,-102.8 500.98,-92.85 500.98,-84.13"/>
<polygon fill="#63b8ff" stroke="#63b8ff" points="504.48,-84.09 500.98,-74.09 497.48,-84.09 504.48,-84.09"/>
</a>
</g>
</g>
<!-- Node15&#45;&gt;Node5 -->
<g id="edge18_Node000015_Node000005" class="edge">
<title>Node15&#45;&gt;Node5</title>
<g id="a_edge18_Node000015_Node000005"><a xlink:title=" ">
<path fill="none" stroke="#63b8ff" d="M527.69,-112.03C530.81,-111.32 533.97,-110.63 536.98,-110 624.54,-91.72 668.33,-133.64 734.98,-74 747.43,-62.86 751.87,-43.93 753.38,-29.63"/>
<polygon fill="#63b8ff" stroke="#63b8ff" points="756.89,-29.6 754.06,-19.39 749.91,-29.14 756.89,-29.6"/>
</a>
</g>
</g>
<!-- Node15&#45;&gt;Node12 -->
<g id="edge20_Node000015_Node000012" class="edge">
<title>Node15&#45;&gt;Node12</title>
<g id="a_edge20_Node000015_Node000012"><a xlink:title=" ">
<path fill="none" stroke="#63b8ff" d="M475.76,-109.98C449.63,-101.16 408.59,-87.31 379.25,-77.41"/>
<polygon fill="#63b8ff" stroke="#63b8ff" points="380,-73.96 369.41,-74.08 377.76,-80.6 380,-73.96"/>
</a>
</g>
</g>
<!-- Node16 -->
<g id="Node000016" class="node">
<title>Node16</title>
<g id="a_Node000016"><a xlink:title=" ">
<polygon fill="#e0e0e0" stroke="#999999" points="829.48,-74 782.48,-74 782.48,-55 829.48,-55 829.48,-74"/>
<text text-anchor="middle" x="805.98" y="-62" font-family="Helvetica,sans-Serif" font-size="10.00">queue</text>
</a>
</g>
</g>
<!-- Node15&#45;&gt;Node16 -->
<g id="edge19_Node000015_Node000016" class="edge">
<title>Node15&#45;&gt;Node16</title>
<g id="a_edge19_Node000015_Node000016"><a xlink:title=" ">
<path fill="none" stroke="#63b8ff" d="M527.67,-111.96C530.8,-111.26 533.96,-110.59 536.98,-110 638.96,-90.05 665.9,-93.35 767.98,-74 769.44,-73.72 770.92,-73.43 772.41,-73.13"/>
<polygon fill="#63b8ff" stroke="#63b8ff" points="773.25,-76.53 782.32,-71.05 771.81,-69.68 773.25,-76.53"/>
</a>
</g>
</g>
<!-- Node17 -->
<g id="Node000017" class="node">
<title>Node17</title>
<g id="a_Node000017"><a xlink:title=" ">
<polygon fill="#e0e0e0" stroke="#999999" points="655.98,-74 605.98,-74 605.98,-55 655.98,-55 655.98,-74"/>
<text text-anchor="middle" x="630.98" y="-62" font-family="Helvetica,sans-Serif" font-size="10.00">climits</text>
</a>
</g>
</g>
<!-- Node15&#45;&gt;Node17 -->
<g id="edge21_Node000015_Node000017" class="edge">
<title>Node15&#45;&gt;Node17</title>
<g id="a_edge21_Node000015_Node000017"><a xlink:title=" ">
<path fill="none" stroke="#63b8ff" d="M521.87,-109.98C543.07,-101.34 576.11,-87.87 600.28,-78.02"/>
<polygon fill="#63b8ff" stroke="#63b8ff" points="601.78,-81.19 609.72,-74.17 599.14,-74.7 601.78,-81.19"/>
</a>
</g>
</g>
<!-- Node18 -->
<g id="Node000018" class="node">
<title>Node18</title>
<g id="a_Node000018"><a xlink:title=" ">
<polygon fill="#e0e0e0" stroke="#999999" points="725.98,-74 673.98,-74 673.98,-55 725.98,-55 725.98,-74"/>
<text text-anchor="middle" x="699.98" y="-62" font-family="Helvetica,sans-Serif" font-size="10.00">cassert</text>
</a>
</g>
</g>
<!-- Node15&#45;&gt;Node18 -->
<g id="edge22_Node000015_Node000018" class="edge">
<title>Node15&#45;&gt;Node18</title>
<g id="a_edge22_Node000015_Node000018"><a xlink:title=" ">
<path fill="none" stroke="#63b8ff" d="M527.82,-111.35C563.05,-101.97 625.01,-85.47 664.2,-75.03"/>
<polygon fill="#63b8ff" stroke="#63b8ff" points="665.12,-78.41 673.89,-72.45 663.32,-71.64 665.12,-78.41"/>
</a>
</g>
</g>
<!-- Node19&#45;&gt;Node3 -->
<g id="edge24_Node000019_Node000003" class="edge">
<title>Node19&#45;&gt;Node3</title>
<g id="a_edge24_Node000019_Node000003"><a xlink:title=" ">
<path fill="none" stroke="#63b8ff" d="M405.3,-109.98C423.64,-101.46 452.09,-88.23 473.21,-78.41"/>
<polygon fill="#63b8ff" stroke="#63b8ff" points="474.74,-81.56 482.33,-74.17 471.79,-75.21 474.74,-81.56"/>
</a>
</g>
</g>
<!-- Node19&#45;&gt;Node4 -->
<g id="edge25_Node000019_Node000004" class="edge">
<title>Node19&#45;&gt;Node4</title>
<g id="a_edge25_Node000019_Node000004"><a xlink:title=" ">
<path fill="none" stroke="#63b8ff" d="M389.7,-109.94C393.37,-96.54 398.05,-70.53 384.98,-55 361.76,-27.4 255.69,-16.32 201.32,-12.4"/>
<polygon fill="#63b8ff" stroke="#63b8ff" points="201.39,-8.89 191.18,-11.7 200.92,-15.88 201.39,-8.89"/>
</a>
</g>
</g>
<!-- Node19&#45;&gt;Node10 -->
<g id="edge28_Node000019_Node000010" class="edge">
<title>Node19&#45;&gt;Node10</title>
<g id="a_edge28_Node000019_Node000010"><a xlink:title=" ">
<path fill="none" stroke="#63b8ff" d="M396.8,-109.89C409.93,-97.3 430.24,-73.37 417.98,-55 409.85,-42.81 376.35,-30.09 348.97,-21.39"/>
<polygon fill="#63b8ff" stroke="#63b8ff" points="349.81,-17.98 339.22,-18.37 347.74,-24.67 349.81,-17.98"/>
</a>
</g>
</g>
<!-- Node19&#45;&gt;Node11 -->
<g id="edge26_Node000019_Node000011" class="edge">
<title>Node19&#45;&gt;Node11</title>
<g id="a_edge26_Node000019_Node000011"><a xlink:title=" ">
<path fill="none" stroke="#63b8ff" d="M367.54,-109.98C347.99,-101.42 317.6,-88.11 295.16,-78.28"/>
<polygon fill="#63b8ff" stroke="#63b8ff" points="296.34,-74.98 285.78,-74.17 293.53,-81.39 296.34,-74.98"/>
</a>
</g>
</g>
<!-- Node19&#45;&gt;Node12 -->
<g id="edge29_Node000019_Node000012" class="edge">
<title>Node19&#45;&gt;Node12</title>
<g id="a_edge29_Node000019_Node000012"><a xlink:title=" ">
<path fill="none" stroke="#63b8ff" d="M379.88,-109.75C373.81,-102.26 364.9,-91.28 357.47,-82.13"/>
<polygon fill="#63b8ff" stroke="#63b8ff" points="359.97,-79.65 350.95,-74.09 354.53,-84.06 359.97,-79.65"/>
</a>
</g>
</g>
<!-- Node19&#45;&gt;Node13 -->
<g id="edge27_Node000019_Node000013" class="edge">
<title>Node19&#45;&gt;Node13</title>
<g id="a_edge27_Node000019_Node000013"><a xlink:title=" ">
<path fill="none" stroke="#63b8ff" d="M358.34,-110.79C324.54,-101.7 268.14,-86.53 230.03,-76.27"/>
<polygon fill="#63b8ff" stroke="#63b8ff" points="230.85,-72.87 220.28,-73.65 229.03,-79.63 230.85,-72.87"/>
</a>
</g>
</g>
<!-- Node20 -->
<g id="Node000020" class="node">
<title>Node20</title>
<g id="a_Node000020"><a xlink:title=" ">
<polygon fill="#e0e0e0" stroke="#999999" points="587.98,-74 549.98,-74 549.98,-55 587.98,-55 587.98,-74"/>
<text text-anchor="middle" x="568.98" y="-62" font-family="Helvetica,sans-Serif" font-size="10.00">map</text>
</a>
</g>
</g>
<!-- Node19&#45;&gt;Node20 -->
<g id="edge30_Node000019_Node000020" class="edge">
<title>Node19&#45;&gt;Node20</title>
<g id="a_edge30_Node000019_Node000020"><a xlink:title=" ">
<path fill="none" stroke="#63b8ff" d="M415.68,-110.33C444.7,-102.04 491.09,-88.72 539.92,-74.29"/>
<polygon fill="#63b8ff" stroke="#63b8ff" points="541.12,-77.58 549.71,-71.39 539.13,-70.87 541.12,-77.58"/>
</a>
</g>
</g>
</g>
</svg>
