<?xml version="1.0" encoding="UTF-8" standalone="no"?>
<!DOCTYPE svg PUBLIC "-//W3C//DTD SVG 1.1//EN"
 "http://www.w3.org/Graphics/SVG/1.1/DTD/svg11.dtd">
<!-- Generated by graphviz version 2.43.0 (0)
 -->
<!-- Title: output.h Pages: 1 -->
<svg width="180pt" height="82pt"
 viewBox="0.00 0.00 180.00 82.00" xmlns="http://www.w3.org/2000/svg" xmlns:xlink="http://www.w3.org/1999/xlink">
<g id="graph0" class="graph" transform="scale(1 1) rotate(0) translate(4 78)">
<title>output.h</title>
<!-- Node1 -->
<g id="Node000001" class="node">
<title>Node1</title>
<g id="a_Node000001"><a xlink:title="Output formatter for the conference assignment tool.">
<polygon fill="#999999" stroke="#666666" points="106.5,-74 49.5,-74 49.5,-55 106.5,-55 106.5,-74"/>
<text text-anchor="middle" x="78" y="-62" font-family="Helvetica,sans-Serif" font-size="10.00">output.h</text>
</a>
</g>
</g>
<!-- Node2 -->
<g id="Node000002" class="node">
<title>Node2</title>
<g id="a_Node000002"><a xlink:href="main_8cpp.html" target="_top" xlink:title="Entry point for the Scientific Conference Organization Tool.">
<polygon fill="white" stroke="#666666" points="62,-19 0,-19 0,0 62,0 62,-19"/>
<text text-anchor="middle" x="31" y="-7" font-family="Helvetica,sans-Serif" font-size="10.00">main.cpp</text>
</a>
</g>
</g>
<!-- Node1&#45;&gt;Node2 -->
<g id="edge1_Node000001_Node000002" class="edge">
<title>Node1&#45;&gt;Node2</title>
<g id="a_edge1_Node000001_Node000002"><a xlink:title=" ">
<path fill="none" stroke="#63b8ff" d="M63.58,-47.24C55.34,-37.95 45.35,-26.68 38.62,-19.09"/>
<polygon fill="#63b8ff" stroke="#63b8ff" points="60.99,-49.59 70.24,-54.75 66.22,-44.94 60.99,-49.59"/>
</a>
</g>
</g>
<!-- Node3 -->
<g id="Node000003" class="node">
<title>Node3</title>
<g id="a_Node000003"><a xlink:href="test__output_8cpp.html" target="_top" xlink:title="End&#45;to&#45;end tests for the OutputWriter + complete pipeline.">
<polygon fill="white" stroke="#666666" points="172,-19 80,-19 80,0 172,0 172,-19"/>
<text text-anchor="middle" x="126" y="-7" font-family="Helvetica,sans-Serif" font-size="10.00">test_output.cpp</text>
</a>
</g>
</g>
<!-- Node1&#45;&gt;Node3 -->
<g id="edge2_Node000001_Node000003" class="edge">
<title>Node1&#45;&gt;Node3</title>
<g id="a_edge2_Node000001_Node000003"><a xlink:title=" ">
<path fill="none" stroke="#63b8ff" d="M92.73,-47.24C101.14,-37.95 111.35,-26.68 118.22,-19.09"/>
<polygon fill="#63b8ff" stroke="#63b8ff" points="90.04,-44.99 85.93,-54.75 95.23,-49.69 90.04,-44.99"/>
</a>
</g>
</g>
</g>
</svg>
