<?xml version="1.0" encoding="UTF-8" standalone="no"?>
<!DOCTYPE svg PUBLIC "-//W3C//DTD SVG 1.1//EN"
 "http://www.w3.org/Graphics/SVG/1.1/DTD/svg11.dtd">
<!-- Generated by graphviz version 2.43.0 (0)
 -->
<!-- Title: parser.h Pages: 1 -->
<svg width="1078pt" height="82pt"
 viewBox="0.00 0.00 1078.00 82.00" xmlns="http://www.w3.org/2000/svg" xmlns:xlink="http://www.w3.org/1999/xlink">
<g id="graph0" class="graph" transform="scale(1 1) rotate(0) translate(4 78)">
<title>parser.h</title>
<!-- Node1 -->
<g id="Node000001" class="node">
<title>Node1</title>
<g id="a_Node000001"><a xlink:title="Robust parser for the conference assignment input file format.">
<polygon fill="#999999" stroke="#666666" points="519,-74 463,-74 463,-55 519,-55 519,-74"/>
<text text-anchor="middle" x="491" y="-62" font-family="Helvetica,sans-Serif" font-size="10.00">parser.h</text>
</a>
</g>
</g>
<!-- Node2 -->
<g id="Node000002" class="node">
<title>Node2</title>
<g id="a_Node000002"><a xlink:href="main_8cpp.html" target="_top" xlink:title="Entry point for the Scientific Conference Organization Tool.">
<polygon fill="white" stroke="#666666" points="62,-19 0,-19 0,0 62,0 62,-19"/>
<text text-anchor="middle" x="31" y="-7" font-family="Helvetica,sans-Serif" font-size="10.00">main.cpp</text>
</a>
</g>
</g>
<!-- Node1&#45;&gt;Node2 -->
<g id="edge1_Node000001_Node000002" class="edge">
<title>Node1&#45;&gt;Node2</title>
<g id="a_edge1_Node000001_Node000002"><a xlink:title=" ">
<path fill="none" stroke="#63b8ff" d="M452.61,-60.77C378.52,-55.22 210.77,-41.19 71,-19 68.2,-18.55 65.29,-18.04 62.39,-17.49"/>
<polygon fill="#63b8ff" stroke="#63b8ff" points="452.62,-64.28 462.85,-61.53 453.14,-57.3 452.62,-64.28"/>
</a>
</g>
</g>
<!-- Node3 -->
<g id="Node000003" class="node">
<title>Node3</title>
<g id="a_Node000003"><a xlink:href="test__graph_8cpp.html" target="_top" xlink:title="Comprehensive unit tests for Graph, NetworkBuilder, and Solver.">
<polygon fill="white" stroke="#666666" points="169.5,-19 80.5,-19 80.5,0 169.5,0 169.5,-19"/>
<text text-anchor="middle" x="125" y="-7" font-family="Helvetica,sans-Serif" font-size="10.00">test_graph.cpp</text>
</a>
</g>
</g>
<!-- Node1&#45;&gt;Node3 -->
<g id="edge2_Node000001_Node000003" class="edge">
<title>Node1&#45;&gt;Node3</title>
<g id="a_edge2_Node000001_Node000003"><a xlink:title=" ">
<path fill="none" stroke="#63b8ff" d="M452.61,-58.21C393.72,-50.04 277.52,-33.78 179,-19 176,-18.55 172.9,-18.08 169.78,-17.6"/>
<polygon fill="#63b8ff" stroke="#63b8ff" points="452.2,-61.68 462.59,-59.59 453.16,-54.75 452.2,-61.68"/>
</a>
</g>
</g>
<!-- Node4 -->
<g id="Node000004" class="node">
<title>Node4</title>
<g id="a_Node000004"><a xlink:href="test__min2_8cpp.html" target="_top" xlink:title=" ">
<polygon fill="white" stroke="#666666" points="274,-19 188,-19 188,0 274,0 274,-19"/>
<text text-anchor="middle" x="231" y="-7" font-family="Helvetica,sans-Serif" font-size="10.00">test_min2.cpp</text>
</a>
</g>
</g>
<!-- Node1&#45;&gt;Node4 -->
<g id="edge3_Node000001_Node000004" class="edge">
<title>Node1&#45;&gt;Node4</title>
<g id="a_edge3_Node000001_Node000004"><a xlink:title=" ">
<path fill="none" stroke="#63b8ff" d="M452.69,-55.69C404.67,-45.9 322.66,-29.19 272.99,-19.06"/>
<polygon fill="#63b8ff" stroke="#63b8ff" points="452.18,-59.16 462.68,-57.73 453.58,-52.3 452.18,-59.16"/>
</a>
</g>
</g>
<!-- Node5 -->
<g id="Node000005" class="node">
<title>Node5</title>
<g id="a_Node000005"><a xlink:href="test__min3_8cpp.html" target="_top" xlink:title=" ">
<polygon fill="white" stroke="#666666" points="378,-19 292,-19 292,0 378,0 378,-19"/>
<text text-anchor="middle" x="335" y="-7" font-family="Helvetica,sans-Serif" font-size="10.00">test_min3.cpp</text>
</a>
</g>
</g>
<!-- Node1&#45;&gt;Node5 -->
<g id="edge4_Node000001_Node000005" class="edge">
<title>Node1&#45;&gt;Node5</title>
<g id="a_edge4_Node000001_Node000005"><a xlink:title=" ">
<path fill="none" stroke="#63b8ff" d="M456.18,-51.67C427.09,-41.79 386.3,-27.93 360.26,-19.08"/>
<polygon fill="#63b8ff" stroke="#63b8ff" points="455.34,-55.08 465.94,-54.98 457.59,-48.45 455.34,-55.08"/>
</a>
</g>
</g>
<!-- Node6 -->
<g id="Node000006" class="node">
<title>Node6</title>
<g id="a_Node000006"><a xlink:href="test__min4_8cpp.html" target="_top" xlink:title=" ">
<polygon fill="white" stroke="#666666" points="482,-19 396,-19 396,0 482,0 482,-19"/>
<text text-anchor="middle" x="439" y="-7" font-family="Helvetica,sans-Serif" font-size="10.00">test_min4.cpp</text>
</a>
</g>
</g>
<!-- Node1&#45;&gt;Node6 -->
<g id="edge5_Node000001_Node000006" class="edge">
<title>Node1&#45;&gt;Node6</title>
<g id="a_edge5_Node000001_Node000006"><a xlink:title=" ">
<path fill="none" stroke="#63b8ff" d="M475.32,-47.52C466.16,-38.18 454.95,-26.75 447.43,-19.09"/>
<polygon fill="#63b8ff" stroke="#63b8ff" points="472.91,-50.06 482.41,-54.75 477.91,-45.16 472.91,-50.06"/>
</a>
</g>
</g>
<!-- Node7 -->
<g id="Node000007" class="node">
<title>Node7</title>
<g id="a_Node000007"><a xlink:href="test__min5_8cpp.html" target="_top" xlink:title=" ">
<polygon fill="white" stroke="#666666" points="586,-19 500,-19 500,0 586,0 586,-19"/>
<text text-anchor="middle" x="543" y="-7" font-family="Helvetica,sans-Serif" font-size="10.00">test_min5.cpp</text>
</a>
</g>
</g>
<!-- Node1&#45;&gt;Node7 -->
<g id="edge6_Node000001_Node000007" class="edge">
<title>Node1&#45;&gt;Node7</title>
<g id="a_edge6_Node000001_Node000007"><a xlink:title=" ">
<path fill="none" stroke="#63b8ff" d="M506.68,-47.52C515.84,-38.18 527.05,-26.75 534.57,-19.09"/>
<polygon fill="#63b8ff" stroke="#63b8ff" points="504.09,-45.16 499.59,-54.75 509.09,-50.06 504.09,-45.16"/>
</a>
</g>
</g>
<!-- Node8 -->
<g id="Node000008" class="node">
<title>Node8</title>
<g id="a_Node000008"><a xlink:href="test__minimal_8cpp.html" target="_top" xlink:title=" ">
<polygon fill="white" stroke="#666666" points="705.5,-19 604.5,-19 604.5,0 705.5,0 705.5,-19"/>
<text text-anchor="middle" x="655" y="-7" font-family="Helvetica,sans-Serif" font-size="10.00">test_minimal.cpp</text>
</a>
</g>
</g>
<!-- Node1&#45;&gt;Node8 -->
<g id="edge7_Node000001_Node000008" class="edge">
<title>Node1&#45;&gt;Node8</title>
<g id="a_edge7_Node000001_Node000008"><a xlink:title=" ">
<path fill="none" stroke="#63b8ff" d="M527.21,-51.8C557.82,-41.91 600.95,-27.97 628.44,-19.08"/>
<polygon fill="#63b8ff" stroke="#63b8ff" points="525.79,-48.58 517.35,-54.98 527.94,-55.24 525.79,-48.58"/>
</a>
</g>
</g>
<!-- Node9 -->
<g id="Node000009" class="node">
<title>Node9</title>
<g id="a_Node000009"><a xlink:href="test__output_8cpp.html" target="_top" xlink:title="End&#45;to&#45;end tests for the OutputWriter + complete pipeline.">
<polygon fill="white" stroke="#666666" points="816,-19 724,-19 724,0 816,0 816,-19"/>
<text text-anchor="middle" x="770" y="-7" font-family="Helvetica,sans-Serif" font-size="10.00">test_output.cpp</text>
</a>
</g>
</g>
<!-- Node1&#45;&gt;Node9 -->
<g id="edge8_Node000001_Node000009" class="edge">
<title>Node1&#45;&gt;Node9</title>
<g id="a_edge8_Node000001_Node000009"><a xlink:title=" ">
<path fill="none" stroke="#63b8ff" d="M528.99,-56.28C580.05,-46.58 670.66,-29.37 725.05,-19.04"/>
<polygon fill="#63b8ff" stroke="#63b8ff" points="528.2,-52.87 519.03,-58.18 529.51,-59.75 528.2,-52.87"/>
</a>
</g>
</g>
<!-- Node10 -->
<g id="Node000010" class="node">
<title>Node10</title>
<g id="a_Node000010"><a xlink:href="test__parser_8cpp.html" target="_top" xlink:title="Comprehensive unit tests for the Parser state machine.">
<polygon fill="white" stroke="#666666" points="925.5,-19 834.5,-19 834.5,0 925.5,0 925.5,-19"/>
<text text-anchor="middle" x="880" y="-7" font-family="Helvetica,sans-Serif" font-size="10.00">test_parser.cpp</text>
</a>
</g>
</g>
<!-- Node1&#45;&gt;Node10 -->
<g id="edge9_Node000001_Node000010" class="edge">
<title>Node1&#45;&gt;Node10</title>
<g id="a_edge9_Node000001_Node000010"><a xlink:title=" ">
<path fill="none" stroke="#63b8ff" d="M529.3,-58.66C591.42,-50.75 717.99,-34.4 825,-19 828.06,-18.56 831.21,-18.1 834.39,-17.62"/>
<polygon fill="#63b8ff" stroke="#63b8ff" points="528.66,-55.21 519.18,-59.95 529.54,-62.16 528.66,-55.21"/>
</a>
</g>
</g>
<!-- Node11 -->
<g id="Node000011" class="node">
<title>Node11</title>
<g id="a_Node000011"><a xlink:href="test__parser__single_8cpp.html" target="_top" xlink:title=" ">
<polygon fill="white" stroke="#666666" points="1070,-19 944,-19 944,0 1070,0 1070,-19"/>
<text text-anchor="middle" x="1007" y="-7" font-family="Helvetica,sans-Serif" font-size="10.00">test_parser_single.cpp</text>
</a>
</g>
</g>
<!-- Node1&#45;&gt;Node11 -->
<g id="edge10_Node000001_Node000011" class="edge">
<title>Node1&#45;&gt;Node11</title>
<g id="a_edge10_Node000001_Node000011"><a xlink:title=" ">
<path fill="none" stroke="#63b8ff" d="M529.23,-59.9C606.12,-52.6 784.95,-35.37 935,-19 937.88,-18.69 940.82,-18.36 943.79,-18.03"/>
<polygon fill="#63b8ff" stroke="#63b8ff" points="528.69,-56.43 519.07,-60.86 529.36,-63.4 528.69,-56.43"/>
</a>
</g>
</g>
</g>
</svg>
