<?xml version="1.0" encoding="UTF-8" standalone="no"?>
<!DOCTYPE svg PUBLIC "-//W3C//DTD SVG 1.1//EN"
 "http://www.w3.org/Graphics/SVG/1.1/DTD/svg11.dtd">
<!-- Generated by graphviz version 2.43.0 (0)
 -->
<!-- Title: SolverResult::isComplete Pages: 1 -->
<svg width="792pt" height="270pt"
 viewBox="0.00 0.00 792.00 270.00" xmlns="http://www.w3.org/2000/svg" xmlns:xlink="http://www.w3.org/1999/xlink">
<g id="graph0" class="graph" transform="scale(1 1) rotate(0) translate(4 266)">
<title>SolverResult::isComplete</title>
<!-- Node1 -->
<g id="Node000001" class="node">
<title>Node1</title>
<g id="a_Node000001"><a xlink:title="Whether the assignment is fully satisfied.">
<polygon fill="#999999" stroke="#666666" points="784,-225 644,-225 644,-206 784,-206 784,-225"/>
<text text-anchor="middle" x="714" y="-213" font-family="Helvetica,sans-Serif" font-size="10.00">SolverResult::isComplete</text>
</a>
</g>
</g>
<!-- Node2 -->
<g id="Node000002" class="node">
<title>Node2</title>
<g id="a_Node000002"><a xlink:href="test__domain_8cpp.html#ae66f6b31b5ad750f1fe042a706a4e3d4" target="_top" xlink:title=" ">
<polygon fill="white" stroke="#666666" points="544.5,-262 503.5,-262 503.5,-243 544.5,-243 544.5,-262"/>
<text text-anchor="middle" x="524" y="-250" font-family="Helvetica,sans-Serif" font-size="10.00">main</text>
</a>
</g>
</g>
<!-- Node1&#45;&gt;Node2 -->
<g id="edge1_Node000001_Node000002" class="edge">
<title>Node1&#45;&gt;Node2</title>
<g id="a_edge1_Node000001_Node000002"><a xlink:title=" ">
<path fill="none" stroke="#63b8ff" d="M654.74,-226.97C617.15,-234.36 570.6,-243.53 544.72,-248.62"/>
<polygon fill="#63b8ff" stroke="#63b8ff" points="655.45,-230.39 664.59,-225.03 654.1,-223.53 655.45,-230.39"/>
</a>
</g>
</g>
<!-- Node3 -->
<g id="Node000003" class="node">
<title>Node3</title>
<g id="a_Node000003"><a xlink:href="test__graph_8cpp.html#ad31c62f747c428536c260667126eae66" target="_top" xlink:title=" ">
<polygon fill="white" stroke="#666666" points="577.5,-225 470.5,-225 470.5,-206 577.5,-206 577.5,-225"/>
<text text-anchor="middle" x="524" y="-213" font-family="Helvetica,sans-Serif" font-size="10.00">test_solver_partial</text>
</a>
</g>
</g>
<!-- Node1&#45;&gt;Node3 -->
<g id="edge2_Node000001_Node000003" class="edge">
<title>Node1&#45;&gt;Node3</title>
<g id="a_edge2_Node000001_Node000003"><a xlink:title=" ">
<path fill="none" stroke="#63b8ff" d="M633.68,-215.5C614.74,-215.5 594.98,-215.5 577.58,-215.5"/>
<polygon fill="#63b8ff" stroke="#63b8ff" points="633.8,-219 643.8,-215.5 633.8,-212 633.8,-219"/>
</a>
</g>
</g>
<!-- Node5 -->
<g id="Node000005" class="node">
<title>Node5</title>
<g id="a_Node000005"><a xlink:href="classOutputWriter.html#a6e32add7759c83e565390d14cd1bb339" target="_top" xlink:title="Writes the assignment sections to any output stream.">
<polygon fill="white" stroke="#666666" points="608,-187.5 440,-187.5 440,-157.5 608,-157.5 608,-187.5"/>
<text text-anchor="start" x="448" y="-175.5" font-family="Helvetica,sans-Serif" font-size="10.00">OutputWriter::writeAssignment</text>
<text text-anchor="middle" x="524" y="-164.5" font-family="Helvetica,sans-Serif" font-size="10.00">Section</text>
</a>
</g>
</g>
<!-- Node1&#45;&gt;Node5 -->
<g id="edge4_Node000001_Node000005" class="edge">
<title>Node1&#45;&gt;Node5</title>
<g id="a_edge4_Node000001_Node000005"><a xlink:title=" ">
<path fill="none" stroke="#63b8ff" d="M661.52,-203.72C639.63,-198.72 613.84,-192.82 590.61,-187.51"/>
<polygon fill="#63b8ff" stroke="#63b8ff" points="660.75,-207.14 671.28,-205.96 662.31,-200.32 660.75,-207.14"/>
</a>
</g>
</g>
<!-- Node4 -->
<g id="Node000004" class="node">
<title>Node4</title>
<g id="a_Node000004"><a xlink:href="test__graph_8cpp.html#ae66f6b31b5ad750f1fe042a706a4e3d4" target="_top" xlink:title=" ">
<polygon fill="white" stroke="#666666" points="345.5,-225 304.5,-225 304.5,-206 345.5,-206 345.5,-225"/>
<text text-anchor="middle" x="325" y="-213" font-family="Helvetica,sans-Serif" font-size="10.00">main</text>
</a>
</g>
</g>
<!-- Node3&#45;&gt;Node4 -->
<g id="edge3_Node000003_Node000004" class="edge">
<title>Node3&#45;&gt;Node4</title>
<g id="a_edge3_Node000003_Node000004"><a xlink:title=" ">
<path fill="none" stroke="#63b8ff" d="M460.37,-215.5C420.83,-215.5 372.37,-215.5 345.79,-215.5"/>
<polygon fill="#63b8ff" stroke="#63b8ff" points="460.47,-219 470.47,-215.5 460.47,-212 460.47,-219"/>
</a>
</g>
</g>
<!-- Node6 -->
<g id="Node000006" class="node">
<title>Node6</title>
<g id="a_Node000006"><a xlink:href="classOutputWriter.html#a1479597905031ccc3f547b1d5265ac52" target="_top" xlink:title="Prints the assignment results to the console.">
<polygon fill="white" stroke="#666666" points="404,-185 246,-185 246,-166 404,-166 404,-185"/>
<text text-anchor="middle" x="325" y="-173" font-family="Helvetica,sans-Serif" font-size="10.00">OutputWriter::printToConsole</text>
</a>
</g>
</g>
<!-- Node5&#45;&gt;Node6 -->
<g id="edge5_Node000005_Node000006" class="edge">
<title>Node5&#45;&gt;Node6</title>
<g id="a_edge5_Node000005_Node000006"><a xlink:title=" ">
<path fill="none" stroke="#63b8ff" d="M429.48,-173.92C421.04,-174.05 412.55,-174.18 404.26,-174.31"/>
<polygon fill="#63b8ff" stroke="#63b8ff" points="429.79,-177.42 439.74,-173.77 429.69,-170.42 429.79,-177.42"/>
</a>
</g>
</g>
<!-- Node9 -->
<g id="Node000009" class="node">
<title>Node9</title>
<g id="a_Node000009"><a xlink:href="classOutputWriter.html#a293621b584934c41795c2ada849f90eb" target="_top" xlink:title="Writes the complete assignment output to a file.">
<polygon fill="white" stroke="#666666" points="394,-130 256,-130 256,-111 394,-111 394,-130"/>
<text text-anchor="middle" x="325" y="-118" font-family="Helvetica,sans-Serif" font-size="10.00">OutputWriter::writeToFile</text>
</a>
</g>
</g>
<!-- Node5&#45;&gt;Node9 -->
<g id="edge8_Node000005_Node000009" class="edge">
<title>Node5&#45;&gt;Node9</title>
<g id="a_edge8_Node000005_Node000009"><a xlink:title=" ">
<path fill="none" stroke="#63b8ff" d="M455.99,-154.81C424.53,-146.51 388.28,-136.94 362.07,-130.02"/>
<polygon fill="#63b8ff" stroke="#63b8ff" points="455.46,-158.29 466.02,-157.46 457.24,-151.52 455.46,-158.29"/>
</a>
</g>
</g>
<!-- Node7 -->
<g id="Node000007" class="node">
<title>Node7</title>
<g id="a_Node000007"><a xlink:href="main_8cpp.html#aef0bcc404dd408e438ce7fa09e4ea3f7" target="_top" xlink:title="Executes the program in interactive mode.">
<polygon fill="white" stroke="#666666" points="186,-204 101,-204 101,-185 186,-185 186,-204"/>
<text text-anchor="middle" x="143.5" y="-192" font-family="Helvetica,sans-Serif" font-size="10.00">runInteractive</text>
</a>
</g>
</g>
<!-- Node6&#45;&gt;Node7 -->
<g id="edge6_Node000006_Node000007" class="edge">
<title>Node6&#45;&gt;Node7</title>
<g id="a_edge6_Node000006_Node000007"><a xlink:title=" ">
<path fill="none" stroke="#63b8ff" d="M235.7,-184.85C218.52,-186.67 201.26,-188.49 186.46,-190.06"/>
<polygon fill="#63b8ff" stroke="#63b8ff" points="236.21,-188.31 245.79,-183.78 235.48,-181.35 236.21,-188.31"/>
</a>
</g>
</g>
<!-- Node8 -->
<g id="Node000008" class="node">
<title>Node8</title>
<g id="a_Node000008"><a xlink:href="main_8cpp.html#a0ddf1224851353fc92bfbff6f499fa97" target="_top" xlink:title="Program entry point.">
<polygon fill="white" stroke="#666666" points="41,-185 0,-185 0,-166 41,-166 41,-185"/>
<text text-anchor="middle" x="20.5" y="-173" font-family="Helvetica,sans-Serif" font-size="10.00">main</text>
</a>
</g>
</g>
<!-- Node7&#45;&gt;Node8 -->
<g id="edge7_Node000007_Node000008" class="edge">
<title>Node7&#45;&gt;Node8</title>
<g id="a_edge7_Node000007_Node000008"><a xlink:title=" ">
<path fill="none" stroke="#63b8ff" d="M90.69,-186.36C73.15,-183.61 54.62,-180.7 41.15,-178.59"/>
<polygon fill="#63b8ff" stroke="#63b8ff" points="90.44,-189.87 100.86,-187.96 91.52,-182.95 90.44,-189.87"/>
</a>
</g>
</g>
<!-- Node9&#45;&gt;Node7 -->
<g id="edge11_Node000009_Node000007" class="edge">
<title>Node9&#45;&gt;Node7</title>
<g id="a_edge11_Node000009_Node000007"><a xlink:title=" ">
<path fill="none" stroke="#63b8ff" d="M293.55,-134.58C279.07,-141.36 261.57,-149.7 246,-157.5 229.82,-165.6 226.82,-169.84 210,-176.5 202,-179.67 193.23,-182.49 184.79,-184.91"/>
<polygon fill="#63b8ff" stroke="#63b8ff" points="295.44,-137.55 303.03,-130.15 292.48,-131.21 295.44,-137.55"/>
</a>
</g>
</g>
<!-- Node10 -->
<g id="Node000010" class="node">
<title>Node10</title>
<g id="a_Node000010"><a xlink:href="main_8cpp.html#adccc9f5ff7d7a84b4f757ddc2e00c25b" target="_top" xlink:title="Executes the program in batch mode.">
<polygon fill="white" stroke="#666666" points="173.5,-167 113.5,-167 113.5,-148 173.5,-148 173.5,-167"/>
<text text-anchor="middle" x="143.5" y="-155" font-family="Helvetica,sans-Serif" font-size="10.00">runBatch</text>
</a>
</g>
</g>
<!-- Node9&#45;&gt;Node10 -->
<g id="edge9_Node000009_Node000010" class="edge">
<title>Node9&#45;&gt;Node10</title>
<g id="a_edge9_Node000009_Node000010"><a xlink:title=" ">
<path fill="none" stroke="#63b8ff" d="M267.89,-132.07C236.68,-138.5 199.13,-146.24 173.71,-151.48"/>
<polygon fill="#63b8ff" stroke="#63b8ff" points="268.69,-135.48 277.77,-130.03 267.27,-128.62 268.69,-135.48"/>
</a>
</g>
</g>
<!-- Node11 -->
<g id="Node000011" class="node">
<title>Node11</title>
<g id="a_Node000011"><a xlink:href="test__output_8cpp.html#ad98b96469ee1c28ab8390957efbc52e5" target="_top" xlink:title=" ">
<polygon fill="white" stroke="#666666" points="210,-130 77,-130 77,-111 210,-111 210,-130"/>
<text text-anchor="middle" x="143.5" y="-118" font-family="Helvetica,sans-Serif" font-size="10.00">test_full_batch_pipeline</text>
</a>
</g>
</g>
<!-- Node9&#45;&gt;Node11 -->
<g id="edge12_Node000009_Node000011" class="edge">
<title>Node9&#45;&gt;Node11</title>
<g id="a_edge12_Node000009_Node000011"><a xlink:title=" ">
<path fill="none" stroke="#63b8ff" d="M245.59,-120.5C233.78,-120.5 221.71,-120.5 210.2,-120.5"/>
<polygon fill="#63b8ff" stroke="#63b8ff" points="245.88,-124 255.88,-120.5 245.88,-117 245.88,-124"/>
</a>
</g>
</g>
<!-- Node13 -->
<g id="Node000013" class="node">
<title>Node13</title>
<g id="a_Node000013"><a xlink:href="test__output_8cpp.html#ae22f862265d01c0acb3649c247f4a726" target="_top" xlink:title=" ">
<polygon fill="white" stroke="#666666" points="199,-93 88,-93 88,-74 199,-74 199,-93"/>
<text text-anchor="middle" x="143.5" y="-81" font-family="Helvetica,sans-Serif" font-size="10.00">test_output_figure2</text>
</a>
</g>
</g>
<!-- Node9&#45;&gt;Node13 -->
<g id="edge14_Node000009_Node000013" class="edge">
<title>Node9&#45;&gt;Node13</title>
<g id="a_edge14_Node000009_Node000013"><a xlink:title=" ">
<path fill="none" stroke="#63b8ff" d="M267.8,-108.92C243.07,-103.82 214.37,-97.9 190.88,-93.06"/>
<polygon fill="#63b8ff" stroke="#63b8ff" points="267.27,-112.38 277.77,-110.97 268.69,-105.52 267.27,-112.38"/>
</a>
</g>
</g>
<!-- Node14 -->
<g id="Node000014" class="node">
<title>Node14</title>
<g id="a_Node000014"><a xlink:href="test__output_8cpp.html#a998d4d57520dc3729aada36d40d97db9" target="_top" xlink:title=" ">
<polygon fill="white" stroke="#666666" points="199,-56 88,-56 88,-37 199,-37 199,-56"/>
<text text-anchor="middle" x="143.5" y="-44" font-family="Helvetica,sans-Serif" font-size="10.00">test_output_figure3</text>
</a>
</g>
</g>
<!-- Node9&#45;&gt;Node14 -->
<g id="edge16_Node000009_Node000014" class="edge">
<title>Node9&#45;&gt;Node14</title>
<g id="a_edge16_Node000009_Node000014"><a xlink:title=" ">
<path fill="none" stroke="#63b8ff" d="M297.61,-106.21C274.85,-94.26 240.88,-77.33 210,-65.5 200.93,-62.03 190.96,-58.83 181.58,-56.09"/>
<polygon fill="#63b8ff" stroke="#63b8ff" points="296.16,-109.4 306.63,-110.99 299.44,-103.21 296.16,-109.4"/>
</a>
</g>
</g>
<!-- Node15 -->
<g id="Node000015" class="node">
<title>Node15</title>
<g id="a_Node000015"><a xlink:href="test__output_8cpp.html#aaa716ae6efa6c8bef11ea699a4be56d2" target="_top" xlink:title=" ">
<polygon fill="white" stroke="#666666" points="197.5,-19 89.5,-19 89.5,0 197.5,0 197.5,-19"/>
<text text-anchor="middle" x="143.5" y="-7" font-family="Helvetica,sans-Serif" font-size="10.00">test_output_sorted</text>
</a>
</g>
</g>
<!-- Node9&#45;&gt;Node15 -->
<g id="edge18_Node000009_Node000015" class="edge">
<title>Node9&#45;&gt;Node15</title>
<g id="a_edge18_Node000009_Node000015"><a xlink:title=" ">
<path fill="none" stroke="#63b8ff" d="M307.85,-103.55C287.09,-82.71 249.05,-47.64 210,-27.5 203.5,-24.15 196.31,-21.36 189.14,-19.07"/>
<polygon fill="#63b8ff" stroke="#63b8ff" points="305.43,-106.08 314.93,-110.77 310.43,-101.18 305.43,-106.08"/>
</a>
</g>
</g>
<!-- Node10&#45;&gt;Node8 -->
<g id="edge10_Node000010_Node000008" class="edge">
<title>Node10&#45;&gt;Node8</title>
<g id="a_edge10_Node000010_Node000008"><a xlink:title=" ">
<path fill="none" stroke="#63b8ff" d="M103.07,-163.37C82.31,-166.45 57.78,-170.1 41.08,-172.59"/>
<polygon fill="#63b8ff" stroke="#63b8ff" points="103.83,-166.79 113.21,-161.86 102.8,-159.87 103.83,-166.79"/>
</a>
</g>
</g>
<!-- Node12 -->
<g id="Node000012" class="node">
<title>Node12</title>
<g id="a_Node000012"><a xlink:href="test__output_8cpp.html#ae66f6b31b5ad750f1fe042a706a4e3d4" target="_top" xlink:title=" ">
<polygon fill="white" stroke="#666666" points="41,-75 0,-75 0,-56 41,-56 41,-75"/>
<text text-anchor="middle" x="20.5" y="-63" font-family="Helvetica,sans-Serif" font-size="10.00">main</text>
</a>
</g>
</g>
<!-- Node11&#45;&gt;Node12 -->
<g id="edge13_Node000011_Node000012" class="edge">
<title>Node11&#45;&gt;Node12</title>
<g id="a_edge13_Node000011_Node000012"><a xlink:title=" ">
<path fill="none" stroke="#63b8ff" d="M90.02,-107.71C85.55,-106.13 81.16,-104.4 77,-102.5 60.99,-95.19 44.42,-83.52 33.61,-75.24"/>
<polygon fill="#63b8ff" stroke="#63b8ff" points="89.27,-111.15 99.87,-110.92 91.44,-104.49 89.27,-111.15"/>
</a>
</g>
</g>
<!-- Node13&#45;&gt;Node12 -->
<g id="edge15_Node000013_Node000012" class="edge">
<title>Node13&#45;&gt;Node12</title>
<g id="a_edge15_Node000013_Node000012"><a xlink:title=" ">
<path fill="none" stroke="#63b8ff" d="M77.5,-73.83C64.23,-71.86 51.24,-69.92 41.13,-68.42"/>
<polygon fill="#63b8ff" stroke="#63b8ff" points="77.26,-77.33 87.66,-75.34 78.29,-70.41 77.26,-77.33"/>
</a>
</g>
</g>
<!-- Node14&#45;&gt;Node12 -->
<g id="edge17_Node000014_Node000012" class="edge">
<title>Node14&#45;&gt;Node12</title>
<g id="a_edge17_Node000014_Node000012"><a xlink:title=" ">
<path fill="none" stroke="#63b8ff" d="M77.5,-56.71C64.23,-58.79 51.24,-60.83 41.13,-62.42"/>
<polygon fill="#63b8ff" stroke="#63b8ff" points="78.33,-60.12 87.66,-55.11 77.24,-53.2 78.33,-60.12"/>
</a>
</g>
</g>
<!-- Node15&#45;&gt;Node12 -->
<g id="edge19_Node000015_Node000012" class="edge">
<title>Node15&#45;&gt;Node12</title>
<g id="a_edge19_Node000015_Node000012"><a xlink:title=" ">
<path fill="none" stroke="#63b8ff" d="M90,-22.24C85.53,-23.83 81.14,-25.58 77,-27.5 60.69,-35.07 43.92,-47.28 33.14,-55.81"/>
<polygon fill="#63b8ff" stroke="#63b8ff" points="91.42,-25.45 99.83,-19.01 89.24,-18.8 91.42,-25.45"/>
</a>
</g>
</g>
</g>
</svg>
