<?xml version="1.0" encoding="UTF-8" standalone="no"?>
<!DOCTYPE svg PUBLIC "-//W3C//DTD SVG 1.1//EN"
 "http://www.w3.org/Graphics/SVG/1.1/DTD/svg11.dtd">
<!-- Generated by graphviz version 2.43.0 (0)
 -->
<!-- Title: Config::shouldAnalyzeRisk Pages: 1 -->
<svg width="594pt" height="212pt"
 viewBox="0.00 0.00 594.00 212.00" xmlns="http://www.w3.org/2000/svg" xmlns:xlink="http://www.w3.org/1999/xlink">
<g id="graph0" class="graph" transform="scale(1 1) rotate(0) translate(4 208)">
<title>Config::shouldAnalyzeRisk</title>
<!-- Node1 -->
<g id="Node000001" class="node">
<title>Node1</title>
<g id="a_Node000001"><a xlink:title="Whether risk analysis should be performed.">
<polygon fill="#999999" stroke="#666666" points="586,-166 440,-166 440,-147 586,-147 586,-166"/>
<text text-anchor="middle" x="513" y="-154" font-family="Helvetica,sans-Serif" font-size="10.00">Config::shouldAnalyzeRisk</text>
</a>
</g>
</g>
<!-- Node2 -->
<g id="Node000002" class="node">
<title>Node2</title>
<g id="a_Node000002"><a xlink:href="classOutputWriter.html#a1479597905031ccc3f547b1d5265ac52" target="_top" xlink:title="Prints the assignment results to the console.">
<polygon fill="white" stroke="#666666" points="404,-204 246,-204 246,-185 404,-185 404,-204"/>
<text text-anchor="middle" x="325" y="-192" font-family="Helvetica,sans-Serif" font-size="10.00">OutputWriter::printToConsole</text>
</a>
</g>
</g>
<!-- Node1&#45;&gt;Node2 -->
<g id="edge1_Node000001_Node000002" class="edge">
<title>Node1&#45;&gt;Node2</title>
<g id="a_edge1_Node000001_Node000002"><a xlink:title=" ">
<path fill="none" stroke="#63b8ff" d="M455.17,-168.11C428.72,-173.51 397.64,-179.86 372.6,-184.98"/>
<polygon fill="#63b8ff" stroke="#63b8ff" points="455.97,-171.52 465.06,-166.09 454.57,-164.66 455.97,-171.52"/>
</a>
</g>
</g>
<!-- Node5 -->
<g id="Node000005" class="node">
<title>Node5</title>
<g id="a_Node000005"><a xlink:href="main_8cpp.html#adccc9f5ff7d7a84b4f757ddc2e00c25b" target="_top" xlink:title="Executes the program in batch mode.">
<polygon fill="white" stroke="#666666" points="173.5,-167 113.5,-167 113.5,-148 173.5,-148 173.5,-167"/>
<text text-anchor="middle" x="143.5" y="-155" font-family="Helvetica,sans-Serif" font-size="10.00">runBatch</text>
</a>
</g>
</g>
<!-- Node1&#45;&gt;Node5 -->
<g id="edge4_Node000001_Node000005" class="edge">
<title>Node1&#45;&gt;Node5</title>
<g id="a_edge4_Node000001_Node000005"><a xlink:title=" ">
<path fill="none" stroke="#63b8ff" d="M429.63,-156.72C348.36,-156.95 228.6,-157.27 173.81,-157.42"/>
<polygon fill="#63b8ff" stroke="#63b8ff" points="429.84,-160.22 439.83,-156.7 429.82,-153.22 429.84,-160.22"/>
</a>
</g>
</g>
<!-- Node6 -->
<g id="Node000006" class="node">
<title>Node6</title>
<g id="a_Node000006"><a xlink:href="classOutputWriter.html#a293621b584934c41795c2ada849f90eb" target="_top" xlink:title="Writes the complete assignment output to a file.">
<polygon fill="white" stroke="#666666" points="394,-128 256,-128 256,-109 394,-109 394,-128"/>
<text text-anchor="middle" x="325" y="-116" font-family="Helvetica,sans-Serif" font-size="10.00">OutputWriter::writeToFile</text>
</a>
</g>
</g>
<!-- Node1&#45;&gt;Node6 -->
<g id="edge6_Node000001_Node000006" class="edge">
<title>Node1&#45;&gt;Node6</title>
<g id="a_edge6_Node000001_Node000006"><a xlink:title=" ">
<path fill="none" stroke="#63b8ff" d="M455.17,-144.89C428.72,-139.49 397.64,-133.14 372.6,-128.02"/>
<polygon fill="#63b8ff" stroke="#63b8ff" points="454.57,-148.34 465.06,-146.91 455.97,-141.48 454.57,-148.34"/>
</a>
</g>
</g>
<!-- Node3 -->
<g id="Node000003" class="node">
<title>Node3</title>
<g id="a_Node000003"><a xlink:href="main_8cpp.html#aef0bcc404dd408e438ce7fa09e4ea3f7" target="_top" xlink:title="Executes the program in interactive mode.">
<polygon fill="white" stroke="#666666" points="186,-204 101,-204 101,-185 186,-185 186,-204"/>
<text text-anchor="middle" x="143.5" y="-192" font-family="Helvetica,sans-Serif" font-size="10.00">runInteractive</text>
</a>
</g>
</g>
<!-- Node2&#45;&gt;Node3 -->
<g id="edge2_Node000002_Node000003" class="edge">
<title>Node2&#45;&gt;Node3</title>
<g id="a_edge2_Node000002_Node000003"><a xlink:title=" ">
<path fill="none" stroke="#63b8ff" d="M235.7,-194.5C218.52,-194.5 201.26,-194.5 186.46,-194.5"/>
<polygon fill="#63b8ff" stroke="#63b8ff" points="235.79,-198 245.79,-194.5 235.79,-191 235.79,-198"/>
</a>
</g>
</g>
<!-- Node4 -->
<g id="Node000004" class="node">
<title>Node4</title>
<g id="a_Node000004"><a xlink:href="main_8cpp.html#a0ddf1224851353fc92bfbff6f499fa97" target="_top" xlink:title="Program entry point.">
<polygon fill="white" stroke="#666666" points="41,-185 0,-185 0,-166 41,-166 41,-185"/>
<text text-anchor="middle" x="20.5" y="-173" font-family="Helvetica,sans-Serif" font-size="10.00">main</text>
</a>
</g>
</g>
<!-- Node3&#45;&gt;Node4 -->
<g id="edge3_Node000003_Node000004" class="edge">
<title>Node3&#45;&gt;Node4</title>
<g id="a_edge3_Node000003_Node000004"><a xlink:title=" ">
<path fill="none" stroke="#63b8ff" d="M90.69,-186.36C73.15,-183.61 54.62,-180.7 41.15,-178.59"/>
<polygon fill="#63b8ff" stroke="#63b8ff" points="90.44,-189.87 100.86,-187.96 91.52,-182.95 90.44,-189.87"/>
</a>
</g>
</g>
<!-- Node5&#45;&gt;Node4 -->
<g id="edge5_Node000005_Node000004" class="edge">
<title>Node5&#45;&gt;Node4</title>
<g id="a_edge5_Node000005_Node000004"><a xlink:title=" ">
<path fill="none" stroke="#63b8ff" d="M103.07,-163.37C82.31,-166.45 57.78,-170.1 41.08,-172.59"/>
<polygon fill="#63b8ff" stroke="#63b8ff" points="103.83,-166.79 113.21,-161.86 102.8,-159.87 103.83,-166.79"/>
</a>
</g>
</g>
<!-- Node6&#45;&gt;Node3 -->
<g id="edge8_Node000006_Node000003" class="edge">
<title>Node6&#45;&gt;Node3</title>
<g id="a_edge8_Node000006_Node000003"><a xlink:title=" ">
<path fill="none" stroke="#63b8ff" d="M298.93,-133.12C276.27,-145.88 241.71,-164.22 210,-176.5 201.86,-179.65 192.96,-182.48 184.41,-184.92"/>
<polygon fill="#63b8ff" stroke="#63b8ff" points="300.91,-136.02 307.87,-128.03 297.45,-129.94 300.91,-136.02"/>
</a>
</g>
</g>
<!-- Node6&#45;&gt;Node5 -->
<g id="edge7_Node000006_Node000005" class="edge">
<title>Node6&#45;&gt;Node5</title>
<g id="a_edge7_Node000006_Node000005"><a xlink:title=" ">
<path fill="none" stroke="#63b8ff" d="M270.09,-130.21C238.44,-137.09 199.68,-145.51 173.66,-151.16"/>
<polygon fill="#63b8ff" stroke="#63b8ff" points="271.06,-133.58 280.09,-128.04 269.57,-126.74 271.06,-133.58"/>
</a>
</g>
</g>
<!-- Node7 -->
<g id="Node000007" class="node">
<title>Node7</title>
<g id="a_Node000007"><a xlink:href="test__output_8cpp.html#ad98b96469ee1c28ab8390957efbc52e5" target="_top" xlink:title=" ">
<polygon fill="white" stroke="#666666" points="210,-130 77,-130 77,-111 210,-111 210,-130"/>
<text text-anchor="middle" x="143.5" y="-118" font-family="Helvetica,sans-Serif" font-size="10.00">test_full_batch_pipeline</text>
</a>
</g>
</g>
<!-- Node6&#45;&gt;Node7 -->
<g id="edge9_Node000006_Node000007" class="edge">
<title>Node6&#45;&gt;Node7</title>
<g id="a_edge9_Node000006_Node000007"><a xlink:title=" ">
<path fill="none" stroke="#63b8ff" d="M245.59,-119.37C233.78,-119.51 221.71,-119.64 210.2,-119.77"/>
<polygon fill="#63b8ff" stroke="#63b8ff" points="245.92,-122.87 255.88,-119.26 245.84,-115.87 245.92,-122.87"/>
</a>
</g>
</g>
<!-- Node9 -->
<g id="Node000009" class="node">
<title>Node9</title>
<g id="a_Node000009"><a xlink:href="test__output_8cpp.html#ae22f862265d01c0acb3649c247f4a726" target="_top" xlink:title=" ">
<polygon fill="white" stroke="#666666" points="199,-93 88,-93 88,-74 199,-74 199,-93"/>
<text text-anchor="middle" x="143.5" y="-81" font-family="Helvetica,sans-Serif" font-size="10.00">test_output_figure2</text>
</a>
</g>
</g>
<!-- Node6&#45;&gt;Node9 -->
<g id="edge11_Node000006_Node000009" class="edge">
<title>Node6&#45;&gt;Node9</title>
<g id="a_edge11_Node000006_Node000009"><a xlink:title=" ">
<path fill="none" stroke="#63b8ff" d="M264.91,-106.98C241.77,-102.47 215.55,-97.35 193.49,-93.05"/>
<polygon fill="#63b8ff" stroke="#63b8ff" points="264.47,-110.46 274.95,-108.94 265.81,-103.59 264.47,-110.46"/>
</a>
</g>
</g>
<!-- Node10 -->
<g id="Node000010" class="node">
<title>Node10</title>
<g id="a_Node000010"><a xlink:href="test__output_8cpp.html#a998d4d57520dc3729aada36d40d97db9" target="_top" xlink:title=" ">
<polygon fill="white" stroke="#666666" points="199,-56 88,-56 88,-37 199,-37 199,-56"/>
<text text-anchor="middle" x="143.5" y="-44" font-family="Helvetica,sans-Serif" font-size="10.00">test_output_figure3</text>
</a>
</g>
</g>
<!-- Node6&#45;&gt;Node10 -->
<g id="edge13_Node000006_Node000010" class="edge">
<title>Node6&#45;&gt;Node10</title>
<g id="a_edge13_Node000006_Node000010"><a xlink:title=" ">
<path fill="none" stroke="#63b8ff" d="M296.75,-104.39C273.96,-92.95 240.4,-76.9 210,-65.5 200.8,-62.05 190.68,-58.84 181.2,-56.08"/>
<polygon fill="#63b8ff" stroke="#63b8ff" points="295.31,-107.59 305.81,-108.99 298.47,-101.34 295.31,-107.59"/>
</a>
</g>
</g>
<!-- Node11 -->
<g id="Node000011" class="node">
<title>Node11</title>
<g id="a_Node000011"><a xlink:href="test__output_8cpp.html#aaa716ae6efa6c8bef11ea699a4be56d2" target="_top" xlink:title=" ">
<polygon fill="white" stroke="#666666" points="197.5,-19 89.5,-19 89.5,0 197.5,0 197.5,-19"/>
<text text-anchor="middle" x="143.5" y="-7" font-family="Helvetica,sans-Serif" font-size="10.00">test_output_sorted</text>
</a>
</g>
</g>
<!-- Node6&#45;&gt;Node11 -->
<g id="edge15_Node000006_Node000011" class="edge">
<title>Node6&#45;&gt;Node11</title>
<g id="a_edge15_Node000006_Node000011"><a xlink:title=" ">
<path fill="none" stroke="#63b8ff" d="M307.78,-101.93C286.94,-81.56 248.82,-47.27 210,-27.5 203.38,-24.13 196.05,-21.33 188.76,-19.02"/>
<polygon fill="#63b8ff" stroke="#63b8ff" points="305.32,-104.42 314.88,-108.99 310.26,-99.46 305.32,-104.42"/>
</a>
</g>
</g>
<!-- Node8 -->
<g id="Node000008" class="node">
<title>Node8</title>
<g id="a_Node000008"><a xlink:href="test__output_8cpp.html#ae66f6b31b5ad750f1fe042a706a4e3d4" target="_top" xlink:title=" ">
<polygon fill="white" stroke="#666666" points="41,-75 0,-75 0,-56 41,-56 41,-75"/>
<text text-anchor="middle" x="20.5" y="-63" font-family="Helvetica,sans-Serif" font-size="10.00">main</text>
</a>
</g>
</g>
<!-- Node7&#45;&gt;Node8 -->
<g id="edge10_Node000007_Node000008" class="edge">
<title>Node7&#45;&gt;Node8</title>
<g id="a_edge10_Node000007_Node000008"><a xlink:title=" ">
<path fill="none" stroke="#63b8ff" d="M90.02,-107.71C85.55,-106.13 81.16,-104.4 77,-102.5 60.99,-95.19 44.42,-83.52 33.61,-75.24"/>
<polygon fill="#63b8ff" stroke="#63b8ff" points="89.27,-111.15 99.87,-110.92 91.44,-104.49 89.27,-111.15"/>
</a>
</g>
</g>
<!-- Node9&#45;&gt;Node8 -->
<g id="edge12_Node000009_Node000008" class="edge">
<title>Node9&#45;&gt;Node8</title>
<g id="a_edge12_Node000009_Node000008"><a xlink:title=" ">
<path fill="none" stroke="#63b8ff" d="M77.5,-73.83C64.23,-71.86 51.24,-69.92 41.13,-68.42"/>
<polygon fill="#63b8ff" stroke="#63b8ff" points="77.26,-77.33 87.66,-75.34 78.29,-70.41 77.26,-77.33"/>
</a>
</g>
</g>
<!-- Node10&#45;&gt;Node8 -->
<g id="edge14_Node000010_Node000008" class="edge">
<title>Node10&#45;&gt;Node8</title>
<g id="a_edge14_Node000010_Node000008"><a xlink:title=" ">
<path fill="none" stroke="#63b8ff" d="M77.5,-56.71C64.23,-58.79 51.24,-60.83 41.13,-62.42"/>
<polygon fill="#63b8ff" stroke="#63b8ff" points="78.33,-60.12 87.66,-55.11 77.24,-53.2 78.33,-60.12"/>
</a>
</g>
</g>
<!-- Node11&#45;&gt;Node8 -->
<g id="edge16_Node000011_Node000008" class="edge">
<title>Node11&#45;&gt;Node8</title>
<g id="a_edge16_Node000011_Node000008"><a xlink:title=" ">
<path fill="none" stroke="#63b8ff" d="M90,-22.24C85.53,-23.83 81.14,-25.58 77,-27.5 60.69,-35.07 43.92,-47.28 33.14,-55.81"/>
<polygon fill="#63b8ff" stroke="#63b8ff" points="91.42,-25.45 99.83,-19.01 89.24,-18.8 91.42,-25.45"/>
</a>
</g>
</g>
</g>
</svg>
