<?xml version="1.0" encoding="UTF-8" standalone="no"?>
<!DOCTYPE svg PUBLIC "-//W3C//DTD SVG 1.1//EN"
 "http://www.w3.org/Graphics/SVG/1.1/DTD/svg11.dtd">
<!-- Generated by graphviz version 2.43.0 (0)
 -->
<!-- Title: ProblemData::numReviewers Pages: 1 -->
<svg width="835pt" height="754pt"
 viewBox="0.00 0.00 835.00 754.00" xmlns="http://www.w3.org/2000/svg" xmlns:xlink="http://www.w3.org/1999/xlink">
<g id="graph0" class="graph" transform="scale(1 1) rotate(0) translate(4 750)">
<title>ProblemData::numReviewers</title>
<!-- Node1 -->
<g id="Node000001" class="node">
<title>Node1</title>
<g id="a_Node000001"><a xlink:title="Number of reviewers.">
<polygon fill="#999999" stroke="#666666" points="827,-471 668,-471 668,-452 827,-452 827,-471"/>
<text text-anchor="middle" x="747.5" y="-459" font-family="Helvetica,sans-Serif" font-size="10.00">ProblemData::numReviewers</text>
</a>
</g>
</g>
<!-- Node2 -->
<g id="Node000002" class="node">
<title>Node2</title>
<g id="a_Node000002"><a xlink:href="classNetworkBuilder.html#af514e79c3d2f21597c54e01c4ce9475d" target="_top" xlink:title="Builds the complete flow network.">
<polygon fill="white" stroke="#666666" points="632,-528 468,-528 468,-509 632,-509 632,-528"/>
<text text-anchor="middle" x="550" y="-516" font-family="Helvetica,sans-Serif" font-size="10.00">NetworkBuilder::buildNetwork</text>
</a>
</g>
</g>
<!-- Node1&#45;&gt;Node2 -->
<g id="edge1_Node000001_Node000002" class="edge">
<title>Node1&#45;&gt;Node2</title>
<g id="a_edge1_Node000001_Node000002"><a xlink:title=" ">
<path fill="none" stroke="#63b8ff" d="M704.02,-473.88C667.93,-484.41 616.85,-499.3 583.83,-508.93"/>
<polygon fill="#63b8ff" stroke="#63b8ff" points="705.16,-477.2 713.78,-471.04 703.2,-470.48 705.16,-477.2"/>
</a>
</g>
</g>
<!-- Node3 -->
<g id="Node000003" class="node">
<title>Node3</title>
<g id="a_Node000003"><a xlink:href="classSolver.html#a845e12dc97a5d14a365b1e3001aba114" target="_top" xlink:title="Solves the assignment problem for the given data.">
<polygon fill="white" stroke="#666666" points="390,-364 310,-364 310,-345 390,-345 390,-364"/>
<text text-anchor="middle" x="350" y="-352" font-family="Helvetica,sans-Serif" font-size="10.00">Solver::solve</text>
</a>
</g>
</g>
<!-- Node1&#45;&gt;Node3 -->
<g id="edge51_Node000001_Node000003" class="edge">
<title>Node1&#45;&gt;Node3</title>
<g id="a_edge51_Node000001_Node000003"><a xlink:title=" ">
<path fill="none" stroke="#63b8ff" d="M692.24,-472.76C634.51,-482.21 541.56,-490.06 468,-461.5 416.17,-441.37 373.29,-386.39 357.5,-364.09"/>
<polygon fill="#63b8ff" stroke="#63b8ff" points="692.98,-476.18 702.25,-471.05 691.8,-469.28 692.98,-476.18"/>
</a>
</g>
</g>
<!-- Node22 -->
<g id="Node000022" class="node">
<title>Node22</title>
<g id="a_Node000022"><a xlink:href="classSolver.html#ae2ca491c309b717821844e7f2a9ea629" target="_top" xlink:title="Performs Risk Analysis with parameter K = 1.">
<polygon fill="white" stroke="#666666" points="432,-598 268,-598 268,-579 432,-579 432,-598"/>
<text text-anchor="middle" x="350" y="-586" font-family="Helvetica,sans-Serif" font-size="10.00">Solver::solveWithRiskAnalysis</text>
</a>
</g>
</g>
<!-- Node1&#45;&gt;Node22 -->
<g id="edge52_Node000001_Node000022" class="edge">
<title>Node1&#45;&gt;Node22</title>
<g id="a_edge52_Node000001_Node000022"><a xlink:title=" ">
<path fill="none" stroke="#63b8ff" d="M727.61,-477.6C705.96,-495.15 668.73,-522.71 632,-537.5 567.61,-563.43 489.61,-576.25 432.14,-582.54"/>
<polygon fill="#63b8ff" stroke="#63b8ff" points="729.88,-480.26 735.36,-471.19 725.42,-474.86 729.88,-480.26"/>
</a>
</g>
</g>
<!-- Node28 -->
<g id="Node000028" class="node">
<title>Node28</title>
<g id="a_Node000028"><a xlink:href="classOutputWriter.html#acb6dd62c9f0e531b4175807506320d73" target="_top" xlink:title="Lists all reviewers with their expertise (and name/email if available).">
<polygon fill="white" stroke="#666666" points="426,-643 274,-643 274,-624 426,-624 426,-643"/>
<text text-anchor="middle" x="350" y="-631" font-family="Helvetica,sans-Serif" font-size="10.00">OutputWriter::listReviewers</text>
</a>
</g>
</g>
<!-- Node1&#45;&gt;Node28 -->
<g id="edge46_Node000001_Node000028" class="edge">
<title>Node1&#45;&gt;Node28</title>
<g id="a_edge46_Node000001_Node000028"><a xlink:title=" ">
<path fill="none" stroke="#63b8ff" d="M733.13,-479.23C713.67,-503.71 675.12,-547.46 632,-570.5 567.51,-604.96 484.99,-620.6 426.1,-627.69"/>
<polygon fill="#63b8ff" stroke="#63b8ff" points="736.03,-481.19 739.41,-471.15 730.51,-476.9 736.03,-481.19"/>
</a>
</g>
</g>
<!-- Node29 -->
<g id="Node000029" class="node">
<title>Node29</title>
<g id="a_Node000029"><a xlink:href="test__domain_8cpp.html#ae66f6b31b5ad750f1fe042a706a4e3d4" target="_top" xlink:title=" ">
<polygon fill="white" stroke="#666666" points="570.5,-452 529.5,-452 529.5,-433 570.5,-433 570.5,-452"/>
<text text-anchor="middle" x="550" y="-440" font-family="Helvetica,sans-Serif" font-size="10.00">main</text>
</a>
</g>
</g>
<!-- Node1&#45;&gt;Node29 -->
<g id="edge48_Node000001_Node000029" class="edge">
<title>Node1&#45;&gt;Node29</title>
<g id="a_edge48_Node000001_Node000029"><a xlink:title=" ">
<path fill="none" stroke="#63b8ff" d="M657.79,-452.88C625.23,-449.71 591.34,-446.42 570.69,-444.41"/>
<polygon fill="#63b8ff" stroke="#63b8ff" points="657.54,-456.37 667.83,-453.85 658.21,-449.4 657.54,-456.37"/>
</a>
</g>
</g>
<!-- Node30 -->
<g id="Node000030" class="node">
<title>Node30</title>
<g id="a_Node000030"><a xlink:href="classOutputWriter.html#a723990a687c6d2154467c3cde0a642b0" target="_top" xlink:title="Prints a summary of the problem data (for menu option).">
<polygon fill="white" stroke="#666666" points="427.5,-683 272.5,-683 272.5,-664 427.5,-664 427.5,-683"/>
<text text-anchor="middle" x="350" y="-671" font-family="Helvetica,sans-Serif" font-size="10.00">OutputWriter::printSummary</text>
</a>
</g>
</g>
<!-- Node1&#45;&gt;Node30 -->
<g id="edge49_Node000001_Node000030" class="edge">
<title>Node1&#45;&gt;Node30</title>
<g id="a_edge49_Node000001_Node000030"><a xlink:title=" ">
<path fill="none" stroke="#63b8ff" d="M737.37,-480.48C720.97,-512.44 683.39,-576.69 632,-609.5 570.32,-648.87 487.4,-664.15 427.65,-670.01"/>
<polygon fill="#63b8ff" stroke="#63b8ff" points="740.61,-481.83 741.94,-471.32 734.34,-478.71 740.61,-481.83"/>
</a>
</g>
</g>
<!-- Node31 -->
<g id="Node000031" class="node">
<title>Node31</title>
<g id="a_Node000031"><a xlink:href="test__parser_8cpp.html#a9c1287d07db31654f59eb8b0899803f5" target="_top" xlink:title=" ">
<polygon fill="white" stroke="#666666" points="611,-340.5 489,-340.5 489,-310.5 611,-310.5 611,-340.5"/>
<text text-anchor="start" x="497" y="-328.5" font-family="Helvetica,sans-Serif" font-size="10.00">test_case_insensitive</text>
<text text-anchor="middle" x="550" y="-317.5" font-family="Helvetica,sans-Serif" font-size="10.00">_headers</text>
</a>
</g>
</g>
<!-- Node1&#45;&gt;Node31 -->
<g id="edge53_Node000001_Node000031" class="edge">
<title>Node1&#45;&gt;Node31</title>
<g id="a_edge53_Node000001_Node000031"><a xlink:title=" ">
<path fill="none" stroke="#63b8ff" d="M733.02,-443.68C713.42,-418.99 674.71,-374.59 632,-349.5 625.55,-345.71 618.46,-342.48 611.23,-339.73"/>
<polygon fill="#63b8ff" stroke="#63b8ff" points="730.44,-446.07 739.34,-451.81 735.96,-441.77 730.44,-446.07"/>
</a>
</g>
</g>
<!-- Node33 -->
<g id="Node000033" class="node">
<title>Node33</title>
<g id="a_Node000033"><a xlink:href="test__parser_8cpp.html#a90125c8eff9ae32567685fc66c0a0a24" target="_top" xlink:title=" ">
<polygon fill="white" stroke="#666666" points="587,-292 513,-292 513,-273 587,-273 587,-292"/>
<text text-anchor="middle" x="550" y="-280" font-family="Helvetica,sans-Serif" font-size="10.00">test_figure1</text>
</a>
</g>
</g>
<!-- Node1&#45;&gt;Node33 -->
<g id="edge55_Node000001_Node000033" class="edge">
<title>Node1&#45;&gt;Node33</title>
<g id="a_edge55_Node000001_Node000033"><a xlink:title=" ">
<path fill="none" stroke="#63b8ff" d="M738.42,-442.45C723,-408.49 686.02,-337.67 632,-301.5 618.8,-292.66 601.99,-287.91 587.1,-285.36"/>
<polygon fill="#63b8ff" stroke="#63b8ff" points="735.28,-443.99 742.51,-451.72 741.68,-441.16 735.28,-443.99"/>
</a>
</g>
</g>
<!-- Node34 -->
<g id="Node000034" class="node">
<title>Node34</title>
<g id="a_Node000034"><a xlink:href="test__parser_8cpp.html#ae241a9fb68c40ec0bc4d3137195d5cce" target="_top" xlink:title=" ">
<polygon fill="white" stroke="#666666" points="603.5,-415 496.5,-415 496.5,-396 603.5,-396 603.5,-415"/>
<text text-anchor="middle" x="550" y="-403" font-family="Helvetica,sans-Serif" font-size="10.00">test_large_dataset</text>
</a>
</g>
</g>
<!-- Node1&#45;&gt;Node34 -->
<g id="edge57_Node000001_Node000034" class="edge">
<title>Node1&#45;&gt;Node34</title>
<g id="a_edge57_Node000001_Node000034"><a xlink:title=" ">
<path fill="none" stroke="#63b8ff" d="M709.2,-448.59C686.93,-441.1 658,-431.74 632,-424.5 619.89,-421.13 606.66,-417.86 594.47,-415"/>
<polygon fill="#63b8ff" stroke="#63b8ff" points="708.33,-451.99 718.93,-451.89 710.58,-445.36 708.33,-451.99"/>
</a>
</g>
</g>
<!-- Node35 -->
<g id="Node000035" class="node">
<title>Node35</title>
<g id="a_Node000035"><a xlink:href="test__parser_8cpp.html#aecc82ef8e44a1d7ac23fb64f603efd07" target="_top" xlink:title=" ">
<polygon fill="white" stroke="#666666" points="603.5,-378 496.5,-378 496.5,-359 603.5,-359 603.5,-378"/>
<text text-anchor="middle" x="550" y="-366" font-family="Helvetica,sans-Serif" font-size="10.00">test_section_order</text>
</a>
</g>
</g>
<!-- Node1&#45;&gt;Node35 -->
<g id="edge59_Node000001_Node000035" class="edge">
<title>Node1&#45;&gt;Node35</title>
<g id="a_edge59_Node000001_Node000035"><a xlink:title=" ">
<path fill="none" stroke="#63b8ff" d="M726.69,-445.65C704.76,-428.85 667.77,-402.71 632,-387.5 623.09,-383.71 613.3,-380.61 603.7,-378.08"/>
<polygon fill="#63b8ff" stroke="#63b8ff" points="724.54,-448.41 734.59,-451.79 728.84,-442.89 724.54,-448.41"/>
</a>
</g>
</g>
<!-- Node2&#45;&gt;Node3 -->
<g id="edge2_Node000002_Node000003" class="edge">
<title>Node2&#45;&gt;Node3</title>
<g id="a_edge2_Node000002_Node000003"><a xlink:title=" ">
<path fill="none" stroke="#63b8ff" d="M490.27,-505.61C482.45,-502.62 474.8,-498.97 468,-494.5 413.47,-458.67 370.94,-389.85 356.41,-364.33"/>
<polygon fill="#63b8ff" stroke="#63b8ff" points="489.25,-508.96 499.84,-508.94 491.54,-502.35 489.25,-508.96"/>
</a>
</g>
</g>
<!-- Node2&#45;&gt;Node22 -->
<g id="edge33_Node000002_Node000022" class="edge">
<title>Node2&#45;&gt;Node22</title>
<g id="a_edge33_Node000002_Node000022"><a xlink:title=" ">
<path fill="none" stroke="#63b8ff" d="M512,-531.58C473.09,-545.34 412.81,-566.65 378.11,-578.92"/>
<polygon fill="#63b8ff" stroke="#63b8ff" points="513.62,-534.72 521.88,-528.09 511.29,-528.12 513.62,-534.72"/>
</a>
</g>
</g>
<!-- Node4 -->
<g id="Node000004" class="node">
<title>Node4</title>
<g id="a_Node000004"><a xlink:href="main_8cpp.html#adccc9f5ff7d7a84b4f757ddc2e00c25b" target="_top" xlink:title="Executes the program in batch mode.">
<polygon fill="white" stroke="#666666" points="184.5,-672 124.5,-672 124.5,-653 184.5,-653 184.5,-672"/>
<text text-anchor="middle" x="154.5" y="-660" font-family="Helvetica,sans-Serif" font-size="10.00">runBatch</text>
</a>
</g>
</g>
<!-- Node3&#45;&gt;Node4 -->
<g id="edge3_Node000003_Node000004" class="edge">
<title>Node3&#45;&gt;Node4</title>
<g id="a_edge3_Node000003_Node000004"><a xlink:title=" ">
<path fill="none" stroke="#63b8ff" d="M341.83,-373.65C318.11,-436.8 243.08,-635 232,-644.5 218.95,-655.7 200.22,-660.23 184.55,-661.95"/>
<polygon fill="#63b8ff" stroke="#63b8ff" points="345.17,-374.7 345.41,-364.11 338.62,-372.24 345.17,-374.7"/>
</a>
</g>
</g>
<!-- Node6 -->
<g id="Node000006" class="node">
<title>Node6</title>
<g id="a_Node000006"><a xlink:href="main_8cpp.html#aef0bcc404dd408e438ce7fa09e4ea3f7" target="_top" xlink:title="Executes the program in interactive mode.">
<polygon fill="white" stroke="#666666" points="197,-746 112,-746 112,-727 197,-727 197,-746"/>
<text text-anchor="middle" x="154.5" y="-734" font-family="Helvetica,sans-Serif" font-size="10.00">runInteractive</text>
</a>
</g>
</g>
<!-- Node3&#45;&gt;Node6 -->
<g id="edge5_Node000003_Node000006" class="edge">
<title>Node3&#45;&gt;Node6</title>
<g id="a_edge5_Node000003_Node000006"><a xlink:title=" ">
<path fill="none" stroke="#63b8ff" d="M340.82,-373.91C325.22,-411.41 290.74,-496.64 268,-570.5 248.08,-635.2 280.05,-670.81 232,-718.5 222.8,-727.63 209.89,-732.46 197.3,-734.93"/>
<polygon fill="#63b8ff" stroke="#63b8ff" points="344.23,-374.83 344.86,-364.26 337.77,-372.13 344.23,-374.83"/>
</a>
</g>
</g>
<!-- Node7 -->
<g id="Node000007" class="node">
<title>Node7</title>
<g id="a_Node000007"><a xlink:href="test__graph_8cpp.html#aabe34e3298f44b2a590c5785cfb187e8" target="_top" xlink:title=" ">
<polygon fill="white" stroke="#666666" points="211.5,-178.5 97.5,-178.5 97.5,-148.5 211.5,-148.5 211.5,-178.5"/>
<text text-anchor="start" x="105.5" y="-166.5" font-family="Helvetica,sans-Serif" font-size="10.00">test_corner_maxrev</text>
<text text-anchor="middle" x="154.5" y="-155.5" font-family="Helvetica,sans-Serif" font-size="10.00">_bottleneck</text>
</a>
</g>
</g>
<!-- Node3&#45;&gt;Node7 -->
<g id="edge7_Node000003_Node000007" class="edge">
<title>Node3&#45;&gt;Node7</title>
<g id="a_edge7_Node000003_Node000007"><a xlink:title=" ">
<path fill="none" stroke="#63b8ff" d="M299.93,-351.82C288.18,-348.98 276.57,-344 268,-335.5 219.94,-287.83 278.28,-236.91 232,-187.5 226.39,-181.51 219.3,-177 211.71,-173.61"/>
<polygon fill="#63b8ff" stroke="#63b8ff" points="299.29,-355.26 309.77,-353.74 300.63,-348.39 299.29,-355.26"/>
</a>
</g>
</g>
<!-- Node9 -->
<g id="Node000009" class="node">
<title>Node9</title>
<g id="a_Node000009"><a xlink:href="test__graph_8cpp.html#afb6fc70c45804d5516d4936ec4115cd1" target="_top" xlink:title=" ">
<polygon fill="white" stroke="#666666" points="225.5,-130 83.5,-130 83.5,-111 225.5,-111 225.5,-130"/>
<text text-anchor="middle" x="154.5" y="-118" font-family="Helvetica,sans-Serif" font-size="10.00">test_corner_no_reviewers</text>
</a>
</g>
</g>
<!-- Node3&#45;&gt;Node9 -->
<g id="edge9_Node000003_Node000009" class="edge">
<title>Node3&#45;&gt;Node9</title>
<g id="a_edge9_Node000003_Node000009"><a xlink:title=" ">
<path fill="none" stroke="#63b8ff" d="M299.93,-352.23C288.07,-349.4 276.41,-344.33 268,-335.5 206.92,-271.36 292.66,-204.03 232,-139.5 228.44,-135.71 224.25,-132.63 219.7,-130.13"/>
<polygon fill="#63b8ff" stroke="#63b8ff" points="299.4,-355.69 309.87,-354.12 300.7,-348.81 299.4,-355.69"/>
</a>
</g>
</g>
<!-- Node10 -->
<g id="Node000010" class="node">
<title>Node10</title>
<g id="a_Node000010"><a xlink:href="test__graph_8cpp.html#acdaff2524640ac8e6e9644e7106b04ba" target="_top" xlink:title=" ">
<polygon fill="white" stroke="#666666" points="232,-93 77,-93 77,-74 232,-74 232,-93"/>
<text text-anchor="middle" x="154.5" y="-81" font-family="Helvetica,sans-Serif" font-size="10.00">test_corner_no_submissions</text>
</a>
</g>
</g>
<!-- Node3&#45;&gt;Node10 -->
<g id="edge11_Node000003_Node000010" class="edge">
<title>Node3&#45;&gt;Node10</title>
<g id="a_edge11_Node000003_Node000010"><a xlink:title=" ">
<path fill="none" stroke="#63b8ff" d="M299.76,-352.39C287.9,-349.56 276.28,-344.45 268,-335.5 196.54,-258.26 303.43,-178.76 232,-101.5 228.94,-98.19 225.4,-95.44 221.56,-93.15"/>
<polygon fill="#63b8ff" stroke="#63b8ff" points="299.23,-355.86 309.71,-354.27 300.53,-348.98 299.23,-355.86"/>
</a>
</g>
</g>
<!-- Node11 -->
<g id="Node000011" class="node">
<title>Node11</title>
<g id="a_Node000011"><a xlink:href="test__graph_8cpp.html#ae160a573baa527c8e420eddbce3cab30" target="_top" xlink:title=" ">
<polygon fill="white" stroke="#666666" points="212,-56 97,-56 97,-37 212,-37 212,-56"/>
<text text-anchor="middle" x="154.5" y="-44" font-family="Helvetica,sans-Serif" font-size="10.00">test_full_integration</text>
</a>
</g>
</g>
<!-- Node3&#45;&gt;Node11 -->
<g id="edge13_Node000003_Node000011" class="edge">
<title>Node3&#45;&gt;Node11</title>
<g id="a_edge13_Node000003_Node000011"><a xlink:title=" ">
<path fill="none" stroke="#63b8ff" d="M299.63,-352.51C287.77,-349.67 276.18,-344.53 268,-335.5 186.41,-245.47 313.56,-154.56 232,-64.5 226.6,-58.53 219.62,-54.36 212.08,-51.47"/>
<polygon fill="#63b8ff" stroke="#63b8ff" points="299.11,-355.97 309.59,-354.38 300.41,-349.09 299.11,-355.97"/>
</a>
</g>
</g>
<!-- Node12 -->
<g id="Node000012" class="node">
<title>Node12</title>
<g id="a_Node000012"><a xlink:href="test__output_8cpp.html#ae22f862265d01c0acb3649c247f4a726" target="_top" xlink:title=" ">
<polygon fill="white" stroke="#666666" points="210,-524 99,-524 99,-505 210,-505 210,-524"/>
<text text-anchor="middle" x="154.5" y="-512" font-family="Helvetica,sans-Serif" font-size="10.00">test_output_figure2</text>
</a>
</g>
</g>
<!-- Node3&#45;&gt;Node12 -->
<g id="edge15_Node000003_Node000012" class="edge">
<title>Node3&#45;&gt;Node12</title>
<g id="a_edge15_Node000003_Node000012"><a xlink:title=" ">
<path fill="none" stroke="#63b8ff" d="M339.08,-373.12C321.68,-403.87 282.67,-464.99 232,-496.5 225.4,-500.61 217.94,-503.78 210.34,-506.22"/>
<polygon fill="#63b8ff" stroke="#63b8ff" points="342.19,-374.72 343.95,-364.28 336.06,-371.34 342.19,-374.72"/>
</a>
</g>
</g>
<!-- Node14 -->
<g id="Node000014" class="node">
<title>Node14</title>
<g id="a_Node000014"><a xlink:href="test__output_8cpp.html#a998d4d57520dc3729aada36d40d97db9" target="_top" xlink:title=" ">
<polygon fill="white" stroke="#666666" points="210,-487 99,-487 99,-468 210,-468 210,-487"/>
<text text-anchor="middle" x="154.5" y="-475" font-family="Helvetica,sans-Serif" font-size="10.00">test_output_figure3</text>
</a>
</g>
</g>
<!-- Node3&#45;&gt;Node14 -->
<g id="edge17_Node000003_Node000014" class="edge">
<title>Node3&#45;&gt;Node14</title>
<g id="a_edge17_Node000003_Node000014"><a xlink:title=" ">
<path fill="none" stroke="#63b8ff" d="M334.77,-371.84C314.46,-395.39 274.88,-437.11 232,-459.5 225.23,-463.04 217.76,-465.89 210.22,-468.18"/>
<polygon fill="#63b8ff" stroke="#63b8ff" points="337.56,-373.96 341.34,-364.06 332.22,-369.44 337.56,-373.96"/>
</a>
</g>
</g>
<!-- Node15 -->
<g id="Node000015" class="node">
<title>Node15</title>
<g id="a_Node000015"><a xlink:href="test__output_8cpp.html#aaa716ae6efa6c8bef11ea699a4be56d2" target="_top" xlink:title=" ">
<polygon fill="white" stroke="#666666" points="208.5,-450 100.5,-450 100.5,-431 208.5,-431 208.5,-450"/>
<text text-anchor="middle" x="154.5" y="-438" font-family="Helvetica,sans-Serif" font-size="10.00">test_output_sorted</text>
</a>
</g>
</g>
<!-- Node3&#45;&gt;Node15 -->
<g id="edge19_Node000003_Node000015" class="edge">
<title>Node3&#45;&gt;Node15</title>
<g id="a_edge19_Node000003_Node000015"><a xlink:title=" ">
<path fill="none" stroke="#63b8ff" d="M326.63,-369.82C303.75,-384.87 266.75,-407.55 232,-421.5 222.73,-425.22 212.53,-428.37 202.67,-430.96"/>
<polygon fill="#63b8ff" stroke="#63b8ff" points="328.86,-372.54 335.23,-364.08 324.97,-366.72 328.86,-372.54"/>
</a>
</g>
</g>
<!-- Node16 -->
<g id="Node000016" class="node">
<title>Node16</title>
<g id="a_Node000016"><a xlink:href="test__graph_8cpp.html#a2bd07a82f32ec21b6fa28a86ee9bf941" target="_top" xlink:title=" ">
<polygon fill="white" stroke="#666666" points="218,-19 91,-19 91,0 218,0 218,-19"/>
<text text-anchor="middle" x="154.5" y="-7" font-family="Helvetica,sans-Serif" font-size="10.00">test_secondary_match</text>
</a>
</g>
</g>
<!-- Node3&#45;&gt;Node16 -->
<g id="edge21_Node000003_Node000016" class="edge">
<title>Node3&#45;&gt;Node16</title>
<g id="a_edge21_Node000003_Node000016"><a xlink:title=" ">
<path fill="none" stroke="#63b8ff" d="M299.86,-352.67C287.89,-349.85 276.19,-344.68 268,-335.5 176.26,-232.65 323.71,-130.38 232,-27.5 228.1,-23.12 223.35,-19.7 218.14,-17.05"/>
<polygon fill="#63b8ff" stroke="#63b8ff" points="299.45,-356.15 309.92,-354.52 300.71,-349.27 299.45,-356.15"/>
</a>
</g>
</g>
<!-- Node17 -->
<g id="Node000017" class="node">
<title>Node17</title>
<g id="a_Node000017"><a xlink:href="test__graph_8cpp.html#a0b2b929f3f92ed72ebb706539ba28f72" target="_top" xlink:title=" ">
<polygon fill="white" stroke="#666666" points="209.5,-364 99.5,-364 99.5,-345 209.5,-345 209.5,-364"/>
<text text-anchor="middle" x="154.5" y="-352" font-family="Helvetica,sans-Serif" font-size="10.00">test_solver_figure1</text>
</a>
</g>
</g>
<!-- Node3&#45;&gt;Node17 -->
<g id="edge23_Node000003_Node000017" class="edge">
<title>Node3&#45;&gt;Node17</title>
<g id="a_edge23_Node000003_Node000017"><a xlink:title=" ">
<path fill="none" stroke="#63b8ff" d="M299.66,-354.5C272.16,-354.5 237.87,-354.5 209.63,-354.5"/>
<polygon fill="#63b8ff" stroke="#63b8ff" points="299.84,-358 309.84,-354.5 299.84,-351 299.84,-358"/>
</a>
</g>
</g>
<!-- Node18 -->
<g id="Node000018" class="node">
<title>Node18</title>
<g id="a_Node000018"><a xlink:href="test__graph_8cpp.html#ae08b5e2d9ec151376641907871fb6d1a" target="_top" xlink:title=" ">
<polygon fill="white" stroke="#666666" points="212.5,-327 96.5,-327 96.5,-308 212.5,-308 212.5,-327"/>
<text text-anchor="middle" x="154.5" y="-315" font-family="Helvetica,sans-Serif" font-size="10.00">test_solver_minrev2</text>
</a>
</g>
</g>
<!-- Node3&#45;&gt;Node18 -->
<g id="edge25_Node000003_Node000018" class="edge">
<title>Node3&#45;&gt;Node18</title>
<g id="a_edge25_Node000003_Node000018"><a xlink:title=" ">
<path fill="none" stroke="#63b8ff" d="M299.94,-345.12C270.96,-339.58 234.39,-332.58 205.29,-327.02"/>
<polygon fill="#63b8ff" stroke="#63b8ff" points="299.36,-348.57 309.84,-347.01 300.68,-341.7 299.36,-348.57"/>
</a>
</g>
</g>
<!-- Node19 -->
<g id="Node000019" class="node">
<title>Node19</title>
<g id="a_Node000019"><a xlink:href="test__graph_8cpp.html#ac64ff524d61b175dce290be1685ae797" target="_top" xlink:title=" ">
<polygon fill="white" stroke="#666666" points="226,-290 83,-290 83,-271 226,-271 226,-290"/>
<text text-anchor="middle" x="154.5" y="-278" font-family="Helvetica,sans-Serif" font-size="10.00">test_solver_multi_domain</text>
</a>
</g>
</g>
<!-- Node3&#45;&gt;Node19 -->
<g id="edge27_Node000003_Node000019" class="edge">
<title>Node3&#45;&gt;Node19</title>
<g id="a_edge27_Node000003_Node000019"><a xlink:title=" ">
<path fill="none" stroke="#63b8ff" d="M299.91,-347.69C288.96,-344.91 277.72,-341 268,-335.5 248.03,-324.2 251.97,-309.8 232,-298.5 225.94,-295.07 219.27,-292.3 212.45,-290.05"/>
<polygon fill="#63b8ff" stroke="#63b8ff" points="299.31,-351.14 309.84,-349.94 300.86,-344.31 299.31,-351.14"/>
</a>
</g>
</g>
<!-- Node20 -->
<g id="Node000020" class="node">
<title>Node20</title>
<g id="a_Node000020"><a xlink:href="test__graph_8cpp.html#ad31c62f747c428536c260667126eae66" target="_top" xlink:title=" ">
<polygon fill="white" stroke="#666666" points="208,-253 101,-253 101,-234 208,-234 208,-253"/>
<text text-anchor="middle" x="154.5" y="-241" font-family="Helvetica,sans-Serif" font-size="10.00">test_solver_partial</text>
</a>
</g>
</g>
<!-- Node3&#45;&gt;Node20 -->
<g id="edge29_Node000003_Node000020" class="edge">
<title>Node3&#45;&gt;Node20</title>
<g id="a_edge29_Node000003_Node000020"><a xlink:title=" ">
<path fill="none" stroke="#63b8ff" d="M299.77,-350.18C288.45,-347.32 277.08,-342.75 268,-335.5 239.43,-312.67 260.56,-284.34 232,-261.5 225.07,-255.96 216.73,-252.07 208.14,-249.36"/>
<polygon fill="#63b8ff" stroke="#63b8ff" points="299.15,-353.63 309.65,-352.28 300.6,-346.78 299.15,-353.63"/>
</a>
</g>
</g>
<!-- Node21 -->
<g id="Node000021" class="node">
<title>Node21</title>
<g id="a_Node000021"><a xlink:href="test__graph_8cpp.html#aca441d5ebe3894bca1449f02e0fd8e48" target="_top" xlink:title=" ">
<polygon fill="white" stroke="#666666" points="189.5,-216 119.5,-216 119.5,-197 189.5,-197 189.5,-216"/>
<text text-anchor="middle" x="154.5" y="-204" font-family="Helvetica,sans-Serif" font-size="10.00">test_stress</text>
</a>
</g>
</g>
<!-- Node3&#45;&gt;Node21 -->
<g id="edge31_Node000003_Node000021" class="edge">
<title>Node3&#45;&gt;Node21</title>
<g id="a_edge31_Node000003_Node000021"><a xlink:title=" ">
<path fill="none" stroke="#63b8ff" d="M299.68,-351.21C288.15,-348.35 276.71,-343.52 268,-335.5 229.83,-300.38 270.15,-259.63 232,-224.5 220.66,-214.06 204.42,-209.33 189.83,-207.3"/>
<polygon fill="#63b8ff" stroke="#63b8ff" points="299.27,-354.7 309.77,-353.25 300.66,-347.84 299.27,-354.7"/>
</a>
</g>
</g>
<!-- Node5 -->
<g id="Node000005" class="node">
<title>Node5</title>
<g id="a_Node000005"><a xlink:href="main_8cpp.html#a0ddf1224851353fc92bfbff6f499fa97" target="_top" xlink:title="Program entry point.">
<polygon fill="white" stroke="#666666" points="41,-709 0,-709 0,-690 41,-690 41,-709"/>
<text text-anchor="middle" x="20.5" y="-697" font-family="Helvetica,sans-Serif" font-size="10.00">main</text>
</a>
</g>
</g>
<!-- Node4&#45;&gt;Node5 -->
<g id="edge4_Node000004_Node000005" class="edge">
<title>Node4&#45;&gt;Node5</title>
<g id="a_edge4_Node000004_Node000005"><a xlink:title=" ">
<path fill="none" stroke="#63b8ff" d="M114.52,-671.62C102.44,-674.6 89.13,-678.03 77,-681.5 65.02,-684.93 51.74,-689.21 41.18,-692.75"/>
<polygon fill="#63b8ff" stroke="#63b8ff" points="115.42,-675 124.31,-669.24 113.77,-668.2 115.42,-675"/>
</a>
</g>
</g>
<!-- Node6&#45;&gt;Node5 -->
<g id="edge6_Node000006_Node000005" class="edge">
<title>Node6&#45;&gt;Node5</title>
<g id="a_edge6_Node000006_Node000005"><a xlink:title=" ">
<path fill="none" stroke="#63b8ff" d="M101.65,-725.03C93.37,-722.99 84.92,-720.78 77,-718.5 64.96,-715.03 51.68,-710.51 41.13,-706.75"/>
<polygon fill="#63b8ff" stroke="#63b8ff" points="101.08,-728.49 111.62,-727.43 102.72,-721.69 101.08,-728.49"/>
</a>
</g>
</g>
<!-- Node8 -->
<g id="Node000008" class="node">
<title>Node8</title>
<g id="a_Node000008"><a xlink:href="test__graph_8cpp.html#ae66f6b31b5ad750f1fe042a706a4e3d4" target="_top" xlink:title=" ">
<polygon fill="white" stroke="#666666" points="41,-235 0,-235 0,-216 41,-216 41,-235"/>
<text text-anchor="middle" x="20.5" y="-223" font-family="Helvetica,sans-Serif" font-size="10.00">main</text>
</a>
</g>
</g>
<!-- Node7&#45;&gt;Node8 -->
<g id="edge8_Node000007_Node000008" class="edge">
<title>Node7&#45;&gt;Node8</title>
<g id="a_edge8_Node000007_Node000008"><a xlink:title=" ">
<path fill="none" stroke="#63b8ff" d="M88.84,-182.26C84.78,-183.91 80.8,-185.65 77,-187.5 60.82,-195.36 44.03,-207.51 33.21,-215.95"/>
<polygon fill="#63b8ff" stroke="#63b8ff" points="90.31,-185.45 98.4,-178.61 87.81,-178.91 90.31,-185.45"/>
</a>
</g>
</g>
<!-- Node9&#45;&gt;Node8 -->
<g id="edge10_Node000009_Node000008" class="edge">
<title>Node9&#45;&gt;Node8</title>
<g id="a_edge10_Node000009_Node000008"><a xlink:title=" ">
<path fill="none" stroke="#63b8ff" d="M85.66,-134.23C82.63,-135.8 79.73,-137.55 77,-139.5 49.24,-159.34 31.9,-197.79 24.97,-215.78"/>
<polygon fill="#63b8ff" stroke="#63b8ff" points="87.34,-137.31 95.04,-130.03 84.48,-130.92 87.34,-137.31"/>
</a>
</g>
</g>
<!-- Node10&#45;&gt;Node8 -->
<g id="edge12_Node000010_Node000008" class="edge">
<title>Node10&#45;&gt;Node8</title>
<g id="a_edge12_Node000010_Node000008"><a xlink:title=" ">
<path fill="none" stroke="#63b8ff" d="M81.82,-97.94C80.15,-99.04 78.54,-100.23 77,-101.5 40.09,-132 26.82,-192.1 22.91,-215.68"/>
<polygon fill="#63b8ff" stroke="#63b8ff" points="83.57,-100.97 90.63,-93.07 80.18,-94.85 83.57,-100.97"/>
</a>
</g>
</g>
<!-- Node11&#45;&gt;Node8 -->
<g id="edge14_Node000011_Node000008" class="edge">
<title>Node11&#45;&gt;Node8</title>
<g id="a_edge14_Node000011_Node000008"><a xlink:title=" ">
<path fill="none" stroke="#63b8ff" d="M87.55,-57.1C83.75,-59.17 80.19,-61.62 77,-64.5 30.94,-106.13 23.1,-187.8 21.77,-215.81"/>
<polygon fill="#63b8ff" stroke="#63b8ff" points="89.1,-60.24 96.76,-52.91 86.21,-53.86 89.1,-60.24"/>
</a>
</g>
</g>
<!-- Node13 -->
<g id="Node000013" class="node">
<title>Node13</title>
<g id="a_Node000013"><a xlink:href="test__output_8cpp.html#ae66f6b31b5ad750f1fe042a706a4e3d4" target="_top" xlink:title=" ">
<polygon fill="white" stroke="#666666" points="41,-561 0,-561 0,-542 41,-542 41,-561"/>
<text text-anchor="middle" x="20.5" y="-549" font-family="Helvetica,sans-Serif" font-size="10.00">main</text>
</a>
</g>
</g>
<!-- Node12&#45;&gt;Node13 -->
<g id="edge16_Node000012_Node000013" class="edge">
<title>Node12&#45;&gt;Node13</title>
<g id="a_edge16_Node000012_Node000013"><a xlink:title=" ">
<path fill="none" stroke="#63b8ff" d="M103.14,-526.47C94.39,-528.71 85.41,-531.09 77,-533.5 65.02,-536.93 51.74,-541.21 41.18,-544.75"/>
<polygon fill="#63b8ff" stroke="#63b8ff" points="104.02,-529.86 112.86,-524.03 102.31,-523.07 104.02,-529.86"/>
</a>
</g>
</g>
<!-- Node14&#45;&gt;Node13 -->
<g id="edge18_Node000014_Node000013" class="edge">
<title>Node14&#45;&gt;Node13</title>
<g id="a_edge18_Node000014_Node000013"><a xlink:title=" ">
<path fill="none" stroke="#63b8ff" d="M89.66,-490.51C85.26,-492.27 81,-494.25 77,-496.5 56.42,-508.07 38.18,-529.32 28.6,-541.75"/>
<polygon fill="#63b8ff" stroke="#63b8ff" points="91.17,-493.69 99.42,-487.04 88.82,-487.09 91.17,-493.69"/>
</a>
</g>
</g>
<!-- Node15&#45;&gt;Node13 -->
<g id="edge20_Node000015_Node000013" class="edge">
<title>Node15&#45;&gt;Node13</title>
<g id="a_edge20_Node000015_Node000013"><a xlink:title=" ">
<path fill="none" stroke="#63b8ff" d="M90.81,-451.58C85.91,-453.77 81.23,-456.38 77,-459.5 47.73,-481.1 30.85,-523.17 24.47,-542"/>
<polygon fill="#63b8ff" stroke="#63b8ff" points="92.37,-454.74 100.45,-447.89 89.86,-448.2 92.37,-454.74"/>
</a>
</g>
</g>
<!-- Node16&#45;&gt;Node8 -->
<g id="edge22_Node000016_Node000008" class="edge">
<title>Node16&#45;&gt;Node8</title>
<g id="a_edge22_Node000016_Node000008"><a xlink:title=" ">
<path fill="none" stroke="#63b8ff" d="M81.81,-23.47C80.12,-24.71 78.51,-26.05 77,-27.5 21.59,-80.62 20.11,-184.17 21.05,-215.98"/>
<polygon fill="#63b8ff" stroke="#63b8ff" points="84.03,-26.22 90.8,-18.07 80.43,-20.21 84.03,-26.22"/>
</a>
</g>
</g>
<!-- Node17&#45;&gt;Node8 -->
<g id="edge24_Node000017_Node000008" class="edge">
<title>Node17&#45;&gt;Node8</title>
<g id="a_edge24_Node000017_Node000008"><a xlink:title=" ">
<path fill="none" stroke="#63b8ff" d="M89.73,-343.37C85.18,-341.19 80.87,-338.59 77,-335.5 43.56,-308.82 28.5,-256.69 23.5,-235.16"/>
<polygon fill="#63b8ff" stroke="#63b8ff" points="88.74,-346.75 99.32,-347.28 91.38,-340.26 88.74,-346.75"/>
</a>
</g>
</g>
<!-- Node18&#45;&gt;Node8 -->
<g id="edge26_Node000018_Node000008" class="edge">
<title>Node18&#45;&gt;Node8</title>
<g id="a_edge26_Node000018_Node000008"><a xlink:title=" ">
<path fill="none" stroke="#63b8ff" d="M87.02,-304.08C83.52,-302.43 80.16,-300.58 77,-298.5 52.26,-282.22 34.17,-251.06 26.13,-235.24"/>
<polygon fill="#63b8ff" stroke="#63b8ff" points="85.93,-307.42 96.51,-307.99 88.6,-300.94 85.93,-307.42"/>
</a>
</g>
</g>
<!-- Node19&#45;&gt;Node8 -->
<g id="edge28_Node000019_Node000008" class="edge">
<title>Node19&#45;&gt;Node8</title>
<g id="a_edge28_Node000019_Node000008"><a xlink:title=" ">
<path fill="none" stroke="#63b8ff" d="M94.89,-268.09C88.75,-266.16 82.68,-263.97 77,-261.5 60.99,-254.55 44.42,-243.16 33.61,-235.06"/>
<polygon fill="#63b8ff" stroke="#63b8ff" points="93.96,-271.46 104.54,-270.91 95.93,-264.74 93.96,-271.46"/>
</a>
</g>
</g>
<!-- Node20&#45;&gt;Node8 -->
<g id="edge30_Node000020_Node000008" class="edge">
<title>Node20&#45;&gt;Node8</title>
<g id="a_edge30_Node000020_Node000008"><a xlink:title=" ">
<path fill="none" stroke="#63b8ff" d="M91.01,-234.98C72.98,-232.52 54.6,-230.01 41.27,-228.2"/>
<polygon fill="#63b8ff" stroke="#63b8ff" points="90.57,-238.45 100.95,-236.33 91.52,-231.52 90.57,-238.45"/>
</a>
</g>
</g>
<!-- Node21&#45;&gt;Node8 -->
<g id="edge32_Node000021_Node000008" class="edge">
<title>Node21&#45;&gt;Node8</title>
<g id="a_edge32_Node000021_Node000008"><a xlink:title=" ">
<path fill="none" stroke="#63b8ff" d="M109.25,-212.87C86.22,-216.18 59.23,-220.07 41.32,-222.65"/>
<polygon fill="#63b8ff" stroke="#63b8ff" points="109.76,-216.33 119.16,-211.44 108.77,-209.4 109.76,-216.33"/>
</a>
</g>
</g>
<!-- Node22&#45;&gt;Node4 -->
<g id="edge34_Node000022_Node000004" class="edge">
<title>Node22&#45;&gt;Node4</title>
<g id="a_edge34_Node000022_Node000004"><a xlink:title=" ">
<path fill="none" stroke="#63b8ff" d="M301.4,-601.23C290.12,-605.09 278.36,-609.84 268,-615.5 249.97,-625.35 250.46,-635.48 232,-644.5 217.17,-651.75 199.27,-656.17 184.51,-658.81"/>
<polygon fill="#63b8ff" stroke="#63b8ff" points="302.71,-604.48 311.14,-598.06 300.55,-597.82 302.71,-604.48"/>
</a>
</g>
</g>
<!-- Node22&#45;&gt;Node6 -->
<g id="edge35_Node000022_Node000006" class="edge">
<title>Node22&#45;&gt;Node6</title>
<g id="a_edge35_Node000022_Node000006"><a xlink:title=" ">
<path fill="none" stroke="#63b8ff" d="M287.71,-602.02C280.46,-605.52 273.64,-609.94 268,-615.5 233.46,-649.54 268.04,-686.06 232,-718.5 222.47,-727.08 209.62,-731.79 197.18,-734.31"/>
<polygon fill="#63b8ff" stroke="#63b8ff" points="289.24,-605.17 297.08,-598.05 286.51,-598.73 289.24,-605.17"/>
</a>
</g>
</g>
<!-- Node23 -->
<g id="Node000023" class="node">
<title>Node23</title>
<g id="a_Node000023"><a xlink:href="test__output_8cpp.html#ad98b96469ee1c28ab8390957efbc52e5" target="_top" xlink:title=" ">
<polygon fill="white" stroke="#666666" points="221,-709 88,-709 88,-690 221,-690 221,-709"/>
<text text-anchor="middle" x="154.5" y="-697" font-family="Helvetica,sans-Serif" font-size="10.00">test_full_batch_pipeline</text>
</a>
</g>
</g>
<!-- Node22&#45;&gt;Node23 -->
<g id="edge36_Node000022_Node000023" class="edge">
<title>Node22&#45;&gt;Node23</title>
<g id="a_edge36_Node000022_Node000023"><a xlink:title=" ">
<path fill="none" stroke="#63b8ff" d="M291.39,-601.66C282.98,-605.23 274.86,-609.76 268,-615.5 242.37,-636.94 258.57,-661.24 232,-681.5 227.55,-684.89 222.56,-687.66 217.33,-689.91"/>
<polygon fill="#63b8ff" stroke="#63b8ff" points="292.85,-604.84 300.95,-598.01 290.36,-598.3 292.85,-604.84"/>
</a>
</g>
</g>
<!-- Node24 -->
<g id="Node000024" class="node">
<title>Node24</title>
<g id="a_Node000024"><a xlink:href="test__output_8cpp.html#a24a7f840628b276584f7f09649fa5ccb" target="_top" xlink:title=" ">
<polygon fill="white" stroke="#666666" points="210,-635 99,-635 99,-616 210,-616 210,-635"/>
<text text-anchor="middle" x="154.5" y="-623" font-family="Helvetica,sans-Serif" font-size="10.00">test_output_figure4</text>
</a>
</g>
</g>
<!-- Node22&#45;&gt;Node24 -->
<g id="edge38_Node000022_Node000024" class="edge">
<title>Node22&#45;&gt;Node24</title>
<g id="a_edge38_Node000022_Node000024"><a xlink:title=" ">
<path fill="none" stroke="#63b8ff" d="M289.13,-599.95C262.31,-605.08 231.04,-611.06 205.5,-615.94"/>
<polygon fill="#63b8ff" stroke="#63b8ff" points="290,-603.34 299.17,-598.03 288.69,-596.47 290,-603.34"/>
</a>
</g>
</g>
<!-- Node25 -->
<g id="Node000025" class="node">
<title>Node25</title>
<g id="a_Node000025"><a xlink:href="test__output_8cpp.html#a8907cb43e3cf97150ebba79a523d26cf" target="_top" xlink:title=" ">
<polygon fill="white" stroke="#666666" points="211,-598 98,-598 98,-579 211,-579 211,-598"/>
<text text-anchor="middle" x="154.5" y="-586" font-family="Helvetica,sans-Serif" font-size="10.00">test_output_no_risk</text>
</a>
</g>
</g>
<!-- Node22&#45;&gt;Node25 -->
<g id="edge40_Node000022_Node000025" class="edge">
<title>Node22&#45;&gt;Node25</title>
<g id="a_edge40_Node000022_Node000025"><a xlink:title=" ">
<path fill="none" stroke="#63b8ff" d="M257.46,-588.5C241.69,-588.5 225.73,-588.5 211.27,-588.5"/>
<polygon fill="#63b8ff" stroke="#63b8ff" points="257.78,-592 267.78,-588.5 257.78,-585 257.78,-592"/>
</a>
</g>
</g>
<!-- Node26 -->
<g id="Node000026" class="node">
<title>Node26</title>
<g id="a_Node000026"><a xlink:href="test__graph_8cpp.html#ac3ef62920e5b4df04a4b81489aacc664" target="_top" xlink:title=" ">
<polygon fill="white" stroke="#666666" points="215.5,-561 93.5,-561 93.5,-542 215.5,-542 215.5,-561"/>
<text text-anchor="middle" x="154.5" y="-549" font-family="Helvetica,sans-Serif" font-size="10.00">test_risk_analysis_k1</text>
</a>
</g>
</g>
<!-- Node22&#45;&gt;Node26 -->
<g id="edge42_Node000022_Node000026" class="edge">
<title>Node22&#45;&gt;Node26</title>
<g id="a_edge42_Node000022_Node000026"><a xlink:title=" ">
<path fill="none" stroke="#63b8ff" d="M289.13,-577.05C262.31,-571.92 231.04,-565.94 205.5,-561.06"/>
<polygon fill="#63b8ff" stroke="#63b8ff" points="288.69,-580.53 299.17,-578.97 290,-573.66 288.69,-580.53"/>
</a>
</g>
</g>
<!-- Node27 -->
<g id="Node000027" class="node">
<title>Node27</title>
<g id="a_Node000027"><a xlink:href="test__graph_8cpp.html#a87c4bbb43e141d16aadf387d84e8f461" target="_top" xlink:title=" ">
<polygon fill="white" stroke="#666666" points="206.5,-412.5 102.5,-412.5 102.5,-382.5 206.5,-382.5 206.5,-412.5"/>
<text text-anchor="start" x="110.5" y="-400.5" font-family="Helvetica,sans-Serif" font-size="10.00">test_risk_analysis</text>
<text text-anchor="middle" x="154.5" y="-389.5" font-family="Helvetica,sans-Serif" font-size="10.00">_redundant</text>
</a>
</g>
</g>
<!-- Node22&#45;&gt;Node27 -->
<g id="edge44_Node000022_Node000027" class="edge">
<title>Node22&#45;&gt;Node27</title>
<g id="a_edge44_Node000022_Node000027"><a xlink:title=" ">
<path fill="none" stroke="#63b8ff" d="M340.5,-569.2C324.36,-534.7 285.97,-462.38 232,-422.5 224.47,-416.94 215.64,-412.57 206.71,-409.16"/>
<polygon fill="#63b8ff" stroke="#63b8ff" points="337.46,-570.96 344.79,-578.61 343.83,-568.06 337.46,-570.96"/>
</a>
</g>
</g>
<!-- Node23&#45;&gt;Node13 -->
<g id="edge37_Node000023_Node000013" class="edge">
<title>Node23&#45;&gt;Node13</title>
<g id="a_edge37_Node000023_Node000013"><a xlink:title=" ">
<path fill="none" stroke="#63b8ff" d="M81.26,-684.73C79.79,-683.72 78.36,-682.65 77,-681.5 38.5,-649.12 26.07,-585.24 22.65,-561.07"/>
<polygon fill="#63b8ff" stroke="#63b8ff" points="79.77,-687.91 90.19,-689.83 83.24,-681.83 79.77,-687.91"/>
</a>
</g>
</g>
<!-- Node24&#45;&gt;Node13 -->
<g id="edge39_Node000024_Node000013" class="edge">
<title>Node24&#45;&gt;Node13</title>
<g id="a_edge39_Node000024_Node000013"><a xlink:title=" ">
<path fill="none" stroke="#63b8ff" d="M89.41,-613.32C85.1,-611.63 80.92,-609.7 77,-607.5 55.98,-595.73 37.63,-573.67 28.21,-561.04"/>
<polygon fill="#63b8ff" stroke="#63b8ff" points="88.39,-616.67 98.99,-616.67 90.7,-610.07 88.39,-616.67"/>
</a>
</g>
</g>
<!-- Node25&#45;&gt;Node13 -->
<g id="edge41_Node000025_Node000013" class="edge">
<title>Node25&#45;&gt;Node13</title>
<g id="a_edge41_Node000025_Node000013"><a xlink:title=" ">
<path fill="none" stroke="#63b8ff" d="M99.67,-576.54C92.03,-574.64 84.29,-572.6 77,-570.5 64.96,-567.03 51.68,-562.51 41.13,-558.75"/>
<polygon fill="#63b8ff" stroke="#63b8ff" points="99.07,-580 109.62,-578.96 100.73,-573.2 99.07,-580"/>
</a>
</g>
</g>
<!-- Node26&#45;&gt;Node8 -->
<g id="edge43_Node000026_Node000008" class="edge">
<title>Node26&#45;&gt;Node8</title>
<g id="a_edge43_Node000026_Node000008"><a xlink:title=" ">
<path fill="none" stroke="#63b8ff" d="M84.35,-539.74C81.7,-537.92 79.23,-535.85 77,-533.5 34.65,-488.86 23.79,-282.11 21.85,-235.05"/>
<polygon fill="#63b8ff" stroke="#63b8ff" points="82.92,-542.94 93.36,-544.74 86.32,-536.82 82.92,-542.94"/>
</a>
</g>
</g>
<!-- Node27&#45;&gt;Node8 -->
<g id="edge45_Node000027_Node000008" class="edge">
<title>Node27&#45;&gt;Node8</title>
<g id="a_edge45_Node000027_Node000008"><a xlink:title=" ">
<path fill="none" stroke="#63b8ff" d="M92.89,-384.42C87.08,-381.49 81.64,-377.9 77,-373.5 35.55,-334.26 24.82,-261.08 22.25,-235.02"/>
<polygon fill="#63b8ff" stroke="#63b8ff" points="91.67,-387.71 102.24,-388.51 94.48,-381.3 91.67,-387.71"/>
</a>
</g>
</g>
<!-- Node28&#45;&gt;Node6 -->
<g id="edge47_Node000028_Node000006" class="edge">
<title>Node28&#45;&gt;Node6</title>
<g id="a_edge47_Node000028_Node000006"><a xlink:title=" ">
<path fill="none" stroke="#63b8ff" d="M282.15,-646.91C277.12,-649.32 272.32,-652.16 268,-655.5 242.49,-675.23 257.84,-699.21 232,-718.5 221.94,-726.01 209.23,-730.45 197.08,-733.05"/>
<polygon fill="#63b8ff" stroke="#63b8ff" points="283.55,-650.12 291.42,-643.03 280.85,-643.67 283.55,-650.12"/>
</a>
</g>
</g>
<!-- Node30&#45;&gt;Node6 -->
<g id="edge50_Node000030_Node000006" class="edge">
<title>Node30&#45;&gt;Node6</title>
<g id="a_edge50_Node000030_Node000006"><a xlink:title=" ">
<path fill="none" stroke="#63b8ff" d="M317.5,-686.96C294.18,-696.59 261.48,-709.41 232,-718.5 220.79,-721.96 208.47,-725.12 197.07,-727.8"/>
<polygon fill="#63b8ff" stroke="#63b8ff" points="319.01,-690.12 326.89,-683.04 316.31,-683.66 319.01,-690.12"/>
</a>
</g>
</g>
<!-- Node32 -->
<g id="Node000032" class="node">
<title>Node32</title>
<g id="a_Node000032"><a xlink:href="test__parser_8cpp.html#ae66f6b31b5ad750f1fe042a706a4e3d4" target="_top" xlink:title=" ">
<polygon fill="white" stroke="#666666" points="370.5,-327 329.5,-327 329.5,-308 370.5,-308 370.5,-327"/>
<text text-anchor="middle" x="350" y="-315" font-family="Helvetica,sans-Serif" font-size="10.00">main</text>
</a>
</g>
</g>
<!-- Node31&#45;&gt;Node32 -->
<g id="edge54_Node000031_Node000032" class="edge">
<title>Node31&#45;&gt;Node32</title>
<g id="a_edge54_Node000031_Node000032"><a xlink:title=" ">
<path fill="none" stroke="#63b8ff" d="M478.69,-322.66C440.39,-321.11 395.82,-319.31 370.76,-318.3"/>
<polygon fill="#63b8ff" stroke="#63b8ff" points="478.65,-326.16 488.79,-323.07 478.94,-319.17 478.65,-326.16"/>
</a>
</g>
</g>
<!-- Node33&#45;&gt;Node32 -->
<g id="edge56_Node000033_Node000032" class="edge">
<title>Node33&#45;&gt;Node32</title>
<g id="a_edge56_Node000033_Node000032"><a xlink:title=" ">
<path fill="none" stroke="#63b8ff" d="M502.7,-290.68C460.77,-298.1 401.03,-308.66 370.54,-314.05"/>
<polygon fill="#63b8ff" stroke="#63b8ff" points="503.45,-294.11 512.68,-288.92 502.23,-287.21 503.45,-294.11"/>
</a>
</g>
</g>
<!-- Node34&#45;&gt;Node32 -->
<g id="edge58_Node000034_Node000032" class="edge">
<title>Node34&#45;&gt;Node32</title>
<g id="a_edge58_Node000034_Node000032"><a xlink:title=" ">
<path fill="none" stroke="#63b8ff" d="M486.44,-396.66C479.91,-394.28 473.62,-391.28 468,-387.5 444.67,-371.82 455.33,-351.18 432,-335.5 413.59,-323.12 388.02,-319.12 370.56,-317.9"/>
<polygon fill="#63b8ff" stroke="#63b8ff" points="485.52,-400.04 496.11,-399.71 487.63,-393.36 485.52,-400.04"/>
</a>
</g>
</g>
<!-- Node35&#45;&gt;Node32 -->
<g id="edge60_Node000035_Node000032" class="edge">
<title>Node35&#45;&gt;Node32</title>
<g id="a_edge60_Node000035_Node000032"><a xlink:title=" ">
<path fill="none" stroke="#63b8ff" d="M493.36,-356.54C484.81,-354.39 476.13,-352.02 468,-349.5 451.6,-344.42 448.43,-340.49 432,-335.5 411.32,-329.22 387.07,-324.12 370.53,-320.97"/>
<polygon fill="#63b8ff" stroke="#63b8ff" points="492.74,-359.99 503.29,-358.96 494.4,-353.19 492.74,-359.99"/>
</a>
</g>
</g>
</g>
</svg>
