<?xml version="1.0" encoding="UTF-8" standalone="no"?>
<!DOCTYPE svg PUBLIC "-//W3C//DTD SVG 1.1//EN"
 "http://www.w3.org/Graphics/SVG/1.1/DTD/svg11.dtd">
<!-- Generated by graphviz version 2.43.0 (0)
 -->
<!-- Title: ProblemData::hasEnoughCapacity Pages: 1 -->
<svg width="579pt" height="138pt"
 viewBox="0.00 0.00 579.00 138.00" xmlns="http://www.w3.org/2000/svg" xmlns:xlink="http://www.w3.org/1999/xlink">
<g id="graph0" class="graph" transform="scale(1 1) rotate(0) translate(4 134)">
<title>ProblemData::hasEnoughCapacity</title>
<!-- Node1 -->
<g id="Node000001" class="node">
<title>Node1</title>
<g id="a_Node000001"><a xlink:title="Quick sanity check: is total reviewer capacity sufficient?">
<polygon fill="#999999" stroke="#666666" points="571,-74 389,-74 389,-55 571,-55 571,-74"/>
<text text-anchor="middle" x="480" y="-62" font-family="Helvetica,sans-Serif" font-size="10.00">ProblemData::hasEnoughCapacity</text>
</a>
</g>
</g>
<!-- Node2 -->
<g id="Node000002" class="node">
<title>Node2</title>
<g id="a_Node000002"><a xlink:href="test__domain_8cpp.html#ae66f6b31b5ad750f1fe042a706a4e3d4" target="_top" xlink:title=" ">
<polygon fill="white" stroke="#666666" points="296,-130 255,-130 255,-111 296,-111 296,-130"/>
<text text-anchor="middle" x="275.5" y="-118" font-family="Helvetica,sans-Serif" font-size="10.00">main</text>
</a>
</g>
</g>
<!-- Node1&#45;&gt;Node2 -->
<g id="edge1_Node000001_Node000002" class="edge">
<title>Node1&#45;&gt;Node2</title>
<g id="a_edge1_Node000001_Node000002"><a xlink:title=" ">
<path fill="none" stroke="#63b8ff" d="M439.61,-77.06C414.86,-84.79 382.19,-94.67 353,-102.5 333.76,-107.66 311.58,-112.79 296.08,-116.24"/>
<polygon fill="#63b8ff" stroke="#63b8ff" points="440.87,-80.34 449.36,-74 438.77,-73.66 440.87,-80.34"/>
</a>
</g>
</g>
<!-- Node3 -->
<g id="Node000003" class="node">
<title>Node3</title>
<g id="a_Node000003"><a xlink:href="classOutputWriter.html#a723990a687c6d2154467c3cde0a642b0" target="_top" xlink:title="Prints a summary of the problem data (for menu option).">
<polygon fill="white" stroke="#666666" points="353,-93 198,-93 198,-74 353,-74 353,-93"/>
<text text-anchor="middle" x="275.5" y="-81" font-family="Helvetica,sans-Serif" font-size="10.00">OutputWriter::printSummary</text>
</a>
</g>
</g>
<!-- Node1&#45;&gt;Node3 -->
<g id="edge2_Node000001_Node000003" class="edge">
<title>Node1&#45;&gt;Node3</title>
<g id="a_edge2_Node000001_Node000003"><a xlink:title=" ">
<path fill="none" stroke="#63b8ff" d="M378.62,-73.92C370.01,-74.73 361.39,-75.54 353.01,-76.32"/>
<polygon fill="#63b8ff" stroke="#63b8ff" points="379.08,-77.39 388.71,-72.97 378.42,-70.42 379.08,-77.39"/>
</a>
</g>
</g>
<!-- Node6 -->
<g id="Node000006" class="node">
<title>Node6</title>
<g id="a_Node000006"><a xlink:href="test__parser_8cpp.html#ae241a9fb68c40ec0bc4d3137195d5cce" target="_top" xlink:title=" ">
<polygon fill="white" stroke="#666666" points="329,-56 222,-56 222,-37 329,-37 329,-56"/>
<text text-anchor="middle" x="275.5" y="-44" font-family="Helvetica,sans-Serif" font-size="10.00">test_large_dataset</text>
</a>
</g>
</g>
<!-- Node1&#45;&gt;Node6 -->
<g id="edge5_Node000001_Node000006" class="edge">
<title>Node1&#45;&gt;Node6</title>
<g id="a_edge5_Node000001_Node000006"><a xlink:title=" ">
<path fill="none" stroke="#63b8ff" d="M378.65,-55.58C361.55,-54.06 344.41,-52.54 329.19,-51.18"/>
<polygon fill="#63b8ff" stroke="#63b8ff" points="378.44,-59.07 388.71,-56.47 379.06,-52.1 378.44,-59.07"/>
</a>
</g>
</g>
<!-- Node8 -->
<g id="Node000008" class="node">
<title>Node8</title>
<g id="a_Node000008"><a xlink:href="test__graph_8cpp.html#aca441d5ebe3894bca1449f02e0fd8e48" target="_top" xlink:title=" ">
<polygon fill="white" stroke="#666666" points="310.5,-19 240.5,-19 240.5,0 310.5,0 310.5,-19"/>
<text text-anchor="middle" x="275.5" y="-7" font-family="Helvetica,sans-Serif" font-size="10.00">test_stress</text>
</a>
</g>
</g>
<!-- Node1&#45;&gt;Node8 -->
<g id="edge7_Node000001_Node000008" class="edge">
<title>Node1&#45;&gt;Node8</title>
<g id="a_edge7_Node000001_Node000008"><a xlink:title=" ">
<path fill="none" stroke="#63b8ff" d="M438.59,-52.03C413.95,-44.57 381.77,-35.1 353,-27.5 339.28,-23.87 324.08,-20.22 310.87,-17.17"/>
<polygon fill="#63b8ff" stroke="#63b8ff" points="437.74,-55.42 448.32,-54.98 439.77,-48.72 437.74,-55.42"/>
</a>
</g>
</g>
<!-- Node4 -->
<g id="Node000004" class="node">
<title>Node4</title>
<g id="a_Node000004"><a xlink:href="main_8cpp.html#aef0bcc404dd408e438ce7fa09e4ea3f7" target="_top" xlink:title="Executes the program in interactive mode.">
<polygon fill="white" stroke="#666666" points="162,-93 77,-93 77,-74 162,-74 162,-93"/>
<text text-anchor="middle" x="119.5" y="-81" font-family="Helvetica,sans-Serif" font-size="10.00">runInteractive</text>
</a>
</g>
</g>
<!-- Node3&#45;&gt;Node4 -->
<g id="edge3_Node000003_Node000004" class="edge">
<title>Node3&#45;&gt;Node4</title>
<g id="a_edge3_Node000003_Node000004"><a xlink:title=" ">
<path fill="none" stroke="#63b8ff" d="M187.82,-83.5C178.89,-83.5 170.13,-83.5 162.04,-83.5"/>
<polygon fill="#63b8ff" stroke="#63b8ff" points="187.95,-87 197.95,-83.5 187.95,-80 187.95,-87"/>
</a>
</g>
</g>
<!-- Node5 -->
<g id="Node000005" class="node">
<title>Node5</title>
<g id="a_Node000005"><a xlink:href="main_8cpp.html#a0ddf1224851353fc92bfbff6f499fa97" target="_top" xlink:title="Program entry point.">
<polygon fill="white" stroke="#666666" points="41,-93 0,-93 0,-74 41,-74 41,-93"/>
<text text-anchor="middle" x="20.5" y="-81" font-family="Helvetica,sans-Serif" font-size="10.00">main</text>
</a>
</g>
</g>
<!-- Node4&#45;&gt;Node5 -->
<g id="edge4_Node000004_Node000005" class="edge">
<title>Node4&#45;&gt;Node5</title>
<g id="a_edge4_Node000004_Node000005"><a xlink:title=" ">
<path fill="none" stroke="#63b8ff" d="M66.54,-83.5C57.45,-83.5 48.53,-83.5 41.05,-83.5"/>
<polygon fill="#63b8ff" stroke="#63b8ff" points="66.8,-87 76.8,-83.5 66.8,-80 66.8,-87"/>
</a>
</g>
</g>
<!-- Node7 -->
<g id="Node000007" class="node">
<title>Node7</title>
<g id="a_Node000007"><a xlink:href="test__parser_8cpp.html#ae66f6b31b5ad750f1fe042a706a4e3d4" target="_top" xlink:title=" ">
<polygon fill="white" stroke="#666666" points="140,-56 99,-56 99,-37 140,-37 140,-56"/>
<text text-anchor="middle" x="119.5" y="-44" font-family="Helvetica,sans-Serif" font-size="10.00">main</text>
</a>
</g>
</g>
<!-- Node6&#45;&gt;Node7 -->
<g id="edge6_Node000006_Node000007" class="edge">
<title>Node6&#45;&gt;Node7</title>
<g id="a_edge6_Node000006_Node000007"><a xlink:title=" ">
<path fill="none" stroke="#63b8ff" d="M211.83,-46.5C186.11,-46.5 158.18,-46.5 140.07,-46.5"/>
<polygon fill="#63b8ff" stroke="#63b8ff" points="211.93,-50 221.93,-46.5 211.93,-43 211.93,-50"/>
</a>
</g>
</g>
<!-- Node9 -->
<g id="Node000009" class="node">
<title>Node9</title>
<g id="a_Node000009"><a xlink:href="test__graph_8cpp.html#ae66f6b31b5ad750f1fe042a706a4e3d4" target="_top" xlink:title=" ">
<polygon fill="white" stroke="#666666" points="140,-19 99,-19 99,0 140,0 140,-19"/>
<text text-anchor="middle" x="119.5" y="-7" font-family="Helvetica,sans-Serif" font-size="10.00">main</text>
</a>
</g>
</g>
<!-- Node8&#45;&gt;Node9 -->
<g id="edge8_Node000008_Node000009" class="edge">
<title>Node8&#45;&gt;Node9</title>
<g id="a_edge8_Node000008_Node000009"><a xlink:title=" ">
<path fill="none" stroke="#63b8ff" d="M230.16,-9.5C200.36,-9.5 162.55,-9.5 140.01,-9.5"/>
<polygon fill="#63b8ff" stroke="#63b8ff" points="230.32,-13 240.32,-9.5 230.32,-6 230.32,-13"/>
</a>
</g>
</g>
</g>
</svg>
