<?xml version="1.0" encoding="UTF-8" standalone="no"?>
<!DOCTYPE svg PUBLIC "-//W3C//DTD SVG 1.1//EN"
 "http://www.w3.org/Graphics/SVG/1.1/DTD/svg11.dtd">
<!-- Generated by graphviz version 2.43.0 (0)
 -->
<!-- Title: main Pages: 1 -->
<svg width="1000pt" height="606pt"
 viewBox="0.00 0.00 1000.00 606.00" xmlns="http://www.w3.org/2000/svg" xmlns:xlink="http://www.w3.org/1999/xlink">
<g id="graph0" class="graph" transform="scale(1 1) rotate(0) translate(4 602)">
<title>main</title>
<!-- Node1 -->
<g id="Node000001" class="node">
<title>Node1</title>
<g id="a_Node000001"><a xlink:title=" ">
<polygon fill="#999999" stroke="#666666" points="41,-333 0,-333 0,-314 41,-314 41,-333"/>
<text text-anchor="middle" x="20.5" y="-321" font-family="Helvetica,sans-Serif" font-size="10.00">main</text>
</a>
</g>
</g>
<!-- Node2 -->
<g id="Node000002" class="node">
<title>Node2</title>
<g id="a_Node000002"><a xlink:href="test__parser_8cpp.html#a9c1287d07db31654f59eb8b0899803f5" target="_top" xlink:title=" ">
<polygon fill="white" stroke="#666666" points="216,-560.5 94,-560.5 94,-530.5 216,-530.5 216,-560.5"/>
<text text-anchor="start" x="102" y="-548.5" font-family="Helvetica,sans-Serif" font-size="10.00">test_case_insensitive</text>
<text text-anchor="middle" x="155" y="-537.5" font-family="Helvetica,sans-Serif" font-size="10.00">_headers</text>
</a>
</g>
</g>
<!-- Node1&#45;&gt;Node2 -->
<g id="edge1_Node000001_Node000002" class="edge">
<title>Node1&#45;&gt;Node2</title>
<g id="a_edge1_Node000001_Node000002"><a xlink:title=" ">
<path fill="none" stroke="#63b8ff" d="M21.19,-333.31C20.75,-365.16 23.76,-466.7 77,-521.5 79.47,-524.04 82.19,-526.31 85.11,-528.34"/>
<polygon fill="#63b8ff" stroke="#63b8ff" points="83.37,-531.38 93.76,-533.45 86.93,-525.35 83.37,-531.38"/>
</a>
</g>
</g>
<!-- Node19 -->
<g id="Node000019" class="node">
<title>Node19</title>
<g id="a_Node000019"><a xlink:href="test__parser_8cpp.html#a126f63090047c640c01c696f7fc26f2f" target="_top" xlink:title=" ">
<polygon fill="white" stroke="#666666" points="233,-315 77,-315 77,-296 233,-296 233,-315"/>
<text text-anchor="middle" x="155" y="-303" font-family="Helvetica,sans-Serif" font-size="10.00">test_error_bad_match_mode</text>
</a>
</g>
</g>
<!-- Node1&#45;&gt;Node19 -->
<g id="edge29_Node000001_Node000019" class="edge">
<title>Node1&#45;&gt;Node19</title>
<g id="a_edge29_Node000001_Node000019"><a xlink:title=" ">
<path fill="none" stroke="#63b8ff" d="M41.05,-320.84C50.11,-319.61 61.53,-318.06 73.61,-316.42"/>
<polygon fill="#63b8ff" stroke="#63b8ff" points="74.44,-319.84 83.87,-315.03 73.49,-312.9 74.44,-319.84"/>
</a>
</g>
</g>
<!-- Node20 -->
<g id="Node000020" class="node">
<title>Node20</title>
<g id="a_Node000020"><a xlink:href="test__parser_8cpp.html#ab377fe3fe73744d6a0811156a92041b5" target="_top" xlink:title=" ">
<polygon fill="white" stroke="#666666" points="212,-277.5 98,-277.5 98,-247.5 212,-247.5 212,-277.5"/>
<text text-anchor="start" x="106" y="-265.5" font-family="Helvetica,sans-Serif" font-size="10.00">test_error_duplicate</text>
<text text-anchor="middle" x="155" y="-254.5" font-family="Helvetica,sans-Serif" font-size="10.00">_reviewer</text>
</a>
</g>
</g>
<!-- Node1&#45;&gt;Node20 -->
<g id="edge31_Node000001_Node000020" class="edge">
<title>Node1&#45;&gt;Node20</title>
<g id="a_edge31_Node000001_Node000020"><a xlink:title=" ">
<path fill="none" stroke="#63b8ff" d="M33.67,-313.89C44.53,-305.7 61.11,-294.08 77,-286.5 81.02,-284.58 85.23,-282.77 89.52,-281.07"/>
<polygon fill="#63b8ff" stroke="#63b8ff" points="90.85,-284.31 98.99,-277.52 88.4,-277.75 90.85,-284.31"/>
</a>
</g>
</g>
<!-- Node21 -->
<g id="Node000021" class="node">
<title>Node21</title>
<g id="a_Node000021"><a xlink:href="test__parser_8cpp.html#a343c9f74da44baaffaec262905e5e412" target="_top" xlink:title=" ">
<polygon fill="white" stroke="#666666" points="212,-229.5 98,-229.5 98,-199.5 212,-199.5 212,-229.5"/>
<text text-anchor="start" x="106" y="-217.5" font-family="Helvetica,sans-Serif" font-size="10.00">test_error_duplicate</text>
<text text-anchor="middle" x="155" y="-206.5" font-family="Helvetica,sans-Serif" font-size="10.00">_submission</text>
</a>
</g>
</g>
<!-- Node1&#45;&gt;Node21 -->
<g id="edge33_Node000001_Node000021" class="edge">
<title>Node1&#45;&gt;Node21</title>
<g id="a_edge33_Node000001_Node000021"><a xlink:title=" ">
<path fill="none" stroke="#63b8ff" d="M25.22,-313.77C32.47,-296.12 50.15,-258.8 77,-238.5 80.62,-235.77 84.55,-233.34 88.66,-231.19"/>
<polygon fill="#63b8ff" stroke="#63b8ff" points="90.3,-234.29 97.9,-226.9 87.35,-227.94 90.3,-234.29"/>
</a>
</g>
</g>
<!-- Node22 -->
<g id="Node000022" class="node">
<title>Node22</title>
<g id="a_Node000022"><a xlink:href="test__parser_8cpp.html#a5a664a22ac19ebc373b2c370371da52b" target="_top" xlink:title=" ">
<polygon fill="white" stroke="#666666" points="207.5,-181.5 102.5,-181.5 102.5,-151.5 207.5,-151.5 207.5,-181.5"/>
<text text-anchor="start" x="110.5" y="-169.5" font-family="Helvetica,sans-Serif" font-size="10.00">test_error_file_not</text>
<text text-anchor="middle" x="155" y="-158.5" font-family="Helvetica,sans-Serif" font-size="10.00">_found</text>
</a>
</g>
</g>
<!-- Node1&#45;&gt;Node22 -->
<g id="edge35_Node000001_Node000022" class="edge">
<title>Node1&#45;&gt;Node22</title>
<g id="a_edge35_Node000001_Node000022"><a xlink:title=" ">
<path fill="none" stroke="#63b8ff" d="M22.72,-313.88C26.3,-289.55 39.08,-225.04 77,-190.5 81.69,-186.23 87.13,-182.72 92.9,-179.83"/>
<polygon fill="#63b8ff" stroke="#63b8ff" points="94.42,-182.99 102.2,-175.79 91.63,-176.57 94.42,-182.99"/>
</a>
</g>
</g>
<!-- Node23 -->
<g id="Node000023" class="node">
<title>Node23</title>
<g id="a_Node000023"><a xlink:href="test__parser_8cpp.html#a6934d0ae32a4783c14eefea1da80864b" target="_top" xlink:title=" ">
<polygon fill="white" stroke="#666666" points="206,-133.5 104,-133.5 104,-103.5 206,-103.5 206,-133.5"/>
<text text-anchor="start" x="112" y="-121.5" font-family="Helvetica,sans-Serif" font-size="10.00">test_error_invalid</text>
<text text-anchor="middle" x="155" y="-110.5" font-family="Helvetica,sans-Serif" font-size="10.00">_integer</text>
</a>
</g>
</g>
<!-- Node1&#45;&gt;Node23 -->
<g id="edge37_Node000001_Node000023" class="edge">
<title>Node1&#45;&gt;Node23</title>
<g id="a_edge37_Node000001_Node000023"><a xlink:title=" ">
<path fill="none" stroke="#63b8ff" d="M21.5,-313.67C22.04,-283.6 27.84,-191.88 77,-142.5 81.91,-137.57 87.82,-133.64 94.15,-130.52"/>
<polygon fill="#63b8ff" stroke="#63b8ff" points="95.81,-133.62 103.67,-126.51 93.09,-127.17 95.81,-133.62"/>
</a>
</g>
</g>
<!-- Node24 -->
<g id="Node000024" class="node">
<title>Node24</title>
<g id="a_Node000024"><a xlink:href="test__parser_8cpp.html#abfbd71c25d3b401d2d7a9443020b30d3" target="_top" xlink:title=" ">
<polygon fill="white" stroke="#666666" points="216.5,-85.5 93.5,-85.5 93.5,-55.5 216.5,-55.5 216.5,-85.5"/>
<text text-anchor="start" x="101.5" y="-73.5" font-family="Helvetica,sans-Serif" font-size="10.00">test_error_malformed</text>
<text text-anchor="middle" x="155" y="-62.5" font-family="Helvetica,sans-Serif" font-size="10.00">_submission</text>
</a>
</g>
</g>
<!-- Node1&#45;&gt;Node24 -->
<g id="edge39_Node000001_Node000024" class="edge">
<title>Node1&#45;&gt;Node24</title>
<g id="a_edge39_Node000001_Node000024"><a xlink:title=" ">
<path fill="none" stroke="#63b8ff" d="M22.56,-313.94C27.1,-274.84 46.01,-127.55 77,-94.5 79.3,-92.05 81.84,-89.85 84.57,-87.87"/>
<polygon fill="#63b8ff" stroke="#63b8ff" points="86.51,-90.78 93.21,-82.57 82.85,-84.81 86.51,-90.78"/>
</a>
</g>
</g>
<!-- Node25 -->
<g id="Node000025" class="node">
<title>Node25</title>
<g id="a_Node000025"><a xlink:href="test__parser_8cpp.html#ae471e2e9c215d0aa62407de800de98ef" target="_top" xlink:title=" ">
<polygon fill="white" stroke="#666666" points="208.5,-400.5 101.5,-400.5 101.5,-370.5 208.5,-370.5 208.5,-400.5"/>
<text text-anchor="start" x="109.5" y="-388.5" font-family="Helvetica,sans-Serif" font-size="10.00">test_error_missing</text>
<text text-anchor="middle" x="155" y="-377.5" font-family="Helvetica,sans-Serif" font-size="10.00">_section</text>
</a>
</g>
</g>
<!-- Node1&#45;&gt;Node25 -->
<g id="edge41_Node000001_Node000025" class="edge">
<title>Node1&#45;&gt;Node25</title>
<g id="a_edge41_Node000001_Node000025"><a xlink:title=" ">
<path fill="none" stroke="#63b8ff" d="M33.69,-333.06C44.56,-341.22 61.16,-352.83 77,-360.5 81.82,-362.84 86.92,-365.03 92.09,-367.07"/>
<polygon fill="#63b8ff" stroke="#63b8ff" points="90.87,-370.35 101.46,-370.59 93.33,-363.8 90.87,-370.35"/>
</a>
</g>
</g>
<!-- Node26 -->
<g id="Node000026" class="node">
<title>Node26</title>
<g id="a_Node000026"><a xlink:href="test__parser_8cpp.html#a61f86e215a0f00a2ad48a874bedbb795" target="_top" xlink:title=" ">
<polygon fill="white" stroke="#666666" points="218,-352 92,-352 92,-333 218,-333 218,-352"/>
<text text-anchor="middle" x="155" y="-340" font-family="Helvetica,sans-Serif" font-size="10.00">test_error_negative_id</text>
</a>
</g>
</g>
<!-- Node1&#45;&gt;Node26 -->
<g id="edge43_Node000001_Node000026" class="edge">
<title>Node1&#45;&gt;Node26</title>
<g id="a_edge43_Node000001_Node000026"><a xlink:title=" ">
<path fill="none" stroke="#63b8ff" d="M41.05,-326.3C52.15,-327.9 66.81,-330 81.88,-332.16"/>
<polygon fill="#63b8ff" stroke="#63b8ff" points="81.42,-335.63 91.81,-333.58 82.41,-328.7 81.42,-335.63"/>
</a>
</g>
</g>
<!-- Node27 -->
<g id="Node000027" class="node">
<title>Node27</title>
<g id="a_Node000027"><a xlink:href="test__parser_8cpp.html#a90125c8eff9ae32567685fc66c0a0a24" target="_top" xlink:title=" ">
<polygon fill="white" stroke="#666666" points="192,-512 118,-512 118,-493 192,-493 192,-512"/>
<text text-anchor="middle" x="155" y="-500" font-family="Helvetica,sans-Serif" font-size="10.00">test_figure1</text>
</a>
</g>
</g>
<!-- Node1&#45;&gt;Node27 -->
<g id="edge45_Node000001_Node000027" class="edge">
<title>Node1&#45;&gt;Node27</title>
<g id="a_edge45_Node000001_Node000027"><a xlink:title=" ">
<path fill="none" stroke="#63b8ff" d="M21.77,-333.2C23.09,-361.21 30.91,-442.9 77,-484.5 85.59,-492.25 96.88,-496.85 108.15,-499.54"/>
<polygon fill="#63b8ff" stroke="#63b8ff" points="107.5,-502.97 117.98,-501.43 108.82,-496.1 107.5,-502.97"/>
</a>
</g>
</g>
<!-- Node28 -->
<g id="Node000028" class="node">
<title>Node28</title>
<g id="a_Node000028"><a xlink:href="test__parser_8cpp.html#ae241a9fb68c40ec0bc4d3137195d5cce" target="_top" xlink:title=" ">
<polygon fill="white" stroke="#666666" points="208.5,-475 101.5,-475 101.5,-456 208.5,-456 208.5,-475"/>
<text text-anchor="middle" x="155" y="-463" font-family="Helvetica,sans-Serif" font-size="10.00">test_large_dataset</text>
</a>
</g>
</g>
<!-- Node1&#45;&gt;Node28 -->
<g id="edge49_Node000001_Node000028" class="edge">
<title>Node1&#45;&gt;Node28</title>
<g id="a_edge49_Node000001_Node000028"><a xlink:title=" ">
<path fill="none" stroke="#63b8ff" d="M22.9,-333.33C26.81,-356.91 40.07,-417.03 77,-447.5 81.37,-451.1 86.33,-454.01 91.58,-456.36"/>
<polygon fill="#63b8ff" stroke="#63b8ff" points="90.67,-459.76 101.26,-460 93.14,-453.21 90.67,-459.76"/>
</a>
</g>
</g>
<!-- Node30 -->
<g id="Node000030" class="node">
<title>Node30</title>
<g id="a_Node000030"><a xlink:href="test__parser_8cpp.html#ac6b56ff4100c4b6092b5b80fdf1f49c2" target="_top" xlink:title=" ">
<polygon fill="white" stroke="#666666" points="224,-37 86,-37 86,-18 224,-18 224,-37"/>
<text text-anchor="middle" x="155" y="-25" font-family="Helvetica,sans-Serif" font-size="10.00">test_secondary_domains</text>
</a>
</g>
</g>
<!-- Node1&#45;&gt;Node30 -->
<g id="edge54_Node000001_Node000030" class="edge">
<title>Node1&#45;&gt;Node30</title>
<g id="a_edge54_Node000001_Node000030"><a xlink:title=" ">
<path fill="none" stroke="#63b8ff" d="M22.09,-313.76C24.95,-269.32 38.94,-86.28 77,-46.5 78.24,-45.2 79.56,-43.98 80.94,-42.85"/>
<polygon fill="#63b8ff" stroke="#63b8ff" points="83.09,-45.62 89.46,-37.14 79.2,-39.8 83.09,-45.62"/>
</a>
</g>
</g>
<!-- Node33 -->
<g id="Node000033" class="node">
<title>Node33</title>
<g id="a_Node000033"><a xlink:href="test__parser_8cpp.html#aecc82ef8e44a1d7ac23fb64f603efd07" target="_top" xlink:title=" ">
<polygon fill="white" stroke="#666666" points="208.5,-598 101.5,-598 101.5,-579 208.5,-579 208.5,-598"/>
<text text-anchor="middle" x="155" y="-586" font-family="Helvetica,sans-Serif" font-size="10.00">test_section_order</text>
</a>
</g>
</g>
<!-- Node1&#45;&gt;Node33 -->
<g id="edge58_Node000001_Node000033" class="edge">
<title>Node1&#45;&gt;Node33</title>
<g id="a_edge58_Node000001_Node000033"><a xlink:title=" ">
<path fill="none" stroke="#63b8ff" d="M22.35,-333.25C26.15,-374.57 42.91,-534.72 77,-569.5 81.26,-573.85 86.35,-577.26 91.84,-579.93"/>
<polygon fill="#63b8ff" stroke="#63b8ff" points="90.83,-583.29 101.41,-583.76 93.43,-576.79 90.83,-583.29"/>
</a>
</g>
</g>
<!-- Node34 -->
<g id="Node000034" class="node">
<title>Node34</title>
<g id="a_Node000034"><a xlink:href="test__parser_8cpp.html#a3db8e6d525932bc5a1c6dafa2fc9e0a9" target="_top" xlink:title=" ">
<polygon fill="white" stroke="#666666" points="228.5,-438 81.5,-438 81.5,-419 228.5,-419 228.5,-438"/>
<text text-anchor="middle" x="155" y="-426" font-family="Helvetica,sans-Serif" font-size="10.00">test_whitespace_tolerance</text>
</a>
</g>
</g>
<!-- Node1&#45;&gt;Node34 -->
<g id="edge62_Node000001_Node000034" class="edge">
<title>Node1&#45;&gt;Node34</title>
<g id="a_edge62_Node000001_Node000034"><a xlink:title=" ">
<path fill="none" stroke="#63b8ff" d="M24.96,-333.22C31.9,-351.22 49.23,-389.68 77,-409.5 79.69,-411.42 82.55,-413.15 85.53,-414.7"/>
<polygon fill="#63b8ff" stroke="#63b8ff" points="84.21,-417.94 94.76,-418.86 87.08,-411.56 84.21,-417.94"/>
</a>
</g>
</g>
<!-- Node3 -->
<g id="Node000003" class="node">
<title>Node3</title>
<g id="a_Node000003"><a xlink:href="structProblemData.html#a8972080e7733220bd51b437e111bf5c9" target="_top" xlink:title="Number of reviewers.">
<polygon fill="white" stroke="#666666" points="439.5,-552 280.5,-552 280.5,-533 439.5,-533 439.5,-552"/>
<text text-anchor="middle" x="360" y="-540" font-family="Helvetica,sans-Serif" font-size="10.00">ProblemData::numReviewers</text>
</a>
</g>
</g>
<!-- Node2&#45;&gt;Node3 -->
<g id="edge2_Node000002_Node000003" class="edge">
<title>Node2&#45;&gt;Node3</title>
<g id="a_edge2_Node000002_Node000003"><a xlink:title=" ">
<path fill="none" stroke="#63b8ff" d="M216.08,-544.61C233.05,-544.36 251.88,-544.08 270.16,-543.81"/>
<polygon fill="#63b8ff" stroke="#63b8ff" points="270.29,-547.31 280.24,-543.66 270.19,-540.31 270.29,-547.31"/>
</a>
</g>
</g>
<!-- Node4 -->
<g id="Node000004" class="node">
<title>Node4</title>
<g id="a_Node000004"><a xlink:href="structProblemData.html#af8f49cc7cddaa7219f2a6f3bc9853474" target="_top" xlink:title="Number of submissions.">
<polygon fill="white" stroke="#666666" points="445,-512 275,-512 275,-493 445,-493 445,-512"/>
<text text-anchor="middle" x="360" y="-500" font-family="Helvetica,sans-Serif" font-size="10.00">ProblemData::numSubmissions</text>
</a>
</g>
</g>
<!-- Node2&#45;&gt;Node4 -->
<g id="edge3_Node000002_Node000004" class="edge">
<title>Node2&#45;&gt;Node4</title>
<g id="a_edge3_Node000002_Node000004"><a xlink:title=" ">
<path fill="none" stroke="#63b8ff" d="M216.08,-532.77C243.87,-526.89 276.65,-519.94 303.8,-514.19"/>
<polygon fill="#63b8ff" stroke="#63b8ff" points="304.85,-517.55 313.91,-512.05 303.4,-510.7 304.85,-517.55"/>
</a>
</g>
</g>
<!-- Node5 -->
<g id="Node000005" class="node">
<title>Node5</title>
<g id="a_Node000005"><a xlink:href="classParser.html#a5a2a7fa051b2dce0c67484fcb141d913" target="_top" xlink:title="Parses the input file and returns a fully populated ProblemData.">
<polygon fill="white" stroke="#666666" points="400,-333 320,-333 320,-314 400,-314 400,-333"/>
<text text-anchor="middle" x="360" y="-321" font-family="Helvetica,sans-Serif" font-size="10.00">Parser::parse</text>
</a>
</g>
</g>
<!-- Node2&#45;&gt;Node5 -->
<g id="edge4_Node000002_Node000005" class="edge">
<title>Node2&#45;&gt;Node5</title>
<g id="a_edge4_Node000002_Node000005"><a xlink:title=" ">
<path fill="none" stroke="#63b8ff" d="M216.19,-532.21C222.26,-529.31 228.01,-525.79 233,-521.5 260.73,-497.66 250.19,-478.86 269,-447.5 292.9,-407.65 326.09,-364.45 344.76,-341.02"/>
<polygon fill="#63b8ff" stroke="#63b8ff" points="347.62,-343.05 351.16,-333.06 342.17,-338.67 347.62,-343.05"/>
</a>
</g>
</g>
<!-- Node6 -->
<g id="Node000006" class="node">
<title>Node6</title>
<g id="a_Node000006"><a xlink:href="classParser.html#abe415229c2daa3f3ba4efd44661bd703" target="_top" xlink:title="Parses a control line: &quot;KeyName, value&quot;.">
<polygon fill="white" stroke="#666666" points="632.5,-390 497.5,-390 497.5,-371 632.5,-371 632.5,-390"/>
<text text-anchor="middle" x="565" y="-378" font-family="Helvetica,sans-Serif" font-size="10.00">Parser::parseControlLine</text>
</a>
</g>
</g>
<!-- Node5&#45;&gt;Node6 -->
<g id="edge5_Node000005_Node000006" class="edge">
<title>Node5&#45;&gt;Node6</title>
<g id="a_edge5_Node000005_Node000006"><a xlink:title=" ">
<path fill="none" stroke="#63b8ff" d="M394.98,-333.04C429.38,-342.7 482.71,-357.68 520.25,-368.22"/>
<polygon fill="#63b8ff" stroke="#63b8ff" points="519.34,-371.59 529.91,-370.93 521.23,-364.86 519.34,-371.59"/>
</a>
</g>
</g>
<!-- Node9 -->
<g id="Node000009" class="node">
<title>Node9</title>
<g id="a_Node000009"><a xlink:href="classParser.html#a113f0dfba3013e3dade8b717063ad8a0" target="_top" xlink:title="Trims leading and trailing whitespace from a string.">
<polygon fill="white" stroke="#666666" points="970.5,-465 897.5,-465 897.5,-446 970.5,-446 970.5,-465"/>
<text text-anchor="middle" x="934" y="-453" font-family="Helvetica,sans-Serif" font-size="10.00">Parser::trim</text>
</a>
</g>
</g>
<!-- Node5&#45;&gt;Node9 -->
<g id="edge28_Node000005_Node000009" class="edge">
<title>Node5&#45;&gt;Node9</title>
<g id="a_edge28_Node000005_Node000009"><a xlink:title=" ">
<path fill="none" stroke="#63b8ff" d="M374.37,-333.02C416.52,-362.29 551.37,-450.46 679,-474.5 749.32,-487.75 768.81,-481.7 840,-474.5 855.59,-472.92 872.42,-469.9 887.43,-466.72"/>
<polygon fill="#63b8ff" stroke="#63b8ff" points="888.47,-470.07 897.49,-464.51 886.97,-463.23 888.47,-470.07"/>
</a>
</g>
</g>
<!-- Node11 -->
<g id="Node000011" class="node">
<title>Node11</title>
<g id="a_Node000011"><a xlink:href="classParser.html#a381845570bc3e8444268d1f0165e5c18" target="_top" xlink:title="Converts a string to lowercase (for case&#45;insensitive comparison).">
<polygon fill="white" stroke="#666666" points="805.5,-352 713.5,-352 713.5,-333 805.5,-333 805.5,-352"/>
<text text-anchor="middle" x="759.5" y="-340" font-family="Helvetica,sans-Serif" font-size="10.00">Parser::toLower</text>
</a>
</g>
</g>
<!-- Node5&#45;&gt;Node11 -->
<g id="edge27_Node000005_Node000011" class="edge">
<title>Node5&#45;&gt;Node11</title>
<g id="a_edge27_Node000005_Node000011"><a xlink:title=" ">
<path fill="none" stroke="#63b8ff" d="M400.2,-325.37C471.3,-328.77 621.67,-335.96 703.18,-339.86"/>
<polygon fill="#63b8ff" stroke="#63b8ff" points="703.09,-343.36 713.25,-340.34 703.42,-336.36 703.09,-343.36"/>
</a>
</g>
</g>
<!-- Node13 -->
<g id="Node000013" class="node">
<title>Node13</title>
<g id="a_Node000013"><a xlink:href="classParser.html#a49fdbc3e3b2c220e042d77ea0568bdba" target="_top" xlink:title="Parses a parameter line: &quot;KeyName, value&quot;.">
<polygon fill="white" stroke="#666666" points="640,-314 490,-314 490,-295 640,-295 640,-314"/>
<text text-anchor="middle" x="565" y="-302" font-family="Helvetica,sans-Serif" font-size="10.00">Parser::parseParameterLine</text>
</a>
</g>
</g>
<!-- Node5&#45;&gt;Node13 -->
<g id="edge13_Node000005_Node000013" class="edge">
<title>Node5&#45;&gt;Node13</title>
<g id="a_edge13_Node000005_Node000013"><a xlink:title=" ">
<path fill="none" stroke="#63b8ff" d="M400.14,-319.84C422.72,-317.72 452.01,-314.98 479.57,-312.4"/>
<polygon fill="#63b8ff" stroke="#63b8ff" points="480,-315.88 489.63,-311.46 479.35,-308.91 480,-315.88"/>
</a>
</g>
</g>
<!-- Node15 -->
<g id="Node000015" class="node">
<title>Node15</title>
<g id="a_Node000015"><a xlink:href="classParser.html#a8b52e53cfc75a57e18f03d925823fe2a" target="_top" xlink:title="Parses a single reviewer line.">
<polygon fill="white" stroke="#666666" points="638,-183 492,-183 492,-164 638,-164 638,-183"/>
<text text-anchor="middle" x="565" y="-171" font-family="Helvetica,sans-Serif" font-size="10.00">Parser::parseReviewerLine</text>
</a>
</g>
</g>
<!-- Node5&#45;&gt;Node15 -->
<g id="edge19_Node000005_Node000015" class="edge">
<title>Node5&#45;&gt;Node15</title>
<g id="a_edge19_Node000005_Node000015"><a xlink:title=" ">
<path fill="none" stroke="#63b8ff" d="M370.03,-313.71C389.71,-292.75 438.64,-242.84 487,-210.5 500.52,-201.46 516.59,-193.37 530.55,-187.08"/>
<polygon fill="#63b8ff" stroke="#63b8ff" points="532.05,-190.24 539.81,-183.02 529.25,-183.83 532.05,-190.24"/>
</a>
</g>
</g>
<!-- Node17 -->
<g id="Node000017" class="node">
<title>Node17</title>
<g id="a_Node000017"><a xlink:href="classParser.html#ab15bc67b738ede92f26a5ead4c294bd3" target="_top" xlink:title="Parses a single submission line.">
<polygon fill="white" stroke="#666666" points="643,-239 487,-239 487,-220 643,-220 643,-239"/>
<text text-anchor="middle" x="565" y="-227" font-family="Helvetica,sans-Serif" font-size="10.00">Parser::parseSubmissionLine</text>
</a>
</g>
</g>
<!-- Node5&#45;&gt;Node17 -->
<g id="edge23_Node000005_Node000017" class="edge">
<title>Node5&#45;&gt;Node17</title>
<g id="a_edge23_Node000005_Node000017"><a xlink:title=" ">
<path fill="none" stroke="#63b8ff" d="M381.58,-313.97C417.68,-297.25 492.52,-262.6 534.25,-243.28"/>
<polygon fill="#63b8ff" stroke="#63b8ff" points="535.76,-246.43 543.36,-239.06 532.82,-240.08 535.76,-246.43"/>
</a>
</g>
</g>
<!-- Node7 -->
<g id="Node000007" class="node">
<title>Node7</title>
<g id="a_Node000007"><a xlink:href="classParser.html#a54de14fb280b60a07adfbf68c508b767" target="_top" xlink:title="Parses a trimmed token as an integer with error context.">
<polygon fill="white" stroke="#666666" points="992,-240 876,-240 876,-221 992,-221 992,-240"/>
<text text-anchor="middle" x="934" y="-228" font-family="Helvetica,sans-Serif" font-size="10.00">Parser::parseIntField</text>
</a>
</g>
</g>
<!-- Node6&#45;&gt;Node7 -->
<g id="edge6_Node000006_Node000007" class="edge">
<title>Node6&#45;&gt;Node7</title>
<g id="a_edge6_Node000006_Node000007"><a xlink:title=" ">
<path fill="none" stroke="#63b8ff" d="M625.44,-390.02C683.9,-396.33 773.76,-397.67 840,-360.5 884.4,-335.59 912.93,-279.61 925.53,-249.89"/>
<polygon fill="#63b8ff" stroke="#63b8ff" points="928.93,-250.82 929.45,-240.24 922.44,-248.19 928.93,-250.82"/>
</a>
</g>
</g>
<!-- Node8 -->
<g id="Node000008" class="node">
<title>Node8</title>
<g id="a_Node000008"><a xlink:href="classParser.html#aacf502fa084a101374bda3681e0d23bb" target="_top" xlink:title="Splits a CSV line by commas, respecting double&#45;quoted fields.">
<polygon fill="white" stroke="#666666" points="806,-278 713,-278 713,-259 806,-259 806,-278"/>
<text text-anchor="middle" x="759.5" y="-266" font-family="Helvetica,sans-Serif" font-size="10.00">Parser::splitCSV</text>
</a>
</g>
</g>
<!-- Node6&#45;&gt;Node8 -->
<g id="edge7_Node000006_Node000008" class="edge">
<title>Node6&#45;&gt;Node8</title>
<g id="a_edge7_Node000006_Node000008"><a xlink:title=" ">
<path fill="none" stroke="#63b8ff" d="M579.8,-370.99C595.56,-359.93 621.9,-340.83 643,-322.5 660.08,-307.66 659.19,-297.43 679,-286.5 686.39,-282.42 694.66,-279.27 702.98,-276.83"/>
<polygon fill="#63b8ff" stroke="#63b8ff" points="703.95,-280.19 712.74,-274.28 702.18,-273.42 703.95,-280.19"/>
</a>
</g>
</g>
<!-- Node10 -->
<g id="Node000010" class="node">
<title>Node10</title>
<g id="a_Node000010"><a xlink:href="classParser.html#a52df5c3f8fc72a8a486ae35a61d764d1" target="_top" xlink:title="Removes surrounding double quotes from a string value.">
<polygon fill="white" stroke="#666666" points="814,-465 705,-465 705,-446 814,-446 814,-465"/>
<text text-anchor="middle" x="759.5" y="-453" font-family="Helvetica,sans-Serif" font-size="10.00">Parser::stripQuotes</text>
</a>
</g>
</g>
<!-- Node6&#45;&gt;Node10 -->
<g id="edge9_Node000006_Node000010" class="edge">
<title>Node6&#45;&gt;Node10</title>
<g id="a_edge9_Node000006_Node000010"><a xlink:title=" ">
<path fill="none" stroke="#63b8ff" d="M581.91,-390.1C603.3,-402.64 642.81,-424.5 679,-437.5 684.94,-439.64 691.23,-441.57 697.56,-443.32"/>
<polygon fill="#63b8ff" stroke="#63b8ff" points="696.94,-446.77 707.5,-445.9 698.7,-440 696.94,-446.77"/>
</a>
</g>
</g>
<!-- Node6&#45;&gt;Node11 -->
<g id="edge11_Node000006_Node000011" class="edge">
<title>Node6&#45;&gt;Node11</title>
<g id="a_edge11_Node000006_Node000011"><a xlink:title=" ">
<path fill="none" stroke="#63b8ff" d="M614.58,-370.91C641.56,-365.58 675.23,-358.94 703.21,-353.41"/>
<polygon fill="#63b8ff" stroke="#63b8ff" points="704.11,-356.8 713.25,-351.43 702.76,-349.94 704.11,-356.8"/>
</a>
</g>
</g>
<!-- Node12 -->
<g id="Node000012" class="node">
<title>Node12</title>
<g id="a_Node000012"><a xlink:href="domain_8h.html#a0e806904288551ac6c43e2d413164657" target="_top" xlink:title="Converts an integer from the input file to a MatchMode.">
<polygon fill="white" stroke="#666666" points="801,-428 718,-428 718,-409 801,-409 801,-428"/>
<text text-anchor="middle" x="759.5" y="-416" font-family="Helvetica,sans-Serif" font-size="10.00">toMatchMode</text>
</a>
</g>
</g>
<!-- Node6&#45;&gt;Node12 -->
<g id="edge12_Node000006_Node000012" class="edge">
<title>Node6&#45;&gt;Node12</title>
<g id="a_edge12_Node000006_Node000012"><a xlink:title=" ">
<path fill="none" stroke="#63b8ff" d="M614.58,-390.09C643.07,-395.71 679.02,-402.81 707.87,-408.5"/>
<polygon fill="#63b8ff" stroke="#63b8ff" points="707.26,-411.95 717.75,-410.46 708.62,-405.09 707.26,-411.95"/>
</a>
</g>
</g>
<!-- Node8&#45;&gt;Node9 -->
<g id="edge8_Node000008_Node000009" class="edge">
<title>Node8&#45;&gt;Node9</title>
<g id="a_edge8_Node000008_Node000009"><a xlink:title=" ">
<path fill="none" stroke="#63b8ff" d="M806.25,-272.09C818.11,-274.75 830.28,-279.18 840,-286.5 891.17,-325.01 917.78,-400.28 927.98,-435.91"/>
<polygon fill="#63b8ff" stroke="#63b8ff" points="924.61,-436.88 930.62,-445.61 931.37,-435.04 924.61,-436.88"/>
</a>
</g>
</g>
<!-- Node10&#45;&gt;Node9 -->
<g id="edge10_Node000010_Node000009" class="edge">
<title>Node10&#45;&gt;Node9</title>
<g id="a_edge10_Node000010_Node000009"><a xlink:title=" ">
<path fill="none" stroke="#63b8ff" d="M814.13,-455.5C837.53,-455.5 864.68,-455.5 887.12,-455.5"/>
<polygon fill="#63b8ff" stroke="#63b8ff" points="887.39,-459 897.39,-455.5 887.39,-452 887.39,-459"/>
</a>
</g>
</g>
<!-- Node13&#45;&gt;Node7 -->
<g id="edge16_Node000013_Node000007" class="edge">
<title>Node13&#45;&gt;Node7</title>
<g id="a_edge16_Node000013_Node000007"><a xlink:title=" ">
<path fill="none" stroke="#63b8ff" d="M580.99,-294.9C601.97,-282.01 641.72,-259.57 679,-249.5 740.83,-232.8 814.01,-228.91 865.9,-228.69"/>
<polygon fill="#63b8ff" stroke="#63b8ff" points="865.98,-232.19 875.98,-228.69 865.98,-225.19 865.98,-232.19"/>
</a>
</g>
</g>
<!-- Node13&#45;&gt;Node8 -->
<g id="edge17_Node000013_Node000008" class="edge">
<title>Node13&#45;&gt;Node8</title>
<g id="a_edge17_Node000013_Node000008"><a xlink:title=" ">
<path fill="none" stroke="#63b8ff" d="M616.83,-294.99C643.3,-290.04 675.72,-283.98 702.86,-278.91"/>
<polygon fill="#63b8ff" stroke="#63b8ff" points="703.79,-282.29 712.98,-277.01 702.51,-275.41 703.79,-282.29"/>
</a>
</g>
</g>
<!-- Node13&#45;&gt;Node11 -->
<g id="edge18_Node000013_Node000011" class="edge">
<title>Node13&#45;&gt;Node11</title>
<g id="a_edge18_Node000013_Node000011"><a xlink:title=" ">
<path fill="none" stroke="#63b8ff" d="M614.58,-314.09C641.56,-319.42 675.23,-326.06 703.21,-331.59"/>
<polygon fill="#63b8ff" stroke="#63b8ff" points="702.76,-335.06 713.25,-333.57 704.11,-328.2 702.76,-335.06"/>
</a>
</g>
</g>
<!-- Node14 -->
<g id="Node000014" class="node">
<title>Node14</title>
<g id="a_Node000014"><a xlink:href="classParser.html#ac9cbf2eac7c906d2da2d95b9c16cc02e" target="_top" xlink:title="Parses a trimmed token as a boolean (0 or 1).">
<polygon fill="white" stroke="#666666" points="822,-315 697,-315 697,-296 822,-296 822,-315"/>
<text text-anchor="middle" x="759.5" y="-303" font-family="Helvetica,sans-Serif" font-size="10.00">Parser::parseBoolField</text>
</a>
</g>
</g>
<!-- Node13&#45;&gt;Node14 -->
<g id="edge14_Node000013_Node000014" class="edge">
<title>Node13&#45;&gt;Node14</title>
<g id="a_edge14_Node000013_Node000014"><a xlink:title=" ">
<path fill="none" stroke="#63b8ff" d="M640.15,-304.89C655.38,-304.96 671.39,-305.05 686.55,-305.13"/>
<polygon fill="#63b8ff" stroke="#63b8ff" points="686.86,-308.63 696.88,-305.18 686.9,-301.63 686.86,-308.63"/>
</a>
</g>
</g>
<!-- Node14&#45;&gt;Node7 -->
<g id="edge15_Node000014_Node000007" class="edge">
<title>Node14&#45;&gt;Node7</title>
<g id="a_edge15_Node000014_Node000007"><a xlink:title=" ">
<path fill="none" stroke="#63b8ff" d="M810.86,-295.94C820.7,-293.39 830.81,-290.26 840,-286.5 866,-275.87 893.24,-258.64 911.47,-246.09"/>
<polygon fill="#63b8ff" stroke="#63b8ff" points="913.95,-248.63 920.13,-240.02 909.93,-242.9 913.95,-248.63"/>
</a>
</g>
</g>
<!-- Node15&#45;&gt;Node7 -->
<g id="edge21_Node000015_Node000007" class="edge">
<title>Node15&#45;&gt;Node7</title>
<g id="a_edge21_Node000015_Node000007"><a xlink:title=" ">
<path fill="none" stroke="#63b8ff" d="M585.84,-163.97C632.26,-143.07 750.79,-97.99 840,-135.5 877.03,-151.07 906.69,-189.37 921.89,-212.3"/>
<polygon fill="#63b8ff" stroke="#63b8ff" points="918.99,-214.27 927.33,-220.81 924.89,-210.5 918.99,-214.27"/>
</a>
</g>
</g>
<!-- Node15&#45;&gt;Node8 -->
<g id="edge22_Node000015_Node000008" class="edge">
<title>Node15&#45;&gt;Node8</title>
<g id="a_edge22_Node000015_Node000008"><a xlink:title=" ">
<path fill="none" stroke="#63b8ff" d="M586.31,-183.14C601.86,-190.55 623.83,-201.08 643,-210.5 673.09,-225.28 707.4,-242.57 730.76,-254.4"/>
<polygon fill="#63b8ff" stroke="#63b8ff" points="729.24,-257.55 739.74,-258.96 732.41,-251.31 729.24,-257.55"/>
</a>
</g>
</g>
<!-- Node16 -->
<g id="Node000016" class="node">
<title>Node16</title>
<g id="a_Node000016"><a xlink:href="structProblemData.html#a9f9c5ab24ac824b060f3cdb7bbd764bf" target="_top" xlink:title="Adds a reviewer with duplicate&#45;ID detection.">
<polygon fill="white" stroke="#666666" points="834.5,-88 684.5,-88 684.5,-69 834.5,-69 834.5,-88"/>
<text text-anchor="middle" x="759.5" y="-76" font-family="Helvetica,sans-Serif" font-size="10.00">ProblemData::addReviewer</text>
</a>
</g>
</g>
<!-- Node15&#45;&gt;Node16 -->
<g id="edge20_Node000015_Node000016" class="edge">
<title>Node15&#45;&gt;Node16</title>
<g id="a_edge20_Node000015_Node000016"><a xlink:title=" ">
<path fill="none" stroke="#63b8ff" d="M578.91,-163.76C599.25,-148.8 640.41,-120.06 679,-102.5 688.65,-98.11 699.31,-94.26 709.61,-91.01"/>
<polygon fill="#63b8ff" stroke="#63b8ff" points="710.76,-94.31 719.32,-88.07 708.74,-87.61 710.76,-94.31"/>
</a>
</g>
</g>
<!-- Node17&#45;&gt;Node7 -->
<g id="edge25_Node000017_Node000007" class="edge">
<title>Node17&#45;&gt;Node7</title>
<g id="a_edge25_Node000017_Node000007"><a xlink:title=" ">
<path fill="none" stroke="#63b8ff" d="M637.93,-219.98C651.55,-218.53 665.69,-217.26 679,-216.5 750.44,-212.4 768.64,-211.16 840,-216.5 849.43,-217.21 859.34,-218.31 869.05,-219.59"/>
<polygon fill="#63b8ff" stroke="#63b8ff" points="868.67,-223.07 879.06,-220.99 869.64,-216.14 868.67,-223.07"/>
</a>
</g>
</g>
<!-- Node17&#45;&gt;Node8 -->
<g id="edge26_Node000017_Node000008" class="edge">
<title>Node17&#45;&gt;Node8</title>
<g id="a_edge26_Node000017_Node000008"><a xlink:title=" ">
<path fill="none" stroke="#63b8ff" d="M613.09,-239.04C640.27,-244.55 674.61,-251.5 703.08,-257.27"/>
<polygon fill="#63b8ff" stroke="#63b8ff" points="702.39,-260.7 712.89,-259.26 703.78,-253.84 702.39,-260.7"/>
</a>
</g>
</g>
<!-- Node18 -->
<g id="Node000018" class="node">
<title>Node18</title>
<g id="a_Node000018"><a xlink:href="structProblemData.html#a849ef6ded60771bec2a5e1b6faf0545c" target="_top" xlink:title="Adds a submission with duplicate&#45;ID detection.">
<polygon fill="white" stroke="#666666" points="840,-164 679,-164 679,-145 840,-145 840,-164"/>
<text text-anchor="middle" x="759.5" y="-152" font-family="Helvetica,sans-Serif" font-size="10.00">ProblemData::addSubmission</text>
</a>
</g>
</g>
<!-- Node17&#45;&gt;Node18 -->
<g id="edge24_Node000017_Node000018" class="edge">
<title>Node17&#45;&gt;Node18</title>
<g id="a_edge24_Node000017_Node000018"><a xlink:title=" ">
<path fill="none" stroke="#63b8ff" d="M585.27,-219.87C607.51,-208.97 645.34,-191.11 679,-178.5 690.07,-174.35 702.2,-170.4 713.58,-166.94"/>
<polygon fill="#63b8ff" stroke="#63b8ff" points="714.75,-170.24 723.34,-164.04 712.76,-163.54 714.75,-170.24"/>
</a>
</g>
</g>
<!-- Node19&#45;&gt;Node5 -->
<g id="edge30_Node000019_Node000005" class="edge">
<title>Node19&#45;&gt;Node5</title>
<g id="a_edge30_Node000019_Node000005"><a xlink:title=" ">
<path fill="none" stroke="#63b8ff" d="M233.04,-312.33C258.71,-314.61 286.61,-317.08 309.61,-319.12"/>
<polygon fill="#63b8ff" stroke="#63b8ff" points="309.54,-322.63 319.81,-320.03 310.16,-315.66 309.54,-322.63"/>
</a>
</g>
</g>
<!-- Node20&#45;&gt;Node5 -->
<g id="edge32_Node000020_Node000005" class="edge">
<title>Node20&#45;&gt;Node5</title>
<g id="a_edge32_Node000020_Node000005"><a xlink:title=" ">
<path fill="none" stroke="#63b8ff" d="M205.92,-277.5C240.28,-287.83 285.39,-301.38 317.72,-311.1"/>
<polygon fill="#63b8ff" stroke="#63b8ff" points="316.74,-314.46 327.32,-313.98 318.75,-307.75 316.74,-314.46"/>
</a>
</g>
</g>
<!-- Node21&#45;&gt;Node5 -->
<g id="edge34_Node000021_Node000005" class="edge">
<title>Node21&#45;&gt;Node5</title>
<g id="a_edge34_Node000021_Node000005"><a xlink:title=" ">
<path fill="none" stroke="#63b8ff" d="M211.44,-229.63C218.82,-232.27 226.18,-235.23 233,-238.5 273.25,-257.83 315.34,-288.75 339.25,-307.48"/>
<polygon fill="#63b8ff" stroke="#63b8ff" points="337.2,-310.32 347.21,-313.79 341.55,-304.84 337.2,-310.32"/>
</a>
</g>
</g>
<!-- Node22&#45;&gt;Node5 -->
<g id="edge36_Node000022_Node000005" class="edge">
<title>Node22&#45;&gt;Node5</title>
<g id="a_edge36_Node000022_Node000005"><a xlink:title=" ">
<path fill="none" stroke="#63b8ff" d="M207.73,-178.61C216.51,-181.77 225.28,-185.69 233,-190.5 282.93,-221.62 326.49,-277.21 346.82,-305.66"/>
<polygon fill="#63b8ff" stroke="#63b8ff" points="343.97,-307.69 352.58,-313.87 349.7,-303.68 343.97,-307.69"/>
</a>
</g>
</g>
<!-- Node23&#45;&gt;Node5 -->
<g id="edge38_Node000023_Node000005" class="edge">
<title>Node23&#45;&gt;Node5</title>
<g id="a_edge38_Node000023_Node000005"><a xlink:title=" ">
<path fill="none" stroke="#63b8ff" d="M206.36,-128.92C215.75,-132.29 225.09,-136.71 233,-142.5 292.87,-186.37 334.32,-267.6 350.92,-304.44"/>
<polygon fill="#63b8ff" stroke="#63b8ff" points="347.88,-306.22 355.1,-313.98 354.29,-303.41 347.88,-306.22"/>
</a>
</g>
</g>
<!-- Node24&#45;&gt;Node5 -->
<g id="edge40_Node000024_Node000005" class="edge">
<title>Node24&#45;&gt;Node5</title>
<g id="a_edge40_Node000024_Node000005"><a xlink:title=" ">
<path fill="none" stroke="#63b8ff" d="M216.75,-84.41C222.58,-87.19 228.12,-90.51 233,-94.5 303.63,-152.19 341.02,-260.43 353.83,-304.3"/>
<polygon fill="#63b8ff" stroke="#63b8ff" points="350.48,-305.32 356.56,-314 357.22,-303.42 350.48,-305.32"/>
</a>
</g>
</g>
<!-- Node25&#45;&gt;Node5 -->
<g id="edge42_Node000025_Node000005" class="edge">
<title>Node25&#45;&gt;Node5</title>
<g id="a_edge42_Node000025_Node000005"><a xlink:title=" ">
<path fill="none" stroke="#63b8ff" d="M205.14,-370.49C239.7,-359.94 285.41,-345.97 318.01,-336.02"/>
<polygon fill="#63b8ff" stroke="#63b8ff" points="319.14,-339.33 327.68,-333.07 317.09,-332.64 319.14,-339.33"/>
</a>
</g>
</g>
<!-- Node26&#45;&gt;Node5 -->
<g id="edge44_Node000026_Node000005" class="edge">
<title>Node26&#45;&gt;Node5</title>
<g id="a_edge44_Node000026_Node000005"><a xlink:title=" ">
<path fill="none" stroke="#63b8ff" d="M218.01,-336.7C247.37,-333.95 281.96,-330.71 309.53,-328.13"/>
<polygon fill="#63b8ff" stroke="#63b8ff" points="310.09,-331.59 319.72,-327.18 309.44,-324.62 310.09,-331.59"/>
</a>
</g>
</g>
<!-- Node27&#45;&gt;Node3 -->
<g id="edge46_Node000027_Node000003" class="edge">
<title>Node27&#45;&gt;Node3</title>
<g id="a_edge46_Node000027_Node000003"><a xlink:title=" ">
<path fill="none" stroke="#63b8ff" d="M192.29,-509.65C222.29,-515.56 265.46,-524.07 300.36,-530.95"/>
<polygon fill="#63b8ff" stroke="#63b8ff" points="299.94,-534.43 310.43,-532.93 301.3,-527.56 299.94,-534.43"/>
</a>
</g>
</g>
<!-- Node27&#45;&gt;Node4 -->
<g id="edge47_Node000027_Node000004" class="edge">
<title>Node27&#45;&gt;Node4</title>
<g id="a_edge47_Node000027_Node000004"><a xlink:title=" ">
<path fill="none" stroke="#63b8ff" d="M192.29,-502.5C212.63,-502.5 239.02,-502.5 264.79,-502.5"/>
<polygon fill="#63b8ff" stroke="#63b8ff" points="265,-506 275,-502.5 265,-499 265,-506"/>
</a>
</g>
</g>
<!-- Node27&#45;&gt;Node5 -->
<g id="edge48_Node000027_Node000005" class="edge">
<title>Node27&#45;&gt;Node5</title>
<g id="a_edge48_Node000027_Node000005"><a xlink:title=" ">
<path fill="none" stroke="#63b8ff" d="M192.08,-499.2C205.71,-496.68 220.85,-492.26 233,-484.5 247.99,-474.93 316.72,-381.69 345.87,-341.64"/>
<polygon fill="#63b8ff" stroke="#63b8ff" points="348.87,-343.46 351.92,-333.31 343.21,-339.34 348.87,-343.46"/>
</a>
</g>
</g>
<!-- Node28&#45;&gt;Node3 -->
<g id="edge51_Node000028_Node000003" class="edge">
<title>Node28&#45;&gt;Node3</title>
<g id="a_edge51_Node000028_Node000003"><a xlink:title=" ">
<path fill="none" stroke="#63b8ff" d="M208.88,-474.38C217.26,-476.95 225.59,-480.25 233,-484.5 252.91,-495.91 249.02,-510.22 269,-521.5 274.59,-524.66 280.64,-527.34 286.85,-529.62"/>
<polygon fill="#63b8ff" stroke="#63b8ff" points="286.14,-533.07 296.73,-532.89 288.33,-526.43 286.14,-533.07"/>
</a>
</g>
</g>
<!-- Node28&#45;&gt;Node4 -->
<g id="edge52_Node000028_Node000004" class="edge">
<title>Node28&#45;&gt;Node4</title>
<g id="a_edge52_Node000028_Node000004"><a xlink:title=" ">
<path fill="none" stroke="#63b8ff" d="M208.28,-475.03C235.17,-479.93 268.14,-485.94 296.38,-491.09"/>
<polygon fill="#63b8ff" stroke="#63b8ff" points="296.08,-494.59 306.55,-492.94 297.34,-487.7 296.08,-494.59"/>
</a>
</g>
</g>
<!-- Node28&#45;&gt;Node5 -->
<g id="edge53_Node000028_Node000005" class="edge">
<title>Node28&#45;&gt;Node5</title>
<g id="a_edge53_Node000028_Node000005"><a xlink:title=" ">
<path fill="none" stroke="#63b8ff" d="M208.79,-457.23C217.18,-454.78 225.54,-451.61 233,-447.5 282.27,-420.36 325.58,-368.52 346.2,-341.26"/>
<polygon fill="#63b8ff" stroke="#63b8ff" points="349.16,-343.15 352.3,-333.03 343.54,-338.98 349.16,-343.15"/>
</a>
</g>
</g>
<!-- Node29 -->
<g id="Node000029" class="node">
<title>Node29</title>
<g id="a_Node000029"><a xlink:href="structProblemData.html#a6b90c06ef7a99d80470143618ce5a323" target="_top" xlink:title="Quick sanity check: is total reviewer capacity sufficient?">
<polygon fill="white" stroke="#666666" points="451,-475 269,-475 269,-456 451,-456 451,-475"/>
<text text-anchor="middle" x="360" y="-463" font-family="Helvetica,sans-Serif" font-size="10.00">ProblemData::hasEnoughCapacity</text>
</a>
</g>
</g>
<!-- Node28&#45;&gt;Node29 -->
<g id="edge50_Node000028_Node000029" class="edge">
<title>Node28&#45;&gt;Node29</title>
<g id="a_edge50_Node000028_Node000029"><a xlink:title=" ">
<path fill="none" stroke="#63b8ff" d="M208.54,-465.5C223.96,-465.5 241.36,-465.5 258.71,-465.5"/>
<polygon fill="#63b8ff" stroke="#63b8ff" points="258.91,-469 268.91,-465.5 258.91,-462 258.91,-469"/>
</a>
</g>
</g>
<!-- Node30&#45;&gt;Node5 -->
<g id="edge55_Node000030_Node000005" class="edge">
<title>Node30&#45;&gt;Node5</title>
<g id="a_edge55_Node000030_Node000005"><a xlink:title=" ">
<path fill="none" stroke="#63b8ff" d="M217.37,-37.05C223.01,-39.53 228.34,-42.63 233,-46.5 316.71,-116 347.27,-252.92 356.03,-303.83"/>
<polygon fill="#63b8ff" stroke="#63b8ff" points="352.6,-304.53 357.66,-313.84 359.51,-303.4 352.6,-304.53"/>
</a>
</g>
</g>
<!-- Node31 -->
<g id="Node000031" class="node">
<title>Node31</title>
<g id="a_Node000031"><a xlink:href="structConfig.html#a89db87ddce24e353ccabde8d0dc70ade" target="_top" xlink:title="Determines if reviewer secondary expertise should be used in matching.">
<polygon fill="white" stroke="#666666" points="443.5,-56 276.5,-56 276.5,-37 443.5,-37 443.5,-56"/>
<text text-anchor="middle" x="360" y="-44" font-family="Helvetica,sans-Serif" font-size="10.00">Config::useReviewerSecondary</text>
</a>
</g>
</g>
<!-- Node30&#45;&gt;Node31 -->
<g id="edge56_Node000030_Node000031" class="edge">
<title>Node30&#45;&gt;Node31</title>
<g id="a_edge56_Node000030_Node000031"><a xlink:title=" ">
<path fill="none" stroke="#63b8ff" d="M224.16,-33.88C237.6,-35.14 251.92,-36.48 266.01,-37.8"/>
<polygon fill="#63b8ff" stroke="#63b8ff" points="265.94,-41.31 276.22,-38.75 266.59,-34.34 265.94,-41.31"/>
</a>
</g>
</g>
<!-- Node32 -->
<g id="Node000032" class="node">
<title>Node32</title>
<g id="a_Node000032"><a xlink:href="structConfig.html#a936e7b5bd16f50374b648f00465f1a32" target="_top" xlink:title="Determines if submission secondary domains should be used in matching.">
<polygon fill="white" stroke="#666666" points="449,-19 271,-19 271,0 449,0 449,-19"/>
<text text-anchor="middle" x="360" y="-7" font-family="Helvetica,sans-Serif" font-size="10.00">Config::useSubmissionSecondary</text>
</a>
</g>
</g>
<!-- Node30&#45;&gt;Node32 -->
<g id="edge57_Node000030_Node000032" class="edge">
<title>Node30&#45;&gt;Node32</title>
<g id="a_edge57_Node000030_Node000032"><a xlink:title=" ">
<path fill="none" stroke="#63b8ff" d="M224.16,-21.46C235.86,-20.42 248.22,-19.32 260.53,-18.23"/>
<polygon fill="#63b8ff" stroke="#63b8ff" points="261.18,-21.69 270.83,-17.32 260.56,-14.71 261.18,-21.69"/>
</a>
</g>
</g>
<!-- Node33&#45;&gt;Node3 -->
<g id="edge59_Node000033_Node000003" class="edge">
<title>Node33&#45;&gt;Node3</title>
<g id="a_edge59_Node000033_Node000003"><a xlink:title=" ">
<path fill="none" stroke="#63b8ff" d="M198.06,-578.97C229.64,-571.81 273.06,-561.97 306.84,-554.32"/>
<polygon fill="#63b8ff" stroke="#63b8ff" points="308.01,-557.64 316.99,-552.02 306.47,-550.82 308.01,-557.64"/>
</a>
</g>
</g>
<!-- Node33&#45;&gt;Node4 -->
<g id="edge60_Node000033_Node000004" class="edge">
<title>Node33&#45;&gt;Node4</title>
<g id="a_edge60_Node000033_Node000004"><a xlink:title=" ">
<path fill="none" stroke="#63b8ff" d="M208.84,-580.35C217.32,-577.7 225.69,-574.17 233,-569.5 254.58,-555.7 247.41,-538.28 269,-524.5 274.65,-520.9 280.84,-517.88 287.25,-515.36"/>
<polygon fill="#63b8ff" stroke="#63b8ff" points="288.5,-518.64 296.76,-512.01 286.17,-512.03 288.5,-518.64"/>
</a>
</g>
</g>
<!-- Node33&#45;&gt;Node5 -->
<g id="edge61_Node000033_Node000005" class="edge">
<title>Node33&#45;&gt;Node5</title>
<g id="a_edge61_Node000033_Node000005"><a xlink:title=" ">
<path fill="none" stroke="#63b8ff" d="M208.64,-583.28C217.63,-580.34 226.23,-575.97 233,-569.5 273.86,-530.43 244.03,-498.22 269,-447.5 289.42,-406.02 323.59,-363.71 343.44,-340.82"/>
<polygon fill="#63b8ff" stroke="#63b8ff" points="346.3,-342.85 350.28,-333.03 341.05,-338.23 346.3,-342.85"/>
</a>
</g>
</g>
<!-- Node34&#45;&gt;Node4 -->
<g id="edge63_Node000034_Node000004" class="edge">
<title>Node34&#45;&gt;Node4</title>
<g id="a_edge63_Node000034_Node000004"><a xlink:title=" ">
<path fill="none" stroke="#63b8ff" d="M210.9,-438.02C218.6,-440.49 226.19,-443.6 233,-447.5 252.91,-458.91 248.85,-473.54 269,-484.5 272.44,-486.37 276.06,-488.05 279.78,-489.56"/>
<polygon fill="#63b8ff" stroke="#63b8ff" points="278.61,-492.86 289.2,-492.96 280.98,-486.27 278.61,-492.86"/>
</a>
</g>
</g>
<!-- Node34&#45;&gt;Node5 -->
<g id="edge64_Node000034_Node000005" class="edge">
<title>Node34&#45;&gt;Node5</title>
<g id="a_edge64_Node000034_Node000005"><a xlink:title=" ">
<path fill="none" stroke="#63b8ff" d="M205.76,-418.99C215.01,-416.45 224.45,-413.32 233,-409.5 274.34,-391.02 316.67,-358.85 340.23,-339.53"/>
<polygon fill="#63b8ff" stroke="#63b8ff" points="342.57,-342.13 348.02,-333.05 338.09,-336.76 342.57,-342.13"/>
</a>
</g>
</g>
</g>
</svg>
