<?xml version="1.0" encoding="UTF-8" standalone="no"?>
<!DOCTYPE svg PUBLIC "-//W3C//DTD SVG 1.1//EN"
 "http://www.w3.org/Graphics/SVG/1.1/DTD/svg11.dtd">
<!-- Generated by graphviz version 2.43.0 (0)
 -->
<!-- Title: test_output_figure3 Pages: 1 -->
<svg width="974pt" height="556pt"
 viewBox="0.00 0.00 974.00 556.00" xmlns="http://www.w3.org/2000/svg" xmlns:xlink="http://www.w3.org/1999/xlink">
<g id="graph0" class="graph" transform="scale(1 1) rotate(0) translate(4 552)">
<title>test_output_figure3</title>
<!-- Node1 -->
<g id="Node000001" class="node">
<title>Node1</title>
<g id="a_Node000001"><a xlink:title=" ">
<polygon fill="#999999" stroke="#666666" points="111,-304 0,-304 0,-285 111,-285 111,-304"/>
<text text-anchor="middle" x="55.5" y="-292" font-family="Helvetica,sans-Serif" font-size="10.00">test_output_figure3</text>
</a>
</g>
</g>
<!-- Node2 -->
<g id="Node000002" class="node">
<title>Node2</title>
<g id="a_Node000002"><a xlink:href="structProblemData.html#a9f9c5ab24ac824b060f3cdb7bbd764bf" target="_top" xlink:title="Adds a reviewer with duplicate&#45;ID detection.">
<polygon fill="white" stroke="#666666" points="302.5,-360 152.5,-360 152.5,-341 302.5,-341 302.5,-360"/>
<text text-anchor="middle" x="227.5" y="-348" font-family="Helvetica,sans-Serif" font-size="10.00">ProblemData::addReviewer</text>
</a>
</g>
</g>
<!-- Node1&#45;&gt;Node2 -->
<g id="edge1_Node000001_Node000002" class="edge">
<title>Node1&#45;&gt;Node2</title>
<g id="a_edge1_Node000001_Node000002"><a xlink:title=" ">
<path fill="none" stroke="#63b8ff" d="M76.6,-304.14C94.69,-312.52 122.17,-324.54 147,-332.5 153.86,-334.7 161.13,-336.73 168.38,-338.58"/>
<polygon fill="#63b8ff" stroke="#63b8ff" points="167.66,-342.01 178.21,-340.99 169.33,-335.21 167.66,-342.01"/>
</a>
</g>
</g>
<!-- Node3 -->
<g id="Node000003" class="node">
<title>Node3</title>
<g id="a_Node000003"><a xlink:href="structProblemData.html#a849ef6ded60771bec2a5e1b6faf0545c" target="_top" xlink:title="Adds a submission with duplicate&#45;ID detection.">
<polygon fill="white" stroke="#666666" points="308,-323 147,-323 147,-304 308,-304 308,-323"/>
<text text-anchor="middle" x="227.5" y="-311" font-family="Helvetica,sans-Serif" font-size="10.00">ProblemData::addSubmission</text>
</a>
</g>
</g>
<!-- Node1&#45;&gt;Node3 -->
<g id="edge2_Node000001_Node000003" class="edge">
<title>Node1&#45;&gt;Node3</title>
<g id="a_edge2_Node000001_Node000003"><a xlink:title=" ">
<path fill="none" stroke="#63b8ff" d="M111.22,-300.62C119.39,-301.53 127.98,-302.49 136.64,-303.46"/>
<polygon fill="#63b8ff" stroke="#63b8ff" points="136.48,-306.96 146.81,-304.59 137.26,-300 136.48,-306.96"/>
</a>
</g>
</g>
<!-- Node4 -->
<g id="Node000004" class="node">
<title>Node4</title>
<g id="a_Node000004"><a xlink:href="classSolver.html#a845e12dc97a5d14a365b1e3001aba114" target="_top" xlink:title="Solves the assignment problem for the given data.">
<polygon fill="white" stroke="#666666" points="267.5,-286 187.5,-286 187.5,-267 267.5,-267 267.5,-286"/>
<text text-anchor="middle" x="227.5" y="-274" font-family="Helvetica,sans-Serif" font-size="10.00">Solver::solve</text>
</a>
</g>
</g>
<!-- Node1&#45;&gt;Node4 -->
<g id="edge3_Node000001_Node000004" class="edge">
<title>Node1&#45;&gt;Node4</title>
<g id="a_edge3_Node000001_Node000004"><a xlink:title=" ">
<path fill="none" stroke="#63b8ff" d="M111.22,-288.71C132.48,-286.45 156.64,-283.9 177.34,-281.71"/>
<polygon fill="#63b8ff" stroke="#63b8ff" points="177.92,-285.16 187.5,-280.63 177.19,-278.2 177.92,-285.16"/>
</a>
</g>
</g>
<!-- Node23 -->
<g id="Node000023" class="node">
<title>Node23</title>
<g id="a_Node000023"><a xlink:href="classOutputWriter.html#a293621b584934c41795c2ada849f90eb" target="_top" xlink:title="Writes the complete assignment output to a file.">
<polygon fill="white" stroke="#666666" points="296.5,-78 158.5,-78 158.5,-59 296.5,-59 296.5,-78"/>
<text text-anchor="middle" x="227.5" y="-66" font-family="Helvetica,sans-Serif" font-size="10.00">OutputWriter::writeToFile</text>
</a>
</g>
</g>
<!-- Node1&#45;&gt;Node23 -->
<g id="edge28_Node000001_Node000023" class="edge">
<title>Node1&#45;&gt;Node23</title>
<g id="a_edge28_Node000001_Node000023"><a xlink:title=" ">
<path fill="none" stroke="#63b8ff" d="M63.8,-284.79C89.96,-250.02 179.19,-131.39 213.19,-86.19"/>
<polygon fill="#63b8ff" stroke="#63b8ff" points="216.01,-88.27 219.22,-78.17 210.41,-84.06 216.01,-88.27"/>
</a>
</g>
</g>
<!-- Node5 -->
<g id="Node000005" class="node">
<title>Node5</title>
<g id="a_Node000005"><a xlink:href="classNetworkBuilder.html#af514e79c3d2f21597c54e01c4ce9475d" target="_top" xlink:title="Builds the complete flow network.">
<polygon fill="white" stroke="#666666" points="510,-249 346,-249 346,-230 510,-230 510,-249"/>
<text text-anchor="middle" x="428" y="-237" font-family="Helvetica,sans-Serif" font-size="10.00">NetworkBuilder::buildNetwork</text>
</a>
</g>
</g>
<!-- Node4&#45;&gt;Node5 -->
<g id="edge4_Node000004_Node000005" class="edge">
<title>Node4&#45;&gt;Node5</title>
<g id="a_edge4_Node000004_Node000005"><a xlink:title=" ">
<path fill="none" stroke="#63b8ff" d="M267.72,-269.19C295.65,-263.98 333.75,-256.88 365.68,-250.93"/>
<polygon fill="#63b8ff" stroke="#63b8ff" points="366.62,-254.31 375.81,-249.04 365.34,-247.43 366.62,-254.31"/>
</a>
</g>
</g>
<!-- Node10 -->
<g id="Node000010" class="node">
<title>Node10</title>
<g id="a_Node000010"><a xlink:href="structProblemData.html#a8972080e7733220bd51b437e111bf5c9" target="_top" xlink:title="Number of reviewers.">
<polygon fill="white" stroke="#666666" points="729.5,-324 570.5,-324 570.5,-305 729.5,-305 729.5,-324"/>
<text text-anchor="middle" x="650" y="-312" font-family="Helvetica,sans-Serif" font-size="10.00">ProblemData::numReviewers</text>
</a>
</g>
</g>
<!-- Node4&#45;&gt;Node10 -->
<g id="edge26_Node000004_Node000010" class="edge">
<title>Node4&#45;&gt;Node10</title>
<g id="a_edge26_Node000004_Node000010"><a xlink:title=" ">
<path fill="none" stroke="#63b8ff" d="M267.68,-280.04C334.01,-286.03 469.98,-298.32 560.33,-306.49"/>
<polygon fill="#63b8ff" stroke="#63b8ff" points="560.02,-309.97 570.29,-307.39 560.65,-303 560.02,-309.97"/>
</a>
</g>
</g>
<!-- Node11 -->
<g id="Node000011" class="node">
<title>Node11</title>
<g id="a_Node000011"><a xlink:href="structProblemData.html#af8f49cc7cddaa7219f2a6f3bc9853474" target="_top" xlink:title="Number of submissions.">
<polygon fill="white" stroke="#666666" points="735,-99 565,-99 565,-80 735,-80 735,-99"/>
<text text-anchor="middle" x="650" y="-87" font-family="Helvetica,sans-Serif" font-size="10.00">ProblemData::numSubmissions</text>
</a>
</g>
</g>
<!-- Node4&#45;&gt;Node11 -->
<g id="edge27_Node000004_Node000011" class="edge">
<title>Node4&#45;&gt;Node11</title>
<g id="a_edge27_Node000004_Node000011"><a xlink:title=" ">
<path fill="none" stroke="#63b8ff" d="M242.73,-266.87C286.29,-237.87 422.51,-150.69 548,-107.5 554.77,-105.17 561.91,-103.13 569.13,-101.34"/>
<polygon fill="#63b8ff" stroke="#63b8ff" points="570.05,-104.72 579,-99.06 568.47,-97.9 570.05,-104.72"/>
</a>
</g>
</g>
<!-- Node16 -->
<g id="Node000016" class="node">
<title>Node16</title>
<g id="a_Node000016"><a xlink:href="classGraph.html#afd2749a1cd58db2d3b6fa6eef639399c" target="_top" xlink:title="Computes the maximum flow from source to sink using Edmonds&#45;Karp.">
<polygon fill="white" stroke="#666666" points="487.5,-510 368.5,-510 368.5,-491 487.5,-491 487.5,-510"/>
<text text-anchor="middle" x="428" y="-498" font-family="Helvetica,sans-Serif" font-size="10.00">Graph::edmondsKarp</text>
</a>
</g>
</g>
<!-- Node4&#45;&gt;Node16 -->
<g id="edge15_Node000004_Node000016" class="edge">
<title>Node4&#45;&gt;Node16</title>
<g id="a_edge15_Node000004_Node000016"><a xlink:title=" ">
<path fill="none" stroke="#63b8ff" d="M267.85,-278.03C282.02,-280.45 297.17,-285.47 308,-295.5 346.36,-331.03 318.03,-362.12 344,-407.5 361.23,-437.6 389.42,-466.47 408.09,-483.84"/>
<polygon fill="#63b8ff" stroke="#63b8ff" points="405.94,-486.62 415.69,-490.77 410.66,-481.45 405.94,-486.62"/>
</a>
</g>
</g>
<!-- Node19 -->
<g id="Node000019" class="node">
<title>Node19</title>
<g id="a_Node000019"><a xlink:href="classSolver.html#ab064c56e0bda025818ce6f8461dd4e80" target="_top" xlink:title="Extracts the assignment from the solved flow network.">
<polygon fill="white" stroke="#666666" points="487.5,-398 368.5,-398 368.5,-379 487.5,-379 487.5,-398"/>
<text text-anchor="middle" x="428" y="-386" font-family="Helvetica,sans-Serif" font-size="10.00">Solver::extractResult</text>
</a>
</g>
</g>
<!-- Node4&#45;&gt;Node19 -->
<g id="edge19_Node000004_Node000019" class="edge">
<title>Node4&#45;&gt;Node19</title>
<g id="a_edge19_Node000004_Node000019"><a xlink:title=" ">
<path fill="none" stroke="#63b8ff" d="M267.65,-282.38C280.88,-285.26 295.47,-289.46 308,-295.5 348.84,-315.18 388.8,-350.7 410.44,-371.69"/>
<polygon fill="#63b8ff" stroke="#63b8ff" points="408.22,-374.42 417.8,-378.96 413.14,-369.44 408.22,-374.42"/>
</a>
</g>
</g>
<!-- Node6 -->
<g id="Node000006" class="node">
<title>Node6</title>
<g id="a_Node000006"><a xlink:href="classGraph.html#a8cdfb932968807565b3cc3b52759e3b8" target="_top" xlink:title="Adds a directed edge (u → v) with the given capacity, along with its reverse edge (v → u) with capaci...">
<polygon fill="white" stroke="#666666" points="697,-287 603,-287 603,-268 697,-268 697,-287"/>
<text text-anchor="middle" x="650" y="-275" font-family="Helvetica,sans-Serif" font-size="10.00">Graph::addEdge</text>
</a>
</g>
</g>
<!-- Node5&#45;&gt;Node6 -->
<g id="edge5_Node000005_Node000006" class="edge">
<title>Node5&#45;&gt;Node6</title>
<g id="a_edge5_Node000005_Node000006"><a xlink:title=" ">
<path fill="none" stroke="#63b8ff" d="M484.23,-249.04C517.34,-254.76 559.33,-262.01 592.63,-267.76"/>
<polygon fill="#63b8ff" stroke="#63b8ff" points="592.22,-271.24 602.67,-269.5 593.41,-264.35 592.22,-271.24"/>
</a>
</g>
</g>
<!-- Node8 -->
<g id="Node000008" class="node">
<title>Node8</title>
<g id="a_Node000008"><a xlink:href="classNetworkBuilder.html#acc9979fa0114fda405375f52dbe49a84" target="_top" xlink:title="Determines if a reviewer can review a submission based on domain matching.">
<polygon fill="white" stroke="#666666" points="731.5,-136 568.5,-136 568.5,-117 731.5,-117 731.5,-136"/>
<text text-anchor="middle" x="650" y="-124" font-family="Helvetica,sans-Serif" font-size="10.00">NetworkBuilder::isCompatible</text>
</a>
</g>
</g>
<!-- Node5&#45;&gt;Node8 -->
<g id="edge7_Node000005_Node000008" class="edge">
<title>Node5&#45;&gt;Node8</title>
<g id="a_edge7_Node000005_Node000008"><a xlink:title=" ">
<path fill="none" stroke="#63b8ff" d="M444.63,-229.85C461.81,-218.95 489.9,-200.29 512,-181.5 529.48,-166.64 527.73,-155.25 548,-144.5 551.53,-142.63 555.21,-140.95 559,-139.44"/>
<polygon fill="#63b8ff" stroke="#63b8ff" points="560.35,-142.67 568.59,-136.02 558,-136.08 560.35,-142.67"/>
</a>
</g>
</g>
<!-- Node5&#45;&gt;Node10 -->
<g id="edge9_Node000005_Node000010" class="edge">
<title>Node5&#45;&gt;Node10</title>
<g id="a_edge9_Node000005_Node000010"><a xlink:title=" ">
<path fill="none" stroke="#63b8ff" d="M447.64,-249.19C475.81,-263.71 528.05,-290.08 548,-296.5 555.39,-298.88 563.19,-300.97 571.05,-302.8"/>
<polygon fill="#63b8ff" stroke="#63b8ff" points="570.49,-306.26 581.01,-304.99 571.99,-299.43 570.49,-306.26"/>
</a>
</g>
</g>
<!-- Node5&#45;&gt;Node11 -->
<g id="edge10_Node000005_Node000011" class="edge">
<title>Node5&#45;&gt;Node11</title>
<g id="a_edge10_Node000005_Node000011"><a xlink:title=" ">
<path fill="none" stroke="#63b8ff" d="M447.9,-229.98C466.23,-219.98 493.85,-202.75 512,-181.5 535.75,-153.69 518.82,-129.55 548,-107.5 550.4,-105.69 552.92,-104.04 555.54,-102.53"/>
<polygon fill="#63b8ff" stroke="#63b8ff" points="557.35,-105.54 564.76,-97.97 554.25,-99.26 557.35,-105.54"/>
</a>
</g>
</g>
<!-- Node12 -->
<g id="Node000012" class="node">
<title>Node12</title>
<g id="a_Node000012"><a xlink:href="classNetworkBuilder.html#a0b1fedb0791107aa56d1022f3964269f" target="_top" xlink:title="Maps a reviewer&#39;s vector index to its graph node ID.">
<polygon fill="white" stroke="#666666" points="733.5,-361 566.5,-361 566.5,-342 733.5,-342 733.5,-361"/>
<text text-anchor="middle" x="650" y="-349" font-family="Helvetica,sans-Serif" font-size="10.00">NetworkBuilder::reviewerNode</text>
</a>
</g>
</g>
<!-- Node5&#45;&gt;Node12 -->
<g id="edge11_Node000005_Node000012" class="edge">
<title>Node5&#45;&gt;Node12</title>
<g id="a_edge11_Node000005_Node000012"><a xlink:title=" ">
<path fill="none" stroke="#63b8ff" d="M437.79,-249.08C456.18,-268.48 500.93,-312.34 548,-333.5 552.65,-335.59 557.53,-337.44 562.52,-339.07"/>
<polygon fill="#63b8ff" stroke="#63b8ff" points="561.65,-342.47 572.23,-341.96 563.64,-335.76 561.65,-342.47"/>
</a>
</g>
</g>
<!-- Node13 -->
<g id="Node000013" class="node">
<title>Node13</title>
<g id="a_Node000013"><a xlink:href="classNetworkBuilder.html#a508fc4af685c78c10f96ab39610d4040" target="_top" xlink:title="Maps a submission&#39;s vector index to its graph node ID.">
<polygon fill="white" stroke="#666666" points="739.5,-173 560.5,-173 560.5,-154 739.5,-154 739.5,-173"/>
<text text-anchor="middle" x="650" y="-161" font-family="Helvetica,sans-Serif" font-size="10.00">NetworkBuilder::submissionNode</text>
</a>
</g>
</g>
<!-- Node5&#45;&gt;Node13 -->
<g id="edge12_Node000005_Node000013" class="edge">
<title>Node5&#45;&gt;Node13</title>
<g id="a_edge12_Node000005_Node000013"><a xlink:title=" ">
<path fill="none" stroke="#63b8ff" d="M447.96,-229.95C471.1,-218.6 511.65,-199.65 548,-187.5 561.89,-182.86 577.13,-178.74 591.48,-175.29"/>
<polygon fill="#63b8ff" stroke="#63b8ff" points="592.3,-178.69 601.24,-173.01 590.7,-171.88 592.3,-178.69"/>
</a>
</g>
</g>
<!-- Node14 -->
<g id="Node000014" class="node">
<title>Node14</title>
<g id="a_Node000014"><a xlink:href="structConfig.html#a89db87ddce24e353ccabde8d0dc70ade" target="_top" xlink:title="Determines if reviewer secondary expertise should be used in matching.">
<polygon fill="white" stroke="#666666" points="960.5,-211 793.5,-211 793.5,-192 960.5,-192 960.5,-211"/>
<text text-anchor="middle" x="877" y="-199" font-family="Helvetica,sans-Serif" font-size="10.00">Config::useReviewerSecondary</text>
</a>
</g>
</g>
<!-- Node5&#45;&gt;Node14 -->
<g id="edge13_Node000005_Node000014" class="edge">
<title>Node5&#45;&gt;Node14</title>
<g id="a_edge13_Node000005_Node000014"><a xlink:title=" ">
<path fill="none" stroke="#63b8ff" d="M510.21,-232.6C587.21,-226.05 702.78,-216.23 783.34,-209.38"/>
<polygon fill="#63b8ff" stroke="#63b8ff" points="783.82,-212.85 793.48,-208.51 783.22,-205.87 783.82,-212.85"/>
</a>
</g>
</g>
<!-- Node15 -->
<g id="Node000015" class="node">
<title>Node15</title>
<g id="a_Node000015"><a xlink:href="structConfig.html#a936e7b5bd16f50374b648f00465f1a32" target="_top" xlink:title="Determines if submission secondary domains should be used in matching.">
<polygon fill="white" stroke="#666666" points="966,-249 788,-249 788,-230 966,-230 966,-249"/>
<text text-anchor="middle" x="877" y="-237" font-family="Helvetica,sans-Serif" font-size="10.00">Config::useSubmissionSecondary</text>
</a>
</g>
</g>
<!-- Node5&#45;&gt;Node15 -->
<g id="edge14_Node000005_Node000015" class="edge">
<title>Node5&#45;&gt;Node15</title>
<g id="a_edge14_Node000005_Node000015"><a xlink:title=" ">
<path fill="none" stroke="#63b8ff" d="M510.21,-239.5C585.4,-239.5 697.37,-239.5 777.6,-239.5"/>
<polygon fill="#63b8ff" stroke="#63b8ff" points="777.72,-243 787.72,-239.5 777.72,-236 777.72,-243"/>
</a>
</g>
</g>
<!-- Node7 -->
<g id="Node000007" class="node">
<title>Node7</title>
<g id="a_Node000007"><a xlink:href="classGraph.html#a0a3f35d90f69456655a046806c725063" target="_top" xlink:title="Returns the number of nodes in the graph.">
<polygon fill="white" stroke="#666666" points="929,-398 825,-398 825,-379 929,-379 929,-398"/>
<text text-anchor="middle" x="877" y="-386" font-family="Helvetica,sans-Serif" font-size="10.00">Graph::numNodes</text>
</a>
</g>
</g>
<!-- Node6&#45;&gt;Node7 -->
<g id="edge6_Node000006_Node000007" class="edge">
<title>Node6&#45;&gt;Node7</title>
<g id="a_edge6_Node000006_Node000007"><a xlink:title=" ">
<path fill="none" stroke="#63b8ff" d="M697.05,-281.7C714.76,-284.45 734.83,-289 752,-296.5 794.66,-315.15 836.51,-350.84 859.01,-371.86"/>
<polygon fill="#63b8ff" stroke="#63b8ff" points="856.73,-374.53 866.39,-378.89 861.56,-369.46 856.73,-374.53"/>
</a>
</g>
</g>
<!-- Node9 -->
<g id="Node000009" class="node">
<title>Node9</title>
<g id="a_Node000009"><a xlink:href="structSubmission.html#a19ab1b3a6dc11bd0b8254be4cbc31d2d" target="_top" xlink:title="Checks if this submission covers the given domain.">
<polygon fill="white" stroke="#666666" points="944,-136 810,-136 810,-117 944,-117 944,-136"/>
<text text-anchor="middle" x="877" y="-124" font-family="Helvetica,sans-Serif" font-size="10.00">Submission::hasDomain</text>
</a>
</g>
</g>
<!-- Node8&#45;&gt;Node9 -->
<g id="edge8_Node000008_Node000009" class="edge">
<title>Node8&#45;&gt;Node9</title>
<g id="a_edge8_Node000008_Node000009"><a xlink:title=" ">
<path fill="none" stroke="#63b8ff" d="M731.59,-126.5C753.69,-126.5 777.58,-126.5 799.45,-126.5"/>
<polygon fill="#63b8ff" stroke="#63b8ff" points="799.67,-130 809.67,-126.5 799.67,-123 799.67,-130"/>
</a>
</g>
</g>
<!-- Node16&#45;&gt;Node7 -->
<g id="edge18_Node000016_Node000007" class="edge">
<title>Node16&#45;&gt;Node7</title>
<g id="a_edge18_Node000016_Node000007"><a xlink:title=" ">
<path fill="none" stroke="#63b8ff" d="M487.63,-506.95C553.96,-512.03 664.18,-513.67 752,-481.5 796.33,-465.26 838.14,-427.6 860.06,-405.5"/>
<polygon fill="#63b8ff" stroke="#63b8ff" points="862.76,-407.75 867.21,-398.14 857.73,-402.88 862.76,-407.75"/>
</a>
</g>
</g>
<!-- Node17 -->
<g id="Node000017" class="node">
<title>Node17</title>
<g id="a_Node000017"><a xlink:href="classGraph.html#a348391db529c20a826a1483fe7bdcb9a" target="_top" xlink:title="BFS on the residual graph to find the shortest augmenting path.">
<polygon fill="white" stroke="#666666" points="683.5,-548 616.5,-548 616.5,-529 683.5,-529 683.5,-548"/>
<text text-anchor="middle" x="650" y="-536" font-family="Helvetica,sans-Serif" font-size="10.00">Graph::bfs</text>
</a>
</g>
</g>
<!-- Node16&#45;&gt;Node17 -->
<g id="edge16_Node000016_Node000017" class="edge">
<title>Node16&#45;&gt;Node17</title>
<g id="a_edge16_Node000016_Node000017"><a xlink:title=" ">
<path fill="none" stroke="#63b8ff" d="M484.23,-510.04C522.11,-516.58 571.63,-525.14 606.45,-531.15"/>
<polygon fill="#63b8ff" stroke="#63b8ff" points="605.86,-534.6 616.31,-532.85 607.05,-527.7 605.86,-534.6"/>
</a>
</g>
</g>
<!-- Node18 -->
<g id="Node000018" class="node">
<title>Node18</title>
<g id="a_Node000018"><a xlink:href="structEdge.html#a0b45154adf516897233895a25fad355e" target="_top" xlink:title="Residual capacity of this edge.">
<polygon fill="white" stroke="#666666" points="920,-548 834,-548 834,-529 920,-529 920,-548"/>
<text text-anchor="middle" x="877" y="-536" font-family="Helvetica,sans-Serif" font-size="10.00">Edge::residual</text>
</a>
</g>
</g>
<!-- Node17&#45;&gt;Node18 -->
<g id="edge17_Node000017_Node000018" class="edge">
<title>Node17&#45;&gt;Node18</title>
<g id="a_edge17_Node000017_Node000018"><a xlink:title=" ">
<path fill="none" stroke="#63b8ff" d="M683.72,-538.5C720.39,-538.5 780.36,-538.5 823.59,-538.5"/>
<polygon fill="#63b8ff" stroke="#63b8ff" points="823.64,-542 833.64,-538.5 823.64,-535 823.64,-542"/>
</a>
</g>
</g>
<!-- Node19&#45;&gt;Node12 -->
<g id="edge25_Node000019_Node000012" class="edge">
<title>Node19&#45;&gt;Node12</title>
<g id="a_edge25_Node000019_Node000012"><a xlink:title=" ">
<path fill="none" stroke="#63b8ff" d="M485.66,-378.97C515.05,-374.03 551.15,-367.96 581.94,-362.78"/>
<polygon fill="#63b8ff" stroke="#63b8ff" points="582.87,-366.17 592.15,-361.06 581.71,-359.27 582.87,-366.17"/>
</a>
</g>
</g>
<!-- Node20 -->
<g id="Node000020" class="node">
<title>Node20</title>
<g id="a_Node000020"><a xlink:href="classSolver.html#a0a32ae51c07e104de80b39cceaaf325f" target="_top" xlink:title="Determines which domain code caused the match between a reviewer and submission.">
<polygon fill="white" stroke="#666666" points="726,-398 574,-398 574,-379 726,-379 726,-398"/>
<text text-anchor="middle" x="650" y="-386" font-family="Helvetica,sans-Serif" font-size="10.00">Solver::findMatchedDomain</text>
</a>
</g>
</g>
<!-- Node19&#45;&gt;Node20 -->
<g id="edge20_Node000019_Node000020" class="edge">
<title>Node19&#45;&gt;Node20</title>
<g id="a_edge20_Node000019_Node000020"><a xlink:title=" ">
<path fill="none" stroke="#63b8ff" d="M487.67,-388.5C511.04,-388.5 538.4,-388.5 563.88,-388.5"/>
<polygon fill="#63b8ff" stroke="#63b8ff" points="563.91,-392 573.91,-388.5 563.91,-385 563.91,-392"/>
</a>
</g>
</g>
<!-- Node21 -->
<g id="Node000021" class="node">
<title>Node21</title>
<g id="a_Node000021"><a xlink:href="classGraph.html#af5f263b25175df3f5511ff5ede0a63aa" target="_top" xlink:title="Returns the adjacency list of a given node (const).">
<polygon fill="white" stroke="#666666" points="691.5,-472 608.5,-472 608.5,-453 691.5,-453 691.5,-472"/>
<text text-anchor="middle" x="650" y="-460" font-family="Helvetica,sans-Serif" font-size="10.00">Graph::getAdj</text>
</a>
</g>
</g>
<!-- Node19&#45;&gt;Node21 -->
<g id="edge23_Node000019_Node000021" class="edge">
<title>Node19&#45;&gt;Node21</title>
<g id="a_edge23_Node000019_Node000021"><a xlink:title=" ">
<path fill="none" stroke="#63b8ff" d="M445.77,-398.13C468.3,-410.66 509.92,-432.38 548,-444.5 564.02,-449.6 581.96,-453.39 598.23,-456.13"/>
<polygon fill="#63b8ff" stroke="#63b8ff" points="597.68,-459.59 608.11,-457.71 598.79,-452.68 597.68,-459.59"/>
</a>
</g>
</g>
<!-- Node22 -->
<g id="Node000022" class="node">
<title>Node22</title>
<g id="a_Node000022"><a xlink:href="classNetworkBuilder.html#a4efdb0e13d73f6f3cbf38b4cd11a5ef3" target="_top" xlink:title="Inverse: given a graph node ID, returns the submission vector index.">
<polygon fill="white" stroke="#666666" points="752,-435 548,-435 548,-416 752,-416 752,-435"/>
<text text-anchor="middle" x="650" y="-423" font-family="Helvetica,sans-Serif" font-size="10.00">NetworkBuilder::nodeToSubmissionIdx</text>
</a>
</g>
</g>
<!-- Node19&#45;&gt;Node22 -->
<g id="edge24_Node000019_Node000022" class="edge">
<title>Node19&#45;&gt;Node22</title>
<g id="a_edge24_Node000019_Node000022"><a xlink:title=" ">
<path fill="none" stroke="#63b8ff" d="M485.66,-398.03C515.05,-402.97 551.15,-409.04 581.94,-414.22"/>
<polygon fill="#63b8ff" stroke="#63b8ff" points="581.71,-417.73 592.15,-415.94 582.87,-410.83 581.71,-417.73"/>
</a>
</g>
</g>
<!-- Node20&#45;&gt;Node14 -->
<g id="edge21_Node000020_Node000014" class="edge">
<title>Node20&#45;&gt;Node14</title>
<g id="a_edge21_Node000020_Node000014"><a xlink:title=" ">
<path fill="none" stroke="#63b8ff" d="M726.06,-385.31C735.66,-382.13 744.67,-377.4 752,-370.5 801.61,-323.81 739.5,-269.35 788,-221.5 789.85,-219.67 791.84,-217.99 793.93,-216.46"/>
<polygon fill="#63b8ff" stroke="#63b8ff" points="795.78,-219.43 802.46,-211.21 792.11,-213.47 795.78,-219.43"/>
</a>
</g>
</g>
<!-- Node20&#45;&gt;Node15 -->
<g id="edge22_Node000020_Node000015" class="edge">
<title>Node20&#45;&gt;Node15</title>
<g id="a_edge22_Node000020_Node000015"><a xlink:title=" ">
<path fill="none" stroke="#63b8ff" d="M726.19,-380.65C735.19,-378.12 744,-374.81 752,-370.5 803.01,-342.99 845.08,-286.79 864.47,-257.76"/>
<polygon fill="#63b8ff" stroke="#63b8ff" points="867.62,-259.32 870.15,-249.04 861.76,-255.5 867.62,-259.32"/>
</a>
</g>
</g>
<!-- Node24 -->
<g id="Node000024" class="node">
<title>Node24</title>
<g id="a_Node000024"><a xlink:href="structConfig.html#ac9705d2a8dd4171189897096e6056719" target="_top" xlink:title="Whether risk analysis should be performed.">
<polygon fill="white" stroke="#666666" points="501,-19 355,-19 355,0 501,0 501,-19"/>
<text text-anchor="middle" x="428" y="-7" font-family="Helvetica,sans-Serif" font-size="10.00">Config::shouldAnalyzeRisk</text>
</a>
</g>
</g>
<!-- Node23&#45;&gt;Node24 -->
<g id="edge29_Node000023_Node000024" class="edge">
<title>Node23&#45;&gt;Node24</title>
<g id="a_edge29_Node000023_Node000024"><a xlink:title=" ">
<path fill="none" stroke="#63b8ff" d="M252.54,-58.95C275.71,-49.99 311.87,-36.65 344,-27.5 351.76,-25.29 360,-23.2 368.16,-21.29"/>
<polygon fill="#63b8ff" stroke="#63b8ff" points="369.05,-24.67 378.03,-19.04 367.5,-17.85 369.05,-24.67"/>
</a>
</g>
</g>
<!-- Node25 -->
<g id="Node000025" class="node">
<title>Node25</title>
<g id="a_Node000025"><a xlink:href="classOutputWriter.html#a6e32add7759c83e565390d14cd1bb339" target="_top" xlink:title="Writes the assignment sections to any output stream.">
<polygon fill="white" stroke="#666666" points="512,-104.5 344,-104.5 344,-74.5 512,-74.5 512,-104.5"/>
<text text-anchor="start" x="352" y="-92.5" font-family="Helvetica,sans-Serif" font-size="10.00">OutputWriter::writeAssignment</text>
<text text-anchor="middle" x="428" y="-81.5" font-family="Helvetica,sans-Serif" font-size="10.00">Section</text>
</a>
</g>
</g>
<!-- Node23&#45;&gt;Node25 -->
<g id="edge30_Node000023_Node000025" class="edge">
<title>Node23&#45;&gt;Node25</title>
<g id="a_edge30_Node000023_Node000025"><a xlink:title=" ">
<path fill="none" stroke="#63b8ff" d="M296.53,-75.7C308.58,-76.97 321.3,-78.32 333.9,-79.65"/>
<polygon fill="#63b8ff" stroke="#63b8ff" points="333.64,-83.14 343.95,-80.71 334.38,-76.18 333.64,-83.14"/>
</a>
</g>
</g>
<!-- Node27 -->
<g id="Node000027" class="node">
<title>Node27</title>
<g id="a_Node000027"><a xlink:href="classOutputWriter.html#a33523f8610417f2806d5943455614a14" target="_top" xlink:title="Writes the risk analysis section to any output stream.">
<polygon fill="white" stroke="#666666" points="511.5,-56 344.5,-56 344.5,-37 511.5,-37 511.5,-56"/>
<text text-anchor="middle" x="428" y="-44" font-family="Helvetica,sans-Serif" font-size="10.00">OutputWriter::writeRiskSection</text>
</a>
</g>
</g>
<!-- Node23&#45;&gt;Node27 -->
<g id="edge33_Node000023_Node000027" class="edge">
<title>Node23&#45;&gt;Node27</title>
<g id="a_edge33_Node000023_Node000027"><a xlink:title=" ">
<path fill="none" stroke="#63b8ff" d="M296.53,-60.96C308.67,-59.61 321.49,-58.19 334.18,-56.79"/>
<polygon fill="#63b8ff" stroke="#63b8ff" points="334.75,-60.25 344.3,-55.67 333.98,-53.29 334.75,-60.25"/>
</a>
</g>
</g>
<!-- Node25&#45;&gt;Node11 -->
<g id="edge32_Node000025_Node000011" class="edge">
<title>Node25&#45;&gt;Node11</title>
<g id="a_edge32_Node000025_Node000011"><a xlink:title=" ">
<path fill="none" stroke="#63b8ff" d="M512.17,-89.5C526.08,-89.5 540.59,-89.5 554.75,-89.5"/>
<polygon fill="#63b8ff" stroke="#63b8ff" points="554.98,-93 564.98,-89.5 554.98,-86 554.98,-93"/>
</a>
</g>
</g>
<!-- Node26 -->
<g id="Node000026" class="node">
<title>Node26</title>
<g id="a_Node000026"><a xlink:href="structSolverResult.html#a4d56c0d5a4628962604d1c204e1d530c" target="_top" xlink:title="Whether the assignment is fully satisfied.">
<polygon fill="white" stroke="#666666" points="720,-62 580,-62 580,-43 720,-43 720,-62"/>
<text text-anchor="middle" x="650" y="-50" font-family="Helvetica,sans-Serif" font-size="10.00">SolverResult::isComplete</text>
</a>
</g>
</g>
<!-- Node25&#45;&gt;Node26 -->
<g id="edge31_Node000025_Node000026" class="edge">
<title>Node25&#45;&gt;Node26</title>
<g id="a_edge31_Node000025_Node000026"><a xlink:title=" ">
<path fill="none" stroke="#63b8ff" d="M512.17,-75.51C535.39,-71.61 560.3,-67.42 582.42,-63.7"/>
<polygon fill="#63b8ff" stroke="#63b8ff" points="583.09,-67.13 592.37,-62.02 581.93,-60.23 583.09,-67.13"/>
</a>
</g>
</g>
</g>
</svg>
