<?xml version="1.0" encoding="UTF-8" standalone="no"?>
<!DOCTYPE svg PUBLIC "-//W3C//DTD SVG 1.1//EN"
 "http://www.w3.org/Graphics/SVG/1.1/DTD/svg11.dtd">
<!-- Generated by graphviz version 2.43.0 (0)
 -->
<!-- Title: test_output_figure2 Pages: 1 -->
<svg width="951pt" height="973pt"
 viewBox="0.00 0.00 951.00 973.00" xmlns="http://www.w3.org/2000/svg" xmlns:xlink="http://www.w3.org/1999/xlink">
<g id="graph0" class="graph" transform="scale(1 1) rotate(0) translate(4 969)">
<title>test_output_figure2</title>
<!-- Node1 -->
<g id="Node000001" class="node">
<title>Node1</title>
<g id="a_Node000001"><a xlink:title=" ">
<polygon fill="#999999" stroke="#666666" points="111,-287 0,-287 0,-268 111,-268 111,-287"/>
<text text-anchor="middle" x="55.5" y="-275" font-family="Helvetica,sans-Serif" font-size="10.00">test_output_figure2</text>
</a>
</g>
</g>
<!-- Node2 -->
<g id="Node000002" class="node">
<title>Node2</title>
<g id="a_Node000002"><a xlink:href="classParser.html#a5a2a7fa051b2dce0c67484fcb141d913" target="_top" xlink:title="Parses the input file and returns a fully populated ProblemData.">
<polygon fill="white" stroke="#666666" points="256,-719 176,-719 176,-700 256,-700 256,-719"/>
<text text-anchor="middle" x="216" y="-707" font-family="Helvetica,sans-Serif" font-size="10.00">Parser::parse</text>
</a>
</g>
</g>
<!-- Node1&#45;&gt;Node2 -->
<g id="edge1_Node000001_Node000002" class="edge">
<title>Node1&#45;&gt;Node2</title>
<g id="a_edge1_Node000001_Node000002"><a xlink:title=" ">
<path fill="none" stroke="#63b8ff" d="M60.11,-287.33C80.4,-342.64 180.36,-615.08 207.94,-690.26"/>
<polygon fill="#63b8ff" stroke="#63b8ff" points="204.74,-691.69 211.47,-699.87 211.31,-689.27 204.74,-691.69"/>
</a>
</g>
</g>
<!-- Node16 -->
<g id="Node000016" class="node">
<title>Node16</title>
<g id="a_Node000016"><a xlink:href="classSolver.html#a845e12dc97a5d14a365b1e3001aba114" target="_top" xlink:title="Solves the assignment problem for the given data.">
<polygon fill="white" stroke="#666666" points="256,-287 176,-287 176,-268 256,-268 256,-287"/>
<text text-anchor="middle" x="216" y="-275" font-family="Helvetica,sans-Serif" font-size="10.00">Solver::solve</text>
</a>
</g>
</g>
<!-- Node1&#45;&gt;Node16 -->
<g id="edge26_Node000001_Node000016" class="edge">
<title>Node1&#45;&gt;Node16</title>
<g id="a_edge26_Node000001_Node000016"><a xlink:title=" ">
<path fill="none" stroke="#63b8ff" d="M111.05,-277.5C128.7,-277.5 148.16,-277.5 165.43,-277.5"/>
<polygon fill="#63b8ff" stroke="#63b8ff" points="165.86,-281 175.86,-277.5 165.86,-274 165.86,-281"/>
</a>
</g>
</g>
<!-- Node35 -->
<g id="Node000035" class="node">
<title>Node35</title>
<g id="a_Node000035"><a xlink:href="classOutputWriter.html#a293621b584934c41795c2ada849f90eb" target="_top" xlink:title="Writes the complete assignment output to a file.">
<polygon fill="white" stroke="#666666" points="285,-84 147,-84 147,-65 285,-65 285,-84"/>
<text text-anchor="middle" x="216" y="-72" font-family="Helvetica,sans-Serif" font-size="10.00">OutputWriter::writeToFile</text>
</a>
</g>
</g>
<!-- Node1&#45;&gt;Node35 -->
<g id="edge51_Node000001_Node000035" class="edge">
<title>Node1&#45;&gt;Node35</title>
<g id="a_edge51_Node000001_Node000035"><a xlink:title=" ">
<path fill="none" stroke="#63b8ff" d="M63.93,-267.98C88.68,-236.29 168.55,-133.99 201.05,-92.36"/>
<polygon fill="#63b8ff" stroke="#63b8ff" points="204,-94.27 207.4,-84.23 198.49,-89.96 204,-94.27"/>
</a>
</g>
</g>
<!-- Node3 -->
<g id="Node000003" class="node">
<title>Node3</title>
<g id="a_Node000003"><a xlink:href="classParser.html#abe415229c2daa3f3ba4efd44661bd703" target="_top" xlink:title="Parses a control line: &quot;KeyName, value&quot;.">
<polygon fill="white" stroke="#666666" points="472.5,-719 337.5,-719 337.5,-700 472.5,-700 472.5,-719"/>
<text text-anchor="middle" x="405" y="-707" font-family="Helvetica,sans-Serif" font-size="10.00">Parser::parseControlLine</text>
</a>
</g>
</g>
<!-- Node2&#45;&gt;Node3 -->
<g id="edge2_Node000002_Node000003" class="edge">
<title>Node2&#45;&gt;Node3</title>
<g id="a_edge2_Node000002_Node000003"><a xlink:title=" ">
<path fill="none" stroke="#63b8ff" d="M256.2,-709.5C276.72,-709.5 302.59,-709.5 326.92,-709.5"/>
<polygon fill="#63b8ff" stroke="#63b8ff" points="327.23,-713 337.23,-709.5 327.23,-706 327.23,-713"/>
</a>
</g>
</g>
<!-- Node6 -->
<g id="Node000006" class="node">
<title>Node6</title>
<g id="a_Node000006"><a xlink:href="classParser.html#a113f0dfba3013e3dade8b717063ad8a0" target="_top" xlink:title="Trims leading and trailing whitespace from a string.">
<polygon fill="white" stroke="#666666" points="890.5,-663 817.5,-663 817.5,-644 890.5,-644 890.5,-663"/>
<text text-anchor="middle" x="854" y="-651" font-family="Helvetica,sans-Serif" font-size="10.00">Parser::trim</text>
</a>
</g>
</g>
<!-- Node2&#45;&gt;Node6 -->
<g id="edge25_Node000002_Node000006" class="edge">
<title>Node2&#45;&gt;Node6</title>
<g id="a_edge25_Node000002_Node000006"><a xlink:title=" ">
<path fill="none" stroke="#63b8ff" d="M226.44,-699.82C243.72,-682.6 282.22,-646.49 321,-625.5 404.8,-580.14 430.87,-574.35 525,-559.5 614.56,-545.37 643.06,-530.61 729,-559.5 774.15,-574.68 815.94,-613.55 837.57,-636.27"/>
<polygon fill="#63b8ff" stroke="#63b8ff" points="835.23,-638.89 844.6,-643.84 840.36,-634.13 835.23,-638.89"/>
</a>
</g>
</g>
<!-- Node8 -->
<g id="Node000008" class="node">
<title>Node8</title>
<g id="a_Node000008"><a xlink:href="classParser.html#a381845570bc3e8444268d1f0165e5c18" target="_top" xlink:title="Converts a string to lowercase (for case&#45;insensitive comparison).">
<polygon fill="white" stroke="#666666" points="673,-813 581,-813 581,-794 673,-794 673,-813"/>
<text text-anchor="middle" x="627" y="-801" font-family="Helvetica,sans-Serif" font-size="10.00">Parser::toLower</text>
</a>
</g>
</g>
<!-- Node2&#45;&gt;Node8 -->
<g id="edge24_Node000002_Node000008" class="edge">
<title>Node2&#45;&gt;Node8</title>
<g id="a_edge24_Node000002_Node000008"><a xlink:title=" ">
<path fill="none" stroke="#63b8ff" d="M256.08,-716.57C320.56,-728.44 446.34,-752.56 489,-767.5 505.88,-773.41 508.02,-779.87 525,-785.5 539.49,-790.3 555.6,-793.91 570.62,-796.58"/>
<polygon fill="#63b8ff" stroke="#63b8ff" points="570.38,-800.08 580.82,-798.28 571.53,-793.18 570.38,-800.08"/>
</a>
</g>
</g>
<!-- Node10 -->
<g id="Node000010" class="node">
<title>Node10</title>
<g id="a_Node000010"><a xlink:href="classParser.html#a49fdbc3e3b2c220e042d77ea0568bdba" target="_top" xlink:title="Parses a parameter line: &quot;KeyName, value&quot;.">
<polygon fill="white" stroke="#666666" points="480,-832 330,-832 330,-813 480,-813 480,-832"/>
<text text-anchor="middle" x="405" y="-820" font-family="Helvetica,sans-Serif" font-size="10.00">Parser::parseParameterLine</text>
</a>
</g>
</g>
<!-- Node2&#45;&gt;Node10 -->
<g id="edge10_Node000002_Node000010" class="edge">
<title>Node2&#45;&gt;Node10</title>
<g id="a_edge10_Node000002_Node000010"><a xlink:title=" ">
<path fill="none" stroke="#63b8ff" d="M224.44,-719.08C240.08,-738.5 278.42,-782.5 321,-804.5 324.76,-806.44 328.72,-808.17 332.78,-809.72"/>
<polygon fill="#63b8ff" stroke="#63b8ff" points="331.83,-813.09 342.42,-813 334.08,-806.46 331.83,-813.09"/>
</a>
</g>
</g>
<!-- Node12 -->
<g id="Node000012" class="node">
<title>Node12</title>
<g id="a_Node000012"><a xlink:href="classParser.html#a8b52e53cfc75a57e18f03d925823fe2a" target="_top" xlink:title="Parses a single reviewer line.">
<polygon fill="white" stroke="#666666" points="478,-795 332,-795 332,-776 478,-776 478,-795"/>
<text text-anchor="middle" x="405" y="-783" font-family="Helvetica,sans-Serif" font-size="10.00">Parser::parseReviewerLine</text>
</a>
</g>
</g>
<!-- Node2&#45;&gt;Node12 -->
<g id="edge16_Node000002_Node000012" class="edge">
<title>Node2&#45;&gt;Node12</title>
<g id="a_edge16_Node000002_Node000012"><a xlink:title=" ">
<path fill="none" stroke="#63b8ff" d="M233.86,-719.13C254.08,-730.4 289.22,-749.08 321,-761.5 332.02,-765.81 344.13,-769.74 355.61,-773.12"/>
<polygon fill="#63b8ff" stroke="#63b8ff" points="354.92,-776.56 365.5,-775.94 356.85,-769.83 354.92,-776.56"/>
</a>
</g>
</g>
<!-- Node14 -->
<g id="Node000014" class="node">
<title>Node14</title>
<g id="a_Node000014"><a xlink:href="classParser.html#ab15bc67b738ede92f26a5ead4c294bd3" target="_top" xlink:title="Parses a single submission line.">
<polygon fill="white" stroke="#666666" points="483,-653 327,-653 327,-634 483,-634 483,-653"/>
<text text-anchor="middle" x="405" y="-641" font-family="Helvetica,sans-Serif" font-size="10.00">Parser::parseSubmissionLine</text>
</a>
</g>
</g>
<!-- Node2&#45;&gt;Node14 -->
<g id="edge20_Node000002_Node000014" class="edge">
<title>Node2&#45;&gt;Node14</title>
<g id="a_edge20_Node000002_Node000014"><a xlink:title=" ">
<path fill="none" stroke="#63b8ff" d="M244.19,-699.9C276.69,-688.43 331.21,-669.19 367.39,-656.42"/>
<polygon fill="#63b8ff" stroke="#63b8ff" points="368.81,-659.63 377.08,-653 366.48,-653.03 368.81,-659.63"/>
</a>
</g>
</g>
<!-- Node4 -->
<g id="Node000004" class="node">
<title>Node4</title>
<g id="a_Node000004"><a xlink:href="classParser.html#a54de14fb280b60a07adfbf68c508b767" target="_top" xlink:title="Parses a trimmed token as an integer with error context.">
<polygon fill="white" stroke="#666666" points="912,-851 796,-851 796,-832 912,-832 912,-851"/>
<text text-anchor="middle" x="854" y="-839" font-family="Helvetica,sans-Serif" font-size="10.00">Parser::parseIntField</text>
</a>
</g>
</g>
<!-- Node3&#45;&gt;Node4 -->
<g id="edge3_Node000003_Node000004" class="edge">
<title>Node3&#45;&gt;Node4</title>
<g id="a_edge3_Node000003_Node000004"><a xlink:title=" ">
<path fill="none" stroke="#63b8ff" d="M472.6,-713.47C553.23,-718.98 683.86,-730.37 729,-748.5 772.59,-766 814.39,-802.88 836.57,-824.57"/>
<polygon fill="#63b8ff" stroke="#63b8ff" points="834.27,-827.22 843.82,-831.81 839.22,-822.27 834.27,-827.22"/>
</a>
</g>
</g>
<!-- Node5 -->
<g id="Node000005" class="node">
<title>Node5</title>
<g id="a_Node000005"><a xlink:href="classParser.html#aacf502fa084a101374bda3681e0d23bb" target="_top" xlink:title="Splits a CSV line by commas, respecting double&#45;quoted fields.">
<polygon fill="white" stroke="#666666" points="673.5,-776 580.5,-776 580.5,-757 673.5,-757 673.5,-776"/>
<text text-anchor="middle" x="627" y="-764" font-family="Helvetica,sans-Serif" font-size="10.00">Parser::splitCSV</text>
</a>
</g>
</g>
<!-- Node3&#45;&gt;Node5 -->
<g id="edge4_Node000003_Node000005" class="edge">
<title>Node3&#45;&gt;Node5</title>
<g id="a_edge4_Node000003_Node000005"><a xlink:title=" ">
<path fill="none" stroke="#63b8ff" d="M439,-719.01C462.83,-725.79 495.83,-734.99 525,-742.5 540.89,-746.59 558.26,-750.81 574.04,-754.54"/>
<polygon fill="#63b8ff" stroke="#63b8ff" points="573.61,-758.04 584.15,-756.92 575.21,-751.22 573.61,-758.04"/>
</a>
</g>
</g>
<!-- Node7 -->
<g id="Node000007" class="node">
<title>Node7</title>
<g id="a_Node000007"><a xlink:href="classParser.html#a52df5c3f8fc72a8a486ae35a61d764d1" target="_top" xlink:title="Removes surrounding double quotes from a string value.">
<polygon fill="white" stroke="#666666" points="681.5,-663 572.5,-663 572.5,-644 681.5,-644 681.5,-663"/>
<text text-anchor="middle" x="627" y="-651" font-family="Helvetica,sans-Serif" font-size="10.00">Parser::stripQuotes</text>
</a>
</g>
</g>
<!-- Node3&#45;&gt;Node7 -->
<g id="edge6_Node000003_Node000007" class="edge">
<title>Node3&#45;&gt;Node7</title>
<g id="a_edge6_Node000003_Node000007"><a xlink:title=" ">
<path fill="none" stroke="#63b8ff" d="M433.63,-699.91C457.59,-691.84 493.3,-680.38 525,-672.5 537.02,-669.51 549.95,-666.74 562.42,-664.3"/>
<polygon fill="#63b8ff" stroke="#63b8ff" points="563.12,-667.73 572.29,-662.41 561.81,-660.86 563.12,-667.73"/>
</a>
</g>
</g>
<!-- Node3&#45;&gt;Node8 -->
<g id="edge8_Node000003_Node000008" class="edge">
<title>Node3&#45;&gt;Node8</title>
<g id="a_edge8_Node000003_Node000008"><a xlink:title=" ">
<path fill="none" stroke="#63b8ff" d="M459.41,-719.1C469.83,-722.54 480.23,-727.2 489,-733.5 511.82,-749.91 501.35,-770.31 525,-785.5 538.46,-794.14 554.91,-798.94 570.6,-801.52"/>
<polygon fill="#63b8ff" stroke="#63b8ff" points="570.37,-805.02 580.75,-802.92 571.32,-798.09 570.37,-805.02"/>
</a>
</g>
</g>
<!-- Node9 -->
<g id="Node000009" class="node">
<title>Node9</title>
<g id="a_Node000009"><a xlink:href="domain_8h.html#a0e806904288551ac6c43e2d413164657" target="_top" xlink:title="Converts an integer from the input file to a MatchMode.">
<polygon fill="white" stroke="#666666" points="668.5,-700 585.5,-700 585.5,-681 668.5,-681 668.5,-700"/>
<text text-anchor="middle" x="627" y="-688" font-family="Helvetica,sans-Serif" font-size="10.00">toMatchMode</text>
</a>
</g>
</g>
<!-- Node3&#45;&gt;Node9 -->
<g id="edge9_Node000003_Node000009" class="edge">
<title>Node3&#45;&gt;Node9</title>
<g id="a_edge9_Node000003_Node000009"><a xlink:title=" ">
<path fill="none" stroke="#63b8ff" d="M472.6,-703.75C505.56,-700.9 544.69,-697.52 575.19,-694.89"/>
<polygon fill="#63b8ff" stroke="#63b8ff" points="575.52,-698.37 585.18,-694.03 574.91,-691.4 575.52,-698.37"/>
</a>
</g>
</g>
<!-- Node5&#45;&gt;Node6 -->
<g id="edge5_Node000005_Node000006" class="edge">
<title>Node5&#45;&gt;Node6</title>
<g id="a_edge5_Node000005_Node000006"><a xlink:title=" ">
<path fill="none" stroke="#63b8ff" d="M647.18,-756.87C686.87,-736.93 778.15,-691.09 824.66,-667.73"/>
<polygon fill="#63b8ff" stroke="#63b8ff" points="826.5,-670.73 833.87,-663.11 823.36,-664.47 826.5,-670.73"/>
</a>
</g>
</g>
<!-- Node7&#45;&gt;Node6 -->
<g id="edge7_Node000007_Node000006" class="edge">
<title>Node7&#45;&gt;Node6</title>
<g id="a_edge7_Node000007_Node000006"><a xlink:title=" ">
<path fill="none" stroke="#63b8ff" d="M681.61,-653.5C719.82,-653.5 770.66,-653.5 807.02,-653.5"/>
<polygon fill="#63b8ff" stroke="#63b8ff" points="807.34,-657 817.34,-653.5 807.34,-650 807.34,-657"/>
</a>
</g>
</g>
<!-- Node10&#45;&gt;Node4 -->
<g id="edge13_Node000010_Node000004" class="edge">
<title>Node10&#45;&gt;Node4</title>
<g id="a_edge13_Node000010_Node000004"><a xlink:title=" ">
<path fill="none" stroke="#63b8ff" d="M416.43,-832.17C435.94,-849.53 480.06,-885.37 525,-898.5 612.03,-923.92 640.43,-917.88 729,-898.5 765.78,-890.45 804.68,-870.43 828.89,-856.41"/>
<polygon fill="#63b8ff" stroke="#63b8ff" points="830.9,-859.28 837.72,-851.18 827.33,-853.26 830.9,-859.28"/>
</a>
</g>
</g>
<!-- Node10&#45;&gt;Node5 -->
<g id="edge14_Node000010_Node000005" class="edge">
<title>Node10&#45;&gt;Node5</title>
<g id="a_edge14_Node000010_Node000005"><a xlink:title=" ">
<path fill="none" stroke="#63b8ff" d="M460.19,-812.98C469.91,-810.64 479.86,-807.83 489,-804.5 506,-798.3 507.92,-791.46 525,-785.5 539.37,-780.48 555.38,-776.7 570.34,-773.89"/>
<polygon fill="#63b8ff" stroke="#63b8ff" points="571.26,-777.28 580.5,-772.09 570.04,-770.39 571.26,-777.28"/>
</a>
</g>
</g>
<!-- Node10&#45;&gt;Node8 -->
<g id="edge15_Node000010_Node000008" class="edge">
<title>Node10&#45;&gt;Node8</title>
<g id="a_edge15_Node000010_Node000008"><a xlink:title=" ">
<path fill="none" stroke="#63b8ff" d="M480.18,-816.09C509.82,-813.53 543.36,-810.64 570.79,-808.27"/>
<polygon fill="#63b8ff" stroke="#63b8ff" points="571.33,-811.73 580.99,-807.39 570.72,-804.76 571.33,-811.73"/>
</a>
</g>
</g>
<!-- Node11 -->
<g id="Node000011" class="node">
<title>Node11</title>
<g id="a_Node000011"><a xlink:href="classParser.html#ac9cbf2eac7c906d2da2d95b9c16cc02e" target="_top" xlink:title="Parses a trimmed token as a boolean (0 or 1).">
<polygon fill="white" stroke="#666666" points="689.5,-965 564.5,-965 564.5,-946 689.5,-946 689.5,-965"/>
<text text-anchor="middle" x="627" y="-953" font-family="Helvetica,sans-Serif" font-size="10.00">Parser::parseBoolField</text>
</a>
</g>
</g>
<!-- Node10&#45;&gt;Node11 -->
<g id="edge11_Node000010_Node000011" class="edge">
<title>Node10&#45;&gt;Node11</title>
<g id="a_edge11_Node000010_Node000011"><a xlink:title=" ">
<path fill="none" stroke="#63b8ff" d="M413.48,-832.1C430.71,-853.49 475.49,-905.26 525,-931.5 534.17,-936.36 544.33,-940.25 554.56,-943.36"/>
<polygon fill="#63b8ff" stroke="#63b8ff" points="553.8,-946.78 564.37,-946.1 555.68,-940.04 553.8,-946.78"/>
</a>
</g>
</g>
<!-- Node11&#45;&gt;Node4 -->
<g id="edge12_Node000011_Node000004" class="edge">
<title>Node11&#45;&gt;Node4</title>
<g id="a_edge12_Node000011_Node000004"><a xlink:title=" ">
<path fill="none" stroke="#63b8ff" d="M685.41,-945.99C700.01,-942.46 715.41,-937.74 729,-931.5 770.55,-912.42 812.21,-878.38 835.1,-858.08"/>
<polygon fill="#63b8ff" stroke="#63b8ff" points="837.56,-860.57 842.64,-851.28 832.87,-855.37 837.56,-860.57"/>
</a>
</g>
</g>
<!-- Node12&#45;&gt;Node4 -->
<g id="edge18_Node000012_Node000004" class="edge">
<title>Node12&#45;&gt;Node4</title>
<g id="a_edge18_Node000012_Node000004"><a xlink:title=" ">
<path fill="none" stroke="#63b8ff" d="M456.59,-795.06C467.42,-797.66 478.7,-800.81 489,-804.5 505.84,-810.54 507.72,-817.89 525,-822.5 612.94,-845.96 718.67,-847.56 785.86,-845.43"/>
<polygon fill="#63b8ff" stroke="#63b8ff" points="786.03,-848.93 795.9,-845.08 785.78,-841.93 786.03,-848.93"/>
</a>
</g>
</g>
<!-- Node12&#45;&gt;Node5 -->
<g id="edge19_Node000012_Node000005" class="edge">
<title>Node12&#45;&gt;Node5</title>
<g id="a_edge19_Node000012_Node000005"><a xlink:title=" ">
<path fill="none" stroke="#63b8ff" d="M478.04,-779.28C508.06,-776.69 542.38,-773.72 570.41,-771.3"/>
<polygon fill="#63b8ff" stroke="#63b8ff" points="570.77,-774.78 580.43,-770.44 570.16,-767.81 570.77,-774.78"/>
</a>
</g>
</g>
<!-- Node13 -->
<g id="Node000013" class="node">
<title>Node13</title>
<g id="a_Node000013"><a xlink:href="structProblemData.html#a9f9c5ab24ac824b060f3cdb7bbd764bf" target="_top" xlink:title="Adds a reviewer with duplicate&#45;ID detection.">
<polygon fill="white" stroke="#666666" points="702,-889 552,-889 552,-870 702,-870 702,-889"/>
<text text-anchor="middle" x="627" y="-877" font-family="Helvetica,sans-Serif" font-size="10.00">ProblemData::addReviewer</text>
</a>
</g>
</g>
<!-- Node12&#45;&gt;Node13 -->
<g id="edge17_Node000012_Node000013" class="edge">
<title>Node12&#45;&gt;Node13</title>
<g id="a_edge17_Node000012_Node000013"><a xlink:title=" ">
<path fill="none" stroke="#63b8ff" d="M470.1,-795.08C476.78,-797.54 483.23,-800.63 489,-804.5 512.05,-819.95 502.02,-839.96 525,-855.5 531.69,-860.02 539.12,-863.7 546.85,-866.68"/>
<polygon fill="#63b8ff" stroke="#63b8ff" points="545.78,-870.02 556.38,-869.99 548.08,-863.41 545.78,-870.02"/>
</a>
</g>
</g>
<!-- Node14&#45;&gt;Node4 -->
<g id="edge22_Node000014_Node000004" class="edge">
<title>Node14&#45;&gt;Node4</title>
<g id="a_edge22_Node000014_Node000004"><a xlink:title=" ">
<path fill="none" stroke="#63b8ff" d="M433.78,-633.9C492.68,-615.35 632.56,-580.99 729,-635.5 766.16,-656.51 823.1,-775.44 844.49,-822.42"/>
<polygon fill="#63b8ff" stroke="#63b8ff" points="841.4,-824.09 848.7,-831.77 847.78,-821.21 841.4,-824.09"/>
</a>
</g>
</g>
<!-- Node14&#45;&gt;Node5 -->
<g id="edge23_Node000014_Node000005" class="edge">
<title>Node14&#45;&gt;Node5</title>
<g id="a_edge23_Node000014_Node000005"><a xlink:title=" ">
<path fill="none" stroke="#63b8ff" d="M423.26,-653.15C461.66,-674.62 554.32,-726.42 599.85,-751.88"/>
<polygon fill="#63b8ff" stroke="#63b8ff" points="598.38,-755.07 608.82,-756.89 601.8,-748.96 598.38,-755.07"/>
</a>
</g>
</g>
<!-- Node15 -->
<g id="Node000015" class="node">
<title>Node15</title>
<g id="a_Node000015"><a xlink:href="structProblemData.html#a849ef6ded60771bec2a5e1b6faf0545c" target="_top" xlink:title="Adds a submission with duplicate&#45;ID detection.">
<polygon fill="white" stroke="#666666" points="707.5,-587 546.5,-587 546.5,-568 707.5,-568 707.5,-587"/>
<text text-anchor="middle" x="627" y="-575" font-family="Helvetica,sans-Serif" font-size="10.00">ProblemData::addSubmission</text>
</a>
</g>
</g>
<!-- Node14&#45;&gt;Node15 -->
<g id="edge21_Node000014_Node000015" class="edge">
<title>Node14&#45;&gt;Node15</title>
<g id="a_edge21_Node000014_Node000015"><a xlink:title=" ">
<path fill="none" stroke="#63b8ff" d="M430.82,-633.87C454.72,-624.81 492,-611.21 525,-601.5 540.03,-597.07 556.51,-592.89 571.71,-589.28"/>
<polygon fill="#63b8ff" stroke="#63b8ff" points="572.54,-592.68 581.48,-587.01 570.95,-585.87 572.54,-592.68"/>
</a>
</g>
</g>
<!-- Node17 -->
<g id="Node000017" class="node">
<title>Node17</title>
<g id="a_Node000017"><a xlink:href="classNetworkBuilder.html#af514e79c3d2f21597c54e01c4ce9475d" target="_top" xlink:title="Builds the complete flow network.">
<polygon fill="white" stroke="#666666" points="487,-211 323,-211 323,-192 487,-192 487,-211"/>
<text text-anchor="middle" x="405" y="-199" font-family="Helvetica,sans-Serif" font-size="10.00">NetworkBuilder::buildNetwork</text>
</a>
</g>
</g>
<!-- Node16&#45;&gt;Node17 -->
<g id="edge27_Node000016_Node000017" class="edge">
<title>Node16&#45;&gt;Node17</title>
<g id="a_edge27_Node000016_Node000017"><a xlink:title=" ">
<path fill="none" stroke="#63b8ff" d="M240.68,-267.87C273.7,-254.45 333.71,-230.07 371.07,-214.88"/>
<polygon fill="#63b8ff" stroke="#63b8ff" points="372.56,-218.05 380.51,-211.05 369.93,-211.57 372.56,-218.05"/>
</a>
</g>
</g>
<!-- Node22 -->
<g id="Node000022" class="node">
<title>Node22</title>
<g id="a_Node000022"><a xlink:href="structProblemData.html#a8972080e7733220bd51b437e111bf5c9" target="_top" xlink:title="Number of reviewers.">
<polygon fill="white" stroke="#666666" points="706.5,-287 547.5,-287 547.5,-268 706.5,-268 706.5,-287"/>
<text text-anchor="middle" x="627" y="-275" font-family="Helvetica,sans-Serif" font-size="10.00">ProblemData::numReviewers</text>
</a>
</g>
</g>
<!-- Node16&#45;&gt;Node22 -->
<g id="edge49_Node000016_Node000022" class="edge">
<title>Node16&#45;&gt;Node22</title>
<g id="a_edge49_Node000016_Node000022"><a xlink:title=" ">
<path fill="none" stroke="#63b8ff" d="M256.22,-277.5C320.45,-277.5 449.68,-277.5 537.04,-277.5"/>
<polygon fill="#63b8ff" stroke="#63b8ff" points="537.21,-281 547.21,-277.5 537.21,-274 537.21,-281"/>
</a>
</g>
</g>
<!-- Node23 -->
<g id="Node000023" class="node">
<title>Node23</title>
<g id="a_Node000023"><a xlink:href="structProblemData.html#af8f49cc7cddaa7219f2a6f3bc9853474" target="_top" xlink:title="Number of submissions.">
<polygon fill="white" stroke="#666666" points="712,-62 542,-62 542,-43 712,-43 712,-62"/>
<text text-anchor="middle" x="627" y="-50" font-family="Helvetica,sans-Serif" font-size="10.00">ProblemData::numSubmissions</text>
</a>
</g>
</g>
<!-- Node16&#45;&gt;Node23 -->
<g id="edge50_Node000016_Node000023" class="edge">
<title>Node16&#45;&gt;Node23</title>
<g id="a_edge50_Node000016_Node000023"><a xlink:title=" ">
<path fill="none" stroke="#63b8ff" d="M225.29,-267.95C241.87,-249.36 280.93,-207.9 321,-182.5 389.18,-139.28 423.86,-161.17 489,-113.5 509.11,-98.78 503.43,-82.99 525,-70.5 528.02,-68.75 531.17,-67.16 534.41,-65.72"/>
<polygon fill="#63b8ff" stroke="#63b8ff" points="535.73,-68.97 543.76,-62.05 533.17,-62.45 535.73,-68.97"/>
</a>
</g>
</g>
<!-- Node28 -->
<g id="Node000028" class="node">
<title>Node28</title>
<g id="a_Node000028"><a xlink:href="classGraph.html#afd2749a1cd58db2d3b6fa6eef639399c" target="_top" xlink:title="Computes the maximum flow from source to sink using Edmonds&#45;Karp.">
<polygon fill="white" stroke="#666666" points="464.5,-362 345.5,-362 345.5,-343 464.5,-343 464.5,-362"/>
<text text-anchor="middle" x="405" y="-350" font-family="Helvetica,sans-Serif" font-size="10.00">Graph::edmondsKarp</text>
</a>
</g>
</g>
<!-- Node16&#45;&gt;Node28 -->
<g id="edge38_Node000016_Node000028" class="edge">
<title>Node16&#45;&gt;Node28</title>
<g id="a_edge38_Node000016_Node000028"><a xlink:title=" ">
<path fill="none" stroke="#63b8ff" d="M241.06,-287.15C274.03,-300.37 333.36,-324.17 370.61,-339.11"/>
<polygon fill="#63b8ff" stroke="#63b8ff" points="369.44,-342.41 380.03,-342.89 372.05,-335.91 369.44,-342.41"/>
</a>
</g>
</g>
<!-- Node31 -->
<g id="Node000031" class="node">
<title>Node31</title>
<g id="a_Node000031"><a xlink:href="classSolver.html#ab064c56e0bda025818ce6f8461dd4e80" target="_top" xlink:title="Extracts the assignment from the solved flow network.">
<polygon fill="white" stroke="#666666" points="464.5,-400 345.5,-400 345.5,-381 464.5,-381 464.5,-400"/>
<text text-anchor="middle" x="405" y="-388" font-family="Helvetica,sans-Serif" font-size="10.00">Solver::extractResult</text>
</a>
</g>
</g>
<!-- Node16&#45;&gt;Node31 -->
<g id="edge42_Node000016_Node000031" class="edge">
<title>Node16&#45;&gt;Node31</title>
<g id="a_edge42_Node000016_Node000031"><a xlink:title=" ">
<path fill="none" stroke="#63b8ff" d="M224.73,-287.24C240.6,-306.52 278.9,-349.59 321,-371.5 325.63,-373.91 330.57,-376.02 335.64,-377.86"/>
<polygon fill="#63b8ff" stroke="#63b8ff" points="334.91,-381.31 345.5,-381.09 337.08,-374.65 334.91,-381.31"/>
</a>
</g>
</g>
<!-- Node18 -->
<g id="Node000018" class="node">
<title>Node18</title>
<g id="a_Node000018"><a xlink:href="classGraph.html#a8cdfb932968807565b3cc3b52759e3b8" target="_top" xlink:title="Adds a directed edge (u → v) with the given capacity, along with its reverse edge (v → u) with capaci...">
<polygon fill="white" stroke="#666666" points="674,-173 580,-173 580,-154 674,-154 674,-173"/>
<text text-anchor="middle" x="627" y="-161" font-family="Helvetica,sans-Serif" font-size="10.00">Graph::addEdge</text>
</a>
</g>
</g>
<!-- Node17&#45;&gt;Node18 -->
<g id="edge28_Node000017_Node000018" class="edge">
<title>Node17&#45;&gt;Node18</title>
<g id="a_edge28_Node000017_Node000018"><a xlink:title=" ">
<path fill="none" stroke="#63b8ff" d="M461.23,-191.96C494.34,-186.24 536.33,-178.99 569.63,-173.24"/>
<polygon fill="#63b8ff" stroke="#63b8ff" points="570.41,-176.65 579.67,-171.5 569.22,-169.76 570.41,-176.65"/>
</a>
</g>
</g>
<!-- Node20 -->
<g id="Node000020" class="node">
<title>Node20</title>
<g id="a_Node000020"><a xlink:href="classNetworkBuilder.html#acc9979fa0114fda405375f52dbe49a84" target="_top" xlink:title="Determines if a reviewer can review a submission based on domain matching.">
<polygon fill="white" stroke="#666666" points="708.5,-99 545.5,-99 545.5,-80 708.5,-80 708.5,-99"/>
<text text-anchor="middle" x="627" y="-87" font-family="Helvetica,sans-Serif" font-size="10.00">NetworkBuilder::isCompatible</text>
</a>
</g>
</g>
<!-- Node17&#45;&gt;Node20 -->
<g id="edge30_Node000017_Node000020" class="edge">
<title>Node17&#45;&gt;Node20</title>
<g id="a_edge30_Node000017_Node000020"><a xlink:title=" ">
<path fill="none" stroke="#63b8ff" d="M436.36,-191.87C453.19,-185.46 473.74,-175.76 489,-162.5 511.06,-143.34 500.62,-123.6 525,-107.5 528.41,-105.25 532.03,-103.25 535.78,-101.49"/>
<polygon fill="#63b8ff" stroke="#63b8ff" points="537.42,-104.59 545.35,-97.56 534.77,-98.12 537.42,-104.59"/>
</a>
</g>
</g>
<!-- Node17&#45;&gt;Node22 -->
<g id="edge32_Node000017_Node000022" class="edge">
<title>Node17&#45;&gt;Node22</title>
<g id="a_edge32_Node000017_Node000022"><a xlink:title=" ">
<path fill="none" stroke="#63b8ff" d="M424.96,-211.05C448.1,-222.4 488.65,-241.35 525,-253.5 538.89,-258.14 554.13,-262.26 568.48,-265.71"/>
<polygon fill="#63b8ff" stroke="#63b8ff" points="567.7,-269.12 578.24,-267.99 569.3,-262.31 567.7,-269.12"/>
</a>
</g>
</g>
<!-- Node17&#45;&gt;Node23 -->
<g id="edge33_Node000017_Node000023" class="edge">
<title>Node17&#45;&gt;Node23</title>
<g id="a_edge33_Node000017_Node000023"><a xlink:title=" ">
<path fill="none" stroke="#63b8ff" d="M440.33,-191.99C456.89,-185.89 475.95,-176.45 489,-162.5 519,-130.44 491.05,-98.35 525,-70.5 527.47,-68.48 530.09,-66.65 532.82,-64.99"/>
<polygon fill="#63b8ff" stroke="#63b8ff" points="534.62,-68 541.91,-60.3 531.41,-61.78 534.62,-68"/>
</a>
</g>
</g>
<!-- Node24 -->
<g id="Node000024" class="node">
<title>Node24</title>
<g id="a_Node000024"><a xlink:href="classNetworkBuilder.html#a0b1fedb0791107aa56d1022f3964269f" target="_top" xlink:title="Maps a reviewer&#39;s vector index to its graph node ID.">
<polygon fill="white" stroke="#666666" points="710.5,-324 543.5,-324 543.5,-305 710.5,-305 710.5,-324"/>
<text text-anchor="middle" x="627" y="-312" font-family="Helvetica,sans-Serif" font-size="10.00">NetworkBuilder::reviewerNode</text>
</a>
</g>
</g>
<!-- Node17&#45;&gt;Node24 -->
<g id="edge34_Node000017_Node000024" class="edge">
<title>Node17&#45;&gt;Node24</title>
<g id="a_edge34_Node000017_Node000024"><a xlink:title=" ">
<path fill="none" stroke="#63b8ff" d="M414.77,-211.19C433.12,-230.8 477.8,-275.13 525,-296.5 529.65,-298.6 534.52,-300.46 539.51,-302.1"/>
<polygon fill="#63b8ff" stroke="#63b8ff" points="538.63,-305.49 549.21,-305 540.63,-298.79 538.63,-305.49"/>
</a>
</g>
</g>
<!-- Node25 -->
<g id="Node000025" class="node">
<title>Node25</title>
<g id="a_Node000025"><a xlink:href="classNetworkBuilder.html#a508fc4af685c78c10f96ab39610d4040" target="_top" xlink:title="Maps a submission&#39;s vector index to its graph node ID.">
<polygon fill="white" stroke="#666666" points="716.5,-136 537.5,-136 537.5,-117 716.5,-117 716.5,-136"/>
<text text-anchor="middle" x="627" y="-124" font-family="Helvetica,sans-Serif" font-size="10.00">NetworkBuilder::submissionNode</text>
</a>
</g>
</g>
<!-- Node17&#45;&gt;Node25 -->
<g id="edge35_Node000017_Node000025" class="edge">
<title>Node17&#45;&gt;Node25</title>
<g id="a_edge35_Node000017_Node000025"><a xlink:title=" ">
<path fill="none" stroke="#63b8ff" d="M426.87,-191.86C443.7,-184.05 467.94,-172.71 489,-162.5 505.1,-154.7 508.02,-150.13 525,-144.5 532.11,-142.14 539.61,-140.07 547.19,-138.26"/>
<polygon fill="#63b8ff" stroke="#63b8ff" points="548.16,-141.63 557.15,-136.03 546.63,-134.8 548.16,-141.63"/>
</a>
</g>
</g>
<!-- Node26 -->
<g id="Node000026" class="node">
<title>Node26</title>
<g id="a_Node000026"><a xlink:href="structConfig.html#a89db87ddce24e353ccabde8d0dc70ade" target="_top" xlink:title="Determines if reviewer secondary expertise should be used in matching.">
<polygon fill="white" stroke="#666666" points="937.5,-324 770.5,-324 770.5,-305 937.5,-305 937.5,-324"/>
<text text-anchor="middle" x="854" y="-312" font-family="Helvetica,sans-Serif" font-size="10.00">Config::useReviewerSecondary</text>
</a>
</g>
</g>
<!-- Node17&#45;&gt;Node26 -->
<g id="edge36_Node000017_Node000026" class="edge">
<title>Node17&#45;&gt;Node26</title>
<g id="a_edge36_Node000017_Node000026"><a xlink:title=" ">
<path fill="none" stroke="#63b8ff" d="M487.25,-210.6C553.35,-219.31 648.52,-234.82 729,-259.5 763.59,-270.11 801.31,-287.79 825.96,-300.23"/>
<polygon fill="#63b8ff" stroke="#63b8ff" points="824.55,-303.44 835.04,-304.88 827.74,-297.21 824.55,-303.44"/>
</a>
</g>
</g>
<!-- Node27 -->
<g id="Node000027" class="node">
<title>Node27</title>
<g id="a_Node000027"><a xlink:href="structConfig.html#a936e7b5bd16f50374b648f00465f1a32" target="_top" xlink:title="Determines if submission secondary domains should be used in matching.">
<polygon fill="white" stroke="#666666" points="943,-211 765,-211 765,-192 943,-192 943,-211"/>
<text text-anchor="middle" x="854" y="-199" font-family="Helvetica,sans-Serif" font-size="10.00">Config::useSubmissionSecondary</text>
</a>
</g>
</g>
<!-- Node17&#45;&gt;Node27 -->
<g id="edge37_Node000017_Node000027" class="edge">
<title>Node17&#45;&gt;Node27</title>
<g id="a_edge37_Node000017_Node000027"><a xlink:title=" ">
<path fill="none" stroke="#63b8ff" d="M487.21,-201.5C562.4,-201.5 674.37,-201.5 754.6,-201.5"/>
<polygon fill="#63b8ff" stroke="#63b8ff" points="754.72,-205 764.72,-201.5 754.72,-198 754.72,-205"/>
</a>
</g>
</g>
<!-- Node19 -->
<g id="Node000019" class="node">
<title>Node19</title>
<g id="a_Node000019"><a xlink:href="classGraph.html#a0a3f35d90f69456655a046806c725063" target="_top" xlink:title="Returns the number of nodes in the graph.">
<polygon fill="white" stroke="#666666" points="906,-173 802,-173 802,-154 906,-154 906,-173"/>
<text text-anchor="middle" x="854" y="-161" font-family="Helvetica,sans-Serif" font-size="10.00">Graph::numNodes</text>
</a>
</g>
</g>
<!-- Node18&#45;&gt;Node19 -->
<g id="edge29_Node000018_Node000019" class="edge">
<title>Node18&#45;&gt;Node19</title>
<g id="a_edge29_Node000018_Node000019"><a xlink:title=" ">
<path fill="none" stroke="#63b8ff" d="M674.08,-163.5C708.04,-163.5 754.58,-163.5 791.69,-163.5"/>
<polygon fill="#63b8ff" stroke="#63b8ff" points="791.89,-167 801.89,-163.5 791.89,-160 791.89,-167"/>
</a>
</g>
</g>
<!-- Node21 -->
<g id="Node000021" class="node">
<title>Node21</title>
<g id="a_Node000021"><a xlink:href="structSubmission.html#a19ab1b3a6dc11bd0b8254be4cbc31d2d" target="_top" xlink:title="Checks if this submission covers the given domain.">
<polygon fill="white" stroke="#666666" points="921,-99 787,-99 787,-80 921,-80 921,-99"/>
<text text-anchor="middle" x="854" y="-87" font-family="Helvetica,sans-Serif" font-size="10.00">Submission::hasDomain</text>
</a>
</g>
</g>
<!-- Node20&#45;&gt;Node21 -->
<g id="edge31_Node000020_Node000021" class="edge">
<title>Node20&#45;&gt;Node21</title>
<g id="a_edge31_Node000020_Node000021"><a xlink:title=" ">
<path fill="none" stroke="#63b8ff" d="M708.59,-89.5C730.69,-89.5 754.58,-89.5 776.45,-89.5"/>
<polygon fill="#63b8ff" stroke="#63b8ff" points="776.67,-93 786.67,-89.5 776.67,-86 776.67,-93"/>
</a>
</g>
</g>
<!-- Node28&#45;&gt;Node19 -->
<g id="edge41_Node000028_Node000019" class="edge">
<title>Node28&#45;&gt;Node19</title>
<g id="a_edge41_Node000028_Node000019"><a xlink:title=" ">
<path fill="none" stroke="#63b8ff" d="M464.6,-357.08C546.71,-362.19 690.31,-365.94 729,-333.5 781.87,-289.17 715.7,-230.76 765,-182.5 772.45,-175.21 781.99,-170.43 792.02,-167.34"/>
<polygon fill="#63b8ff" stroke="#63b8ff" points="792.91,-170.73 801.75,-164.88 791.19,-163.94 792.91,-170.73"/>
</a>
</g>
</g>
<!-- Node29 -->
<g id="Node000029" class="node">
<title>Node29</title>
<g id="a_Node000029"><a xlink:href="classGraph.html#a348391db529c20a826a1483fe7bdcb9a" target="_top" xlink:title="BFS on the residual graph to find the shortest augmenting path.">
<polygon fill="white" stroke="#666666" points="660.5,-437 593.5,-437 593.5,-418 660.5,-418 660.5,-437"/>
<text text-anchor="middle" x="627" y="-425" font-family="Helvetica,sans-Serif" font-size="10.00">Graph::bfs</text>
</a>
</g>
</g>
<!-- Node28&#45;&gt;Node29 -->
<g id="edge39_Node000028_Node000029" class="edge">
<title>Node28&#45;&gt;Node29</title>
<g id="a_edge39_Node000028_Node000029"><a xlink:title=" ">
<path fill="none" stroke="#63b8ff" d="M464.31,-362.11C472.9,-364.78 481.4,-368.17 489,-372.5 508.94,-383.86 504.73,-398.75 525,-409.5 542.79,-418.94 564.57,-423.55 583.34,-425.76"/>
<polygon fill="#63b8ff" stroke="#63b8ff" points="583.12,-429.25 593.41,-426.75 583.81,-422.29 583.12,-429.25"/>
</a>
</g>
</g>
<!-- Node30 -->
<g id="Node000030" class="node">
<title>Node30</title>
<g id="a_Node000030"><a xlink:href="structEdge.html#a0b45154adf516897233895a25fad355e" target="_top" xlink:title="Residual capacity of this edge.">
<polygon fill="white" stroke="#666666" points="897,-437 811,-437 811,-418 897,-418 897,-437"/>
<text text-anchor="middle" x="854" y="-425" font-family="Helvetica,sans-Serif" font-size="10.00">Edge::residual</text>
</a>
</g>
</g>
<!-- Node29&#45;&gt;Node30 -->
<g id="edge40_Node000029_Node000030" class="edge">
<title>Node29&#45;&gt;Node30</title>
<g id="a_edge40_Node000029_Node000030"><a xlink:title=" ">
<path fill="none" stroke="#63b8ff" d="M660.72,-427.5C697.39,-427.5 757.36,-427.5 800.59,-427.5"/>
<polygon fill="#63b8ff" stroke="#63b8ff" points="800.64,-431 810.64,-427.5 800.64,-424 800.64,-431"/>
</a>
</g>
</g>
<!-- Node31&#45;&gt;Node24 -->
<g id="edge48_Node000031_Node000024" class="edge">
<title>Node31&#45;&gt;Node24</title>
<g id="a_edge48_Node000031_Node000024"><a xlink:title=" ">
<path fill="none" stroke="#63b8ff" d="M454.21,-380.92C465.72,-378.23 477.88,-375.06 489,-371.5 527.02,-359.33 569.21,-341.01 596.59,-328.44"/>
<polygon fill="#63b8ff" stroke="#63b8ff" points="598.38,-331.47 605.98,-324.09 595.43,-325.12 598.38,-331.47"/>
</a>
</g>
</g>
<!-- Node32 -->
<g id="Node000032" class="node">
<title>Node32</title>
<g id="a_Node000032"><a xlink:href="classSolver.html#a0a32ae51c07e104de80b39cceaaf325f" target="_top" xlink:title="Determines which domain code caused the match between a reviewer and submission.">
<polygon fill="white" stroke="#666666" points="703,-400 551,-400 551,-381 703,-381 703,-400"/>
<text text-anchor="middle" x="627" y="-388" font-family="Helvetica,sans-Serif" font-size="10.00">Solver::findMatchedDomain</text>
</a>
</g>
</g>
<!-- Node31&#45;&gt;Node32 -->
<g id="edge43_Node000031_Node000032" class="edge">
<title>Node31&#45;&gt;Node32</title>
<g id="a_edge43_Node000031_Node000032"><a xlink:title=" ">
<path fill="none" stroke="#63b8ff" d="M464.67,-390.5C488.04,-390.5 515.4,-390.5 540.88,-390.5"/>
<polygon fill="#63b8ff" stroke="#63b8ff" points="540.91,-394 550.91,-390.5 540.91,-387 540.91,-394"/>
</a>
</g>
</g>
<!-- Node33 -->
<g id="Node000033" class="node">
<title>Node33</title>
<g id="a_Node000033"><a xlink:href="classGraph.html#af5f263b25175df3f5511ff5ede0a63aa" target="_top" xlink:title="Returns the adjacency list of a given node (const).">
<polygon fill="white" stroke="#666666" points="668.5,-511 585.5,-511 585.5,-492 668.5,-492 668.5,-511"/>
<text text-anchor="middle" x="627" y="-499" font-family="Helvetica,sans-Serif" font-size="10.00">Graph::getAdj</text>
</a>
</g>
</g>
<!-- Node31&#45;&gt;Node33 -->
<g id="edge46_Node000031_Node000033" class="edge">
<title>Node31&#45;&gt;Node33</title>
<g id="a_edge46_Node000031_Node000033"><a xlink:title=" ">
<path fill="none" stroke="#63b8ff" d="M415.1,-400.27C433.7,-419.61 478.31,-462.66 525,-483.5 540.62,-490.47 558.74,-494.75 575.29,-497.37"/>
<polygon fill="#63b8ff" stroke="#63b8ff" points="574.95,-500.86 585.35,-498.79 575.94,-493.93 574.95,-500.86"/>
</a>
</g>
</g>
<!-- Node34 -->
<g id="Node000034" class="node">
<title>Node34</title>
<g id="a_Node000034"><a xlink:href="classNetworkBuilder.html#a4efdb0e13d73f6f3cbf38b4cd11a5ef3" target="_top" xlink:title="Inverse: given a graph node ID, returns the submission vector index.">
<polygon fill="white" stroke="#666666" points="729,-474 525,-474 525,-455 729,-455 729,-474"/>
<text text-anchor="middle" x="627" y="-462" font-family="Helvetica,sans-Serif" font-size="10.00">NetworkBuilder::nodeToSubmissionIdx</text>
</a>
</g>
</g>
<!-- Node31&#45;&gt;Node34 -->
<g id="edge47_Node000031_Node000034" class="edge">
<title>Node31&#45;&gt;Node34</title>
<g id="a_edge47_Node000031_Node000034"><a xlink:title=" ">
<path fill="none" stroke="#63b8ff" d="M422.77,-400.13C445.3,-412.66 486.92,-434.38 525,-446.5 532.54,-448.9 540.51,-451.01 548.52,-452.86"/>
<polygon fill="#63b8ff" stroke="#63b8ff" points="547.79,-456.28 558.3,-454.98 549.27,-449.44 547.79,-456.28"/>
</a>
</g>
</g>
<!-- Node32&#45;&gt;Node26 -->
<g id="edge44_Node000032_Node000026" class="edge">
<title>Node32&#45;&gt;Node26</title>
<g id="a_edge44_Node000032_Node000026"><a xlink:title=" ">
<path fill="none" stroke="#63b8ff" d="M675.21,-380.97C692.32,-377.07 711.69,-372.14 729,-366.5 762.11,-355.7 798.75,-339.83 823.55,-328.46"/>
<polygon fill="#63b8ff" stroke="#63b8ff" points="825.16,-331.57 832.77,-324.2 822.22,-325.22 825.16,-331.57"/>
</a>
</g>
</g>
<!-- Node32&#45;&gt;Node27 -->
<g id="edge45_Node000032_Node000027" class="edge">
<title>Node32&#45;&gt;Node27</title>
<g id="a_edge45_Node000032_Node000027"><a xlink:title=" ">
<path fill="none" stroke="#63b8ff" d="M701.81,-380.93C711.59,-377.46 720.98,-372.78 729,-366.5 756.54,-344.93 744.93,-325.15 765,-296.5 785.99,-266.53 815.86,-236.27 834.83,-218.2"/>
<polygon fill="#63b8ff" stroke="#63b8ff" points="837.35,-220.64 842.24,-211.24 832.56,-215.54 837.35,-220.64"/>
</a>
</g>
</g>
<!-- Node36 -->
<g id="Node000036" class="node">
<title>Node36</title>
<g id="a_Node000036"><a xlink:href="structConfig.html#ac9705d2a8dd4171189897096e6056719" target="_top" xlink:title="Whether risk analysis should be performed.">
<polygon fill="white" stroke="#666666" points="478,-19 332,-19 332,0 478,0 478,-19"/>
<text text-anchor="middle" x="405" y="-7" font-family="Helvetica,sans-Serif" font-size="10.00">Config::shouldAnalyzeRisk</text>
</a>
</g>
</g>
<!-- Node35&#45;&gt;Node36 -->
<g id="edge52_Node000035_Node000036" class="edge">
<title>Node35&#45;&gt;Node36</title>
<g id="a_edge52_Node000035_Node000036"><a xlink:title=" ">
<path fill="none" stroke="#63b8ff" d="M235.74,-64.9C256.23,-54.72 290.27,-38.71 321,-28.5 328.78,-25.92 337.08,-23.56 345.32,-21.45"/>
<polygon fill="#63b8ff" stroke="#63b8ff" points="346.41,-24.79 355.29,-19.01 344.75,-17.99 346.41,-24.79"/>
</a>
</g>
</g>
<!-- Node37 -->
<g id="Node000037" class="node">
<title>Node37</title>
<g id="a_Node000037"><a xlink:href="classOutputWriter.html#a6e32add7759c83e565390d14cd1bb339" target="_top" xlink:title="Writes the assignment sections to any output stream.">
<polygon fill="white" stroke="#666666" points="489,-67.5 321,-67.5 321,-37.5 489,-37.5 489,-67.5"/>
<text text-anchor="start" x="329" y="-55.5" font-family="Helvetica,sans-Serif" font-size="10.00">OutputWriter::writeAssignment</text>
<text text-anchor="middle" x="405" y="-44.5" font-family="Helvetica,sans-Serif" font-size="10.00">Section</text>
</a>
</g>
</g>
<!-- Node35&#45;&gt;Node37 -->
<g id="edge53_Node000035_Node000037" class="edge">
<title>Node35&#45;&gt;Node37</title>
<g id="a_edge53_Node000035_Node000037"><a xlink:title=" ">
<path fill="none" stroke="#63b8ff" d="M285.04,-66.5C293.37,-65.52 302,-64.5 310.62,-63.49"/>
<polygon fill="#63b8ff" stroke="#63b8ff" points="311.2,-66.94 320.72,-62.3 310.38,-59.99 311.2,-66.94"/>
</a>
</g>
</g>
<!-- Node39 -->
<g id="Node000039" class="node">
<title>Node39</title>
<g id="a_Node000039"><a xlink:href="classOutputWriter.html#a33523f8610417f2806d5943455614a14" target="_top" xlink:title="Writes the risk analysis section to any output stream.">
<polygon fill="white" stroke="#666666" points="488.5,-105 321.5,-105 321.5,-86 488.5,-86 488.5,-105"/>
<text text-anchor="middle" x="405" y="-93" font-family="Helvetica,sans-Serif" font-size="10.00">OutputWriter::writeRiskSection</text>
</a>
</g>
</g>
<!-- Node35&#45;&gt;Node39 -->
<g id="edge56_Node000035_Node000039" class="edge">
<title>Node35&#45;&gt;Node39</title>
<g id="a_edge56_Node000035_Node000039"><a xlink:title=" ">
<path fill="none" stroke="#63b8ff" d="M285.04,-82.14C293.61,-83.1 302.5,-84.1 311.37,-85.1"/>
<polygon fill="#63b8ff" stroke="#63b8ff" points="311.04,-88.58 321.37,-86.22 311.82,-81.63 311.04,-88.58"/>
</a>
</g>
</g>
<!-- Node37&#45;&gt;Node23 -->
<g id="edge55_Node000037_Node000023" class="edge">
<title>Node37&#45;&gt;Node23</title>
<g id="a_edge55_Node000037_Node000023"><a xlink:title=" ">
<path fill="none" stroke="#63b8ff" d="M489.17,-52.5C503.08,-52.5 517.59,-52.5 531.75,-52.5"/>
<polygon fill="#63b8ff" stroke="#63b8ff" points="531.98,-56 541.98,-52.5 531.98,-49 531.98,-56"/>
</a>
</g>
</g>
<!-- Node38 -->
<g id="Node000038" class="node">
<title>Node38</title>
<g id="a_Node000038"><a xlink:href="structSolverResult.html#a4d56c0d5a4628962604d1c204e1d530c" target="_top" xlink:title="Whether the assignment is fully satisfied.">
<polygon fill="white" stroke="#666666" points="697,-25 557,-25 557,-6 697,-6 697,-25"/>
<text text-anchor="middle" x="627" y="-13" font-family="Helvetica,sans-Serif" font-size="10.00">SolverResult::isComplete</text>
</a>
</g>
</g>
<!-- Node37&#45;&gt;Node38 -->
<g id="edge54_Node000037_Node000038" class="edge">
<title>Node37&#45;&gt;Node38</title>
<g id="a_edge54_Node000037_Node000038"><a xlink:title=" ">
<path fill="none" stroke="#63b8ff" d="M489.17,-38.51C512.39,-34.61 537.3,-30.42 559.42,-26.7"/>
<polygon fill="#63b8ff" stroke="#63b8ff" points="560.09,-30.13 569.37,-25.02 558.93,-23.23 560.09,-30.13"/>
</a>
</g>
</g>
</g>
</svg>
