<?xml version="1.0" encoding="UTF-8" standalone="no"?>
<!DOCTYPE svg PUBLIC "-//W3C//DTD SVG 1.1//EN"
 "http://www.w3.org/Graphics/SVG/1.1/DTD/svg11.dtd">
<!-- Generated by graphviz version 2.43.0 (0)
 -->
<!-- Title: test_risk_analysis_k1 Pages: 1 -->
<svg width="984pt" height="514pt"
 viewBox="0.00 0.00 984.00 514.00" xmlns="http://www.w3.org/2000/svg" xmlns:xlink="http://www.w3.org/1999/xlink">
<g id="graph0" class="graph" transform="scale(1 1) rotate(0) translate(4 510)">
<title>test_risk_analysis_k1</title>
<!-- Node1 -->
<g id="Node000001" class="node">
<title>Node1</title>
<g id="a_Node000001"><a xlink:title=" ">
<polygon fill="#999999" stroke="#666666" points="122,-294 0,-294 0,-275 122,-275 122,-294"/>
<text text-anchor="middle" x="61" y="-282" font-family="Helvetica,sans-Serif" font-size="10.00">test_risk_analysis_k1</text>
</a>
</g>
</g>
<!-- Node2 -->
<g id="Node000002" class="node">
<title>Node2</title>
<g id="a_Node000002"><a xlink:href="structProblemData.html#a9f9c5ab24ac824b060f3cdb7bbd764bf" target="_top" xlink:title="Adds a reviewer with duplicate&#45;ID detection.">
<polygon fill="white" stroke="#666666" points="315,-331 165,-331 165,-312 315,-312 315,-331"/>
<text text-anchor="middle" x="240" y="-319" font-family="Helvetica,sans-Serif" font-size="10.00">ProblemData::addReviewer</text>
</a>
</g>
</g>
<!-- Node1&#45;&gt;Node2 -->
<g id="edge1_Node000001_Node000002" class="edge">
<title>Node1&#45;&gt;Node2</title>
<g id="a_edge1_Node000001_Node000002"><a xlink:title=" ">
<path fill="none" stroke="#63b8ff" d="M107.58,-294.03C130.72,-298.86 159.02,-304.78 183.42,-309.88"/>
<polygon fill="#63b8ff" stroke="#63b8ff" points="182.76,-313.32 193.27,-311.94 184.19,-306.47 182.76,-313.32"/>
</a>
</g>
</g>
<!-- Node3 -->
<g id="Node000003" class="node">
<title>Node3</title>
<g id="a_Node000003"><a xlink:href="structProblemData.html#a849ef6ded60771bec2a5e1b6faf0545c" target="_top" xlink:title="Adds a submission with duplicate&#45;ID detection.">
<polygon fill="white" stroke="#666666" points="320.5,-294 159.5,-294 159.5,-275 320.5,-275 320.5,-294"/>
<text text-anchor="middle" x="240" y="-282" font-family="Helvetica,sans-Serif" font-size="10.00">ProblemData::addSubmission</text>
</a>
</g>
</g>
<!-- Node1&#45;&gt;Node3 -->
<g id="edge2_Node000001_Node000003" class="edge">
<title>Node1&#45;&gt;Node3</title>
<g id="a_edge2_Node000001_Node000003"><a xlink:title=" ">
<path fill="none" stroke="#63b8ff" d="M122.42,-284.5C131.08,-284.5 140.14,-284.5 149.21,-284.5"/>
<polygon fill="#63b8ff" stroke="#63b8ff" points="149.45,-288 159.45,-284.5 149.45,-281 149.45,-288"/>
</a>
</g>
</g>
<!-- Node4 -->
<g id="Node000004" class="node">
<title>Node4</title>
<g id="a_Node000004"><a xlink:href="classSolver.html#ae2ca491c309b717821844e7f2a9ea629" target="_top" xlink:title="Performs Risk Analysis with parameter K = 1.">
<polygon fill="white" stroke="#666666" points="322,-257 158,-257 158,-238 322,-238 322,-257"/>
<text text-anchor="middle" x="240" y="-245" font-family="Helvetica,sans-Serif" font-size="10.00">Solver::solveWithRiskAnalysis</text>
</a>
</g>
</g>
<!-- Node1&#45;&gt;Node4 -->
<g id="edge3_Node000001_Node000004" class="edge">
<title>Node1&#45;&gt;Node4</title>
<g id="a_edge3_Node000001_Node000004"><a xlink:title=" ">
<path fill="none" stroke="#63b8ff" d="M107.58,-274.97C130.72,-270.14 159.02,-264.22 183.42,-259.12"/>
<polygon fill="#63b8ff" stroke="#63b8ff" points="184.19,-262.53 193.27,-257.06 182.76,-255.68 184.19,-262.53"/>
</a>
</g>
</g>
<!-- Node5 -->
<g id="Node000005" class="node">
<title>Node5</title>
<g id="a_Node000005"><a xlink:href="classNetworkBuilder.html#af514e79c3d2f21597c54e01c4ce9475d" target="_top" xlink:title="Builds the complete flow network.">
<polygon fill="white" stroke="#666666" points="522,-257 358,-257 358,-238 522,-238 522,-257"/>
<text text-anchor="middle" x="440" y="-245" font-family="Helvetica,sans-Serif" font-size="10.00">NetworkBuilder::buildNetwork</text>
</a>
</g>
</g>
<!-- Node4&#45;&gt;Node5 -->
<g id="edge4_Node000004_Node000005" class="edge">
<title>Node4&#45;&gt;Node5</title>
<g id="a_edge4_Node000004_Node000005"><a xlink:title=" ">
<path fill="none" stroke="#63b8ff" d="M322.11,-247.5C330.46,-247.5 338.99,-247.5 347.44,-247.5"/>
<polygon fill="#63b8ff" stroke="#63b8ff" points="347.7,-251 357.7,-247.5 347.7,-244 347.7,-251"/>
</a>
</g>
</g>
<!-- Node10 -->
<g id="Node000010" class="node">
<title>Node10</title>
<g id="a_Node000010"><a xlink:href="structProblemData.html#a8972080e7733220bd51b437e111bf5c9" target="_top" xlink:title="Number of reviewers.">
<polygon fill="white" stroke="#666666" points="739.5,-392 580.5,-392 580.5,-373 739.5,-373 739.5,-392"/>
<text text-anchor="middle" x="660" y="-380" font-family="Helvetica,sans-Serif" font-size="10.00">ProblemData::numReviewers</text>
</a>
</g>
</g>
<!-- Node4&#45;&gt;Node10 -->
<g id="edge28_Node000004_Node000010" class="edge">
<title>Node4&#45;&gt;Node10</title>
<g id="a_edge28_Node000004_Node000010"><a xlink:title=" ">
<path fill="none" stroke="#63b8ff" d="M287.17,-257.03C298.65,-259.75 310.85,-262.96 322,-266.5 413.4,-295.54 434.16,-309.01 522,-347.5 538.21,-354.6 541.14,-359.12 558,-364.5 565.54,-366.91 573.5,-369.02 581.52,-370.87"/>
<polygon fill="#63b8ff" stroke="#63b8ff" points="580.78,-374.29 591.3,-372.99 582.27,-367.45 580.78,-374.29"/>
</a>
</g>
</g>
<!-- Node11 -->
<g id="Node000011" class="node">
<title>Node11</title>
<g id="a_Node000011"><a xlink:href="structProblemData.html#af8f49cc7cddaa7219f2a6f3bc9853474" target="_top" xlink:title="Number of submissions.">
<polygon fill="white" stroke="#666666" points="745,-167 575,-167 575,-148 745,-148 745,-167"/>
<text text-anchor="middle" x="660" y="-155" font-family="Helvetica,sans-Serif" font-size="10.00">ProblemData::numSubmissions</text>
</a>
</g>
</g>
<!-- Node4&#45;&gt;Node11 -->
<g id="edge29_Node000004_Node000011" class="edge">
<title>Node4&#45;&gt;Node11</title>
<g id="a_edge29_Node000004_Node000011"><a xlink:title=" ">
<path fill="none" stroke="#63b8ff" d="M285.34,-237.95C362.57,-221.33 521.48,-187.11 605,-169.13"/>
<polygon fill="#63b8ff" stroke="#63b8ff" points="605.76,-172.54 614.8,-167.02 604.29,-165.7 605.76,-172.54"/>
</a>
</g>
</g>
<!-- Node12 -->
<g id="Node000012" class="node">
<title>Node12</title>
<g id="a_Node000012"><a xlink:href="classNetworkBuilder.html#a0b1fedb0791107aa56d1022f3964269f" target="_top" xlink:title="Maps a reviewer&#39;s vector index to its graph node ID.">
<polygon fill="white" stroke="#666666" points="743.5,-130 576.5,-130 576.5,-111 743.5,-111 743.5,-130"/>
<text text-anchor="middle" x="660" y="-118" font-family="Helvetica,sans-Serif" font-size="10.00">NetworkBuilder::reviewerNode</text>
</a>
</g>
</g>
<!-- Node4&#45;&gt;Node12 -->
<g id="edge30_Node000004_Node000012" class="edge">
<title>Node4&#45;&gt;Node12</title>
<g id="a_edge30_Node000004_Node000012"><a xlink:title=" ">
<path fill="none" stroke="#63b8ff" d="M255.9,-237.78C277.55,-224.05 319.35,-199.05 358,-184.5 428.45,-157.98 512.54,-141.27 573.91,-131.6"/>
<polygon fill="#63b8ff" stroke="#63b8ff" points="574.59,-135.03 583.94,-130.05 573.52,-128.11 574.59,-135.03"/>
</a>
</g>
</g>
<!-- Node16 -->
<g id="Node000016" class="node">
<title>Node16</title>
<g id="a_Node000016"><a xlink:href="classGraph.html#a24e78627debf97e225128856196398dc" target="_top" xlink:title="Disables all edges from a specific node by setting capacity to 0.">
<polygon fill="white" stroke="#666666" points="496.5,-375 383.5,-375 383.5,-356 496.5,-356 496.5,-375"/>
<text text-anchor="middle" x="440" y="-363" font-family="Helvetica,sans-Serif" font-size="10.00">Graph::disableNode</text>
</a>
</g>
</g>
<!-- Node4&#45;&gt;Node16 -->
<g id="edge15_Node000004_Node000016" class="edge">
<title>Node4&#45;&gt;Node16</title>
<g id="a_edge15_Node000004_Node000016"><a xlink:title=" ">
<path fill="none" stroke="#63b8ff" d="M302.57,-257.14C309.42,-259.59 316.06,-262.66 322,-266.5 344.1,-280.78 338.64,-295.68 358,-313.5 374.03,-328.26 394.75,-341.47 411.22,-350.89"/>
<polygon fill="#63b8ff" stroke="#63b8ff" points="409.92,-354.17 420.36,-355.98 413.32,-348.05 409.92,-354.17"/>
</a>
</g>
</g>
<!-- Node17 -->
<g id="Node000017" class="node">
<title>Node17</title>
<g id="a_Node000017"><a xlink:href="classGraph.html#afd2749a1cd58db2d3b6fa6eef639399c" target="_top" xlink:title="Computes the maximum flow from source to sink using Edmonds&#45;Karp.">
<polygon fill="white" stroke="#666666" points="499.5,-468 380.5,-468 380.5,-449 499.5,-449 499.5,-468"/>
<text text-anchor="middle" x="440" y="-456" font-family="Helvetica,sans-Serif" font-size="10.00">Graph::edmondsKarp</text>
</a>
</g>
</g>
<!-- Node4&#45;&gt;Node17 -->
<g id="edge17_Node000004_Node000017" class="edge">
<title>Node4&#45;&gt;Node17</title>
<g id="a_edge17_Node000004_Node000017"><a xlink:title=" ">
<path fill="none" stroke="#63b8ff" d="M308.07,-257.01C313.15,-259.53 317.89,-262.65 322,-266.5 362.02,-303.98 328.72,-338.14 358,-384.5 373.12,-408.44 398,-429.53 416.2,-443.01"/>
<polygon fill="#63b8ff" stroke="#63b8ff" points="414.36,-446 424.53,-448.99 418.45,-440.32 414.36,-446"/>
</a>
</g>
</g>
<!-- Node20 -->
<g id="Node000020" class="node">
<title>Node20</title>
<g id="a_Node000020"><a xlink:href="classSolver.html#ab064c56e0bda025818ce6f8461dd4e80" target="_top" xlink:title="Extracts the assignment from the solved flow network.">
<polygon fill="white" stroke="#666666" points="499.5,-93 380.5,-93 380.5,-74 499.5,-74 499.5,-93"/>
<text text-anchor="middle" x="440" y="-81" font-family="Helvetica,sans-Serif" font-size="10.00">Solver::extractResult</text>
</a>
</g>
</g>
<!-- Node4&#45;&gt;Node20 -->
<g id="edge21_Node000004_Node000020" class="edge">
<title>Node4&#45;&gt;Node20</title>
<g id="a_edge21_Node000004_Node000020"><a xlink:title=" ">
<path fill="none" stroke="#63b8ff" d="M249.08,-237.86C267.12,-216.72 312.69,-165.35 358,-130.5 374.38,-117.91 394.45,-106.24 410.52,-97.67"/>
<polygon fill="#63b8ff" stroke="#63b8ff" points="412.21,-100.74 419.46,-93.01 408.97,-94.53 412.21,-100.74"/>
</a>
</g>
</g>
<!-- Node6 -->
<g id="Node000006" class="node">
<title>Node6</title>
<g id="a_Node000006"><a xlink:href="classGraph.html#a8cdfb932968807565b3cc3b52759e3b8" target="_top" xlink:title="Adds a directed edge (u → v) with the given capacity, along with its reverse edge (v → u) with capaci...">
<polygon fill="white" stroke="#666666" points="707,-355 613,-355 613,-336 707,-336 707,-355"/>
<text text-anchor="middle" x="660" y="-343" font-family="Helvetica,sans-Serif" font-size="10.00">Graph::addEdge</text>
</a>
</g>
</g>
<!-- Node5&#45;&gt;Node6 -->
<g id="edge5_Node000005_Node000006" class="edge">
<title>Node5&#45;&gt;Node6</title>
<g id="a_edge5_Node000005_Node000006"><a xlink:title=" ">
<path fill="none" stroke="#63b8ff" d="M468.49,-257.02C484.98,-263.52 505.81,-273.18 522,-285.5 541.57,-300.39 536.66,-315.3 558,-327.5 571.57,-335.26 587.71,-339.81 603.06,-342.45"/>
<polygon fill="#63b8ff" stroke="#63b8ff" points="602.59,-345.92 613,-343.92 603.62,-338.99 602.59,-345.92"/>
</a>
</g>
</g>
<!-- Node8 -->
<g id="Node000008" class="node">
<title>Node8</title>
<g id="a_Node000008"><a xlink:href="classNetworkBuilder.html#acc9979fa0114fda405375f52dbe49a84" target="_top" xlink:title="Determines if a reviewer can review a submission based on domain matching.">
<polygon fill="white" stroke="#666666" points="741.5,-281 578.5,-281 578.5,-262 741.5,-262 741.5,-281"/>
<text text-anchor="middle" x="660" y="-269" font-family="Helvetica,sans-Serif" font-size="10.00">NetworkBuilder::isCompatible</text>
</a>
</g>
</g>
<!-- Node5&#45;&gt;Node8 -->
<g id="edge7_Node000005_Node000008" class="edge">
<title>Node5&#45;&gt;Node8</title>
<g id="a_edge7_Node000005_Node000008"><a xlink:title=" ">
<path fill="none" stroke="#63b8ff" d="M522.18,-256.44C537.27,-258.1 553.13,-259.84 568.48,-261.53"/>
<polygon fill="#63b8ff" stroke="#63b8ff" points="568.16,-265.02 578.48,-262.64 568.93,-258.06 568.16,-265.02"/>
</a>
</g>
</g>
<!-- Node5&#45;&gt;Node10 -->
<g id="edge9_Node000005_Node000010" class="edge">
<title>Node5&#45;&gt;Node10</title>
<g id="a_edge9_Node000005_Node000010"><a xlink:title=" ">
<path fill="none" stroke="#63b8ff" d="M474.19,-257.06C490.28,-263.07 508.89,-272.25 522,-285.5 549.13,-312.93 527.51,-340.85 558,-364.5 562.07,-367.66 566.52,-370.34 571.19,-372.6"/>
<polygon fill="#63b8ff" stroke="#63b8ff" points="569.87,-375.83 580.44,-376.45 572.56,-369.37 569.87,-375.83"/>
</a>
</g>
</g>
<!-- Node5&#45;&gt;Node11 -->
<g id="edge10_Node000005_Node000011" class="edge">
<title>Node5&#45;&gt;Node11</title>
<g id="a_edge10_Node000005_Node000011"><a xlink:title=" ">
<path fill="none" stroke="#63b8ff" d="M471.48,-237.99C487.22,-232.37 506.35,-224.41 522,-214.5 540.34,-202.89 538.82,-191.67 558,-181.5 567.05,-176.7 577.06,-172.85 587.16,-169.76"/>
<polygon fill="#63b8ff" stroke="#63b8ff" points="588.16,-173.11 596.84,-167.03 586.26,-166.38 588.16,-173.11"/>
</a>
</g>
</g>
<!-- Node5&#45;&gt;Node12 -->
<g id="edge11_Node000005_Node000012" class="edge">
<title>Node5&#45;&gt;Node12</title>
<g id="a_edge11_Node000005_Node000012"><a xlink:title=" ">
<path fill="none" stroke="#63b8ff" d="M448.22,-237.7C464.86,-215.88 508.33,-163.31 558,-138.5 561.85,-136.58 565.88,-134.85 570.02,-133.31"/>
<polygon fill="#63b8ff" stroke="#63b8ff" points="571.44,-136.53 579.82,-130.04 569.23,-129.89 571.44,-136.53"/>
</a>
</g>
</g>
<!-- Node13 -->
<g id="Node000013" class="node">
<title>Node13</title>
<g id="a_Node000013"><a xlink:href="classNetworkBuilder.html#a508fc4af685c78c10f96ab39610d4040" target="_top" xlink:title="Maps a submission&#39;s vector index to its graph node ID.">
<polygon fill="white" stroke="#666666" points="749.5,-318 570.5,-318 570.5,-299 749.5,-299 749.5,-318"/>
<text text-anchor="middle" x="660" y="-306" font-family="Helvetica,sans-Serif" font-size="10.00">NetworkBuilder::submissionNode</text>
</a>
</g>
</g>
<!-- Node5&#45;&gt;Node13 -->
<g id="edge12_Node000005_Node000013" class="edge">
<title>Node5&#45;&gt;Node13</title>
<g id="a_edge12_Node000005_Node000013"><a xlink:title=" ">
<path fill="none" stroke="#63b8ff" d="M463.48,-257.11C486.76,-266.74 524.37,-281.4 558,-290.5 566.84,-292.89 576.2,-295.05 585.52,-296.97"/>
<polygon fill="#63b8ff" stroke="#63b8ff" points="585.1,-300.45 595.58,-298.96 586.45,-293.59 585.1,-300.45"/>
</a>
</g>
</g>
<!-- Node14 -->
<g id="Node000014" class="node">
<title>Node14</title>
<g id="a_Node000014"><a xlink:href="structConfig.html#a89db87ddce24e353ccabde8d0dc70ade" target="_top" xlink:title="Determines if reviewer secondary expertise should be used in matching.">
<polygon fill="white" stroke="#666666" points="970.5,-215 803.5,-215 803.5,-196 970.5,-196 970.5,-215"/>
<text text-anchor="middle" x="887" y="-203" font-family="Helvetica,sans-Serif" font-size="10.00">Config::useReviewerSecondary</text>
</a>
</g>
</g>
<!-- Node5&#45;&gt;Node14 -->
<g id="edge13_Node000005_Node000014" class="edge">
<title>Node5&#45;&gt;Node14</title>
<g id="a_edge13_Node000005_Node000014"><a xlink:title=" ">
<path fill="none" stroke="#63b8ff" d="M522.1,-239.85C598.55,-232.63 713.03,-221.83 793.11,-214.27"/>
<polygon fill="#63b8ff" stroke="#63b8ff" points="793.57,-217.74 803.19,-213.32 792.91,-210.77 793.57,-217.74"/>
</a>
</g>
</g>
<!-- Node15 -->
<g id="Node000015" class="node">
<title>Node15</title>
<g id="a_Node000015"><a xlink:href="structConfig.html#a936e7b5bd16f50374b648f00465f1a32" target="_top" xlink:title="Determines if submission secondary domains should be used in matching.">
<polygon fill="white" stroke="#666666" points="976,-149 798,-149 798,-130 976,-130 976,-149"/>
<text text-anchor="middle" x="887" y="-137" font-family="Helvetica,sans-Serif" font-size="10.00">Config::useSubmissionSecondary</text>
</a>
</g>
</g>
<!-- Node5&#45;&gt;Node15 -->
<g id="edge14_Node000005_Node000015" class="edge">
<title>Node5&#45;&gt;Node15</title>
<g id="a_edge14_Node000005_Node000015"><a xlink:title=" ">
<path fill="none" stroke="#63b8ff" d="M470.59,-237.98C494.11,-230.64 527.94,-220.57 558,-213.5 647.7,-192.39 672.38,-197.93 762,-176.5 791,-169.57 823.26,-159.88 847.6,-152.15"/>
<polygon fill="#63b8ff" stroke="#63b8ff" points="848.73,-155.47 857.18,-149.09 846.59,-148.8 848.73,-155.47"/>
</a>
</g>
</g>
<!-- Node7 -->
<g id="Node000007" class="node">
<title>Node7</title>
<g id="a_Node000007"><a xlink:href="classGraph.html#a0a3f35d90f69456655a046806c725063" target="_top" xlink:title="Returns the number of nodes in the graph.">
<polygon fill="white" stroke="#666666" points="939,-430 835,-430 835,-411 939,-411 939,-430"/>
<text text-anchor="middle" x="887" y="-418" font-family="Helvetica,sans-Serif" font-size="10.00">Graph::numNodes</text>
</a>
</g>
</g>
<!-- Node6&#45;&gt;Node7 -->
<g id="edge6_Node000006_Node000007" class="edge">
<title>Node6&#45;&gt;Node7</title>
<g id="a_edge6_Node000006_Node000007"><a xlink:title=" ">
<path fill="none" stroke="#63b8ff" d="M707.07,-351.79C724.51,-354.79 744.39,-358.95 762,-364.5 796.81,-375.46 834.76,-393.59 859.39,-406.24"/>
<polygon fill="#63b8ff" stroke="#63b8ff" points="857.97,-409.44 868.46,-410.96 861.2,-403.24 857.97,-409.44"/>
</a>
</g>
</g>
<!-- Node9 -->
<g id="Node000009" class="node">
<title>Node9</title>
<g id="a_Node000009"><a xlink:href="structSubmission.html#a19ab1b3a6dc11bd0b8254be4cbc31d2d" target="_top" xlink:title="Checks if this submission covers the given domain.">
<polygon fill="white" stroke="#666666" points="954,-281 820,-281 820,-262 954,-262 954,-281"/>
<text text-anchor="middle" x="887" y="-269" font-family="Helvetica,sans-Serif" font-size="10.00">Submission::hasDomain</text>
</a>
</g>
</g>
<!-- Node8&#45;&gt;Node9 -->
<g id="edge8_Node000008_Node000009" class="edge">
<title>Node8&#45;&gt;Node9</title>
<g id="a_edge8_Node000008_Node000009"><a xlink:title=" ">
<path fill="none" stroke="#63b8ff" d="M741.59,-271.5C763.69,-271.5 787.58,-271.5 809.45,-271.5"/>
<polygon fill="#63b8ff" stroke="#63b8ff" points="809.67,-275 819.67,-271.5 809.67,-268 809.67,-275"/>
</a>
</g>
</g>
<!-- Node16&#45;&gt;Node7 -->
<g id="edge16_Node000016_Node000007" class="edge">
<title>Node16&#45;&gt;Node7</title>
<g id="a_edge16_Node000016_Node000007"><a xlink:title=" ">
<path fill="none" stroke="#63b8ff" d="M466.13,-375.16C489.53,-383.7 525.58,-395.66 558,-401.5 649.92,-418.05 758.44,-421.2 824.72,-421.33"/>
<polygon fill="#63b8ff" stroke="#63b8ff" points="824.99,-424.83 834.98,-421.32 824.98,-417.83 824.99,-424.83"/>
</a>
</g>
</g>
<!-- Node17&#45;&gt;Node7 -->
<g id="edge20_Node000017_Node000007" class="edge">
<title>Node17&#45;&gt;Node7</title>
<g id="a_edge20_Node000017_Node000007"><a xlink:title=" ">
<path fill="none" stroke="#63b8ff" d="M499.63,-454.78C564.03,-450.55 670.47,-443.09 762,-434.5 782.39,-432.59 804.63,-430.18 824.57,-427.9"/>
<polygon fill="#63b8ff" stroke="#63b8ff" points="825.23,-431.35 834.76,-426.72 824.43,-424.39 825.23,-431.35"/>
</a>
</g>
</g>
<!-- Node18 -->
<g id="Node000018" class="node">
<title>Node18</title>
<g id="a_Node000018"><a xlink:href="classGraph.html#a348391db529c20a826a1483fe7bdcb9a" target="_top" xlink:title="BFS on the residual graph to find the shortest augmenting path.">
<polygon fill="white" stroke="#666666" points="693.5,-506 626.5,-506 626.5,-487 693.5,-487 693.5,-506"/>
<text text-anchor="middle" x="660" y="-494" font-family="Helvetica,sans-Serif" font-size="10.00">Graph::bfs</text>
</a>
</g>
</g>
<!-- Node17&#45;&gt;Node18 -->
<g id="edge18_Node000017_Node000018" class="edge">
<title>Node17&#45;&gt;Node18</title>
<g id="a_edge18_Node000017_Node000018"><a xlink:title=" ">
<path fill="none" stroke="#63b8ff" d="M495.73,-468.04C532.99,-474.54 581.61,-483.01 616.08,-489.02"/>
<polygon fill="#63b8ff" stroke="#63b8ff" points="615.84,-492.53 626.29,-490.8 617.04,-485.63 615.84,-492.53"/>
</a>
</g>
</g>
<!-- Node19 -->
<g id="Node000019" class="node">
<title>Node19</title>
<g id="a_Node000019"><a xlink:href="structEdge.html#a0b45154adf516897233895a25fad355e" target="_top" xlink:title="Residual capacity of this edge.">
<polygon fill="white" stroke="#666666" points="930,-506 844,-506 844,-487 930,-487 930,-506"/>
<text text-anchor="middle" x="887" y="-494" font-family="Helvetica,sans-Serif" font-size="10.00">Edge::residual</text>
</a>
</g>
</g>
<!-- Node18&#45;&gt;Node19 -->
<g id="edge19_Node000018_Node000019" class="edge">
<title>Node18&#45;&gt;Node19</title>
<g id="a_edge19_Node000018_Node000019"><a xlink:title=" ">
<path fill="none" stroke="#63b8ff" d="M693.72,-496.5C730.39,-496.5 790.36,-496.5 833.59,-496.5"/>
<polygon fill="#63b8ff" stroke="#63b8ff" points="833.64,-500 843.64,-496.5 833.64,-493 833.64,-500"/>
</a>
</g>
</g>
<!-- Node20&#45;&gt;Node12 -->
<g id="edge27_Node000020_Node000012" class="edge">
<title>Node20&#45;&gt;Node12</title>
<g id="a_edge27_Node000020_Node000012"><a xlink:title=" ">
<path fill="none" stroke="#63b8ff" d="M497.14,-93.03C526.27,-97.97 562.04,-104.04 592.55,-109.22"/>
<polygon fill="#63b8ff" stroke="#63b8ff" points="592.23,-112.72 602.67,-110.94 593.4,-105.82 592.23,-112.72"/>
</a>
</g>
</g>
<!-- Node21 -->
<g id="Node000021" class="node">
<title>Node21</title>
<g id="a_Node000021"><a xlink:href="classSolver.html#a0a32ae51c07e104de80b39cceaaf325f" target="_top" xlink:title="Determines which domain code caused the match between a reviewer and submission.">
<polygon fill="white" stroke="#666666" points="736,-93 584,-93 584,-74 736,-74 736,-93"/>
<text text-anchor="middle" x="660" y="-81" font-family="Helvetica,sans-Serif" font-size="10.00">Solver::findMatchedDomain</text>
</a>
</g>
</g>
<!-- Node20&#45;&gt;Node21 -->
<g id="edge22_Node000020_Node000021" class="edge">
<title>Node20&#45;&gt;Node21</title>
<g id="a_edge22_Node000020_Node000021"><a xlink:title=" ">
<path fill="none" stroke="#63b8ff" d="M499.71,-83.5C522.43,-83.5 548.89,-83.5 573.63,-83.5"/>
<polygon fill="#63b8ff" stroke="#63b8ff" points="573.75,-87 583.75,-83.5 573.75,-80 573.75,-87"/>
</a>
</g>
</g>
<!-- Node22 -->
<g id="Node000022" class="node">
<title>Node22</title>
<g id="a_Node000022"><a xlink:href="classGraph.html#af5f263b25175df3f5511ff5ede0a63aa" target="_top" xlink:title="Returns the adjacency list of a given node (const).">
<polygon fill="white" stroke="#666666" points="701.5,-56 618.5,-56 618.5,-37 701.5,-37 701.5,-56"/>
<text text-anchor="middle" x="660" y="-44" font-family="Helvetica,sans-Serif" font-size="10.00">Graph::getAdj</text>
</a>
</g>
</g>
<!-- Node20&#45;&gt;Node22 -->
<g id="edge25_Node000020_Node000022" class="edge">
<title>Node20&#45;&gt;Node22</title>
<g id="a_edge25_Node000020_Node000022"><a xlink:title=" ">
<path fill="none" stroke="#63b8ff" d="M497.14,-73.97C531.44,-68.15 574.95,-60.77 608.22,-55.12"/>
<polygon fill="#63b8ff" stroke="#63b8ff" points="608.92,-58.55 618.2,-53.43 607.75,-51.65 608.92,-58.55"/>
</a>
</g>
</g>
<!-- Node23 -->
<g id="Node000023" class="node">
<title>Node23</title>
<g id="a_Node000023"><a xlink:href="classNetworkBuilder.html#a4efdb0e13d73f6f3cbf38b4cd11a5ef3" target="_top" xlink:title="Inverse: given a graph node ID, returns the submission vector index.">
<polygon fill="white" stroke="#666666" points="762,-19 558,-19 558,0 762,0 762,-19"/>
<text text-anchor="middle" x="660" y="-7" font-family="Helvetica,sans-Serif" font-size="10.00">NetworkBuilder::nodeToSubmissionIdx</text>
</a>
</g>
</g>
<!-- Node20&#45;&gt;Node23 -->
<g id="edge26_Node000020_Node000023" class="edge">
<title>Node20&#45;&gt;Node23</title>
<g id="a_edge26_Node000020_Node000023"><a xlink:title=" ">
<path fill="none" stroke="#63b8ff" d="M457.46,-73.86C479.59,-61.31 520.49,-39.57 558,-27.5 565.39,-25.12 573.19,-23.03 581.05,-21.2"/>
<polygon fill="#63b8ff" stroke="#63b8ff" points="581.99,-24.58 591.01,-19.02 580.5,-17.74 581.99,-24.58"/>
</a>
</g>
</g>
<!-- Node21&#45;&gt;Node14 -->
<g id="edge23_Node000021_Node000014" class="edge">
<title>Node21&#45;&gt;Node14</title>
<g id="a_edge23_Node000021_Node000014"><a xlink:title=" ">
<path fill="none" stroke="#63b8ff" d="M736.25,-89.71C745.38,-92.5 754.22,-96.31 762,-101.5 786.62,-117.91 776.34,-137.34 798,-157.5 813.59,-172 834.37,-183.61 851.83,-191.77"/>
<polygon fill="#63b8ff" stroke="#63b8ff" points="850.58,-195.04 861.13,-195.95 853.45,-188.66 850.58,-195.04"/>
</a>
</g>
</g>
<!-- Node21&#45;&gt;Node15 -->
<g id="edge24_Node000021_Node000015" class="edge">
<title>Node21&#45;&gt;Node15</title>
<g id="a_edge24_Node000021_Node000015"><a xlink:title=" ">
<path fill="none" stroke="#63b8ff" d="M721.33,-93.02C734.78,-95.48 748.93,-98.34 762,-101.5 791.43,-108.6 824.16,-118.73 848.6,-126.74"/>
<polygon fill="#63b8ff" stroke="#63b8ff" points="847.6,-130.1 858.2,-129.92 849.8,-123.46 847.6,-130.1"/>
</a>
</g>
</g>
</g>
</svg>
