<?xml version="1.0" encoding="UTF-8" standalone="no"?>
<!DOCTYPE svg PUBLIC "-//W3C//DTD SVG 1.1//EN"
 "http://www.w3.org/Graphics/SVG/1.1/DTD/svg11.dtd">
<!-- Generated by graphviz version 2.43.0 (0)
 -->
<!-- Title: test_secondary_domains Pages: 1 -->
<svg width="901pt" height="422pt"
 viewBox="0.00 0.00 901.00 421.54" xmlns="http://www.w3.org/2000/svg" xmlns:xlink="http://www.w3.org/1999/xlink">
<g id="graph0" class="graph" transform="scale(1 1) rotate(0) translate(4 417.54)">
<title>test_secondary_domains</title>
<!-- Node1 -->
<g id="Node000001" class="node">
<title>Node1</title>
<g id="a_Node000001"><a xlink:title=" ">
<polygon fill="#999999" stroke="#666666" points="138,-227 0,-227 0,-208 138,-208 138,-227"/>
<text text-anchor="middle" x="69" y="-215" font-family="Helvetica,sans-Serif" font-size="10.00">test_secondary_domains</text>
</a>
</g>
</g>
<!-- Node2 -->
<g id="Node000002" class="node">
<title>Node2</title>
<g id="a_Node000002"><a xlink:href="classParser.html#a5a2a7fa051b2dce0c67484fcb141d913" target="_top" xlink:title="Parses the input file and returns a fully populated ProblemData.">
<polygon fill="white" stroke="#666666" points="303,-264 223,-264 223,-245 303,-245 303,-264"/>
<text text-anchor="middle" x="263" y="-252" font-family="Helvetica,sans-Serif" font-size="10.00">Parser::parse</text>
</a>
</g>
</g>
<!-- Node1&#45;&gt;Node2 -->
<g id="edge1_Node000001_Node000002" class="edge">
<title>Node1&#45;&gt;Node2</title>
<g id="a_edge1_Node000001_Node000002"><a xlink:title=" ">
<path fill="none" stroke="#63b8ff" d="M119.44,-227.03C148.04,-232.54 183.92,-239.45 212.52,-244.96"/>
<polygon fill="#63b8ff" stroke="#63b8ff" points="212.22,-248.47 222.7,-246.93 213.55,-241.6 212.22,-248.47"/>
</a>
</g>
</g>
<!-- Node16 -->
<g id="Node000016" class="node">
<title>Node16</title>
<g id="a_Node000016"><a xlink:href="structConfig.html#a89db87ddce24e353ccabde8d0dc70ade" target="_top" xlink:title="Determines if reviewer secondary expertise should be used in matching.">
<polygon fill="white" stroke="#666666" points="346.5,-227 179.5,-227 179.5,-208 346.5,-208 346.5,-227"/>
<text text-anchor="middle" x="263" y="-215" font-family="Helvetica,sans-Serif" font-size="10.00">Config::useReviewerSecondary</text>
</a>
</g>
</g>
<!-- Node1&#45;&gt;Node16 -->
<g id="edge26_Node000001_Node000016" class="edge">
<title>Node1&#45;&gt;Node16</title>
<g id="a_edge26_Node000001_Node000016"><a xlink:title=" ">
<path fill="none" stroke="#63b8ff" d="M138.23,-217.5C148.18,-217.5 158.55,-217.5 168.89,-217.5"/>
<polygon fill="#63b8ff" stroke="#63b8ff" points="169.19,-221 179.19,-217.5 169.19,-214 169.19,-221"/>
</a>
</g>
</g>
<!-- Node17 -->
<g id="Node000017" class="node">
<title>Node17</title>
<g id="a_Node000017"><a xlink:href="structConfig.html#a936e7b5bd16f50374b648f00465f1a32" target="_top" xlink:title="Determines if submission secondary domains should be used in matching.">
<polygon fill="white" stroke="#666666" points="352,-190 174,-190 174,-171 352,-171 352,-190"/>
<text text-anchor="middle" x="263" y="-178" font-family="Helvetica,sans-Serif" font-size="10.00">Config::useSubmissionSecondary</text>
</a>
</g>
</g>
<!-- Node1&#45;&gt;Node17 -->
<g id="edge27_Node000001_Node000017" class="edge">
<title>Node1&#45;&gt;Node17</title>
<g id="a_edge27_Node000001_Node000017"><a xlink:title=" ">
<path fill="none" stroke="#63b8ff" d="M119.44,-207.97C144.77,-203.09 175.79,-197.11 202.42,-191.98"/>
<polygon fill="#63b8ff" stroke="#63b8ff" points="203.23,-195.39 212.39,-190.06 201.91,-188.52 203.23,-195.39"/>
</a>
</g>
</g>
<!-- Node3 -->
<g id="Node000003" class="node">
<title>Node3</title>
<g id="a_Node000003"><a xlink:href="classParser.html#abe415229c2daa3f3ba4efd44661bd703" target="_top" xlink:title="Parses a control line: &quot;KeyName, value&quot;.">
<polygon fill="white" stroke="#666666" points="533.5,-321 398.5,-321 398.5,-302 533.5,-302 533.5,-321"/>
<text text-anchor="middle" x="466" y="-309" font-family="Helvetica,sans-Serif" font-size="10.00">Parser::parseControlLine</text>
</a>
</g>
</g>
<!-- Node2&#45;&gt;Node3 -->
<g id="edge2_Node000002_Node000003" class="edge">
<title>Node2&#45;&gt;Node3</title>
<g id="a_edge2_Node000002_Node000003"><a xlink:title=" ">
<path fill="none" stroke="#63b8ff" d="M297.64,-264.04C331.56,-273.66 384.06,-288.55 421.21,-299.08"/>
<polygon fill="#63b8ff" stroke="#63b8ff" points="420.67,-302.57 431.25,-301.93 422.58,-295.83 420.67,-302.57"/>
</a>
</g>
</g>
<!-- Node6 -->
<g id="Node000006" class="node">
<title>Node6</title>
<g id="a_Node000006"><a xlink:href="classParser.html#a113f0dfba3013e3dade8b717063ad8a0" target="_top" xlink:title="Trims leading and trailing whitespace from a string.">
<polygon fill="white" stroke="#666666" points="871.5,-396 798.5,-396 798.5,-377 871.5,-377 871.5,-396"/>
<text text-anchor="middle" x="835" y="-384" font-family="Helvetica,sans-Serif" font-size="10.00">Parser::trim</text>
</a>
</g>
</g>
<!-- Node2&#45;&gt;Node6 -->
<g id="edge25_Node000002_Node000006" class="edge">
<title>Node2&#45;&gt;Node6</title>
<g id="a_edge25_Node000002_Node000006"><a xlink:title=" ">
<path fill="none" stroke="#63b8ff" d="M277.27,-264.03C319.12,-293.33 453.03,-381.58 580,-405.5 650.32,-418.75 669.81,-412.7 741,-405.5 756.59,-403.92 773.42,-400.9 788.43,-397.72"/>
<polygon fill="#63b8ff" stroke="#63b8ff" points="789.47,-401.07 798.49,-395.51 787.97,-394.23 789.47,-401.07"/>
</a>
</g>
</g>
<!-- Node8 -->
<g id="Node000008" class="node">
<title>Node8</title>
<g id="a_Node000008"><a xlink:href="classParser.html#a381845570bc3e8444268d1f0165e5c18" target="_top" xlink:title="Converts a string to lowercase (for case&#45;insensitive comparison).">
<polygon fill="white" stroke="#666666" points="706.5,-283 614.5,-283 614.5,-264 706.5,-264 706.5,-283"/>
<text text-anchor="middle" x="660.5" y="-271" font-family="Helvetica,sans-Serif" font-size="10.00">Parser::toLower</text>
</a>
</g>
</g>
<!-- Node2&#45;&gt;Node8 -->
<g id="edge24_Node000002_Node000008" class="edge">
<title>Node2&#45;&gt;Node8</title>
<g id="a_edge24_Node000002_Node000008"><a xlink:title=" ">
<path fill="none" stroke="#63b8ff" d="M303,-256.37C373.74,-259.77 523.35,-266.96 604.45,-270.86"/>
<polygon fill="#63b8ff" stroke="#63b8ff" points="604.32,-274.35 614.47,-271.34 604.65,-267.36 604.32,-274.35"/>
</a>
</g>
</g>
<!-- Node10 -->
<g id="Node000010" class="node">
<title>Node10</title>
<g id="a_Node000010"><a xlink:href="classParser.html#a49fdbc3e3b2c220e042d77ea0568bdba" target="_top" xlink:title="Parses a parameter line: &quot;KeyName, value&quot;.">
<polygon fill="white" stroke="#666666" points="541,-245 391,-245 391,-226 541,-226 541,-245"/>
<text text-anchor="middle" x="466" y="-233" font-family="Helvetica,sans-Serif" font-size="10.00">Parser::parseParameterLine</text>
</a>
</g>
</g>
<!-- Node2&#45;&gt;Node10 -->
<g id="edge10_Node000002_Node000010" class="edge">
<title>Node2&#45;&gt;Node10</title>
<g id="a_edge10_Node000002_Node000010"><a xlink:title=" ">
<path fill="none" stroke="#63b8ff" d="M303.23,-250.79C325.32,-248.7 353.78,-246.01 380.67,-243.47"/>
<polygon fill="#63b8ff" stroke="#63b8ff" points="381.25,-246.93 390.88,-242.51 380.59,-239.96 381.25,-246.93"/>
</a>
</g>
</g>
<!-- Node12 -->
<g id="Node000012" class="node">
<title>Node12</title>
<g id="a_Node000012"><a xlink:href="classParser.html#a8b52e53cfc75a57e18f03d925823fe2a" target="_top" xlink:title="Parses a single reviewer line.">
<polygon fill="white" stroke="#666666" points="539,-86 393,-86 393,-67 539,-67 539,-86"/>
<text text-anchor="middle" x="466" y="-74" font-family="Helvetica,sans-Serif" font-size="10.00">Parser::parseReviewerLine</text>
</a>
</g>
</g>
<!-- Node2&#45;&gt;Node12 -->
<g id="edge16_Node000002_Node000012" class="edge">
<title>Node2&#45;&gt;Node12</title>
<g id="a_edge16_Node000002_Node000012"><a xlink:title=" ">
<path fill="none" stroke="#63b8ff" d="M303.38,-254.32C319.95,-252.39 338.49,-247.56 352,-236.5 383.75,-210.51 364.85,-185.37 388,-151.5 403.69,-128.54 427.21,-106.9 444.12,-92.82"/>
<polygon fill="#63b8ff" stroke="#63b8ff" points="446.74,-95.2 452.29,-86.18 442.32,-89.77 446.74,-95.2"/>
</a>
</g>
</g>
<!-- Node14 -->
<g id="Node000014" class="node">
<title>Node14</title>
<g id="a_Node000014"><a xlink:href="classParser.html#ab15bc67b738ede92f26a5ead4c294bd3" target="_top" xlink:title="Parses a single submission line.">
<polygon fill="white" stroke="#666666" points="544,-180 388,-180 388,-161 544,-161 544,-180"/>
<text text-anchor="middle" x="466" y="-168" font-family="Helvetica,sans-Serif" font-size="10.00">Parser::parseSubmissionLine</text>
</a>
</g>
</g>
<!-- Node2&#45;&gt;Node14 -->
<g id="edge20_Node000002_Node000014" class="edge">
<title>Node2&#45;&gt;Node14</title>
<g id="a_edge20_Node000002_Node000014"><a xlink:title=" ">
<path fill="none" stroke="#63b8ff" d="M303.33,-249.28C318.82,-246.5 336.56,-242.4 352,-236.5 356.66,-234.72 408.13,-204.31 439.97,-185.39"/>
<polygon fill="#63b8ff" stroke="#63b8ff" points="441.96,-188.29 448.77,-180.17 438.38,-182.27 441.96,-188.29"/>
</a>
</g>
</g>
<!-- Node4 -->
<g id="Node000004" class="node">
<title>Node4</title>
<g id="a_Node000004"><a xlink:href="classParser.html#a54de14fb280b60a07adfbf68c508b767" target="_top" xlink:title="Parses a trimmed token as an integer with error context.">
<polygon fill="white" stroke="#666666" points="893,-171 777,-171 777,-152 893,-152 893,-171"/>
<text text-anchor="middle" x="835" y="-159" font-family="Helvetica,sans-Serif" font-size="10.00">Parser::parseIntField</text>
</a>
</g>
</g>
<!-- Node3&#45;&gt;Node4 -->
<g id="edge3_Node000003_Node000004" class="edge">
<title>Node3&#45;&gt;Node4</title>
<g id="a_edge3_Node000003_Node000004"><a xlink:title=" ">
<path fill="none" stroke="#63b8ff" d="M523.72,-321.02C582.09,-327.88 673.74,-330.24 741,-292.5 785.82,-267.35 814.3,-210.53 826.74,-180.67"/>
<polygon fill="#63b8ff" stroke="#63b8ff" points="830.02,-181.91 830.48,-171.32 823.52,-179.31 830.02,-181.91"/>
</a>
</g>
</g>
<!-- Node5 -->
<g id="Node000005" class="node">
<title>Node5</title>
<g id="a_Node000005"><a xlink:href="classParser.html#aacf502fa084a101374bda3681e0d23bb" target="_top" xlink:title="Splits a CSV line by commas, respecting double&#45;quoted fields.">
<polygon fill="white" stroke="#666666" points="707,-209 614,-209 614,-190 707,-190 707,-209"/>
<text text-anchor="middle" x="660.5" y="-197" font-family="Helvetica,sans-Serif" font-size="10.00">Parser::splitCSV</text>
</a>
</g>
</g>
<!-- Node3&#45;&gt;Node5 -->
<g id="edge4_Node000003_Node000005" class="edge">
<title>Node3&#45;&gt;Node5</title>
<g id="a_edge4_Node000003_Node000005"><a xlink:title=" ">
<path fill="none" stroke="#63b8ff" d="M481.44,-301.86C497.32,-291.02 523.33,-272.56 544,-254.5 561.28,-239.4 559.99,-228.72 580,-217.5 587.36,-213.37 595.61,-210.19 603.94,-207.74"/>
<polygon fill="#63b8ff" stroke="#63b8ff" points="604.9,-211.1 613.69,-205.18 603.13,-204.33 604.9,-211.1"/>
</a>
</g>
</g>
<!-- Node7 -->
<g id="Node000007" class="node">
<title>Node7</title>
<g id="a_Node000007"><a xlink:href="classParser.html#a52df5c3f8fc72a8a486ae35a61d764d1" target="_top" xlink:title="Removes surrounding double quotes from a string value.">
<polygon fill="white" stroke="#666666" points="715,-396 606,-396 606,-377 715,-377 715,-396"/>
<text text-anchor="middle" x="660.5" y="-384" font-family="Helvetica,sans-Serif" font-size="10.00">Parser::stripQuotes</text>
</a>
</g>
</g>
<!-- Node3&#45;&gt;Node7 -->
<g id="edge6_Node000003_Node000007" class="edge">
<title>Node3&#45;&gt;Node7</title>
<g id="a_edge6_Node000003_Node000007"><a xlink:title=" ">
<path fill="none" stroke="#63b8ff" d="M482.91,-321.1C504.3,-333.64 543.81,-355.5 580,-368.5 585.94,-370.64 592.23,-372.57 598.56,-374.32"/>
<polygon fill="#63b8ff" stroke="#63b8ff" points="597.94,-377.77 608.5,-376.9 599.7,-371 597.94,-377.77"/>
</a>
</g>
</g>
<!-- Node3&#45;&gt;Node8 -->
<g id="edge8_Node000003_Node000008" class="edge">
<title>Node3&#45;&gt;Node8</title>
<g id="a_edge8_Node000003_Node000008"><a xlink:title=" ">
<path fill="none" stroke="#63b8ff" d="M515.58,-301.91C542.56,-296.58 576.23,-289.94 604.21,-284.41"/>
<polygon fill="#63b8ff" stroke="#63b8ff" points="605.11,-287.8 614.25,-282.43 603.76,-280.94 605.11,-287.8"/>
</a>
</g>
</g>
<!-- Node9 -->
<g id="Node000009" class="node">
<title>Node9</title>
<g id="a_Node000009"><a xlink:href="domain_8h.html#a0e806904288551ac6c43e2d413164657" target="_top" xlink:title="Converts an integer from the input file to a MatchMode.">
<polygon fill="white" stroke="#666666" points="702,-359 619,-359 619,-340 702,-340 702,-359"/>
<text text-anchor="middle" x="660.5" y="-347" font-family="Helvetica,sans-Serif" font-size="10.00">toMatchMode</text>
</a>
</g>
</g>
<!-- Node3&#45;&gt;Node9 -->
<g id="edge9_Node000003_Node000009" class="edge">
<title>Node3&#45;&gt;Node9</title>
<g id="a_edge9_Node000003_Node000009"><a xlink:title=" ">
<path fill="none" stroke="#63b8ff" d="M515.58,-321.09C544.07,-326.71 580.02,-333.81 608.87,-339.5"/>
<polygon fill="#63b8ff" stroke="#63b8ff" points="608.26,-342.95 618.75,-341.46 609.62,-336.09 608.26,-342.95"/>
</a>
</g>
</g>
<!-- Node5&#45;&gt;Node6 -->
<g id="edge5_Node000005_Node000006" class="edge">
<title>Node5&#45;&gt;Node6</title>
<g id="a_edge5_Node000005_Node000006"><a xlink:title=" ">
<path fill="none" stroke="#63b8ff" d="M707.25,-203.09C719.11,-205.75 731.28,-210.18 741,-217.5 792.17,-256.01 818.78,-331.28 828.98,-366.91"/>
<polygon fill="#63b8ff" stroke="#63b8ff" points="825.61,-367.88 831.62,-376.61 832.37,-366.04 825.61,-367.88"/>
</a>
</g>
</g>
<!-- Node7&#45;&gt;Node6 -->
<g id="edge7_Node000007_Node000006" class="edge">
<title>Node7&#45;&gt;Node6</title>
<g id="a_edge7_Node000007_Node000006"><a xlink:title=" ">
<path fill="none" stroke="#63b8ff" d="M715.13,-386.5C738.53,-386.5 765.68,-386.5 788.12,-386.5"/>
<polygon fill="#63b8ff" stroke="#63b8ff" points="788.39,-390 798.39,-386.5 788.39,-383 788.39,-390"/>
</a>
</g>
</g>
<!-- Node10&#45;&gt;Node4 -->
<g id="edge13_Node000010_Node000004" class="edge">
<title>Node10&#45;&gt;Node4</title>
<g id="a_edge13_Node000010_Node000004"><a xlink:title=" ">
<path fill="none" stroke="#63b8ff" d="M481.99,-225.9C502.97,-213.01 542.72,-190.57 580,-180.5 641.83,-163.8 715.01,-159.91 766.9,-159.69"/>
<polygon fill="#63b8ff" stroke="#63b8ff" points="766.98,-163.19 776.98,-159.69 766.98,-156.19 766.98,-163.19"/>
</a>
</g>
</g>
<!-- Node10&#45;&gt;Node5 -->
<g id="edge14_Node000010_Node000005" class="edge">
<title>Node10&#45;&gt;Node5</title>
<g id="a_edge14_Node000010_Node000005"><a xlink:title=" ">
<path fill="none" stroke="#63b8ff" d="M517.83,-225.99C544.3,-221.04 576.72,-214.98 603.86,-209.91"/>
<polygon fill="#63b8ff" stroke="#63b8ff" points="604.79,-213.29 613.98,-208.01 603.51,-206.41 604.79,-213.29"/>
</a>
</g>
</g>
<!-- Node10&#45;&gt;Node8 -->
<g id="edge15_Node000010_Node000008" class="edge">
<title>Node10&#45;&gt;Node8</title>
<g id="a_edge15_Node000010_Node000008"><a xlink:title=" ">
<path fill="none" stroke="#63b8ff" d="M515.58,-245.09C542.56,-250.42 576.23,-257.06 604.21,-262.59"/>
<polygon fill="#63b8ff" stroke="#63b8ff" points="603.76,-266.06 614.25,-264.57 605.11,-259.2 603.76,-266.06"/>
</a>
</g>
</g>
<!-- Node11 -->
<g id="Node000011" class="node">
<title>Node11</title>
<g id="a_Node000011"><a xlink:href="classParser.html#ac9cbf2eac7c906d2da2d95b9c16cc02e" target="_top" xlink:title="Parses a trimmed token as a boolean (0 or 1).">
<polygon fill="white" stroke="#666666" points="723,-246 598,-246 598,-227 723,-227 723,-246"/>
<text text-anchor="middle" x="660.5" y="-234" font-family="Helvetica,sans-Serif" font-size="10.00">Parser::parseBoolField</text>
</a>
</g>
</g>
<!-- Node10&#45;&gt;Node11 -->
<g id="edge11_Node000010_Node000011" class="edge">
<title>Node10&#45;&gt;Node11</title>
<g id="a_edge11_Node000010_Node000011"><a xlink:title=" ">
<path fill="none" stroke="#63b8ff" d="M541.15,-235.89C556.38,-235.96 572.39,-236.05 587.55,-236.13"/>
<polygon fill="#63b8ff" stroke="#63b8ff" points="587.86,-239.63 597.88,-236.18 587.9,-232.63 587.86,-239.63"/>
</a>
</g>
</g>
<!-- Node11&#45;&gt;Node4 -->
<g id="edge12_Node000011_Node000004" class="edge">
<title>Node11&#45;&gt;Node4</title>
<g id="a_edge12_Node000011_Node000004"><a xlink:title=" ">
<path fill="none" stroke="#63b8ff" d="M711.86,-226.94C721.7,-224.39 731.81,-221.26 741,-217.5 767,-206.87 794.24,-189.64 812.47,-177.09"/>
<polygon fill="#63b8ff" stroke="#63b8ff" points="814.95,-179.63 821.13,-171.02 810.93,-173.9 814.95,-179.63"/>
</a>
</g>
</g>
<!-- Node12&#45;&gt;Node4 -->
<g id="edge18_Node000012_Node000004" class="edge">
<title>Node12&#45;&gt;Node4</title>
<g id="a_edge18_Node000012_Node000004"><a xlink:title=" ">
<path fill="none" stroke="#63b8ff" d="M498.95,-66.97C551.72,-53.01 659.38,-32.18 741,-66.5 778.03,-82.07 807.69,-120.37 822.89,-143.3"/>
<polygon fill="#63b8ff" stroke="#63b8ff" points="819.99,-145.27 828.33,-151.81 825.89,-141.5 819.99,-145.27"/>
</a>
</g>
</g>
<!-- Node12&#45;&gt;Node5 -->
<g id="edge19_Node000012_Node000005" class="edge">
<title>Node12&#45;&gt;Node5</title>
<g id="a_edge19_Node000012_Node000005"><a xlink:title=" ">
<path fill="none" stroke="#63b8ff" d="M482.11,-86.15C515.49,-107.48 595.76,-158.77 635.87,-184.4"/>
<polygon fill="#63b8ff" stroke="#63b8ff" points="634.15,-187.46 644.47,-189.89 637.92,-181.56 634.15,-187.46"/>
</a>
</g>
</g>
<!-- Node13 -->
<g id="Node000013" class="node">
<title>Node13</title>
<g id="a_Node000013"><a xlink:href="structProblemData.html#a9f9c5ab24ac824b060f3cdb7bbd764bf" target="_top" xlink:title="Adds a reviewer with duplicate&#45;ID detection.">
<polygon fill="white" stroke="#666666" points="735.5,-19 585.5,-19 585.5,0 735.5,0 735.5,-19"/>
<text text-anchor="middle" x="660.5" y="-7" font-family="Helvetica,sans-Serif" font-size="10.00">ProblemData::addReviewer</text>
</a>
</g>
</g>
<!-- Node12&#45;&gt;Node13 -->
<g id="edge17_Node000012_Node000013" class="edge">
<title>Node12&#45;&gt;Node13</title>
<g id="a_edge17_Node000012_Node000013"><a xlink:title=" ">
<path fill="none" stroke="#63b8ff" d="M490.63,-66.95C513.37,-57.89 548.81,-44.13 580,-33.5 591.73,-29.5 604.54,-25.49 616.39,-21.91"/>
<polygon fill="#63b8ff" stroke="#63b8ff" points="617.49,-25.24 626.07,-19.02 615.49,-18.53 617.49,-25.24"/>
</a>
</g>
</g>
<!-- Node14&#45;&gt;Node4 -->
<g id="edge22_Node000014_Node000004" class="edge">
<title>Node14&#45;&gt;Node4</title>
<g id="a_edge22_Node000014_Node000004"><a xlink:title=" ">
<path fill="none" stroke="#63b8ff" d="M504.12,-160.99C526.03,-155.86 554.4,-150.08 580,-147.5 651.2,-140.33 669.64,-142.16 741,-147.5 750.43,-148.21 760.34,-149.31 770.05,-150.59"/>
<polygon fill="#63b8ff" stroke="#63b8ff" points="769.67,-154.07 780.06,-151.99 770.64,-147.14 769.67,-154.07"/>
</a>
</g>
</g>
<!-- Node14&#45;&gt;Node5 -->
<g id="edge23_Node000014_Node000005" class="edge">
<title>Node14&#45;&gt;Node5</title>
<g id="a_edge23_Node000014_Node000005"><a xlink:title=" ">
<path fill="none" stroke="#63b8ff" d="M530.3,-180.04C554.07,-183.62 580.88,-187.66 603.9,-191.12"/>
<polygon fill="#63b8ff" stroke="#63b8ff" points="603.44,-194.59 613.85,-192.62 604.48,-187.67 603.44,-194.59"/>
</a>
</g>
</g>
<!-- Node15 -->
<g id="Node000015" class="node">
<title>Node15</title>
<g id="a_Node000015"><a xlink:href="structProblemData.html#a849ef6ded60771bec2a5e1b6faf0545c" target="_top" xlink:title="Adds a submission with duplicate&#45;ID detection.">
<polygon fill="white" stroke="#666666" points="741,-95 580,-95 580,-76 741,-76 741,-95"/>
<text text-anchor="middle" x="660.5" y="-83" font-family="Helvetica,sans-Serif" font-size="10.00">ProblemData::addSubmission</text>
</a>
</g>
</g>
<!-- Node14&#45;&gt;Node15 -->
<g id="edge21_Node000014_Node000015" class="edge">
<title>Node14&#45;&gt;Node15</title>
<g id="a_edge21_Node000014_Node000015"><a xlink:title=" ">
<path fill="none" stroke="#63b8ff" d="M482.23,-160.99C503.49,-148.01 543.56,-124.65 580,-109.5 590.29,-105.22 601.62,-101.33 612.42,-98"/>
<polygon fill="#63b8ff" stroke="#63b8ff" points="613.57,-101.31 622.15,-95.09 611.56,-94.6 613.57,-101.31"/>
</a>
</g>
</g>
</g>
</svg>
