<?xml version="1.0" encoding="UTF-8" standalone="no"?>
<!DOCTYPE svg PUBLIC "-//W3C//DTD SVG 1.1//EN"
 "http://www.w3.org/Graphics/SVG/1.1/DTD/svg11.dtd">
<!-- Generated by graphviz version 2.43.0 (0)
 -->
<!-- Title: test_error_negative_id Pages: 1 -->
<svg width="791pt" height="422pt"
 viewBox="0.00 0.00 791.00 421.54" xmlns="http://www.w3.org/2000/svg" xmlns:xlink="http://www.w3.org/1999/xlink">
<g id="graph0" class="graph" transform="scale(1 1) rotate(0) translate(4 417.54)">
<title>test_error_negative_id</title>
<!-- Node1 -->
<g id="Node000001" class="node">
<title>Node1</title>
<g id="a_Node000001"><a xlink:title=" ">
<polygon fill="#999999" stroke="#666666" points="126,-264 0,-264 0,-245 126,-245 126,-264"/>
<text text-anchor="middle" x="63" y="-252" font-family="Helvetica,sans-Serif" font-size="10.00">test_error_negative_id</text>
</a>
</g>
</g>
<!-- Node2 -->
<g id="Node000002" class="node">
<title>Node2</title>
<g id="a_Node000002"><a xlink:href="classParser.html#a5a2a7fa051b2dce0c67484fcb141d913" target="_top" xlink:title="Parses the input file and returns a fully populated ProblemData.">
<polygon fill="white" stroke="#666666" points="242,-264 162,-264 162,-245 242,-245 242,-264"/>
<text text-anchor="middle" x="202" y="-252" font-family="Helvetica,sans-Serif" font-size="10.00">Parser::parse</text>
</a>
</g>
</g>
<!-- Node1&#45;&gt;Node2 -->
<g id="edge1_Node000001_Node000002" class="edge">
<title>Node1&#45;&gt;Node2</title>
<g id="a_edge1_Node000001_Node000002"><a xlink:title=" ">
<path fill="none" stroke="#63b8ff" d="M126.09,-254.5C134.65,-254.5 143.35,-254.5 151.64,-254.5"/>
<polygon fill="#63b8ff" stroke="#63b8ff" points="151.88,-258 161.88,-254.5 151.88,-251 151.88,-258"/>
</a>
</g>
</g>
<!-- Node3 -->
<g id="Node000003" class="node">
<title>Node3</title>
<g id="a_Node000003"><a xlink:href="classParser.html#abe415229c2daa3f3ba4efd44661bd703" target="_top" xlink:title="Parses a control line: &quot;KeyName, value&quot;.">
<polygon fill="white" stroke="#666666" points="423.5,-321 288.5,-321 288.5,-302 423.5,-302 423.5,-321"/>
<text text-anchor="middle" x="356" y="-309" font-family="Helvetica,sans-Serif" font-size="10.00">Parser::parseControlLine</text>
</a>
</g>
</g>
<!-- Node2&#45;&gt;Node3 -->
<g id="edge2_Node000002_Node000003" class="edge">
<title>Node2&#45;&gt;Node3</title>
<g id="a_edge2_Node000002_Node000003"><a xlink:title=" ">
<path fill="none" stroke="#63b8ff" d="M223.12,-264.09C238.08,-271.04 259.08,-280.42 278,-287.5 288.74,-291.52 300.49,-295.43 311.51,-298.88"/>
<polygon fill="#63b8ff" stroke="#63b8ff" points="310.78,-302.32 321.37,-301.91 312.84,-295.63 310.78,-302.32"/>
</a>
</g>
</g>
<!-- Node6 -->
<g id="Node000006" class="node">
<title>Node6</title>
<g id="a_Node000006"><a xlink:href="classParser.html#a113f0dfba3013e3dade8b717063ad8a0" target="_top" xlink:title="Trims leading and trailing whitespace from a string.">
<polygon fill="white" stroke="#666666" points="761.5,-396 688.5,-396 688.5,-377 761.5,-377 761.5,-396"/>
<text text-anchor="middle" x="725" y="-384" font-family="Helvetica,sans-Serif" font-size="10.00">Parser::trim</text>
</a>
</g>
</g>
<!-- Node2&#45;&gt;Node6 -->
<g id="edge25_Node000002_Node000006" class="edge">
<title>Node2&#45;&gt;Node6</title>
<g id="a_edge25_Node000002_Node000006"><a xlink:title=" ">
<path fill="none" stroke="#63b8ff" d="M210.3,-264.19C222.66,-280.01 249.2,-311.54 278,-330.5 354.52,-380.88 379.97,-388.54 470,-405.5 540.32,-418.75 559.81,-412.7 631,-405.5 646.59,-403.92 663.42,-400.9 678.43,-397.72"/>
<polygon fill="#63b8ff" stroke="#63b8ff" points="679.47,-401.07 688.49,-395.51 677.97,-394.23 679.47,-401.07"/>
</a>
</g>
</g>
<!-- Node8 -->
<g id="Node000008" class="node">
<title>Node8</title>
<g id="a_Node000008"><a xlink:href="classParser.html#a381845570bc3e8444268d1f0165e5c18" target="_top" xlink:title="Converts a string to lowercase (for case&#45;insensitive comparison).">
<polygon fill="white" stroke="#666666" points="596.5,-283 504.5,-283 504.5,-264 596.5,-264 596.5,-283"/>
<text text-anchor="middle" x="550.5" y="-271" font-family="Helvetica,sans-Serif" font-size="10.00">Parser::toLower</text>
</a>
</g>
</g>
<!-- Node2&#45;&gt;Node8 -->
<g id="edge24_Node000002_Node000008" class="edge">
<title>Node2&#45;&gt;Node8</title>
<g id="a_edge24_Node000002_Node000008"><a xlink:title=" ">
<path fill="none" stroke="#63b8ff" d="M242.07,-256.64C303.73,-260.02 423.81,-266.61 494.26,-270.47"/>
<polygon fill="#63b8ff" stroke="#63b8ff" points="494.11,-273.97 504.28,-271.02 494.49,-266.98 494.11,-273.97"/>
</a>
</g>
</g>
<!-- Node10 -->
<g id="Node000010" class="node">
<title>Node10</title>
<g id="a_Node000010"><a xlink:href="classParser.html#a49fdbc3e3b2c220e042d77ea0568bdba" target="_top" xlink:title="Parses a parameter line: &quot;KeyName, value&quot;.">
<polygon fill="white" stroke="#666666" points="431,-245 281,-245 281,-226 431,-226 431,-245"/>
<text text-anchor="middle" x="356" y="-233" font-family="Helvetica,sans-Serif" font-size="10.00">Parser::parseParameterLine</text>
</a>
</g>
</g>
<!-- Node2&#45;&gt;Node10 -->
<g id="edge10_Node000002_Node000010" class="edge">
<title>Node2&#45;&gt;Node10</title>
<g id="a_edge10_Node000002_Node000010"><a xlink:title=" ">
<path fill="none" stroke="#63b8ff" d="M242.14,-249.61C251.05,-248.49 260.85,-247.27 270.83,-246.02"/>
<polygon fill="#63b8ff" stroke="#63b8ff" points="271.37,-249.48 280.86,-244.77 270.5,-242.54 271.37,-249.48"/>
</a>
</g>
</g>
<!-- Node12 -->
<g id="Node000012" class="node">
<title>Node12</title>
<g id="a_Node000012"><a xlink:href="classParser.html#a8b52e53cfc75a57e18f03d925823fe2a" target="_top" xlink:title="Parses a single reviewer line.">
<polygon fill="white" stroke="#666666" points="429,-86 283,-86 283,-67 429,-67 429,-86"/>
<text text-anchor="middle" x="356" y="-74" font-family="Helvetica,sans-Serif" font-size="10.00">Parser::parseReviewerLine</text>
</a>
</g>
</g>
<!-- Node2&#45;&gt;Node12 -->
<g id="edge16_Node000002_Node000012" class="edge">
<title>Node2&#45;&gt;Node12</title>
<g id="a_edge16_Node000002_Node000012"><a xlink:title=" ">
<path fill="none" stroke="#63b8ff" d="M209.31,-244.72C221.61,-225.92 250.04,-183.77 278,-151.5 296.52,-130.12 320.11,-107.77 336.26,-93.08"/>
<polygon fill="#63b8ff" stroke="#63b8ff" points="338.88,-95.44 343.97,-86.15 334.19,-90.24 338.88,-95.44"/>
</a>
</g>
</g>
<!-- Node14 -->
<g id="Node000014" class="node">
<title>Node14</title>
<g id="a_Node000014"><a xlink:href="classParser.html#ab15bc67b738ede92f26a5ead4c294bd3" target="_top" xlink:title="Parses a single submission line.">
<polygon fill="white" stroke="#666666" points="434,-180 278,-180 278,-161 434,-161 434,-180"/>
<text text-anchor="middle" x="356" y="-168" font-family="Helvetica,sans-Serif" font-size="10.00">Parser::parseSubmissionLine</text>
</a>
</g>
</g>
<!-- Node2&#45;&gt;Node14 -->
<g id="edge20_Node000002_Node000014" class="edge">
<title>Node2&#45;&gt;Node14</title>
<g id="a_edge20_Node000002_Node000014"><a xlink:title=" ">
<path fill="none" stroke="#63b8ff" d="M220.44,-244.86C247.01,-230.18 297.81,-202.1 328.83,-184.96"/>
<polygon fill="#63b8ff" stroke="#63b8ff" points="330.71,-187.92 337.77,-180.02 327.32,-181.8 330.71,-187.92"/>
</a>
</g>
</g>
<!-- Node4 -->
<g id="Node000004" class="node">
<title>Node4</title>
<g id="a_Node000004"><a xlink:href="classParser.html#a54de14fb280b60a07adfbf68c508b767" target="_top" xlink:title="Parses a trimmed token as an integer with error context.">
<polygon fill="white" stroke="#666666" points="783,-171 667,-171 667,-152 783,-152 783,-171"/>
<text text-anchor="middle" x="725" y="-159" font-family="Helvetica,sans-Serif" font-size="10.00">Parser::parseIntField</text>
</a>
</g>
</g>
<!-- Node3&#45;&gt;Node4 -->
<g id="edge3_Node000003_Node000004" class="edge">
<title>Node3&#45;&gt;Node4</title>
<g id="a_edge3_Node000003_Node000004"><a xlink:title=" ">
<path fill="none" stroke="#63b8ff" d="M413.72,-321.02C472.09,-327.88 563.74,-330.24 631,-292.5 675.82,-267.35 704.3,-210.53 716.74,-180.67"/>
<polygon fill="#63b8ff" stroke="#63b8ff" points="720.02,-181.91 720.48,-171.32 713.52,-179.31 720.02,-181.91"/>
</a>
</g>
</g>
<!-- Node5 -->
<g id="Node000005" class="node">
<title>Node5</title>
<g id="a_Node000005"><a xlink:href="classParser.html#aacf502fa084a101374bda3681e0d23bb" target="_top" xlink:title="Splits a CSV line by commas, respecting double&#45;quoted fields.">
<polygon fill="white" stroke="#666666" points="597,-209 504,-209 504,-190 597,-190 597,-209"/>
<text text-anchor="middle" x="550.5" y="-197" font-family="Helvetica,sans-Serif" font-size="10.00">Parser::splitCSV</text>
</a>
</g>
</g>
<!-- Node3&#45;&gt;Node5 -->
<g id="edge4_Node000003_Node000005" class="edge">
<title>Node3&#45;&gt;Node5</title>
<g id="a_edge4_Node000003_Node000005"><a xlink:title=" ">
<path fill="none" stroke="#63b8ff" d="M371.44,-301.86C387.32,-291.02 413.33,-272.56 434,-254.5 451.28,-239.4 449.99,-228.72 470,-217.5 477.36,-213.37 485.61,-210.19 493.94,-207.74"/>
<polygon fill="#63b8ff" stroke="#63b8ff" points="494.9,-211.1 503.69,-205.18 493.13,-204.33 494.9,-211.1"/>
</a>
</g>
</g>
<!-- Node7 -->
<g id="Node000007" class="node">
<title>Node7</title>
<g id="a_Node000007"><a xlink:href="classParser.html#a52df5c3f8fc72a8a486ae35a61d764d1" target="_top" xlink:title="Removes surrounding double quotes from a string value.">
<polygon fill="white" stroke="#666666" points="605,-396 496,-396 496,-377 605,-377 605,-396"/>
<text text-anchor="middle" x="550.5" y="-384" font-family="Helvetica,sans-Serif" font-size="10.00">Parser::stripQuotes</text>
</a>
</g>
</g>
<!-- Node3&#45;&gt;Node7 -->
<g id="edge6_Node000003_Node000007" class="edge">
<title>Node3&#45;&gt;Node7</title>
<g id="a_edge6_Node000003_Node000007"><a xlink:title=" ">
<path fill="none" stroke="#63b8ff" d="M372.91,-321.1C394.3,-333.64 433.81,-355.5 470,-368.5 475.94,-370.64 482.23,-372.57 488.56,-374.32"/>
<polygon fill="#63b8ff" stroke="#63b8ff" points="487.94,-377.77 498.5,-376.9 489.7,-371 487.94,-377.77"/>
</a>
</g>
</g>
<!-- Node3&#45;&gt;Node8 -->
<g id="edge8_Node000003_Node000008" class="edge">
<title>Node3&#45;&gt;Node8</title>
<g id="a_edge8_Node000003_Node000008"><a xlink:title=" ">
<path fill="none" stroke="#63b8ff" d="M405.58,-301.91C432.56,-296.58 466.23,-289.94 494.21,-284.41"/>
<polygon fill="#63b8ff" stroke="#63b8ff" points="495.11,-287.8 504.25,-282.43 493.76,-280.94 495.11,-287.8"/>
</a>
</g>
</g>
<!-- Node9 -->
<g id="Node000009" class="node">
<title>Node9</title>
<g id="a_Node000009"><a xlink:href="domain_8h.html#a0e806904288551ac6c43e2d413164657" target="_top" xlink:title="Converts an integer from the input file to a MatchMode.">
<polygon fill="white" stroke="#666666" points="592,-359 509,-359 509,-340 592,-340 592,-359"/>
<text text-anchor="middle" x="550.5" y="-347" font-family="Helvetica,sans-Serif" font-size="10.00">toMatchMode</text>
</a>
</g>
</g>
<!-- Node3&#45;&gt;Node9 -->
<g id="edge9_Node000003_Node000009" class="edge">
<title>Node3&#45;&gt;Node9</title>
<g id="a_edge9_Node000003_Node000009"><a xlink:title=" ">
<path fill="none" stroke="#63b8ff" d="M405.58,-321.09C434.07,-326.71 470.02,-333.81 498.87,-339.5"/>
<polygon fill="#63b8ff" stroke="#63b8ff" points="498.26,-342.95 508.75,-341.46 499.62,-336.09 498.26,-342.95"/>
</a>
</g>
</g>
<!-- Node5&#45;&gt;Node6 -->
<g id="edge5_Node000005_Node000006" class="edge">
<title>Node5&#45;&gt;Node6</title>
<g id="a_edge5_Node000005_Node000006"><a xlink:title=" ">
<path fill="none" stroke="#63b8ff" d="M597.25,-203.09C609.11,-205.75 621.28,-210.18 631,-217.5 682.17,-256.01 708.78,-331.28 718.98,-366.91"/>
<polygon fill="#63b8ff" stroke="#63b8ff" points="715.61,-367.88 721.62,-376.61 722.37,-366.04 715.61,-367.88"/>
</a>
</g>
</g>
<!-- Node7&#45;&gt;Node6 -->
<g id="edge7_Node000007_Node000006" class="edge">
<title>Node7&#45;&gt;Node6</title>
<g id="a_edge7_Node000007_Node000006"><a xlink:title=" ">
<path fill="none" stroke="#63b8ff" d="M605.13,-386.5C628.53,-386.5 655.68,-386.5 678.12,-386.5"/>
<polygon fill="#63b8ff" stroke="#63b8ff" points="678.39,-390 688.39,-386.5 678.39,-383 678.39,-390"/>
</a>
</g>
</g>
<!-- Node10&#45;&gt;Node4 -->
<g id="edge13_Node000010_Node000004" class="edge">
<title>Node10&#45;&gt;Node4</title>
<g id="a_edge13_Node000010_Node000004"><a xlink:title=" ">
<path fill="none" stroke="#63b8ff" d="M371.99,-225.9C392.97,-213.01 432.72,-190.57 470,-180.5 531.83,-163.8 605.01,-159.91 656.9,-159.69"/>
<polygon fill="#63b8ff" stroke="#63b8ff" points="656.98,-163.19 666.98,-159.69 656.98,-156.19 656.98,-163.19"/>
</a>
</g>
</g>
<!-- Node10&#45;&gt;Node5 -->
<g id="edge14_Node000010_Node000005" class="edge">
<title>Node10&#45;&gt;Node5</title>
<g id="a_edge14_Node000010_Node000005"><a xlink:title=" ">
<path fill="none" stroke="#63b8ff" d="M407.83,-225.99C434.3,-221.04 466.72,-214.98 493.86,-209.91"/>
<polygon fill="#63b8ff" stroke="#63b8ff" points="494.79,-213.29 503.98,-208.01 493.51,-206.41 494.79,-213.29"/>
</a>
</g>
</g>
<!-- Node10&#45;&gt;Node8 -->
<g id="edge15_Node000010_Node000008" class="edge">
<title>Node10&#45;&gt;Node8</title>
<g id="a_edge15_Node000010_Node000008"><a xlink:title=" ">
<path fill="none" stroke="#63b8ff" d="M405.58,-245.09C432.56,-250.42 466.23,-257.06 494.21,-262.59"/>
<polygon fill="#63b8ff" stroke="#63b8ff" points="493.76,-266.06 504.25,-264.57 495.11,-259.2 493.76,-266.06"/>
</a>
</g>
</g>
<!-- Node11 -->
<g id="Node000011" class="node">
<title>Node11</title>
<g id="a_Node000011"><a xlink:href="classParser.html#ac9cbf2eac7c906d2da2d95b9c16cc02e" target="_top" xlink:title="Parses a trimmed token as a boolean (0 or 1).">
<polygon fill="white" stroke="#666666" points="613,-246 488,-246 488,-227 613,-227 613,-246"/>
<text text-anchor="middle" x="550.5" y="-234" font-family="Helvetica,sans-Serif" font-size="10.00">Parser::parseBoolField</text>
</a>
</g>
</g>
<!-- Node10&#45;&gt;Node11 -->
<g id="edge11_Node000010_Node000011" class="edge">
<title>Node10&#45;&gt;Node11</title>
<g id="a_edge11_Node000010_Node000011"><a xlink:title=" ">
<path fill="none" stroke="#63b8ff" d="M431.15,-235.89C446.38,-235.96 462.39,-236.05 477.55,-236.13"/>
<polygon fill="#63b8ff" stroke="#63b8ff" points="477.86,-239.63 487.88,-236.18 477.9,-232.63 477.86,-239.63"/>
</a>
</g>
</g>
<!-- Node11&#45;&gt;Node4 -->
<g id="edge12_Node000011_Node000004" class="edge">
<title>Node11&#45;&gt;Node4</title>
<g id="a_edge12_Node000011_Node000004"><a xlink:title=" ">
<path fill="none" stroke="#63b8ff" d="M601.86,-226.94C611.7,-224.39 621.81,-221.26 631,-217.5 657,-206.87 684.24,-189.64 702.47,-177.09"/>
<polygon fill="#63b8ff" stroke="#63b8ff" points="704.95,-179.63 711.13,-171.02 700.93,-173.9 704.95,-179.63"/>
</a>
</g>
</g>
<!-- Node12&#45;&gt;Node4 -->
<g id="edge18_Node000012_Node000004" class="edge">
<title>Node12&#45;&gt;Node4</title>
<g id="a_edge18_Node000012_Node000004"><a xlink:title=" ">
<path fill="none" stroke="#63b8ff" d="M388.95,-66.97C441.72,-53.01 549.38,-32.18 631,-66.5 668.03,-82.07 697.69,-120.37 712.89,-143.3"/>
<polygon fill="#63b8ff" stroke="#63b8ff" points="709.99,-145.27 718.33,-151.81 715.89,-141.5 709.99,-145.27"/>
</a>
</g>
</g>
<!-- Node12&#45;&gt;Node5 -->
<g id="edge19_Node000012_Node000005" class="edge">
<title>Node12&#45;&gt;Node5</title>
<g id="a_edge19_Node000012_Node000005"><a xlink:title=" ">
<path fill="none" stroke="#63b8ff" d="M372.11,-86.15C405.49,-107.48 485.76,-158.77 525.87,-184.4"/>
<polygon fill="#63b8ff" stroke="#63b8ff" points="524.15,-187.46 534.47,-189.89 527.92,-181.56 524.15,-187.46"/>
</a>
</g>
</g>
<!-- Node13 -->
<g id="Node000013" class="node">
<title>Node13</title>
<g id="a_Node000013"><a xlink:href="structProblemData.html#a9f9c5ab24ac824b060f3cdb7bbd764bf" target="_top" xlink:title="Adds a reviewer with duplicate&#45;ID detection.">
<polygon fill="white" stroke="#666666" points="625.5,-19 475.5,-19 475.5,0 625.5,0 625.5,-19"/>
<text text-anchor="middle" x="550.5" y="-7" font-family="Helvetica,sans-Serif" font-size="10.00">ProblemData::addReviewer</text>
</a>
</g>
</g>
<!-- Node12&#45;&gt;Node13 -->
<g id="edge17_Node000012_Node000013" class="edge">
<title>Node12&#45;&gt;Node13</title>
<g id="a_edge17_Node000012_Node000013"><a xlink:title=" ">
<path fill="none" stroke="#63b8ff" d="M380.63,-66.95C403.37,-57.89 438.81,-44.13 470,-33.5 481.73,-29.5 494.54,-25.49 506.39,-21.91"/>
<polygon fill="#63b8ff" stroke="#63b8ff" points="507.49,-25.24 516.07,-19.02 505.49,-18.53 507.49,-25.24"/>
</a>
</g>
</g>
<!-- Node14&#45;&gt;Node4 -->
<g id="edge22_Node000014_Node000004" class="edge">
<title>Node14&#45;&gt;Node4</title>
<g id="a_edge22_Node000014_Node000004"><a xlink:title=" ">
<path fill="none" stroke="#63b8ff" d="M394.12,-160.99C416.03,-155.86 444.4,-150.08 470,-147.5 541.2,-140.33 559.64,-142.16 631,-147.5 640.43,-148.21 650.34,-149.31 660.05,-150.59"/>
<polygon fill="#63b8ff" stroke="#63b8ff" points="659.67,-154.07 670.06,-151.99 660.64,-147.14 659.67,-154.07"/>
</a>
</g>
</g>
<!-- Node14&#45;&gt;Node5 -->
<g id="edge23_Node000014_Node000005" class="edge">
<title>Node14&#45;&gt;Node5</title>
<g id="a_edge23_Node000014_Node000005"><a xlink:title=" ">
<path fill="none" stroke="#63b8ff" d="M420.3,-180.04C444.07,-183.62 470.88,-187.66 493.9,-191.12"/>
<polygon fill="#63b8ff" stroke="#63b8ff" points="493.44,-194.59 503.85,-192.62 494.48,-187.67 493.44,-194.59"/>
</a>
</g>
</g>
<!-- Node15 -->
<g id="Node000015" class="node">
<title>Node15</title>
<g id="a_Node000015"><a xlink:href="structProblemData.html#a849ef6ded60771bec2a5e1b6faf0545c" target="_top" xlink:title="Adds a submission with duplicate&#45;ID detection.">
<polygon fill="white" stroke="#666666" points="631,-95 470,-95 470,-76 631,-76 631,-95"/>
<text text-anchor="middle" x="550.5" y="-83" font-family="Helvetica,sans-Serif" font-size="10.00">ProblemData::addSubmission</text>
</a>
</g>
</g>
<!-- Node14&#45;&gt;Node15 -->
<g id="edge21_Node000014_Node000015" class="edge">
<title>Node14&#45;&gt;Node15</title>
<g id="a_edge21_Node000014_Node000015"><a xlink:title=" ">
<path fill="none" stroke="#63b8ff" d="M372.23,-160.99C393.49,-148.01 433.56,-124.65 470,-109.5 480.29,-105.22 491.62,-101.33 502.42,-98"/>
<polygon fill="#63b8ff" stroke="#63b8ff" points="503.57,-101.31 512.15,-95.09 501.56,-94.6 503.57,-101.31"/>
</a>
</g>
</g>
</g>
</svg>
