<?xml version="1.0" encoding="UTF-8" standalone="no"?>
<!DOCTYPE svg PUBLIC "-//W3C//DTD SVG 1.1//EN"
 "http://www.w3.org/Graphics/SVG/1.1/DTD/svg11.dtd">
<!-- Generated by graphviz version 2.43.0 (0)
 -->
<!-- Title: test_ek_bipartite Pages: 1 -->
<svg width="524pt" height="64pt"
 viewBox="0.00 0.00 524.00 64.00" xmlns="http://www.w3.org/2000/svg" xmlns:xlink="http://www.w3.org/1999/xlink">
<g id="graph0" class="graph" transform="scale(1 1) rotate(0) translate(4 60)">
<title>test_ek_bipartite</title>
<!-- Node1 -->
<g id="Node000001" class="node">
<title>Node1</title>
<g id="a_Node000001"><a xlink:title=" ">
<polygon fill="#999999" stroke="#666666" points="99,-37 0,-37 0,-18 99,-18 99,-37"/>
<text text-anchor="middle" x="49.5" y="-25" font-family="Helvetica,sans-Serif" font-size="10.00">test_ek_bipartite</text>
</a>
</g>
</g>
<!-- Node2 -->
<g id="Node000002" class="node">
<title>Node2</title>
<g id="a_Node000002"><a xlink:href="classGraph.html#a8cdfb932968807565b3cc3b52759e3b8" target="_top" xlink:title="Adds a directed edge (u → v) with the given capacity, along with its reverse edge (v → u) with capaci...">
<polygon fill="white" stroke="#666666" points="241.5,-56 147.5,-56 147.5,-37 241.5,-37 241.5,-56"/>
<text text-anchor="middle" x="194.5" y="-44" font-family="Helvetica,sans-Serif" font-size="10.00">Graph::addEdge</text>
</a>
</g>
</g>
<!-- Node1&#45;&gt;Node2 -->
<g id="edge1_Node000001_Node000002" class="edge">
<title>Node1&#45;&gt;Node2</title>
<g id="a_edge1_Node000001_Node000002"><a xlink:title=" ">
<path fill="none" stroke="#63b8ff" d="M99.31,-33.99C111.57,-35.61 124.82,-37.37 137.4,-39.05"/>
<polygon fill="#63b8ff" stroke="#63b8ff" points="136.94,-42.52 147.32,-40.36 137.87,-35.58 136.94,-42.52"/>
</a>
</g>
</g>
<!-- Node4 -->
<g id="Node000004" class="node">
<title>Node4</title>
<g id="a_Node000004"><a xlink:href="classGraph.html#afd2749a1cd58db2d3b6fa6eef639399c" target="_top" xlink:title="Computes the maximum flow from source to sink using Edmonds&#45;Karp.">
<polygon fill="white" stroke="#666666" points="254,-19 135,-19 135,0 254,0 254,-19"/>
<text text-anchor="middle" x="194.5" y="-7" font-family="Helvetica,sans-Serif" font-size="10.00">Graph::edmondsKarp</text>
</a>
</g>
</g>
<!-- Node1&#45;&gt;Node4 -->
<g id="edge3_Node000001_Node000004" class="edge">
<title>Node1&#45;&gt;Node4</title>
<g id="a_edge3_Node000001_Node000004"><a xlink:title=" ">
<path fill="none" stroke="#63b8ff" d="M99.31,-21.36C107.51,-20.32 116.16,-19.24 124.75,-18.15"/>
<polygon fill="#63b8ff" stroke="#63b8ff" points="125.29,-21.61 134.78,-16.89 124.42,-14.67 125.29,-21.61"/>
</a>
</g>
</g>
<!-- Node3 -->
<g id="Node000003" class="node">
<title>Node3</title>
<g id="a_Node000003"><a xlink:href="classGraph.html#a0a3f35d90f69456655a046806c725063" target="_top" xlink:title="Returns the number of nodes in the graph.">
<polygon fill="white" stroke="#666666" points="394,-56 290,-56 290,-37 394,-37 394,-56"/>
<text text-anchor="middle" x="342" y="-44" font-family="Helvetica,sans-Serif" font-size="10.00">Graph::numNodes</text>
</a>
</g>
</g>
<!-- Node2&#45;&gt;Node3 -->
<g id="edge2_Node000002_Node000003" class="edge">
<title>Node2&#45;&gt;Node3</title>
<g id="a_edge2_Node000002_Node000003"><a xlink:title=" ">
<path fill="none" stroke="#63b8ff" d="M241.54,-46.5C253.69,-46.5 267,-46.5 279.82,-46.5"/>
<polygon fill="#63b8ff" stroke="#63b8ff" points="279.96,-50 289.96,-46.5 279.96,-43 279.96,-50"/>
</a>
</g>
</g>
<!-- Node4&#45;&gt;Node3 -->
<g id="edge6_Node000004_Node000003" class="edge">
<title>Node4&#45;&gt;Node3</title>
<g id="a_edge6_Node000004_Node000003"><a xlink:title=" ">
<path fill="none" stroke="#63b8ff" d="M232.97,-19.03C251.48,-23.74 274.02,-29.47 293.7,-34.47"/>
<polygon fill="#63b8ff" stroke="#63b8ff" points="292.85,-37.87 303.4,-36.94 294.58,-31.08 292.85,-37.87"/>
</a>
</g>
</g>
<!-- Node5 -->
<g id="Node000005" class="node">
<title>Node5</title>
<g id="a_Node000005"><a xlink:href="classGraph.html#a348391db529c20a826a1483fe7bdcb9a" target="_top" xlink:title="BFS on the residual graph to find the shortest augmenting path.">
<polygon fill="white" stroke="#666666" points="375.5,-19 308.5,-19 308.5,0 375.5,0 375.5,-19"/>
<text text-anchor="middle" x="342" y="-7" font-family="Helvetica,sans-Serif" font-size="10.00">Graph::bfs</text>
</a>
</g>
</g>
<!-- Node4&#45;&gt;Node5 -->
<g id="edge4_Node000004_Node000005" class="edge">
<title>Node4&#45;&gt;Node5</title>
<g id="a_edge4_Node000004_Node000005"><a xlink:title=" ">
<path fill="none" stroke="#63b8ff" d="M254.26,-9.5C268.97,-9.5 284.47,-9.5 298.23,-9.5"/>
<polygon fill="#63b8ff" stroke="#63b8ff" points="298.38,-13 308.38,-9.5 298.38,-6 298.38,-13"/>
</a>
</g>
</g>
<!-- Node6 -->
<g id="Node000006" class="node">
<title>Node6</title>
<g id="a_Node000006"><a xlink:href="structEdge.html#a0b45154adf516897233895a25fad355e" target="_top" xlink:title="Residual capacity of this edge.">
<polygon fill="white" stroke="#666666" points="516,-19 430,-19 430,0 516,0 516,-19"/>
<text text-anchor="middle" x="473" y="-7" font-family="Helvetica,sans-Serif" font-size="10.00">Edge::residual</text>
</a>
</g>
</g>
<!-- Node5&#45;&gt;Node6 -->
<g id="edge5_Node000005_Node000006" class="edge">
<title>Node5&#45;&gt;Node6</title>
<g id="a_edge5_Node000005_Node000006"><a xlink:title=" ">
<path fill="none" stroke="#63b8ff" d="M375.55,-9.5C388.89,-9.5 404.68,-9.5 419.57,-9.5"/>
<polygon fill="#63b8ff" stroke="#63b8ff" points="419.69,-13 429.69,-9.5 419.69,-6 419.69,-13"/>
</a>
</g>
</g>
</g>
</svg>
