<?xml version="1.0" encoding="UTF-8" standalone="no"?>
<!DOCTYPE svg PUBLIC "-//W3C//DTD SVG 1.1//EN"
 "http://www.w3.org/Graphics/SVG/1.1/DTD/svg11.dtd">
<!-- Generated by graphviz version 2.43.0 (0)
 -->
<!-- Title: test_figure1 Pages: 1 -->
<svg width="829pt" height="422pt"
 viewBox="0.00 0.00 829.00 421.54" xmlns="http://www.w3.org/2000/svg" xmlns:xlink="http://www.w3.org/1999/xlink">
<g id="graph0" class="graph" transform="scale(1 1) rotate(0) translate(4 417.54)">
<title>test_figure1</title>
<!-- Node1 -->
<g id="Node000001" class="node">
<title>Node1</title>
<g id="a_Node000001"><a xlink:title=" ">
<polygon fill="#999999" stroke="#666666" points="74,-301 0,-301 0,-282 74,-282 74,-301"/>
<text text-anchor="middle" x="37" y="-289" font-family="Helvetica,sans-Serif" font-size="10.00">test_figure1</text>
</a>
</g>
</g>
<!-- Node2 -->
<g id="Node000002" class="node">
<title>Node2</title>
<g id="a_Node000002"><a xlink:href="structProblemData.html#a8972080e7733220bd51b437e111bf5c9" target="_top" xlink:title="Number of reviewers.">
<polygon fill="white" stroke="#666666" points="274.5,-338 115.5,-338 115.5,-319 274.5,-319 274.5,-338"/>
<text text-anchor="middle" x="195" y="-326" font-family="Helvetica,sans-Serif" font-size="10.00">ProblemData::numReviewers</text>
</a>
</g>
</g>
<!-- Node1&#45;&gt;Node2 -->
<g id="edge1_Node000001_Node000002" class="edge">
<title>Node1&#45;&gt;Node2</title>
<g id="a_edge1_Node000001_Node000002"><a xlink:title=" ">
<path fill="none" stroke="#63b8ff" d="M72.71,-301.01C84.51,-304.15 97.8,-307.59 110,-310.5 118.95,-312.64 128.46,-314.79 137.75,-316.83"/>
<polygon fill="#63b8ff" stroke="#63b8ff" points="137.18,-320.29 147.7,-318.99 138.67,-313.45 137.18,-320.29"/>
</a>
</g>
</g>
<!-- Node3 -->
<g id="Node000003" class="node">
<title>Node3</title>
<g id="a_Node000003"><a xlink:href="structProblemData.html#af8f49cc7cddaa7219f2a6f3bc9853474" target="_top" xlink:title="Number of submissions.">
<polygon fill="white" stroke="#666666" points="280,-301 110,-301 110,-282 280,-282 280,-301"/>
<text text-anchor="middle" x="195" y="-289" font-family="Helvetica,sans-Serif" font-size="10.00">ProblemData::numSubmissions</text>
</a>
</g>
</g>
<!-- Node1&#45;&gt;Node3 -->
<g id="edge2_Node000001_Node000003" class="edge">
<title>Node1&#45;&gt;Node3</title>
<g id="a_edge2_Node000001_Node000003"><a xlink:title=" ">
<path fill="none" stroke="#63b8ff" d="M74.18,-291.5C82.03,-291.5 90.68,-291.5 99.63,-291.5"/>
<polygon fill="#63b8ff" stroke="#63b8ff" points="99.84,-295 109.84,-291.5 99.84,-288 99.84,-295"/>
</a>
</g>
</g>
<!-- Node4 -->
<g id="Node000004" class="node">
<title>Node4</title>
<g id="a_Node000004"><a xlink:href="classParser.html#a5a2a7fa051b2dce0c67484fcb141d913" target="_top" xlink:title="Parses the input file and returns a fully populated ProblemData.">
<polygon fill="white" stroke="#666666" points="235,-264 155,-264 155,-245 235,-245 235,-264"/>
<text text-anchor="middle" x="195" y="-252" font-family="Helvetica,sans-Serif" font-size="10.00">Parser::parse</text>
</a>
</g>
</g>
<!-- Node1&#45;&gt;Node4 -->
<g id="edge3_Node000001_Node000004" class="edge">
<title>Node1&#45;&gt;Node4</title>
<g id="a_edge3_Node000001_Node000004"><a xlink:title=" ">
<path fill="none" stroke="#63b8ff" d="M74.22,-282.28C85.65,-279.41 98.34,-276.28 110,-273.5 121.25,-270.82 133.37,-268.03 144.81,-265.43"/>
<polygon fill="#63b8ff" stroke="#63b8ff" points="145.66,-268.83 154.64,-263.21 144.12,-262 145.66,-268.83"/>
</a>
</g>
</g>
<!-- Node5 -->
<g id="Node000005" class="node">
<title>Node5</title>
<g id="a_Node000005"><a xlink:href="classParser.html#abe415229c2daa3f3ba4efd44661bd703" target="_top" xlink:title="Parses a control line: &quot;KeyName, value&quot;.">
<polygon fill="white" stroke="#666666" points="461.5,-321 326.5,-321 326.5,-302 461.5,-302 461.5,-321"/>
<text text-anchor="middle" x="394" y="-309" font-family="Helvetica,sans-Serif" font-size="10.00">Parser::parseControlLine</text>
</a>
</g>
</g>
<!-- Node4&#45;&gt;Node5 -->
<g id="edge4_Node000004_Node000005" class="edge">
<title>Node4&#45;&gt;Node5</title>
<g id="a_edge4_Node000004_Node000005"><a xlink:title=" ">
<path fill="none" stroke="#63b8ff" d="M235.21,-262.11C249.44,-265.2 265.56,-269.09 280,-273.5 296.42,-278.52 299.8,-281.83 316,-287.5 327.24,-291.43 339.52,-295.4 350.9,-298.95"/>
<polygon fill="#63b8ff" stroke="#63b8ff" points="350.03,-302.35 360.62,-301.95 352.09,-295.66 350.03,-302.35"/>
</a>
</g>
</g>
<!-- Node8 -->
<g id="Node000008" class="node">
<title>Node8</title>
<g id="a_Node000008"><a xlink:href="classParser.html#a113f0dfba3013e3dade8b717063ad8a0" target="_top" xlink:title="Trims leading and trailing whitespace from a string.">
<polygon fill="white" stroke="#666666" points="799.5,-396 726.5,-396 726.5,-377 799.5,-377 799.5,-396"/>
<text text-anchor="middle" x="763" y="-384" font-family="Helvetica,sans-Serif" font-size="10.00">Parser::trim</text>
</a>
</g>
</g>
<!-- Node4&#45;&gt;Node8 -->
<g id="edge27_Node000004_Node000008" class="edge">
<title>Node4&#45;&gt;Node8</title>
<g id="a_edge27_Node000004_Node000008"><a xlink:title=" ">
<path fill="none" stroke="#63b8ff" d="M235.39,-257.01C250.43,-259.53 267.05,-264.36 280,-273.5 304.47,-290.79 292.89,-311.43 316,-330.5 386.66,-388.81 417.97,-388.54 508,-405.5 578.32,-418.75 597.81,-412.7 669,-405.5 684.59,-403.92 701.42,-400.9 716.43,-397.72"/>
<polygon fill="#63b8ff" stroke="#63b8ff" points="717.47,-401.07 726.49,-395.51 715.97,-394.23 717.47,-401.07"/>
</a>
</g>
</g>
<!-- Node10 -->
<g id="Node000010" class="node">
<title>Node10</title>
<g id="a_Node000010"><a xlink:href="classParser.html#a381845570bc3e8444268d1f0165e5c18" target="_top" xlink:title="Converts a string to lowercase (for case&#45;insensitive comparison).">
<polygon fill="white" stroke="#666666" points="634.5,-283 542.5,-283 542.5,-264 634.5,-264 634.5,-283"/>
<text text-anchor="middle" x="588.5" y="-271" font-family="Helvetica,sans-Serif" font-size="10.00">Parser::toLower</text>
</a>
</g>
</g>
<!-- Node4&#45;&gt;Node10 -->
<g id="edge26_Node000004_Node000010" class="edge">
<title>Node4&#45;&gt;Node10</title>
<g id="a_edge26_Node000004_Node000010"><a xlink:title=" ">
<path fill="none" stroke="#63b8ff" d="M235.33,-256.41C305.29,-259.8 451.53,-266.9 531.81,-270.8"/>
<polygon fill="#63b8ff" stroke="#63b8ff" points="532.05,-274.31 542.21,-271.3 532.39,-267.32 532.05,-274.31"/>
</a>
</g>
</g>
<!-- Node12 -->
<g id="Node000012" class="node">
<title>Node12</title>
<g id="a_Node000012"><a xlink:href="classParser.html#a49fdbc3e3b2c220e042d77ea0568bdba" target="_top" xlink:title="Parses a parameter line: &quot;KeyName, value&quot;.">
<polygon fill="white" stroke="#666666" points="469,-245 319,-245 319,-226 469,-226 469,-245"/>
<text text-anchor="middle" x="394" y="-233" font-family="Helvetica,sans-Serif" font-size="10.00">Parser::parseParameterLine</text>
</a>
</g>
</g>
<!-- Node4&#45;&gt;Node12 -->
<g id="edge12_Node000004_Node000012" class="edge">
<title>Node4&#45;&gt;Node12</title>
<g id="a_edge12_Node000004_Node000012"><a xlink:title=" ">
<path fill="none" stroke="#63b8ff" d="M235.39,-250.7C256.51,-248.66 283.37,-246.07 308.91,-243.61"/>
<polygon fill="#63b8ff" stroke="#63b8ff" points="309.38,-247.08 319,-242.64 308.71,-240.11 309.38,-247.08"/>
</a>
</g>
</g>
<!-- Node14 -->
<g id="Node000014" class="node">
<title>Node14</title>
<g id="a_Node000014"><a xlink:href="classParser.html#a8b52e53cfc75a57e18f03d925823fe2a" target="_top" xlink:title="Parses a single reviewer line.">
<polygon fill="white" stroke="#666666" points="467,-86 321,-86 321,-67 467,-67 467,-86"/>
<text text-anchor="middle" x="394" y="-74" font-family="Helvetica,sans-Serif" font-size="10.00">Parser::parseReviewerLine</text>
</a>
</g>
</g>
<!-- Node4&#45;&gt;Node14 -->
<g id="edge18_Node000004_Node000014" class="edge">
<title>Node4&#45;&gt;Node14</title>
<g id="a_edge18_Node000004_Node000014"><a xlink:title=" ">
<path fill="none" stroke="#63b8ff" d="M206.59,-244.93C238.59,-216.02 334.55,-129.31 374.86,-92.89"/>
<polygon fill="#63b8ff" stroke="#63b8ff" points="377.28,-95.42 382.36,-86.12 372.59,-90.22 377.28,-95.42"/>
</a>
</g>
</g>
<!-- Node16 -->
<g id="Node000016" class="node">
<title>Node16</title>
<g id="a_Node000016"><a xlink:href="classParser.html#ab15bc67b738ede92f26a5ead4c294bd3" target="_top" xlink:title="Parses a single submission line.">
<polygon fill="white" stroke="#666666" points="472,-180 316,-180 316,-161 472,-161 472,-180"/>
<text text-anchor="middle" x="394" y="-168" font-family="Helvetica,sans-Serif" font-size="10.00">Parser::parseSubmissionLine</text>
</a>
</g>
</g>
<!-- Node4&#45;&gt;Node16 -->
<g id="edge22_Node000004_Node000016" class="edge">
<title>Node4&#45;&gt;Node16</title>
<g id="a_edge22_Node000004_Node000016"><a xlink:title=" ">
<path fill="none" stroke="#63b8ff" d="M218.6,-244.86C253.7,-229.9 321.45,-201.01 361.39,-183.98"/>
<polygon fill="#63b8ff" stroke="#63b8ff" points="362.84,-187.17 370.67,-180.02 360.09,-180.73 362.84,-187.17"/>
</a>
</g>
</g>
<!-- Node6 -->
<g id="Node000006" class="node">
<title>Node6</title>
<g id="a_Node000006"><a xlink:href="classParser.html#a54de14fb280b60a07adfbf68c508b767" target="_top" xlink:title="Parses a trimmed token as an integer with error context.">
<polygon fill="white" stroke="#666666" points="821,-171 705,-171 705,-152 821,-152 821,-171"/>
<text text-anchor="middle" x="763" y="-159" font-family="Helvetica,sans-Serif" font-size="10.00">Parser::parseIntField</text>
</a>
</g>
</g>
<!-- Node5&#45;&gt;Node6 -->
<g id="edge5_Node000005_Node000006" class="edge">
<title>Node5&#45;&gt;Node6</title>
<g id="a_edge5_Node000005_Node000006"><a xlink:title=" ">
<path fill="none" stroke="#63b8ff" d="M451.72,-321.02C510.09,-327.88 601.74,-330.24 669,-292.5 713.82,-267.35 742.3,-210.53 754.74,-180.67"/>
<polygon fill="#63b8ff" stroke="#63b8ff" points="758.02,-181.91 758.48,-171.32 751.52,-179.31 758.02,-181.91"/>
</a>
</g>
</g>
<!-- Node7 -->
<g id="Node000007" class="node">
<title>Node7</title>
<g id="a_Node000007"><a xlink:href="classParser.html#aacf502fa084a101374bda3681e0d23bb" target="_top" xlink:title="Splits a CSV line by commas, respecting double&#45;quoted fields.">
<polygon fill="white" stroke="#666666" points="635,-209 542,-209 542,-190 635,-190 635,-209"/>
<text text-anchor="middle" x="588.5" y="-197" font-family="Helvetica,sans-Serif" font-size="10.00">Parser::splitCSV</text>
</a>
</g>
</g>
<!-- Node5&#45;&gt;Node7 -->
<g id="edge6_Node000005_Node000007" class="edge">
<title>Node5&#45;&gt;Node7</title>
<g id="a_edge6_Node000005_Node000007"><a xlink:title=" ">
<path fill="none" stroke="#63b8ff" d="M409.44,-301.86C425.32,-291.02 451.33,-272.56 472,-254.5 489.28,-239.4 487.99,-228.72 508,-217.5 515.36,-213.37 523.61,-210.19 531.94,-207.74"/>
<polygon fill="#63b8ff" stroke="#63b8ff" points="532.9,-211.1 541.69,-205.18 531.13,-204.33 532.9,-211.1"/>
</a>
</g>
</g>
<!-- Node9 -->
<g id="Node000009" class="node">
<title>Node9</title>
<g id="a_Node000009"><a xlink:href="classParser.html#a52df5c3f8fc72a8a486ae35a61d764d1" target="_top" xlink:title="Removes surrounding double quotes from a string value.">
<polygon fill="white" stroke="#666666" points="643,-396 534,-396 534,-377 643,-377 643,-396"/>
<text text-anchor="middle" x="588.5" y="-384" font-family="Helvetica,sans-Serif" font-size="10.00">Parser::stripQuotes</text>
</a>
</g>
</g>
<!-- Node5&#45;&gt;Node9 -->
<g id="edge8_Node000005_Node000009" class="edge">
<title>Node5&#45;&gt;Node9</title>
<g id="a_edge8_Node000005_Node000009"><a xlink:title=" ">
<path fill="none" stroke="#63b8ff" d="M410.91,-321.1C432.3,-333.64 471.81,-355.5 508,-368.5 513.94,-370.64 520.23,-372.57 526.56,-374.32"/>
<polygon fill="#63b8ff" stroke="#63b8ff" points="525.94,-377.77 536.5,-376.9 527.7,-371 525.94,-377.77"/>
</a>
</g>
</g>
<!-- Node5&#45;&gt;Node10 -->
<g id="edge10_Node000005_Node000010" class="edge">
<title>Node5&#45;&gt;Node10</title>
<g id="a_edge10_Node000005_Node000010"><a xlink:title=" ">
<path fill="none" stroke="#63b8ff" d="M443.58,-301.91C470.56,-296.58 504.23,-289.94 532.21,-284.41"/>
<polygon fill="#63b8ff" stroke="#63b8ff" points="533.11,-287.8 542.25,-282.43 531.76,-280.94 533.11,-287.8"/>
</a>
</g>
</g>
<!-- Node11 -->
<g id="Node000011" class="node">
<title>Node11</title>
<g id="a_Node000011"><a xlink:href="domain_8h.html#a0e806904288551ac6c43e2d413164657" target="_top" xlink:title="Converts an integer from the input file to a MatchMode.">
<polygon fill="white" stroke="#666666" points="630,-359 547,-359 547,-340 630,-340 630,-359"/>
<text text-anchor="middle" x="588.5" y="-347" font-family="Helvetica,sans-Serif" font-size="10.00">toMatchMode</text>
</a>
</g>
</g>
<!-- Node5&#45;&gt;Node11 -->
<g id="edge11_Node000005_Node000011" class="edge">
<title>Node5&#45;&gt;Node11</title>
<g id="a_edge11_Node000005_Node000011"><a xlink:title=" ">
<path fill="none" stroke="#63b8ff" d="M443.58,-321.09C472.07,-326.71 508.02,-333.81 536.87,-339.5"/>
<polygon fill="#63b8ff" stroke="#63b8ff" points="536.26,-342.95 546.75,-341.46 537.62,-336.09 536.26,-342.95"/>
</a>
</g>
</g>
<!-- Node7&#45;&gt;Node8 -->
<g id="edge7_Node000007_Node000008" class="edge">
<title>Node7&#45;&gt;Node8</title>
<g id="a_edge7_Node000007_Node000008"><a xlink:title=" ">
<path fill="none" stroke="#63b8ff" d="M635.25,-203.09C647.11,-205.75 659.28,-210.18 669,-217.5 720.17,-256.01 746.78,-331.28 756.98,-366.91"/>
<polygon fill="#63b8ff" stroke="#63b8ff" points="753.61,-367.88 759.62,-376.61 760.37,-366.04 753.61,-367.88"/>
</a>
</g>
</g>
<!-- Node9&#45;&gt;Node8 -->
<g id="edge9_Node000009_Node000008" class="edge">
<title>Node9&#45;&gt;Node8</title>
<g id="a_edge9_Node000009_Node000008"><a xlink:title=" ">
<path fill="none" stroke="#63b8ff" d="M643.13,-386.5C666.53,-386.5 693.68,-386.5 716.12,-386.5"/>
<polygon fill="#63b8ff" stroke="#63b8ff" points="716.39,-390 726.39,-386.5 716.39,-383 716.39,-390"/>
</a>
</g>
</g>
<!-- Node12&#45;&gt;Node6 -->
<g id="edge15_Node000012_Node000006" class="edge">
<title>Node12&#45;&gt;Node6</title>
<g id="a_edge15_Node000012_Node000006"><a xlink:title=" ">
<path fill="none" stroke="#63b8ff" d="M409.99,-225.9C430.97,-213.01 470.72,-190.57 508,-180.5 569.83,-163.8 643.01,-159.91 694.9,-159.69"/>
<polygon fill="#63b8ff" stroke="#63b8ff" points="694.98,-163.19 704.98,-159.69 694.98,-156.19 694.98,-163.19"/>
</a>
</g>
</g>
<!-- Node12&#45;&gt;Node7 -->
<g id="edge16_Node000012_Node000007" class="edge">
<title>Node12&#45;&gt;Node7</title>
<g id="a_edge16_Node000012_Node000007"><a xlink:title=" ">
<path fill="none" stroke="#63b8ff" d="M445.83,-225.99C472.3,-221.04 504.72,-214.98 531.86,-209.91"/>
<polygon fill="#63b8ff" stroke="#63b8ff" points="532.79,-213.29 541.98,-208.01 531.51,-206.41 532.79,-213.29"/>
</a>
</g>
</g>
<!-- Node12&#45;&gt;Node10 -->
<g id="edge17_Node000012_Node000010" class="edge">
<title>Node12&#45;&gt;Node10</title>
<g id="a_edge17_Node000012_Node000010"><a xlink:title=" ">
<path fill="none" stroke="#63b8ff" d="M443.58,-245.09C470.56,-250.42 504.23,-257.06 532.21,-262.59"/>
<polygon fill="#63b8ff" stroke="#63b8ff" points="531.76,-266.06 542.25,-264.57 533.11,-259.2 531.76,-266.06"/>
</a>
</g>
</g>
<!-- Node13 -->
<g id="Node000013" class="node">
<title>Node13</title>
<g id="a_Node000013"><a xlink:href="classParser.html#ac9cbf2eac7c906d2da2d95b9c16cc02e" target="_top" xlink:title="Parses a trimmed token as a boolean (0 or 1).">
<polygon fill="white" stroke="#666666" points="651,-246 526,-246 526,-227 651,-227 651,-246"/>
<text text-anchor="middle" x="588.5" y="-234" font-family="Helvetica,sans-Serif" font-size="10.00">Parser::parseBoolField</text>
</a>
</g>
</g>
<!-- Node12&#45;&gt;Node13 -->
<g id="edge13_Node000012_Node000013" class="edge">
<title>Node12&#45;&gt;Node13</title>
<g id="a_edge13_Node000012_Node000013"><a xlink:title=" ">
<path fill="none" stroke="#63b8ff" d="M469.15,-235.89C484.38,-235.96 500.39,-236.05 515.55,-236.13"/>
<polygon fill="#63b8ff" stroke="#63b8ff" points="515.86,-239.63 525.88,-236.18 515.9,-232.63 515.86,-239.63"/>
</a>
</g>
</g>
<!-- Node13&#45;&gt;Node6 -->
<g id="edge14_Node000013_Node000006" class="edge">
<title>Node13&#45;&gt;Node6</title>
<g id="a_edge14_Node000013_Node000006"><a xlink:title=" ">
<path fill="none" stroke="#63b8ff" d="M639.86,-226.94C649.7,-224.39 659.81,-221.26 669,-217.5 695,-206.87 722.24,-189.64 740.47,-177.09"/>
<polygon fill="#63b8ff" stroke="#63b8ff" points="742.95,-179.63 749.13,-171.02 738.93,-173.9 742.95,-179.63"/>
</a>
</g>
</g>
<!-- Node14&#45;&gt;Node6 -->
<g id="edge20_Node000014_Node000006" class="edge">
<title>Node14&#45;&gt;Node6</title>
<g id="a_edge20_Node000014_Node000006"><a xlink:title=" ">
<path fill="none" stroke="#63b8ff" d="M426.95,-66.97C479.72,-53.01 587.38,-32.18 669,-66.5 706.03,-82.07 735.69,-120.37 750.89,-143.3"/>
<polygon fill="#63b8ff" stroke="#63b8ff" points="747.99,-145.27 756.33,-151.81 753.89,-141.5 747.99,-145.27"/>
</a>
</g>
</g>
<!-- Node14&#45;&gt;Node7 -->
<g id="edge21_Node000014_Node000007" class="edge">
<title>Node14&#45;&gt;Node7</title>
<g id="a_edge21_Node000014_Node000007"><a xlink:title=" ">
<path fill="none" stroke="#63b8ff" d="M410.11,-86.15C443.49,-107.48 523.76,-158.77 563.87,-184.4"/>
<polygon fill="#63b8ff" stroke="#63b8ff" points="562.15,-187.46 572.47,-189.89 565.92,-181.56 562.15,-187.46"/>
</a>
</g>
</g>
<!-- Node15 -->
<g id="Node000015" class="node">
<title>Node15</title>
<g id="a_Node000015"><a xlink:href="structProblemData.html#a9f9c5ab24ac824b060f3cdb7bbd764bf" target="_top" xlink:title="Adds a reviewer with duplicate&#45;ID detection.">
<polygon fill="white" stroke="#666666" points="663.5,-19 513.5,-19 513.5,0 663.5,0 663.5,-19"/>
<text text-anchor="middle" x="588.5" y="-7" font-family="Helvetica,sans-Serif" font-size="10.00">ProblemData::addReviewer</text>
</a>
</g>
</g>
<!-- Node14&#45;&gt;Node15 -->
<g id="edge19_Node000014_Node000015" class="edge">
<title>Node14&#45;&gt;Node15</title>
<g id="a_edge19_Node000014_Node000015"><a xlink:title=" ">
<path fill="none" stroke="#63b8ff" d="M418.63,-66.95C441.37,-57.89 476.81,-44.13 508,-33.5 519.73,-29.5 532.54,-25.49 544.39,-21.91"/>
<polygon fill="#63b8ff" stroke="#63b8ff" points="545.49,-25.24 554.07,-19.02 543.49,-18.53 545.49,-25.24"/>
</a>
</g>
</g>
<!-- Node16&#45;&gt;Node6 -->
<g id="edge24_Node000016_Node000006" class="edge">
<title>Node16&#45;&gt;Node6</title>
<g id="a_edge24_Node000016_Node000006"><a xlink:title=" ">
<path fill="none" stroke="#63b8ff" d="M432.12,-160.99C454.03,-155.86 482.4,-150.08 508,-147.5 579.2,-140.33 597.64,-142.16 669,-147.5 678.43,-148.21 688.34,-149.31 698.05,-150.59"/>
<polygon fill="#63b8ff" stroke="#63b8ff" points="697.67,-154.07 708.06,-151.99 698.64,-147.14 697.67,-154.07"/>
</a>
</g>
</g>
<!-- Node16&#45;&gt;Node7 -->
<g id="edge25_Node000016_Node000007" class="edge">
<title>Node16&#45;&gt;Node7</title>
<g id="a_edge25_Node000016_Node000007"><a xlink:title=" ">
<path fill="none" stroke="#63b8ff" d="M458.3,-180.04C482.07,-183.62 508.88,-187.66 531.9,-191.12"/>
<polygon fill="#63b8ff" stroke="#63b8ff" points="531.44,-194.59 541.85,-192.62 532.48,-187.67 531.44,-194.59"/>
</a>
</g>
</g>
<!-- Node17 -->
<g id="Node000017" class="node">
<title>Node17</title>
<g id="a_Node000017"><a xlink:href="structProblemData.html#a849ef6ded60771bec2a5e1b6faf0545c" target="_top" xlink:title="Adds a submission with duplicate&#45;ID detection.">
<polygon fill="white" stroke="#666666" points="669,-95 508,-95 508,-76 669,-76 669,-95"/>
<text text-anchor="middle" x="588.5" y="-83" font-family="Helvetica,sans-Serif" font-size="10.00">ProblemData::addSubmission</text>
</a>
</g>
</g>
<!-- Node16&#45;&gt;Node17 -->
<g id="edge23_Node000016_Node000017" class="edge">
<title>Node16&#45;&gt;Node17</title>
<g id="a_edge23_Node000016_Node000017"><a xlink:title=" ">
<path fill="none" stroke="#63b8ff" d="M410.23,-160.99C431.49,-148.01 471.56,-124.65 508,-109.5 518.29,-105.22 529.62,-101.33 540.42,-98"/>
<polygon fill="#63b8ff" stroke="#63b8ff" points="541.57,-101.31 550.15,-95.09 539.56,-94.6 541.57,-101.31"/>
</a>
</g>
</g>
</g>
</svg>
