<?xml version="1.0" encoding="UTF-8" standalone="no"?>
<!DOCTYPE svg PUBLIC "-//W3C//DTD SVG 1.1//EN"
 "http://www.w3.org/Graphics/SVG/1.1/DTD/svg11.dtd">
<!-- Generated by graphviz version 2.43.0 (0)
 -->
<!-- Title: test_ek_basic Pages: 1 -->
<svg width="508pt" height="64pt"
 viewBox="0.00 0.00 508.00 64.00" xmlns="http://www.w3.org/2000/svg" xmlns:xlink="http://www.w3.org/1999/xlink">
<g id="graph0" class="graph" transform="scale(1 1) rotate(0) translate(4 60)">
<title>test_ek_basic</title>
<!-- Node1 -->
<g id="Node000001" class="node">
<title>Node1</title>
<g id="a_Node000001"><a xlink:title=" ">
<polygon fill="#999999" stroke="#666666" points="83,-37 0,-37 0,-18 83,-18 83,-37"/>
<text text-anchor="middle" x="41.5" y="-25" font-family="Helvetica,sans-Serif" font-size="10.00">test_ek_basic</text>
</a>
</g>
</g>
<!-- Node2 -->
<g id="Node000002" class="node">
<title>Node2</title>
<g id="a_Node000002"><a xlink:href="classGraph.html#a8cdfb932968807565b3cc3b52759e3b8" target="_top" xlink:title="Adds a directed edge (u → v) with the given capacity, along with its reverse edge (v → u) with capaci...">
<polygon fill="white" stroke="#666666" points="225.5,-56 131.5,-56 131.5,-37 225.5,-37 225.5,-56"/>
<text text-anchor="middle" x="178.5" y="-44" font-family="Helvetica,sans-Serif" font-size="10.00">Graph::addEdge</text>
</a>
</g>
</g>
<!-- Node1&#45;&gt;Node2 -->
<g id="edge1_Node000001_Node000002" class="edge">
<title>Node1&#45;&gt;Node2</title>
<g id="a_edge1_Node000001_Node000002"><a xlink:title=" ">
<path fill="none" stroke="#63b8ff" d="M83,-33.2C95.02,-34.89 108.39,-36.77 121.21,-38.58"/>
<polygon fill="#63b8ff" stroke="#63b8ff" points="120.95,-42.08 131.34,-40 121.93,-35.14 120.95,-42.08"/>
</a>
</g>
</g>
<!-- Node4 -->
<g id="Node000004" class="node">
<title>Node4</title>
<g id="a_Node000004"><a xlink:href="classGraph.html#afd2749a1cd58db2d3b6fa6eef639399c" target="_top" xlink:title="Computes the maximum flow from source to sink using Edmonds&#45;Karp.">
<polygon fill="white" stroke="#666666" points="238,-19 119,-19 119,0 238,0 238,-19"/>
<text text-anchor="middle" x="178.5" y="-7" font-family="Helvetica,sans-Serif" font-size="10.00">Graph::edmondsKarp</text>
</a>
</g>
</g>
<!-- Node1&#45;&gt;Node4 -->
<g id="edge3_Node000001_Node000004" class="edge">
<title>Node1&#45;&gt;Node4</title>
<g id="a_edge3_Node000001_Node000004"><a xlink:title=" ">
<path fill="none" stroke="#63b8ff" d="M83,-22.1C91.04,-21.03 99.69,-19.87 108.38,-18.72"/>
<polygon fill="#63b8ff" stroke="#63b8ff" points="109.11,-22.15 118.56,-17.36 108.18,-15.21 109.11,-22.15"/>
</a>
</g>
</g>
<!-- Node3 -->
<g id="Node000003" class="node">
<title>Node3</title>
<g id="a_Node000003"><a xlink:href="classGraph.html#a0a3f35d90f69456655a046806c725063" target="_top" xlink:title="Returns the number of nodes in the graph.">
<polygon fill="white" stroke="#666666" points="378,-56 274,-56 274,-37 378,-37 378,-56"/>
<text text-anchor="middle" x="326" y="-44" font-family="Helvetica,sans-Serif" font-size="10.00">Graph::numNodes</text>
</a>
</g>
</g>
<!-- Node2&#45;&gt;Node3 -->
<g id="edge2_Node000002_Node000003" class="edge">
<title>Node2&#45;&gt;Node3</title>
<g id="a_edge2_Node000002_Node000003"><a xlink:title=" ">
<path fill="none" stroke="#63b8ff" d="M225.54,-46.5C237.69,-46.5 251,-46.5 263.82,-46.5"/>
<polygon fill="#63b8ff" stroke="#63b8ff" points="263.96,-50 273.96,-46.5 263.96,-43 263.96,-50"/>
</a>
</g>
</g>
<!-- Node4&#45;&gt;Node3 -->
<g id="edge6_Node000004_Node000003" class="edge">
<title>Node4&#45;&gt;Node3</title>
<g id="a_edge6_Node000004_Node000003"><a xlink:title=" ">
<path fill="none" stroke="#63b8ff" d="M216.97,-19.03C235.48,-23.74 258.02,-29.47 277.7,-34.47"/>
<polygon fill="#63b8ff" stroke="#63b8ff" points="276.85,-37.87 287.4,-36.94 278.58,-31.08 276.85,-37.87"/>
</a>
</g>
</g>
<!-- Node5 -->
<g id="Node000005" class="node">
<title>Node5</title>
<g id="a_Node000005"><a xlink:href="classGraph.html#a348391db529c20a826a1483fe7bdcb9a" target="_top" xlink:title="BFS on the residual graph to find the shortest augmenting path.">
<polygon fill="white" stroke="#666666" points="359.5,-19 292.5,-19 292.5,0 359.5,0 359.5,-19"/>
<text text-anchor="middle" x="326" y="-7" font-family="Helvetica,sans-Serif" font-size="10.00">Graph::bfs</text>
</a>
</g>
</g>
<!-- Node4&#45;&gt;Node5 -->
<g id="edge4_Node000004_Node000005" class="edge">
<title>Node4&#45;&gt;Node5</title>
<g id="a_edge4_Node000004_Node000005"><a xlink:title=" ">
<path fill="none" stroke="#63b8ff" d="M238.26,-9.5C252.97,-9.5 268.47,-9.5 282.23,-9.5"/>
<polygon fill="#63b8ff" stroke="#63b8ff" points="282.38,-13 292.38,-9.5 282.38,-6 282.38,-13"/>
</a>
</g>
</g>
<!-- Node6 -->
<g id="Node000006" class="node">
<title>Node6</title>
<g id="a_Node000006"><a xlink:href="structEdge.html#a0b45154adf516897233895a25fad355e" target="_top" xlink:title="Residual capacity of this edge.">
<polygon fill="white" stroke="#666666" points="500,-19 414,-19 414,0 500,0 500,-19"/>
<text text-anchor="middle" x="457" y="-7" font-family="Helvetica,sans-Serif" font-size="10.00">Edge::residual</text>
</a>
</g>
</g>
<!-- Node5&#45;&gt;Node6 -->
<g id="edge5_Node000005_Node000006" class="edge">
<title>Node5&#45;&gt;Node6</title>
<g id="a_edge5_Node000005_Node000006"><a xlink:title=" ">
<path fill="none" stroke="#63b8ff" d="M359.55,-9.5C372.89,-9.5 388.68,-9.5 403.57,-9.5"/>
<polygon fill="#63b8ff" stroke="#63b8ff" points="403.69,-13 413.69,-9.5 403.69,-6 403.69,-13"/>
</a>
</g>
</g>
</g>
</svg>
