<?xml version="1.0" encoding="UTF-8" standalone="no"?>
<!DOCTYPE svg PUBLIC "-//W3C//DTD SVG 1.1//EN"
 "http://www.w3.org/Graphics/SVG/1.1/DTD/svg11.dtd">
<!-- Generated by graphviz version 2.43.0 (0)
 -->
<!-- Title: test_large_dataset Pages: 1 -->
<svg width="874pt" height="422pt"
 viewBox="0.00 0.00 874.00 421.54" xmlns="http://www.w3.org/2000/svg" xmlns:xlink="http://www.w3.org/1999/xlink">
<g id="graph0" class="graph" transform="scale(1 1) rotate(0) translate(4 417.54)">
<title>test_large_dataset</title>
<!-- Node1 -->
<g id="Node000001" class="node">
<title>Node1</title>
<g id="a_Node000001"><a xlink:title=" ">
<polygon fill="#999999" stroke="#666666" points="107,-319 0,-319 0,-300 107,-300 107,-319"/>
<text text-anchor="middle" x="53.5" y="-307" font-family="Helvetica,sans-Serif" font-size="10.00">test_large_dataset</text>
</a>
</g>
</g>
<!-- Node2 -->
<g id="Node000002" class="node">
<title>Node2</title>
<g id="a_Node000002"><a xlink:href="structProblemData.html#a6b90c06ef7a99d80470143618ce5a323" target="_top" xlink:title="Quick sanity check: is total reviewer capacity sufficient?">
<polygon fill="white" stroke="#666666" points="325,-375 143,-375 143,-356 325,-356 325,-375"/>
<text text-anchor="middle" x="234" y="-363" font-family="Helvetica,sans-Serif" font-size="10.00">ProblemData::hasEnoughCapacity</text>
</a>
</g>
</g>
<!-- Node1&#45;&gt;Node2 -->
<g id="edge1_Node000001_Node000002" class="edge">
<title>Node1&#45;&gt;Node2</title>
<g id="a_edge1_Node000001_Node000002"><a xlink:title=" ">
<path fill="none" stroke="#63b8ff" d="M73.74,-319.15C91.38,-327.66 118.41,-339.85 143,-347.5 150.38,-349.8 158.2,-351.87 166.02,-353.72"/>
<polygon fill="#63b8ff" stroke="#63b8ff" points="165.37,-357.16 175.9,-355.94 166.91,-350.33 165.37,-357.16"/>
</a>
</g>
</g>
<!-- Node3 -->
<g id="Node000003" class="node">
<title>Node3</title>
<g id="a_Node000003"><a xlink:href="structProblemData.html#a8972080e7733220bd51b437e111bf5c9" target="_top" xlink:title="Number of reviewers.">
<polygon fill="white" stroke="#666666" points="313.5,-338 154.5,-338 154.5,-319 313.5,-319 313.5,-338"/>
<text text-anchor="middle" x="234" y="-326" font-family="Helvetica,sans-Serif" font-size="10.00">ProblemData::numReviewers</text>
</a>
</g>
</g>
<!-- Node1&#45;&gt;Node3 -->
<g id="edge2_Node000001_Node000003" class="edge">
<title>Node1&#45;&gt;Node3</title>
<g id="a_edge2_Node000001_Node000003"><a xlink:title=" ">
<path fill="none" stroke="#63b8ff" d="M107.09,-315.1C118.78,-316.34 131.48,-317.69 144.16,-319.04"/>
<polygon fill="#63b8ff" stroke="#63b8ff" points="144,-322.55 154.32,-320.12 144.74,-315.59 144,-322.55"/>
</a>
</g>
</g>
<!-- Node4 -->
<g id="Node000004" class="node">
<title>Node4</title>
<g id="a_Node000004"><a xlink:href="structProblemData.html#af8f49cc7cddaa7219f2a6f3bc9853474" target="_top" xlink:title="Number of submissions.">
<polygon fill="white" stroke="#666666" points="319,-301 149,-301 149,-282 319,-282 319,-301"/>
<text text-anchor="middle" x="234" y="-289" font-family="Helvetica,sans-Serif" font-size="10.00">ProblemData::numSubmissions</text>
</a>
</g>
</g>
<!-- Node1&#45;&gt;Node4 -->
<g id="edge3_Node000001_Node000004" class="edge">
<title>Node1&#45;&gt;Node4</title>
<g id="a_edge3_Node000001_Node000004"><a xlink:title=" ">
<path fill="none" stroke="#63b8ff" d="M107.09,-304.2C117.17,-303.18 128,-302.09 138.93,-300.99"/>
<polygon fill="#63b8ff" stroke="#63b8ff" points="139.38,-304.46 148.98,-299.97 138.68,-297.49 139.38,-304.46"/>
</a>
</g>
</g>
<!-- Node5 -->
<g id="Node000005" class="node">
<title>Node5</title>
<g id="a_Node000005"><a xlink:href="classParser.html#a5a2a7fa051b2dce0c67484fcb141d913" target="_top" xlink:title="Parses the input file and returns a fully populated ProblemData.">
<polygon fill="white" stroke="#666666" points="274,-264 194,-264 194,-245 274,-245 274,-264"/>
<text text-anchor="middle" x="234" y="-252" font-family="Helvetica,sans-Serif" font-size="10.00">Parser::parse</text>
</a>
</g>
</g>
<!-- Node1&#45;&gt;Node5 -->
<g id="edge4_Node000001_Node000005" class="edge">
<title>Node1&#45;&gt;Node5</title>
<g id="a_edge4_Node000001_Node000005"><a xlink:title=" ">
<path fill="none" stroke="#63b8ff" d="M75.22,-299.84C92.91,-291.89 119.21,-280.79 143,-273.5 156.02,-269.51 170.35,-266.07 183.67,-263.26"/>
<polygon fill="#63b8ff" stroke="#63b8ff" points="184.53,-266.66 193.63,-261.23 183.13,-259.8 184.53,-266.66"/>
</a>
</g>
</g>
<!-- Node6 -->
<g id="Node000006" class="node">
<title>Node6</title>
<g id="a_Node000006"><a xlink:href="classParser.html#abe415229c2daa3f3ba4efd44661bd703" target="_top" xlink:title="Parses a control line: &quot;KeyName, value&quot;.">
<polygon fill="white" stroke="#666666" points="506.5,-321 371.5,-321 371.5,-302 506.5,-302 506.5,-321"/>
<text text-anchor="middle" x="439" y="-309" font-family="Helvetica,sans-Serif" font-size="10.00">Parser::parseControlLine</text>
</a>
</g>
</g>
<!-- Node5&#45;&gt;Node6 -->
<g id="edge5_Node000005_Node000006" class="edge">
<title>Node5&#45;&gt;Node6</title>
<g id="a_edge5_Node000005_Node000006"><a xlink:title=" ">
<path fill="none" stroke="#63b8ff" d="M274.33,-261.36C290.21,-264.5 308.62,-268.62 325,-273.5 341.45,-278.4 344.8,-281.83 361,-287.5 372.24,-291.43 384.52,-295.4 395.9,-298.95"/>
<polygon fill="#63b8ff" stroke="#63b8ff" points="395.03,-302.35 405.62,-301.95 397.09,-295.66 395.03,-302.35"/>
</a>
</g>
</g>
<!-- Node9 -->
<g id="Node000009" class="node">
<title>Node9</title>
<g id="a_Node000009"><a xlink:href="classParser.html#a113f0dfba3013e3dade8b717063ad8a0" target="_top" xlink:title="Trims leading and trailing whitespace from a string.">
<polygon fill="white" stroke="#666666" points="844.5,-396 771.5,-396 771.5,-377 844.5,-377 844.5,-396"/>
<text text-anchor="middle" x="808" y="-384" font-family="Helvetica,sans-Serif" font-size="10.00">Parser::trim</text>
</a>
</g>
</g>
<!-- Node5&#45;&gt;Node9 -->
<g id="edge28_Node000005_Node000009" class="edge">
<title>Node5&#45;&gt;Node9</title>
<g id="a_edge28_Node000005_Node000009"><a xlink:title=" ">
<path fill="none" stroke="#63b8ff" d="M274.01,-256.02C290.91,-258.29 310.19,-263.2 325,-273.5 349.6,-290.61 337.89,-311.43 361,-330.5 431.66,-388.81 462.97,-388.54 553,-405.5 623.32,-418.75 642.81,-412.7 714,-405.5 729.59,-403.92 746.42,-400.9 761.43,-397.72"/>
<polygon fill="#63b8ff" stroke="#63b8ff" points="762.47,-401.07 771.49,-395.51 760.97,-394.23 762.47,-401.07"/>
</a>
</g>
</g>
<!-- Node11 -->
<g id="Node000011" class="node">
<title>Node11</title>
<g id="a_Node000011"><a xlink:href="classParser.html#a381845570bc3e8444268d1f0165e5c18" target="_top" xlink:title="Converts a string to lowercase (for case&#45;insensitive comparison).">
<polygon fill="white" stroke="#666666" points="679.5,-283 587.5,-283 587.5,-264 679.5,-264 679.5,-283"/>
<text text-anchor="middle" x="633.5" y="-271" font-family="Helvetica,sans-Serif" font-size="10.00">Parser::toLower</text>
</a>
</g>
</g>
<!-- Node5&#45;&gt;Node11 -->
<g id="edge27_Node000005_Node000011" class="edge">
<title>Node5&#45;&gt;Node11</title>
<g id="a_edge27_Node000005_Node000011"><a xlink:title=" ">
<path fill="none" stroke="#63b8ff" d="M274.2,-256.37C345.3,-259.77 495.67,-266.96 577.18,-270.86"/>
<polygon fill="#63b8ff" stroke="#63b8ff" points="577.09,-274.36 587.25,-271.34 577.42,-267.36 577.09,-274.36"/>
</a>
</g>
</g>
<!-- Node13 -->
<g id="Node000013" class="node">
<title>Node13</title>
<g id="a_Node000013"><a xlink:href="classParser.html#a49fdbc3e3b2c220e042d77ea0568bdba" target="_top" xlink:title="Parses a parameter line: &quot;KeyName, value&quot;.">
<polygon fill="white" stroke="#666666" points="514,-245 364,-245 364,-226 514,-226 514,-245"/>
<text text-anchor="middle" x="439" y="-233" font-family="Helvetica,sans-Serif" font-size="10.00">Parser::parseParameterLine</text>
</a>
</g>
</g>
<!-- Node5&#45;&gt;Node13 -->
<g id="edge13_Node000005_Node000013" class="edge">
<title>Node5&#45;&gt;Node13</title>
<g id="a_edge13_Node000005_Node000013"><a xlink:title=" ">
<path fill="none" stroke="#63b8ff" d="M274.14,-250.84C296.72,-248.72 326.01,-245.98 353.57,-243.4"/>
<polygon fill="#63b8ff" stroke="#63b8ff" points="354,-246.88 363.63,-242.46 353.35,-239.91 354,-246.88"/>
</a>
</g>
</g>
<!-- Node15 -->
<g id="Node000015" class="node">
<title>Node15</title>
<g id="a_Node000015"><a xlink:href="classParser.html#a8b52e53cfc75a57e18f03d925823fe2a" target="_top" xlink:title="Parses a single reviewer line.">
<polygon fill="white" stroke="#666666" points="512,-86 366,-86 366,-67 512,-67 512,-86"/>
<text text-anchor="middle" x="439" y="-74" font-family="Helvetica,sans-Serif" font-size="10.00">Parser::parseReviewerLine</text>
</a>
</g>
</g>
<!-- Node5&#45;&gt;Node15 -->
<g id="edge19_Node000005_Node000015" class="edge">
<title>Node5&#45;&gt;Node15</title>
<g id="a_edge19_Node000005_Node000015"><a xlink:title=" ">
<path fill="none" stroke="#63b8ff" d="M245.91,-244.93C278.89,-216.02 377.77,-129.31 419.3,-92.89"/>
<polygon fill="#63b8ff" stroke="#63b8ff" points="421.82,-95.34 427.03,-86.12 417.21,-90.08 421.82,-95.34"/>
</a>
</g>
</g>
<!-- Node17 -->
<g id="Node000017" class="node">
<title>Node17</title>
<g id="a_Node000017"><a xlink:href="classParser.html#ab15bc67b738ede92f26a5ead4c294bd3" target="_top" xlink:title="Parses a single submission line.">
<polygon fill="white" stroke="#666666" points="517,-180 361,-180 361,-161 517,-161 517,-180"/>
<text text-anchor="middle" x="439" y="-168" font-family="Helvetica,sans-Serif" font-size="10.00">Parser::parseSubmissionLine</text>
</a>
</g>
</g>
<!-- Node5&#45;&gt;Node17 -->
<g id="edge23_Node000005_Node000017" class="edge">
<title>Node5&#45;&gt;Node17</title>
<g id="a_edge23_Node000005_Node000017"><a xlink:title=" ">
<path fill="none" stroke="#63b8ff" d="M258.29,-244.86C294.54,-229.86 364.56,-200.89 405.68,-183.87"/>
<polygon fill="#63b8ff" stroke="#63b8ff" points="407.08,-187.08 414.98,-180.02 404.41,-180.61 407.08,-187.08"/>
</a>
</g>
</g>
<!-- Node7 -->
<g id="Node000007" class="node">
<title>Node7</title>
<g id="a_Node000007"><a xlink:href="classParser.html#a54de14fb280b60a07adfbf68c508b767" target="_top" xlink:title="Parses a trimmed token as an integer with error context.">
<polygon fill="white" stroke="#666666" points="866,-171 750,-171 750,-152 866,-152 866,-171"/>
<text text-anchor="middle" x="808" y="-159" font-family="Helvetica,sans-Serif" font-size="10.00">Parser::parseIntField</text>
</a>
</g>
</g>
<!-- Node6&#45;&gt;Node7 -->
<g id="edge6_Node000006_Node000007" class="edge">
<title>Node6&#45;&gt;Node7</title>
<g id="a_edge6_Node000006_Node000007"><a xlink:title=" ">
<path fill="none" stroke="#63b8ff" d="M496.72,-321.02C555.09,-327.88 646.74,-330.24 714,-292.5 758.82,-267.35 787.3,-210.53 799.74,-180.67"/>
<polygon fill="#63b8ff" stroke="#63b8ff" points="803.02,-181.91 803.48,-171.32 796.52,-179.31 803.02,-181.91"/>
</a>
</g>
</g>
<!-- Node8 -->
<g id="Node000008" class="node">
<title>Node8</title>
<g id="a_Node000008"><a xlink:href="classParser.html#aacf502fa084a101374bda3681e0d23bb" target="_top" xlink:title="Splits a CSV line by commas, respecting double&#45;quoted fields.">
<polygon fill="white" stroke="#666666" points="680,-209 587,-209 587,-190 680,-190 680,-209"/>
<text text-anchor="middle" x="633.5" y="-197" font-family="Helvetica,sans-Serif" font-size="10.00">Parser::splitCSV</text>
</a>
</g>
</g>
<!-- Node6&#45;&gt;Node8 -->
<g id="edge7_Node000006_Node000008" class="edge">
<title>Node6&#45;&gt;Node8</title>
<g id="a_edge7_Node000006_Node000008"><a xlink:title=" ">
<path fill="none" stroke="#63b8ff" d="M454.44,-301.86C470.32,-291.02 496.33,-272.56 517,-254.5 534.28,-239.4 532.99,-228.72 553,-217.5 560.36,-213.37 568.61,-210.19 576.94,-207.74"/>
<polygon fill="#63b8ff" stroke="#63b8ff" points="577.9,-211.1 586.69,-205.18 576.13,-204.33 577.9,-211.1"/>
</a>
</g>
</g>
<!-- Node10 -->
<g id="Node000010" class="node">
<title>Node10</title>
<g id="a_Node000010"><a xlink:href="classParser.html#a52df5c3f8fc72a8a486ae35a61d764d1" target="_top" xlink:title="Removes surrounding double quotes from a string value.">
<polygon fill="white" stroke="#666666" points="688,-396 579,-396 579,-377 688,-377 688,-396"/>
<text text-anchor="middle" x="633.5" y="-384" font-family="Helvetica,sans-Serif" font-size="10.00">Parser::stripQuotes</text>
</a>
</g>
</g>
<!-- Node6&#45;&gt;Node10 -->
<g id="edge9_Node000006_Node000010" class="edge">
<title>Node6&#45;&gt;Node10</title>
<g id="a_edge9_Node000006_Node000010"><a xlink:title=" ">
<path fill="none" stroke="#63b8ff" d="M455.91,-321.1C477.3,-333.64 516.81,-355.5 553,-368.5 558.94,-370.64 565.23,-372.57 571.56,-374.32"/>
<polygon fill="#63b8ff" stroke="#63b8ff" points="570.94,-377.77 581.5,-376.9 572.7,-371 570.94,-377.77"/>
</a>
</g>
</g>
<!-- Node6&#45;&gt;Node11 -->
<g id="edge11_Node000006_Node000011" class="edge">
<title>Node6&#45;&gt;Node11</title>
<g id="a_edge11_Node000006_Node000011"><a xlink:title=" ">
<path fill="none" stroke="#63b8ff" d="M488.58,-301.91C515.56,-296.58 549.23,-289.94 577.21,-284.41"/>
<polygon fill="#63b8ff" stroke="#63b8ff" points="578.11,-287.8 587.25,-282.43 576.76,-280.94 578.11,-287.8"/>
</a>
</g>
</g>
<!-- Node12 -->
<g id="Node000012" class="node">
<title>Node12</title>
<g id="a_Node000012"><a xlink:href="domain_8h.html#a0e806904288551ac6c43e2d413164657" target="_top" xlink:title="Converts an integer from the input file to a MatchMode.">
<polygon fill="white" stroke="#666666" points="675,-359 592,-359 592,-340 675,-340 675,-359"/>
<text text-anchor="middle" x="633.5" y="-347" font-family="Helvetica,sans-Serif" font-size="10.00">toMatchMode</text>
</a>
</g>
</g>
<!-- Node6&#45;&gt;Node12 -->
<g id="edge12_Node000006_Node000012" class="edge">
<title>Node6&#45;&gt;Node12</title>
<g id="a_edge12_Node000006_Node000012"><a xlink:title=" ">
<path fill="none" stroke="#63b8ff" d="M488.58,-321.09C517.07,-326.71 553.02,-333.81 581.87,-339.5"/>
<polygon fill="#63b8ff" stroke="#63b8ff" points="581.26,-342.95 591.75,-341.46 582.62,-336.09 581.26,-342.95"/>
</a>
</g>
</g>
<!-- Node8&#45;&gt;Node9 -->
<g id="edge8_Node000008_Node000009" class="edge">
<title>Node8&#45;&gt;Node9</title>
<g id="a_edge8_Node000008_Node000009"><a xlink:title=" ">
<path fill="none" stroke="#63b8ff" d="M680.25,-203.09C692.11,-205.75 704.28,-210.18 714,-217.5 765.17,-256.01 791.78,-331.28 801.98,-366.91"/>
<polygon fill="#63b8ff" stroke="#63b8ff" points="798.61,-367.88 804.62,-376.61 805.37,-366.04 798.61,-367.88"/>
</a>
</g>
</g>
<!-- Node10&#45;&gt;Node9 -->
<g id="edge10_Node000010_Node000009" class="edge">
<title>Node10&#45;&gt;Node9</title>
<g id="a_edge10_Node000010_Node000009"><a xlink:title=" ">
<path fill="none" stroke="#63b8ff" d="M688.13,-386.5C711.53,-386.5 738.68,-386.5 761.12,-386.5"/>
<polygon fill="#63b8ff" stroke="#63b8ff" points="761.39,-390 771.39,-386.5 761.39,-383 761.39,-390"/>
</a>
</g>
</g>
<!-- Node13&#45;&gt;Node7 -->
<g id="edge16_Node000013_Node000007" class="edge">
<title>Node13&#45;&gt;Node7</title>
<g id="a_edge16_Node000013_Node000007"><a xlink:title=" ">
<path fill="none" stroke="#63b8ff" d="M454.99,-225.9C475.97,-213.01 515.72,-190.57 553,-180.5 614.83,-163.8 688.01,-159.91 739.9,-159.69"/>
<polygon fill="#63b8ff" stroke="#63b8ff" points="739.98,-163.19 749.98,-159.69 739.98,-156.19 739.98,-163.19"/>
</a>
</g>
</g>
<!-- Node13&#45;&gt;Node8 -->
<g id="edge17_Node000013_Node000008" class="edge">
<title>Node13&#45;&gt;Node8</title>
<g id="a_edge17_Node000013_Node000008"><a xlink:title=" ">
<path fill="none" stroke="#63b8ff" d="M490.83,-225.99C517.3,-221.04 549.72,-214.98 576.86,-209.91"/>
<polygon fill="#63b8ff" stroke="#63b8ff" points="577.79,-213.29 586.98,-208.01 576.51,-206.41 577.79,-213.29"/>
</a>
</g>
</g>
<!-- Node13&#45;&gt;Node11 -->
<g id="edge18_Node000013_Node000011" class="edge">
<title>Node13&#45;&gt;Node11</title>
<g id="a_edge18_Node000013_Node000011"><a xlink:title=" ">
<path fill="none" stroke="#63b8ff" d="M488.58,-245.09C515.56,-250.42 549.23,-257.06 577.21,-262.59"/>
<polygon fill="#63b8ff" stroke="#63b8ff" points="576.76,-266.06 587.25,-264.57 578.11,-259.2 576.76,-266.06"/>
</a>
</g>
</g>
<!-- Node14 -->
<g id="Node000014" class="node">
<title>Node14</title>
<g id="a_Node000014"><a xlink:href="classParser.html#ac9cbf2eac7c906d2da2d95b9c16cc02e" target="_top" xlink:title="Parses a trimmed token as a boolean (0 or 1).">
<polygon fill="white" stroke="#666666" points="696,-246 571,-246 571,-227 696,-227 696,-246"/>
<text text-anchor="middle" x="633.5" y="-234" font-family="Helvetica,sans-Serif" font-size="10.00">Parser::parseBoolField</text>
</a>
</g>
</g>
<!-- Node13&#45;&gt;Node14 -->
<g id="edge14_Node000013_Node000014" class="edge">
<title>Node13&#45;&gt;Node14</title>
<g id="a_edge14_Node000013_Node000014"><a xlink:title=" ">
<path fill="none" stroke="#63b8ff" d="M514.15,-235.89C529.38,-235.96 545.39,-236.05 560.55,-236.13"/>
<polygon fill="#63b8ff" stroke="#63b8ff" points="560.86,-239.63 570.88,-236.18 560.9,-232.63 560.86,-239.63"/>
</a>
</g>
</g>
<!-- Node14&#45;&gt;Node7 -->
<g id="edge15_Node000014_Node000007" class="edge">
<title>Node14&#45;&gt;Node7</title>
<g id="a_edge15_Node000014_Node000007"><a xlink:title=" ">
<path fill="none" stroke="#63b8ff" d="M684.86,-226.94C694.7,-224.39 704.81,-221.26 714,-217.5 740,-206.87 767.24,-189.64 785.47,-177.09"/>
<polygon fill="#63b8ff" stroke="#63b8ff" points="787.95,-179.63 794.13,-171.02 783.93,-173.9 787.95,-179.63"/>
</a>
</g>
</g>
<!-- Node15&#45;&gt;Node7 -->
<g id="edge21_Node000015_Node000007" class="edge">
<title>Node15&#45;&gt;Node7</title>
<g id="a_edge21_Node000015_Node000007"><a xlink:title=" ">
<path fill="none" stroke="#63b8ff" d="M471.95,-66.97C524.72,-53.01 632.38,-32.18 714,-66.5 751.03,-82.07 780.69,-120.37 795.89,-143.3"/>
<polygon fill="#63b8ff" stroke="#63b8ff" points="792.99,-145.27 801.33,-151.81 798.89,-141.5 792.99,-145.27"/>
</a>
</g>
</g>
<!-- Node15&#45;&gt;Node8 -->
<g id="edge22_Node000015_Node000008" class="edge">
<title>Node15&#45;&gt;Node8</title>
<g id="a_edge22_Node000015_Node000008"><a xlink:title=" ">
<path fill="none" stroke="#63b8ff" d="M455.11,-86.15C488.49,-107.48 568.76,-158.77 608.87,-184.4"/>
<polygon fill="#63b8ff" stroke="#63b8ff" points="607.15,-187.46 617.47,-189.89 610.92,-181.56 607.15,-187.46"/>
</a>
</g>
</g>
<!-- Node16 -->
<g id="Node000016" class="node">
<title>Node16</title>
<g id="a_Node000016"><a xlink:href="structProblemData.html#a9f9c5ab24ac824b060f3cdb7bbd764bf" target="_top" xlink:title="Adds a reviewer with duplicate&#45;ID detection.">
<polygon fill="white" stroke="#666666" points="708.5,-19 558.5,-19 558.5,0 708.5,0 708.5,-19"/>
<text text-anchor="middle" x="633.5" y="-7" font-family="Helvetica,sans-Serif" font-size="10.00">ProblemData::addReviewer</text>
</a>
</g>
</g>
<!-- Node15&#45;&gt;Node16 -->
<g id="edge20_Node000015_Node000016" class="edge">
<title>Node15&#45;&gt;Node16</title>
<g id="a_edge20_Node000015_Node000016"><a xlink:title=" ">
<path fill="none" stroke="#63b8ff" d="M463.63,-66.95C486.37,-57.89 521.81,-44.13 553,-33.5 564.73,-29.5 577.54,-25.49 589.39,-21.91"/>
<polygon fill="#63b8ff" stroke="#63b8ff" points="590.49,-25.24 599.07,-19.02 588.49,-18.53 590.49,-25.24"/>
</a>
</g>
</g>
<!-- Node17&#45;&gt;Node7 -->
<g id="edge25_Node000017_Node000007" class="edge">
<title>Node17&#45;&gt;Node7</title>
<g id="a_edge25_Node000017_Node000007"><a xlink:title=" ">
<path fill="none" stroke="#63b8ff" d="M477.12,-160.99C499.03,-155.86 527.4,-150.08 553,-147.5 624.2,-140.33 642.64,-142.16 714,-147.5 723.43,-148.21 733.34,-149.31 743.05,-150.59"/>
<polygon fill="#63b8ff" stroke="#63b8ff" points="742.67,-154.07 753.06,-151.99 743.64,-147.14 742.67,-154.07"/>
</a>
</g>
</g>
<!-- Node17&#45;&gt;Node8 -->
<g id="edge26_Node000017_Node000008" class="edge">
<title>Node17&#45;&gt;Node8</title>
<g id="a_edge26_Node000017_Node000008"><a xlink:title=" ">
<path fill="none" stroke="#63b8ff" d="M503.3,-180.04C527.07,-183.62 553.88,-187.66 576.9,-191.12"/>
<polygon fill="#63b8ff" stroke="#63b8ff" points="576.44,-194.59 586.85,-192.62 577.48,-187.67 576.44,-194.59"/>
</a>
</g>
</g>
<!-- Node18 -->
<g id="Node000018" class="node">
<title>Node18</title>
<g id="a_Node000018"><a xlink:href="structProblemData.html#a849ef6ded60771bec2a5e1b6faf0545c" target="_top" xlink:title="Adds a submission with duplicate&#45;ID detection.">
<polygon fill="white" stroke="#666666" points="714,-95 553,-95 553,-76 714,-76 714,-95"/>
<text text-anchor="middle" x="633.5" y="-83" font-family="Helvetica,sans-Serif" font-size="10.00">ProblemData::addSubmission</text>
</a>
</g>
</g>
<!-- Node17&#45;&gt;Node18 -->
<g id="edge24_Node000017_Node000018" class="edge">
<title>Node17&#45;&gt;Node18</title>
<g id="a_edge24_Node000017_Node000018"><a xlink:title=" ">
<path fill="none" stroke="#63b8ff" d="M455.23,-160.99C476.49,-148.01 516.56,-124.65 553,-109.5 563.29,-105.22 574.62,-101.33 585.42,-98"/>
<polygon fill="#63b8ff" stroke="#63b8ff" points="586.57,-101.31 595.15,-95.09 584.56,-94.6 586.57,-101.31"/>
</a>
</g>
</g>
</g>
</svg>
