<?xml version="1.0" encoding="UTF-8" standalone="no"?>
<!DOCTYPE svg PUBLIC "-//W3C//DTD SVG 1.1//EN"
 "http://www.w3.org/Graphics/SVG/1.1/DTD/svg11.dtd">
<!-- Generated by graphviz version 2.43.0 (0)
 -->
<!-- Title: test_risk_analysis_redundant Pages: 1 -->
<svg width="966pt" height="514pt"
 viewBox="0.00 0.00 966.00 514.00" xmlns="http://www.w3.org/2000/svg" xmlns:xlink="http://www.w3.org/1999/xlink">
<g id="graph0" class="graph" transform="scale(1 1) rotate(0) translate(4 510)">
<title>test_risk_analysis_redundant</title>
<!-- Node1 -->
<g id="Node000001" class="node">
<title>Node1</title>
<g id="a_Node000001"><a xlink:title=" ">
<polygon fill="#999999" stroke="#666666" points="104,-299.5 0,-299.5 0,-269.5 104,-269.5 104,-299.5"/>
<text text-anchor="start" x="8" y="-287.5" font-family="Helvetica,sans-Serif" font-size="10.00">test_risk_analysis</text>
<text text-anchor="middle" x="52" y="-276.5" font-family="Helvetica,sans-Serif" font-size="10.00">_redundant</text>
</a>
</g>
</g>
<!-- Node2 -->
<g id="Node000002" class="node">
<title>Node2</title>
<g id="a_Node000002"><a xlink:href="structProblemData.html#a9f9c5ab24ac824b060f3cdb7bbd764bf" target="_top" xlink:title="Adds a reviewer with duplicate&#45;ID detection.">
<polygon fill="white" stroke="#666666" points="297,-331 147,-331 147,-312 297,-312 297,-331"/>
<text text-anchor="middle" x="222" y="-319" font-family="Helvetica,sans-Serif" font-size="10.00">ProblemData::addReviewer</text>
</a>
</g>
</g>
<!-- Node1&#45;&gt;Node2 -->
<g id="edge1_Node000001_Node000002" class="edge">
<title>Node1&#45;&gt;Node2</title>
<g id="a_edge1_Node000001_Node000002"><a xlink:title=" ">
<path fill="none" stroke="#63b8ff" d="M104.32,-295.8C124.38,-300.22 147.38,-305.29 167.64,-309.75"/>
<polygon fill="#63b8ff" stroke="#63b8ff" points="167.12,-313.22 177.64,-311.95 168.62,-306.38 167.12,-313.22"/>
</a>
</g>
</g>
<!-- Node3 -->
<g id="Node000003" class="node">
<title>Node3</title>
<g id="a_Node000003"><a xlink:href="structProblemData.html#a849ef6ded60771bec2a5e1b6faf0545c" target="_top" xlink:title="Adds a submission with duplicate&#45;ID detection.">
<polygon fill="white" stroke="#666666" points="302.5,-294 141.5,-294 141.5,-275 302.5,-275 302.5,-294"/>
<text text-anchor="middle" x="222" y="-282" font-family="Helvetica,sans-Serif" font-size="10.00">ProblemData::addSubmission</text>
</a>
</g>
</g>
<!-- Node1&#45;&gt;Node3 -->
<g id="edge2_Node000001_Node000003" class="edge">
<title>Node1&#45;&gt;Node3</title>
<g id="a_edge2_Node000001_Node000003"><a xlink:title=" ">
<path fill="none" stroke="#63b8ff" d="M104.32,-284.5C112.89,-284.5 122.01,-284.5 131.21,-284.5"/>
<polygon fill="#63b8ff" stroke="#63b8ff" points="131.22,-288 141.22,-284.5 131.22,-281 131.22,-288"/>
</a>
</g>
</g>
<!-- Node4 -->
<g id="Node000004" class="node">
<title>Node4</title>
<g id="a_Node000004"><a xlink:href="classSolver.html#ae2ca491c309b717821844e7f2a9ea629" target="_top" xlink:title="Performs Risk Analysis with parameter K = 1.">
<polygon fill="white" stroke="#666666" points="304,-257 140,-257 140,-238 304,-238 304,-257"/>
<text text-anchor="middle" x="222" y="-245" font-family="Helvetica,sans-Serif" font-size="10.00">Solver::solveWithRiskAnalysis</text>
</a>
</g>
</g>
<!-- Node1&#45;&gt;Node4 -->
<g id="edge3_Node000001_Node000004" class="edge">
<title>Node1&#45;&gt;Node4</title>
<g id="a_edge3_Node000001_Node000004"><a xlink:title=" ">
<path fill="none" stroke="#63b8ff" d="M104.32,-273.2C124.38,-268.78 147.38,-263.71 167.64,-259.25"/>
<polygon fill="#63b8ff" stroke="#63b8ff" points="168.62,-262.62 177.64,-257.05 167.12,-255.78 168.62,-262.62"/>
</a>
</g>
</g>
<!-- Node5 -->
<g id="Node000005" class="node">
<title>Node5</title>
<g id="a_Node000005"><a xlink:href="classNetworkBuilder.html#af514e79c3d2f21597c54e01c4ce9475d" target="_top" xlink:title="Builds the complete flow network.">
<polygon fill="white" stroke="#666666" points="504,-257 340,-257 340,-238 504,-238 504,-257"/>
<text text-anchor="middle" x="422" y="-245" font-family="Helvetica,sans-Serif" font-size="10.00">NetworkBuilder::buildNetwork</text>
</a>
</g>
</g>
<!-- Node4&#45;&gt;Node5 -->
<g id="edge4_Node000004_Node000005" class="edge">
<title>Node4&#45;&gt;Node5</title>
<g id="a_edge4_Node000004_Node000005"><a xlink:title=" ">
<path fill="none" stroke="#63b8ff" d="M304.11,-247.5C312.46,-247.5 320.99,-247.5 329.44,-247.5"/>
<polygon fill="#63b8ff" stroke="#63b8ff" points="329.7,-251 339.7,-247.5 329.7,-244 329.7,-251"/>
</a>
</g>
</g>
<!-- Node10 -->
<g id="Node000010" class="node">
<title>Node10</title>
<g id="a_Node000010"><a xlink:href="structProblemData.html#a8972080e7733220bd51b437e111bf5c9" target="_top" xlink:title="Number of reviewers.">
<polygon fill="white" stroke="#666666" points="721.5,-392 562.5,-392 562.5,-373 721.5,-373 721.5,-392"/>
<text text-anchor="middle" x="642" y="-380" font-family="Helvetica,sans-Serif" font-size="10.00">ProblemData::numReviewers</text>
</a>
</g>
</g>
<!-- Node4&#45;&gt;Node10 -->
<g id="edge28_Node000004_Node000010" class="edge">
<title>Node4&#45;&gt;Node10</title>
<g id="a_edge28_Node000004_Node000010"><a xlink:title=" ">
<path fill="none" stroke="#63b8ff" d="M269.17,-257.03C280.65,-259.75 292.85,-262.96 304,-266.5 395.4,-295.54 416.16,-309.01 504,-347.5 520.21,-354.6 523.14,-359.12 540,-364.5 547.54,-366.91 555.5,-369.02 563.52,-370.87"/>
<polygon fill="#63b8ff" stroke="#63b8ff" points="562.78,-374.29 573.3,-372.99 564.27,-367.45 562.78,-374.29"/>
</a>
</g>
</g>
<!-- Node11 -->
<g id="Node000011" class="node">
<title>Node11</title>
<g id="a_Node000011"><a xlink:href="structProblemData.html#af8f49cc7cddaa7219f2a6f3bc9853474" target="_top" xlink:title="Number of submissions.">
<polygon fill="white" stroke="#666666" points="727,-167 557,-167 557,-148 727,-148 727,-167"/>
<text text-anchor="middle" x="642" y="-155" font-family="Helvetica,sans-Serif" font-size="10.00">ProblemData::numSubmissions</text>
</a>
</g>
</g>
<!-- Node4&#45;&gt;Node11 -->
<g id="edge29_Node000004_Node000011" class="edge">
<title>Node4&#45;&gt;Node11</title>
<g id="a_edge29_Node000004_Node000011"><a xlink:title=" ">
<path fill="none" stroke="#63b8ff" d="M267.34,-237.95C344.57,-221.33 503.48,-187.11 587,-169.13"/>
<polygon fill="#63b8ff" stroke="#63b8ff" points="587.76,-172.54 596.8,-167.02 586.29,-165.7 587.76,-172.54"/>
</a>
</g>
</g>
<!-- Node12 -->
<g id="Node000012" class="node">
<title>Node12</title>
<g id="a_Node000012"><a xlink:href="classNetworkBuilder.html#a0b1fedb0791107aa56d1022f3964269f" target="_top" xlink:title="Maps a reviewer&#39;s vector index to its graph node ID.">
<polygon fill="white" stroke="#666666" points="725.5,-130 558.5,-130 558.5,-111 725.5,-111 725.5,-130"/>
<text text-anchor="middle" x="642" y="-118" font-family="Helvetica,sans-Serif" font-size="10.00">NetworkBuilder::reviewerNode</text>
</a>
</g>
</g>
<!-- Node4&#45;&gt;Node12 -->
<g id="edge30_Node000004_Node000012" class="edge">
<title>Node4&#45;&gt;Node12</title>
<g id="a_edge30_Node000004_Node000012"><a xlink:title=" ">
<path fill="none" stroke="#63b8ff" d="M237.9,-237.78C259.55,-224.05 301.35,-199.05 340,-184.5 410.45,-157.98 494.54,-141.27 555.91,-131.6"/>
<polygon fill="#63b8ff" stroke="#63b8ff" points="556.59,-135.03 565.94,-130.05 555.52,-128.11 556.59,-135.03"/>
</a>
</g>
</g>
<!-- Node16 -->
<g id="Node000016" class="node">
<title>Node16</title>
<g id="a_Node000016"><a xlink:href="classGraph.html#a24e78627debf97e225128856196398dc" target="_top" xlink:title="Disables all edges from a specific node by setting capacity to 0.">
<polygon fill="white" stroke="#666666" points="478.5,-375 365.5,-375 365.5,-356 478.5,-356 478.5,-375"/>
<text text-anchor="middle" x="422" y="-363" font-family="Helvetica,sans-Serif" font-size="10.00">Graph::disableNode</text>
</a>
</g>
</g>
<!-- Node4&#45;&gt;Node16 -->
<g id="edge15_Node000004_Node000016" class="edge">
<title>Node4&#45;&gt;Node16</title>
<g id="a_edge15_Node000004_Node000016"><a xlink:title=" ">
<path fill="none" stroke="#63b8ff" d="M284.57,-257.14C291.42,-259.59 298.06,-262.66 304,-266.5 326.1,-280.78 320.64,-295.68 340,-313.5 356.03,-328.26 376.75,-341.47 393.22,-350.89"/>
<polygon fill="#63b8ff" stroke="#63b8ff" points="391.92,-354.17 402.36,-355.98 395.32,-348.05 391.92,-354.17"/>
</a>
</g>
</g>
<!-- Node17 -->
<g id="Node000017" class="node">
<title>Node17</title>
<g id="a_Node000017"><a xlink:href="classGraph.html#afd2749a1cd58db2d3b6fa6eef639399c" target="_top" xlink:title="Computes the maximum flow from source to sink using Edmonds&#45;Karp.">
<polygon fill="white" stroke="#666666" points="481.5,-468 362.5,-468 362.5,-449 481.5,-449 481.5,-468"/>
<text text-anchor="middle" x="422" y="-456" font-family="Helvetica,sans-Serif" font-size="10.00">Graph::edmondsKarp</text>
</a>
</g>
</g>
<!-- Node4&#45;&gt;Node17 -->
<g id="edge17_Node000004_Node000017" class="edge">
<title>Node4&#45;&gt;Node17</title>
<g id="a_edge17_Node000004_Node000017"><a xlink:title=" ">
<path fill="none" stroke="#63b8ff" d="M290.07,-257.01C295.15,-259.53 299.89,-262.65 304,-266.5 344.02,-303.98 310.72,-338.14 340,-384.5 355.12,-408.44 380,-429.53 398.2,-443.01"/>
<polygon fill="#63b8ff" stroke="#63b8ff" points="396.36,-446 406.53,-448.99 400.45,-440.32 396.36,-446"/>
</a>
</g>
</g>
<!-- Node20 -->
<g id="Node000020" class="node">
<title>Node20</title>
<g id="a_Node000020"><a xlink:href="classSolver.html#ab064c56e0bda025818ce6f8461dd4e80" target="_top" xlink:title="Extracts the assignment from the solved flow network.">
<polygon fill="white" stroke="#666666" points="481.5,-93 362.5,-93 362.5,-74 481.5,-74 481.5,-93"/>
<text text-anchor="middle" x="422" y="-81" font-family="Helvetica,sans-Serif" font-size="10.00">Solver::extractResult</text>
</a>
</g>
</g>
<!-- Node4&#45;&gt;Node20 -->
<g id="edge21_Node000004_Node000020" class="edge">
<title>Node4&#45;&gt;Node20</title>
<g id="a_edge21_Node000004_Node000020"><a xlink:title=" ">
<path fill="none" stroke="#63b8ff" d="M231.08,-237.86C249.12,-216.72 294.69,-165.35 340,-130.5 356.38,-117.91 376.45,-106.24 392.52,-97.67"/>
<polygon fill="#63b8ff" stroke="#63b8ff" points="394.21,-100.74 401.46,-93.01 390.97,-94.53 394.21,-100.74"/>
</a>
</g>
</g>
<!-- Node6 -->
<g id="Node000006" class="node">
<title>Node6</title>
<g id="a_Node000006"><a xlink:href="classGraph.html#a8cdfb932968807565b3cc3b52759e3b8" target="_top" xlink:title="Adds a directed edge (u → v) with the given capacity, along with its reverse edge (v → u) with capaci...">
<polygon fill="white" stroke="#666666" points="689,-355 595,-355 595,-336 689,-336 689,-355"/>
<text text-anchor="middle" x="642" y="-343" font-family="Helvetica,sans-Serif" font-size="10.00">Graph::addEdge</text>
</a>
</g>
</g>
<!-- Node5&#45;&gt;Node6 -->
<g id="edge5_Node000005_Node000006" class="edge">
<title>Node5&#45;&gt;Node6</title>
<g id="a_edge5_Node000005_Node000006"><a xlink:title=" ">
<path fill="none" stroke="#63b8ff" d="M450.49,-257.02C466.98,-263.52 487.81,-273.18 504,-285.5 523.57,-300.39 518.66,-315.3 540,-327.5 553.57,-335.26 569.71,-339.81 585.06,-342.45"/>
<polygon fill="#63b8ff" stroke="#63b8ff" points="584.59,-345.92 595,-343.92 585.62,-338.99 584.59,-345.92"/>
</a>
</g>
</g>
<!-- Node8 -->
<g id="Node000008" class="node">
<title>Node8</title>
<g id="a_Node000008"><a xlink:href="classNetworkBuilder.html#acc9979fa0114fda405375f52dbe49a84" target="_top" xlink:title="Determines if a reviewer can review a submission based on domain matching.">
<polygon fill="white" stroke="#666666" points="723.5,-281 560.5,-281 560.5,-262 723.5,-262 723.5,-281"/>
<text text-anchor="middle" x="642" y="-269" font-family="Helvetica,sans-Serif" font-size="10.00">NetworkBuilder::isCompatible</text>
</a>
</g>
</g>
<!-- Node5&#45;&gt;Node8 -->
<g id="edge7_Node000005_Node000008" class="edge">
<title>Node5&#45;&gt;Node8</title>
<g id="a_edge7_Node000005_Node000008"><a xlink:title=" ">
<path fill="none" stroke="#63b8ff" d="M504.18,-256.44C519.27,-258.1 535.13,-259.84 550.48,-261.53"/>
<polygon fill="#63b8ff" stroke="#63b8ff" points="550.16,-265.02 560.48,-262.64 550.93,-258.06 550.16,-265.02"/>
</a>
</g>
</g>
<!-- Node5&#45;&gt;Node10 -->
<g id="edge9_Node000005_Node000010" class="edge">
<title>Node5&#45;&gt;Node10</title>
<g id="a_edge9_Node000005_Node000010"><a xlink:title=" ">
<path fill="none" stroke="#63b8ff" d="M456.19,-257.06C472.28,-263.07 490.89,-272.25 504,-285.5 531.13,-312.93 509.51,-340.85 540,-364.5 544.07,-367.66 548.52,-370.34 553.19,-372.6"/>
<polygon fill="#63b8ff" stroke="#63b8ff" points="551.87,-375.83 562.44,-376.45 554.56,-369.37 551.87,-375.83"/>
</a>
</g>
</g>
<!-- Node5&#45;&gt;Node11 -->
<g id="edge10_Node000005_Node000011" class="edge">
<title>Node5&#45;&gt;Node11</title>
<g id="a_edge10_Node000005_Node000011"><a xlink:title=" ">
<path fill="none" stroke="#63b8ff" d="M453.48,-237.99C469.22,-232.37 488.35,-224.41 504,-214.5 522.34,-202.89 520.82,-191.67 540,-181.5 549.05,-176.7 559.06,-172.85 569.16,-169.76"/>
<polygon fill="#63b8ff" stroke="#63b8ff" points="570.16,-173.11 578.84,-167.03 568.26,-166.38 570.16,-173.11"/>
</a>
</g>
</g>
<!-- Node5&#45;&gt;Node12 -->
<g id="edge11_Node000005_Node000012" class="edge">
<title>Node5&#45;&gt;Node12</title>
<g id="a_edge11_Node000005_Node000012"><a xlink:title=" ">
<path fill="none" stroke="#63b8ff" d="M430.22,-237.7C446.86,-215.88 490.33,-163.31 540,-138.5 543.85,-136.58 547.88,-134.85 552.02,-133.31"/>
<polygon fill="#63b8ff" stroke="#63b8ff" points="553.44,-136.53 561.82,-130.04 551.23,-129.89 553.44,-136.53"/>
</a>
</g>
</g>
<!-- Node13 -->
<g id="Node000013" class="node">
<title>Node13</title>
<g id="a_Node000013"><a xlink:href="classNetworkBuilder.html#a508fc4af685c78c10f96ab39610d4040" target="_top" xlink:title="Maps a submission&#39;s vector index to its graph node ID.">
<polygon fill="white" stroke="#666666" points="731.5,-318 552.5,-318 552.5,-299 731.5,-299 731.5,-318"/>
<text text-anchor="middle" x="642" y="-306" font-family="Helvetica,sans-Serif" font-size="10.00">NetworkBuilder::submissionNode</text>
</a>
</g>
</g>
<!-- Node5&#45;&gt;Node13 -->
<g id="edge12_Node000005_Node000013" class="edge">
<title>Node5&#45;&gt;Node13</title>
<g id="a_edge12_Node000005_Node000013"><a xlink:title=" ">
<path fill="none" stroke="#63b8ff" d="M445.48,-257.11C468.76,-266.74 506.37,-281.4 540,-290.5 548.84,-292.89 558.2,-295.05 567.52,-296.97"/>
<polygon fill="#63b8ff" stroke="#63b8ff" points="567.1,-300.45 577.58,-298.96 568.45,-293.59 567.1,-300.45"/>
</a>
</g>
</g>
<!-- Node14 -->
<g id="Node000014" class="node">
<title>Node14</title>
<g id="a_Node000014"><a xlink:href="structConfig.html#a89db87ddce24e353ccabde8d0dc70ade" target="_top" xlink:title="Determines if reviewer secondary expertise should be used in matching.">
<polygon fill="white" stroke="#666666" points="952.5,-215 785.5,-215 785.5,-196 952.5,-196 952.5,-215"/>
<text text-anchor="middle" x="869" y="-203" font-family="Helvetica,sans-Serif" font-size="10.00">Config::useReviewerSecondary</text>
</a>
</g>
</g>
<!-- Node5&#45;&gt;Node14 -->
<g id="edge13_Node000005_Node000014" class="edge">
<title>Node5&#45;&gt;Node14</title>
<g id="a_edge13_Node000005_Node000014"><a xlink:title=" ">
<path fill="none" stroke="#63b8ff" d="M504.1,-239.85C580.55,-232.63 695.03,-221.83 775.11,-214.27"/>
<polygon fill="#63b8ff" stroke="#63b8ff" points="775.57,-217.74 785.19,-213.32 774.91,-210.77 775.57,-217.74"/>
</a>
</g>
</g>
<!-- Node15 -->
<g id="Node000015" class="node">
<title>Node15</title>
<g id="a_Node000015"><a xlink:href="structConfig.html#a936e7b5bd16f50374b648f00465f1a32" target="_top" xlink:title="Determines if submission secondary domains should be used in matching.">
<polygon fill="white" stroke="#666666" points="958,-149 780,-149 780,-130 958,-130 958,-149"/>
<text text-anchor="middle" x="869" y="-137" font-family="Helvetica,sans-Serif" font-size="10.00">Config::useSubmissionSecondary</text>
</a>
</g>
</g>
<!-- Node5&#45;&gt;Node15 -->
<g id="edge14_Node000005_Node000015" class="edge">
<title>Node5&#45;&gt;Node15</title>
<g id="a_edge14_Node000005_Node000015"><a xlink:title=" ">
<path fill="none" stroke="#63b8ff" d="M452.59,-237.98C476.11,-230.64 509.94,-220.57 540,-213.5 629.7,-192.39 654.38,-197.93 744,-176.5 773,-169.57 805.26,-159.88 829.6,-152.15"/>
<polygon fill="#63b8ff" stroke="#63b8ff" points="830.73,-155.47 839.18,-149.09 828.59,-148.8 830.73,-155.47"/>
</a>
</g>
</g>
<!-- Node7 -->
<g id="Node000007" class="node">
<title>Node7</title>
<g id="a_Node000007"><a xlink:href="classGraph.html#a0a3f35d90f69456655a046806c725063" target="_top" xlink:title="Returns the number of nodes in the graph.">
<polygon fill="white" stroke="#666666" points="921,-430 817,-430 817,-411 921,-411 921,-430"/>
<text text-anchor="middle" x="869" y="-418" font-family="Helvetica,sans-Serif" font-size="10.00">Graph::numNodes</text>
</a>
</g>
</g>
<!-- Node6&#45;&gt;Node7 -->
<g id="edge6_Node000006_Node000007" class="edge">
<title>Node6&#45;&gt;Node7</title>
<g id="a_edge6_Node000006_Node000007"><a xlink:title=" ">
<path fill="none" stroke="#63b8ff" d="M689.07,-351.79C706.51,-354.79 726.39,-358.95 744,-364.5 778.81,-375.46 816.76,-393.59 841.39,-406.24"/>
<polygon fill="#63b8ff" stroke="#63b8ff" points="839.97,-409.44 850.46,-410.96 843.2,-403.24 839.97,-409.44"/>
</a>
</g>
</g>
<!-- Node9 -->
<g id="Node000009" class="node">
<title>Node9</title>
<g id="a_Node000009"><a xlink:href="structSubmission.html#a19ab1b3a6dc11bd0b8254be4cbc31d2d" target="_top" xlink:title="Checks if this submission covers the given domain.">
<polygon fill="white" stroke="#666666" points="936,-281 802,-281 802,-262 936,-262 936,-281"/>
<text text-anchor="middle" x="869" y="-269" font-family="Helvetica,sans-Serif" font-size="10.00">Submission::hasDomain</text>
</a>
</g>
</g>
<!-- Node8&#45;&gt;Node9 -->
<g id="edge8_Node000008_Node000009" class="edge">
<title>Node8&#45;&gt;Node9</title>
<g id="a_edge8_Node000008_Node000009"><a xlink:title=" ">
<path fill="none" stroke="#63b8ff" d="M723.59,-271.5C745.69,-271.5 769.58,-271.5 791.45,-271.5"/>
<polygon fill="#63b8ff" stroke="#63b8ff" points="791.67,-275 801.67,-271.5 791.67,-268 791.67,-275"/>
</a>
</g>
</g>
<!-- Node16&#45;&gt;Node7 -->
<g id="edge16_Node000016_Node000007" class="edge">
<title>Node16&#45;&gt;Node7</title>
<g id="a_edge16_Node000016_Node000007"><a xlink:title=" ">
<path fill="none" stroke="#63b8ff" d="M448.13,-375.16C471.53,-383.7 507.58,-395.66 540,-401.5 631.92,-418.05 740.44,-421.2 806.72,-421.33"/>
<polygon fill="#63b8ff" stroke="#63b8ff" points="806.99,-424.83 816.98,-421.32 806.98,-417.83 806.99,-424.83"/>
</a>
</g>
</g>
<!-- Node17&#45;&gt;Node7 -->
<g id="edge20_Node000017_Node000007" class="edge">
<title>Node17&#45;&gt;Node7</title>
<g id="a_edge20_Node000017_Node000007"><a xlink:title=" ">
<path fill="none" stroke="#63b8ff" d="M481.63,-454.78C546.03,-450.55 652.47,-443.09 744,-434.5 764.39,-432.59 786.63,-430.18 806.57,-427.9"/>
<polygon fill="#63b8ff" stroke="#63b8ff" points="807.23,-431.35 816.76,-426.72 806.43,-424.39 807.23,-431.35"/>
</a>
</g>
</g>
<!-- Node18 -->
<g id="Node000018" class="node">
<title>Node18</title>
<g id="a_Node000018"><a xlink:href="classGraph.html#a348391db529c20a826a1483fe7bdcb9a" target="_top" xlink:title="BFS on the residual graph to find the shortest augmenting path.">
<polygon fill="white" stroke="#666666" points="675.5,-506 608.5,-506 608.5,-487 675.5,-487 675.5,-506"/>
<text text-anchor="middle" x="642" y="-494" font-family="Helvetica,sans-Serif" font-size="10.00">Graph::bfs</text>
</a>
</g>
</g>
<!-- Node17&#45;&gt;Node18 -->
<g id="edge18_Node000017_Node000018" class="edge">
<title>Node17&#45;&gt;Node18</title>
<g id="a_edge18_Node000017_Node000018"><a xlink:title=" ">
<path fill="none" stroke="#63b8ff" d="M477.73,-468.04C514.99,-474.54 563.61,-483.01 598.08,-489.02"/>
<polygon fill="#63b8ff" stroke="#63b8ff" points="597.84,-492.53 608.29,-490.8 599.04,-485.63 597.84,-492.53"/>
</a>
</g>
</g>
<!-- Node19 -->
<g id="Node000019" class="node">
<title>Node19</title>
<g id="a_Node000019"><a xlink:href="structEdge.html#a0b45154adf516897233895a25fad355e" target="_top" xlink:title="Residual capacity of this edge.">
<polygon fill="white" stroke="#666666" points="912,-506 826,-506 826,-487 912,-487 912,-506"/>
<text text-anchor="middle" x="869" y="-494" font-family="Helvetica,sans-Serif" font-size="10.00">Edge::residual</text>
</a>
</g>
</g>
<!-- Node18&#45;&gt;Node19 -->
<g id="edge19_Node000018_Node000019" class="edge">
<title>Node18&#45;&gt;Node19</title>
<g id="a_edge19_Node000018_Node000019"><a xlink:title=" ">
<path fill="none" stroke="#63b8ff" d="M675.72,-496.5C712.39,-496.5 772.36,-496.5 815.59,-496.5"/>
<polygon fill="#63b8ff" stroke="#63b8ff" points="815.64,-500 825.64,-496.5 815.64,-493 815.64,-500"/>
</a>
</g>
</g>
<!-- Node20&#45;&gt;Node12 -->
<g id="edge27_Node000020_Node000012" class="edge">
<title>Node20&#45;&gt;Node12</title>
<g id="a_edge27_Node000020_Node000012"><a xlink:title=" ">
<path fill="none" stroke="#63b8ff" d="M479.14,-93.03C508.27,-97.97 544.04,-104.04 574.55,-109.22"/>
<polygon fill="#63b8ff" stroke="#63b8ff" points="574.23,-112.72 584.67,-110.94 575.4,-105.82 574.23,-112.72"/>
</a>
</g>
</g>
<!-- Node21 -->
<g id="Node000021" class="node">
<title>Node21</title>
<g id="a_Node000021"><a xlink:href="classSolver.html#a0a32ae51c07e104de80b39cceaaf325f" target="_top" xlink:title="Determines which domain code caused the match between a reviewer and submission.">
<polygon fill="white" stroke="#666666" points="718,-93 566,-93 566,-74 718,-74 718,-93"/>
<text text-anchor="middle" x="642" y="-81" font-family="Helvetica,sans-Serif" font-size="10.00">Solver::findMatchedDomain</text>
</a>
</g>
</g>
<!-- Node20&#45;&gt;Node21 -->
<g id="edge22_Node000020_Node000021" class="edge">
<title>Node20&#45;&gt;Node21</title>
<g id="a_edge22_Node000020_Node000021"><a xlink:title=" ">
<path fill="none" stroke="#63b8ff" d="M481.71,-83.5C504.43,-83.5 530.89,-83.5 555.63,-83.5"/>
<polygon fill="#63b8ff" stroke="#63b8ff" points="555.75,-87 565.75,-83.5 555.75,-80 555.75,-87"/>
</a>
</g>
</g>
<!-- Node22 -->
<g id="Node000022" class="node">
<title>Node22</title>
<g id="a_Node000022"><a xlink:href="classGraph.html#af5f263b25175df3f5511ff5ede0a63aa" target="_top" xlink:title="Returns the adjacency list of a given node (const).">
<polygon fill="white" stroke="#666666" points="683.5,-56 600.5,-56 600.5,-37 683.5,-37 683.5,-56"/>
<text text-anchor="middle" x="642" y="-44" font-family="Helvetica,sans-Serif" font-size="10.00">Graph::getAdj</text>
</a>
</g>
</g>
<!-- Node20&#45;&gt;Node22 -->
<g id="edge25_Node000020_Node000022" class="edge">
<title>Node20&#45;&gt;Node22</title>
<g id="a_edge25_Node000020_Node000022"><a xlink:title=" ">
<path fill="none" stroke="#63b8ff" d="M479.14,-73.97C513.44,-68.15 556.95,-60.77 590.22,-55.12"/>
<polygon fill="#63b8ff" stroke="#63b8ff" points="590.92,-58.55 600.2,-53.43 589.75,-51.65 590.92,-58.55"/>
</a>
</g>
</g>
<!-- Node23 -->
<g id="Node000023" class="node">
<title>Node23</title>
<g id="a_Node000023"><a xlink:href="classNetworkBuilder.html#a4efdb0e13d73f6f3cbf38b4cd11a5ef3" target="_top" xlink:title="Inverse: given a graph node ID, returns the submission vector index.">
<polygon fill="white" stroke="#666666" points="744,-19 540,-19 540,0 744,0 744,-19"/>
<text text-anchor="middle" x="642" y="-7" font-family="Helvetica,sans-Serif" font-size="10.00">NetworkBuilder::nodeToSubmissionIdx</text>
</a>
</g>
</g>
<!-- Node20&#45;&gt;Node23 -->
<g id="edge26_Node000020_Node000023" class="edge">
<title>Node20&#45;&gt;Node23</title>
<g id="a_edge26_Node000020_Node000023"><a xlink:title=" ">
<path fill="none" stroke="#63b8ff" d="M439.46,-73.86C461.59,-61.31 502.49,-39.57 540,-27.5 547.39,-25.12 555.19,-23.03 563.05,-21.2"/>
<polygon fill="#63b8ff" stroke="#63b8ff" points="563.99,-24.58 573.01,-19.02 562.5,-17.74 563.99,-24.58"/>
</a>
</g>
</g>
<!-- Node21&#45;&gt;Node14 -->
<g id="edge23_Node000021_Node000014" class="edge">
<title>Node21&#45;&gt;Node14</title>
<g id="a_edge23_Node000021_Node000014"><a xlink:title=" ">
<path fill="none" stroke="#63b8ff" d="M718.25,-89.71C727.38,-92.5 736.22,-96.31 744,-101.5 768.62,-117.91 758.34,-137.34 780,-157.5 795.59,-172 816.37,-183.61 833.83,-191.77"/>
<polygon fill="#63b8ff" stroke="#63b8ff" points="832.58,-195.04 843.13,-195.95 835.45,-188.66 832.58,-195.04"/>
</a>
</g>
</g>
<!-- Node21&#45;&gt;Node15 -->
<g id="edge24_Node000021_Node000015" class="edge">
<title>Node21&#45;&gt;Node15</title>
<g id="a_edge24_Node000021_Node000015"><a xlink:title=" ">
<path fill="none" stroke="#63b8ff" d="M703.33,-93.02C716.78,-95.48 730.93,-98.34 744,-101.5 773.43,-108.6 806.16,-118.73 830.6,-126.74"/>
<polygon fill="#63b8ff" stroke="#63b8ff" points="829.6,-130.1 840.2,-129.92 831.8,-123.46 829.6,-130.1"/>
</a>
</g>
</g>
</g>
</svg>
