<?xml version="1.0" encoding="UTF-8" standalone="no"?>
<!DOCTYPE svg PUBLIC "-//W3C//DTD SVG 1.1//EN"
 "http://www.w3.org/Graphics/SVG/1.1/DTD/svg11.dtd">
<!-- Generated by graphviz version 2.43.0 (0)
 -->
<!-- Title: test_secondary_match Pages: 1 -->
<svg width="986pt" height="477pt"
 viewBox="0.00 0.00 986.00 477.00" xmlns="http://www.w3.org/2000/svg" xmlns:xlink="http://www.w3.org/1999/xlink">
<g id="graph0" class="graph" transform="scale(1 1) rotate(0) translate(4 473)">
<title>test_secondary_match</title>
<!-- Node1 -->
<g id="Node000001" class="node">
<title>Node1</title>
<g id="a_Node000001"><a xlink:title=" ">
<polygon fill="#999999" stroke="#666666" points="127,-299 0,-299 0,-280 127,-280 127,-299"/>
<text text-anchor="middle" x="63.5" y="-287" font-family="Helvetica,sans-Serif" font-size="10.00">test_secondary_match</text>
</a>
</g>
</g>
<!-- Node2 -->
<g id="Node000002" class="node">
<title>Node2</title>
<g id="a_Node000002"><a xlink:href="structProblemData.html#a9f9c5ab24ac824b060f3cdb7bbd764bf" target="_top" xlink:title="Adds a reviewer with duplicate&#45;ID detection.">
<polygon fill="white" stroke="#666666" points="318.5,-336 168.5,-336 168.5,-317 318.5,-317 318.5,-336"/>
<text text-anchor="middle" x="243.5" y="-324" font-family="Helvetica,sans-Serif" font-size="10.00">ProblemData::addReviewer</text>
</a>
</g>
</g>
<!-- Node1&#45;&gt;Node2 -->
<g id="edge1_Node000001_Node000002" class="edge">
<title>Node1&#45;&gt;Node2</title>
<g id="a_edge1_Node000001_Node000002"><a xlink:title=" ">
<path fill="none" stroke="#63b8ff" d="M110.34,-299.03C133.61,-303.86 162.07,-309.78 186.61,-314.88"/>
<polygon fill="#63b8ff" stroke="#63b8ff" points="186,-318.33 196.51,-316.94 187.43,-311.48 186,-318.33"/>
</a>
</g>
</g>
<!-- Node3 -->
<g id="Node000003" class="node">
<title>Node3</title>
<g id="a_Node000003"><a xlink:href="structProblemData.html#a849ef6ded60771bec2a5e1b6faf0545c" target="_top" xlink:title="Adds a submission with duplicate&#45;ID detection.">
<polygon fill="white" stroke="#666666" points="324,-299 163,-299 163,-280 324,-280 324,-299"/>
<text text-anchor="middle" x="243.5" y="-287" font-family="Helvetica,sans-Serif" font-size="10.00">ProblemData::addSubmission</text>
</a>
</g>
</g>
<!-- Node1&#45;&gt;Node3 -->
<g id="edge2_Node000001_Node000003" class="edge">
<title>Node1&#45;&gt;Node3</title>
<g id="a_edge2_Node000001_Node000003"><a xlink:title=" ">
<path fill="none" stroke="#63b8ff" d="M127.01,-289.5C135.36,-289.5 144.05,-289.5 152.76,-289.5"/>
<polygon fill="#63b8ff" stroke="#63b8ff" points="152.96,-293 162.96,-289.5 152.96,-286 152.96,-293"/>
</a>
</g>
</g>
<!-- Node4 -->
<g id="Node000004" class="node">
<title>Node4</title>
<g id="a_Node000004"><a xlink:href="classSolver.html#a845e12dc97a5d14a365b1e3001aba114" target="_top" xlink:title="Solves the assignment problem for the given data.">
<polygon fill="white" stroke="#666666" points="283.5,-262 203.5,-262 203.5,-243 283.5,-243 283.5,-262"/>
<text text-anchor="middle" x="243.5" y="-250" font-family="Helvetica,sans-Serif" font-size="10.00">Solver::solve</text>
</a>
</g>
</g>
<!-- Node1&#45;&gt;Node4 -->
<g id="edge3_Node000001_Node000004" class="edge">
<title>Node1&#45;&gt;Node4</title>
<g id="a_edge3_Node000001_Node000004"><a xlink:title=" ">
<path fill="none" stroke="#63b8ff" d="M110.34,-279.97C135.8,-274.68 167.48,-268.09 193.44,-262.7"/>
<polygon fill="#63b8ff" stroke="#63b8ff" points="194.37,-266.08 203.45,-260.62 192.95,-259.23 194.37,-266.08"/>
</a>
</g>
</g>
<!-- Node5 -->
<g id="Node000005" class="node">
<title>Node5</title>
<g id="a_Node000005"><a xlink:href="classNetworkBuilder.html#af514e79c3d2f21597c54e01c4ce9475d" target="_top" xlink:title="Builds the complete flow network.">
<polygon fill="white" stroke="#666666" points="524,-262 360,-262 360,-243 524,-243 524,-262"/>
<text text-anchor="middle" x="442" y="-250" font-family="Helvetica,sans-Serif" font-size="10.00">NetworkBuilder::buildNetwork</text>
</a>
</g>
</g>
<!-- Node4&#45;&gt;Node5 -->
<g id="edge4_Node000004_Node000005" class="edge">
<title>Node4&#45;&gt;Node5</title>
<g id="a_edge4_Node000004_Node000005"><a xlink:title=" ">
<path fill="none" stroke="#63b8ff" d="M283.79,-252.5C302.82,-252.5 326.52,-252.5 349.71,-252.5"/>
<polygon fill="#63b8ff" stroke="#63b8ff" points="349.95,-256 359.95,-252.5 349.95,-249 349.95,-256"/>
</a>
</g>
</g>
<!-- Node10 -->
<g id="Node000010" class="node">
<title>Node10</title>
<g id="a_Node000010"><a xlink:href="structProblemData.html#a8972080e7733220bd51b437e111bf5c9" target="_top" xlink:title="Number of reviewers.">
<polygon fill="white" stroke="#666666" points="741.5,-393 582.5,-393 582.5,-374 741.5,-374 741.5,-393"/>
<text text-anchor="middle" x="662" y="-381" font-family="Helvetica,sans-Serif" font-size="10.00">ProblemData::numReviewers</text>
</a>
</g>
</g>
<!-- Node4&#45;&gt;Node10 -->
<g id="edge26_Node000004_Node000010" class="edge">
<title>Node4&#45;&gt;Node10</title>
<g id="a_edge26_Node000004_Node000010"><a xlink:title=" ">
<path fill="none" stroke="#63b8ff" d="M283.63,-260.67C296.59,-263.68 311.01,-267.39 324,-271.5 431.63,-305.6 451.42,-334.55 560,-365.5 568.4,-367.89 577.29,-370.03 586.17,-371.92"/>
<polygon fill="#63b8ff" stroke="#63b8ff" points="585.67,-375.39 596.17,-373.96 587.07,-368.53 585.67,-375.39"/>
</a>
</g>
</g>
<!-- Node11 -->
<g id="Node000011" class="node">
<title>Node11</title>
<g id="a_Node000011"><a xlink:href="structProblemData.html#af8f49cc7cddaa7219f2a6f3bc9853474" target="_top" xlink:title="Number of submissions.">
<polygon fill="white" stroke="#666666" points="747,-167 577,-167 577,-148 747,-148 747,-167"/>
<text text-anchor="middle" x="662" y="-155" font-family="Helvetica,sans-Serif" font-size="10.00">ProblemData::numSubmissions</text>
</a>
</g>
</g>
<!-- Node4&#45;&gt;Node11 -->
<g id="edge27_Node000004_Node000011" class="edge">
<title>Node4&#45;&gt;Node11</title>
<g id="a_edge27_Node000004_Node000011"><a xlink:title=" ">
<path fill="none" stroke="#63b8ff" d="M283.68,-243.56C359.19,-226.34 524.81,-188.56 609.27,-169.3"/>
<polygon fill="#63b8ff" stroke="#63b8ff" points="610.18,-172.68 619.15,-167.05 608.62,-165.86 610.18,-172.68"/>
</a>
</g>
</g>
<!-- Node16 -->
<g id="Node000016" class="node">
<title>Node16</title>
<g id="a_Node000016"><a xlink:href="classGraph.html#afd2749a1cd58db2d3b6fa6eef639399c" target="_top" xlink:title="Computes the maximum flow from source to sink using Edmonds&#45;Karp.">
<polygon fill="white" stroke="#666666" points="501.5,-431 382.5,-431 382.5,-412 501.5,-412 501.5,-431"/>
<text text-anchor="middle" x="442" y="-419" font-family="Helvetica,sans-Serif" font-size="10.00">Graph::edmondsKarp</text>
</a>
</g>
</g>
<!-- Node4&#45;&gt;Node16 -->
<g id="edge15_Node000004_Node000016" class="edge">
<title>Node4&#45;&gt;Node16</title>
<g id="a_edge15_Node000004_Node000016"><a xlink:title=" ">
<path fill="none" stroke="#63b8ff" d="M283.83,-255.16C297.68,-257.74 312.61,-262.57 324,-271.5 351.53,-293.09 339.3,-313.3 360,-341.5 377.99,-366.01 403.61,-389.95 421.19,-405.15"/>
<polygon fill="#63b8ff" stroke="#63b8ff" points="419.22,-408.07 429.11,-411.88 423.75,-402.74 419.22,-408.07"/>
</a>
</g>
</g>
<!-- Node19 -->
<g id="Node000019" class="node">
<title>Node19</title>
<g id="a_Node000019"><a xlink:href="classSolver.html#ab064c56e0bda025818ce6f8461dd4e80" target="_top" xlink:title="Extracts the assignment from the solved flow network.">
<polygon fill="white" stroke="#666666" points="501.5,-93 382.5,-93 382.5,-74 501.5,-74 501.5,-93"/>
<text text-anchor="middle" x="442" y="-81" font-family="Helvetica,sans-Serif" font-size="10.00">Solver::extractResult</text>
</a>
</g>
</g>
<!-- Node4&#45;&gt;Node19 -->
<g id="edge19_Node000004_Node000019" class="edge">
<title>Node4&#45;&gt;Node19</title>
<g id="a_edge19_Node000004_Node000019"><a xlink:title=" ">
<path fill="none" stroke="#63b8ff" d="M255.63,-242.93C287.83,-215.23 381.4,-134.76 421.92,-99.91"/>
<polygon fill="#63b8ff" stroke="#63b8ff" points="424.21,-102.56 429.5,-93.39 419.64,-97.25 424.21,-102.56"/>
</a>
</g>
</g>
<!-- Node6 -->
<g id="Node000006" class="node">
<title>Node6</title>
<g id="a_Node000006"><a xlink:href="classGraph.html#a8cdfb932968807565b3cc3b52759e3b8" target="_top" xlink:title="Adds a directed edge (u → v) with the given capacity, along with its reverse edge (v → u) with capaci...">
<polygon fill="white" stroke="#666666" points="709,-356 615,-356 615,-337 709,-337 709,-356"/>
<text text-anchor="middle" x="662" y="-344" font-family="Helvetica,sans-Serif" font-size="10.00">Graph::addEdge</text>
</a>
</g>
</g>
<!-- Node5&#45;&gt;Node6 -->
<g id="edge5_Node000005_Node000006" class="edge">
<title>Node5&#45;&gt;Node6</title>
<g id="a_edge5_Node000005_Node000006"><a xlink:title=" ">
<path fill="none" stroke="#63b8ff" d="M454.42,-262.2C474.4,-278.62 517.65,-311.77 560,-328.5 574.06,-334.06 589.91,-337.91 604.81,-340.57"/>
<polygon fill="#63b8ff" stroke="#63b8ff" points="604.5,-344.07 614.94,-342.23 605.64,-337.16 604.5,-344.07"/>
</a>
</g>
</g>
<!-- Node8 -->
<g id="Node000008" class="node">
<title>Node8</title>
<g id="a_Node000008"><a xlink:href="classNetworkBuilder.html#acc9979fa0114fda405375f52dbe49a84" target="_top" xlink:title="Determines if a reviewer can review a submission based on domain matching.">
<polygon fill="white" stroke="#666666" points="743.5,-319 580.5,-319 580.5,-300 743.5,-300 743.5,-319"/>
<text text-anchor="middle" x="662" y="-307" font-family="Helvetica,sans-Serif" font-size="10.00">NetworkBuilder::isCompatible</text>
</a>
</g>
</g>
<!-- Node5&#45;&gt;Node8 -->
<g id="edge7_Node000005_Node000008" class="edge">
<title>Node5&#45;&gt;Node8</title>
<g id="a_edge7_Node000005_Node000008"><a xlink:title=" ">
<path fill="none" stroke="#63b8ff" d="M475.68,-262.11C499.09,-268.9 531.4,-278.07 560,-285.5 575.88,-289.63 593.25,-293.85 609.03,-297.59"/>
<polygon fill="#63b8ff" stroke="#63b8ff" points="608.6,-301.08 619.13,-299.96 610.2,-294.27 608.6,-301.08"/>
</a>
</g>
</g>
<!-- Node5&#45;&gt;Node10 -->
<g id="edge9_Node000005_Node000010" class="edge">
<title>Node5&#45;&gt;Node10</title>
<g id="a_edge9_Node000005_Node000010"><a xlink:title=" ">
<path fill="none" stroke="#63b8ff" d="M458.49,-262C475.71,-273.03 503.75,-292.43 524,-313.5 543.48,-333.77 536.35,-350.31 560,-365.5 564.05,-368.1 568.37,-370.35 572.86,-372.3"/>
<polygon fill="#63b8ff" stroke="#63b8ff" points="571.68,-375.6 582.27,-375.89 574.17,-369.05 571.68,-375.6"/>
</a>
</g>
</g>
<!-- Node5&#45;&gt;Node11 -->
<g id="edge10_Node000005_Node000011" class="edge">
<title>Node5&#45;&gt;Node11</title>
<g id="a_edge10_Node000005_Node000011"><a xlink:title=" ">
<path fill="none" stroke="#63b8ff" d="M457.74,-242.76C484.21,-225.4 539.01,-190.11 560,-181.5 571.71,-176.7 584.6,-172.72 597.13,-169.48"/>
<polygon fill="#63b8ff" stroke="#63b8ff" points="598.2,-172.82 607.08,-167.04 596.53,-166.03 598.2,-172.82"/>
</a>
</g>
</g>
<!-- Node12 -->
<g id="Node000012" class="node">
<title>Node12</title>
<g id="a_Node000012"><a xlink:href="classNetworkBuilder.html#a0b1fedb0791107aa56d1022f3964269f" target="_top" xlink:title="Maps a reviewer&#39;s vector index to its graph node ID.">
<polygon fill="white" stroke="#666666" points="745.5,-130 578.5,-130 578.5,-111 745.5,-111 745.5,-130"/>
<text text-anchor="middle" x="662" y="-118" font-family="Helvetica,sans-Serif" font-size="10.00">NetworkBuilder::reviewerNode</text>
</a>
</g>
</g>
<!-- Node5&#45;&gt;Node12 -->
<g id="edge11_Node000005_Node000012" class="edge">
<title>Node5&#45;&gt;Node12</title>
<g id="a_edge11_Node000005_Node000012"><a xlink:title=" ">
<path fill="none" stroke="#63b8ff" d="M449.62,-242.92C465.65,-220.52 509.04,-164.67 560,-138.5 563.74,-136.58 567.66,-134.86 571.67,-133.32"/>
<polygon fill="#63b8ff" stroke="#63b8ff" points="572.89,-136.6 581.21,-130.04 570.62,-129.98 572.89,-136.6"/>
</a>
</g>
</g>
<!-- Node13 -->
<g id="Node000013" class="node">
<title>Node13</title>
<g id="a_Node000013"><a xlink:href="classNetworkBuilder.html#a508fc4af685c78c10f96ab39610d4040" target="_top" xlink:title="Maps a submission&#39;s vector index to its graph node ID.">
<polygon fill="white" stroke="#666666" points="751.5,-243 572.5,-243 572.5,-224 751.5,-224 751.5,-243"/>
<text text-anchor="middle" x="662" y="-231" font-family="Helvetica,sans-Serif" font-size="10.00">NetworkBuilder::submissionNode</text>
</a>
</g>
</g>
<!-- Node5&#45;&gt;Node13 -->
<g id="edge12_Node000005_Node000013" class="edge">
<title>Node5&#45;&gt;Node13</title>
<g id="a_edge12_Node000005_Node000013"><a xlink:title=" ">
<path fill="none" stroke="#63b8ff" d="M524.18,-245.43C536.59,-244.34 549.53,-243.22 562.27,-242.1"/>
<polygon fill="#63b8ff" stroke="#63b8ff" points="562.78,-245.57 572.44,-241.22 562.17,-238.6 562.78,-245.57"/>
</a>
</g>
</g>
<!-- Node14 -->
<g id="Node000014" class="node">
<title>Node14</title>
<g id="a_Node000014"><a xlink:href="structConfig.html#a89db87ddce24e353ccabde8d0dc70ade" target="_top" xlink:title="Determines if reviewer secondary expertise should be used in matching.">
<polygon fill="white" stroke="#666666" points="972.5,-234 805.5,-234 805.5,-215 972.5,-215 972.5,-234"/>
<text text-anchor="middle" x="889" y="-222" font-family="Helvetica,sans-Serif" font-size="10.00">Config::useReviewerSecondary</text>
</a>
</g>
</g>
<!-- Node5&#45;&gt;Node14 -->
<g id="edge13_Node000005_Node000014" class="edge">
<title>Node5&#45;&gt;Node14</title>
<g id="a_edge13_Node000005_Node000014"><a xlink:title=" ">
<path fill="none" stroke="#63b8ff" d="M524.08,-257.45C589.14,-260.24 682.72,-261.56 764,-252.5 791.44,-249.44 821.68,-242.68 845.43,-236.57"/>
<polygon fill="#63b8ff" stroke="#63b8ff" points="846.4,-239.94 855.18,-234.01 844.62,-233.17 846.4,-239.94"/>
</a>
</g>
</g>
<!-- Node15 -->
<g id="Node000015" class="node">
<title>Node15</title>
<g id="a_Node000015"><a xlink:href="structConfig.html#a936e7b5bd16f50374b648f00465f1a32" target="_top" xlink:title="Determines if submission secondary domains should be used in matching.">
<polygon fill="white" stroke="#666666" points="978,-149 800,-149 800,-130 978,-130 978,-149"/>
<text text-anchor="middle" x="889" y="-137" font-family="Helvetica,sans-Serif" font-size="10.00">Config::useSubmissionSecondary</text>
</a>
</g>
</g>
<!-- Node5&#45;&gt;Node15 -->
<g id="edge14_Node000005_Node000015" class="edge">
<title>Node5&#45;&gt;Node15</title>
<g id="a_edge14_Node000005_Node000015"><a xlink:title=" ">
<path fill="none" stroke="#63b8ff" d="M470.16,-242.91C493.71,-234.84 528.81,-223.38 560,-215.5 649.49,-192.88 674.32,-198.39 764,-176.5 792.96,-169.43 825.22,-159.75 849.58,-152.06"/>
<polygon fill="#63b8ff" stroke="#63b8ff" points="850.7,-155.38 859.16,-149.01 848.57,-148.71 850.7,-155.38"/>
</a>
</g>
</g>
<!-- Node7 -->
<g id="Node000007" class="node">
<title>Node7</title>
<g id="a_Node000007"><a xlink:href="classGraph.html#a0a3f35d90f69456655a046806c725063" target="_top" xlink:title="Returns the number of nodes in the graph.">
<polygon fill="white" stroke="#666666" points="941,-394 837,-394 837,-375 941,-375 941,-394"/>
<text text-anchor="middle" x="889" y="-382" font-family="Helvetica,sans-Serif" font-size="10.00">Graph::numNodes</text>
</a>
</g>
</g>
<!-- Node6&#45;&gt;Node7 -->
<g id="edge6_Node000006_Node000007" class="edge">
<title>Node6&#45;&gt;Node7</title>
<g id="a_edge6_Node000006_Node000007"><a xlink:title=" ">
<path fill="none" stroke="#63b8ff" d="M709.08,-354.28C743.04,-360.02 789.58,-367.88 826.69,-374.15"/>
<polygon fill="#63b8ff" stroke="#63b8ff" points="826.44,-377.65 836.89,-375.87 827.61,-370.75 826.44,-377.65"/>
</a>
</g>
</g>
<!-- Node9 -->
<g id="Node000009" class="node">
<title>Node9</title>
<g id="a_Node000009"><a xlink:href="structSubmission.html#a19ab1b3a6dc11bd0b8254be4cbc31d2d" target="_top" xlink:title="Checks if this submission covers the given domain.">
<polygon fill="white" stroke="#666666" points="956,-319 822,-319 822,-300 956,-300 956,-319"/>
<text text-anchor="middle" x="889" y="-307" font-family="Helvetica,sans-Serif" font-size="10.00">Submission::hasDomain</text>
</a>
</g>
</g>
<!-- Node8&#45;&gt;Node9 -->
<g id="edge8_Node000008_Node000009" class="edge">
<title>Node8&#45;&gt;Node9</title>
<g id="a_edge8_Node000008_Node000009"><a xlink:title=" ">
<path fill="none" stroke="#63b8ff" d="M743.59,-309.5C765.69,-309.5 789.58,-309.5 811.45,-309.5"/>
<polygon fill="#63b8ff" stroke="#63b8ff" points="811.67,-313 821.67,-309.5 811.67,-306 811.67,-313"/>
</a>
</g>
</g>
<!-- Node16&#45;&gt;Node7 -->
<g id="edge18_Node000016_Node000007" class="edge">
<title>Node16&#45;&gt;Node7</title>
<g id="a_edge18_Node000016_Node000007"><a xlink:title=" ">
<path fill="none" stroke="#63b8ff" d="M501.7,-419.52C566.15,-417.01 672.64,-411.82 764,-402.5 784.55,-400.4 806.92,-397.39 826.92,-394.42"/>
<polygon fill="#63b8ff" stroke="#63b8ff" points="827.47,-397.88 836.84,-392.92 826.43,-390.95 827.47,-397.88"/>
</a>
</g>
</g>
<!-- Node17 -->
<g id="Node000017" class="node">
<title>Node17</title>
<g id="a_Node000017"><a xlink:href="classGraph.html#a348391db529c20a826a1483fe7bdcb9a" target="_top" xlink:title="BFS on the residual graph to find the shortest augmenting path.">
<polygon fill="white" stroke="#666666" points="695.5,-469 628.5,-469 628.5,-450 695.5,-450 695.5,-469"/>
<text text-anchor="middle" x="662" y="-457" font-family="Helvetica,sans-Serif" font-size="10.00">Graph::bfs</text>
</a>
</g>
</g>
<!-- Node16&#45;&gt;Node17 -->
<g id="edge16_Node000016_Node000017" class="edge">
<title>Node16&#45;&gt;Node17</title>
<g id="a_edge16_Node000016_Node000017"><a xlink:title=" ">
<path fill="none" stroke="#63b8ff" d="M497.73,-431.04C534.99,-437.54 583.61,-446.01 618.08,-452.02"/>
<polygon fill="#63b8ff" stroke="#63b8ff" points="617.84,-455.53 628.29,-453.8 619.04,-448.63 617.84,-455.53"/>
</a>
</g>
</g>
<!-- Node18 -->
<g id="Node000018" class="node">
<title>Node18</title>
<g id="a_Node000018"><a xlink:href="structEdge.html#a0b45154adf516897233895a25fad355e" target="_top" xlink:title="Residual capacity of this edge.">
<polygon fill="white" stroke="#666666" points="932,-469 846,-469 846,-450 932,-450 932,-469"/>
<text text-anchor="middle" x="889" y="-457" font-family="Helvetica,sans-Serif" font-size="10.00">Edge::residual</text>
</a>
</g>
</g>
<!-- Node17&#45;&gt;Node18 -->
<g id="edge17_Node000017_Node000018" class="edge">
<title>Node17&#45;&gt;Node18</title>
<g id="a_edge17_Node000017_Node000018"><a xlink:title=" ">
<path fill="none" stroke="#63b8ff" d="M695.72,-459.5C732.39,-459.5 792.36,-459.5 835.59,-459.5"/>
<polygon fill="#63b8ff" stroke="#63b8ff" points="835.64,-463 845.64,-459.5 835.64,-456 835.64,-463"/>
</a>
</g>
</g>
<!-- Node19&#45;&gt;Node12 -->
<g id="edge25_Node000019_Node000012" class="edge">
<title>Node19&#45;&gt;Node12</title>
<g id="a_edge25_Node000019_Node000012"><a xlink:title=" ">
<path fill="none" stroke="#63b8ff" d="M499.14,-93.03C528.27,-97.97 564.04,-104.04 594.55,-109.22"/>
<polygon fill="#63b8ff" stroke="#63b8ff" points="594.23,-112.72 604.67,-110.94 595.4,-105.82 594.23,-112.72"/>
</a>
</g>
</g>
<!-- Node20 -->
<g id="Node000020" class="node">
<title>Node20</title>
<g id="a_Node000020"><a xlink:href="classSolver.html#a0a32ae51c07e104de80b39cceaaf325f" target="_top" xlink:title="Determines which domain code caused the match between a reviewer and submission.">
<polygon fill="white" stroke="#666666" points="738,-93 586,-93 586,-74 738,-74 738,-93"/>
<text text-anchor="middle" x="662" y="-81" font-family="Helvetica,sans-Serif" font-size="10.00">Solver::findMatchedDomain</text>
</a>
</g>
</g>
<!-- Node19&#45;&gt;Node20 -->
<g id="edge20_Node000019_Node000020" class="edge">
<title>Node19&#45;&gt;Node20</title>
<g id="a_edge20_Node000019_Node000020"><a xlink:title=" ">
<path fill="none" stroke="#63b8ff" d="M501.71,-83.5C524.43,-83.5 550.89,-83.5 575.63,-83.5"/>
<polygon fill="#63b8ff" stroke="#63b8ff" points="575.75,-87 585.75,-83.5 575.75,-80 575.75,-87"/>
</a>
</g>
</g>
<!-- Node21 -->
<g id="Node000021" class="node">
<title>Node21</title>
<g id="a_Node000021"><a xlink:href="classGraph.html#af5f263b25175df3f5511ff5ede0a63aa" target="_top" xlink:title="Returns the adjacency list of a given node (const).">
<polygon fill="white" stroke="#666666" points="703.5,-56 620.5,-56 620.5,-37 703.5,-37 703.5,-56"/>
<text text-anchor="middle" x="662" y="-44" font-family="Helvetica,sans-Serif" font-size="10.00">Graph::getAdj</text>
</a>
</g>
</g>
<!-- Node19&#45;&gt;Node21 -->
<g id="edge23_Node000019_Node000021" class="edge">
<title>Node19&#45;&gt;Node21</title>
<g id="a_edge23_Node000019_Node000021"><a xlink:title=" ">
<path fill="none" stroke="#63b8ff" d="M499.14,-73.97C533.44,-68.15 576.95,-60.77 610.22,-55.12"/>
<polygon fill="#63b8ff" stroke="#63b8ff" points="610.92,-58.55 620.2,-53.43 609.75,-51.65 610.92,-58.55"/>
</a>
</g>
</g>
<!-- Node22 -->
<g id="Node000022" class="node">
<title>Node22</title>
<g id="a_Node000022"><a xlink:href="classNetworkBuilder.html#a4efdb0e13d73f6f3cbf38b4cd11a5ef3" target="_top" xlink:title="Inverse: given a graph node ID, returns the submission vector index.">
<polygon fill="white" stroke="#666666" points="764,-19 560,-19 560,0 764,0 764,-19"/>
<text text-anchor="middle" x="662" y="-7" font-family="Helvetica,sans-Serif" font-size="10.00">NetworkBuilder::nodeToSubmissionIdx</text>
</a>
</g>
</g>
<!-- Node19&#45;&gt;Node22 -->
<g id="edge24_Node000019_Node000022" class="edge">
<title>Node19&#45;&gt;Node22</title>
<g id="a_edge24_Node000019_Node000022"><a xlink:title=" ">
<path fill="none" stroke="#63b8ff" d="M459.46,-73.86C481.59,-61.31 522.49,-39.57 560,-27.5 567.39,-25.12 575.19,-23.03 583.05,-21.2"/>
<polygon fill="#63b8ff" stroke="#63b8ff" points="583.99,-24.58 593.01,-19.02 582.5,-17.74 583.99,-24.58"/>
</a>
</g>
</g>
<!-- Node20&#45;&gt;Node14 -->
<g id="edge21_Node000020_Node000014" class="edge">
<title>Node20&#45;&gt;Node14</title>
<g id="a_edge21_Node000020_Node000014"><a xlink:title=" ">
<path fill="none" stroke="#63b8ff" d="M738.25,-89.71C747.38,-92.5 756.22,-96.31 764,-101.5 788.62,-117.91 779.92,-135.76 800,-157.5 818.92,-177.99 844.7,-196.79 863.46,-209.23"/>
<polygon fill="#63b8ff" stroke="#63b8ff" points="861.75,-212.3 872.05,-214.81 865.56,-206.42 861.75,-212.3"/>
</a>
</g>
</g>
<!-- Node20&#45;&gt;Node15 -->
<g id="edge22_Node000020_Node000015" class="edge">
<title>Node20&#45;&gt;Node15</title>
<g id="a_edge22_Node000020_Node000015"><a xlink:title=" ">
<path fill="none" stroke="#63b8ff" d="M723.33,-93.02C736.78,-95.48 750.93,-98.34 764,-101.5 793.43,-108.6 826.16,-118.73 850.6,-126.74"/>
<polygon fill="#63b8ff" stroke="#63b8ff" points="849.6,-130.1 860.2,-129.92 851.8,-123.46 849.6,-130.1"/>
</a>
</g>
</g>
</g>
</svg>
