<?xml version="1.0" encoding="UTF-8" standalone="no"?>
<!DOCTYPE svg PUBLIC "-//W3C//DTD SVG 1.1//EN"
 "http://www.w3.org/Graphics/SVG/1.1/DTD/svg11.dtd">
<!-- Generated by graphviz version 2.43.0 (0)
 -->
<!-- Title: test_error_bad_match_mode Pages: 1 -->
<svg width="821pt" height="422pt"
 viewBox="0.00 0.00 821.00 421.54" xmlns="http://www.w3.org/2000/svg" xmlns:xlink="http://www.w3.org/1999/xlink">
<g id="graph0" class="graph" transform="scale(1 1) rotate(0) translate(4 417.54)">
<title>test_error_bad_match_mode</title>
<!-- Node1 -->
<g id="Node000001" class="node">
<title>Node1</title>
<g id="a_Node000001"><a xlink:title=" ">
<polygon fill="#999999" stroke="#666666" points="156,-264 0,-264 0,-245 156,-245 156,-264"/>
<text text-anchor="middle" x="78" y="-252" font-family="Helvetica,sans-Serif" font-size="10.00">test_error_bad_match_mode</text>
</a>
</g>
</g>
<!-- Node2 -->
<g id="Node000002" class="node">
<title>Node2</title>
<g id="a_Node000002"><a xlink:href="classParser.html#a5a2a7fa051b2dce0c67484fcb141d913" target="_top" xlink:title="Parses the input file and returns a fully populated ProblemData.">
<polygon fill="white" stroke="#666666" points="272,-264 192,-264 192,-245 272,-245 272,-264"/>
<text text-anchor="middle" x="232" y="-252" font-family="Helvetica,sans-Serif" font-size="10.00">Parser::parse</text>
</a>
</g>
</g>
<!-- Node1&#45;&gt;Node2 -->
<g id="edge1_Node000001_Node000002" class="edge">
<title>Node1&#45;&gt;Node2</title>
<g id="a_edge1_Node000001_Node000002"><a xlink:title=" ">
<path fill="none" stroke="#63b8ff" d="M156.34,-254.5C165,-254.5 173.64,-254.5 181.81,-254.5"/>
<polygon fill="#63b8ff" stroke="#63b8ff" points="181.86,-258 191.86,-254.5 181.86,-251 181.86,-258"/>
</a>
</g>
</g>
<!-- Node3 -->
<g id="Node000003" class="node">
<title>Node3</title>
<g id="a_Node000003"><a xlink:href="classParser.html#abe415229c2daa3f3ba4efd44661bd703" target="_top" xlink:title="Parses a control line: &quot;KeyName, value&quot;.">
<polygon fill="white" stroke="#666666" points="453.5,-321 318.5,-321 318.5,-302 453.5,-302 453.5,-321"/>
<text text-anchor="middle" x="386" y="-309" font-family="Helvetica,sans-Serif" font-size="10.00">Parser::parseControlLine</text>
</a>
</g>
</g>
<!-- Node2&#45;&gt;Node3 -->
<g id="edge2_Node000002_Node000003" class="edge">
<title>Node2&#45;&gt;Node3</title>
<g id="a_edge2_Node000002_Node000003"><a xlink:title=" ">
<path fill="none" stroke="#63b8ff" d="M253.12,-264.09C268.08,-271.04 289.08,-280.42 308,-287.5 318.74,-291.52 330.49,-295.43 341.51,-298.88"/>
<polygon fill="#63b8ff" stroke="#63b8ff" points="340.78,-302.32 351.37,-301.91 342.84,-295.63 340.78,-302.32"/>
</a>
</g>
</g>
<!-- Node6 -->
<g id="Node000006" class="node">
<title>Node6</title>
<g id="a_Node000006"><a xlink:href="classParser.html#a113f0dfba3013e3dade8b717063ad8a0" target="_top" xlink:title="Trims leading and trailing whitespace from a string.">
<polygon fill="white" stroke="#666666" points="791.5,-396 718.5,-396 718.5,-377 791.5,-377 791.5,-396"/>
<text text-anchor="middle" x="755" y="-384" font-family="Helvetica,sans-Serif" font-size="10.00">Parser::trim</text>
</a>
</g>
</g>
<!-- Node2&#45;&gt;Node6 -->
<g id="edge25_Node000002_Node000006" class="edge">
<title>Node2&#45;&gt;Node6</title>
<g id="a_edge25_Node000002_Node000006"><a xlink:title=" ">
<path fill="none" stroke="#63b8ff" d="M240.3,-264.19C252.66,-280.01 279.2,-311.54 308,-330.5 384.52,-380.88 409.97,-388.54 500,-405.5 570.32,-418.75 589.81,-412.7 661,-405.5 676.59,-403.92 693.42,-400.9 708.43,-397.72"/>
<polygon fill="#63b8ff" stroke="#63b8ff" points="709.47,-401.07 718.49,-395.51 707.97,-394.23 709.47,-401.07"/>
</a>
</g>
</g>
<!-- Node8 -->
<g id="Node000008" class="node">
<title>Node8</title>
<g id="a_Node000008"><a xlink:href="classParser.html#a381845570bc3e8444268d1f0165e5c18" target="_top" xlink:title="Converts a string to lowercase (for case&#45;insensitive comparison).">
<polygon fill="white" stroke="#666666" points="626.5,-283 534.5,-283 534.5,-264 626.5,-264 626.5,-283"/>
<text text-anchor="middle" x="580.5" y="-271" font-family="Helvetica,sans-Serif" font-size="10.00">Parser::toLower</text>
</a>
</g>
</g>
<!-- Node2&#45;&gt;Node8 -->
<g id="edge24_Node000002_Node000008" class="edge">
<title>Node2&#45;&gt;Node8</title>
<g id="a_edge24_Node000002_Node000008"><a xlink:title=" ">
<path fill="none" stroke="#63b8ff" d="M272.07,-256.64C333.73,-260.02 453.81,-266.61 524.26,-270.47"/>
<polygon fill="#63b8ff" stroke="#63b8ff" points="524.11,-273.97 534.28,-271.02 524.49,-266.98 524.11,-273.97"/>
</a>
</g>
</g>
<!-- Node10 -->
<g id="Node000010" class="node">
<title>Node10</title>
<g id="a_Node000010"><a xlink:href="classParser.html#a49fdbc3e3b2c220e042d77ea0568bdba" target="_top" xlink:title="Parses a parameter line: &quot;KeyName, value&quot;.">
<polygon fill="white" stroke="#666666" points="461,-245 311,-245 311,-226 461,-226 461,-245"/>
<text text-anchor="middle" x="386" y="-233" font-family="Helvetica,sans-Serif" font-size="10.00">Parser::parseParameterLine</text>
</a>
</g>
</g>
<!-- Node2&#45;&gt;Node10 -->
<g id="edge10_Node000002_Node000010" class="edge">
<title>Node2&#45;&gt;Node10</title>
<g id="a_edge10_Node000002_Node000010"><a xlink:title=" ">
<path fill="none" stroke="#63b8ff" d="M272.14,-249.61C281.05,-248.49 290.85,-247.27 300.83,-246.02"/>
<polygon fill="#63b8ff" stroke="#63b8ff" points="301.37,-249.48 310.86,-244.77 300.5,-242.54 301.37,-249.48"/>
</a>
</g>
</g>
<!-- Node12 -->
<g id="Node000012" class="node">
<title>Node12</title>
<g id="a_Node000012"><a xlink:href="classParser.html#a8b52e53cfc75a57e18f03d925823fe2a" target="_top" xlink:title="Parses a single reviewer line.">
<polygon fill="white" stroke="#666666" points="459,-86 313,-86 313,-67 459,-67 459,-86"/>
<text text-anchor="middle" x="386" y="-74" font-family="Helvetica,sans-Serif" font-size="10.00">Parser::parseReviewerLine</text>
</a>
</g>
</g>
<!-- Node2&#45;&gt;Node12 -->
<g id="edge16_Node000002_Node000012" class="edge">
<title>Node2&#45;&gt;Node12</title>
<g id="a_edge16_Node000002_Node000012"><a xlink:title=" ">
<path fill="none" stroke="#63b8ff" d="M239.31,-244.72C251.61,-225.92 280.04,-183.77 308,-151.5 326.52,-130.12 350.11,-107.77 366.26,-93.08"/>
<polygon fill="#63b8ff" stroke="#63b8ff" points="368.88,-95.44 373.97,-86.15 364.19,-90.24 368.88,-95.44"/>
</a>
</g>
</g>
<!-- Node14 -->
<g id="Node000014" class="node">
<title>Node14</title>
<g id="a_Node000014"><a xlink:href="classParser.html#ab15bc67b738ede92f26a5ead4c294bd3" target="_top" xlink:title="Parses a single submission line.">
<polygon fill="white" stroke="#666666" points="464,-180 308,-180 308,-161 464,-161 464,-180"/>
<text text-anchor="middle" x="386" y="-168" font-family="Helvetica,sans-Serif" font-size="10.00">Parser::parseSubmissionLine</text>
</a>
</g>
</g>
<!-- Node2&#45;&gt;Node14 -->
<g id="edge20_Node000002_Node000014" class="edge">
<title>Node2&#45;&gt;Node14</title>
<g id="a_edge20_Node000002_Node000014"><a xlink:title=" ">
<path fill="none" stroke="#63b8ff" d="M250.44,-244.86C277.01,-230.18 327.81,-202.1 358.83,-184.96"/>
<polygon fill="#63b8ff" stroke="#63b8ff" points="360.71,-187.92 367.77,-180.02 357.32,-181.8 360.71,-187.92"/>
</a>
</g>
</g>
<!-- Node4 -->
<g id="Node000004" class="node">
<title>Node4</title>
<g id="a_Node000004"><a xlink:href="classParser.html#a54de14fb280b60a07adfbf68c508b767" target="_top" xlink:title="Parses a trimmed token as an integer with error context.">
<polygon fill="white" stroke="#666666" points="813,-171 697,-171 697,-152 813,-152 813,-171"/>
<text text-anchor="middle" x="755" y="-159" font-family="Helvetica,sans-Serif" font-size="10.00">Parser::parseIntField</text>
</a>
</g>
</g>
<!-- Node3&#45;&gt;Node4 -->
<g id="edge3_Node000003_Node000004" class="edge">
<title>Node3&#45;&gt;Node4</title>
<g id="a_edge3_Node000003_Node000004"><a xlink:title=" ">
<path fill="none" stroke="#63b8ff" d="M443.72,-321.02C502.09,-327.88 593.74,-330.24 661,-292.5 705.82,-267.35 734.3,-210.53 746.74,-180.67"/>
<polygon fill="#63b8ff" stroke="#63b8ff" points="750.02,-181.91 750.48,-171.32 743.52,-179.31 750.02,-181.91"/>
</a>
</g>
</g>
<!-- Node5 -->
<g id="Node000005" class="node">
<title>Node5</title>
<g id="a_Node000005"><a xlink:href="classParser.html#aacf502fa084a101374bda3681e0d23bb" target="_top" xlink:title="Splits a CSV line by commas, respecting double&#45;quoted fields.">
<polygon fill="white" stroke="#666666" points="627,-209 534,-209 534,-190 627,-190 627,-209"/>
<text text-anchor="middle" x="580.5" y="-197" font-family="Helvetica,sans-Serif" font-size="10.00">Parser::splitCSV</text>
</a>
</g>
</g>
<!-- Node3&#45;&gt;Node5 -->
<g id="edge4_Node000003_Node000005" class="edge">
<title>Node3&#45;&gt;Node5</title>
<g id="a_edge4_Node000003_Node000005"><a xlink:title=" ">
<path fill="none" stroke="#63b8ff" d="M401.44,-301.86C417.32,-291.02 443.33,-272.56 464,-254.5 481.28,-239.4 479.99,-228.72 500,-217.5 507.36,-213.37 515.61,-210.19 523.94,-207.74"/>
<polygon fill="#63b8ff" stroke="#63b8ff" points="524.9,-211.1 533.69,-205.18 523.13,-204.33 524.9,-211.1"/>
</a>
</g>
</g>
<!-- Node7 -->
<g id="Node000007" class="node">
<title>Node7</title>
<g id="a_Node000007"><a xlink:href="classParser.html#a52df5c3f8fc72a8a486ae35a61d764d1" target="_top" xlink:title="Removes surrounding double quotes from a string value.">
<polygon fill="white" stroke="#666666" points="635,-396 526,-396 526,-377 635,-377 635,-396"/>
<text text-anchor="middle" x="580.5" y="-384" font-family="Helvetica,sans-Serif" font-size="10.00">Parser::stripQuotes</text>
</a>
</g>
</g>
<!-- Node3&#45;&gt;Node7 -->
<g id="edge6_Node000003_Node000007" class="edge">
<title>Node3&#45;&gt;Node7</title>
<g id="a_edge6_Node000003_Node000007"><a xlink:title=" ">
<path fill="none" stroke="#63b8ff" d="M402.91,-321.1C424.3,-333.64 463.81,-355.5 500,-368.5 505.94,-370.64 512.23,-372.57 518.56,-374.32"/>
<polygon fill="#63b8ff" stroke="#63b8ff" points="517.94,-377.77 528.5,-376.9 519.7,-371 517.94,-377.77"/>
</a>
</g>
</g>
<!-- Node3&#45;&gt;Node8 -->
<g id="edge8_Node000003_Node000008" class="edge">
<title>Node3&#45;&gt;Node8</title>
<g id="a_edge8_Node000003_Node000008"><a xlink:title=" ">
<path fill="none" stroke="#63b8ff" d="M435.58,-301.91C462.56,-296.58 496.23,-289.94 524.21,-284.41"/>
<polygon fill="#63b8ff" stroke="#63b8ff" points="525.11,-287.8 534.25,-282.43 523.76,-280.94 525.11,-287.8"/>
</a>
</g>
</g>
<!-- Node9 -->
<g id="Node000009" class="node">
<title>Node9</title>
<g id="a_Node000009"><a xlink:href="domain_8h.html#a0e806904288551ac6c43e2d413164657" target="_top" xlink:title="Converts an integer from the input file to a MatchMode.">
<polygon fill="white" stroke="#666666" points="622,-359 539,-359 539,-340 622,-340 622,-359"/>
<text text-anchor="middle" x="580.5" y="-347" font-family="Helvetica,sans-Serif" font-size="10.00">toMatchMode</text>
</a>
</g>
</g>
<!-- Node3&#45;&gt;Node9 -->
<g id="edge9_Node000003_Node000009" class="edge">
<title>Node3&#45;&gt;Node9</title>
<g id="a_edge9_Node000003_Node000009"><a xlink:title=" ">
<path fill="none" stroke="#63b8ff" d="M435.58,-321.09C464.07,-326.71 500.02,-333.81 528.87,-339.5"/>
<polygon fill="#63b8ff" stroke="#63b8ff" points="528.26,-342.95 538.75,-341.46 529.62,-336.09 528.26,-342.95"/>
</a>
</g>
</g>
<!-- Node5&#45;&gt;Node6 -->
<g id="edge5_Node000005_Node000006" class="edge">
<title>Node5&#45;&gt;Node6</title>
<g id="a_edge5_Node000005_Node000006"><a xlink:title=" ">
<path fill="none" stroke="#63b8ff" d="M627.25,-203.09C639.11,-205.75 651.28,-210.18 661,-217.5 712.17,-256.01 738.78,-331.28 748.98,-366.91"/>
<polygon fill="#63b8ff" stroke="#63b8ff" points="745.61,-367.88 751.62,-376.61 752.37,-366.04 745.61,-367.88"/>
</a>
</g>
</g>
<!-- Node7&#45;&gt;Node6 -->
<g id="edge7_Node000007_Node000006" class="edge">
<title>Node7&#45;&gt;Node6</title>
<g id="a_edge7_Node000007_Node000006"><a xlink:title=" ">
<path fill="none" stroke="#63b8ff" d="M635.13,-386.5C658.53,-386.5 685.68,-386.5 708.12,-386.5"/>
<polygon fill="#63b8ff" stroke="#63b8ff" points="708.39,-390 718.39,-386.5 708.39,-383 708.39,-390"/>
</a>
</g>
</g>
<!-- Node10&#45;&gt;Node4 -->
<g id="edge13_Node000010_Node000004" class="edge">
<title>Node10&#45;&gt;Node4</title>
<g id="a_edge13_Node000010_Node000004"><a xlink:title=" ">
<path fill="none" stroke="#63b8ff" d="M401.99,-225.9C422.97,-213.01 462.72,-190.57 500,-180.5 561.83,-163.8 635.01,-159.91 686.9,-159.69"/>
<polygon fill="#63b8ff" stroke="#63b8ff" points="686.98,-163.19 696.98,-159.69 686.98,-156.19 686.98,-163.19"/>
</a>
</g>
</g>
<!-- Node10&#45;&gt;Node5 -->
<g id="edge14_Node000010_Node000005" class="edge">
<title>Node10&#45;&gt;Node5</title>
<g id="a_edge14_Node000010_Node000005"><a xlink:title=" ">
<path fill="none" stroke="#63b8ff" d="M437.83,-225.99C464.3,-221.04 496.72,-214.98 523.86,-209.91"/>
<polygon fill="#63b8ff" stroke="#63b8ff" points="524.79,-213.29 533.98,-208.01 523.51,-206.41 524.79,-213.29"/>
</a>
</g>
</g>
<!-- Node10&#45;&gt;Node8 -->
<g id="edge15_Node000010_Node000008" class="edge">
<title>Node10&#45;&gt;Node8</title>
<g id="a_edge15_Node000010_Node000008"><a xlink:title=" ">
<path fill="none" stroke="#63b8ff" d="M435.58,-245.09C462.56,-250.42 496.23,-257.06 524.21,-262.59"/>
<polygon fill="#63b8ff" stroke="#63b8ff" points="523.76,-266.06 534.25,-264.57 525.11,-259.2 523.76,-266.06"/>
</a>
</g>
</g>
<!-- Node11 -->
<g id="Node000011" class="node">
<title>Node11</title>
<g id="a_Node000011"><a xlink:href="classParser.html#ac9cbf2eac7c906d2da2d95b9c16cc02e" target="_top" xlink:title="Parses a trimmed token as a boolean (0 or 1).">
<polygon fill="white" stroke="#666666" points="643,-246 518,-246 518,-227 643,-227 643,-246"/>
<text text-anchor="middle" x="580.5" y="-234" font-family="Helvetica,sans-Serif" font-size="10.00">Parser::parseBoolField</text>
</a>
</g>
</g>
<!-- Node10&#45;&gt;Node11 -->
<g id="edge11_Node000010_Node000011" class="edge">
<title>Node10&#45;&gt;Node11</title>
<g id="a_edge11_Node000010_Node000011"><a xlink:title=" ">
<path fill="none" stroke="#63b8ff" d="M461.15,-235.89C476.38,-235.96 492.39,-236.05 507.55,-236.13"/>
<polygon fill="#63b8ff" stroke="#63b8ff" points="507.86,-239.63 517.88,-236.18 507.9,-232.63 507.86,-239.63"/>
</a>
</g>
</g>
<!-- Node11&#45;&gt;Node4 -->
<g id="edge12_Node000011_Node000004" class="edge">
<title>Node11&#45;&gt;Node4</title>
<g id="a_edge12_Node000011_Node000004"><a xlink:title=" ">
<path fill="none" stroke="#63b8ff" d="M631.86,-226.94C641.7,-224.39 651.81,-221.26 661,-217.5 687,-206.87 714.24,-189.64 732.47,-177.09"/>
<polygon fill="#63b8ff" stroke="#63b8ff" points="734.95,-179.63 741.13,-171.02 730.93,-173.9 734.95,-179.63"/>
</a>
</g>
</g>
<!-- Node12&#45;&gt;Node4 -->
<g id="edge18_Node000012_Node000004" class="edge">
<title>Node12&#45;&gt;Node4</title>
<g id="a_edge18_Node000012_Node000004"><a xlink:title=" ">
<path fill="none" stroke="#63b8ff" d="M418.95,-66.97C471.72,-53.01 579.38,-32.18 661,-66.5 698.03,-82.07 727.69,-120.37 742.89,-143.3"/>
<polygon fill="#63b8ff" stroke="#63b8ff" points="739.99,-145.27 748.33,-151.81 745.89,-141.5 739.99,-145.27"/>
</a>
</g>
</g>
<!-- Node12&#45;&gt;Node5 -->
<g id="edge19_Node000012_Node000005" class="edge">
<title>Node12&#45;&gt;Node5</title>
<g id="a_edge19_Node000012_Node000005"><a xlink:title=" ">
<path fill="none" stroke="#63b8ff" d="M402.11,-86.15C435.49,-107.48 515.76,-158.77 555.87,-184.4"/>
<polygon fill="#63b8ff" stroke="#63b8ff" points="554.15,-187.46 564.47,-189.89 557.92,-181.56 554.15,-187.46"/>
</a>
</g>
</g>
<!-- Node13 -->
<g id="Node000013" class="node">
<title>Node13</title>
<g id="a_Node000013"><a xlink:href="structProblemData.html#a9f9c5ab24ac824b060f3cdb7bbd764bf" target="_top" xlink:title="Adds a reviewer with duplicate&#45;ID detection.">
<polygon fill="white" stroke="#666666" points="655.5,-19 505.5,-19 505.5,0 655.5,0 655.5,-19"/>
<text text-anchor="middle" x="580.5" y="-7" font-family="Helvetica,sans-Serif" font-size="10.00">ProblemData::addReviewer</text>
</a>
</g>
</g>
<!-- Node12&#45;&gt;Node13 -->
<g id="edge17_Node000012_Node000013" class="edge">
<title>Node12&#45;&gt;Node13</title>
<g id="a_edge17_Node000012_Node000013"><a xlink:title=" ">
<path fill="none" stroke="#63b8ff" d="M410.63,-66.95C433.37,-57.89 468.81,-44.13 500,-33.5 511.73,-29.5 524.54,-25.49 536.39,-21.91"/>
<polygon fill="#63b8ff" stroke="#63b8ff" points="537.49,-25.24 546.07,-19.02 535.49,-18.53 537.49,-25.24"/>
</a>
</g>
</g>
<!-- Node14&#45;&gt;Node4 -->
<g id="edge22_Node000014_Node000004" class="edge">
<title>Node14&#45;&gt;Node4</title>
<g id="a_edge22_Node000014_Node000004"><a xlink:title=" ">
<path fill="none" stroke="#63b8ff" d="M424.12,-160.99C446.03,-155.86 474.4,-150.08 500,-147.5 571.2,-140.33 589.64,-142.16 661,-147.5 670.43,-148.21 680.34,-149.31 690.05,-150.59"/>
<polygon fill="#63b8ff" stroke="#63b8ff" points="689.67,-154.07 700.06,-151.99 690.64,-147.14 689.67,-154.07"/>
</a>
</g>
</g>
<!-- Node14&#45;&gt;Node5 -->
<g id="edge23_Node000014_Node000005" class="edge">
<title>Node14&#45;&gt;Node5</title>
<g id="a_edge23_Node000014_Node000005"><a xlink:title=" ">
<path fill="none" stroke="#63b8ff" d="M450.3,-180.04C474.07,-183.62 500.88,-187.66 523.9,-191.12"/>
<polygon fill="#63b8ff" stroke="#63b8ff" points="523.44,-194.59 533.85,-192.62 524.48,-187.67 523.44,-194.59"/>
</a>
</g>
</g>
<!-- Node15 -->
<g id="Node000015" class="node">
<title>Node15</title>
<g id="a_Node000015"><a xlink:href="structProblemData.html#a849ef6ded60771bec2a5e1b6faf0545c" target="_top" xlink:title="Adds a submission with duplicate&#45;ID detection.">
<polygon fill="white" stroke="#666666" points="661,-95 500,-95 500,-76 661,-76 661,-95"/>
<text text-anchor="middle" x="580.5" y="-83" font-family="Helvetica,sans-Serif" font-size="10.00">ProblemData::addSubmission</text>
</a>
</g>
</g>
<!-- Node14&#45;&gt;Node15 -->
<g id="edge21_Node000014_Node000015" class="edge">
<title>Node14&#45;&gt;Node15</title>
<g id="a_edge21_Node000014_Node000015"><a xlink:title=" ">
<path fill="none" stroke="#63b8ff" d="M402.23,-160.99C423.49,-148.01 463.56,-124.65 500,-109.5 510.29,-105.22 521.62,-101.33 532.42,-98"/>
<polygon fill="#63b8ff" stroke="#63b8ff" points="533.57,-101.31 542.15,-95.09 531.56,-94.6 533.57,-101.31"/>
</a>
</g>
</g>
</g>
</svg>
