<?xml version="1.0" encoding="UTF-8" standalone="no"?>
<!DOCTYPE svg PUBLIC "-//W3C//DTD SVG 1.1//EN"
 "http://www.w3.org/Graphics/SVG/1.1/DTD/svg11.dtd">
<!-- Generated by graphviz version 2.43.0 (0)
 -->
<!-- Title: test_error_file_not_found Pages: 1 -->
<svg width="770pt" height="422pt"
 viewBox="0.00 0.00 770.00 421.54" xmlns="http://www.w3.org/2000/svg" xmlns:xlink="http://www.w3.org/1999/xlink">
<g id="graph0" class="graph" transform="scale(1 1) rotate(0) translate(4 417.54)">
<title>test_error_file_not_found</title>
<!-- Node1 -->
<g id="Node000001" class="node">
<title>Node1</title>
<g id="a_Node000001"><a xlink:title=" ">
<polygon fill="#999999" stroke="#666666" points="105,-269.5 0,-269.5 0,-239.5 105,-239.5 105,-269.5"/>
<text text-anchor="start" x="8" y="-257.5" font-family="Helvetica,sans-Serif" font-size="10.00">test_error_file_not</text>
<text text-anchor="middle" x="52.5" y="-246.5" font-family="Helvetica,sans-Serif" font-size="10.00">_found</text>
</a>
</g>
</g>
<!-- Node2 -->
<g id="Node000002" class="node">
<title>Node2</title>
<g id="a_Node000002"><a xlink:href="classParser.html#a5a2a7fa051b2dce0c67484fcb141d913" target="_top" xlink:title="Parses the input file and returns a fully populated ProblemData.">
<polygon fill="white" stroke="#666666" points="221,-264 141,-264 141,-245 221,-245 221,-264"/>
<text text-anchor="middle" x="181" y="-252" font-family="Helvetica,sans-Serif" font-size="10.00">Parser::parse</text>
</a>
</g>
</g>
<!-- Node1&#45;&gt;Node2 -->
<g id="edge1_Node000001_Node000002" class="edge">
<title>Node1&#45;&gt;Node2</title>
<g id="a_edge1_Node000001_Node000002"><a xlink:title=" ">
<path fill="none" stroke="#63b8ff" d="M105.32,-254.5C113.67,-254.5 122.29,-254.5 130.58,-254.5"/>
<polygon fill="#63b8ff" stroke="#63b8ff" points="130.85,-258 140.85,-254.5 130.85,-251 130.85,-258"/>
</a>
</g>
</g>
<!-- Node3 -->
<g id="Node000003" class="node">
<title>Node3</title>
<g id="a_Node000003"><a xlink:href="classParser.html#abe415229c2daa3f3ba4efd44661bd703" target="_top" xlink:title="Parses a control line: &quot;KeyName, value&quot;.">
<polygon fill="white" stroke="#666666" points="402.5,-321 267.5,-321 267.5,-302 402.5,-302 402.5,-321"/>
<text text-anchor="middle" x="335" y="-309" font-family="Helvetica,sans-Serif" font-size="10.00">Parser::parseControlLine</text>
</a>
</g>
</g>
<!-- Node2&#45;&gt;Node3 -->
<g id="edge2_Node000002_Node000003" class="edge">
<title>Node2&#45;&gt;Node3</title>
<g id="a_edge2_Node000002_Node000003"><a xlink:title=" ">
<path fill="none" stroke="#63b8ff" d="M202.12,-264.09C217.08,-271.04 238.08,-280.42 257,-287.5 267.74,-291.52 279.49,-295.43 290.51,-298.88"/>
<polygon fill="#63b8ff" stroke="#63b8ff" points="289.78,-302.32 300.37,-301.91 291.84,-295.63 289.78,-302.32"/>
</a>
</g>
</g>
<!-- Node6 -->
<g id="Node000006" class="node">
<title>Node6</title>
<g id="a_Node000006"><a xlink:href="classParser.html#a113f0dfba3013e3dade8b717063ad8a0" target="_top" xlink:title="Trims leading and trailing whitespace from a string.">
<polygon fill="white" stroke="#666666" points="740.5,-396 667.5,-396 667.5,-377 740.5,-377 740.5,-396"/>
<text text-anchor="middle" x="704" y="-384" font-family="Helvetica,sans-Serif" font-size="10.00">Parser::trim</text>
</a>
</g>
</g>
<!-- Node2&#45;&gt;Node6 -->
<g id="edge25_Node000002_Node000006" class="edge">
<title>Node2&#45;&gt;Node6</title>
<g id="a_edge25_Node000002_Node000006"><a xlink:title=" ">
<path fill="none" stroke="#63b8ff" d="M189.3,-264.19C201.66,-280.01 228.2,-311.54 257,-330.5 333.52,-380.88 358.97,-388.54 449,-405.5 519.32,-418.75 538.81,-412.7 610,-405.5 625.59,-403.92 642.42,-400.9 657.43,-397.72"/>
<polygon fill="#63b8ff" stroke="#63b8ff" points="658.47,-401.07 667.49,-395.51 656.97,-394.23 658.47,-401.07"/>
</a>
</g>
</g>
<!-- Node8 -->
<g id="Node000008" class="node">
<title>Node8</title>
<g id="a_Node000008"><a xlink:href="classParser.html#a381845570bc3e8444268d1f0165e5c18" target="_top" xlink:title="Converts a string to lowercase (for case&#45;insensitive comparison).">
<polygon fill="white" stroke="#666666" points="575.5,-283 483.5,-283 483.5,-264 575.5,-264 575.5,-283"/>
<text text-anchor="middle" x="529.5" y="-271" font-family="Helvetica,sans-Serif" font-size="10.00">Parser::toLower</text>
</a>
</g>
</g>
<!-- Node2&#45;&gt;Node8 -->
<g id="edge24_Node000002_Node000008" class="edge">
<title>Node2&#45;&gt;Node8</title>
<g id="a_edge24_Node000002_Node000008"><a xlink:title=" ">
<path fill="none" stroke="#63b8ff" d="M221.07,-256.64C282.73,-260.02 402.81,-266.61 473.26,-270.47"/>
<polygon fill="#63b8ff" stroke="#63b8ff" points="473.11,-273.97 483.28,-271.02 473.49,-266.98 473.11,-273.97"/>
</a>
</g>
</g>
<!-- Node10 -->
<g id="Node000010" class="node">
<title>Node10</title>
<g id="a_Node000010"><a xlink:href="classParser.html#a49fdbc3e3b2c220e042d77ea0568bdba" target="_top" xlink:title="Parses a parameter line: &quot;KeyName, value&quot;.">
<polygon fill="white" stroke="#666666" points="410,-245 260,-245 260,-226 410,-226 410,-245"/>
<text text-anchor="middle" x="335" y="-233" font-family="Helvetica,sans-Serif" font-size="10.00">Parser::parseParameterLine</text>
</a>
</g>
</g>
<!-- Node2&#45;&gt;Node10 -->
<g id="edge10_Node000002_Node000010" class="edge">
<title>Node2&#45;&gt;Node10</title>
<g id="a_edge10_Node000002_Node000010"><a xlink:title=" ">
<path fill="none" stroke="#63b8ff" d="M221.14,-249.61C230.05,-248.49 239.85,-247.27 249.83,-246.02"/>
<polygon fill="#63b8ff" stroke="#63b8ff" points="250.37,-249.48 259.86,-244.77 249.5,-242.54 250.37,-249.48"/>
</a>
</g>
</g>
<!-- Node12 -->
<g id="Node000012" class="node">
<title>Node12</title>
<g id="a_Node000012"><a xlink:href="classParser.html#a8b52e53cfc75a57e18f03d925823fe2a" target="_top" xlink:title="Parses a single reviewer line.">
<polygon fill="white" stroke="#666666" points="408,-86 262,-86 262,-67 408,-67 408,-86"/>
<text text-anchor="middle" x="335" y="-74" font-family="Helvetica,sans-Serif" font-size="10.00">Parser::parseReviewerLine</text>
</a>
</g>
</g>
<!-- Node2&#45;&gt;Node12 -->
<g id="edge16_Node000002_Node000012" class="edge">
<title>Node2&#45;&gt;Node12</title>
<g id="a_edge16_Node000002_Node000012"><a xlink:title=" ">
<path fill="none" stroke="#63b8ff" d="M188.31,-244.72C200.61,-225.92 229.04,-183.77 257,-151.5 275.52,-130.12 299.11,-107.77 315.26,-93.08"/>
<polygon fill="#63b8ff" stroke="#63b8ff" points="317.88,-95.44 322.97,-86.15 313.19,-90.24 317.88,-95.44"/>
</a>
</g>
</g>
<!-- Node14 -->
<g id="Node000014" class="node">
<title>Node14</title>
<g id="a_Node000014"><a xlink:href="classParser.html#ab15bc67b738ede92f26a5ead4c294bd3" target="_top" xlink:title="Parses a single submission line.">
<polygon fill="white" stroke="#666666" points="413,-180 257,-180 257,-161 413,-161 413,-180"/>
<text text-anchor="middle" x="335" y="-168" font-family="Helvetica,sans-Serif" font-size="10.00">Parser::parseSubmissionLine</text>
</a>
</g>
</g>
<!-- Node2&#45;&gt;Node14 -->
<g id="edge20_Node000002_Node000014" class="edge">
<title>Node2&#45;&gt;Node14</title>
<g id="a_edge20_Node000002_Node000014"><a xlink:title=" ">
<path fill="none" stroke="#63b8ff" d="M199.44,-244.86C226.01,-230.18 276.81,-202.1 307.83,-184.96"/>
<polygon fill="#63b8ff" stroke="#63b8ff" points="309.71,-187.92 316.77,-180.02 306.32,-181.8 309.71,-187.92"/>
</a>
</g>
</g>
<!-- Node4 -->
<g id="Node000004" class="node">
<title>Node4</title>
<g id="a_Node000004"><a xlink:href="classParser.html#a54de14fb280b60a07adfbf68c508b767" target="_top" xlink:title="Parses a trimmed token as an integer with error context.">
<polygon fill="white" stroke="#666666" points="762,-171 646,-171 646,-152 762,-152 762,-171"/>
<text text-anchor="middle" x="704" y="-159" font-family="Helvetica,sans-Serif" font-size="10.00">Parser::parseIntField</text>
</a>
</g>
</g>
<!-- Node3&#45;&gt;Node4 -->
<g id="edge3_Node000003_Node000004" class="edge">
<title>Node3&#45;&gt;Node4</title>
<g id="a_edge3_Node000003_Node000004"><a xlink:title=" ">
<path fill="none" stroke="#63b8ff" d="M392.72,-321.02C451.09,-327.88 542.74,-330.24 610,-292.5 654.82,-267.35 683.3,-210.53 695.74,-180.67"/>
<polygon fill="#63b8ff" stroke="#63b8ff" points="699.02,-181.91 699.48,-171.32 692.52,-179.31 699.02,-181.91"/>
</a>
</g>
</g>
<!-- Node5 -->
<g id="Node000005" class="node">
<title>Node5</title>
<g id="a_Node000005"><a xlink:href="classParser.html#aacf502fa084a101374bda3681e0d23bb" target="_top" xlink:title="Splits a CSV line by commas, respecting double&#45;quoted fields.">
<polygon fill="white" stroke="#666666" points="576,-209 483,-209 483,-190 576,-190 576,-209"/>
<text text-anchor="middle" x="529.5" y="-197" font-family="Helvetica,sans-Serif" font-size="10.00">Parser::splitCSV</text>
</a>
</g>
</g>
<!-- Node3&#45;&gt;Node5 -->
<g id="edge4_Node000003_Node000005" class="edge">
<title>Node3&#45;&gt;Node5</title>
<g id="a_edge4_Node000003_Node000005"><a xlink:title=" ">
<path fill="none" stroke="#63b8ff" d="M350.44,-301.86C366.32,-291.02 392.33,-272.56 413,-254.5 430.28,-239.4 428.99,-228.72 449,-217.5 456.36,-213.37 464.61,-210.19 472.94,-207.74"/>
<polygon fill="#63b8ff" stroke="#63b8ff" points="473.9,-211.1 482.69,-205.18 472.13,-204.33 473.9,-211.1"/>
</a>
</g>
</g>
<!-- Node7 -->
<g id="Node000007" class="node">
<title>Node7</title>
<g id="a_Node000007"><a xlink:href="classParser.html#a52df5c3f8fc72a8a486ae35a61d764d1" target="_top" xlink:title="Removes surrounding double quotes from a string value.">
<polygon fill="white" stroke="#666666" points="584,-396 475,-396 475,-377 584,-377 584,-396"/>
<text text-anchor="middle" x="529.5" y="-384" font-family="Helvetica,sans-Serif" font-size="10.00">Parser::stripQuotes</text>
</a>
</g>
</g>
<!-- Node3&#45;&gt;Node7 -->
<g id="edge6_Node000003_Node000007" class="edge">
<title>Node3&#45;&gt;Node7</title>
<g id="a_edge6_Node000003_Node000007"><a xlink:title=" ">
<path fill="none" stroke="#63b8ff" d="M351.91,-321.1C373.3,-333.64 412.81,-355.5 449,-368.5 454.94,-370.64 461.23,-372.57 467.56,-374.32"/>
<polygon fill="#63b8ff" stroke="#63b8ff" points="466.94,-377.77 477.5,-376.9 468.7,-371 466.94,-377.77"/>
</a>
</g>
</g>
<!-- Node3&#45;&gt;Node8 -->
<g id="edge8_Node000003_Node000008" class="edge">
<title>Node3&#45;&gt;Node8</title>
<g id="a_edge8_Node000003_Node000008"><a xlink:title=" ">
<path fill="none" stroke="#63b8ff" d="M384.58,-301.91C411.56,-296.58 445.23,-289.94 473.21,-284.41"/>
<polygon fill="#63b8ff" stroke="#63b8ff" points="474.11,-287.8 483.25,-282.43 472.76,-280.94 474.11,-287.8"/>
</a>
</g>
</g>
<!-- Node9 -->
<g id="Node000009" class="node">
<title>Node9</title>
<g id="a_Node000009"><a xlink:href="domain_8h.html#a0e806904288551ac6c43e2d413164657" target="_top" xlink:title="Converts an integer from the input file to a MatchMode.">
<polygon fill="white" stroke="#666666" points="571,-359 488,-359 488,-340 571,-340 571,-359"/>
<text text-anchor="middle" x="529.5" y="-347" font-family="Helvetica,sans-Serif" font-size="10.00">toMatchMode</text>
</a>
</g>
</g>
<!-- Node3&#45;&gt;Node9 -->
<g id="edge9_Node000003_Node000009" class="edge">
<title>Node3&#45;&gt;Node9</title>
<g id="a_edge9_Node000003_Node000009"><a xlink:title=" ">
<path fill="none" stroke="#63b8ff" d="M384.58,-321.09C413.07,-326.71 449.02,-333.81 477.87,-339.5"/>
<polygon fill="#63b8ff" stroke="#63b8ff" points="477.26,-342.95 487.75,-341.46 478.62,-336.09 477.26,-342.95"/>
</a>
</g>
</g>
<!-- Node5&#45;&gt;Node6 -->
<g id="edge5_Node000005_Node000006" class="edge">
<title>Node5&#45;&gt;Node6</title>
<g id="a_edge5_Node000005_Node000006"><a xlink:title=" ">
<path fill="none" stroke="#63b8ff" d="M576.25,-203.09C588.11,-205.75 600.28,-210.18 610,-217.5 661.17,-256.01 687.78,-331.28 697.98,-366.91"/>
<polygon fill="#63b8ff" stroke="#63b8ff" points="694.61,-367.88 700.62,-376.61 701.37,-366.04 694.61,-367.88"/>
</a>
</g>
</g>
<!-- Node7&#45;&gt;Node6 -->
<g id="edge7_Node000007_Node000006" class="edge">
<title>Node7&#45;&gt;Node6</title>
<g id="a_edge7_Node000007_Node000006"><a xlink:title=" ">
<path fill="none" stroke="#63b8ff" d="M584.13,-386.5C607.53,-386.5 634.68,-386.5 657.12,-386.5"/>
<polygon fill="#63b8ff" stroke="#63b8ff" points="657.39,-390 667.39,-386.5 657.39,-383 657.39,-390"/>
</a>
</g>
</g>
<!-- Node10&#45;&gt;Node4 -->
<g id="edge13_Node000010_Node000004" class="edge">
<title>Node10&#45;&gt;Node4</title>
<g id="a_edge13_Node000010_Node000004"><a xlink:title=" ">
<path fill="none" stroke="#63b8ff" d="M350.99,-225.9C371.97,-213.01 411.72,-190.57 449,-180.5 510.83,-163.8 584.01,-159.91 635.9,-159.69"/>
<polygon fill="#63b8ff" stroke="#63b8ff" points="635.98,-163.19 645.98,-159.69 635.98,-156.19 635.98,-163.19"/>
</a>
</g>
</g>
<!-- Node10&#45;&gt;Node5 -->
<g id="edge14_Node000010_Node000005" class="edge">
<title>Node10&#45;&gt;Node5</title>
<g id="a_edge14_Node000010_Node000005"><a xlink:title=" ">
<path fill="none" stroke="#63b8ff" d="M386.83,-225.99C413.3,-221.04 445.72,-214.98 472.86,-209.91"/>
<polygon fill="#63b8ff" stroke="#63b8ff" points="473.79,-213.29 482.98,-208.01 472.51,-206.41 473.79,-213.29"/>
</a>
</g>
</g>
<!-- Node10&#45;&gt;Node8 -->
<g id="edge15_Node000010_Node000008" class="edge">
<title>Node10&#45;&gt;Node8</title>
<g id="a_edge15_Node000010_Node000008"><a xlink:title=" ">
<path fill="none" stroke="#63b8ff" d="M384.58,-245.09C411.56,-250.42 445.23,-257.06 473.21,-262.59"/>
<polygon fill="#63b8ff" stroke="#63b8ff" points="472.76,-266.06 483.25,-264.57 474.11,-259.2 472.76,-266.06"/>
</a>
</g>
</g>
<!-- Node11 -->
<g id="Node000011" class="node">
<title>Node11</title>
<g id="a_Node000011"><a xlink:href="classParser.html#ac9cbf2eac7c906d2da2d95b9c16cc02e" target="_top" xlink:title="Parses a trimmed token as a boolean (0 or 1).">
<polygon fill="white" stroke="#666666" points="592,-246 467,-246 467,-227 592,-227 592,-246"/>
<text text-anchor="middle" x="529.5" y="-234" font-family="Helvetica,sans-Serif" font-size="10.00">Parser::parseBoolField</text>
</a>
</g>
</g>
<!-- Node10&#45;&gt;Node11 -->
<g id="edge11_Node000010_Node000011" class="edge">
<title>Node10&#45;&gt;Node11</title>
<g id="a_edge11_Node000010_Node000011"><a xlink:title=" ">
<path fill="none" stroke="#63b8ff" d="M410.15,-235.89C425.38,-235.96 441.39,-236.05 456.55,-236.13"/>
<polygon fill="#63b8ff" stroke="#63b8ff" points="456.86,-239.63 466.88,-236.18 456.9,-232.63 456.86,-239.63"/>
</a>
</g>
</g>
<!-- Node11&#45;&gt;Node4 -->
<g id="edge12_Node000011_Node000004" class="edge">
<title>Node11&#45;&gt;Node4</title>
<g id="a_edge12_Node000011_Node000004"><a xlink:title=" ">
<path fill="none" stroke="#63b8ff" d="M580.86,-226.94C590.7,-224.39 600.81,-221.26 610,-217.5 636,-206.87 663.24,-189.64 681.47,-177.09"/>
<polygon fill="#63b8ff" stroke="#63b8ff" points="683.95,-179.63 690.13,-171.02 679.93,-173.9 683.95,-179.63"/>
</a>
</g>
</g>
<!-- Node12&#45;&gt;Node4 -->
<g id="edge18_Node000012_Node000004" class="edge">
<title>Node12&#45;&gt;Node4</title>
<g id="a_edge18_Node000012_Node000004"><a xlink:title=" ">
<path fill="none" stroke="#63b8ff" d="M367.95,-66.97C420.72,-53.01 528.38,-32.18 610,-66.5 647.03,-82.07 676.69,-120.37 691.89,-143.3"/>
<polygon fill="#63b8ff" stroke="#63b8ff" points="688.99,-145.27 697.33,-151.81 694.89,-141.5 688.99,-145.27"/>
</a>
</g>
</g>
<!-- Node12&#45;&gt;Node5 -->
<g id="edge19_Node000012_Node000005" class="edge">
<title>Node12&#45;&gt;Node5</title>
<g id="a_edge19_Node000012_Node000005"><a xlink:title=" ">
<path fill="none" stroke="#63b8ff" d="M351.11,-86.15C384.49,-107.48 464.76,-158.77 504.87,-184.4"/>
<polygon fill="#63b8ff" stroke="#63b8ff" points="503.15,-187.46 513.47,-189.89 506.92,-181.56 503.15,-187.46"/>
</a>
</g>
</g>
<!-- Node13 -->
<g id="Node000013" class="node">
<title>Node13</title>
<g id="a_Node000013"><a xlink:href="structProblemData.html#a9f9c5ab24ac824b060f3cdb7bbd764bf" target="_top" xlink:title="Adds a reviewer with duplicate&#45;ID detection.">
<polygon fill="white" stroke="#666666" points="604.5,-19 454.5,-19 454.5,0 604.5,0 604.5,-19"/>
<text text-anchor="middle" x="529.5" y="-7" font-family="Helvetica,sans-Serif" font-size="10.00">ProblemData::addReviewer</text>
</a>
</g>
</g>
<!-- Node12&#45;&gt;Node13 -->
<g id="edge17_Node000012_Node000013" class="edge">
<title>Node12&#45;&gt;Node13</title>
<g id="a_edge17_Node000012_Node000013"><a xlink:title=" ">
<path fill="none" stroke="#63b8ff" d="M359.63,-66.95C382.37,-57.89 417.81,-44.13 449,-33.5 460.73,-29.5 473.54,-25.49 485.39,-21.91"/>
<polygon fill="#63b8ff" stroke="#63b8ff" points="486.49,-25.24 495.07,-19.02 484.49,-18.53 486.49,-25.24"/>
</a>
</g>
</g>
<!-- Node14&#45;&gt;Node4 -->
<g id="edge22_Node000014_Node000004" class="edge">
<title>Node14&#45;&gt;Node4</title>
<g id="a_edge22_Node000014_Node000004"><a xlink:title=" ">
<path fill="none" stroke="#63b8ff" d="M373.12,-160.99C395.03,-155.86 423.4,-150.08 449,-147.5 520.2,-140.33 538.64,-142.16 610,-147.5 619.43,-148.21 629.34,-149.31 639.05,-150.59"/>
<polygon fill="#63b8ff" stroke="#63b8ff" points="638.67,-154.07 649.06,-151.99 639.64,-147.14 638.67,-154.07"/>
</a>
</g>
</g>
<!-- Node14&#45;&gt;Node5 -->
<g id="edge23_Node000014_Node000005" class="edge">
<title>Node14&#45;&gt;Node5</title>
<g id="a_edge23_Node000014_Node000005"><a xlink:title=" ">
<path fill="none" stroke="#63b8ff" d="M399.3,-180.04C423.07,-183.62 449.88,-187.66 472.9,-191.12"/>
<polygon fill="#63b8ff" stroke="#63b8ff" points="472.44,-194.59 482.85,-192.62 473.48,-187.67 472.44,-194.59"/>
</a>
</g>
</g>
<!-- Node15 -->
<g id="Node000015" class="node">
<title>Node15</title>
<g id="a_Node000015"><a xlink:href="structProblemData.html#a849ef6ded60771bec2a5e1b6faf0545c" target="_top" xlink:title="Adds a submission with duplicate&#45;ID detection.">
<polygon fill="white" stroke="#666666" points="610,-95 449,-95 449,-76 610,-76 610,-95"/>
<text text-anchor="middle" x="529.5" y="-83" font-family="Helvetica,sans-Serif" font-size="10.00">ProblemData::addSubmission</text>
</a>
</g>
</g>
<!-- Node14&#45;&gt;Node15 -->
<g id="edge21_Node000014_Node000015" class="edge">
<title>Node14&#45;&gt;Node15</title>
<g id="a_edge21_Node000014_Node000015"><a xlink:title=" ">
<path fill="none" stroke="#63b8ff" d="M351.23,-160.99C372.49,-148.01 412.56,-124.65 449,-109.5 459.29,-105.22 470.62,-101.33 481.42,-98"/>
<polygon fill="#63b8ff" stroke="#63b8ff" points="482.57,-101.31 491.15,-95.09 480.56,-94.6 482.57,-101.31"/>
</a>
</g>
</g>
</g>
</svg>
