<?xml version="1.0" encoding="UTF-8" standalone="no"?>
<!DOCTYPE svg PUBLIC "-//W3C//DTD SVG 1.1//EN"
 "http://www.w3.org/Graphics/SVG/1.1/DTD/svg11.dtd">
<!-- Generated by graphviz version 2.43.0 (0)
 -->
<!-- Title: test_parser_single.cpp Pages: 1 -->
<svg width="634pt" height="192pt"
 viewBox="0.00 0.00 633.50 192.00" xmlns="http://www.w3.org/2000/svg" xmlns:xlink="http://www.w3.org/1999/xlink">
<g id="graph0" class="graph" transform="scale(1 1) rotate(0) translate(4 188)">
<title>test_parser_single.cpp</title>
<!-- Node1 -->
<g id="Node000001" class="node">
<title>Node1</title>
<g id="a_Node000001"><a xlink:title=" ">
<polygon fill="#999999" stroke="#666666" points="541,-184 415,-184 415,-165 541,-165 541,-184"/>
<text text-anchor="middle" x="478" y="-172" font-family="Helvetica,sans-Serif" font-size="10.00">test_parser_single.cpp</text>
</a>
</g>
</g>
<!-- Node2 -->
<g id="Node000002" class="node">
<title>Node2</title>
<g id="a_Node000002"><a xlink:href="parser_8h.html" target="_top" xlink:title="Robust parser for the conference assignment input file format.">
<polygon fill="white" stroke="#666666" points="360,-129 304,-129 304,-110 360,-110 360,-129"/>
<text text-anchor="middle" x="332" y="-117" font-family="Helvetica,sans-Serif" font-size="10.00">parser.h</text>
</a>
</g>
</g>
<!-- Node1&#45;&gt;Node2 -->
<g id="edge1_Node000001_Node000002" class="edge">
<title>Node1&#45;&gt;Node2</title>
<g id="a_edge1_Node000001_Node000002"><a xlink:title=" ">
<path fill="none" stroke="#63b8ff" d="M454.54,-164.98C430.42,-156.23 392.63,-142.51 365.4,-132.62"/>
<polygon fill="#63b8ff" stroke="#63b8ff" points="366.48,-129.29 355.88,-129.17 364.09,-135.87 366.48,-129.29"/>
</a>
</g>
</g>
<!-- Node11 -->
<g id="Node000011" class="node">
<title>Node11</title>
<g id="a_Node000011"><a xlink:title=" ">
<polygon fill="#e0e0e0" stroke="#999999" points="467.5,-74 412.5,-74 412.5,-55 467.5,-55 467.5,-74"/>
<text text-anchor="middle" x="440" y="-62" font-family="Helvetica,sans-Serif" font-size="10.00">fstream</text>
</a>
</g>
</g>
<!-- Node1&#45;&gt;Node11 -->
<g id="edge18_Node000001_Node000011" class="edge">
<title>Node1&#45;&gt;Node11</title>
<g id="a_edge18_Node000001_Node000011"><a xlink:title=" ">
<path fill="none" stroke="#63b8ff" d="M474.89,-164.66C468.68,-147.01 454.63,-107.09 446.38,-83.64"/>
<polygon fill="#63b8ff" stroke="#63b8ff" points="449.67,-82.43 443.05,-74.16 443.06,-84.75 449.67,-82.43"/>
</a>
</g>
</g>
<!-- Node13 -->
<g id="Node000013" class="node">
<title>Node13</title>
<g id="a_Node000013"><a xlink:title=" ">
<polygon fill="#e0e0e0" stroke="#999999" points="546,-74 486,-74 486,-55 546,-55 546,-74"/>
<text text-anchor="middle" x="516" y="-62" font-family="Helvetica,sans-Serif" font-size="10.00">iostream</text>
</a>
</g>
</g>
<!-- Node1&#45;&gt;Node13 -->
<g id="edge17_Node000001_Node000013" class="edge">
<title>Node1&#45;&gt;Node13</title>
<g id="a_edge17_Node000001_Node000013"><a xlink:title=" ">
<path fill="none" stroke="#63b8ff" d="M480.28,-164.77C483.57,-152.44 490.03,-129.26 497,-110 500.22,-101.11 504.27,-91.44 507.81,-83.39"/>
<polygon fill="#63b8ff" stroke="#63b8ff" points="511.02,-84.8 511.92,-74.25 504.63,-81.94 511.02,-84.8"/>
</a>
</g>
</g>
<!-- Node15 -->
<g id="Node000015" class="node">
<title>Node15</title>
<g id="a_Node000015"><a xlink:title=" ">
<polygon fill="#e0e0e0" stroke="#999999" points="558,-129 506,-129 506,-110 558,-110 558,-129"/>
<text text-anchor="middle" x="532" y="-117" font-family="Helvetica,sans-Serif" font-size="10.00">cassert</text>
</a>
</g>
</g>
<!-- Node1&#45;&gt;Node15 -->
<g id="edge16_Node000001_Node000015" class="edge">
<title>Node1&#45;&gt;Node15</title>
<g id="a_edge16_Node000001_Node000015"><a xlink:title=" ">
<path fill="none" stroke="#63b8ff" d="M486.92,-164.75C494.78,-157.03 506.43,-145.6 515.92,-136.28"/>
<polygon fill="#63b8ff" stroke="#63b8ff" points="518.56,-138.59 523.25,-129.09 513.66,-133.6 518.56,-138.59"/>
</a>
</g>
</g>
<!-- Node16 -->
<g id="Node000016" class="node">
<title>Node16</title>
<g id="a_Node000016"><a xlink:title=" ">
<polygon fill="#e0e0e0" stroke="#999999" points="625.5,-129 576.5,-129 576.5,-110 625.5,-110 625.5,-129"/>
<text text-anchor="middle" x="601" y="-117" font-family="Helvetica,sans-Serif" font-size="10.00">cstdlib</text>
</a>
</g>
</g>
<!-- Node1&#45;&gt;Node16 -->
<g id="edge19_Node000001_Node000016" class="edge">
<title>Node1&#45;&gt;Node16</title>
<g id="a_edge19_Node000001_Node000016"><a xlink:title=" ">
<path fill="none" stroke="#63b8ff" d="M497.76,-164.98C517.73,-156.38 548.8,-142.99 571.65,-133.15"/>
<polygon fill="#63b8ff" stroke="#63b8ff" points="573.08,-136.34 580.88,-129.17 570.31,-129.91 573.08,-136.34"/>
</a>
</g>
</g>
<!-- Node3 -->
<g id="Node000003" class="node">
<title>Node3</title>
<g id="a_Node000003"><a xlink:href="domain_8h.html" target="_top" xlink:title="Domain entities for the Scientific Conference Organization Tool.">
<polygon fill="white" stroke="#666666" points="274,-74 212,-74 212,-55 274,-55 274,-74"/>
<text text-anchor="middle" x="243" y="-62" font-family="Helvetica,sans-Serif" font-size="10.00">domain.h</text>
</a>
</g>
</g>
<!-- Node2&#45;&gt;Node3 -->
<g id="edge2_Node000002_Node000003" class="edge">
<title>Node2&#45;&gt;Node3</title>
<g id="a_edge2_Node000002_Node000003"><a xlink:title=" ">
<path fill="none" stroke="#63b8ff" d="M317.7,-109.98C303.9,-101.77 282.76,-89.18 266.49,-79.49"/>
<polygon fill="#63b8ff" stroke="#63b8ff" points="267.94,-76.28 257.56,-74.17 264.36,-82.29 267.94,-76.28"/>
</a>
</g>
</g>
<!-- Node4 -->
<g id="Node000004" class="node">
<title>Node4</title>
<g id="a_Node000004"><a xlink:title=" ">
<polygon fill="#e0e0e0" stroke="#999999" points="44,-19 0,-19 0,0 44,0 44,-19"/>
<text text-anchor="middle" x="22" y="-7" font-family="Helvetica,sans-Serif" font-size="10.00">string</text>
</a>
</g>
</g>
<!-- Node2&#45;&gt;Node4 -->
<g id="edge10_Node000002_Node000004" class="edge">
<title>Node2&#45;&gt;Node4</title>
<g id="a_edge10_Node000002_Node000004"><a xlink:title=" ">
<path fill="none" stroke="#63b8ff" d="M304.21,-109.99C277.84,-101.66 237.25,-88.19 203,-74 185.19,-66.62 181.92,-62.13 164,-55 143.9,-47.01 89.33,-30.43 53.99,-19.92"/>
<polygon fill="#63b8ff" stroke="#63b8ff" points="54.72,-16.48 44.14,-17 52.73,-23.19 54.72,-16.48"/>
</a>
</g>
</g>
<!-- Node10 -->
<g id="Node000010" class="node">
<title>Node10</title>
<g id="a_Node000010"><a xlink:title=" ">
<polygon fill="#e0e0e0" stroke="#999999" points="556,-19 500,-19 500,0 556,0 556,-19"/>
<text text-anchor="middle" x="528" y="-7" font-family="Helvetica,sans-Serif" font-size="10.00">sstream</text>
</a>
</g>
</g>
<!-- Node2&#45;&gt;Node10 -->
<g id="edge12_Node000002_Node000010" class="edge">
<title>Node2&#45;&gt;Node10</title>
<g id="a_edge12_Node000002_Node000010"><a xlink:title=" ">
<path fill="none" stroke="#63b8ff" d="M326.56,-109.62C319.15,-96.24 308.18,-70.82 321,-55 367.63,2.54 411.81,-32.48 489.57,-19.05"/>
<polygon fill="#63b8ff" stroke="#63b8ff" points="490.59,-22.41 499.73,-17.05 489.24,-15.54 490.59,-22.41"/>
</a>
</g>
</g>
<!-- Node2&#45;&gt;Node11 -->
<g id="edge11_Node000002_Node000011" class="edge">
<title>Node2&#45;&gt;Node11</title>
<g id="a_edge11_Node000002_Node000011"><a xlink:title=" ">
<path fill="none" stroke="#63b8ff" d="M349.35,-109.98C366.57,-101.54 393.2,-88.47 413.15,-78.68"/>
<polygon fill="#63b8ff" stroke="#63b8ff" points="414.9,-81.72 422.33,-74.17 411.81,-75.43 414.9,-81.72"/>
</a>
</g>
</g>
<!-- Node12 -->
<g id="Node000012" class="node">
<title>Node12</title>
<g id="a_Node000012"><a xlink:title=" ">
<polygon fill="#e0e0e0" stroke="#999999" points="394,-74 330,-74 330,-55 394,-55 394,-74"/>
<text text-anchor="middle" x="362" y="-62" font-family="Helvetica,sans-Serif" font-size="10.00">algorithm</text>
</a>
</g>
</g>
<!-- Node2&#45;&gt;Node12 -->
<g id="edge13_Node000002_Node000012" class="edge">
<title>Node2&#45;&gt;Node12</title>
<g id="a_edge13_Node000002_Node000012"><a xlink:title=" ">
<path fill="none" stroke="#63b8ff" d="M336.95,-109.75C341.06,-102.49 347.03,-91.95 352.1,-82.98"/>
<polygon fill="#63b8ff" stroke="#63b8ff" points="355.26,-84.52 357.14,-74.09 349.17,-81.07 355.26,-84.52"/>
</a>
</g>
</g>
<!-- Node2&#45;&gt;Node13 -->
<g id="edge14_Node000002_Node000013" class="edge">
<title>Node2&#45;&gt;Node13</title>
<g id="a_edge14_Node000002_Node000013"><a xlink:title=" ">
<path fill="none" stroke="#63b8ff" d="M360.35,-110.33C391.45,-101.38 441.59,-86.93 476.53,-76.87"/>
<polygon fill="#63b8ff" stroke="#63b8ff" points="477.76,-80.16 486.4,-74.03 475.82,-73.43 477.76,-80.16"/>
</a>
</g>
</g>
<!-- Node14 -->
<g id="Node000014" class="node">
<title>Node14</title>
<g id="a_Node000014"><a xlink:title=" ">
<polygon fill="#e0e0e0" stroke="#999999" points="155.5,-74 106.5,-74 106.5,-55 155.5,-55 155.5,-74"/>
<text text-anchor="middle" x="131" y="-62" font-family="Helvetica,sans-Serif" font-size="10.00">cctype</text>
</a>
</g>
</g>
<!-- Node2&#45;&gt;Node14 -->
<g id="edge15_Node000002_Node000014" class="edge">
<title>Node2&#45;&gt;Node14</title>
<g id="a_edge15_Node000002_Node000014"><a xlink:title=" ">
<path fill="none" stroke="#63b8ff" d="M303.63,-111.02C267.37,-101.46 204.64,-84.92 165.61,-74.63"/>
<polygon fill="#63b8ff" stroke="#63b8ff" points="166.31,-71.19 155.75,-72.03 164.53,-77.96 166.31,-71.19"/>
</a>
</g>
</g>
<!-- Node3&#45;&gt;Node4 -->
<g id="edge3_Node000003_Node000004" class="edge">
<title>Node3&#45;&gt;Node4</title>
<g id="a_edge3_Node000003_Node000004"><a xlink:title=" ">
<path fill="none" stroke="#63b8ff" d="M211.98,-56.61C176.2,-48.58 115.4,-34.69 54.15,-19.22"/>
<polygon fill="#63b8ff" stroke="#63b8ff" points="54.88,-15.8 44.32,-16.73 53.16,-22.58 54.88,-15.8"/>
</a>
</g>
</g>
<!-- Node5 -->
<g id="Node000005" class="node">
<title>Node5</title>
<g id="a_Node000005"><a xlink:title=" ">
<polygon fill="#e0e0e0" stroke="#999999" points="266.5,-19 219.5,-19 219.5,0 266.5,0 266.5,-19"/>
<text text-anchor="middle" x="243" y="-7" font-family="Helvetica,sans-Serif" font-size="10.00">vector</text>
</a>
</g>
</g>
<!-- Node3&#45;&gt;Node5 -->
<g id="edge4_Node000003_Node000005" class="edge">
<title>Node3&#45;&gt;Node5</title>
<g id="a_edge4_Node000003_Node000005"><a xlink:title=" ">
<path fill="none" stroke="#63b8ff" d="M243,-54.75C243,-47.8 243,-37.85 243,-29.13"/>
<polygon fill="#63b8ff" stroke="#63b8ff" points="246.5,-29.09 243,-19.09 239.5,-29.09 246.5,-29.09"/>
</a>
</g>
</g>
<!-- Node6 -->
<g id="Node000006" class="node">
<title>Node6</title>
<g id="a_Node000006"><a xlink:title=" ">
<polygon fill="#e0e0e0" stroke="#999999" points="377.5,-19 284.5,-19 284.5,0 377.5,0 377.5,-19"/>
<text text-anchor="middle" x="331" y="-7" font-family="Helvetica,sans-Serif" font-size="10.00">unordered_map</text>
</a>
</g>
</g>
<!-- Node3&#45;&gt;Node6 -->
<g id="edge5_Node000003_Node000006" class="edge">
<title>Node3&#45;&gt;Node6</title>
<g id="a_edge5_Node000003_Node000006"><a xlink:title=" ">
<path fill="none" stroke="#63b8ff" d="M257.14,-54.98C270.79,-46.77 291.69,-34.18 307.78,-24.49"/>
<polygon fill="#63b8ff" stroke="#63b8ff" points="309.84,-27.33 316.6,-19.17 306.23,-21.33 309.84,-27.33"/>
</a>
</g>
</g>
<!-- Node7 -->
<g id="Node000007" class="node">
<title>Node7</title>
<g id="a_Node000007"><a xlink:title=" ">
<polygon fill="#e0e0e0" stroke="#999999" points="482,-19 396,-19 396,0 482,0 482,-19"/>
<text text-anchor="middle" x="439" y="-7" font-family="Helvetica,sans-Serif" font-size="10.00">unordered_set</text>
</a>
</g>
</g>
<!-- Node3&#45;&gt;Node7 -->
<g id="edge6_Node000003_Node000007" class="edge">
<title>Node3&#45;&gt;Node7</title>
<g id="a_edge6_Node000003_Node000007"><a xlink:title=" ">
<path fill="none" stroke="#63b8ff" d="M274.06,-55.1C307.41,-46.08 360.57,-31.71 397.49,-21.73"/>
<polygon fill="#63b8ff" stroke="#63b8ff" points="398.7,-25.02 407.44,-19.03 396.87,-18.27 398.7,-25.02"/>
</a>
</g>
</g>
<!-- Node8 -->
<g id="Node000008" class="node">
<title>Node8</title>
<g id="a_Node000008"><a xlink:title=" ">
<polygon fill="#e0e0e0" stroke="#999999" points="118,-19 62,-19 62,0 118,0 118,-19"/>
<text text-anchor="middle" x="90" y="-7" font-family="Helvetica,sans-Serif" font-size="10.00">optional</text>
</a>
</g>
</g>
<!-- Node3&#45;&gt;Node8 -->
<g id="edge7_Node000003_Node000008" class="edge">
<title>Node3&#45;&gt;Node8</title>
<g id="a_edge7_Node000003_Node000008"><a xlink:title=" ">
<path fill="none" stroke="#63b8ff" d="M218.42,-54.98C192.95,-46.16 152.96,-32.31 124.37,-22.41"/>
<polygon fill="#63b8ff" stroke="#63b8ff" points="125.37,-19.05 114.77,-19.08 123.08,-25.66 125.37,-19.05"/>
</a>
</g>
</g>
<!-- Node9 -->
<g id="Node000009" class="node">
<title>Node9</title>
<g id="a_Node000009"><a xlink:title=" ">
<polygon fill="#e0e0e0" stroke="#999999" points="201.5,-19 136.5,-19 136.5,0 201.5,0 201.5,-19"/>
<text text-anchor="middle" x="169" y="-7" font-family="Helvetica,sans-Serif" font-size="10.00">stdexcept</text>
</a>
</g>
</g>
<!-- Node3&#45;&gt;Node9 -->
<g id="edge8_Node000003_Node000009" class="edge">
<title>Node3&#45;&gt;Node9</title>
<g id="a_edge8_Node000003_Node000009"><a xlink:title=" ">
<path fill="none" stroke="#63b8ff" d="M231.11,-54.98C219.85,-46.92 202.71,-34.65 189.29,-25.03"/>
<polygon fill="#63b8ff" stroke="#63b8ff" points="191.27,-22.15 181.11,-19.17 187.2,-27.84 191.27,-22.15"/>
</a>
</g>
</g>
<!-- Node3&#45;&gt;Node10 -->
<g id="edge9_Node000003_Node000010" class="edge">
<title>Node3&#45;&gt;Node10</title>
<g id="a_edge9_Node000003_Node000010"><a xlink:title=" ">
<path fill="none" stroke="#63b8ff" d="M274.46,-57.51C279,-56.66 283.62,-55.8 288,-55 375.05,-39.06 399.55,-37.37 489.9,-19.14"/>
<polygon fill="#63b8ff" stroke="#63b8ff" points="490.65,-22.56 499.75,-17.14 489.25,-15.7 490.65,-22.56"/>
</a>
</g>
</g>
</g>
</svg>
