<?xml version="1.0" encoding="UTF-8" standalone="no"?>
<!DOCTYPE svg PUBLIC "-//W3C//DTD SVG 1.1//EN"
 "http://www.w3.org/Graphics/SVG/1.1/DTD/svg11.dtd">
<!-- Generated by graphviz version 2.43.0 (0)
 -->
<!-- Title: test_stress Pages: 1 -->
<svg width="950pt" height="477pt"
 viewBox="0.00 0.00 950.00 477.00" xmlns="http://www.w3.org/2000/svg" xmlns:xlink="http://www.w3.org/1999/xlink">
<g id="graph0" class="graph" transform="scale(1 1) rotate(0) translate(4 473)">
<title>test_stress</title>
<!-- Node1 -->
<g id="Node000001" class="node">
<title>Node1</title>
<g id="a_Node000001"><a xlink:title=" ">
<polygon fill="#999999" stroke="#666666" points="70,-317 0,-317 0,-298 70,-298 70,-317"/>
<text text-anchor="middle" x="35" y="-305" font-family="Helvetica,sans-Serif" font-size="10.00">test_stress</text>
</a>
</g>
</g>
<!-- Node2 -->
<g id="Node000002" class="node">
<title>Node2</title>
<g id="a_Node000002"><a xlink:href="structProblemData.html#a9f9c5ab24ac824b060f3cdb7bbd764bf" target="_top" xlink:title="Adds a reviewer with duplicate&#45;ID detection.">
<polygon fill="white" stroke="#666666" points="272,-373 122,-373 122,-354 272,-354 272,-373"/>
<text text-anchor="middle" x="197" y="-361" font-family="Helvetica,sans-Serif" font-size="10.00">ProblemData::addReviewer</text>
</a>
</g>
</g>
<!-- Node1&#45;&gt;Node2 -->
<g id="edge1_Node000001_Node000002" class="edge">
<title>Node1&#45;&gt;Node2</title>
<g id="a_edge1_Node000001_Node000002"><a xlink:title=" ">
<path fill="none" stroke="#63b8ff" d="M50.41,-317C64.16,-325.65 85.72,-338.16 106,-345.5 112.24,-347.76 118.83,-349.76 125.5,-351.53"/>
<polygon fill="#63b8ff" stroke="#63b8ff" points="124.74,-354.94 135.28,-353.95 126.42,-348.15 124.74,-354.94"/>
</a>
</g>
</g>
<!-- Node3 -->
<g id="Node000003" class="node">
<title>Node3</title>
<g id="a_Node000003"><a xlink:href="structProblemData.html#a849ef6ded60771bec2a5e1b6faf0545c" target="_top" xlink:title="Adds a submission with duplicate&#45;ID detection.">
<polygon fill="white" stroke="#666666" points="277.5,-336 116.5,-336 116.5,-317 277.5,-317 277.5,-336"/>
<text text-anchor="middle" x="197" y="-324" font-family="Helvetica,sans-Serif" font-size="10.00">ProblemData::addSubmission</text>
</a>
</g>
</g>
<!-- Node1&#45;&gt;Node3 -->
<g id="edge2_Node000001_Node000003" class="edge">
<title>Node1&#45;&gt;Node3</title>
<g id="a_edge2_Node000001_Node000003"><a xlink:title=" ">
<path fill="none" stroke="#63b8ff" d="M70.32,-311.58C81.05,-312.85 93.42,-314.32 106.12,-315.83"/>
<polygon fill="#63b8ff" stroke="#63b8ff" points="106.02,-319.34 116.36,-317.04 106.85,-312.39 106.02,-319.34"/>
</a>
</g>
</g>
<!-- Node4 -->
<g id="Node000004" class="node">
<title>Node4</title>
<g id="a_Node000004"><a xlink:href="structProblemData.html#a6b90c06ef7a99d80470143618ce5a323" target="_top" xlink:title="Quick sanity check: is total reviewer capacity sufficient?">
<polygon fill="white" stroke="#666666" points="288,-299 106,-299 106,-280 288,-280 288,-299"/>
<text text-anchor="middle" x="197" y="-287" font-family="Helvetica,sans-Serif" font-size="10.00">ProblemData::hasEnoughCapacity</text>
</a>
</g>
</g>
<!-- Node1&#45;&gt;Node4 -->
<g id="edge3_Node000001_Node000004" class="edge">
<title>Node1&#45;&gt;Node4</title>
<g id="a_edge3_Node000001_Node000004"><a xlink:title=" ">
<path fill="none" stroke="#63b8ff" d="M70.32,-303.64C79.67,-302.59 90.28,-301.39 101.26,-300.16"/>
<polygon fill="#63b8ff" stroke="#63b8ff" points="101.89,-303.61 111.43,-299.01 101.11,-296.65 101.89,-303.61"/>
</a>
</g>
</g>
<!-- Node5 -->
<g id="Node000005" class="node">
<title>Node5</title>
<g id="a_Node000005"><a xlink:href="classSolver.html#a845e12dc97a5d14a365b1e3001aba114" target="_top" xlink:title="Solves the assignment problem for the given data.">
<polygon fill="white" stroke="#666666" points="237,-262 157,-262 157,-243 237,-243 237,-262"/>
<text text-anchor="middle" x="197" y="-250" font-family="Helvetica,sans-Serif" font-size="10.00">Solver::solve</text>
</a>
</g>
</g>
<!-- Node1&#45;&gt;Node5 -->
<g id="edge4_Node000001_Node000005" class="edge">
<title>Node1&#45;&gt;Node5</title>
<g id="a_edge4_Node000001_Node000005"><a xlink:title=" ">
<path fill="none" stroke="#63b8ff" d="M51.58,-297.95C65.42,-289.84 86.43,-278.46 106,-271.5 118.95,-266.9 133.36,-263.24 146.8,-260.42"/>
<polygon fill="#63b8ff" stroke="#63b8ff" points="147.71,-263.8 156.83,-258.42 146.34,-256.94 147.71,-263.8"/>
</a>
</g>
</g>
<!-- Node6 -->
<g id="Node000006" class="node">
<title>Node6</title>
<g id="a_Node000006"><a xlink:href="classNetworkBuilder.html#af514e79c3d2f21597c54e01c4ce9475d" target="_top" xlink:title="Builds the complete flow network.">
<polygon fill="white" stroke="#666666" points="488,-262 324,-262 324,-243 488,-243 488,-262"/>
<text text-anchor="middle" x="406" y="-250" font-family="Helvetica,sans-Serif" font-size="10.00">NetworkBuilder::buildNetwork</text>
</a>
</g>
</g>
<!-- Node5&#45;&gt;Node6 -->
<g id="edge5_Node000005_Node000006" class="edge">
<title>Node5&#45;&gt;Node6</title>
<g id="a_edge5_Node000005_Node000006"><a xlink:title=" ">
<path fill="none" stroke="#63b8ff" d="M237.42,-252.5C259.06,-252.5 286.85,-252.5 313.56,-252.5"/>
<polygon fill="#63b8ff" stroke="#63b8ff" points="313.73,-256 323.73,-252.5 313.73,-249 313.73,-256"/>
</a>
</g>
</g>
<!-- Node11 -->
<g id="Node000011" class="node">
<title>Node11</title>
<g id="a_Node000011"><a xlink:href="structProblemData.html#a8972080e7733220bd51b437e111bf5c9" target="_top" xlink:title="Number of reviewers.">
<polygon fill="white" stroke="#666666" points="705.5,-393 546.5,-393 546.5,-374 705.5,-374 705.5,-393"/>
<text text-anchor="middle" x="626" y="-381" font-family="Helvetica,sans-Serif" font-size="10.00">ProblemData::numReviewers</text>
</a>
</g>
</g>
<!-- Node5&#45;&gt;Node11 -->
<g id="edge27_Node000005_Node000011" class="edge">
<title>Node5&#45;&gt;Node11</title>
<g id="a_edge27_Node000005_Node000011"><a xlink:title=" ">
<path fill="none" stroke="#63b8ff" d="M237.35,-259.29C253.24,-262.43 271.64,-266.56 288,-271.5 396.07,-304.17 415.42,-334.55 524,-365.5 532.4,-367.89 541.29,-370.03 550.17,-371.92"/>
<polygon fill="#63b8ff" stroke="#63b8ff" points="549.67,-375.39 560.17,-373.96 551.07,-368.53 549.67,-375.39"/>
</a>
</g>
</g>
<!-- Node12 -->
<g id="Node000012" class="node">
<title>Node12</title>
<g id="a_Node000012"><a xlink:href="structProblemData.html#af8f49cc7cddaa7219f2a6f3bc9853474" target="_top" xlink:title="Number of submissions.">
<polygon fill="white" stroke="#666666" points="711,-167 541,-167 541,-148 711,-148 711,-167"/>
<text text-anchor="middle" x="626" y="-155" font-family="Helvetica,sans-Serif" font-size="10.00">ProblemData::numSubmissions</text>
</a>
</g>
</g>
<!-- Node5&#45;&gt;Node12 -->
<g id="edge28_Node000005_Node000012" class="edge">
<title>Node5&#45;&gt;Node12</title>
<g id="a_edge28_Node000005_Node000012"><a xlink:title=" ">
<path fill="none" stroke="#63b8ff" d="M237.03,-243.82C313.96,-226.7 485.28,-188.59 572.21,-169.24"/>
<polygon fill="#63b8ff" stroke="#63b8ff" points="573.13,-172.63 582.13,-167.04 571.61,-165.79 573.13,-172.63"/>
</a>
</g>
</g>
<!-- Node17 -->
<g id="Node000017" class="node">
<title>Node17</title>
<g id="a_Node000017"><a xlink:href="classGraph.html#afd2749a1cd58db2d3b6fa6eef639399c" target="_top" xlink:title="Computes the maximum flow from source to sink using Edmonds&#45;Karp.">
<polygon fill="white" stroke="#666666" points="465.5,-431 346.5,-431 346.5,-412 465.5,-412 465.5,-431"/>
<text text-anchor="middle" x="406" y="-419" font-family="Helvetica,sans-Serif" font-size="10.00">Graph::edmondsKarp</text>
</a>
</g>
</g>
<!-- Node5&#45;&gt;Node17 -->
<g id="edge16_Node000005_Node000017" class="edge">
<title>Node5&#45;&gt;Node17</title>
<g id="a_edge16_Node000005_Node000017"><a xlink:title=" ">
<path fill="none" stroke="#63b8ff" d="M237.45,-253.41C254.44,-255.57 273.66,-260.55 288,-271.5 315.81,-292.73 303.3,-313.3 324,-341.5 341.99,-366.01 367.61,-389.95 385.19,-405.15"/>
<polygon fill="#63b8ff" stroke="#63b8ff" points="383.22,-408.07 393.11,-411.88 387.75,-402.74 383.22,-408.07"/>
</a>
</g>
</g>
<!-- Node20 -->
<g id="Node000020" class="node">
<title>Node20</title>
<g id="a_Node000020"><a xlink:href="classSolver.html#ab064c56e0bda025818ce6f8461dd4e80" target="_top" xlink:title="Extracts the assignment from the solved flow network.">
<polygon fill="white" stroke="#666666" points="465.5,-93 346.5,-93 346.5,-74 465.5,-74 465.5,-93"/>
<text text-anchor="middle" x="406" y="-81" font-family="Helvetica,sans-Serif" font-size="10.00">Solver::extractResult</text>
</a>
</g>
</g>
<!-- Node5&#45;&gt;Node20 -->
<g id="edge20_Node000005_Node000020" class="edge">
<title>Node5&#45;&gt;Node20</title>
<g id="a_edge20_Node000005_Node000020"><a xlink:title=" ">
<path fill="none" stroke="#63b8ff" d="M209.72,-242.93C243.73,-215.17 342.68,-134.38 385.2,-99.66"/>
<polygon fill="#63b8ff" stroke="#63b8ff" points="387.62,-102.21 393.15,-93.17 383.19,-96.79 387.62,-102.21"/>
</a>
</g>
</g>
<!-- Node7 -->
<g id="Node000007" class="node">
<title>Node7</title>
<g id="a_Node000007"><a xlink:href="classGraph.html#a8cdfb932968807565b3cc3b52759e3b8" target="_top" xlink:title="Adds a directed edge (u → v) with the given capacity, along with its reverse edge (v → u) with capaci...">
<polygon fill="white" stroke="#666666" points="673,-356 579,-356 579,-337 673,-337 673,-356"/>
<text text-anchor="middle" x="626" y="-344" font-family="Helvetica,sans-Serif" font-size="10.00">Graph::addEdge</text>
</a>
</g>
</g>
<!-- Node6&#45;&gt;Node7 -->
<g id="edge6_Node000006_Node000007" class="edge">
<title>Node6&#45;&gt;Node7</title>
<g id="a_edge6_Node000006_Node000007"><a xlink:title=" ">
<path fill="none" stroke="#63b8ff" d="M418.42,-262.2C438.4,-278.62 481.65,-311.77 524,-328.5 538.06,-334.06 553.91,-337.91 568.81,-340.57"/>
<polygon fill="#63b8ff" stroke="#63b8ff" points="568.5,-344.07 578.94,-342.23 569.64,-337.16 568.5,-344.07"/>
</a>
</g>
</g>
<!-- Node9 -->
<g id="Node000009" class="node">
<title>Node9</title>
<g id="a_Node000009"><a xlink:href="classNetworkBuilder.html#acc9979fa0114fda405375f52dbe49a84" target="_top" xlink:title="Determines if a reviewer can review a submission based on domain matching.">
<polygon fill="white" stroke="#666666" points="707.5,-319 544.5,-319 544.5,-300 707.5,-300 707.5,-319"/>
<text text-anchor="middle" x="626" y="-307" font-family="Helvetica,sans-Serif" font-size="10.00">NetworkBuilder::isCompatible</text>
</a>
</g>
</g>
<!-- Node6&#45;&gt;Node9 -->
<g id="edge8_Node000006_Node000009" class="edge">
<title>Node6&#45;&gt;Node9</title>
<g id="a_edge8_Node000006_Node000009"><a xlink:title=" ">
<path fill="none" stroke="#63b8ff" d="M439.68,-262.11C463.09,-268.9 495.4,-278.07 524,-285.5 539.88,-289.63 557.25,-293.85 573.03,-297.59"/>
<polygon fill="#63b8ff" stroke="#63b8ff" points="572.6,-301.08 583.13,-299.96 574.2,-294.27 572.6,-301.08"/>
</a>
</g>
</g>
<!-- Node6&#45;&gt;Node11 -->
<g id="edge10_Node000006_Node000011" class="edge">
<title>Node6&#45;&gt;Node11</title>
<g id="a_edge10_Node000006_Node000011"><a xlink:title=" ">
<path fill="none" stroke="#63b8ff" d="M422.49,-262C439.71,-273.03 467.75,-292.43 488,-313.5 507.48,-333.77 500.35,-350.31 524,-365.5 528.05,-368.1 532.37,-370.35 536.86,-372.3"/>
<polygon fill="#63b8ff" stroke="#63b8ff" points="535.68,-375.6 546.27,-375.89 538.17,-369.05 535.68,-375.6"/>
</a>
</g>
</g>
<!-- Node6&#45;&gt;Node12 -->
<g id="edge11_Node000006_Node000012" class="edge">
<title>Node6&#45;&gt;Node12</title>
<g id="a_edge11_Node000006_Node000012"><a xlink:title=" ">
<path fill="none" stroke="#63b8ff" d="M421.74,-242.76C448.21,-225.4 503.01,-190.11 524,-181.5 535.71,-176.7 548.6,-172.72 561.13,-169.48"/>
<polygon fill="#63b8ff" stroke="#63b8ff" points="562.2,-172.82 571.08,-167.04 560.53,-166.03 562.2,-172.82"/>
</a>
</g>
</g>
<!-- Node13 -->
<g id="Node000013" class="node">
<title>Node13</title>
<g id="a_Node000013"><a xlink:href="classNetworkBuilder.html#a0b1fedb0791107aa56d1022f3964269f" target="_top" xlink:title="Maps a reviewer&#39;s vector index to its graph node ID.">
<polygon fill="white" stroke="#666666" points="709.5,-130 542.5,-130 542.5,-111 709.5,-111 709.5,-130"/>
<text text-anchor="middle" x="626" y="-118" font-family="Helvetica,sans-Serif" font-size="10.00">NetworkBuilder::reviewerNode</text>
</a>
</g>
</g>
<!-- Node6&#45;&gt;Node13 -->
<g id="edge12_Node000006_Node000013" class="edge">
<title>Node6&#45;&gt;Node13</title>
<g id="a_edge12_Node000006_Node000013"><a xlink:title=" ">
<path fill="none" stroke="#63b8ff" d="M413.62,-242.92C429.65,-220.52 473.04,-164.67 524,-138.5 527.74,-136.58 531.66,-134.86 535.67,-133.32"/>
<polygon fill="#63b8ff" stroke="#63b8ff" points="536.89,-136.6 545.21,-130.04 534.62,-129.98 536.89,-136.6"/>
</a>
</g>
</g>
<!-- Node14 -->
<g id="Node000014" class="node">
<title>Node14</title>
<g id="a_Node000014"><a xlink:href="classNetworkBuilder.html#a508fc4af685c78c10f96ab39610d4040" target="_top" xlink:title="Maps a submission&#39;s vector index to its graph node ID.">
<polygon fill="white" stroke="#666666" points="715.5,-243 536.5,-243 536.5,-224 715.5,-224 715.5,-243"/>
<text text-anchor="middle" x="626" y="-231" font-family="Helvetica,sans-Serif" font-size="10.00">NetworkBuilder::submissionNode</text>
</a>
</g>
</g>
<!-- Node6&#45;&gt;Node14 -->
<g id="edge13_Node000006_Node000014" class="edge">
<title>Node6&#45;&gt;Node14</title>
<g id="a_edge13_Node000006_Node000014"><a xlink:title=" ">
<path fill="none" stroke="#63b8ff" d="M488.18,-245.43C500.59,-244.34 513.53,-243.22 526.27,-242.1"/>
<polygon fill="#63b8ff" stroke="#63b8ff" points="526.78,-245.57 536.44,-241.22 526.17,-238.6 526.78,-245.57"/>
</a>
</g>
</g>
<!-- Node15 -->
<g id="Node000015" class="node">
<title>Node15</title>
<g id="a_Node000015"><a xlink:href="structConfig.html#a89db87ddce24e353ccabde8d0dc70ade" target="_top" xlink:title="Determines if reviewer secondary expertise should be used in matching.">
<polygon fill="white" stroke="#666666" points="936.5,-234 769.5,-234 769.5,-215 936.5,-215 936.5,-234"/>
<text text-anchor="middle" x="853" y="-222" font-family="Helvetica,sans-Serif" font-size="10.00">Config::useReviewerSecondary</text>
</a>
</g>
</g>
<!-- Node6&#45;&gt;Node15 -->
<g id="edge14_Node000006_Node000015" class="edge">
<title>Node6&#45;&gt;Node15</title>
<g id="a_edge14_Node000006_Node000015"><a xlink:title=" ">
<path fill="none" stroke="#63b8ff" d="M488.08,-257.45C553.14,-260.24 646.72,-261.56 728,-252.5 755.44,-249.44 785.68,-242.68 809.43,-236.57"/>
<polygon fill="#63b8ff" stroke="#63b8ff" points="810.4,-239.94 819.18,-234.01 808.62,-233.17 810.4,-239.94"/>
</a>
</g>
</g>
<!-- Node16 -->
<g id="Node000016" class="node">
<title>Node16</title>
<g id="a_Node000016"><a xlink:href="structConfig.html#a936e7b5bd16f50374b648f00465f1a32" target="_top" xlink:title="Determines if submission secondary domains should be used in matching.">
<polygon fill="white" stroke="#666666" points="942,-149 764,-149 764,-130 942,-130 942,-149"/>
<text text-anchor="middle" x="853" y="-137" font-family="Helvetica,sans-Serif" font-size="10.00">Config::useSubmissionSecondary</text>
</a>
</g>
</g>
<!-- Node6&#45;&gt;Node16 -->
<g id="edge15_Node000006_Node000016" class="edge">
<title>Node6&#45;&gt;Node16</title>
<g id="a_edge15_Node000006_Node000016"><a xlink:title=" ">
<path fill="none" stroke="#63b8ff" d="M434.16,-242.91C457.71,-234.84 492.81,-223.38 524,-215.5 613.49,-192.88 638.32,-198.39 728,-176.5 756.96,-169.43 789.22,-159.75 813.58,-152.06"/>
<polygon fill="#63b8ff" stroke="#63b8ff" points="814.7,-155.38 823.16,-149.01 812.57,-148.71 814.7,-155.38"/>
</a>
</g>
</g>
<!-- Node8 -->
<g id="Node000008" class="node">
<title>Node8</title>
<g id="a_Node000008"><a xlink:href="classGraph.html#a0a3f35d90f69456655a046806c725063" target="_top" xlink:title="Returns the number of nodes in the graph.">
<polygon fill="white" stroke="#666666" points="905,-394 801,-394 801,-375 905,-375 905,-394"/>
<text text-anchor="middle" x="853" y="-382" font-family="Helvetica,sans-Serif" font-size="10.00">Graph::numNodes</text>
</a>
</g>
</g>
<!-- Node7&#45;&gt;Node8 -->
<g id="edge7_Node000007_Node000008" class="edge">
<title>Node7&#45;&gt;Node8</title>
<g id="a_edge7_Node000007_Node000008"><a xlink:title=" ">
<path fill="none" stroke="#63b8ff" d="M673.08,-354.28C707.04,-360.02 753.58,-367.88 790.69,-374.15"/>
<polygon fill="#63b8ff" stroke="#63b8ff" points="790.44,-377.65 800.89,-375.87 791.61,-370.75 790.44,-377.65"/>
</a>
</g>
</g>
<!-- Node10 -->
<g id="Node000010" class="node">
<title>Node10</title>
<g id="a_Node000010"><a xlink:href="structSubmission.html#a19ab1b3a6dc11bd0b8254be4cbc31d2d" target="_top" xlink:title="Checks if this submission covers the given domain.">
<polygon fill="white" stroke="#666666" points="920,-319 786,-319 786,-300 920,-300 920,-319"/>
<text text-anchor="middle" x="853" y="-307" font-family="Helvetica,sans-Serif" font-size="10.00">Submission::hasDomain</text>
</a>
</g>
</g>
<!-- Node9&#45;&gt;Node10 -->
<g id="edge9_Node000009_Node000010" class="edge">
<title>Node9&#45;&gt;Node10</title>
<g id="a_edge9_Node000009_Node000010"><a xlink:title=" ">
<path fill="none" stroke="#63b8ff" d="M707.59,-309.5C729.69,-309.5 753.58,-309.5 775.45,-309.5"/>
<polygon fill="#63b8ff" stroke="#63b8ff" points="775.67,-313 785.67,-309.5 775.67,-306 775.67,-313"/>
</a>
</g>
</g>
<!-- Node17&#45;&gt;Node8 -->
<g id="edge19_Node000017_Node000008" class="edge">
<title>Node17&#45;&gt;Node8</title>
<g id="a_edge19_Node000017_Node000008"><a xlink:title=" ">
<path fill="none" stroke="#63b8ff" d="M465.7,-419.52C530.15,-417.01 636.64,-411.82 728,-402.5 748.55,-400.4 770.92,-397.39 790.92,-394.42"/>
<polygon fill="#63b8ff" stroke="#63b8ff" points="791.47,-397.88 800.84,-392.92 790.43,-390.95 791.47,-397.88"/>
</a>
</g>
</g>
<!-- Node18 -->
<g id="Node000018" class="node">
<title>Node18</title>
<g id="a_Node000018"><a xlink:href="classGraph.html#a348391db529c20a826a1483fe7bdcb9a" target="_top" xlink:title="BFS on the residual graph to find the shortest augmenting path.">
<polygon fill="white" stroke="#666666" points="659.5,-469 592.5,-469 592.5,-450 659.5,-450 659.5,-469"/>
<text text-anchor="middle" x="626" y="-457" font-family="Helvetica,sans-Serif" font-size="10.00">Graph::bfs</text>
</a>
</g>
</g>
<!-- Node17&#45;&gt;Node18 -->
<g id="edge17_Node000017_Node000018" class="edge">
<title>Node17&#45;&gt;Node18</title>
<g id="a_edge17_Node000017_Node000018"><a xlink:title=" ">
<path fill="none" stroke="#63b8ff" d="M461.73,-431.04C498.99,-437.54 547.61,-446.01 582.08,-452.02"/>
<polygon fill="#63b8ff" stroke="#63b8ff" points="581.84,-455.53 592.29,-453.8 583.04,-448.63 581.84,-455.53"/>
</a>
</g>
</g>
<!-- Node19 -->
<g id="Node000019" class="node">
<title>Node19</title>
<g id="a_Node000019"><a xlink:href="structEdge.html#a0b45154adf516897233895a25fad355e" target="_top" xlink:title="Residual capacity of this edge.">
<polygon fill="white" stroke="#666666" points="896,-469 810,-469 810,-450 896,-450 896,-469"/>
<text text-anchor="middle" x="853" y="-457" font-family="Helvetica,sans-Serif" font-size="10.00">Edge::residual</text>
</a>
</g>
</g>
<!-- Node18&#45;&gt;Node19 -->
<g id="edge18_Node000018_Node000019" class="edge">
<title>Node18&#45;&gt;Node19</title>
<g id="a_edge18_Node000018_Node000019"><a xlink:title=" ">
<path fill="none" stroke="#63b8ff" d="M659.72,-459.5C696.39,-459.5 756.36,-459.5 799.59,-459.5"/>
<polygon fill="#63b8ff" stroke="#63b8ff" points="799.64,-463 809.64,-459.5 799.64,-456 799.64,-463"/>
</a>
</g>
</g>
<!-- Node20&#45;&gt;Node13 -->
<g id="edge26_Node000020_Node000013" class="edge">
<title>Node20&#45;&gt;Node13</title>
<g id="a_edge26_Node000020_Node000013"><a xlink:title=" ">
<path fill="none" stroke="#63b8ff" d="M463.14,-93.03C492.27,-97.97 528.04,-104.04 558.55,-109.22"/>
<polygon fill="#63b8ff" stroke="#63b8ff" points="558.23,-112.72 568.67,-110.94 559.4,-105.82 558.23,-112.72"/>
</a>
</g>
</g>
<!-- Node21 -->
<g id="Node000021" class="node">
<title>Node21</title>
<g id="a_Node000021"><a xlink:href="classSolver.html#a0a32ae51c07e104de80b39cceaaf325f" target="_top" xlink:title="Determines which domain code caused the match between a reviewer and submission.">
<polygon fill="white" stroke="#666666" points="702,-93 550,-93 550,-74 702,-74 702,-93"/>
<text text-anchor="middle" x="626" y="-81" font-family="Helvetica,sans-Serif" font-size="10.00">Solver::findMatchedDomain</text>
</a>
</g>
</g>
<!-- Node20&#45;&gt;Node21 -->
<g id="edge21_Node000020_Node000021" class="edge">
<title>Node20&#45;&gt;Node21</title>
<g id="a_edge21_Node000020_Node000021"><a xlink:title=" ">
<path fill="none" stroke="#63b8ff" d="M465.71,-83.5C488.43,-83.5 514.89,-83.5 539.63,-83.5"/>
<polygon fill="#63b8ff" stroke="#63b8ff" points="539.75,-87 549.75,-83.5 539.75,-80 539.75,-87"/>
</a>
</g>
</g>
<!-- Node22 -->
<g id="Node000022" class="node">
<title>Node22</title>
<g id="a_Node000022"><a xlink:href="classGraph.html#af5f263b25175df3f5511ff5ede0a63aa" target="_top" xlink:title="Returns the adjacency list of a given node (const).">
<polygon fill="white" stroke="#666666" points="667.5,-56 584.5,-56 584.5,-37 667.5,-37 667.5,-56"/>
<text text-anchor="middle" x="626" y="-44" font-family="Helvetica,sans-Serif" font-size="10.00">Graph::getAdj</text>
</a>
</g>
</g>
<!-- Node20&#45;&gt;Node22 -->
<g id="edge24_Node000020_Node000022" class="edge">
<title>Node20&#45;&gt;Node22</title>
<g id="a_edge24_Node000020_Node000022"><a xlink:title=" ">
<path fill="none" stroke="#63b8ff" d="M463.14,-73.97C497.44,-68.15 540.95,-60.77 574.22,-55.12"/>
<polygon fill="#63b8ff" stroke="#63b8ff" points="574.92,-58.55 584.2,-53.43 573.75,-51.65 574.92,-58.55"/>
</a>
</g>
</g>
<!-- Node23 -->
<g id="Node000023" class="node">
<title>Node23</title>
<g id="a_Node000023"><a xlink:href="classNetworkBuilder.html#a4efdb0e13d73f6f3cbf38b4cd11a5ef3" target="_top" xlink:title="Inverse: given a graph node ID, returns the submission vector index.">
<polygon fill="white" stroke="#666666" points="728,-19 524,-19 524,0 728,0 728,-19"/>
<text text-anchor="middle" x="626" y="-7" font-family="Helvetica,sans-Serif" font-size="10.00">NetworkBuilder::nodeToSubmissionIdx</text>
</a>
</g>
</g>
<!-- Node20&#45;&gt;Node23 -->
<g id="edge25_Node000020_Node000023" class="edge">
<title>Node20&#45;&gt;Node23</title>
<g id="a_edge25_Node000020_Node000023"><a xlink:title=" ">
<path fill="none" stroke="#63b8ff" d="M423.46,-73.86C445.59,-61.31 486.49,-39.57 524,-27.5 531.39,-25.12 539.19,-23.03 547.05,-21.2"/>
<polygon fill="#63b8ff" stroke="#63b8ff" points="547.99,-24.58 557.01,-19.02 546.5,-17.74 547.99,-24.58"/>
</a>
</g>
</g>
<!-- Node21&#45;&gt;Node15 -->
<g id="edge22_Node000021_Node000015" class="edge">
<title>Node21&#45;&gt;Node15</title>
<g id="a_edge22_Node000021_Node000015"><a xlink:title=" ">
<path fill="none" stroke="#63b8ff" d="M702.25,-89.71C711.38,-92.5 720.22,-96.31 728,-101.5 752.62,-117.91 743.92,-135.76 764,-157.5 782.92,-177.99 808.7,-196.79 827.46,-209.23"/>
<polygon fill="#63b8ff" stroke="#63b8ff" points="825.75,-212.3 836.05,-214.81 829.56,-206.42 825.75,-212.3"/>
</a>
</g>
</g>
<!-- Node21&#45;&gt;Node16 -->
<g id="edge23_Node000021_Node000016" class="edge">
<title>Node21&#45;&gt;Node16</title>
<g id="a_edge23_Node000021_Node000016"><a xlink:title=" ">
<path fill="none" stroke="#63b8ff" d="M687.33,-93.02C700.78,-95.48 714.93,-98.34 728,-101.5 757.43,-108.6 790.16,-118.73 814.6,-126.74"/>
<polygon fill="#63b8ff" stroke="#63b8ff" points="813.6,-130.1 824.2,-129.92 815.8,-123.46 813.6,-130.1"/>
</a>
</g>
</g>
</g>
</svg>
