<?xml version="1.0" encoding="UTF-8" standalone="no"?>
<!DOCTYPE svg PUBLIC "-//W3C//DTD SVG 1.1//EN"
 "http://www.w3.org/Graphics/SVG/1.1/DTD/svg11.dtd">
<!-- Generated by graphviz version 2.43.0 (0)
 -->
<!-- Title: test_output.cpp Pages: 1 -->
<svg width="836pt" height="192pt"
 viewBox="0.00 0.00 835.71 192.00" xmlns="http://www.w3.org/2000/svg" xmlns:xlink="http://www.w3.org/1999/xlink">
<g id="graph0" class="graph" transform="scale(1 1) rotate(0) translate(4 188)">
<title>test_output.cpp</title>
<!-- Node1 -->
<g id="Node000001" class="node">
<title>Node1</title>
<g id="a_Node000001"><a xlink:title="End&#45;to&#45;end tests for the OutputWriter + complete pipeline.">
<polygon fill="#999999" stroke="#666666" points="336.71,-184 244.71,-184 244.71,-165 336.71,-165 336.71,-184"/>
<text text-anchor="middle" x="290.71" y="-172" font-family="Helvetica,sans-Serif" font-size="10.00">test_output.cpp</text>
</a>
</g>
</g>
<!-- Node2 -->
<g id="Node000002" class="node">
<title>Node2</title>
<g id="a_Node000002"><a xlink:href="parser_8h.html" target="_top" xlink:title="Robust parser for the conference assignment input file format.">
<polygon fill="white" stroke="#666666" points="232.71,-129 176.71,-129 176.71,-110 232.71,-110 232.71,-129"/>
<text text-anchor="middle" x="204.71" y="-117" font-family="Helvetica,sans-Serif" font-size="10.00">parser.h</text>
</a>
</g>
</g>
<!-- Node1&#45;&gt;Node2 -->
<g id="edge1_Node000001_Node000002" class="edge">
<title>Node1&#45;&gt;Node2</title>
<g id="a_edge1_Node000001_Node000002"><a xlink:title=" ">
<path fill="none" stroke="#63b8ff" d="M276.89,-164.98C263.55,-156.77 243.13,-144.18 227.4,-134.49"/>
<polygon fill="#63b8ff" stroke="#63b8ff" points="229.12,-131.44 218.78,-129.17 225.45,-137.4 229.12,-131.44"/>
</a>
</g>
</g>
<!-- Node10 -->
<g id="Node000010" class="node">
<title>Node10</title>
<g id="a_Node000010"><a xlink:title=" ">
<polygon fill="#e0e0e0" stroke="#999999" points="193.71,-19 137.71,-19 137.71,0 193.71,0 193.71,-19"/>
<text text-anchor="middle" x="165.71" y="-7" font-family="Helvetica,sans-Serif" font-size="10.00">sstream</text>
</a>
</g>
</g>
<!-- Node1&#45;&gt;Node10 -->
<g id="edge34_Node000001_Node000010" class="edge">
<title>Node1&#45;&gt;Node10</title>
<g id="a_edge34_Node000001_Node000010"><a xlink:title=" ">
<path fill="none" stroke="#63b8ff" d="M244.57,-173.43C177.86,-170.47 56.87,-153.72 5.71,-74 -23.92,-27.83 71.22,-15.22 127.42,-11.78"/>
<polygon fill="#63b8ff" stroke="#63b8ff" points="127.63,-15.28 137.42,-11.24 127.25,-8.29 127.63,-15.28"/>
</a>
</g>
</g>
<!-- Node11 -->
<g id="Node000011" class="node">
<title>Node11</title>
<g id="a_Node000011"><a xlink:title=" ">
<polygon fill="#e0e0e0" stroke="#999999" points="70.21,-74 15.21,-74 15.21,-55 70.21,-55 70.21,-74"/>
<text text-anchor="middle" x="42.71" y="-62" font-family="Helvetica,sans-Serif" font-size="10.00">fstream</text>
</a>
</g>
</g>
<!-- Node1&#45;&gt;Node11 -->
<g id="edge33_Node000001_Node000011" class="edge">
<title>Node1&#45;&gt;Node11</title>
<g id="a_edge33_Node000001_Node000011"><a xlink:title=" ">
<path fill="none" stroke="#63b8ff" d="M263.95,-164.88C238.78,-156.52 200.22,-143.07 167.71,-129 132.01,-113.55 92.18,-92.65 67.28,-79.12"/>
<polygon fill="#63b8ff" stroke="#63b8ff" points="68.65,-75.88 58.2,-74.15 65.29,-82.02 68.65,-75.88"/>
</a>
</g>
</g>
<!-- Node13 -->
<g id="Node000013" class="node">
<title>Node13</title>
<g id="a_Node000013"><a xlink:title=" ">
<polygon fill="#e0e0e0" stroke="#999999" points="291.71,-74 231.71,-74 231.71,-55 291.71,-55 291.71,-74"/>
<text text-anchor="middle" x="261.71" y="-62" font-family="Helvetica,sans-Serif" font-size="10.00">iostream</text>
</a>
</g>
</g>
<!-- Node1&#45;&gt;Node13 -->
<g id="edge32_Node000001_Node000013" class="edge">
<title>Node1&#45;&gt;Node13</title>
<g id="a_edge32_Node000001_Node000013"><a xlink:title=" ">
<path fill="none" stroke="#63b8ff" d="M288.33,-164.66C283.62,-147.09 272.97,-107.45 266.66,-83.95"/>
<polygon fill="#63b8ff" stroke="#63b8ff" points="270.01,-82.91 264.03,-74.16 263.24,-84.72 270.01,-82.91"/>
</a>
</g>
</g>
<!-- Node15 -->
<g id="Node000015" class="node">
<title>Node15</title>
<g id="a_Node000015"><a xlink:href="graph_8h.html" target="_top" xlink:title="Generic flow network graph with Edmonds&#45;Karp max&#45;flow solver.">
<polygon fill="white" stroke="#666666" points="610.21,-129 557.21,-129 557.21,-110 610.21,-110 610.21,-129"/>
<text text-anchor="middle" x="583.71" y="-117" font-family="Helvetica,sans-Serif" font-size="10.00">graph.h</text>
</a>
</g>
</g>
<!-- Node1&#45;&gt;Node15 -->
<g id="edge16_Node000001_Node000015" class="edge">
<title>Node1&#45;&gt;Node15</title>
<g id="a_edge16_Node000001_Node000015"><a xlink:title=" ">
<path fill="none" stroke="#63b8ff" d="M336.81,-165.16C394.98,-154.64 493.83,-136.76 547.1,-127.12"/>
<polygon fill="#63b8ff" stroke="#63b8ff" points="547.91,-130.53 557.12,-125.31 546.66,-123.64 547.91,-130.53"/>
</a>
</g>
</g>
<!-- Node18 -->
<g id="Node000018" class="node">
<title>Node18</title>
<g id="a_Node000018"><a xlink:title=" ">
<polygon fill="#e0e0e0" stroke="#999999" points="827.71,-74 775.71,-74 775.71,-55 827.71,-55 827.71,-74"/>
<text text-anchor="middle" x="801.71" y="-62" font-family="Helvetica,sans-Serif" font-size="10.00">cassert</text>
</a>
</g>
</g>
<!-- Node1&#45;&gt;Node18 -->
<g id="edge31_Node000001_Node000018" class="edge">
<title>Node1&#45;&gt;Node18</title>
<g id="a_edge31_Node000001_Node000018"><a xlink:title=" ">
<path fill="none" stroke="#63b8ff" d="M336.92,-171.87C401.49,-168.57 521.79,-158.64 619.71,-129 638.16,-123.41 640.78,-117.11 658.71,-110 694.38,-95.85 736.45,-83.23 765.69,-75.07"/>
<polygon fill="#63b8ff" stroke="#63b8ff" points="766.75,-78.41 775.46,-72.38 764.89,-71.66 766.75,-78.41"/>
</a>
</g>
</g>
<!-- Node19 -->
<g id="Node000019" class="node">
<title>Node19</title>
<g id="a_Node000019"><a xlink:href="output_8h.html" target="_top" xlink:title="Output formatter for the conference assignment tool.">
<polygon fill="white" stroke="#666666" points="367.21,-129 310.21,-129 310.21,-110 367.21,-110 367.21,-129"/>
<text text-anchor="middle" x="338.71" y="-117" font-family="Helvetica,sans-Serif" font-size="10.00">output.h</text>
</a>
</g>
</g>
<!-- Node1&#45;&gt;Node19 -->
<g id="edge23_Node000001_Node000019" class="edge">
<title>Node1&#45;&gt;Node19</title>
<g id="a_edge23_Node000001_Node000019"><a xlink:title=" ">
<path fill="none" stroke="#63b8ff" d="M298.63,-164.75C305.55,-157.11 315.77,-145.82 324.16,-136.56"/>
<polygon fill="#63b8ff" stroke="#63b8ff" points="326.81,-138.85 330.93,-129.09 321.62,-134.15 326.81,-138.85"/>
</a>
</g>
</g>
<!-- Node21 -->
<g id="Node000021" class="node">
<title>Node21</title>
<g id="a_Node000021"><a xlink:title=" ">
<polygon fill="#e0e0e0" stroke="#999999" points="716.21,-129 667.21,-129 667.21,-110 716.21,-110 716.21,-129"/>
<text text-anchor="middle" x="691.71" y="-117" font-family="Helvetica,sans-Serif" font-size="10.00">cstdlib</text>
</a>
</g>
</g>
<!-- Node1&#45;&gt;Node21 -->
<g id="edge35_Node000001_Node000021" class="edge">
<title>Node1&#45;&gt;Node21</title>
<g id="a_edge35_Node000001_Node000021"><a xlink:title=" ">
<path fill="none" stroke="#63b8ff" d="M336.91,-169.2C405.91,-162.46 539.88,-148.19 652.71,-129 654.16,-128.75 655.64,-128.49 657.13,-128.21"/>
<polygon fill="#63b8ff" stroke="#63b8ff" points="657.89,-131.63 667.02,-126.24 656.52,-124.76 657.89,-131.63"/>
</a>
</g>
</g>
<!-- Node3 -->
<g id="Node000003" class="node">
<title>Node3</title>
<g id="a_Node000003"><a xlink:href="domain_8h.html" target="_top" xlink:title="Domain entities for the Scientific Conference Organization Tool.">
<polygon fill="white" stroke="#666666" points="503.71,-74 441.71,-74 441.71,-55 503.71,-55 503.71,-74"/>
<text text-anchor="middle" x="472.71" y="-62" font-family="Helvetica,sans-Serif" font-size="10.00">domain.h</text>
</a>
</g>
</g>
<!-- Node2&#45;&gt;Node3 -->
<g id="edge2_Node000002_Node000003" class="edge">
<title>Node2&#45;&gt;Node3</title>
<g id="a_edge2_Node000002_Node000003"><a xlink:title=" ">
<path fill="none" stroke="#63b8ff" d="M232.82,-113.17C274.12,-105.3 353.89,-89.98 431.35,-74.25"/>
<polygon fill="#63b8ff" stroke="#63b8ff" points="432.17,-77.66 441.27,-72.23 430.78,-70.8 432.17,-77.66"/>
</a>
</g>
</g>
<!-- Node4 -->
<g id="Node000004" class="node">
<title>Node4</title>
<g id="a_Node000004"><a xlink:title=" ">
<polygon fill="#e0e0e0" stroke="#999999" points="255.71,-19 211.71,-19 211.71,0 255.71,0 255.71,-19"/>
<text text-anchor="middle" x="233.71" y="-7" font-family="Helvetica,sans-Serif" font-size="10.00">string</text>
</a>
</g>
</g>
<!-- Node2&#45;&gt;Node4 -->
<g id="edge10_Node000002_Node000004" class="edge">
<title>Node2&#45;&gt;Node4</title>
<g id="a_edge10_Node000002_Node000004"><a xlink:title=" ">
<path fill="none" stroke="#63b8ff" d="M207.08,-109.66C211.8,-92.09 222.44,-52.45 228.75,-28.95"/>
<polygon fill="#63b8ff" stroke="#63b8ff" points="232.17,-29.72 231.38,-19.16 225.41,-27.91 232.17,-29.72"/>
</a>
</g>
</g>
<!-- Node2&#45;&gt;Node10 -->
<g id="edge12_Node000002_Node000010" class="edge">
<title>Node2&#45;&gt;Node10</title>
<g id="a_edge12_Node000002_Node000010"><a xlink:title=" ">
<path fill="none" stroke="#63b8ff" d="M201.52,-109.66C195.14,-92.01 180.72,-52.09 172.26,-28.64"/>
<polygon fill="#63b8ff" stroke="#63b8ff" points="175.52,-27.38 168.83,-19.16 168.94,-29.75 175.52,-27.38"/>
</a>
</g>
</g>
<!-- Node2&#45;&gt;Node11 -->
<g id="edge11_Node000002_Node000011" class="edge">
<title>Node2&#45;&gt;Node11</title>
<g id="a_edge11_Node000002_Node000011"><a xlink:title=" ">
<path fill="none" stroke="#63b8ff" d="M178.68,-109.98C151.6,-101.13 109,-87.19 78.7,-77.28"/>
<polygon fill="#63b8ff" stroke="#63b8ff" points="79.53,-73.87 68.94,-74.08 77.35,-80.52 79.53,-73.87"/>
</a>
</g>
</g>
<!-- Node12 -->
<g id="Node000012" class="node">
<title>Node12</title>
<g id="a_Node000012"><a xlink:title=" ">
<polygon fill="#e0e0e0" stroke="#999999" points="585.71,-74 521.71,-74 521.71,-55 585.71,-55 585.71,-74"/>
<text text-anchor="middle" x="553.71" y="-62" font-family="Helvetica,sans-Serif" font-size="10.00">algorithm</text>
</a>
</g>
</g>
<!-- Node2&#45;&gt;Node12 -->
<g id="edge13_Node000002_Node000012" class="edge">
<title>Node2&#45;&gt;Node12</title>
<g id="a_edge13_Node000002_Node000012"><a xlink:title=" ">
<path fill="none" stroke="#63b8ff" d="M232.83,-115.02C285.46,-108.38 402.63,-93.02 511.36,-74.14"/>
<polygon fill="#63b8ff" stroke="#63b8ff" points="512.27,-77.54 521.51,-72.37 511.06,-70.64 512.27,-77.54"/>
</a>
</g>
</g>
<!-- Node2&#45;&gt;Node13 -->
<g id="edge14_Node000002_Node000013" class="edge">
<title>Node2&#45;&gt;Node13</title>
<g id="a_edge14_Node000002_Node000013"><a xlink:title=" ">
<path fill="none" stroke="#63b8ff" d="M213.86,-109.98C222.21,-102.23 234.74,-90.58 244.88,-81.14"/>
<polygon fill="#63b8ff" stroke="#63b8ff" points="247.44,-83.54 252.38,-74.17 242.68,-78.42 247.44,-83.54"/>
</a>
</g>
</g>
<!-- Node14 -->
<g id="Node000014" class="node">
<title>Node14</title>
<g id="a_Node000014"><a xlink:title=" ">
<polygon fill="#e0e0e0" stroke="#999999" points="137.21,-74 88.21,-74 88.21,-55 137.21,-55 137.21,-74"/>
<text text-anchor="middle" x="112.71" y="-62" font-family="Helvetica,sans-Serif" font-size="10.00">cctype</text>
</a>
</g>
</g>
<!-- Node2&#45;&gt;Node14 -->
<g id="edge15_Node000002_Node000014" class="edge">
<title>Node2&#45;&gt;Node14</title>
<g id="a_edge15_Node000002_Node000014"><a xlink:title=" ">
<path fill="none" stroke="#63b8ff" d="M189.93,-109.98C175.53,-101.69 153.4,-88.94 136.51,-79.22"/>
<polygon fill="#63b8ff" stroke="#63b8ff" points="138.17,-76.13 127.76,-74.17 134.67,-82.19 138.17,-76.13"/>
</a>
</g>
</g>
<!-- Node3&#45;&gt;Node4 -->
<g id="edge3_Node000003_Node000004" class="edge">
<title>Node3&#45;&gt;Node4</title>
<g id="a_edge3_Node000003_Node000004"><a xlink:title=" ">
<path fill="none" stroke="#63b8ff" d="M441.38,-56.85C392.2,-46.4 299.63,-26.7 266.2,-19.15"/>
<polygon fill="#63b8ff" stroke="#63b8ff" points="266.55,-15.64 256.02,-16.78 264.96,-22.46 266.55,-15.64"/>
</a>
</g>
</g>
<!-- Node5 -->
<g id="Node000005" class="node">
<title>Node5</title>
<g id="a_Node000005"><a xlink:title=" ">
<polygon fill="#e0e0e0" stroke="#999999" points="694.21,-19 647.21,-19 647.21,0 694.21,0 694.21,-19"/>
<text text-anchor="middle" x="670.71" y="-7" font-family="Helvetica,sans-Serif" font-size="10.00">vector</text>
</a>
</g>
</g>
<!-- Node3&#45;&gt;Node5 -->
<g id="edge4_Node000003_Node000005" class="edge">
<title>Node3&#45;&gt;Node5</title>
<g id="a_edge4_Node000003_Node000005"><a xlink:title=" ">
<path fill="none" stroke="#63b8ff" d="M504.08,-55.1C540.36,-45.39 599.85,-29.47 637.07,-19.5"/>
<polygon fill="#63b8ff" stroke="#63b8ff" points="638.18,-22.83 646.94,-16.86 636.37,-16.07 638.18,-22.83"/>
</a>
</g>
</g>
<!-- Node6 -->
<g id="Node000006" class="node">
<title>Node6</title>
<g id="a_Node000006"><a xlink:title=" ">
<polygon fill="#e0e0e0" stroke="#999999" points="450.21,-19 357.21,-19 357.21,0 450.21,0 450.21,-19"/>
<text text-anchor="middle" x="403.71" y="-7" font-family="Helvetica,sans-Serif" font-size="10.00">unordered_map</text>
</a>
</g>
</g>
<!-- Node3&#45;&gt;Node6 -->
<g id="edge5_Node000003_Node000006" class="edge">
<title>Node3&#45;&gt;Node6</title>
<g id="a_edge5_Node000003_Node000006"><a xlink:title=" ">
<path fill="none" stroke="#63b8ff" d="M461.62,-54.98C451.22,-47 435.45,-34.88 422.98,-25.31"/>
<polygon fill="#63b8ff" stroke="#63b8ff" points="425.06,-22.49 414.99,-19.17 420.79,-28.04 425.06,-22.49"/>
</a>
</g>
</g>
<!-- Node7 -->
<g id="Node000007" class="node">
<title>Node7</title>
<g id="a_Node000007"><a xlink:title=" ">
<polygon fill="#e0e0e0" stroke="#999999" points="554.71,-19 468.71,-19 468.71,0 554.71,0 554.71,-19"/>
<text text-anchor="middle" x="511.71" y="-7" font-family="Helvetica,sans-Serif" font-size="10.00">unordered_set</text>
</a>
</g>
</g>
<!-- Node3&#45;&gt;Node7 -->
<g id="edge6_Node000003_Node000007" class="edge">
<title>Node3&#45;&gt;Node7</title>
<g id="a_edge6_Node000003_Node000007"><a xlink:title=" ">
<path fill="none" stroke="#63b8ff" d="M479.15,-54.75C484.6,-47.34 492.57,-36.5 499.26,-27.41"/>
<polygon fill="#63b8ff" stroke="#63b8ff" points="502.28,-29.22 505.39,-19.09 496.64,-25.07 502.28,-29.22"/>
</a>
</g>
</g>
<!-- Node8 -->
<g id="Node000008" class="node">
<title>Node8</title>
<g id="a_Node000008"><a xlink:title=" ">
<polygon fill="#e0e0e0" stroke="#999999" points="628.71,-19 572.71,-19 572.71,0 628.71,0 628.71,-19"/>
<text text-anchor="middle" x="600.71" y="-7" font-family="Helvetica,sans-Serif" font-size="10.00">optional</text>
</a>
</g>
</g>
<!-- Node3&#45;&gt;Node8 -->
<g id="edge7_Node000003_Node000008" class="edge">
<title>Node3&#45;&gt;Node8</title>
<g id="a_edge7_Node000003_Node000008"><a xlink:title=" ">
<path fill="none" stroke="#63b8ff" d="M493.27,-54.98C514.14,-46.34 546.68,-32.87 570.48,-23.02"/>
<polygon fill="#63b8ff" stroke="#63b8ff" points="571.87,-26.23 579.77,-19.17 569.19,-19.76 571.87,-26.23"/>
</a>
</g>
</g>
<!-- Node9 -->
<g id="Node000009" class="node">
<title>Node9</title>
<g id="a_Node000009"><a xlink:title=" ">
<polygon fill="#e0e0e0" stroke="#999999" points="339.21,-19 274.21,-19 274.21,0 339.21,0 339.21,-19"/>
<text text-anchor="middle" x="306.71" y="-7" font-family="Helvetica,sans-Serif" font-size="10.00">stdexcept</text>
</a>
</g>
</g>
<!-- Node3&#45;&gt;Node9 -->
<g id="edge8_Node000003_Node000009" class="edge">
<title>Node3&#45;&gt;Node9</title>
<g id="a_edge8_Node000003_Node000009"><a xlink:title=" ">
<path fill="none" stroke="#63b8ff" d="M446.04,-54.98C418.17,-46.09 374.25,-32.07 343.19,-22.15"/>
<polygon fill="#63b8ff" stroke="#63b8ff" points="344.18,-18.79 333.59,-19.08 342.05,-25.46 344.18,-18.79"/>
</a>
</g>
</g>
<!-- Node3&#45;&gt;Node10 -->
<g id="edge9_Node000003_Node000010" class="edge">
<title>Node3&#45;&gt;Node10</title>
<g id="a_edge9_Node000003_Node000010"><a xlink:title=" ">
<path fill="none" stroke="#63b8ff" d="M441.3,-56.66C438.4,-56.08 435.5,-55.51 432.71,-55 334.13,-36.83 306.04,-38.47 204.05,-19.14"/>
<polygon fill="#63b8ff" stroke="#63b8ff" points="204.42,-15.65 193.94,-17.2 203.11,-22.52 204.42,-15.65"/>
</a>
</g>
</g>
<!-- Node15&#45;&gt;Node3 -->
<g id="edge17_Node000015_Node000003" class="edge">
<title>Node15&#45;&gt;Node3</title>
<g id="a_edge17_Node000015_Node000003"><a xlink:title=" ">
<path fill="none" stroke="#63b8ff" d="M565.87,-109.98C548.1,-101.5 520.56,-88.35 500.03,-78.54"/>
<polygon fill="#63b8ff" stroke="#63b8ff" points="501.4,-75.32 490.87,-74.17 498.38,-81.64 501.4,-75.32"/>
</a>
</g>
</g>
<!-- Node15&#45;&gt;Node5 -->
<g id="edge18_Node000015_Node000005" class="edge">
<title>Node15&#45;&gt;Node5</title>
<g id="a_edge18_Node000015_Node000005"><a xlink:title=" ">
<path fill="none" stroke="#63b8ff" d="M590.43,-109.81C599.96,-97.53 618,-74.42 633.71,-55 641.21,-45.73 649.72,-35.48 656.68,-27.16"/>
<polygon fill="#63b8ff" stroke="#63b8ff" points="659.52,-29.22 663.27,-19.31 654.16,-24.72 659.52,-29.22"/>
</a>
</g>
</g>
<!-- Node15&#45;&gt;Node12 -->
<g id="edge20_Node000015_Node000012" class="edge">
<title>Node15&#45;&gt;Node12</title>
<g id="a_edge20_Node000015_Node000012"><a xlink:title=" ">
<path fill="none" stroke="#63b8ff" d="M578.75,-109.75C574.65,-102.49 568.68,-91.95 563.6,-82.98"/>
<polygon fill="#63b8ff" stroke="#63b8ff" points="566.54,-81.07 558.57,-74.09 560.45,-84.52 566.54,-81.07"/>
</a>
</g>
</g>
<!-- Node16 -->
<g id="Node000016" class="node">
<title>Node16</title>
<g id="a_Node000016"><a xlink:title=" ">
<polygon fill="#e0e0e0" stroke="#999999" points="689.21,-74 642.21,-74 642.21,-55 689.21,-55 689.21,-74"/>
<text text-anchor="middle" x="665.71" y="-62" font-family="Helvetica,sans-Serif" font-size="10.00">queue</text>
</a>
</g>
</g>
<!-- Node15&#45;&gt;Node16 -->
<g id="edge19_Node000015_Node000016" class="edge">
<title>Node15&#45;&gt;Node16</title>
<g id="a_edge19_Node000015_Node000016"><a xlink:title=" ">
<path fill="none" stroke="#63b8ff" d="M596.88,-109.98C609.48,-101.84 628.71,-89.41 643.65,-79.76"/>
<polygon fill="#63b8ff" stroke="#63b8ff" points="645.79,-82.54 652.29,-74.17 641.99,-76.66 645.79,-82.54"/>
</a>
</g>
</g>
<!-- Node17 -->
<g id="Node000017" class="node">
<title>Node17</title>
<g id="a_Node000017"><a xlink:title=" ">
<polygon fill="#e0e0e0" stroke="#999999" points="757.71,-74 707.71,-74 707.71,-55 757.71,-55 757.71,-74"/>
<text text-anchor="middle" x="732.71" y="-62" font-family="Helvetica,sans-Serif" font-size="10.00">climits</text>
</a>
</g>
</g>
<!-- Node15&#45;&gt;Node17 -->
<g id="edge21_Node000015_Node000017" class="edge">
<title>Node15&#45;&gt;Node17</title>
<g id="a_edge21_Node000015_Node000017"><a xlink:title=" ">
<path fill="none" stroke="#63b8ff" d="M607.65,-109.98C632.26,-101.23 670.83,-87.51 698.62,-77.62"/>
<polygon fill="#63b8ff" stroke="#63b8ff" points="700.08,-80.82 708.33,-74.17 697.74,-74.22 700.08,-80.82"/>
</a>
</g>
</g>
<!-- Node15&#45;&gt;Node18 -->
<g id="edge22_Node000015_Node000018" class="edge">
<title>Node15&#45;&gt;Node18</title>
<g id="a_edge22_Node000015_Node000018"><a xlink:title=" ">
<path fill="none" stroke="#63b8ff" d="M610.44,-112C649.38,-102.53 721.83,-84.92 765.52,-74.3"/>
<polygon fill="#63b8ff" stroke="#63b8ff" points="766.55,-77.65 775.44,-71.89 764.89,-70.85 766.55,-77.65"/>
</a>
</g>
</g>
<!-- Node19&#45;&gt;Node3 -->
<g id="edge24_Node000019_Node000003" class="edge">
<title>Node19&#45;&gt;Node3</title>
<g id="a_edge24_Node000019_Node000003"><a xlink:title=" ">
<path fill="none" stroke="#63b8ff" d="M360.24,-109.98C382.18,-101.3 416.45,-87.75 441.39,-77.88"/>
<polygon fill="#63b8ff" stroke="#63b8ff" points="442.77,-81.1 450.79,-74.17 440.2,-74.59 442.77,-81.1"/>
</a>
</g>
</g>
<!-- Node19&#45;&gt;Node4 -->
<g id="edge25_Node000019_Node000004" class="edge">
<title>Node19&#45;&gt;Node4</title>
<g id="a_edge25_Node000019_Node000004"><a xlink:title=" ">
<path fill="none" stroke="#63b8ff" d="M340.61,-109.77C342.95,-96.6 345.32,-71.43 333.71,-55 325.34,-43.17 291.45,-29.64 265.42,-20.64"/>
<polygon fill="#63b8ff" stroke="#63b8ff" points="266.49,-17.3 255.89,-17.42 264.25,-23.93 266.49,-17.3"/>
</a>
</g>
</g>
<!-- Node19&#45;&gt;Node10 -->
<g id="edge28_Node000019_Node000010" class="edge">
<title>Node19&#45;&gt;Node10</title>
<g id="a_edge28_Node000019_Node000010"><a xlink:title=" ">
<path fill="none" stroke="#63b8ff" d="M335.76,-109.76C330.72,-96.11 319.16,-69.77 300.71,-55 285.54,-42.86 237.96,-28.82 203.57,-19.81"/>
<polygon fill="#63b8ff" stroke="#63b8ff" points="204.38,-16.4 193.82,-17.29 202.63,-23.18 204.38,-16.4"/>
</a>
</g>
</g>
<!-- Node19&#45;&gt;Node11 -->
<g id="edge26_Node000019_Node000011" class="edge">
<title>Node19&#45;&gt;Node11</title>
<g id="a_edge26_Node000019_Node000011"><a xlink:title=" ">
<path fill="none" stroke="#63b8ff" d="M310.13,-114.21C263.87,-107.13 169.54,-92.16 80.56,-74.28"/>
<polygon fill="#63b8ff" stroke="#63b8ff" points="81.07,-70.82 70.58,-72.26 79.68,-77.68 81.07,-70.82"/>
</a>
</g>
</g>
<!-- Node19&#45;&gt;Node12 -->
<g id="edge29_Node000019_Node000012" class="edge">
<title>Node19&#45;&gt;Node12</title>
<g id="a_edge29_Node000019_Node000012"><a xlink:title=" ">
<path fill="none" stroke="#63b8ff" d="M367.26,-111.46C404.27,-102.34 469.11,-86.35 511.73,-75.85"/>
<polygon fill="#63b8ff" stroke="#63b8ff" points="512.66,-79.22 521.53,-73.43 510.98,-72.43 512.66,-79.22"/>
</a>
</g>
</g>
<!-- Node19&#45;&gt;Node13 -->
<g id="edge27_Node000019_Node000013" class="edge">
<title>Node19&#45;&gt;Node13</title>
<g id="a_edge27_Node000019_Node000013"><a xlink:title=" ">
<path fill="none" stroke="#63b8ff" d="M326.34,-109.98C314.62,-101.92 296.79,-89.65 282.82,-80.03"/>
<polygon fill="#63b8ff" stroke="#63b8ff" points="284.52,-76.96 274.3,-74.17 280.56,-82.72 284.52,-76.96"/>
</a>
</g>
</g>
<!-- Node20 -->
<g id="Node000020" class="node">
<title>Node20</title>
<g id="a_Node000020"><a xlink:title=" ">
<polygon fill="#e0e0e0" stroke="#999999" points="423.71,-74 385.71,-74 385.71,-55 423.71,-55 423.71,-74"/>
<text text-anchor="middle" x="404.71" y="-62" font-family="Helvetica,sans-Serif" font-size="10.00">map</text>
</a>
</g>
</g>
<!-- Node19&#45;&gt;Node20 -->
<g id="edge30_Node000019_Node000020" class="edge">
<title>Node19&#45;&gt;Node20</title>
<g id="a_edge30_Node000019_Node000020"><a xlink:title=" ">
<path fill="none" stroke="#63b8ff" d="M349.31,-109.98C359.16,-102.07 374.06,-90.11 385.92,-80.58"/>
<polygon fill="#63b8ff" stroke="#63b8ff" points="388.3,-83.16 393.91,-74.17 383.92,-77.7 388.3,-83.16"/>
</a>
</g>
</g>
</g>
</svg>
