<?xml version="1.0" encoding="UTF-8" standalone="no"?>
<!DOCTYPE svg PUBLIC "-//W3C//DTD SVG 1.1//EN"
 "http://www.w3.org/Graphics/SVG/1.1/DTD/svg11.dtd">
<!-- Generated by graphviz version 2.43.0 (0)
 -->
<!-- Title: test_full_integration Pages: 1 -->
<svg width="893pt" height="924pt"
 viewBox="0.00 0.00 893.00 924.19" xmlns="http://www.w3.org/2000/svg" xmlns:xlink="http://www.w3.org/1999/xlink">
<g id="graph0" class="graph" transform="scale(1 1) rotate(0) translate(4 920.19)">
<title>test_full_integration</title>
<!-- Node1 -->
<g id="Node000001" class="node">
<title>Node1</title>
<g id="a_Node000001"><a xlink:title=" ">
<polygon fill="#999999" stroke="#666666" points="115,-469 0,-469 0,-450 115,-450 115,-469"/>
<text text-anchor="middle" x="57.5" y="-457" font-family="Helvetica,sans-Serif" font-size="10.00">test_full_integration</text>
</a>
</g>
</g>
<!-- Node2 -->
<g id="Node000002" class="node">
<title>Node2</title>
<g id="a_Node000002"><a xlink:href="classParser.html#a5a2a7fa051b2dce0c67484fcb141d913" target="_top" xlink:title="Parses the input file and returns a fully populated ProblemData.">
<polygon fill="white" stroke="#666666" points="231,-658 151,-658 151,-639 231,-639 231,-658"/>
<text text-anchor="middle" x="191" y="-646" font-family="Helvetica,sans-Serif" font-size="10.00">Parser::parse</text>
</a>
</g>
</g>
<!-- Node1&#45;&gt;Node2 -->
<g id="edge1_Node000001_Node000002" class="edge">
<title>Node1&#45;&gt;Node2</title>
<g id="a_edge1_Node000001_Node000002"><a xlink:title=" ">
<path fill="none" stroke="#63b8ff" d="M65.2,-469.13C86.04,-499.08 149.92,-590.89 177.31,-630.26"/>
<polygon fill="#63b8ff" stroke="#63b8ff" points="174.57,-632.45 183.15,-638.66 180.32,-628.45 174.57,-632.45"/>
</a>
</g>
</g>
<!-- Node16 -->
<g id="Node000016" class="node">
<title>Node16</title>
<g id="a_Node000016"><a xlink:href="classSolver.html#a845e12dc97a5d14a365b1e3001aba114" target="_top" xlink:title="Solves the assignment problem for the given data.">
<polygon fill="white" stroke="#666666" points="231,-300 151,-300 151,-281 231,-281 231,-300"/>
<text text-anchor="middle" x="191" y="-288" font-family="Helvetica,sans-Serif" font-size="10.00">Solver::solve</text>
</a>
</g>
</g>
<!-- Node1&#45;&gt;Node16 -->
<g id="edge26_Node000001_Node000016" class="edge">
<title>Node1&#45;&gt;Node16</title>
<g id="a_edge26_Node000001_Node000016"><a xlink:title=" ">
<path fill="none" stroke="#63b8ff" d="M65.95,-449.93C87.18,-422.64 148.3,-344.1 176.02,-308.46"/>
<polygon fill="#63b8ff" stroke="#63b8ff" points="178.93,-310.43 182.31,-300.39 173.4,-306.13 178.93,-310.43"/>
</a>
</g>
</g>
<!-- Node3 -->
<g id="Node000003" class="node">
<title>Node3</title>
<g id="a_Node000003"><a xlink:href="classParser.html#abe415229c2daa3f3ba4efd44661bd703" target="_top" xlink:title="Parses a control line: &quot;KeyName, value&quot;.">
<polygon fill="white" stroke="#666666" points="416.5,-658 281.5,-658 281.5,-639 416.5,-639 416.5,-658"/>
<text text-anchor="middle" x="349" y="-646" font-family="Helvetica,sans-Serif" font-size="10.00">Parser::parseControlLine</text>
</a>
</g>
</g>
<!-- Node2&#45;&gt;Node3 -->
<g id="edge2_Node000002_Node000003" class="edge">
<title>Node2&#45;&gt;Node3</title>
<g id="a_edge2_Node000002_Node000003"><a xlink:title=" ">
<path fill="none" stroke="#63b8ff" d="M231.37,-648.5C243.57,-648.5 257.46,-648.5 271.29,-648.5"/>
<polygon fill="#63b8ff" stroke="#63b8ff" points="271.33,-652 281.33,-648.5 271.33,-645 271.33,-652"/>
</a>
</g>
</g>
<!-- Node6 -->
<g id="Node000006" class="node">
<title>Node6</title>
<g id="a_Node000006"><a xlink:href="classParser.html#a113f0dfba3013e3dade8b717063ad8a0" target="_top" xlink:title="Trims leading and trailing whitespace from a string.">
<polygon fill="white" stroke="#666666" points="832.5,-732 759.5,-732 759.5,-713 832.5,-713 832.5,-732"/>
<text text-anchor="middle" x="796" y="-720" font-family="Helvetica,sans-Serif" font-size="10.00">Parser::trim</text>
</a>
</g>
</g>
<!-- Node2&#45;&gt;Node6 -->
<g id="edge25_Node000002_Node000006" class="edge">
<title>Node2&#45;&gt;Node6</title>
<g id="a_edge25_Node000002_Node000006"><a xlink:title=" ">
<path fill="none" stroke="#63b8ff" d="M193.58,-658.01C198.76,-686.32 217.82,-770.93 267,-817.5 336.05,-882.88 373.47,-876.33 467,-893.5 556.18,-909.87 590.23,-934.7 671,-893.5 734.33,-861.2 772.85,-779.75 787.82,-742.12"/>
<polygon fill="#63b8ff" stroke="#63b8ff" points="791.26,-742.94 791.57,-732.35 784.72,-740.43 791.26,-742.94"/>
</a>
</g>
</g>
<!-- Node8 -->
<g id="Node000008" class="node">
<title>Node8</title>
<g id="a_Node000008"><a xlink:href="classParser.html#a381845570bc3e8444268d1f0165e5c18" target="_top" xlink:title="Converts a string to lowercase (for case&#45;insensitive comparison).">
<polygon fill="white" stroke="#666666" points="615,-582 523,-582 523,-563 615,-563 615,-582"/>
<text text-anchor="middle" x="569" y="-570" font-family="Helvetica,sans-Serif" font-size="10.00">Parser::toLower</text>
</a>
</g>
</g>
<!-- Node2&#45;&gt;Node8 -->
<g id="edge24_Node000002_Node000008" class="edge">
<title>Node2&#45;&gt;Node8</title>
<g id="a_edge24_Node000002_Node000008"><a xlink:title=" ">
<path fill="none" stroke="#63b8ff" d="M230.46,-638.92C242.17,-636.09 255.09,-633.08 267,-630.5 352.56,-612 452.43,-593.33 512.91,-582.34"/>
<polygon fill="#63b8ff" stroke="#63b8ff" points="513.78,-585.74 522.99,-580.52 512.53,-578.86 513.78,-585.74"/>
</a>
</g>
</g>
<!-- Node10 -->
<g id="Node000010" class="node">
<title>Node10</title>
<g id="a_Node000010"><a xlink:href="classParser.html#a49fdbc3e3b2c220e042d77ea0568bdba" target="_top" xlink:title="Parses a parameter line: &quot;KeyName, value&quot;.">
<polygon fill="white" stroke="#666666" points="424,-582 274,-582 274,-563 424,-563 424,-582"/>
<text text-anchor="middle" x="349" y="-570" font-family="Helvetica,sans-Serif" font-size="10.00">Parser::parseParameterLine</text>
</a>
</g>
</g>
<!-- Node2&#45;&gt;Node10 -->
<g id="edge10_Node000002_Node000010" class="edge">
<title>Node2&#45;&gt;Node10</title>
<g id="a_edge10_Node000002_Node000010"><a xlink:title=" ">
<path fill="none" stroke="#63b8ff" d="M203.48,-638.78C217.61,-627.26 242.71,-608.15 267,-596.5 276.42,-591.98 286.87,-588.12 297.05,-584.9"/>
<polygon fill="#63b8ff" stroke="#63b8ff" points="298.11,-588.24 306.68,-582.01 296.09,-581.53 298.11,-588.24"/>
</a>
</g>
</g>
<!-- Node12 -->
<g id="Node000012" class="node">
<title>Node12</title>
<g id="a_Node000012"><a xlink:href="classParser.html#a8b52e53cfc75a57e18f03d925823fe2a" target="_top" xlink:title="Parses a single reviewer line.">
<polygon fill="white" stroke="#666666" points="422,-808 276,-808 276,-789 422,-789 422,-808"/>
<text text-anchor="middle" x="349" y="-796" font-family="Helvetica,sans-Serif" font-size="10.00">Parser::parseReviewerLine</text>
</a>
</g>
</g>
<!-- Node2&#45;&gt;Node12 -->
<g id="edge16_Node000002_Node000012" class="edge">
<title>Node2&#45;&gt;Node12</title>
<g id="a_edge16_Node000002_Node000012"><a xlink:title=" ">
<path fill="none" stroke="#63b8ff" d="M196.24,-658.17C205.95,-679.31 231.67,-730.16 267,-760.5 279.06,-770.86 294.43,-779.01 308.53,-785.07"/>
<polygon fill="#63b8ff" stroke="#63b8ff" points="307.45,-788.4 318.04,-788.92 310.09,-781.92 307.45,-788.4"/>
</a>
</g>
</g>
<!-- Node14 -->
<g id="Node000014" class="node">
<title>Node14</title>
<g id="a_Node000014"><a xlink:href="classParser.html#ab15bc67b738ede92f26a5ead4c294bd3" target="_top" xlink:title="Parses a single submission line.">
<polygon fill="white" stroke="#666666" points="427,-751 271,-751 271,-732 427,-732 427,-751"/>
<text text-anchor="middle" x="349" y="-739" font-family="Helvetica,sans-Serif" font-size="10.00">Parser::parseSubmissionLine</text>
</a>
</g>
</g>
<!-- Node2&#45;&gt;Node14 -->
<g id="edge20_Node000002_Node000014" class="edge">
<title>Node2&#45;&gt;Node14</title>
<g id="a_edge20_Node000002_Node000014"><a xlink:title=" ">
<path fill="none" stroke="#63b8ff" d="M208.11,-658.1C235.31,-674.32 290.56,-707.26 322.89,-726.53"/>
<polygon fill="#63b8ff" stroke="#63b8ff" points="321.37,-729.7 331.75,-731.81 324.95,-723.68 321.37,-729.7"/>
</a>
</g>
</g>
<!-- Node4 -->
<g id="Node000004" class="node">
<title>Node4</title>
<g id="a_Node000004"><a xlink:href="classParser.html#a54de14fb280b60a07adfbf68c508b767" target="_top" xlink:title="Parses a trimmed token as an integer with error context.">
<polygon fill="white" stroke="#666666" points="854,-620 738,-620 738,-601 854,-601 854,-620"/>
<text text-anchor="middle" x="796" y="-608" font-family="Helvetica,sans-Serif" font-size="10.00">Parser::parseIntField</text>
</a>
</g>
</g>
<!-- Node3&#45;&gt;Node4 -->
<g id="edge3_Node000003_Node000004" class="edge">
<title>Node3&#45;&gt;Node4</title>
<g id="a_edge3_Node000003_Node000004"><a xlink:title=" ">
<path fill="none" stroke="#63b8ff" d="M404.92,-638.99C424.47,-635.88 446.67,-632.68 467,-630.5 556.92,-620.86 661.25,-615.49 727.66,-612.8"/>
<polygon fill="#63b8ff" stroke="#63b8ff" points="728.13,-616.28 737.98,-612.39 727.85,-609.29 728.13,-616.28"/>
</a>
</g>
</g>
<!-- Node5 -->
<g id="Node000005" class="node">
<title>Node5</title>
<g id="a_Node000005"><a xlink:href="classParser.html#aacf502fa084a101374bda3681e0d23bb" target="_top" xlink:title="Splits a CSV line by commas, respecting double&#45;quoted fields.">
<polygon fill="white" stroke="#666666" points="615.5,-732 522.5,-732 522.5,-713 615.5,-713 615.5,-732"/>
<text text-anchor="middle" x="569" y="-720" font-family="Helvetica,sans-Serif" font-size="10.00">Parser::splitCSV</text>
</a>
</g>
</g>
<!-- Node3&#45;&gt;Node5 -->
<g id="edge4_Node000003_Node000005" class="edge">
<title>Node3&#45;&gt;Node5</title>
<g id="a_edge4_Node000003_Node000005"><a xlink:title=" ">
<path fill="none" stroke="#63b8ff" d="M366.46,-658.14C388.59,-670.69 429.49,-692.43 467,-704.5 481.4,-709.13 497.35,-712.67 512.25,-715.34"/>
<polygon fill="#63b8ff" stroke="#63b8ff" points="511.92,-718.83 522.36,-717.04 513.09,-711.93 511.92,-718.83"/>
</a>
</g>
</g>
<!-- Node7 -->
<g id="Node000007" class="node">
<title>Node7</title>
<g id="a_Node000007"><a xlink:href="classParser.html#a52df5c3f8fc72a8a486ae35a61d764d1" target="_top" xlink:title="Removes surrounding double quotes from a string value.">
<polygon fill="white" stroke="#666666" points="623.5,-695 514.5,-695 514.5,-676 623.5,-676 623.5,-695"/>
<text text-anchor="middle" x="569" y="-683" font-family="Helvetica,sans-Serif" font-size="10.00">Parser::stripQuotes</text>
</a>
</g>
</g>
<!-- Node3&#45;&gt;Node7 -->
<g id="edge6_Node000003_Node000007" class="edge">
<title>Node3&#45;&gt;Node7</title>
<g id="a_edge6_Node000003_Node000007"><a xlink:title=" ">
<path fill="none" stroke="#63b8ff" d="M406.14,-658.03C436.19,-663.13 473.32,-669.43 504.43,-674.71"/>
<polygon fill="#63b8ff" stroke="#63b8ff" points="503.86,-678.16 514.3,-676.39 505.03,-671.26 503.86,-678.16"/>
</a>
</g>
</g>
<!-- Node3&#45;&gt;Node8 -->
<g id="edge8_Node000003_Node000008" class="edge">
<title>Node3&#45;&gt;Node8</title>
<g id="a_edge8_Node000003_Node000008"><a xlink:title=" ">
<path fill="none" stroke="#63b8ff" d="M393.19,-638.92C405.76,-635.29 419.26,-630.53 431,-624.5 449.03,-615.24 448.72,-605.26 467,-596.5 481.26,-589.66 497.62,-584.69 512.96,-581.11"/>
<polygon fill="#63b8ff" stroke="#63b8ff" points="513.83,-584.5 522.86,-578.95 512.34,-577.66 513.83,-584.5"/>
</a>
</g>
</g>
<!-- Node9 -->
<g id="Node000009" class="node">
<title>Node9</title>
<g id="a_Node000009"><a xlink:href="domain_8h.html#a0e806904288551ac6c43e2d413164657" target="_top" xlink:title="Converts an integer from the input file to a MatchMode.">
<polygon fill="white" stroke="#666666" points="610.5,-658 527.5,-658 527.5,-639 610.5,-639 610.5,-658"/>
<text text-anchor="middle" x="569" y="-646" font-family="Helvetica,sans-Serif" font-size="10.00">toMatchMode</text>
</a>
</g>
</g>
<!-- Node3&#45;&gt;Node9 -->
<g id="edge9_Node000003_Node000009" class="edge">
<title>Node3&#45;&gt;Node9</title>
<g id="a_edge9_Node000003_Node000009"><a xlink:title=" ">
<path fill="none" stroke="#63b8ff" d="M416.59,-648.5C448.96,-648.5 487.24,-648.5 517.22,-648.5"/>
<polygon fill="#63b8ff" stroke="#63b8ff" points="517.45,-652 527.45,-648.5 517.45,-645 517.45,-652"/>
</a>
</g>
</g>
<!-- Node5&#45;&gt;Node6 -->
<g id="edge5_Node000005_Node000006" class="edge">
<title>Node5&#45;&gt;Node6</title>
<g id="a_edge5_Node000005_Node000006"><a xlink:title=" ">
<path fill="none" stroke="#63b8ff" d="M615.53,-722.5C654.43,-722.5 710.12,-722.5 749.12,-722.5"/>
<polygon fill="#63b8ff" stroke="#63b8ff" points="749.15,-726 759.15,-722.5 749.15,-719 749.15,-726"/>
</a>
</g>
</g>
<!-- Node7&#45;&gt;Node6 -->
<g id="edge7_Node000007_Node000006" class="edge">
<title>Node7&#45;&gt;Node6</title>
<g id="a_edge7_Node000007_Node000006"><a xlink:title=" ">
<path fill="none" stroke="#63b8ff" d="M623.61,-694.32C661.82,-700.6 712.66,-708.96 749.02,-714.94"/>
<polygon fill="#63b8ff" stroke="#63b8ff" points="748.91,-718.47 759.34,-716.64 750.04,-711.56 748.91,-718.47"/>
</a>
</g>
</g>
<!-- Node10&#45;&gt;Node4 -->
<g id="edge13_Node000010_Node000004" class="edge">
<title>Node10&#45;&gt;Node4</title>
<g id="a_edge13_Node000010_Node000004"><a xlink:title=" ">
<path fill="none" stroke="#63b8ff" d="M392.62,-562.99C454.64,-550.74 573.05,-533.41 671,-554.5 707.69,-562.4 746.61,-582.07 770.85,-595.85"/>
<polygon fill="#63b8ff" stroke="#63b8ff" points="769.29,-598.99 779.69,-600.99 772.81,-592.94 769.29,-598.99"/>
</a>
</g>
</g>
<!-- Node10&#45;&gt;Node5 -->
<g id="edge14_Node000010_Node000005" class="edge">
<title>Node10&#45;&gt;Node5</title>
<g id="a_edge14_Node000010_Node000005"><a xlink:title=" ">
<path fill="none" stroke="#63b8ff" d="M368.43,-582.12C386.31,-592.2 413.26,-609.49 431,-630.5 454.59,-658.45 437.82,-682.45 467,-704.5 479.88,-714.23 496.3,-719.33 512.14,-721.86"/>
<polygon fill="#63b8ff" stroke="#63b8ff" points="512.06,-725.37 522.42,-723.17 512.95,-718.43 512.06,-725.37"/>
</a>
</g>
</g>
<!-- Node10&#45;&gt;Node8 -->
<g id="edge15_Node000010_Node000008" class="edge">
<title>Node10&#45;&gt;Node8</title>
<g id="a_edge15_Node000010_Node000008"><a xlink:title=" ">
<path fill="none" stroke="#63b8ff" d="M424.11,-572.5C452.99,-572.5 485.52,-572.5 512.33,-572.5"/>
<polygon fill="#63b8ff" stroke="#63b8ff" points="512.69,-576 522.68,-572.5 512.68,-569 512.69,-576"/>
</a>
</g>
</g>
<!-- Node11 -->
<g id="Node000011" class="node">
<title>Node11</title>
<g id="a_Node000011"><a xlink:href="classParser.html#ac9cbf2eac7c906d2da2d95b9c16cc02e" target="_top" xlink:title="Parses a trimmed token as a boolean (0 or 1).">
<polygon fill="white" stroke="#666666" points="631.5,-506 506.5,-506 506.5,-487 631.5,-487 631.5,-506"/>
<text text-anchor="middle" x="569" y="-494" font-family="Helvetica,sans-Serif" font-size="10.00">Parser::parseBoolField</text>
</a>
</g>
</g>
<!-- Node10&#45;&gt;Node11 -->
<g id="edge11_Node000010_Node000011" class="edge">
<title>Node10&#45;&gt;Node11</title>
<g id="a_edge11_Node000010_Node000011"><a xlink:title=" ">
<path fill="none" stroke="#63b8ff" d="M368.62,-562.93C391.35,-551.56 431.2,-532.59 467,-520.5 480.67,-515.88 495.67,-511.8 509.83,-508.38"/>
<polygon fill="#63b8ff" stroke="#63b8ff" points="511.02,-511.7 519.96,-506.01 509.43,-504.88 511.02,-511.7"/>
</a>
</g>
</g>
<!-- Node11&#45;&gt;Node4 -->
<g id="edge12_Node000011_Node000004" class="edge">
<title>Node11&#45;&gt;Node4</title>
<g id="a_edge12_Node000011_Node000004"><a xlink:title=" ">
<path fill="none" stroke="#63b8ff" d="M627.41,-506.01C642.01,-509.54 657.41,-514.26 671,-520.5 712.55,-539.58 754.21,-573.62 777.1,-593.92"/>
<polygon fill="#63b8ff" stroke="#63b8ff" points="774.87,-596.63 784.64,-600.72 779.56,-591.43 774.87,-596.63"/>
</a>
</g>
</g>
<!-- Node12&#45;&gt;Node4 -->
<g id="edge18_Node000012_Node000004" class="edge">
<title>Node12&#45;&gt;Node4</title>
<g id="a_edge18_Node000012_Node000004"><a xlink:title=" ">
<path fill="none" stroke="#63b8ff" d="M371.33,-808.16C426.88,-831.71 578.16,-885.36 671,-817.5 713.55,-786.4 680.33,-749.97 707,-704.5 725.21,-673.45 755.32,-644.28 775.16,-626.9"/>
<polygon fill="#63b8ff" stroke="#63b8ff" points="777.66,-629.37 782.97,-620.2 773.1,-624.06 777.66,-629.37"/>
</a>
</g>
</g>
<!-- Node12&#45;&gt;Node5 -->
<g id="edge19_Node000012_Node000005" class="edge">
<title>Node12&#45;&gt;Node5</title>
<g id="a_edge19_Node000012_Node000005"><a xlink:title=" ">
<path fill="none" stroke="#63b8ff" d="M377.61,-788.87C416.51,-775.31 487.55,-750.55 530.99,-735.4"/>
<polygon fill="#63b8ff" stroke="#63b8ff" points="532.32,-738.64 540.61,-732.05 530.02,-732.03 532.32,-738.64"/>
</a>
</g>
</g>
<!-- Node13 -->
<g id="Node000013" class="node">
<title>Node13</title>
<g id="a_Node000013"><a xlink:href="structProblemData.html#a9f9c5ab24ac824b060f3cdb7bbd764bf" target="_top" xlink:title="Adds a reviewer with duplicate&#45;ID detection.">
<polygon fill="white" stroke="#666666" points="644,-884 494,-884 494,-865 644,-865 644,-884"/>
<text text-anchor="middle" x="569" y="-872" font-family="Helvetica,sans-Serif" font-size="10.00">ProblemData::addReviewer</text>
</a>
</g>
</g>
<!-- Node12&#45;&gt;Node13 -->
<g id="edge17_Node000012_Node000013" class="edge">
<title>Node12&#45;&gt;Node13</title>
<g id="a_edge17_Node000012_Node000013"><a xlink:title=" ">
<path fill="none" stroke="#63b8ff" d="M368.62,-808.07C391.35,-819.44 431.2,-838.41 467,-850.5 480.67,-855.12 495.67,-859.2 509.83,-862.62"/>
<polygon fill="#63b8ff" stroke="#63b8ff" points="509.43,-866.12 519.96,-864.99 511.02,-859.3 509.43,-866.12"/>
</a>
</g>
</g>
<!-- Node14&#45;&gt;Node4 -->
<g id="edge22_Node000014_Node000004" class="edge">
<title>Node14&#45;&gt;Node4</title>
<g id="a_edge22_Node000014_Node000004"><a xlink:title=" ">
<path fill="none" stroke="#63b8ff" d="M389.03,-751.01C451.51,-764.21 576.56,-782.15 671,-741.5 672.77,-740.74 745.39,-663.42 778.66,-627.94"/>
<polygon fill="#63b8ff" stroke="#63b8ff" points="781.56,-629.97 785.84,-620.28 776.45,-625.18 781.56,-629.97"/>
</a>
</g>
</g>
<!-- Node14&#45;&gt;Node5 -->
<g id="edge23_Node000014_Node000005" class="edge">
<title>Node14&#45;&gt;Node5</title>
<g id="a_edge23_Node000014_Node000005"><a xlink:title=" ">
<path fill="none" stroke="#63b8ff" d="M427.17,-734.77C455.28,-732.32 486.49,-729.6 512.37,-727.35"/>
<polygon fill="#63b8ff" stroke="#63b8ff" points="512.72,-730.83 522.38,-726.48 512.11,-723.86 512.72,-730.83"/>
</a>
</g>
</g>
<!-- Node15 -->
<g id="Node000015" class="node">
<title>Node15</title>
<g id="a_Node000015"><a xlink:href="structProblemData.html#a849ef6ded60771bec2a5e1b6faf0545c" target="_top" xlink:title="Adds a submission with duplicate&#45;ID detection.">
<polygon fill="white" stroke="#666666" points="649.5,-808 488.5,-808 488.5,-789 649.5,-789 649.5,-808"/>
<text text-anchor="middle" x="569" y="-796" font-family="Helvetica,sans-Serif" font-size="10.00">ProblemData::addSubmission</text>
</a>
</g>
</g>
<!-- Node14&#45;&gt;Node15 -->
<g id="edge21_Node000014_Node000015" class="edge">
<title>Node14&#45;&gt;Node15</title>
<g id="a_edge21_Node000014_Node000015"><a xlink:title=" ">
<path fill="none" stroke="#63b8ff" d="M382.68,-751.11C406.09,-757.9 438.4,-767.07 467,-774.5 482.88,-778.63 500.25,-782.85 516.03,-786.59"/>
<polygon fill="#63b8ff" stroke="#63b8ff" points="515.6,-790.08 526.13,-788.96 517.2,-783.27 515.6,-790.08"/>
</a>
</g>
</g>
<!-- Node17 -->
<g id="Node000017" class="node">
<title>Node17</title>
<g id="a_Node000017"><a xlink:href="classNetworkBuilder.html#af514e79c3d2f21597c54e01c4ce9475d" target="_top" xlink:title="Builds the complete flow network.">
<polygon fill="white" stroke="#666666" points="431,-170 267,-170 267,-151 431,-151 431,-170"/>
<text text-anchor="middle" x="349" y="-158" font-family="Helvetica,sans-Serif" font-size="10.00">NetworkBuilder::buildNetwork</text>
</a>
</g>
</g>
<!-- Node16&#45;&gt;Node17 -->
<g id="edge27_Node000016_Node000017" class="edge">
<title>Node16&#45;&gt;Node17</title>
<g id="a_edge27_Node000016_Node000017"><a xlink:title=" ">
<path fill="none" stroke="#63b8ff" d="M203.47,-280.94C229.95,-258.87 295.6,-204.17 328.52,-176.73"/>
<polygon fill="#63b8ff" stroke="#63b8ff" points="331.07,-179.16 336.51,-170.07 326.59,-173.79 331.07,-179.16"/>
</a>
</g>
</g>
<!-- Node22 -->
<g id="Node000022" class="node">
<title>Node22</title>
<g id="a_Node000022"><a xlink:href="structProblemData.html#a8972080e7733220bd51b437e111bf5c9" target="_top" xlink:title="Number of reviewers.">
<polygon fill="white" stroke="#666666" points="648.5,-245 489.5,-245 489.5,-226 648.5,-226 648.5,-245"/>
<text text-anchor="middle" x="569" y="-233" font-family="Helvetica,sans-Serif" font-size="10.00">ProblemData::numReviewers</text>
</a>
</g>
</g>
<!-- Node16&#45;&gt;Node22 -->
<g id="edge49_Node000016_Node000022" class="edge">
<title>Node16&#45;&gt;Node22</title>
<g id="a_edge49_Node000016_Node000022"><a xlink:title=" ">
<path fill="none" stroke="#63b8ff" d="M231.17,-284.77C292.83,-275.75 413.59,-258.09 492.51,-246.54"/>
<polygon fill="#63b8ff" stroke="#63b8ff" points="493.49,-249.94 502.88,-245.03 492.48,-243.01 493.49,-249.94"/>
</a>
</g>
</g>
<!-- Node23 -->
<g id="Node000023" class="node">
<title>Node23</title>
<g id="a_Node000023"><a xlink:href="structProblemData.html#af8f49cc7cddaa7219f2a6f3bc9853474" target="_top" xlink:title="Number of submissions.">
<polygon fill="white" stroke="#666666" points="654,-19 484,-19 484,0 654,0 654,-19"/>
<text text-anchor="middle" x="569" y="-7" font-family="Helvetica,sans-Serif" font-size="10.00">ProblemData::numSubmissions</text>
</a>
</g>
</g>
<!-- Node16&#45;&gt;Node23 -->
<g id="edge50_Node000016_Node000023" class="edge">
<title>Node16&#45;&gt;Node23</title>
<g id="a_edge50_Node000016_Node000023"><a xlink:title=" ">
<path fill="none" stroke="#63b8ff" d="M194.79,-280.7C202.48,-255.15 226.16,-185.55 267,-142.5 337.56,-68.11 370.65,-62.57 467,-27.5 473.3,-25.21 479.93,-23.2 486.65,-21.44"/>
<polygon fill="#63b8ff" stroke="#63b8ff" points="487.65,-24.8 496.55,-19.05 486,-18 487.65,-24.8"/>
</a>
</g>
</g>
<!-- Node28 -->
<g id="Node000028" class="node">
<title>Node28</title>
<g id="a_Node000028"><a xlink:href="classGraph.html#afd2749a1cd58db2d3b6fa6eef639399c" target="_top" xlink:title="Computes the maximum flow from source to sink using Edmonds&#45;Karp.">
<polygon fill="white" stroke="#666666" points="408.5,-431 289.5,-431 289.5,-412 408.5,-412 408.5,-431"/>
<text text-anchor="middle" x="349" y="-419" font-family="Helvetica,sans-Serif" font-size="10.00">Graph::edmondsKarp</text>
</a>
</g>
</g>
<!-- Node16&#45;&gt;Node28 -->
<g id="edge38_Node000016_Node000028" class="edge">
<title>Node16&#45;&gt;Node28</title>
<g id="a_edge38_Node000016_Node000028"><a xlink:title=" ">
<path fill="none" stroke="#63b8ff" d="M203.47,-300.13C229.95,-322.37 295.6,-377.5 328.52,-405.14"/>
<polygon fill="#63b8ff" stroke="#63b8ff" points="326.6,-408.1 336.51,-411.85 331.1,-402.74 326.6,-408.1"/>
</a>
</g>
</g>
<!-- Node31 -->
<g id="Node000031" class="node">
<title>Node31</title>
<g id="a_Node000031"><a xlink:href="classSolver.html#ab064c56e0bda025818ce6f8461dd4e80" target="_top" xlink:title="Extracts the assignment from the solved flow network.">
<polygon fill="white" stroke="#666666" points="408.5,-319 289.5,-319 289.5,-300 408.5,-300 408.5,-319"/>
<text text-anchor="middle" x="349" y="-307" font-family="Helvetica,sans-Serif" font-size="10.00">Solver::extractResult</text>
</a>
</g>
</g>
<!-- Node16&#45;&gt;Node31 -->
<g id="edge42_Node000016_Node000031" class="edge">
<title>Node16&#45;&gt;Node31</title>
<g id="a_edge42_Node000016_Node000031"><a xlink:title=" ">
<path fill="none" stroke="#63b8ff" d="M231.37,-295.29C245.94,-297.07 262.92,-299.14 279.35,-301.14"/>
<polygon fill="#63b8ff" stroke="#63b8ff" points="279.12,-304.64 289.47,-302.37 279.97,-297.69 279.12,-304.64"/>
</a>
</g>
</g>
<!-- Node18 -->
<g id="Node000018" class="node">
<title>Node18</title>
<g id="a_Node000018"><a xlink:href="classGraph.html#a8cdfb932968807565b3cc3b52759e3b8" target="_top" xlink:title="Adds a directed edge (u → v) with the given capacity, along with its reverse edge (v → u) with capaci...">
<polygon fill="white" stroke="#666666" points="616,-208 522,-208 522,-189 616,-189 616,-208"/>
<text text-anchor="middle" x="569" y="-196" font-family="Helvetica,sans-Serif" font-size="10.00">Graph::addEdge</text>
</a>
</g>
</g>
<!-- Node17&#45;&gt;Node18 -->
<g id="edge28_Node000017_Node000018" class="edge">
<title>Node17&#45;&gt;Node18</title>
<g id="a_edge28_Node000017_Node000018"><a xlink:title=" ">
<path fill="none" stroke="#63b8ff" d="M404.73,-170.04C437.42,-175.74 478.85,-182.96 511.8,-188.7"/>
<polygon fill="#63b8ff" stroke="#63b8ff" points="511.28,-192.17 521.73,-190.44 512.48,-185.27 511.28,-192.17"/>
</a>
</g>
</g>
<!-- Node20 -->
<g id="Node000020" class="node">
<title>Node20</title>
<g id="a_Node000020"><a xlink:href="classNetworkBuilder.html#acc9979fa0114fda405375f52dbe49a84" target="_top" xlink:title="Determines if a reviewer can review a submission based on domain matching.">
<polygon fill="white" stroke="#666666" points="650.5,-56 487.5,-56 487.5,-37 650.5,-37 650.5,-56"/>
<text text-anchor="middle" x="569" y="-44" font-family="Helvetica,sans-Serif" font-size="10.00">NetworkBuilder::isCompatible</text>
</a>
</g>
</g>
<!-- Node17&#45;&gt;Node20 -->
<g id="edge30_Node000017_Node000020" class="edge">
<title>Node17&#45;&gt;Node20</title>
<g id="a_edge30_Node000017_Node000020"><a xlink:title=" ">
<path fill="none" stroke="#63b8ff" d="M359.37,-150.98C378.07,-132.54 422.11,-91.88 467,-70.5 477.19,-65.64 488.45,-61.73 499.63,-58.58"/>
<polygon fill="#63b8ff" stroke="#63b8ff" points="500.63,-61.94 509.41,-56.01 498.85,-55.17 500.63,-61.94"/>
</a>
</g>
</g>
<!-- Node17&#45;&gt;Node22 -->
<g id="edge32_Node000017_Node000022" class="edge">
<title>Node17&#45;&gt;Node22</title>
<g id="a_edge32_Node000017_Node000022"><a xlink:title=" ">
<path fill="none" stroke="#63b8ff" d="M366.06,-170.11C388.07,-182.86 429.19,-205.19 467,-217.5 474.32,-219.89 482.05,-221.98 489.85,-223.81"/>
<polygon fill="#63b8ff" stroke="#63b8ff" points="489.2,-227.25 499.72,-225.99 490.71,-220.42 489.2,-227.25"/>
</a>
</g>
</g>
<!-- Node17&#45;&gt;Node23 -->
<g id="edge33_Node000017_Node000023" class="edge">
<title>Node17&#45;&gt;Node23</title>
<g id="a_edge33_Node000017_Node000023"><a xlink:title=" ">
<path fill="none" stroke="#63b8ff" d="M361.16,-150.76C377.44,-136.29 408.24,-107.84 431,-80.5 449.22,-58.61 443.11,-42.99 467,-27.5 469.45,-25.91 472,-24.45 474.63,-23.11"/>
<polygon fill="#63b8ff" stroke="#63b8ff" points="476.14,-26.27 483.84,-19 473.28,-19.88 476.14,-26.27"/>
</a>
</g>
</g>
<!-- Node24 -->
<g id="Node000024" class="node">
<title>Node24</title>
<g id="a_Node000024"><a xlink:href="classNetworkBuilder.html#a0b1fedb0791107aa56d1022f3964269f" target="_top" xlink:title="Maps a reviewer&#39;s vector index to its graph node ID.">
<polygon fill="white" stroke="#666666" points="652.5,-282 485.5,-282 485.5,-263 652.5,-263 652.5,-282"/>
<text text-anchor="middle" x="569" y="-270" font-family="Helvetica,sans-Serif" font-size="10.00">NetworkBuilder::reviewerNode</text>
</a>
</g>
</g>
<!-- Node17&#45;&gt;Node24 -->
<g id="edge34_Node000017_Node000024" class="edge">
<title>Node17&#45;&gt;Node24</title>
<g id="a_edge34_Node000017_Node000024"><a xlink:title=" ">
<path fill="none" stroke="#63b8ff" d="M358.61,-170.09C376.62,-189.49 420.51,-233.37 467,-254.5 471.59,-256.59 476.41,-258.43 481.34,-260.07"/>
<polygon fill="#63b8ff" stroke="#63b8ff" points="480.35,-263.42 490.94,-262.95 482.37,-256.72 480.35,-263.42"/>
</a>
</g>
</g>
<!-- Node25 -->
<g id="Node000025" class="node">
<title>Node25</title>
<g id="a_Node000025"><a xlink:href="classNetworkBuilder.html#a508fc4af685c78c10f96ab39610d4040" target="_top" xlink:title="Maps a submission&#39;s vector index to its graph node ID.">
<polygon fill="white" stroke="#666666" points="658.5,-132 479.5,-132 479.5,-113 658.5,-113 658.5,-132"/>
<text text-anchor="middle" x="569" y="-120" font-family="Helvetica,sans-Serif" font-size="10.00">NetworkBuilder::submissionNode</text>
</a>
</g>
</g>
<!-- Node17&#45;&gt;Node25 -->
<g id="edge35_Node000017_Node000025" class="edge">
<title>Node17&#45;&gt;Node25</title>
<g id="a_edge35_Node000017_Node000025"><a xlink:title=" ">
<path fill="none" stroke="#63b8ff" d="M404.73,-150.96C434.66,-145.74 471.92,-139.25 503.29,-133.78"/>
<polygon fill="#63b8ff" stroke="#63b8ff" points="504,-137.21 513.25,-132.04 502.8,-130.31 504,-137.21"/>
</a>
</g>
</g>
<!-- Node26 -->
<g id="Node000026" class="node">
<title>Node26</title>
<g id="a_Node000026"><a xlink:href="structConfig.html#a89db87ddce24e353ccabde8d0dc70ade" target="_top" xlink:title="Determines if reviewer secondary expertise should be used in matching.">
<polygon fill="white" stroke="#666666" points="879.5,-113 712.5,-113 712.5,-94 879.5,-94 879.5,-113"/>
<text text-anchor="middle" x="796" y="-101" font-family="Helvetica,sans-Serif" font-size="10.00">Config::useReviewerSecondary</text>
</a>
</g>
</g>
<!-- Node17&#45;&gt;Node26 -->
<g id="edge36_Node000017_Node000026" class="edge">
<title>Node17&#45;&gt;Node26</title>
<g id="a_edge36_Node000017_Node000026"><a xlink:title=" ">
<path fill="none" stroke="#63b8ff" d="M364.33,-150.83C385.63,-137.11 427.37,-112.64 467,-103.5 547.75,-84.88 642.69,-87.43 709.59,-93.1"/>
<polygon fill="#63b8ff" stroke="#63b8ff" points="709.39,-96.59 719.67,-93.99 710.01,-89.62 709.39,-96.59"/>
</a>
</g>
</g>
<!-- Node27 -->
<g id="Node000027" class="node">
<title>Node27</title>
<g id="a_Node000027"><a xlink:href="structConfig.html#a936e7b5bd16f50374b648f00465f1a32" target="_top" xlink:title="Determines if submission secondary domains should be used in matching.">
<polygon fill="white" stroke="#666666" points="885,-170 707,-170 707,-151 885,-151 885,-170"/>
<text text-anchor="middle" x="796" y="-158" font-family="Helvetica,sans-Serif" font-size="10.00">Config::useSubmissionSecondary</text>
</a>
</g>
</g>
<!-- Node17&#45;&gt;Node27 -->
<g id="edge37_Node000017_Node000027" class="edge">
<title>Node17&#45;&gt;Node27</title>
<g id="a_edge37_Node000017_Node000027"><a xlink:title=" ">
<path fill="none" stroke="#63b8ff" d="M431.1,-160.5C505.87,-160.5 617.01,-160.5 696.77,-160.5"/>
<polygon fill="#63b8ff" stroke="#63b8ff" points="696.83,-164 706.83,-160.5 696.83,-157 696.83,-164"/>
</a>
</g>
</g>
<!-- Node19 -->
<g id="Node000019" class="node">
<title>Node19</title>
<g id="a_Node000019"><a xlink:href="classGraph.html#a0a3f35d90f69456655a046806c725063" target="_top" xlink:title="Returns the number of nodes in the graph.">
<polygon fill="white" stroke="#666666" points="848,-319 744,-319 744,-300 848,-300 848,-319"/>
<text text-anchor="middle" x="796" y="-307" font-family="Helvetica,sans-Serif" font-size="10.00">Graph::numNodes</text>
</a>
</g>
</g>
<!-- Node18&#45;&gt;Node19 -->
<g id="edge29_Node000018_Node000019" class="edge">
<title>Node18&#45;&gt;Node19</title>
<g id="a_edge29_Node000018_Node000019"><a xlink:title=" ">
<path fill="none" stroke="#63b8ff" d="M616.05,-202.7C633.76,-205.45 653.83,-210 671,-217.5 713.66,-236.15 755.51,-271.84 778.01,-292.86"/>
<polygon fill="#63b8ff" stroke="#63b8ff" points="775.73,-295.53 785.39,-299.89 780.56,-290.46 775.73,-295.53"/>
</a>
</g>
</g>
<!-- Node21 -->
<g id="Node000021" class="node">
<title>Node21</title>
<g id="a_Node000021"><a xlink:href="structSubmission.html#a19ab1b3a6dc11bd0b8254be4cbc31d2d" target="_top" xlink:title="Checks if this submission covers the given domain.">
<polygon fill="white" stroke="#666666" points="863,-56 729,-56 729,-37 863,-37 863,-56"/>
<text text-anchor="middle" x="796" y="-44" font-family="Helvetica,sans-Serif" font-size="10.00">Submission::hasDomain</text>
</a>
</g>
</g>
<!-- Node20&#45;&gt;Node21 -->
<g id="edge31_Node000020_Node000021" class="edge">
<title>Node20&#45;&gt;Node21</title>
<g id="a_edge31_Node000020_Node000021"><a xlink:title=" ">
<path fill="none" stroke="#63b8ff" d="M650.59,-46.5C672.69,-46.5 696.58,-46.5 718.45,-46.5"/>
<polygon fill="#63b8ff" stroke="#63b8ff" points="718.67,-50 728.67,-46.5 718.67,-43 718.67,-50"/>
</a>
</g>
</g>
<!-- Node28&#45;&gt;Node19 -->
<g id="edge41_Node000028_Node000019" class="edge">
<title>Node28&#45;&gt;Node19</title>
<g id="a_edge41_Node000028_Node000019"><a xlink:title=" ">
<path fill="none" stroke="#63b8ff" d="M408.57,-427.91C474.52,-432.91 583.86,-434.44 671,-402.5 715.33,-386.25 757.14,-348.59 779.06,-326.5"/>
<polygon fill="#63b8ff" stroke="#63b8ff" points="781.76,-328.75 786.21,-319.14 776.73,-323.88 781.76,-328.75"/>
</a>
</g>
</g>
<!-- Node29 -->
<g id="Node000029" class="node">
<title>Node29</title>
<g id="a_Node000029"><a xlink:href="classGraph.html#a348391db529c20a826a1483fe7bdcb9a" target="_top" xlink:title="BFS on the residual graph to find the shortest augmenting path.">
<polygon fill="white" stroke="#666666" points="602.5,-469 535.5,-469 535.5,-450 602.5,-450 602.5,-469"/>
<text text-anchor="middle" x="569" y="-457" font-family="Helvetica,sans-Serif" font-size="10.00">Graph::bfs</text>
</a>
</g>
</g>
<!-- Node28&#45;&gt;Node29 -->
<g id="edge39_Node000028_Node000029" class="edge">
<title>Node28&#45;&gt;Node29</title>
<g id="a_edge39_Node000028_Node000029"><a xlink:title=" ">
<path fill="none" stroke="#63b8ff" d="M404.73,-431.04C441.99,-437.54 490.61,-446.01 525.08,-452.02"/>
<polygon fill="#63b8ff" stroke="#63b8ff" points="524.84,-455.53 535.29,-453.8 526.04,-448.63 524.84,-455.53"/>
</a>
</g>
</g>
<!-- Node30 -->
<g id="Node000030" class="node">
<title>Node30</title>
<g id="a_Node000030"><a xlink:href="structEdge.html#a0b45154adf516897233895a25fad355e" target="_top" xlink:title="Residual capacity of this edge.">
<polygon fill="white" stroke="#666666" points="839,-469 753,-469 753,-450 839,-450 839,-469"/>
<text text-anchor="middle" x="796" y="-457" font-family="Helvetica,sans-Serif" font-size="10.00">Edge::residual</text>
</a>
</g>
</g>
<!-- Node29&#45;&gt;Node30 -->
<g id="edge40_Node000029_Node000030" class="edge">
<title>Node29&#45;&gt;Node30</title>
<g id="a_edge40_Node000029_Node000030"><a xlink:title=" ">
<path fill="none" stroke="#63b8ff" d="M602.72,-459.5C639.39,-459.5 699.36,-459.5 742.59,-459.5"/>
<polygon fill="#63b8ff" stroke="#63b8ff" points="742.64,-463 752.64,-459.5 742.64,-456 742.64,-463"/>
</a>
</g>
</g>
<!-- Node31&#45;&gt;Node24 -->
<g id="edge48_Node000031_Node000024" class="edge">
<title>Node31&#45;&gt;Node24</title>
<g id="a_edge48_Node000031_Node000024"><a xlink:title=" ">
<path fill="none" stroke="#63b8ff" d="M406.14,-299.97C435.27,-295.03 471.04,-288.96 501.55,-283.78"/>
<polygon fill="#63b8ff" stroke="#63b8ff" points="502.4,-287.18 511.67,-282.06 501.23,-280.28 502.4,-287.18"/>
</a>
</g>
</g>
<!-- Node32 -->
<g id="Node000032" class="node">
<title>Node32</title>
<g id="a_Node000032"><a xlink:href="classSolver.html#a0a32ae51c07e104de80b39cceaaf325f" target="_top" xlink:title="Determines which domain code caused the match between a reviewer and submission.">
<polygon fill="white" stroke="#666666" points="645,-319 493,-319 493,-300 645,-300 645,-319"/>
<text text-anchor="middle" x="569" y="-307" font-family="Helvetica,sans-Serif" font-size="10.00">Solver::findMatchedDomain</text>
</a>
</g>
</g>
<!-- Node31&#45;&gt;Node32 -->
<g id="edge43_Node000031_Node000032" class="edge">
<title>Node31&#45;&gt;Node32</title>
<g id="a_edge43_Node000031_Node000032"><a xlink:title=" ">
<path fill="none" stroke="#63b8ff" d="M408.71,-309.5C431.43,-309.5 457.89,-309.5 482.63,-309.5"/>
<polygon fill="#63b8ff" stroke="#63b8ff" points="482.75,-313 492.75,-309.5 482.75,-306 482.75,-313"/>
</a>
</g>
</g>
<!-- Node33 -->
<g id="Node000033" class="node">
<title>Node33</title>
<g id="a_Node000033"><a xlink:href="classGraph.html#af5f263b25175df3f5511ff5ede0a63aa" target="_top" xlink:title="Returns the adjacency list of a given node (const).">
<polygon fill="white" stroke="#666666" points="610.5,-393 527.5,-393 527.5,-374 610.5,-374 610.5,-393"/>
<text text-anchor="middle" x="569" y="-381" font-family="Helvetica,sans-Serif" font-size="10.00">Graph::getAdj</text>
</a>
</g>
</g>
<!-- Node31&#45;&gt;Node33 -->
<g id="edge46_Node000031_Node000033" class="edge">
<title>Node31&#45;&gt;Node33</title>
<g id="a_edge46_Node000031_Node000033"><a xlink:title=" ">
<path fill="none" stroke="#63b8ff" d="M366.46,-319.14C388.59,-331.69 429.49,-353.43 467,-365.5 483.01,-370.65 500.94,-374.45 517.21,-377.2"/>
<polygon fill="#63b8ff" stroke="#63b8ff" points="516.66,-380.65 527.09,-378.77 517.76,-373.74 516.66,-380.65"/>
</a>
</g>
</g>
<!-- Node34 -->
<g id="Node000034" class="node">
<title>Node34</title>
<g id="a_Node000034"><a xlink:href="classNetworkBuilder.html#a4efdb0e13d73f6f3cbf38b4cd11a5ef3" target="_top" xlink:title="Inverse: given a graph node ID, returns the submission vector index.">
<polygon fill="white" stroke="#666666" points="671,-356 467,-356 467,-337 671,-337 671,-356"/>
<text text-anchor="middle" x="569" y="-344" font-family="Helvetica,sans-Serif" font-size="10.00">NetworkBuilder::nodeToSubmissionIdx</text>
</a>
</g>
</g>
<!-- Node31&#45;&gt;Node34 -->
<g id="edge47_Node000031_Node000034" class="edge">
<title>Node31&#45;&gt;Node34</title>
<g id="a_edge47_Node000031_Node000034"><a xlink:title=" ">
<path fill="none" stroke="#63b8ff" d="M406.14,-319.03C435.27,-323.97 471.04,-330.04 501.55,-335.22"/>
<polygon fill="#63b8ff" stroke="#63b8ff" points="501.23,-338.72 511.67,-336.94 502.4,-331.82 501.23,-338.72"/>
</a>
</g>
</g>
<!-- Node32&#45;&gt;Node26 -->
<g id="edge44_Node000032_Node000026" class="edge">
<title>Node32&#45;&gt;Node26</title>
<g id="a_edge44_Node000032_Node000026"><a xlink:title=" ">
<path fill="none" stroke="#63b8ff" d="M645.06,-306.31C654.66,-303.13 663.67,-298.4 671,-291.5 720.61,-244.81 663.35,-194.81 707,-142.5 716.66,-130.93 730.43,-122.67 744.22,-116.83"/>
<polygon fill="#63b8ff" stroke="#63b8ff" points="745.66,-120.02 753.72,-113.15 743.13,-113.49 745.66,-120.02"/>
</a>
</g>
</g>
<!-- Node32&#45;&gt;Node27 -->
<g id="edge45_Node000032_Node000027" class="edge">
<title>Node32&#45;&gt;Node27</title>
<g id="a_edge45_Node000032_Node000027"><a xlink:title=" ">
<path fill="none" stroke="#63b8ff" d="M645.19,-301.65C654.19,-299.12 663,-295.81 671,-291.5 722.01,-263.99 764.08,-207.79 783.47,-178.76"/>
<polygon fill="#63b8ff" stroke="#63b8ff" points="786.62,-180.32 789.15,-170.04 780.76,-176.5 786.62,-180.32"/>
</a>
</g>
</g>
</g>
</svg>
