<?xml version="1.0" encoding="UTF-8" standalone="no"?>
<!DOCTYPE svg PUBLIC "-//W3C//DTD SVG 1.1//EN"
 "http://www.w3.org/Graphics/SVG/1.1/DTD/svg11.dtd">
<!-- Generated by graphviz version 2.43.0 (0)
 -->
<!-- Title: test_output_no_risk Pages: 1 -->
<svg width="978pt" height="515pt"
 viewBox="0.00 0.00 978.00 515.00" xmlns="http://www.w3.org/2000/svg" xmlns:xlink="http://www.w3.org/1999/xlink">
<g id="graph0" class="graph" transform="scale(1 1) rotate(0) translate(4 511)">
<title>test_output_no_risk</title>
<!-- Node1 -->
<g id="Node000001" class="node">
<title>Node1</title>
<g id="a_Node000001"><a xlink:title=" ">
<polygon fill="#999999" stroke="#666666" points="113,-281 0,-281 0,-262 113,-262 113,-281"/>
<text text-anchor="middle" x="56.5" y="-269" font-family="Helvetica,sans-Serif" font-size="10.00">test_output_no_risk</text>
</a>
</g>
</g>
<!-- Node2 -->
<g id="Node000002" class="node">
<title>Node2</title>
<g id="a_Node000002"><a xlink:href="structProblemData.html#a9f9c5ab24ac824b060f3cdb7bbd764bf" target="_top" xlink:title="Adds a reviewer with duplicate&#45;ID detection.">
<polygon fill="white" stroke="#666666" points="306,-337 156,-337 156,-318 306,-318 306,-337"/>
<text text-anchor="middle" x="231" y="-325" font-family="Helvetica,sans-Serif" font-size="10.00">ProblemData::addReviewer</text>
</a>
</g>
</g>
<!-- Node1&#45;&gt;Node2 -->
<g id="edge1_Node000001_Node000002" class="edge">
<title>Node1&#45;&gt;Node2</title>
<g id="a_edge1_Node000001_Node000002"><a xlink:title=" ">
<path fill="none" stroke="#63b8ff" d="M77.83,-281.15C96.12,-289.54 123.91,-301.57 149,-309.5 155.89,-311.68 163.2,-313.7 170.49,-315.53"/>
<polygon fill="#63b8ff" stroke="#63b8ff" points="169.83,-318.97 180.37,-317.91 171.47,-312.17 169.83,-318.97"/>
</a>
</g>
</g>
<!-- Node3 -->
<g id="Node000003" class="node">
<title>Node3</title>
<g id="a_Node000003"><a xlink:href="structProblemData.html#a849ef6ded60771bec2a5e1b6faf0545c" target="_top" xlink:title="Adds a submission with duplicate&#45;ID detection.">
<polygon fill="white" stroke="#666666" points="311.5,-300 150.5,-300 150.5,-281 311.5,-281 311.5,-300"/>
<text text-anchor="middle" x="231" y="-288" font-family="Helvetica,sans-Serif" font-size="10.00">ProblemData::addSubmission</text>
</a>
</g>
</g>
<!-- Node1&#45;&gt;Node3 -->
<g id="edge2_Node000001_Node000003" class="edge">
<title>Node1&#45;&gt;Node3</title>
<g id="a_edge2_Node000001_Node000003"><a xlink:title=" ">
<path fill="none" stroke="#63b8ff" d="M113.03,-277.62C121.78,-278.58 131.02,-279.6 140.31,-280.62"/>
<polygon fill="#63b8ff" stroke="#63b8ff" points="140.07,-284.12 150.39,-281.73 140.83,-277.16 140.07,-284.12"/>
</a>
</g>
</g>
<!-- Node4 -->
<g id="Node000004" class="node">
<title>Node4</title>
<g id="a_Node000004"><a xlink:href="classSolver.html#ae2ca491c309b717821844e7f2a9ea629" target="_top" xlink:title="Performs Risk Analysis with parameter K = 1.">
<polygon fill="white" stroke="#666666" points="313,-263 149,-263 149,-244 313,-244 313,-263"/>
<text text-anchor="middle" x="231" y="-251" font-family="Helvetica,sans-Serif" font-size="10.00">Solver::solveWithRiskAnalysis</text>
</a>
</g>
</g>
<!-- Node1&#45;&gt;Node4 -->
<g id="edge3_Node000001_Node000004" class="edge">
<title>Node1&#45;&gt;Node4</title>
<g id="a_edge3_Node000001_Node000004"><a xlink:title=" ">
<path fill="none" stroke="#63b8ff" d="M113.03,-265.71C121.33,-264.84 130.07,-263.93 138.87,-263.01"/>
<polygon fill="#63b8ff" stroke="#63b8ff" points="139.24,-266.49 148.82,-261.97 138.52,-259.53 139.24,-266.49"/>
</a>
</g>
</g>
<!-- Node24 -->
<g id="Node000024" class="node">
<title>Node24</title>
<g id="a_Node000024"><a xlink:href="classOutputWriter.html#a5c8ac7df7471d1b8aa82e5776cc53871" target="_top" xlink:title="Writes the risk analysis results to a separate file.">
<polygon fill="white" stroke="#666666" points="310.5,-188 151.5,-188 151.5,-169 310.5,-169 310.5,-188"/>
<text text-anchor="middle" x="231" y="-176" font-family="Helvetica,sans-Serif" font-size="10.00">OutputWriter::writeRiskToFile</text>
</a>
</g>
</g>
<!-- Node1&#45;&gt;Node24 -->
<g id="edge31_Node000001_Node000024" class="edge">
<title>Node1&#45;&gt;Node24</title>
<g id="a_edge31_Node000001_Node000024"><a xlink:title=" ">
<path fill="none" stroke="#63b8ff" d="M75.31,-261.9C105.73,-245.5 167.86,-212 203.43,-192.83"/>
<polygon fill="#63b8ff" stroke="#63b8ff" points="205.14,-195.88 212.29,-188.05 201.82,-189.71 205.14,-195.88"/>
</a>
</g>
</g>
<!-- Node5 -->
<g id="Node000005" class="node">
<title>Node5</title>
<g id="a_Node000005"><a xlink:href="classNetworkBuilder.html#af514e79c3d2f21597c54e01c4ce9475d" target="_top" xlink:title="Builds the complete flow network.">
<polygon fill="white" stroke="#666666" points="514.5,-188 350.5,-188 350.5,-169 514.5,-169 514.5,-188"/>
<text text-anchor="middle" x="432.5" y="-176" font-family="Helvetica,sans-Serif" font-size="10.00">NetworkBuilder::buildNetwork</text>
</a>
</g>
</g>
<!-- Node4&#45;&gt;Node5 -->
<g id="edge4_Node000004_Node000005" class="edge">
<title>Node4&#45;&gt;Node5</title>
<g id="a_edge4_Node000004_Node000005"><a xlink:title=" ">
<path fill="none" stroke="#63b8ff" d="M257.67,-243.85C292.99,-230.57 356.68,-206.63 396.38,-191.7"/>
<polygon fill="#63b8ff" stroke="#63b8ff" points="397.8,-194.91 405.93,-188.11 395.33,-188.36 397.8,-194.91"/>
</a>
</g>
</g>
<!-- Node10 -->
<g id="Node000010" class="node">
<title>Node10</title>
<g id="a_Node000010"><a xlink:href="structProblemData.html#a8972080e7733220bd51b437e111bf5c9" target="_top" xlink:title="Number of reviewers.">
<polygon fill="white" stroke="#666666" points="733.5,-245 574.5,-245 574.5,-226 733.5,-226 733.5,-245"/>
<text text-anchor="middle" x="654" y="-233" font-family="Helvetica,sans-Serif" font-size="10.00">ProblemData::numReviewers</text>
</a>
</g>
</g>
<!-- Node4&#45;&gt;Node10 -->
<g id="edge28_Node000004_Node000010" class="edge">
<title>Node4&#45;&gt;Node10</title>
<g id="a_edge28_Node000004_Node000010"><a xlink:title=" ">
<path fill="none" stroke="#63b8ff" d="M313.17,-250.03C385.06,-246.96 489.8,-242.48 563.96,-239.31"/>
<polygon fill="#63b8ff" stroke="#63b8ff" points="564.37,-242.79 574.21,-238.87 564.07,-235.8 564.37,-242.79"/>
</a>
</g>
</g>
<!-- Node11 -->
<g id="Node000011" class="node">
<title>Node11</title>
<g id="a_Node000011"><a xlink:href="structProblemData.html#af8f49cc7cddaa7219f2a6f3bc9853474" target="_top" xlink:title="Number of submissions.">
<polygon fill="white" stroke="#666666" points="739,-19 569,-19 569,0 739,0 739,-19"/>
<text text-anchor="middle" x="654" y="-7" font-family="Helvetica,sans-Serif" font-size="10.00">ProblemData::numSubmissions</text>
</a>
</g>
</g>
<!-- Node4&#45;&gt;Node11 -->
<g id="edge29_Node000004_Node000011" class="edge">
<title>Node4&#45;&gt;Node11</title>
<g id="a_edge29_Node000004_Node000011"><a xlink:title=" ">
<path fill="none" stroke="#63b8ff" d="M247.25,-243.99C264,-233.27 291.41,-214.91 313,-196.5 330.46,-181.61 329.02,-170.79 349,-159.5 415.36,-122.01 458.47,-170.5 516,-120.5 549.45,-91.43 517.79,-55.68 552,-27.5 554.46,-25.47 557.08,-23.64 559.81,-21.98"/>
<polygon fill="#63b8ff" stroke="#63b8ff" points="561.62,-24.99 568.89,-17.28 558.4,-18.77 561.62,-24.99"/>
</a>
</g>
</g>
<!-- Node12 -->
<g id="Node000012" class="node">
<title>Node12</title>
<g id="a_Node000012"><a xlink:href="classNetworkBuilder.html#a0b1fedb0791107aa56d1022f3964269f" target="_top" xlink:title="Maps a reviewer&#39;s vector index to its graph node ID.">
<polygon fill="white" stroke="#666666" points="737.5,-282 570.5,-282 570.5,-263 737.5,-263 737.5,-282"/>
<text text-anchor="middle" x="654" y="-270" font-family="Helvetica,sans-Serif" font-size="10.00">NetworkBuilder::reviewerNode</text>
</a>
</g>
</g>
<!-- Node4&#45;&gt;Node12 -->
<g id="edge30_Node000004_Node000012" class="edge">
<title>Node4&#45;&gt;Node12</title>
<g id="a_edge30_Node000004_Node000012"><a xlink:title=" ">
<path fill="none" stroke="#63b8ff" d="M313.17,-257.16C383.8,-260.35 486.15,-264.97 560.05,-268.3"/>
<polygon fill="#63b8ff" stroke="#63b8ff" points="560.13,-271.81 570.28,-268.77 560.45,-264.82 560.13,-271.81"/>
</a>
</g>
</g>
<!-- Node16 -->
<g id="Node000016" class="node">
<title>Node16</title>
<g id="a_Node000016"><a xlink:href="classGraph.html#a24e78627debf97e225128856196398dc" target="_top" xlink:title="Disables all edges from a specific node by setting capacity to 0.">
<polygon fill="white" stroke="#666666" points="489,-394 376,-394 376,-375 489,-375 489,-394"/>
<text text-anchor="middle" x="432.5" y="-382" font-family="Helvetica,sans-Serif" font-size="10.00">Graph::disableNode</text>
</a>
</g>
</g>
<!-- Node4&#45;&gt;Node16 -->
<g id="edge15_Node000004_Node000016" class="edge">
<title>Node4&#45;&gt;Node16</title>
<g id="a_edge15_Node000004_Node000016"><a xlink:title=" ">
<path fill="none" stroke="#63b8ff" d="M295.17,-263.1C301.51,-265.56 307.59,-268.65 313,-272.5 337.4,-289.88 328.08,-308.05 349,-329.5 364.92,-345.82 386.46,-359.98 403.53,-369.84"/>
<polygon fill="#63b8ff" stroke="#63b8ff" points="402.06,-373.03 412.5,-374.86 405.48,-366.92 402.06,-373.03"/>
</a>
</g>
</g>
<!-- Node17 -->
<g id="Node000017" class="node">
<title>Node17</title>
<g id="a_Node000017"><a xlink:href="classGraph.html#afd2749a1cd58db2d3b6fa6eef639399c" target="_top" xlink:title="Computes the maximum flow from source to sink using Edmonds&#45;Karp.">
<polygon fill="white" stroke="#666666" points="492,-469 373,-469 373,-450 492,-450 492,-469"/>
<text text-anchor="middle" x="432.5" y="-457" font-family="Helvetica,sans-Serif" font-size="10.00">Graph::edmondsKarp</text>
</a>
</g>
</g>
<!-- Node4&#45;&gt;Node17 -->
<g id="edge17_Node000004_Node000017" class="edge">
<title>Node4&#45;&gt;Node17</title>
<g id="a_edge17_Node000004_Node000017"><a xlink:title=" ">
<path fill="none" stroke="#63b8ff" d="M299.57,-263.09C304.48,-265.6 309.05,-268.69 313,-272.5 356.49,-314.38 313.85,-354.4 349,-403.5 361.92,-421.55 382.6,-435.57 400.03,-445.07"/>
<polygon fill="#63b8ff" stroke="#63b8ff" points="398.81,-448.38 409.3,-449.88 402.03,-442.17 398.81,-448.38"/>
</a>
</g>
</g>
<!-- Node20 -->
<g id="Node000020" class="node">
<title>Node20</title>
<g id="a_Node000020"><a xlink:href="classSolver.html#ab064c56e0bda025818ce6f8461dd4e80" target="_top" xlink:title="Extracts the assignment from the solved flow network.">
<polygon fill="white" stroke="#666666" points="492,-320 373,-320 373,-301 492,-301 492,-320"/>
<text text-anchor="middle" x="432.5" y="-308" font-family="Helvetica,sans-Serif" font-size="10.00">Solver::extractResult</text>
</a>
</g>
</g>
<!-- Node4&#45;&gt;Node20 -->
<g id="edge21_Node000004_Node000020" class="edge">
<title>Node4&#45;&gt;Node20</title>
<g id="a_edge21_Node000004_Node000020"><a xlink:title=" ">
<path fill="none" stroke="#63b8ff" d="M277.71,-263.04C289.31,-265.78 301.69,-268.99 313,-272.5 329.4,-277.58 332.74,-280.99 349,-286.5 360.92,-290.54 373.94,-294.53 386.05,-298.05"/>
<polygon fill="#63b8ff" stroke="#63b8ff" points="385.38,-301.5 395.96,-300.9 387.31,-294.77 385.38,-301.5"/>
</a>
</g>
</g>
<!-- Node6 -->
<g id="Node000006" class="node">
<title>Node6</title>
<g id="a_Node000006"><a xlink:href="classGraph.html#a8cdfb932968807565b3cc3b52759e3b8" target="_top" xlink:title="Adds a directed edge (u → v) with the given capacity, along with its reverse edge (v → u) with capaci...">
<polygon fill="white" stroke="#666666" points="701,-208 607,-208 607,-189 701,-189 701,-208"/>
<text text-anchor="middle" x="654" y="-196" font-family="Helvetica,sans-Serif" font-size="10.00">Graph::addEdge</text>
</a>
</g>
</g>
<!-- Node5&#45;&gt;Node6 -->
<g id="edge5_Node000005_Node000006" class="edge">
<title>Node5&#45;&gt;Node6</title>
<g id="a_edge5_Node000005_Node000006"><a xlink:title=" ">
<path fill="none" stroke="#63b8ff" d="M514.61,-185.89C541.98,-188.38 571.91,-191.11 596.91,-193.39"/>
<polygon fill="#63b8ff" stroke="#63b8ff" points="596.66,-196.88 606.94,-194.3 597.3,-189.91 596.66,-196.88"/>
</a>
</g>
</g>
<!-- Node8 -->
<g id="Node000008" class="node">
<title>Node8</title>
<g id="a_Node000008"><a xlink:href="classNetworkBuilder.html#acc9979fa0114fda405375f52dbe49a84" target="_top" xlink:title="Determines if a reviewer can review a submission based on domain matching.">
<polygon fill="white" stroke="#666666" points="735.5,-56 572.5,-56 572.5,-37 735.5,-37 735.5,-56"/>
<text text-anchor="middle" x="654" y="-44" font-family="Helvetica,sans-Serif" font-size="10.00">NetworkBuilder::isCompatible</text>
</a>
</g>
</g>
<!-- Node5&#45;&gt;Node8 -->
<g id="edge7_Node000005_Node000008" class="edge">
<title>Node5&#45;&gt;Node8</title>
<g id="a_edge7_Node000005_Node000008"><a xlink:title=" ">
<path fill="none" stroke="#63b8ff" d="M491.05,-168.93C500.12,-165.49 508.85,-160.83 516,-154.5 546.42,-127.58 520.92,-96.65 552,-70.5 556.89,-66.39 562.36,-62.95 568.15,-60.09"/>
<polygon fill="#63b8ff" stroke="#63b8ff" points="569.71,-63.23 577.49,-56.04 566.93,-56.81 569.71,-63.23"/>
</a>
</g>
</g>
<!-- Node5&#45;&gt;Node10 -->
<g id="edge9_Node000005_Node000010" class="edge">
<title>Node5&#45;&gt;Node10</title>
<g id="a_edge9_Node000005_Node000010"><a xlink:title=" ">
<path fill="none" stroke="#63b8ff" d="M459.08,-188.09C482.87,-196.72 519.45,-209.29 552,-217.5 561.52,-219.9 571.62,-222.1 581.62,-224.08"/>
<polygon fill="#63b8ff" stroke="#63b8ff" points="581.07,-227.54 591.55,-225.98 582.39,-220.66 581.07,-227.54"/>
</a>
</g>
</g>
<!-- Node5&#45;&gt;Node11 -->
<g id="edge10_Node000005_Node000011" class="edge">
<title>Node5&#45;&gt;Node11</title>
<g id="a_edge10_Node000005_Node000011"><a xlink:title=" ">
<path fill="none" stroke="#63b8ff" d="M493.86,-168.83C502.07,-165.39 509.8,-160.74 516,-154.5 557.34,-112.87 508.5,-66.86 552,-27.5 554.51,-25.23 557.2,-23.2 560.04,-21.38"/>
<polygon fill="#63b8ff" stroke="#63b8ff" points="561.82,-24.4 568.93,-16.55 558.48,-18.25 561.82,-24.4"/>
</a>
</g>
</g>
<!-- Node5&#45;&gt;Node12 -->
<g id="edge11_Node000005_Node000012" class="edge">
<title>Node5&#45;&gt;Node12</title>
<g id="a_edge11_Node000005_Node000012"><a xlink:title=" ">
<path fill="none" stroke="#63b8ff" d="M445.09,-188.19C465.36,-204.61 509.22,-237.74 552,-254.5 557.77,-256.76 563.83,-258.74 570.01,-260.47"/>
<polygon fill="#63b8ff" stroke="#63b8ff" points="569.22,-263.88 579.78,-262.99 570.97,-257.1 569.22,-263.88"/>
</a>
</g>
</g>
<!-- Node13 -->
<g id="Node000013" class="node">
<title>Node13</title>
<g id="a_Node000013"><a xlink:href="classNetworkBuilder.html#a508fc4af685c78c10f96ab39610d4040" target="_top" xlink:title="Maps a submission&#39;s vector index to its graph node ID.">
<polygon fill="white" stroke="#666666" points="743.5,-132 564.5,-132 564.5,-113 743.5,-113 743.5,-132"/>
<text text-anchor="middle" x="654" y="-120" font-family="Helvetica,sans-Serif" font-size="10.00">NetworkBuilder::submissionNode</text>
</a>
</g>
</g>
<!-- Node5&#45;&gt;Node13 -->
<g id="edge12_Node000005_Node000013" class="edge">
<title>Node5&#45;&gt;Node13</title>
<g id="a_edge12_Node000005_Node000013"><a xlink:title=" ">
<path fill="none" stroke="#63b8ff" d="M467.65,-168.98C491.29,-162.47 523.5,-153.73 552,-146.5 568.05,-142.43 585.59,-138.19 601.48,-134.42"/>
<polygon fill="#63b8ff" stroke="#63b8ff" points="602.72,-137.73 611.65,-132.03 601.12,-130.91 602.72,-137.73"/>
</a>
</g>
</g>
<!-- Node14 -->
<g id="Node000014" class="node">
<title>Node14</title>
<g id="a_Node000014"><a xlink:href="structConfig.html#a89db87ddce24e353ccabde8d0dc70ade" target="_top" xlink:title="Determines if reviewer secondary expertise should be used in matching.">
<polygon fill="white" stroke="#666666" points="964.5,-244 797.5,-244 797.5,-225 964.5,-225 964.5,-244"/>
<text text-anchor="middle" x="881" y="-232" font-family="Helvetica,sans-Serif" font-size="10.00">Config::useReviewerSecondary</text>
</a>
</g>
</g>
<!-- Node5&#45;&gt;Node14 -->
<g id="edge13_Node000005_Node000014" class="edge">
<title>Node5&#45;&gt;Node14</title>
<g id="a_edge13_Node000005_Node000014"><a xlink:title=" ">
<path fill="none" stroke="#63b8ff" d="M514.66,-169.6C580.48,-164.56 675.23,-162.26 756,-179.5 792.4,-187.27 831.11,-206.4 855.41,-219.91"/>
<polygon fill="#63b8ff" stroke="#63b8ff" points="853.86,-223.06 864.28,-224.95 857.32,-216.97 853.86,-223.06"/>
</a>
</g>
</g>
<!-- Node15 -->
<g id="Node000015" class="node">
<title>Node15</title>
<g id="a_Node000015"><a xlink:href="structConfig.html#a936e7b5bd16f50374b648f00465f1a32" target="_top" xlink:title="Determines if submission secondary domains should be used in matching.">
<polygon fill="white" stroke="#666666" points="970,-113 792,-113 792,-94 970,-94 970,-113"/>
<text text-anchor="middle" x="881" y="-101" font-family="Helvetica,sans-Serif" font-size="10.00">Config::useSubmissionSecondary</text>
</a>
</g>
</g>
<!-- Node5&#45;&gt;Node15 -->
<g id="edge14_Node000005_Node000015" class="edge">
<title>Node5&#45;&gt;Node15</title>
<g id="a_edge14_Node000005_Node000015"><a xlink:title=" ">
<path fill="none" stroke="#63b8ff" d="M486.11,-168.94C496.62,-165.49 507.14,-160.82 516,-154.5 538.59,-138.39 527.37,-116.26 552,-103.5 643.91,-55.88 770.67,-75.89 836.45,-91.49"/>
<polygon fill="#63b8ff" stroke="#63b8ff" points="835.92,-94.96 846.47,-93.95 837.59,-88.17 835.92,-94.96"/>
</a>
</g>
</g>
<!-- Node7 -->
<g id="Node000007" class="node">
<title>Node7</title>
<g id="a_Node000007"><a xlink:href="classGraph.html#a0a3f35d90f69456655a046806c725063" target="_top" xlink:title="Returns the number of nodes in the graph.">
<polygon fill="white" stroke="#666666" points="933,-431 829,-431 829,-412 933,-412 933,-431"/>
<text text-anchor="middle" x="881" y="-419" font-family="Helvetica,sans-Serif" font-size="10.00">Graph::numNodes</text>
</a>
</g>
</g>
<!-- Node6&#45;&gt;Node7 -->
<g id="edge6_Node000006_Node000007" class="edge">
<title>Node6&#45;&gt;Node7</title>
<g id="a_edge6_Node000006_Node000007"><a xlink:title=" ">
<path fill="none" stroke="#63b8ff" d="M701.1,-199.18C719.51,-201.39 740.08,-206.48 756,-217.5 790.78,-241.56 848.9,-356.89 871.05,-402.69"/>
<polygon fill="#63b8ff" stroke="#63b8ff" points="867.95,-404.32 875.44,-411.82 874.26,-401.29 867.95,-404.32"/>
</a>
</g>
</g>
<!-- Node9 -->
<g id="Node000009" class="node">
<title>Node9</title>
<g id="a_Node000009"><a xlink:href="structSubmission.html#a19ab1b3a6dc11bd0b8254be4cbc31d2d" target="_top" xlink:title="Checks if this submission covers the given domain.">
<polygon fill="white" stroke="#666666" points="948,-56 814,-56 814,-37 948,-37 948,-56"/>
<text text-anchor="middle" x="881" y="-44" font-family="Helvetica,sans-Serif" font-size="10.00">Submission::hasDomain</text>
</a>
</g>
</g>
<!-- Node8&#45;&gt;Node9 -->
<g id="edge8_Node000008_Node000009" class="edge">
<title>Node8&#45;&gt;Node9</title>
<g id="a_edge8_Node000008_Node000009"><a xlink:title=" ">
<path fill="none" stroke="#63b8ff" d="M735.59,-46.5C757.69,-46.5 781.58,-46.5 803.45,-46.5"/>
<polygon fill="#63b8ff" stroke="#63b8ff" points="803.67,-50 813.67,-46.5 803.67,-43 803.67,-50"/>
</a>
</g>
</g>
<!-- Node16&#45;&gt;Node7 -->
<g id="edge16_Node000016_Node000007" class="edge">
<title>Node16&#45;&gt;Node7</title>
<g id="a_edge16_Node000016_Node000007"><a xlink:title=" ">
<path fill="none" stroke="#63b8ff" d="M489.12,-394.04C508.92,-397.15 531.41,-400.34 552,-402.5 644.62,-412.2 752.51,-417.25 818.52,-419.64"/>
<polygon fill="#63b8ff" stroke="#63b8ff" points="818.63,-423.15 828.75,-420 818.88,-416.15 818.63,-423.15"/>
</a>
</g>
</g>
<!-- Node17&#45;&gt;Node7 -->
<g id="edge20_Node000017_Node000007" class="edge">
<title>Node17&#45;&gt;Node7</title>
<g id="a_edge20_Node000017_Node000007"><a xlink:title=" ">
<path fill="none" stroke="#63b8ff" d="M492.33,-454.49C577.1,-447.28 732.82,-434.03 818.85,-426.7"/>
<polygon fill="#63b8ff" stroke="#63b8ff" points="819.32,-430.18 828.99,-425.84 818.73,-423.2 819.32,-430.18"/>
</a>
</g>
</g>
<!-- Node18 -->
<g id="Node000018" class="node">
<title>Node18</title>
<g id="a_Node000018"><a xlink:href="classGraph.html#a348391db529c20a826a1483fe7bdcb9a" target="_top" xlink:title="BFS on the residual graph to find the shortest augmenting path.">
<polygon fill="white" stroke="#666666" points="687.5,-507 620.5,-507 620.5,-488 687.5,-488 687.5,-507"/>
<text text-anchor="middle" x="654" y="-495" font-family="Helvetica,sans-Serif" font-size="10.00">Graph::bfs</text>
</a>
</g>
</g>
<!-- Node17&#45;&gt;Node18 -->
<g id="edge18_Node000017_Node000018" class="edge">
<title>Node17&#45;&gt;Node18</title>
<g id="a_edge18_Node000017_Node000018"><a xlink:title=" ">
<path fill="none" stroke="#63b8ff" d="M488.61,-469.04C526.24,-475.56 575.38,-484.06 610.1,-490.07"/>
<polygon fill="#63b8ff" stroke="#63b8ff" points="609.94,-493.6 620.39,-491.85 611.13,-486.7 609.94,-493.6"/>
</a>
</g>
</g>
<!-- Node19 -->
<g id="Node000019" class="node">
<title>Node19</title>
<g id="a_Node000019"><a xlink:href="structEdge.html#a0b45154adf516897233895a25fad355e" target="_top" xlink:title="Residual capacity of this edge.">
<polygon fill="white" stroke="#666666" points="924,-507 838,-507 838,-488 924,-488 924,-507"/>
<text text-anchor="middle" x="881" y="-495" font-family="Helvetica,sans-Serif" font-size="10.00">Edge::residual</text>
</a>
</g>
</g>
<!-- Node18&#45;&gt;Node19 -->
<g id="edge19_Node000018_Node000019" class="edge">
<title>Node18&#45;&gt;Node19</title>
<g id="a_edge19_Node000018_Node000019"><a xlink:title=" ">
<path fill="none" stroke="#63b8ff" d="M687.72,-497.5C724.39,-497.5 784.36,-497.5 827.59,-497.5"/>
<polygon fill="#63b8ff" stroke="#63b8ff" points="827.64,-501 837.64,-497.5 827.64,-494 827.64,-501"/>
</a>
</g>
</g>
<!-- Node20&#45;&gt;Node12 -->
<g id="edge27_Node000020_Node000012" class="edge">
<title>Node20&#45;&gt;Node12</title>
<g id="a_edge27_Node000020_Node000012"><a xlink:title=" ">
<path fill="none" stroke="#63b8ff" d="M488.61,-300.96C518.74,-295.74 556.26,-289.25 587.84,-283.78"/>
<polygon fill="#63b8ff" stroke="#63b8ff" points="588.62,-287.2 597.87,-282.04 587.42,-280.3 588.62,-287.2"/>
</a>
</g>
</g>
<!-- Node21 -->
<g id="Node000021" class="node">
<title>Node21</title>
<g id="a_Node000021"><a xlink:href="classSolver.html#a0a32ae51c07e104de80b39cceaaf325f" target="_top" xlink:title="Determines which domain code caused the match between a reviewer and submission.">
<polygon fill="white" stroke="#666666" points="730,-319 578,-319 578,-300 730,-300 730,-319"/>
<text text-anchor="middle" x="654" y="-307" font-family="Helvetica,sans-Serif" font-size="10.00">Solver::findMatchedDomain</text>
</a>
</g>
</g>
<!-- Node20&#45;&gt;Node21 -->
<g id="edge22_Node000020_Node000021" class="edge">
<title>Node20&#45;&gt;Node21</title>
<g id="a_edge22_Node000020_Node000021"><a xlink:title=" ">
<path fill="none" stroke="#63b8ff" d="M492.03,-310.23C515.14,-310.13 542.15,-310.01 567.37,-309.89"/>
<polygon fill="#63b8ff" stroke="#63b8ff" points="567.69,-313.39 577.68,-309.84 567.66,-306.39 567.69,-313.39"/>
</a>
</g>
</g>
<!-- Node22 -->
<g id="Node000022" class="node">
<title>Node22</title>
<g id="a_Node000022"><a xlink:href="classGraph.html#af5f263b25175df3f5511ff5ede0a63aa" target="_top" xlink:title="Returns the adjacency list of a given node (const).">
<polygon fill="white" stroke="#666666" points="695.5,-393 612.5,-393 612.5,-374 695.5,-374 695.5,-393"/>
<text text-anchor="middle" x="654" y="-381" font-family="Helvetica,sans-Serif" font-size="10.00">Graph::getAdj</text>
</a>
</g>
</g>
<!-- Node20&#45;&gt;Node22 -->
<g id="edge25_Node000020_Node000022" class="edge">
<title>Node20&#45;&gt;Node22</title>
<g id="a_edge25_Node000020_Node000022"><a xlink:title=" ">
<path fill="none" stroke="#63b8ff" d="M450.6,-320.16C473.14,-332.49 514.36,-353.63 552,-365.5 568.04,-370.56 585.98,-374.33 602.24,-377.08"/>
<polygon fill="#63b8ff" stroke="#63b8ff" points="601.69,-380.54 612.12,-378.67 602.8,-373.63 601.69,-380.54"/>
</a>
</g>
</g>
<!-- Node23 -->
<g id="Node000023" class="node">
<title>Node23</title>
<g id="a_Node000023"><a xlink:href="classNetworkBuilder.html#a4efdb0e13d73f6f3cbf38b4cd11a5ef3" target="_top" xlink:title="Inverse: given a graph node ID, returns the submission vector index.">
<polygon fill="white" stroke="#666666" points="756,-356 552,-356 552,-337 756,-337 756,-356"/>
<text text-anchor="middle" x="654" y="-344" font-family="Helvetica,sans-Serif" font-size="10.00">NetworkBuilder::nodeToSubmissionIdx</text>
</a>
</g>
</g>
<!-- Node20&#45;&gt;Node23 -->
<g id="edge26_Node000020_Node000023" class="edge">
<title>Node20&#45;&gt;Node23</title>
<g id="a_edge26_Node000020_Node000023"><a xlink:title=" ">
<path fill="none" stroke="#63b8ff" d="M491.46,-320.01C520.1,-324.7 554.85,-330.4 584.77,-335.31"/>
<polygon fill="#63b8ff" stroke="#63b8ff" points="584.28,-338.78 594.72,-336.94 585.41,-331.87 584.28,-338.78"/>
</a>
</g>
</g>
<!-- Node21&#45;&gt;Node14 -->
<g id="edge23_Node000021_Node000014" class="edge">
<title>Node21&#45;&gt;Node14</title>
<g id="a_edge23_Node000021_Node000014"><a xlink:title=" ">
<path fill="none" stroke="#63b8ff" d="M722.4,-299.95C733.74,-297.65 745.29,-294.85 756,-291.5 791.13,-280.49 829.29,-261.85 853.87,-248.9"/>
<polygon fill="#63b8ff" stroke="#63b8ff" points="855.73,-251.87 862.9,-244.07 852.43,-245.7 855.73,-251.87"/>
</a>
</g>
</g>
<!-- Node21&#45;&gt;Node15 -->
<g id="edge24_Node000021_Node000015" class="edge">
<title>Node21&#45;&gt;Node15</title>
<g id="a_edge24_Node000021_Node000015"><a xlink:title=" ">
<path fill="none" stroke="#63b8ff" d="M730.11,-304.43C739.42,-301.48 748.34,-297.32 756,-291.5 785.44,-269.13 772.53,-247.93 792,-216.5 814.31,-180.48 845.9,-142.35 864.54,-120.88"/>
<polygon fill="#63b8ff" stroke="#63b8ff" points="867.27,-123.08 871.23,-113.25 862,-118.46 867.27,-123.08"/>
</a>
</g>
</g>
<!-- Node25 -->
<g id="Node000025" class="node">
<title>Node25</title>
<g id="a_Node000025"><a xlink:href="classOutputWriter.html#a33523f8610417f2806d5943455614a14" target="_top" xlink:title="Writes the risk analysis section to any output stream.">
<polygon fill="white" stroke="#666666" points="516,-112 349,-112 349,-93 516,-93 516,-112"/>
<text text-anchor="middle" x="432.5" y="-100" font-family="Helvetica,sans-Serif" font-size="10.00">OutputWriter::writeRiskSection</text>
</a>
</g>
</g>
<!-- Node24&#45;&gt;Node25 -->
<g id="edge32_Node000024_Node000025" class="edge">
<title>Node24&#45;&gt;Node25</title>
<g id="a_edge32_Node000024_Node000025"><a xlink:title=" ">
<path fill="none" stroke="#63b8ff" d="M251.54,-168.84C274.5,-157.71 313.93,-139.33 349,-126.5 360.49,-122.3 373.09,-118.32 384.91,-114.86"/>
<polygon fill="#63b8ff" stroke="#63b8ff" points="385.96,-118.2 394.6,-112.08 384.03,-111.47 385.96,-118.2"/>
</a>
</g>
</g>
</g>
</svg>
